<?xml version="1.0" encoding="UTF-8"?>
<svg width="80px" height="80px" viewBox="0 0 80 80" version="1.1" xmlns="http://www.w3.org/2000/svg" xmlns:xlink="http://www.w3.org/1999/xlink">
    <!-- Generator: Sketch 64 (93537) - https://sketch.com -->
    <title>graphicdesign</title>
    <desc>Created with Sketch.</desc>
    <defs>
        <linearGradient x1="0%" y1="50.0007883%" x2="99.9987174%" y2="50.0007883%" id="linearGradient-1">
            <stop stop-color="#E29A64" offset="0%"></stop>
            <stop stop-color="#E85E8C" offset="100%"></stop>
        </linearGradient>
    </defs>
    <g id="graphicdesign" stroke="none" stroke-width="1" fill="none" fill-rule="evenodd">
        <path d="M47.5032295,26.812959 L33.0428291,26.812959 L25.0942182,49.8680863 L37.0239818,65.1626523 L37.0238942,51.533163 C36.4842413,51.1335255 36.0295092,50.6279947 35.6909148,50.0479769 C35.2674786,49.3226236 35.025,48.4809767 35.025,47.5833232 C35.025,46.2210134 35.5827684,44.9871467 36.4861685,44.0942029 C37.3854364,43.2053435 38.6275019,42.6546207 40,42.6546207 C41.3724981,42.6546207 42.6145636,43.2053435 43.5138315,44.0942029 C44.4172316,44.9871467 44.975,46.2210134 44.975,47.5833232 C44.975,48.4809767 44.7325214,49.3226236 44.3090852,50.0479769 C43.9704843,50.6280058 43.5157414,51.1335448 42.9760749,51.5331859 L42.9751851,65.1634735 L54.9138368,49.857753 L47.5032295,26.812959 Z M54.0500001,12.975 L25.9499999,12.975 C25.6807611,12.975 25.4370111,13.0841306 25.2605708,13.2605708 C25.0841306,13.4370111 24.975,13.6807611 24.975,13.9499999 L24.975,21.9111078 C24.975,22.1803466 25.0841306,22.4240966 25.2605708,22.6005369 C25.4370111,22.7769772 25.6807611,22.8861078 25.9499999,22.8861078 L54.0500001,22.8861078 C54.3192389,22.8861078 54.5629889,22.7769772 54.7394292,22.6005369 C54.9158694,22.4240966 55.025,22.1803466 55.025,21.9111078 L55.025,13.9499999 C55.025,13.6807611 54.9158694,13.4370111 54.7394292,13.2605708 C54.5629889,13.0841306 54.3192389,12.975 54.0500001,12.975 Z" id="Combined-Shape" stroke="url(#linearGradient-1)" stroke-width="1.94999993"></path>
    </g>
</svg>