<?xml version="1.0" encoding="UTF-8"?>
<svg width="80px" height="80px" viewBox="0 0 80 80" version="1.1" xmlns="http://www.w3.org/2000/svg" xmlns:xlink="http://www.w3.org/1999/xlink">
    <!-- Generator: Sketch 64 (93537) - https://sketch.com -->
    <title>logodevelopment</title>
    <desc>Created with Sketch.</desc>
    <defs>
        <linearGradient x1="0%" y1="50.0007883%" x2="99.9987174%" y2="50.0007883%" id="linearGradient-1">
            <stop stop-color="#E29A64" offset="0%"></stop>
            <stop stop-color="#E85E8C" offset="100%"></stop>
        </linearGradient>
    </defs>
    <g id="logodevelopment" stroke="none" stroke-width="1" fill="none" fill-rule="evenodd">
        <g id="Group" transform="translate(14.000000, 14.000000)" fill="url(#linearGradient-1)" fill-rule="nonzero">
            <path d="M20.9780367,47.8881702 C22.6119673,48.2614005 24.2930395,48.4516129 26,48.4516129 C26.2220541,48.4516129 26.443706,48.448394 26.6649129,48.4419685 C27.5197029,48.417139 28.2327755,49.089955 28.257605,49.944745 C28.2824345,50.7995351 27.6096185,51.5126076 26.7548285,51.5374371 C26.5036591,51.544733 26.2520322,51.5483871 26,51.5483871 C24.0605789,51.5483871 22.1481949,51.3320019 20.2884193,50.9071831 C19.4547419,50.7167505 18.933289,49.8865453 19.1237216,49.0528679 C19.3141542,48.2191906 20.1443594,47.6977376 20.9780367,47.8881702 Z M39.9135207,45.6188998 C40.3629699,46.3464147 40.1375532,47.3005326 39.4100383,47.7499819 C37.5343754,48.9087421 35.5149062,49.8210557 33.3974789,50.4606064 C32.5788545,50.7078648 31.7147858,50.2446812 31.4675274,49.4260569 C31.220269,48.6074325 31.6834526,47.7433638 32.5020769,47.4961054 C34.3611945,46.934575 36.1346474,46.1334015 37.7824386,45.1154175 C38.5099535,44.6659682 39.4640714,44.8913849 39.9135207,45.6188998 Z M10.8140155,42.5368332 C12.2421647,43.8490589 13.8339339,44.9725786 15.5490367,45.8763692 C16.3055741,46.2750342 16.595687,47.2115107 16.197022,47.9680481 C15.7983571,48.7245855 14.8618806,49.0146984 14.1053432,48.6160334 C12.153641,47.5875643 10.3429672,46.309535 8.71877026,44.8171748 C8.08907131,44.2385888 8.04763609,43.2590803 8.6262221,42.6293814 C9.20480811,41.9996824 10.1843166,41.9582472 10.8140155,42.5368332 Z M47.8007862,36.1688586 C48.5505324,36.5801531 48.8249017,37.5213626 48.4136072,38.2711088 C47.3525445,40.2053133 46.0443564,41.9946708 44.5250022,43.5939459 C43.9360089,44.2139213 42.9559462,44.2390373 42.3359708,43.650044 C41.7159954,43.0610508 41.6908794,42.080988 42.2798727,41.4610126 C43.6158976,40.0547103 44.7660199,38.4815573 45.698536,36.7816795 C46.1098306,36.0319333 47.05104,35.7575641 47.8007862,36.1688586 Z M4.61500382,32.8590782 C5.20753641,34.708057 6.03836537,36.4681536 7.08392351,38.0991762 C7.54542895,38.8191034 7.33593667,39.7768439 6.61600941,40.2383493 C5.89608215,40.6998548 4.93834171,40.4903625 4.47683627,39.7704352 C3.28679405,37.9140241 2.34079094,35.9099331 1.66595939,33.8041431 C1.40498692,32.989787 1.85359302,32.1180609 2.66794916,31.8570885 C3.48230529,31.596116 4.35403135,32.0447221 4.61500382,32.8590782 Z M38.3424302,31.8330044 C39.7922594,32.1807831 41.2808812,32.3840423 42.793014,32.4373984 C43.6476327,32.4675539 44.3159922,33.1848051 44.2858368,34.0394239 C44.2556813,34.8940426 43.53843,35.5624021 42.6838113,35.5322466 C40.9646531,35.4715856 39.2706364,35.2402813 37.620081,34.8443533 C36.7885199,34.6448821 36.2761099,33.8090653 36.4755811,32.9775043 C36.6750524,32.1459432 37.5108692,31.6335332 38.3424302,31.8330044 Z M49.9787007,24.1451672 C50.8337843,24.1344631 51.5356439,24.818968 51.5463479,25.6740516 L51.5483871,26 C51.5483871,26.2858174 51.5436874,26.5710424 51.5343142,26.8555927 C51.533733,26.8683297 51.5334421,26.8817649 51.5329778,26.8952345 L51.5274359,27.043637 C51.5236934,27.1366911 51.5194506,27.2296709 51.5147086,27.3225736 L51.5329778,26.8952345 C51.5235563,27.1685221 51.509823,27.4411769 51.4918021,27.7131253 C51.4866454,27.7909492 51.4811728,27.868226 51.475354,27.9454446 C51.4653562,28.0780819 51.4543423,28.2105129 51.4423104,28.3427619 C51.4338438,28.4358831 51.4248098,28.5294971 51.4152656,28.6230176 C51.4030484,28.7426525 51.3900936,28.8613291 51.3763173,28.979847 C51.3652557,29.0750808 51.3535357,29.1711803 51.3412752,29.2671731 C51.3285606,29.3666618 51.3153728,29.4653012 51.3016144,29.5638227 C51.2842937,29.6878954 51.2660304,29.8119941 51.246861,29.9359 C51.2334056,30.0228457 51.2194934,30.1097887 51.2051351,30.1966331 C51.1886761,30.2962061 51.1716471,30.3955326 51.154034,30.4947272 C51.1358963,30.5968613 51.1171035,30.6990643 51.0976906,30.8011213 C51.0777377,30.9060242 51.0572024,31.0103994 51.0360177,31.1146187 C51.0115353,31.2350604 50.9861049,31.3556742 50.9598045,31.4760691 C50.9448952,31.5443184 50.9298103,31.6120337 50.9144498,31.679679 C50.8933719,31.7725082 50.8716641,31.8656741 50.8494334,31.9587023 L50.8439762,31.9814929 C50.8324042,32.0297207 50.8206916,32.0779118 50.8088384,32.1260657 C50.6044431,32.9564301 49.7656046,33.4638784 48.9352402,33.2594831 C48.1048757,33.0550878 47.5974275,32.2162493 47.8018228,31.3858848 L47.9126129,30.9026129 L47.9563417,30.7134857 C47.9843521,30.5823349 48.0111892,30.4508889 48.0368491,30.3191588 C48.0457439,30.2734879 48.0546338,30.227073 48.0633776,30.1806231 L48.0368491,30.3191588 C48.1155789,29.9149846 48.1832274,29.5081353 48.2396858,29.0989275 C48.2614896,28.9408749 48.2816627,28.7821813 48.3001543,28.6231501 C48.3065436,28.5682475 48.312772,28.5129002 48.3187968,28.4575132 L48.3001543,28.6231501 C48.3181393,28.4684764 48.3345338,28.3134835 48.3493317,28.1581884 L48.3187968,28.4575132 C48.340179,28.2609418 48.3589957,28.0638701 48.3752352,27.8663324 L48.3493317,28.1581884 C48.3713986,27.9266101 48.3899153,27.6943597 48.4048618,27.461494 L48.3752352,27.8663324 C48.3907137,27.6780516 48.4038508,27.4893475 48.4146362,27.3002501 L48.4048618,27.461494 C48.4139775,27.3194737 48.4217652,27.1772246 48.4282204,27.0347594 L48.4146362,27.3002501 C48.4392467,26.8687635 48.4516129,26.4352285 48.4516129,26 L48.4498163,25.7128144 C48.4391123,24.8577308 49.1236171,24.1558713 49.9787007,24.1451672 Z M27.9475628,26.095862 C29.0236907,27.1425385 30.2017886,28.0797647 31.4634809,28.8920855 C32.1824954,29.3550118 32.390096,30.3131641 31.9271697,31.0321785 C31.4642435,31.751193 30.5060912,31.9587936 29.7870767,31.4958673 C28.3518826,30.57184 27.0120953,29.5059832 25.7884008,28.3157787 C25.1753877,27.7195426 25.1617873,26.7392524 25.7580234,26.1262393 C26.3542596,25.5132263 27.3345497,25.4996259 27.9475628,26.095862 Z M2.83571175,19.5097596 C3.67247228,19.6861523 4.20780623,20.5074752 4.03141361,21.3442357 C3.71125519,22.8629836 3.54838712,24.4204791 3.54838712,26 C3.54838712,26.3488072 3.55632957,26.6966138 3.57216601,27.0432523 C3.61119352,27.8975119 2.95031736,28.6216641 2.0960578,28.6606916 C1.24179825,28.6997191 0.517646004,28.038843 0.478618502,27.1845834 C0.46063141,26.7908702 0.45161288,26.3959409 0.45161288,26 C0.45161288,24.2054984 0.636866022,22.433936 1.00123569,20.7054615 C1.17762832,19.868701 1.99895122,19.333367 2.83571175,19.5097596 Z M28.442106,6.80000007 C36.813581,6.80000007 43.6000023,13.7843587 43.6000023,22.4000016 C43.6000023,24.0852948 43.3403355,25.7081707 42.8599317,27.2285641 C41.7968619,27.4718374 40.6919223,27.6000021 39.5578966,27.6000021 C31.1864217,27.6000021 24.4000003,20.6156435 24.4000003,12.0000006 C24.4000003,10.3147074 24.6596671,8.69183147 25.140071,7.17143806 C26.2031407,6.92816475 27.3080803,6.80000007 28.442106,6.80000007 Z M21.9239279,15.8729855 C22.3160385,17.3239403 22.852994,18.7275783 23.525379,20.0657488 C23.9093206,20.8298636 23.6011294,21.7605471 22.8370146,22.1444887 C22.0728998,22.5284303 21.1422162,22.2202391 20.7582746,21.4561243 C19.9926138,19.9323177 19.381025,18.3335833 18.934395,16.6808862 C18.7112994,15.8553494 19.1996744,15.005265 20.0252111,14.7821693 C20.8507479,14.5590737 21.7008323,15.0474487 21.9239279,15.8729855 Z M47.9709398,12.9543855 C48.1179308,13.2014418 48.2606907,13.4508779 48.3991628,13.7025924 C48.4029114,13.7095494 48.4071253,13.7170802 48.4112851,13.7246596 L48.4615123,13.8166183 C48.5185371,13.9215409 48.5748195,14.0268545 48.6303555,14.1325519 L48.4112851,13.7246596 C48.5348714,13.9498432 48.655026,14.1768401 48.771709,14.4055782 C48.8265991,14.5131671 48.8808869,14.6214884 48.9343979,14.7301909 C48.9666321,14.7956837 48.9984793,14.8610858 49.0300453,14.9266232 C49.085048,15.0408085 49.1392308,15.1554878 49.1925549,15.2705712 C49.2301537,15.3517217 49.2675241,15.4335042 49.3044611,15.515486 C49.3553943,15.6285275 49.4054025,15.7417241 49.4545856,15.8552913 C49.485163,15.9259049 49.5153347,15.996449 49.545188,16.0671332 C49.5937194,16.1820268 49.6416897,16.2979877 49.6888047,16.4143156 C49.7233473,16.4996092 49.7572951,16.584752 49.7907846,16.6700868 C49.8274725,16.7635674 49.8636717,16.8574421 49.899317,16.9515443 C49.9402854,17.0596957 49.9806271,17.1684356 50.0202293,17.27747 C50.2275054,17.8481985 50.4143545,18.4264069 50.5804627,19.0117411 C50.8139217,19.8344071 50.336275,20.6905657 49.513609,20.9240247 C48.6909429,21.1574837 47.8347844,20.6798371 47.6013254,19.857171 C47.4984203,19.4945527 47.3864445,19.1350394 47.2655595,18.7789216 C47.2377019,18.6968537 47.2094105,18.6150806 47.1806489,18.5334903 L47.2655595,18.7789216 C47.1424211,18.4161654 47.0100383,18.0569326 46.8685816,17.7015303 C46.8389554,17.6270961 46.8088506,17.552632 46.778347,17.4783391 L46.8685816,17.7015303 C46.7974683,17.5228618 46.7240617,17.3451614 46.6483836,17.168468 L46.778347,17.4783391 C46.7084374,17.3080713 46.6364331,17.1387028 46.5623529,16.9702677 L46.6483836,17.168468 C46.5702855,16.9861244 46.4897682,16.8048533 46.4068557,16.6246977 L46.5623529,16.9702677 C46.4790477,16.7808578 46.3931174,16.5926283 46.3045887,16.4056278 L46.4068557,16.6246977 C46.3311487,16.4601985 46.2534446,16.2966293 46.1737616,16.1340227 L46.3045887,16.4056278 C46.2177353,16.2221661 46.128381,16.0398873 46.036551,15.8588373 L46.1737616,16.1340227 C46.0891549,15.9613687 46.0023173,15.7897999 45.9132703,15.6193554 L46.036551,15.8588373 C45.9574597,15.7029026 45.8765318,15.5478794 45.7937837,15.3937971 L45.9132703,15.6193554 C45.7221493,15.2535314 45.5208508,14.8928866 45.3095896,14.5378077 C44.8723397,13.8028961 45.1136421,12.8526714 45.8485536,12.4154215 C46.5834652,11.9781715 47.5336899,12.2194739 47.9709398,12.9543855 Z M9.08417696,8.90502778 C9.72334949,9.47313077 9.78096274,10.451821 9.21285975,11.0909935 C7.9243214,12.5407277 6.82730368,14.1509185 5.95216151,15.8811249 C5.56618857,16.6442156 4.63468844,16.94993 3.87159773,16.5639571 C3.10850702,16.1779841 2.80279267,15.246484 3.18876561,14.4833933 C4.18472401,12.5143262 5.4327103,10.6825453 6.89821125,9.03371058 C7.46631424,8.39453804 8.44500442,8.33692479 9.08417696,8.90502778 Z M38.6416428,3.79369081 L38.9943115,3.99904863 C39.0045498,4.00482091 39.0147489,4.01072224 39.0249072,4.0167531 L39.1016129,4.06361288 L39.1605001,4.09782232 C39.2121448,4.12891713 39.2636753,4.16019232 39.3150907,4.19164714 L39.0249072,4.0167531 C39.2278315,4.13722785 39.4290255,4.26048002 39.6284338,4.38646526 C39.7113943,4.43887854 39.7943264,4.49194607 39.8769422,4.54548591 C39.9701149,4.6058684 40.0625719,4.66664342 40.1546249,4.72801142 C40.2020412,4.75962205 40.2495392,4.79151701 40.296928,4.82356967 C40.4157128,4.90391392 40.5336088,4.98510756 40.6508111,5.06728028 C40.7141721,5.1117052 40.7771332,5.15627489 40.8398902,5.20112688 C41.0121873,5.32426568 41.1829902,5.44956589 41.3522188,5.57696652 C41.6124723,5.77289244 41.8690111,5.97379378 42.1216682,6.17953562 C42.1900491,6.23522165 42.2579517,6.29109953 42.3255696,6.34732838 C42.4241077,6.4292668 42.5221385,6.51203557 42.6195526,6.59554236 C42.6704947,6.63921481 42.7210106,6.68286282 42.7713589,6.72671004 C42.879331,6.8207362 42.9867858,6.91590901 43.0934511,7.01199016 C43.1075677,7.02470791 43.121424,7.03721692 43.1352669,7.04974131 L43.1528448,7.0656582 C43.4061761,7.29528592 43.6550163,7.53005503 43.8991973,7.76982866 C44.5093617,8.3689797 44.5182898,9.34932354 43.9191387,9.95948792 C43.3199877,10.5696523 42.3396438,10.5785804 41.7294795,9.97942935 C41.3479154,9.60475243 40.9534325,9.24398582 40.5468673,8.89780738 C40.4729564,8.83487902 40.3990313,8.77275035 40.3247173,8.71110388 L40.5468673,8.89780738 C40.3940059,8.76765037 40.2394365,8.6395556 40.0832036,8.51355907 L40.3247173,8.71110388 C40.1684776,8.58149672 40.0105188,8.45402101 39.850887,8.32871345 L40.0832036,8.51355907 C39.9444364,8.40164802 39.8043568,8.29139231 39.6629959,8.18281718 L39.850887,8.32871345 C39.7121829,8.21983368 39.5722158,8.11259085 39.4310158,8.00700902 L39.6629959,8.18281718 C39.4924348,8.05181423 39.3200085,7.92325788 39.1457717,7.79719246 L39.4310158,8.00700902 C39.2878596,7.89996436 39.1434361,7.79462705 38.997777,7.6910222 L39.1457717,7.79719246 C39.0065786,7.69648216 38.86623,7.59736157 38.7247538,7.4998533 L38.997777,7.6910222 C38.8159725,7.56170775 38.632243,7.43509226 38.4466499,7.31122453 L38.7247538,7.4998533 C38.5924153,7.4086429 38.4590902,7.31884328 38.3248013,7.23047294 L38.4466499,7.31122453 C38.2925162,7.20835332 38.1370971,7.10737728 37.9804277,7.00832438 L38.3248013,7.23047294 C38.1420254,7.1101952 37.9574642,6.9925652 37.7711751,6.87762958 L37.9804277,7.00832438 C37.8371967,6.9177678 37.6929208,6.82881858 37.5476267,6.74149808 L37.7711751,6.87762958 C37.5522155,6.7425371 37.3308688,6.61116694 37.1072287,6.48359486 C36.3644322,6.05987808 36.1057669,5.11423224 36.5294837,4.37143574 C36.9532005,3.62863925 37.8988463,3.36997404 38.6416428,3.79369081 Z M19.5302153,2.34021116 L19.5976781,2.28882127 C19.9614446,2.04023468 20.4282924,1.94776072 20.8860702,2.07481984 C21.7100701,2.30352626 22.1926509,3.15691339 21.9639444,3.98091333 C21.5649335,5.41849856 21.3096609,6.89875038 21.2040435,8.40585941 C21.1442616,9.25891783 20.4042583,9.90199551 19.5511999,9.84221363 C18.6981415,9.78243174 18.0550638,9.04242846 18.1148457,8.18937004 C18.1949849,7.0458223 18.3509612,5.91530614 18.5807852,4.80341273 L18.7856412,4.73215949 C16.9474202,5.35549425 15.201309,6.21566526 13.5876539,7.28837492 C12.8755029,7.76179165 11.9144103,7.56825924 11.4409936,6.85610818 C10.9675768,6.14395711 11.1611092,5.18286452 11.8732603,4.70944779 C13.7097398,3.48861114 15.697729,2.50928596 17.791156,1.79941167 C18.4431234,1.57833166 19.1399938,1.81643362 19.5302153,2.34021116 Z M26,0.45161288 C26.6541899,0.45161288 27.3053453,0.476232607 27.9524928,0.525178705 C28.0744154,0.534397438 28.1965888,0.544515555 28.3186082,0.555500225 C28.4129208,0.56399139 28.5074212,0.573027071 28.6018286,0.58258285 C28.7174064,0.594281941 28.8320982,0.606677226 28.9466427,0.619839755 C29.0444311,0.631079975 29.1424173,0.642914086 29.2402951,0.655310173 C29.3801164,0.673011591 29.5198669,0.69188677 29.659379,0.711907207 C29.7294782,0.721975284 29.7990982,0.73226166 29.8686591,0.742833552 C29.9865004,0.76073241 30.1046413,0.779536841 30.2226001,0.799164571 C30.3311721,0.817239357 30.439676,0.836017881 30.5480247,0.855494086 C30.6243558,0.869207128 30.700075,0.88317483 30.7757144,0.897483114 C30.8778095,0.916802688 30.9802982,0.936842043 31.0826398,0.957507766 L31.1284683,0.966797874 C31.6016742,1.06326087 32.0716338,1.17310956 32.5379278,1.29620824 C33.3647519,1.51448454 33.8580773,2.36170577 33.639801,3.18852981 C33.4215247,4.01535385 32.5743034,4.50867926 31.7474794,4.29040295 C31.0587393,4.10857993 30.3607678,3.95964916 29.6552258,3.84418967 C29.5788475,3.83169874 29.5022161,3.81956595 29.4254999,3.8078281 L29.6552258,3.84418967 C29.495645,3.81807483 29.335677,3.79367233 29.1753408,3.77098885 L29.4254999,3.8078281 C29.2300113,3.77791767 29.0339715,3.75057171 28.8374145,3.72580153 L29.1753408,3.77098885 C29.0027412,3.74657041 28.8297151,3.72414403 28.6562864,3.70371805 L28.8374145,3.72580153 C28.6558992,3.70292689 28.4739428,3.6822489 28.2915723,3.66377646 L28.6562864,3.70371805 C28.3954642,3.67299908 28.1337314,3.64680457 27.8711696,3.62516294 L28.2915723,3.66377646 C28.1095207,3.64533631 27.9270564,3.62909402 27.7442063,3.61505844 L27.8711696,3.62516294 C27.6926614,3.61044942 27.5137701,3.59784035 27.3345212,3.58734468 L27.7442063,3.61505844 C27.5473273,3.59994601 27.3500009,3.58739189 27.1522607,3.57740717 L27.3345212,3.58734468 C26.8917338,3.56141786 26.4467646,3.54838712 26,3.54838712 C25.523934,3.54838712 25.0497471,3.56318215 24.5778685,3.59264624 C23.72438,3.64593804 22.9892894,2.99725049 22.9359976,2.14376205 C22.8827058,1.2902736 23.5313934,0.55518298 24.3848818,0.501891185 C24.7422936,0.479574399 25.1007852,0.464667414 25.4602014,0.457209067 L26,0.45161288 L26,0.45161288 Z" id="Combined-Shape"></path>
        </g>
    </g>
</svg>