<?xml version="1.0" encoding="UTF-8"?>
<svg width="80px" height="80px" viewBox="0 0 80 80" version="1.1" xmlns="http://www.w3.org/2000/svg" xmlns:xlink="http://www.w3.org/1999/xlink">
    <!-- Generator: Sketch 64 (93537) - https://sketch.com -->
    <title>UX/UI design</title>
    <desc>Created with Sketch.</desc>
    <defs>
        <linearGradient x1="0%" y1="50.0007883%" x2="99.9987174%" y2="50.0007883%" id="linearGradient-1">
            <stop stop-color="#E29A64" offset="0%"></stop>
            <stop stop-color="#E85E8C" offset="100%"></stop>
        </linearGradient>
    </defs>
    <g id="UX/UI-design" stroke="none" stroke-width="1" fill="none" fill-rule="evenodd">
        <g id="noun_UI-UX_1555234" transform="translate(16.000000, 16.000000)" fill="url(#linearGradient-1)" fill-rule="nonzero">
            <g id="Group">
                <path d="M0.773083624,0.448061847 C1.20100174,0.271668118 1.6926176,0.368031359 2.01927265,0.695775261 L2.01927265,0.695775261 L48.8006315,47.4771341 C49.0831882,47.6851045 49.266115,48.0204704 49.266115,48.397757 C49.266115,49.0298345 48.7543554,49.5410497 48.1228223,49.5410497 L48.1228223,49.5410497 L1.21134582,49.5410497 C0.579812718,49.5410497 0.0680531359,49.0298345 0.0680531359,48.3983014 L0.0680531359,48.3983014 L0.0680531359,1.50424652 C0.0680531359,1.04257404 0.34679878,0.625544425 0.773083624,0.448061847 Z M2.3546385,4.26448171 L2.3546385,11.6294643 L4.84701655,11.6294643 C5.47800523,11.6294643 5.99030923,12.1406794 5.99030923,12.772757 C5.99030923,13.4048345 5.47800523,13.9171385 4.84701655,13.9171385 L4.84701655,13.9171385 L2.3546385,13.9171385 L2.3546385,19.9907448 L6.29954268,19.9907448 C6.93162021,19.9907448 7.44283537,20.5035932 7.44283537,21.1351263 C7.44283537,21.766115 6.93162021,22.278419 6.29954268,22.278419 L6.29954268,22.278419 L2.3546385,22.278419 L2.3546385,28.3514808 L4.84701655,28.3514808 C5.47800523,28.3514808 5.99030923,28.862696 5.99030923,29.4947735 C5.99030923,30.126851 5.47800523,30.6380662 4.84701655,30.6380662 L4.84701655,30.6380662 L2.3546385,30.6380662 L2.3546385,36.7127613 L6.29954268,36.7127613 C6.93162021,36.7127613 7.44283537,37.2239765 7.44283537,37.856054 C7.44283537,38.4881315 6.93162021,38.9993467 6.29954268,38.9993467 L6.29954268,38.9993467 L2.3546385,38.9993467 L2.3546385,47.2550087 L9.88185976,47.2550087 L9.88185976,43.3090157 C9.88185976,42.678027 10.3941638,42.165723 11.0251524,42.165723 C11.65723,42.165723 12.1684451,42.6785714 12.1684451,43.3090157 L12.1684451,43.3090157 L12.1684451,47.2550087 L18.2442291,47.2550087 L18.2442291,44.7637195 C18.2442291,44.131642 18.7559887,43.6204268 19.3875218,43.6204268 C20.0190549,43.6204268 20.5308145,44.1321864 20.5308145,44.7637195 L20.5308145,44.7637195 L20.5308145,47.2550087 L26.6049652,47.2550087 L26.6049652,43.3090157 C26.6049652,42.678027 27.1161803,42.165723 27.7482578,42.165723 C28.3803354,42.165723 28.8915505,42.6785714 28.8915505,43.3090157 L28.8915505,43.3090157 L28.8915505,47.2550087 L34.9662456,47.2550087 L34.9662456,44.7637195 C34.9662456,44.131642 35.4774608,43.6204268 36.1095383,43.6204268 C36.7416159,43.6204268 37.252831,44.1321864 37.252831,44.7637195 L37.252831,44.7637195 L37.252831,47.2550087 L45.3446211,47.2550087 L2.3546385,4.26448171 Z M13.1337108,24.440331 C13.5610845,24.2639373 14.0527003,24.3613894 14.3793554,24.6880444 L14.3793554,24.6880444 L26.2625218,36.5717552 C26.5450784,36.7797256 26.7280052,37.1150915 26.7280052,37.492378 C26.7280052,38.1244556 26.2162456,38.6367596 25.5841681,38.6367596 L25.5841681,38.6367596 L13.5708841,38.6367596 C12.939351,38.6367596 12.4275915,38.1239111 12.4275915,37.492378 L12.4275915,37.492378 L12.4275915,25.4959713 C12.4275915,25.0337544 12.7063371,24.6167247 13.1337108,24.440331 Z M14.7141768,28.2572953 L14.7141768,36.3490854 L22.8065113,36.3490854 L14.7141768,28.2572953 Z M21.5233014,0.106162892 C22.8282883,0.106162892 24.0499782,0.619555749 24.9651568,1.55106707 L24.9651568,1.55106707 L26.6300087,3.28016115 C26.6991507,3.32480401 26.766115,3.37706882 26.8265462,3.43858885 C26.8924216,3.50555314 26.9457753,3.5785061 26.991507,3.65635889 L26.991507,3.65635889 L46.9528528,24.4000436 L46.9528528,24.4000436 L46.9561193,24.4033101 L46.9729965,24.4256315 C47.0296167,24.4871516 47.0775261,24.5541159 47.1178136,24.6243467 C47.1297909,24.6466681 47.140135,24.6689895 47.1510235,24.691311 C47.1842334,24.7560976 47.2087326,24.8241507 47.2277875,24.8932927 L47.2277875,24.8932927 L47.2435758,24.9335801 L49.284081,33.7271341 C49.3434233,33.866507 49.3766333,34.0184016 49.3766333,34.179007 C49.3766333,34.8127178 48.8452744,35.3457099 48.2262631,35.3222997 L48.2262631,35.3222997 L48.2153746,35.3222997 C48.117378,35.3222997 48.0188371,35.3097779 47.9230183,35.2841899 L47.9230183,35.2841899 L39.0826437,32.9447953 C39.0668554,32.9404399 39.0537892,32.9322735 39.0380009,32.9268293 C38.971581,32.9061411 38.9078833,32.8800087 38.8463632,32.8478876 C38.8207753,32.834277 38.7962761,32.8212108 38.7728659,32.8076002 C38.7118902,32.7694904 38.6558145,32.7259364 38.6024608,32.6769382 C38.5888502,32.6644164 38.5725174,32.6535279 38.5589068,32.6399172 C38.5567291,32.6377395 38.5534625,32.6355618 38.550196,32.6322953 L38.550196,32.6322953 L16.5706664,9.79094077 C14.7119991,7.90559669 14.734865,4.8415723 16.6327308,2.9709277 L16.6327308,2.9709277 L18.1380662,1.49390244 C19.0456228,0.598323171 20.2493467,0.106162892 21.5233014,0.106162892 Z M45.4769164,27.4379355 L42.3388502,30.5270035 L41.606054,31.2478223 L46.6719294,32.5887413 L45.4769164,27.4379355 Z M25.9674434,5.88904617 L20.8422256,10.9326002 L39.3962326,30.2128702 L42.0486716,27.6045296 L44.5219948,25.1704051 L25.9674434,5.88904617 Z M25.2705793,10.2128702 C25.730074,9.77896341 26.453615,9.79910714 26.8875218,10.2575131 L26.8875218,10.2575131 L39.4419643,23.5191638 C39.8747822,23.9786585 39.8557274,24.7027439 39.3973214,25.1366507 C39.1762848,25.3451655 38.8937282,25.4491507 38.611716,25.4491507 C38.3090157,25.4491507 38.0057709,25.3293772 37.7814678,25.0920078 L37.7814678,25.0920078 L25.2270253,11.8292683 C24.7931185,11.3708624 24.8121733,10.646777 25.2705793,10.2128702 Z M21.5233014,2.39165941 C20.8531141,2.39165941 20.2199477,2.65135017 19.7408537,3.12336672 L19.7408537,3.12336672 L18.2366071,4.60148084 C17.238676,5.58416812 17.2256098,7.19729965 18.2088415,8.19577526 L18.2088415,8.19577526 L19.2568598,9.28462544 L24.3809887,4.24107143 L23.3253484,3.14351045 C22.852243,2.66169425 22.2098214,2.39165941 21.5233014,2.39165941 Z" id="Combined-Shape"></path>
            </g>
        </g>
    </g>
</svg>