<?xml version="1.0" encoding="UTF-8"?>
<svg width="80px" height="80px" viewBox="0 0 80 80" version="1.1" xmlns="http://www.w3.org/2000/svg" xmlns:xlink="http://www.w3.org/1999/xlink">
    <!-- Generator: Sketch 64 (93537) - https://sketch.com -->
    <title>visual branding</title>
    <desc>Created with Sketch.</desc>
    <defs>
        <linearGradient x1="0%" y1="50.0007883%" x2="99.9987174%" y2="50.0007883%" id="linearGradient-1">
            <stop stop-color="#E29A64" offset="0%"></stop>
            <stop stop-color="#E85E8C" offset="100%"></stop>
        </linearGradient>
    </defs>
    <g id="visual-branding" stroke="none" stroke-width="1" fill="none" fill-rule="evenodd">
        <path d="M57.3999999,13 C59.388225,13 61,14.611775 61,16.6000001 L61,63.3999999 C61,65.388225 59.388225,67 57.3999999,67 L21.6000001,67 C19.611775,67 18,65.388225 18,63.3999999 L18,16.6000001 C18,14.611775 19.611775,13 21.6000001,13 L57.3999999,13 Z M57.3999999,14.9499999 L21.6000001,14.9499999 C20.7366918,14.9499999 20.028239,15.6130155 19.9560564,16.4576318 L19.9499999,16.6000001 L19.9499999,63.3999999 C19.9499999,64.2633082 20.6130155,64.971761 21.4576318,65.0439436 L21.6000001,65.0500001 L57.3999999,65.0500001 C58.2633082,65.0500001 58.971761,64.3869845 59.0439436,63.5423682 L59.0500001,63.3999999 L59.0500001,16.6000001 C59.0500001,15.7366918 58.3869845,15.028239 57.5423682,14.9560564 L57.3999999,14.9499999 Z M39.8048879,20.2000003 C48.2157244,20.2000003 55.0340546,27.0500439 55.0340546,35.5000009 C55.0340546,40.5374753 52.6108241,45.0063414 48.8715726,47.7942398 L56.2347759,61.6000019 L23.375,61.6000019 L30.7371981,47.7934903 C26.9985175,45.0055405 24.5757213,40.5370239 24.5757213,35.5000009 C24.5757213,27.0500439 31.3940514,20.2000003 39.8048879,20.2000003 Z M33.8458786,49.5843821 L29.3594713,58.0000018 L50.2485129,58.0000018 L45.7618899,49.5852403 C43.9321291,50.367297 41.9188064,50.8000015 39.8048879,50.8000015 C37.6901965,50.8000015 35.6761742,50.3669805 33.8458786,49.5843821 Z M39.8048879,38.410601 L35.5484342,46.3938992 C36.8668765,46.9142498 38.3026663,47.2000014 39.8048879,47.2000014 C41.3067275,47.2000014 42.742169,46.9143952 44.0603358,46.3942961 L39.8048879,38.410601 Z M39.8048879,23.8000004 C33.3730718,23.8000004 28.1590546,29.0382691 28.1590546,35.5000009 C28.1590546,39.1608674 29.8326188,42.429034 32.4530491,44.5744224 L39.8048879,30.7882295 L47.1557198,44.5752467 C49.7767283,42.4298712 51.4507213,39.1613363 51.4507213,35.5000009 C51.4507213,29.0382691 46.2367041,23.8000004 39.8048879,23.8000004 Z" id="Combined-Shape" fill="url(#linearGradient-1)" fill-rule="nonzero"></path>
    </g>
</svg>