<?xml version="1.0" encoding="UTF-8"?>
<svg width="80px" height="80px" viewBox="0 0 80 80" version="1.1" xmlns="http://www.w3.org/2000/svg" xmlns:xlink="http://www.w3.org/1999/xlink">
    <!-- Generator: Sketch 64 (93537) - https://sketch.com -->
    <title>100mu</title>
    <desc>Created with Sketch.</desc>
    <defs>
        <linearGradient x1="0%" y1="50.0007883%" x2="99.9987174%" y2="50.0007883%" id="linearGradient-1">
            <stop stop-color="#E29A64" offset="0%"></stop>
            <stop stop-color="#E85E8C" offset="100%"></stop>
        </linearGradient>
    </defs>
    <g id="100mu" stroke="none" stroke-width="1" fill="none" fill-rule="evenodd">
        <g id="Group" transform="translate(11.000000, 19.000000)" fill="url(#linearGradient-1)" fill-rule="nonzero">
            <path d="M28.847745,37.2123244 C29.7507306,37.2123244 30.4827451,37.9443388 30.4827451,38.8473244 C30.4827451,39.6971932 29.834317,40.3956135 29.0052064,40.4748399 L28.847745,40.4823245 L1.63500005,40.4823245 C0.732014456,40.4823245 -2.64677175e-14,39.75031 -2.64677175e-14,38.8473244 C-2.64677175e-14,37.9974556 0.648428031,37.2990353 1.47753863,37.219809 L1.63500005,37.2123244 L28.847745,37.2123244 Z M57.9946014,33.790001 C58.897587,33.790001 59.6296014,34.5220155 59.6296014,35.4250011 C59.6296014,36.2748699 58.9811734,36.9732902 58.1520628,37.0525166 L57.9946014,37.0600011 L40.6011827,37.0600011 C39.6981971,37.0600011 38.9661827,36.3279867 38.9661827,35.4250011 C38.9661827,34.5751323 39.6146107,33.876712 40.4437213,33.7974856 L40.6011827,33.790001 L57.9946014,33.790001 Z M16.4929007,20.5833682 C16.7278068,20.5833682 16.9599164,20.5951135 17.1892295,20.6169262 C17.8469666,20.6801271 18.3615228,21.2567657 18.3615228,21.9290446 C18.3615228,22.2976235 18.2121897,22.637678 17.9420477,22.8865666 C17.6646347,23.1416076 17.2854291,23.2696873 16.9034271,23.2366886 L16.6992126,23.223615 L16.6992126,23.223615 L16.4929007,23.2193503 L11.8781142,23.2193503 C9.25895646,23.2193503 7.11526846,25.2922503 7.00130663,27.8837938 L6.99654156,28.100923 L6.99654156,28.6428849 L4.36000013,28.6428849 L4.36000013,28.100923 C4.36000013,24.0366744 7.60161929,20.7153641 11.6351704,20.5872063 L11.8781142,20.5833682 L16.4929007,20.5833682 Z M32.0738873,17.2421084 C33.6589443,17.2421084 35.2003758,17.7035311 36.5315104,18.5765988 C38.7637776,20.0403276 40.1285787,22.4635737 40.2232172,25.1026277 L40.2284851,25.3967062 L40.2284851,28.6423256 L37.5919437,28.6423256 L37.5919437,25.3967062 C37.5919437,22.4265555 35.2324236,19.9968505 32.2896668,19.8828341 L32.073328,19.8786498 L26.984255,19.8786498 C24.0135583,19.8786498 21.5838403,22.2376369 21.4698235,25.1803684 L21.4656393,25.3967062 L21.4656393,28.6423256 L18.8302165,28.6423256 L18.8302165,25.3967062 C18.8302165,23.5700316 19.429227,21.8378787 20.5629287,20.3876131 C22.0631062,18.4686315 24.2802762,17.3351975 26.6834829,17.2475931 L26.9848143,17.2421084 L32.0738873,17.2421084 Z M47.1789095,20.5828089 C51.243158,20.5828089 54.5644683,23.824428 54.6931532,27.8579792 L54.6970235,28.100923 L54.6970235,28.6428849 L52.0604821,28.6428849 L52.0604821,28.100923 C52.0604821,25.4817652 49.9875822,23.3380772 47.3960387,23.2241154 L47.1789095,23.2193503 L42.564123,23.2193503 C42.4740757,23.2193503 42.3845876,23.2215875 42.2956589,23.2271805 C41.9354695,23.2478746 41.5892627,23.1231507 41.3247136,22.874262 C41.0618425,22.626492 40.9113907,22.2769294 40.9113907,21.9145028 C40.9113907,21.212581 41.4684538,20.6325866 42.1793244,20.5934356 L42.3710945,20.5856054 L42.3710945,20.5856054 L42.564123,20.5828089 L47.1789095,20.5828089 Z M14.1857871,6.35141375 C17.6400255,6.35141375 20.4505093,9.16133826 20.4505093,12.616136 C20.4505093,16.0709337 17.6405848,18.8814175 14.1857871,18.8814175 C10.7309894,18.8814175 7.92050559,16.0709337 7.92050559,12.616136 C7.92050559,9.16133826 10.7315487,6.35141375 14.1857871,6.35141375 Z M44.8712366,6.35141375 C48.3260343,6.35141375 51.1365181,9.16133826 51.1365181,12.616136 C51.1365181,16.0709337 48.3260343,18.8814175 44.8712366,18.8814175 C41.4169982,18.8814175 38.6059551,16.0709337 38.6059551,12.616136 C38.6059551,9.16133826 41.4164389,6.35141375 44.8712366,6.35141375 Z M14.1857871,8.98739588 C12.1846108,8.98739588 10.557047,10.6155189 10.557047,12.616136 C10.557047,14.616753 12.1846108,16.2448761 14.1857871,16.2448761 C16.1869634,16.2448761 17.8145272,14.6173123 17.8145272,12.616136 C17.8145272,10.6149596 16.1869634,8.98739588 14.1857871,8.98739588 Z M44.8712366,8.98739588 C42.8706195,8.98739588 41.2424965,10.6155189 41.2424965,12.616136 C41.2424965,14.616753 42.8706195,16.2448761 44.8712366,16.2448761 C46.8718536,16.2448761 48.4999767,14.6173123 48.4999767,12.616136 C48.4999767,10.6149596 46.8724129,8.98739588 44.8712366,8.98739588 Z M29.5285118,0.441287905 C33.8742749,0.441287905 37.4096118,3.97662485 37.4096118,8.32238787 C37.4096118,12.6681509 33.8737156,16.2034878 29.5285118,16.2034878 C25.1827488,16.2034878 21.6474119,12.6675916 21.6474119,8.32238787 C21.6474119,3.97662485 25.1827488,0.441287905 29.5285118,0.441287905 Z M29.5285118,3.07727003 C26.6363702,3.07727003 24.283394,5.43024623 24.283394,8.32238787 C24.283394,11.2139702 26.6363702,13.5669464 29.5285118,13.5669464 C32.4200942,13.5669464 34.7730704,11.2139702 34.7730704,8.32238787 C34.7730704,5.43024623 32.4200942,3.07727003 29.5285118,3.07727003 Z" id="Combined-Shape"></path>
        </g>
    </g>
</svg>