<?xml version="1.0" encoding="UTF-8"?>
<svg width="80px" height="80px" viewBox="0 0 80 80" version="1.1" xmlns="http://www.w3.org/2000/svg" xmlns:xlink="http://www.w3.org/1999/xlink">
    <!-- Generator: Sketch 64 (93537) - https://sketch.com -->
    <title>1bi</title>
    <desc>Created with Sketch.</desc>
    <defs>
        <linearGradient x1="0%" y1="50.0007883%" x2="99.9987174%" y2="50.0007883%" id="linearGradient-1">
            <stop stop-color="#E29A64" offset="0%"></stop>
            <stop stop-color="#E85E8C" offset="100%"></stop>
        </linearGradient>
    </defs>
    <g id="1bi" stroke="none" stroke-width="1" fill="none" fill-rule="evenodd">
        <g id="noun_impression_1327151" transform="translate(7.000000, 12.000000)" fill="url(#linearGradient-1)" fill-rule="nonzero">
            <g id="Group">
                <path d="M33.0191602,47.1 C33.6191602,47.1 34.0191602,47.5 34.0191602,48.1 L34.0191602,48.1 L34.0191602,54.3 C34.0191602,54.9 33.6191602,55.3 33.0191602,55.3 C32.4191602,55.3 32.0191602,54.9 32.0191602,54.3 L32.0191602,54.3 L32.0191602,48.1 C32.0191602,47.5 32.4191602,47.1 33.0191602,47.1 Z M42.4191602,45.7 C42.9191602,45.4 43.5191602,45.6 43.8191602,46.1 L43.8191602,46.1 L46.8191602,51.8 C47.1191602,52.3 46.9191602,52.9 46.4191602,53.2 C45.9191602,53.5 45.3191602,53.3 45.0191602,52.8 L45.0191602,52.8 L42.0191602,47.1 C41.7191602,46.6 41.9191602,46 42.4191602,45.7 Z M21.7191602,46 C22.0191602,45.5 22.6191602,45.3 23.1191602,45.6 C23.6191602,45.9 23.8191602,46.5 23.5191602,47 L23.5191602,47 L20.4191602,52.7 C20.1191602,53.2 19.5191602,53.4 19.0191602,53.1 C18.5191602,52.8 18.3191602,52.2 18.6191602,51.7 L18.6191602,51.7 Z M51.0191602,41.5 C51.3191602,41 52.0191602,41 52.4191602,41.3 L52.4191602,41.3 L58.0191602,45.7 C58.5191602,46 58.5191602,46.7 58.2191602,47.1 C57.9191602,47.6 57.2191602,47.6 56.8191602,47.3 L56.8191602,47.3 L51.2191602,42.9 C50.7191602,42.6 50.7191602,41.9 51.0191602,41.5 Z M13.6191602,41.3 C14.1191602,41 14.7191602,41 15.0191602,41.4 C15.3191602,41.8 15.2191602,42.5 14.8191602,42.8 L14.8191602,42.8 L9.21916017,47.2 C8.81916017,47.5 8.11916017,47.4 7.81916017,47 C7.51916017,46.6 7.61916017,45.9 8.01916017,45.6 L8.01916017,45.6 Z M33.0191602,14.2 C47.3191602,14.2 58.7191602,26.4 59.2191602,26.9 C59.6191602,27.3 59.6191602,27.9 59.2191602,28.3 C58.7191602,28.8 47.3191602,41 33.0191602,41 C18.7191602,41 7.31916017,28.8 6.81916017,28.3 C6.41916017,27.9 6.41916017,27.3 6.81916017,26.9 C7.31916017,26.4 18.7191602,14.2 33.0191602,14.2 Z M33.0191602,16.2 C26.7191602,16.2 21.6191602,21.3 21.6191602,27.6 C21.6191602,33.9 26.7191602,39 33.0191602,39 C39.3191602,39 44.4191602,33.9 44.4191602,27.6 C44.4191602,21.3 39.3191602,16.2 33.0191602,16.2 Z M56.5191602,35.2 C56.7191602,34.7 57.3191602,34.4 57.8191602,34.6 L57.8191602,34.6 L65.1191602,37 C65.6191602,37.2 65.9191602,37.8 65.7191602,38.3 C65.5191602,38.8 64.9191602,39.1 64.4191602,38.9 L64.4191602,38.9 L57.1191602,36.5 C56.6191602,36.3 56.3191602,35.7 56.5191602,35.2 Z M8.01916017,34.3 C8.61916017,34.2 9.11916017,34.5 9.31916017,35 C9.51916017,35.5 9.21916017,36.1 8.71916017,36.3 L8.71916017,36.3 L1.31916017,38.6 C0.719160171,38.7 0.219160171,38.4 0.0191601707,37.9 C-0.0808398293,37.3 0.219160171,36.8 0.719160171,36.6 L0.719160171,36.6 Z M23.7191602,18 C16.4191602,20.7 10.8191602,25.8 9.01916017,27.6 C10.8191602,29.4 16.4191602,34.5 23.7191602,37.2 C21.2191602,34.8 19.6191602,31.4 19.6191602,27.6 C19.6191602,23.8 21.2191602,20.4 23.7191602,18 Z M42.3191602,18 C44.8191602,20.4 46.4191602,23.8 46.4191602,27.6 C46.4191602,31.4 44.8191602,34.8 42.3191602,37.2 C49.6191602,34.5 55.2191602,29.4 57.0191602,27.6 C55.2191602,25.8 49.6191602,20.7 42.3191602,18 Z M33.0191602,20 C37.2191602,20 40.6191602,23.4 40.6191602,27.6 C40.6191602,31.8 37.2191602,35.2 33.0191602,35.2 C28.8191602,35.2 25.4191602,31.8 25.4191602,27.6 C25.4191602,23.4 28.8191602,20 33.0191602,20 Z M33.0191602,22 C29.9191602,22 27.4191602,24.5 27.4191602,27.6 C27.4191602,30.7 29.9191602,33.2 33.0191602,33.2 C36.1191602,33.2 38.6191602,30.7 38.6191602,27.6 C38.6191602,24.5 36.1191602,22 33.0191602,22 Z M64.8191602,16.6 C65.4191602,16.5 65.9191602,16.8 66.1191602,17.3 C66.2191602,17.9 65.9191602,18.4 65.4191602,18.6 L65.4191602,18.6 L58.0191602,20.9 C57.4191602,21 56.9191602,20.7 56.7191602,20.2 C56.5191602,19.7 56.8191602,19.1 57.4191602,18.9 L57.4191602,18.9 Z M0.319160171,16.9 C0.519160171,16.4 1.11916017,16.1 1.61916017,16.3 L1.61916017,16.3 L8.91916017,18.7 C9.41916017,18.9 9.71916017,19.5 9.51916017,20 C9.31916017,20.5 8.71916017,20.8 8.21916017,20.6 L8.21916017,20.6 L0.919160171,18.2 C0.419160171,18 0.119160171,17.4 0.319160171,16.9 Z M56.8191602,7.9 C57.2191602,7.6 57.9191602,7.7 58.2191602,8.1 C58.5191602,8.5 58.4191602,9.2 58.0191602,9.5 L58.0191602,9.5 L52.4191602,13.9 C51.9191602,14.2 51.3191602,14.2 51.0191602,13.7 C50.7191602,13.3 50.8191602,12.6 51.2191602,12.3 L51.2191602,12.3 Z M7.81916017,8.1 C8.11916017,7.6 8.81916017,7.6 9.21916017,7.9 L9.21916017,7.9 L14.8191602,12.3 C15.3191602,12.6 15.3191602,13.3 15.0191602,13.7 C14.7191602,14.2 14.0191602,14.2 13.6191602,13.9 L13.6191602,13.9 L8.01916017,9.5 C7.51916017,9.2 7.51916017,8.6 7.81916017,8.1 Z M45.6191602,2.5 C45.9191602,2 46.5191602,1.8 47.0191602,2.1 C47.5191602,2.4 47.7191602,3 47.4191602,3.5 L47.4191602,3.5 L44.3191602,9.2 C44.0191602,9.7 43.4191602,9.9 42.9191602,9.6 C42.4191602,9.3 42.2191602,8.7 42.5191602,8.2 L42.5191602,8.2 Z M19.6191602,2 C20.1191602,1.7 20.7191602,1.9 21.0191602,2.4 L21.0191602,2.4 L24.0191602,8.1 C24.3191602,8.6 24.1191602,9.2 23.6191602,9.5 C23.1191602,9.8 22.5191602,9.6 22.2191602,9.1 L22.2191602,9.1 L19.2191602,3.4 C18.9191602,2.9 19.1191602,2.3 19.6191602,2 Z M33.0191602,-1.687539e-14 C33.6191602,-1.687539e-14 34.0191602,0.4 34.0191602,1 L34.0191602,1 L34.0191602,7.1 C34.0191602,7.7 33.6191602,8.1 33.0191602,8.1 C32.4191602,8.1 32.0191602,7.7 32.0191602,7.2 L32.0191602,7.2 L32.0191602,1 C32.0191602,0.4 32.4191602,-1.687539e-14 33.0191602,-1.687539e-14 Z" id="Combined-Shape"></path>
            </g>
        </g>
    </g>
</svg>