<?xml version="1.0" encoding="UTF-8"?>
<svg width="80px" height="80px" viewBox="0 0 80 80" version="1.1" xmlns="http://www.w3.org/2000/svg" xmlns:xlink="http://www.w3.org/1999/xlink">
    <!-- Generator: Sketch 64 (93537) - https://sketch.com -->
    <title>aai</title>
    <desc>Created with Sketch.</desc>
    <defs>
        <linearGradient x1="0%" y1="50.0007883%" x2="99.9987174%" y2="50.0007883%" id="linearGradient-1">
            <stop stop-color="#E29A64" offset="0%"></stop>
            <stop stop-color="#E85E8C" offset="100%"></stop>
        </linearGradient>
    </defs>
    <g id="aai" stroke="none" stroke-width="1" fill="none" fill-rule="evenodd">
        <path d="M54.9474465,8 C57.1854759,8 59.0004998,9.791 59,12 L59,12 L59,68 C59,70.209 57.1854759,72 54.9469465,72 L54.9469465,72 L25.0530533,72 C22.8150239,72 21,70.209 21,68 L21,68 L21,12 C21,9.791 22.8150239,8 25.0530533,8 L25.0530533,8 Z M57.0004735,64 L23.0000263,64 L23.0000263,68 C23.0000263,69.103 23.9210384,70 25.0530533,70 L25.0530533,70 L54.9474465,70 C56.0794614,70 57.0004735,69.103 57.0004735,68 L57.0004735,68 L57.0004735,64 Z M45.0003157,66 C45.5523229,66 46.0003288,66.448 46.0003288,67 C46.0003288,67.552 45.5523229,68 45.0003157,68 L45.0003157,68 L35.0001841,68 C34.4476769,68 34.000171,67.552 34.000171,67 C34.000171,66.448 34.4476769,66 35.0001841,66 L35.0001841,66 Z M57.0004735,18 L23.0000263,18 L23.0000263,62 L33.0001578,62 L33.0001578,46 C33.0001578,45.448 33.4476637,45 34.000171,45 C34.5521782,45 35.0001841,45.448 35.0001841,46 L35.0001841,46 L35.0001841,62 L37.0002104,62 L37.0002104,38 C37.0002104,37.448 37.4477163,37 38.0002236,37 C38.5522309,37 39.0002367,37.448 39.0002367,38 L39.0002367,38 L39.0002367,62 L41.0002631,62 L41.0002631,42 C41.0002631,41.448 41.4477689,41 42.0002762,41 C42.5522835,41 43.0002894,41.448 43.0002894,42 L43.0002894,42 L43.0002894,62 L45.0003157,62 L45.0003157,36.5 C45.0003157,35.948 45.4478215,35.5 46.0003288,35.5 C46.5523361,35.5 47.000342,35.948 47.000342,36.5 L47.000342,36.5 L47.000342,62 L57.0004735,62 L57.0004735,18 Z M49.8808799,23.854 C50.9208935,23.854 51.7639046,24.697 51.7639046,25.7365 C51.7639046,26.776 50.9203935,27.6185 49.8808799,27.6185 C49.814379,27.6185 49.7518782,27.606 49.6873773,27.599 L49.6873773,27.599 L45.1678179,31.541 C45.1688179,31.567 45.175818,31.5915 45.175818,31.6185 C45.175818,32.6575 44.3328069,33.501 43.2932932,33.501 C42.3162804,33.501 41.5222699,32.7525 41.4297687,31.8 L41.4297687,31.8 L37.2542138,29.1775 C37.0797115,29.2315 36.8982091,29.2685 36.7062066,29.2685 L36.7062066,29.2685 L36.6442058,29.262 L31.8881432,35.2345 C31.9561441,35.429 32.0006447,35.635 32.0006447,35.8535 C32.0006447,36.893 31.1576336,37.736 30.1186199,37.736 C29.0791063,37.736 28.2365952,36.893 28.2350952,35.8535 C28.2350952,34.8135 29.0781062,33.971 30.1176199,33.971 C30.1871208,33.971 30.2526217,33.984 30.3201226,33.9915 L30.3201226,33.9915 L34.9816839,28.138 C34.8806826,27.907 34.8231818,27.6535 34.8231818,27.3855 C34.8231818,26.346 35.6661929,25.5035 36.7057066,25.5035 C37.7452202,25.5035 38.5882313,26.346 38.5882313,27.3855 C38.5882313,27.472 38.5737311,27.554 38.562731,27.6375 L38.562731,27.6375 L42.3357806,30.006 C42.8747877,29.562 43.6772983,29.6455 44.0248028,29.8835 L44.0248028,29.8835 L48.1028565,26.3275 C48.0408557,26.1405 47.9988551,25.9445 47.9988551,25.7365 C47.9988551,24.697 48.8418662,23.854 49.8808799,23.854 Z M54.9469465,10 L25.0530533,10 C23.9210384,10 23.0000263,10.897 23.0000263,12 L23.0000263,12 L23.0000263,16 L57.0004735,16 L57.0004735,12 C57.0004735,10.897 56.0794614,10 54.9469465,10 L54.9469465,10 Z M44.0003025,12 C44.5523098,12 45.0003157,12.448 45.0003157,13 C45.0003157,13.552 44.5523098,14 44.0003025,14 L44.0003025,14 L36.0001973,14 C35.44769,14 35.0001841,13.552 35.0001841,13 C35.0001841,12.448 35.44769,12 36.0001973,12 L36.0001973,12 Z" id="Combined-Shape" fill="url(#linearGradient-1)" fill-rule="nonzero"></path>
    </g>
</svg>