<?xml version="1.0" encoding="UTF-8"?>
<svg width="80px" height="80px" viewBox="0 0 80 80" version="1.1" xmlns="http://www.w3.org/2000/svg" xmlns:xlink="http://www.w3.org/1999/xlink">
    <!-- Generator: Sketch 64 (93537) - https://sketch.com -->
    <title>alp</title>
    <desc>Created with Sketch.</desc>
    <defs>
        <linearGradient x1="0%" y1="50.0007883%" x2="99.9987174%" y2="50.0007883%" id="linearGradient-1">
            <stop stop-color="#E29A64" offset="0%"></stop>
            <stop stop-color="#E85E8C" offset="100%"></stop>
        </linearGradient>
    </defs>
    <g id="alp" stroke="none" stroke-width="1" fill="none" fill-rule="evenodd">
        <path d="M17.1534326,19.0013992 C16.4975257,19.06323 15.9971832,19.6154525 16.0000119,20.2744035 L16.0000119,53.7504374 C16.0000119,54.4534691 16.5698722,55.0233714 17.2727507,55.0234416 L39.7841047,55.0234416 C40.2430946,55.0299327 40.6700233,54.7887291 40.9014121,54.392192 C41.1328009,53.995655 41.1328009,53.5052197 40.9014121,53.1086827 C40.6700233,52.7121456 40.2430946,52.470942 39.7841047,52.4774331 L18.5454774,52.4774331 L18.5454774,29.9810609 L53.744326,29.9810609 C54.2033159,29.987552 54.6302446,29.7463484 54.8616334,29.3498114 C55.0930222,28.9532743 55.0930222,28.462839 54.8616334,28.066302 C54.6302446,27.669765 54.2033159,27.4285614 53.744326,27.4350524 L18.5454774,27.4350524 L18.5454774,21.5474077 L58.7358011,21.5474077 L58.7358011,44.4614844 L56.5284157,40.8015971 C56.4043387,40.5970376 56.2251423,40.4315895 56.0113705,40.3242205 L51.2983043,37.9771189 C50.8189991,37.7403785 50.2428747,37.8284089 49.8560964,38.1974847 C49.4693181,38.5665606 49.3543076,39.1380326 49.5681914,39.6280463 C49.5681914,39.6280463 50.6846757,42.3931389 51.5767133,44.6007192 L46.6846699,42.810557 L45.6903522,39.5285929 C45.5887616,39.2122031 45.3675193,38.9480822 45.0738752,38.7926373 L41.5539903,36.8433495 C41.3303756,36.7173179 41.0738907,36.6618496 40.8181952,36.684224 C40.1622883,36.7460548 39.6619458,37.2982773 39.6647866,37.9572283 L39.6647866,45.7344887 C39.6647866,46.5525212 40.0677637,47.2953828 40.5994453,47.8031206 C41.1136281,48.2941183 41.740049,48.6021854 42.4289899,48.8374365 L42.4289899,48.8573272 C42.4492326,48.8643288 42.4683045,48.8708529 42.488649,48.8772179 L49.210237,51.4828985 L40.9971724,57.1318549 C40.6128006,57.3998892 40.4067383,57.8574747 40.4607626,58.3230159 C40.5147868,58.7885571 40.8201607,59.1867665 41.255695,59.3596124 L45.1733069,60.9110863 C45.473587,61.0296379 45.8076856,61.0296379 46.1079656,60.9110863 L59.7500052,55.6599437 L67.5056837,58.5639847 L67.5255701,58.5639847 C68.2475313,58.8619314 68.88958,59.061252 69.5539783,59.061252 C70.2848531,59.061252 70.9671975,58.7161087 71.383523,58.2457336 C71.7998484,57.7754222 72,57.2093809 72,56.6146969 C72,54.7444627 71.0838092,52.2577126 68.6193196,50.8463964 C68.5553843,50.8143343 68.488861,50.7877192 68.4204561,50.7668336 L61.2812546,48.161153 L61.2812546,20.2744035 C61.2811843,19.5713717 60.7114063,19.0014695 60.0085279,19.0013992 L17.2727507,19.0013992 C17.2329999,18.9995336 17.1931834,18.9995336 17.1534326,19.0013992 Z M21.6676352,23.2182258 C20.9647273,23.2182258 20.3949085,23.7881689 20.3949085,24.4912301 C20.3949085,25.1942912 20.9647273,25.7642343 21.6676352,25.7642343 C22.3705431,25.7642343 22.9403619,25.1942912 22.9403619,24.4912301 C22.9403619,23.7881689 22.3705431,23.2182258 21.6676352,23.2182258 Z M25.4261563,23.2182258 C24.7232484,23.2182258 24.1534296,23.7881689 24.1534296,24.4912301 C24.1534296,25.1942912 24.7232484,25.7642343 25.4261563,25.7642343 C26.1290642,25.7642343 26.698883,25.1942912 26.698883,24.4912301 C26.698883,23.7881689 26.1290642,23.2182258 25.4261563,23.2182258 Z M29.1846774,23.2182258 C28.4817695,23.2182258 27.9119507,23.7881689 27.9119507,24.4912301 C27.9119507,25.1942912 28.4817695,25.7642343 29.1846774,25.7642343 C29.8875853,25.7642343 30.4574041,25.1942912 30.4574041,24.4912301 C30.4574041,23.7881689 29.8875853,23.2182258 29.1846774,23.2182258 Z M42.21024,40.1054229 L43.4034213,40.7618158 L44.4176254,44.163124 C44.5395878,44.5450866 44.8343277,44.8472608 45.2130796,44.9786424 L53.3863716,47.9821368 C53.8509497,48.1507468 54.371112,48.0351349 54.7205756,47.685595 C55.0700393,47.3360552 55.185626,46.8157795 55.0170527,46.3511001 C54.383637,44.5952453 53.8588466,43.4120197 53.1676217,41.7563503 L54.5596666,42.4326339 L58.954551,49.712627 C59.1004811,49.9579364 59.3245985,50.1470768 59.5909144,50.2496756 L67.406252,53.0940445 C68.8439133,53.9531951 69.3732715,55.4853194 69.4147738,56.4754621 C69.2287203,56.458913 68.9497227,56.4116528 68.4801151,56.2168831 C68.4669744,56.2100217 68.4537148,56.2033905 68.4403424,56.1969924 L60.2073914,53.0940445 C59.9130025,52.9806629 59.587008,52.9806629 59.2926191,53.0940445 L45.6505795,58.3650778 L44.4176254,57.8678105 L52.6306901,52.2188541 C53.0150619,51.9508198 53.2211242,51.4932343 53.1670999,51.0276931 C53.1130757,50.5621519 52.8077017,50.1639425 52.3721675,49.9910966 L43.3636486,46.4903349 C43.3439291,46.4832143 43.3240367,46.476582 43.3039896,46.4704442 C42.8447917,46.3186385 42.5037092,46.1204635 42.3494445,45.973177 C42.1951798,45.8258904 42.21024,45.7954019 42.21024,45.7344887 L42.21024,40.1054229 Z" id="Shape" fill="url(#linearGradient-1)" fill-rule="nonzero"></path>
    </g>
</svg>