<?xml version="1.0" encoding="UTF-8"?>
<svg width="80px" height="80px" viewBox="0 0 80 80" version="1.1" xmlns="http://www.w3.org/2000/svg" xmlns:xlink="http://www.w3.org/1999/xlink">
    <!-- Generator: Sketch 64 (93537) - https://sketch.com -->
    <title>apa</title>
    <desc>Created with Sketch.</desc>
    <defs>
        <linearGradient x1="0%" y1="50.0007883%" x2="99.9987174%" y2="50.0007883%" id="linearGradient-1">
            <stop stop-color="#E29A64" offset="0%"></stop>
            <stop stop-color="#E85E8C" offset="100%"></stop>
        </linearGradient>
    </defs>
    <g id="apa" stroke="none" stroke-width="1" fill="none" fill-rule="evenodd">
        <g id="noun_Task-Manager_397514" transform="translate(12.000000, 14.000000)" fill="url(#linearGradient-1)" fill-rule="nonzero">
            <g id="Group">
                <path d="M50.7399977,0 C53.9920776,0 56.6399975,2.64791988 56.6399975,5.89999974 L56.6399975,5.89999974 L56.6399975,46.019998 C56.6399975,49.2720778 53.9920776,51.9199977 50.7399977,51.9199977 L50.7399977,51.9199977 L5.89999974,51.9199977 C2.64791988,51.9199977 0,49.2720778 0,46.019998 L0,46.019998 L0,5.89999974 C0,2.64791988 2.64791988,0 5.89999974,0 L5.89999974,0 Z M39.1995983,23.8879189 L35.3645984,39.2279183 C35.2371584,39.7353182 34.7887585,40.0987582 34.2648385,40.1199982 C33.7715985,40.1860782 33.2665585,39.8131982 33.1013585,39.3152383 L33.1013585,39.3152383 L29.4339187,28.3176387 L23.524479,44.077718 C23.352199,44.537918 22.908519,44.839998 22.419999,44.839998 C22.389319,44.839998 22.356279,44.839998 22.323239,44.837638 C21.799319,44.795158 21.3650791,44.408118 21.2612391,43.893638 L21.2612391,43.893638 L17.3200392,24.1852789 L14.0750394,32.2989586 C13.8956794,32.7449985 13.4637994,33.0399985 12.9799994,33.0399985 L12.9799994,33.0399985 L2.3599999,33.0399985 L2.3599999,46.019998 C2.3599999,47.9717179 3.94827982,49.5599978 5.89999974,49.5599978 L5.89999974,49.5599978 L50.7399977,49.5599978 C52.6917177,49.5599978 54.2799976,47.9717179 54.2799976,46.019998 L54.2799976,46.019998 L54.2799976,33.0399985 L43.6599981,33.0399985 C43.1761981,33.0399985 42.7443181,32.7449985 42.5649581,32.2989586 L42.5649581,32.2989586 L39.1995983,23.8879189 Z M54.2799976,11.7999995 L2.3599999,11.7999995 L2.3599999,30.6799986 L12.1823195,30.6799986 L16.6049593,19.6210391 C16.8008393,19.1372391 17.2893592,18.8327992 17.8085592,18.8823592 C18.3277592,18.9319192 18.7549192,19.3142391 18.8563992,19.8263591 L18.8563992,19.8263591 L22.766919,39.3742382 L28.3955187,24.3646389 C28.5725187,23.8973589 29.0209187,23.590559 29.5235987,23.599999 C30.0239187,23.609439 30.4628786,23.9327589 30.6209986,24.4071189 L30.6209986,24.4071189 L34.0595185,34.7226785 L37.7977583,19.7744391 C37.9204783,19.2788391 38.3523583,18.9177592 38.8621183,18.8823592 C39.3789582,18.8752792 39.8462382,19.1466791 40.0373982,19.6210391 L40.0373982,19.6210391 L44.457678,30.6799986 L54.2799976,30.6799986 L54.2799976,11.7999995 Z M50.7399977,2.3599999 L5.89999974,2.3599999 C3.94827982,2.3599999 2.3599999,3.94827982 2.3599999,5.89999974 L2.3599999,5.89999974 L2.3599999,9.43999958 L54.2799976,9.43999958 L54.2799976,5.89999974 C54.2799976,3.94827982 52.6917177,2.3599999 50.7399977,2.3599999 L50.7399977,2.3599999 Z M5.89999974,4.71999979 C6.55169571,4.71999979 7.07999969,5.24830376 7.07999969,5.89999974 C7.07999969,6.55169571 6.55169571,7.07999969 5.89999974,7.07999969 C5.24830376,7.07999969 4.71999979,6.55169571 4.71999979,5.89999974 C4.71999979,5.24830376 5.24830376,4.71999979 5.89999974,4.71999979 Z M10.6199995,4.71999979 C11.2716955,4.71999979 11.7999995,5.24830376 11.7999995,5.89999974 C11.7999995,6.55169571 11.2716955,7.07999969 10.6199995,7.07999969 C9.96830355,7.07999969 9.43999958,6.55169571 9.43999958,5.89999974 C9.43999958,5.24830376 9.96830355,4.71999979 10.6199995,4.71999979 Z M15.3399993,4.71999979 C15.9916953,4.71999979 16.5199993,5.24830376 16.5199993,5.89999974 C16.5199993,6.55169571 15.9916953,7.07999969 15.3399993,7.07999969 C14.6883033,7.07999969 14.1599994,6.55169571 14.1599994,5.89999974 C14.1599994,5.24830376 14.6883033,4.71999979 15.3399993,4.71999979 Z" id="Combined-Shape"></path>
            </g>
        </g>
    </g>
</svg>