<?xml version="1.0" encoding="UTF-8"?>
<svg width="80px" height="80px" viewBox="0 0 80 80" version="1.1" xmlns="http://www.w3.org/2000/svg" xmlns:xlink="http://www.w3.org/1999/xlink">
    <!-- Generator: Sketch 64 (93537) - https://sketch.com -->
    <title>ar</title>
    <desc>Created with Sketch.</desc>
    <defs>
        <linearGradient x1="0%" y1="50.0007883%" x2="99.9987174%" y2="50.0007883%" id="linearGradient-1">
            <stop stop-color="#E29A64" offset="0%"></stop>
            <stop stop-color="#E85E8C" offset="100%"></stop>
        </linearGradient>
    </defs>
    <g id="ar" stroke="none" stroke-width="1" fill="none" fill-rule="evenodd">
        <g id="noun_App-Rating_3146915" transform="translate(22.000000, 7.000000)" fill="url(#linearGradient-1)" fill-rule="nonzero">
            <g id="Group">
                <path d="M27.4400019,0.350000024 C29.050002,0.350000024 30.3100021,1.68000011 30.3100021,3.22000022 L30.3100021,3.22000022 L30.3100021,29.540002 C30.7300021,29.400002 31.1500021,29.260002 31.6400022,29.260002 C33.5300023,29.260002 35.0700024,30.8000021 35.0700024,32.6900022 L35.0700024,32.6900022 L35.0700024,43.0500029 L45.4300031,53.4100036 C45.6400031,53.6200037 45.7800031,53.9000037 45.7800031,54.1800037 C45.7800031,54.4600037 45.7100031,54.7400037 45.5000031,54.9500037 L45.5000031,54.9500037 L35.2800024,65.1700044 C35.0700024,65.3800045 34.7900024,65.4500045 34.5100024,65.4500045 C34.2300023,65.4500045 33.9500023,65.3800045 33.7400023,65.1700044 L33.7400023,65.1700044 L26.6000018,58.030004 C23.1000016,58.800004 19.4600013,57.7500039 16.9400012,55.2300038 L16.9400012,55.2300038 L15.6800011,53.9700037 L3.29000022,53.9700037 C1.68000011,53.9700037 0.420000029,52.6400036 0.420000029,51.1000035 L0.420000029,51.1000035 L0.420000029,3.22000022 C0.420000029,1.61000011 1.75000012,0.350000024 3.29000022,0.350000024 L3.29000022,0.350000024 Z M17.2900012,28.1400019 C16.7300011,27.5800019 15.8900011,27.5800019 15.330001,28.1400019 C15.050001,28.4200019 14.910001,28.770002 14.910001,29.120002 C14.910001,29.470002 15.050001,29.820002 15.330001,30.1000021 L15.330001,30.1000021 L23.8700016,38.7100026 C24.2900017,39.1300027 24.2900017,39.7600027 23.8700016,40.1800027 C23.4500016,40.6000028 22.8200016,40.6000028 22.4000015,40.1800027 C21.8400015,39.6200027 21.0000014,39.6200027 20.4400014,40.1800027 C20.4400014,40.2500027 20.3700014,40.3200027 20.3000014,40.3900028 C20.3000014,40.3900028 20.2300014,40.4600028 20.2300014,40.5300028 C20.1600014,40.5300028 20.1600014,40.6000028 20.1600014,40.6000028 C20.0900014,40.7400028 20.0900014,40.8800028 20.0900014,41.0900028 C20.0900014,41.2300028 20.0900014,41.4400028 20.1600014,41.5800028 L20.1600014,41.5800028 L20.1600014,41.6500028 C20.1600014,41.6500028 20.2300014,41.7200019 20.2300014,41.7900028 C20.2300014,41.8600029 20.3000014,41.9300029 20.3700014,42.0000029 L20.3700014,42.0000029 L20.9300014,42.6300029 C21.3500015,43.0500029 21.3500015,43.680003 20.9300014,44.100003 C20.5100014,44.520003 19.8800014,44.520003 19.4600013,44.100003 C18.9000013,43.540003 18.0600012,43.540003 17.5000012,44.100003 C16.9400012,44.660003 16.9400012,45.5000031 17.5000012,46.0600031 L17.5000012,46.0600031 L18.1300012,46.6900032 C18.3400012,46.9000032 18.4100013,47.1800032 18.4100013,47.4600032 C18.4100013,47.7400033 18.3400012,48.0200033 18.1300012,48.2300033 C17.7100012,48.6500033 17.0800012,48.6500033 16.6600011,48.2300033 C16.1700011,47.7400033 15.4700011,47.6700032 14.910001,48.0900033 C14.840001,48.1600033 14.840001,48.1600033 14.770001,48.2300033 C14.350001,48.6500033 14.280001,49.3500034 14.630001,49.9100034 C14.630001,49.9800034 14.700001,50.0500034 14.770001,50.1200034 L14.770001,50.1200034 L18.4100013,53.7600037 C20.5100014,55.8600038 23.6600016,56.7000039 26.6000018,55.8600038 C26.6700018,55.7900038 26.8100018,55.7900038 26.8800018,55.7900038 C27.1600019,55.7900038 27.4400019,55.8600038 27.6500019,56.0700038 L27.6500019,56.0700038 L34.5100024,62.9300043 L43.1900029,54.1800037 L33.2500023,44.240003 C33.1100023,44.030003 32.9700022,43.750003 32.9700022,43.470003 L32.9700022,43.470003 L32.9700022,32.6900022 C32.9700022,31.9900022 32.4100022,31.3600021 31.6400022,31.3600021 C30.9400021,31.3600021 30.3800021,31.9200022 30.3100021,32.6200022 L30.3100021,32.6200022 L30.3100021,41.1600028 Z M27.4400019,2.45000017 L3.29000022,2.45000017 C2.8700002,2.45000017 2.52000017,2.80000019 2.52000017,3.22000022 L2.52000017,3.22000022 L2.52000017,51.0300035 C2.52000017,51.4500002 2.8700002,51.8000035 3.29000022,51.8000035 L3.29000022,51.8000035 L13.5800009,51.8000035 L13.3000009,51.6600035 C11.9700008,50.3300034 11.9700008,48.0900033 13.3000009,46.7600032 C13.7900009,46.2000031 14.420001,45.9200031 15.120001,45.7800031 C14.980001,44.660003 15.260001,43.540003 16.1000011,42.7000029 C16.5900011,42.1400029 17.2200012,41.8600029 17.9200012,41.7200028 C17.7800012,40.6000028 18.0600012,39.4800027 18.9000013,38.6400026 C19.2500013,38.2900026 19.6700013,38.0100026 20.0900014,37.8700026 L20.0900014,37.8700026 L17.9200012,35.7000024 L15.400001,34.6500024 L10.1500007,36.8900025 L10.1500007,36.8900025 L8.54000058,37.5900026 L8.68000059,35.8400024 L9.17000062,30.1700021 L5.46000037,25.8300018 L5.46000037,25.8300018 L4.3400003,24.5000017 L11.5500008,22.8200016 L15.400001,16.4500002 L19.2500013,22.8200016 L26.4600018,24.5000017 L25.3400017,25.8300018 L25.3400017,25.8300018 L21.8400015,29.820002 L28.2100019,36.1900025 L28.2100019,3.22000022 C28.2100019,2.80000019 27.8600019,2.45000017 27.4400019,2.45000017 L27.4400019,2.45000017 Z M15.400001,20.3700014 L12.8800009,24.5000017 L8.19000056,25.6200017 L11.0600008,28.980002 L11.0600008,28.980002 L11.3400008,29.330002 L11.2700008,29.750002 L11.2700008,29.750002 L10.9200007,34.1600023 L14.840001,32.5500022 L13.8600009,31.5700022 C13.1600009,30.9400021 12.8100009,30.030002 12.8100009,29.120002 C12.8100009,28.2100019 13.1600009,27.3000019 13.7900009,26.6700018 C15.120001,25.3400017 17.3600012,25.3400017 18.6900006,26.6700018 L18.6900006,26.6700018 L20.3000014,28.2800019 L22.6100015,25.6200017 L17.9200012,24.5000017 L15.400001,20.3700014 Z M15.8900011,4.83000033 C16.4500011,4.83000033 16.9400012,5.32000036 16.9400012,5.8800004 C16.9400012,6.44000044 16.4500011,6.93000047 15.8900011,6.93000047 L15.8900011,6.93000047 L10.9200007,6.93000047 C10.2900007,6.93000047 9.87000067,6.44000044 9.87000067,5.8800004 C9.87000067,5.32000036 10.3600007,4.83000033 10.9200007,4.83000033 L10.9200007,4.83000033 Z M19.8100013,4.83000033 C20.3700014,4.83000033 20.8600014,5.32000036 20.8600014,5.8800004 C20.8600014,6.44000044 20.3700014,6.93000047 19.8100013,6.93000047 L19.8100013,6.93000047 L18.8300013,6.93000047 C18.2700012,6.93000047 17.7800012,6.44000044 17.7800012,5.8800004 C17.7800012,5.32000036 18.2700012,4.83000033 18.8300013,4.83000033 L18.8300013,4.83000033 Z" id="Combined-Shape"></path>
            </g>
        </g>
    </g>
</svg>