<?xml version="1.0" encoding="UTF-8"?>
<svg width="80px" height="80px" viewBox="0 0 80 80" version="1.1" xmlns="http://www.w3.org/2000/svg" xmlns:xlink="http://www.w3.org/1999/xlink">
    <!-- Generator: Sketch 64 (93537) - https://sketch.com -->
    <title>aso</title>
    <desc>Created with Sketch.</desc>
    <defs>
        <linearGradient x1="0%" y1="50.0007883%" x2="99.9987174%" y2="50.0007883%" id="linearGradient-1">
            <stop stop-color="#E29A64" offset="0%"></stop>
            <stop stop-color="#E85E8C" offset="100%"></stop>
        </linearGradient>
        <linearGradient x1="0%" y1="50.0007883%" x2="99.9987174%" y2="50.0007883%" id="linearGradient-2">
            <stop stop-color="#E29A64" offset="0%"></stop>
            <stop stop-color="#E85E8C" offset="100%"></stop>
        </linearGradient>
        <linearGradient x1="0%" y1="50.0007883%" x2="99.9987174%" y2="50.0007883%" id="linearGradient-3">
            <stop stop-color="#E29A64" offset="0%"></stop>
            <stop stop-color="#E85E8C" offset="100%"></stop>
        </linearGradient>
    </defs>
    <g id="aso" stroke="none" stroke-width="1" fill="none" fill-rule="evenodd">
        <g id="noun_Mobile-Marketing_1857801" transform="translate(17.000000, 8.000000)" fill-rule="nonzero">
            <g id="Group">
                <path d="M22.156,53.846 C20.146,53.846 18.51,55.481 18.51,57.492 C18.51,59.502 20.146,61.138 22.156,61.138 C24.166,61.138 25.802,59.502 25.802,57.492 C25.801,55.481 24.166,53.846 22.156,53.846 Z M22.156,59.638 C20.973,59.638 20.01,58.675 20.01,57.492 C20.01,56.309 20.973,55.346 22.156,55.346 C23.339,55.346 24.302,56.308 24.302,57.492 C24.301,58.675 23.338,59.638 22.156,59.638 Z" id="Shape" fill="url(#linearGradient-1)"></path>
                <path d="M13.249,4.389 L31.063,4.389 C31.477,4.389 31.813,4.053 31.813,3.639 C31.813,3.225 31.477,2.889 31.063,2.889 L13.249,2.889 C12.835,2.889 12.499,3.225 12.499,3.639 C12.499,4.053 12.834,4.389 13.249,4.389 Z" id="Path" fill="url(#linearGradient-2)"></path>
                <path d="M57.431,39.78 L53,35.349 C52.344,34.693 51.785,35.55 51.685,35.603 C51.843,33.652 51.139,31.867 49.845,30.574 L43.959,24.688 L43.959,4.05 C43.959,1.817 42.146,0 39.919,0 L4.389,0 C2.162,0 0.349,1.817 0.349,4.05 L0.349,59.96 C0.349,62.188 2.162,64 4.389,64 L39.918,64 C42.146,64 43.958,62.187 43.958,59.96 L43.958,54.313 L57.431,40.84 C57.724,40.548 57.724,40.073 57.431,39.78 Z M48.882,38.406 C48.759,38.529 40.076,47.212 39.031,48.257 C38.226,48.946 36.939,48.923 36.184,48.167 L26.294,38.276 C24.792,36.778 26.95,34.815 28.276,36.135 L32.208,40.067 C32.501,40.36 32.976,40.36 33.269,40.067 C33.562,39.774 33.562,39.299 33.269,39.006 L29.341,35.078 C29.341,35.078 29.341,35.077 29.341,35.077 C29.341,35.076 29.341,35.076 29.341,35.076 L22.119,27.854 C21.539,27.274 21.475,26.341 21.976,25.775 C22.516,25.164 23.537,25.137 24.103,25.703 L29.569,31.169 C29.575,31.175 29.576,31.183 29.582,31.189 L33.745,35.353 C34.038,35.646 34.512,35.646 34.806,35.353 C35.099,35.06 35.099,34.585 34.806,34.292 L30.917,30.403 C30.911,30.397 30.909,30.389 30.903,30.383 C30.262,29.742 29.883,28.3 30.38,27.802 C30.916,27.268 31.892,27.246 32.444,27.798 L33.895,29.249 C33.901,29.256 33.903,29.264 33.909,29.271 L38.072,33.435 C38.365,33.728 38.84,33.728 39.133,33.435 C39.426,33.142 39.426,32.667 39.133,32.374 L35.084,28.325 C35.078,28.318 35.076,28.31 35.07,28.303 C34.748,27.98 34.473,27.419 34.372,26.874 C34.276,26.359 34.344,25.927 34.553,25.718 C35.09,25.183 36.065,25.162 36.617,25.714 L37.668,26.765 C37.676,26.774 37.684,26.782 37.693,26.79 L38.182,27.279 L42.346,31.443 C42.639,31.736 43.113,31.736 43.406,31.443 C43.699,31.15 43.699,30.675 43.406,30.382 L39.242,26.218 C38.919,25.895 38.643,25.334 38.541,24.79 C38.444,24.277 38.511,23.846 38.72,23.638 C39.267,23.093 40.239,23.089 40.784,23.634 L48.784,31.634 C50.594,33.444 50.742,36.414 48.882,38.406 Z M37.459,22.824 C37.192,23.187 37.035,23.635 37.004,24.148 C36.124,23.669 34.988,23.716 34.107,24.208 C33.831,21.914 32.909,19.722 31.383,17.907 C29.083,15.171 25.721,13.601 22.159,13.601 C15.514,13.601 10.109,19.007 10.109,25.651 C10.109,32.295 15.514,37.701 22.159,37.701 C22.904,37.701 23.629,37.609 24.342,37.476 C24.418,38.152 24.71,38.815 25.234,39.339 L35.124,49.229 C35.753,49.858 36.577,50.21 37.459,50.26 L37.459,50.981 L6.849,50.981 L6.849,7.27 L37.458,7.27 L37.458,22.824 L37.459,22.824 Z M21.058,28.916 L23.545,31.403 C23.098,31.511 22.635,31.57 22.159,31.57 C18.9,31.57 16.249,28.914 16.249,25.65 C16.249,22.391 18.9,19.74 22.159,19.74 C25.424,19.74 28.079,22.391 28.079,25.65 C28.079,26.222 27.989,26.775 27.83,27.31 L25.163,24.643 C24.014,23.493 21.938,23.554 20.852,24.781 C19.818,25.951 19.909,27.767 21.058,28.916 Z M29.516,26.578 C29.555,26.27 29.579,25.96 29.579,25.65 C29.579,21.564 26.251,18.24 22.159,18.24 C18.073,18.24 14.749,21.564 14.749,25.65 C14.749,29.741 18.073,33.07 22.159,33.07 C23.06,33.07 23.924,32.905 24.74,32.598 L26.465,34.323 C25.675,34.54 24.994,35.056 24.6,35.892 C23.814,36.084 22.999,36.2 22.159,36.2 C16.342,36.2 11.609,31.468 11.609,25.65 C11.609,19.833 16.341,15.1 22.159,15.1 C25.276,15.1 28.219,16.475 30.234,18.871 C31.961,20.926 32.821,23.53 32.687,26.169 C31.677,25.694 30.385,25.861 29.516,26.578 Z M39.918,62.5 L4.389,62.5 C2.989,62.5 1.849,61.36 1.849,59.96 L1.849,4.05 C1.849,2.644 2.989,1.5 4.389,1.5 L39.918,1.5 C41.318,1.5 42.4580007,2.644 42.4580007,4.05 L42.4580007,23.188 L41.844,22.574 C41.093,21.823 39.96,21.593 38.958,21.857 L38.958,6.52 C38.958,6.106 38.622,5.77 38.208,5.77 L6.099,5.77 C5.685,5.77 5.349,6.106 5.349,6.52 L5.349,51.73 C5.349,52.144 5.685,52.48 6.099,52.48 L38.208,52.48 C38.622,52.48 38.958,52.144 38.958,51.73 L38.958,51.443 L42.362,54.848 C42.39,54.876 42.426,54.889 42.4580007,54.912 L42.4580007,59.96 C42.459,61.36 41.319,62.5 39.918,62.5 Z M42.893,53.257 L39.523,49.886 L40.083,49.326 C40.124,49.289 40.171,49.261 40.21,49.222 C40.316,49.116 51.234,38.178 52.47,36.939 L55.841,40.31 L42.893,53.257 Z" id="Shape" stroke="url(#linearGradient-3)" stroke-width="0.5" fill="url(#linearGradient-3)"></path>
            </g>
        </g>
    </g>
</svg>