<?xml version="1.0" encoding="UTF-8"?>
<svg width="80px" height="80px" viewBox="0 0 80 80" version="1.1" xmlns="http://www.w3.org/2000/svg" xmlns:xlink="http://www.w3.org/1999/xlink">
    <!-- Generator: Sketch 64 (93537) - https://sketch.com -->
    <title>cpc</title>
    <desc>Created with Sketch.</desc>
    <defs>
        <linearGradient x1="0%" y1="50.0007883%" x2="99.9987174%" y2="50.0007883%" id="linearGradient-1">
            <stop stop-color="#E29A64" offset="0%"></stop>
            <stop stop-color="#E85E8C" offset="100%"></stop>
        </linearGradient>
    </defs>
    <g id="cpc" stroke="none" stroke-width="1" fill="none" fill-rule="evenodd">
        <g id="noun_Cost-per-click_1750584" transform="translate(16.000000, 10.000000)" fill="url(#linearGradient-1)" fill-rule="nonzero">
            <path d="M48,0 L48,22 L17.5,22 C16.7,22 16,22.7 16,23.5 C16,24.3 16.7,25 17.5,25 L17.5,25 L30.5,25 C32.4,25 34,26.6 34,28.5 C34,30.4 32.4,32 30.5,32 L30.5,32 L26,32 C25.4,32 25,32.4 25,33 L25,33 L25,35.1 C30.1,35.6 34,39.9 34,45 L34,45 L34,50 C34,55.5 29.5,60 24,60 C18.5,60 14,55.5 14,50 L14,50 L14,45 C14,39.9 17.9,35.6 23,35.1 L23,35.1 L23,33 C23,31.3 24.3,30 26,30 L26,30 L30.5,30 C31.3,30 32,29.3 32,28.5 C32,27.7 31.3,27 30.5,27 L30.5,27 L17.5,27 C15.6,27 14,25.4 14,23.5 C14,21.6 15.6,20 17.5,20 L17.5,20 L46,20 L46,2 L2,2 L2,20 L12,20 L12,22 L0,22 L0,0 L48,0 Z M25,37.1 L25,39 L23,39 L23,37.1 C19,37.6 16,41 16,45 L16,45 L16,50 C16,54.4 19.6,58 24,58 C28.4,58 32,54.4 32,50 L32,50 L32,45 C32,41 29,37.6 25,37.1 L25,37.1 Z M25,41 L25,45 L23,45 L23,41 L25,41 Z M12,41 L12,43 L7,43 L7,41 L12,41 Z M41,41 L41,43 L36,43 L36,41 L41,41 Z M35.27731,31.30809 L36.69151,32.72229 L33.72169,35.69211 L32.30749,34.27791 L35.27731,31.30809 Z M12.72179,31.30789 L15.69161,34.27771 L14.27741,35.69191 L11.30759,32.72209 L12.72179,31.30789 Z M42,4 L42,5 C42,5.6 42.4,6 43,6 L43,6 L44,6 L44,16 L43,16 C42.4,16 42,16.4 42,17 L42,17 L42,18 L6,18 L6,17 C6,16.4 5.6,16 5,16 L5,16 L4,16 L4,6 L5,6 C5.6,6 6,5.6 6,5 L6,5 L6,4 L42,4 Z M40.1,6 L7.8,6 C7.5,6.8 6.9,7.5 6,7.8 L6,7.8 L6,14.1 C6.8,14.4 7.5,15 7.8,15.9 L7.8,15.9 L40.1,15.9 C40.4,15.1 41,14.4 41.9,14.1 L41.9,14.1 L41.9,7.8 C41.1,7.5 40.4,6.9 40.1,6 L40.1,6 Z M24,7 C26.2,7 28,8.8 28,11 C28,13.2 26.2,15 24,15 C21.8,15 20,13.2 20,11 C20,8.8 21.8,7 24,7 Z M24,9 C22.9,9 22,9.9 22,11 C22,12.1 22.9,13 24,13 C25.1,13 26,12.1 26,11 C26,9.9 25.1,9 24,9 Z M17,10 L17,12 L13,12 L13,10 L17,10 Z M35,10 L35,12 L31,12 L31,10 L35,10 Z" id="Combined-Shape"></path>
        </g>
    </g>
</svg>