<?xml version="1.0" encoding="UTF-8"?>
<svg width="80px" height="80px" viewBox="0 0 80 80" version="1.1" xmlns="http://www.w3.org/2000/svg" xmlns:xlink="http://www.w3.org/1999/xlink">
    <!-- Generator: Sketch 64 (93537) - https://sketch.com -->
    <title>cpi</title>
    <desc>Created with Sketch.</desc>
    <defs>
        <linearGradient x1="0%" y1="50.0007883%" x2="99.9987174%" y2="50.0007883%" id="linearGradient-1">
            <stop stop-color="#E29A64" offset="0%"></stop>
            <stop stop-color="#E85E8C" offset="100%"></stop>
        </linearGradient>
    </defs>
    <g id="cpi" stroke="none" stroke-width="1" fill="none" fill-rule="evenodd">
        <g id="noun_Pay-Per-Click_2586110" transform="translate(17.000000, 17.000000)" fill="url(#linearGradient-1)" fill-rule="nonzero">
            <g id="Group">
                <path d="M5.67889364,5.67889364 C11.3328432,0.0249440372 20.2927685,-0.587022349 26.6629601,4.24567373 C33.0331517,9.0783698 34.8576847,17.8718812 30.9360004,24.8400004 L30.9360004,24.8400004 L44.5840006,28.2000004 C45.2603041,28.3450311 45.7668432,28.9082219 45.8396304,29.5960608 C45.9124176,30.2838996 45.5349711,30.9406339 44.9040007,31.2240005 L44.9040007,31.2240005 L35.7840005,35.7840005 L31.2240005,44.9040007 C30.9528801,45.4420481 30.4024936,45.7821746 29.8000004,45.7840007 L29.8000004,45.7840007 L29.5760004,45.7840007 C28.9117303,45.7106293 28.3630381,45.2321186 28.2000004,44.5840006 L28.2000004,44.5840006 L24.8400004,30.9360004 C17.8718812,34.8576847 9.0783698,33.0331517 4.24567373,26.6629601 C-0.587022349,20.2927685 0.0249440372,11.3328432 5.67889364,5.67889364 Z M27.1920004,27.2080004 L30.2960004,39.6240006 L33.1600005,33.8960005 C33.3151919,33.5839989 33.5679989,33.3311919 33.8800005,33.1760005 L33.8800005,33.1760005 L39.6080006,30.3120004 L27.1920004,27.2080004 Z M17.0000002,4.20000005 C9.93075534,4.20000005 4.20000005,9.93075534 4.20000005,17.0000002 C4.20000005,24.0692451 9.93075534,29.8000004 17.0000002,29.8000004 C19.4823359,29.7827031 21.9040304,29.0311428 23.9600003,27.6400004 L23.9600003,27.6400004 L23.4000003,25.3840004 C23.2364198,24.8231527 23.3915261,24.2177328 23.8046295,23.8046295 C24.2177328,23.3915261 24.8231527,23.2364198 25.3840004,23.4000003 L25.3840004,23.4000003 L27.6400004,24.0080003 C29.0402212,21.938459 29.7921981,19.4987117 29.8000004,17.0000002 C29.8000004,9.93075534 24.0692451,4.20000005 17.0000002,4.20000005 Z M17.0000002,7.4000001 C17.8836559,7.4000001 18.6000003,8.11634451 18.6000003,9.00000012 L18.6000003,9.00000012 L18.6000003,10.6000001 L20.2000003,10.6000001 C21.0836559,10.6000001 21.8000003,11.3163446 21.8000003,12.2000002 C21.8000003,13.0836558 21.0836559,13.8000002 20.2000003,13.8000002 L20.2000003,13.8000002 L16.2000002,13.8000002 C15.7581724,13.8000002 15.4000002,14.1581724 15.4000002,14.6000002 C15.4000002,15.041828 15.7581724,15.4000001 16.2000002,15.4000001 L16.2000002,15.4000001 L17.8000003,15.4000001 C19.8550127,15.3979349 21.5772429,16.9533941 21.7837691,18.9980034 C21.9902953,21.0426128 20.6139145,22.9110629 18.6000003,23.3200003 L18.6000003,23.3200003 L18.6000003,25.0000004 C18.6000003,25.883656 17.8836559,26.6000004 17.0000002,26.6000004 C16.1163446,26.6000004 15.4000002,25.883656 15.4000002,25.0000004 L15.4000002,25.0000004 L15.4000002,23.4000001 L13.8000002,23.4000001 C12.9163446,23.4000001 12.2000002,22.6836559 12.2000002,21.8000003 C12.2000002,20.9163447 12.9163446,20.2000003 13.8000002,20.2000003 L13.8000002,20.2000003 L17.8000003,20.2000003 C18.2418281,20.2000003 18.6000003,19.8418281 18.6000003,19.4000001 C18.6000003,18.9581725 18.2418281,18.6000003 17.8000003,18.6000003 L17.8000003,18.6000003 L16.2000002,18.6000003 C14.1449878,18.6020656 12.4227576,17.0466064 12.2162314,15.0019971 C12.0097052,12.9573877 13.386086,11.0889376 15.4000002,10.6800001 L15.4000002,10.6800001 L15.4000002,9.00000012 C15.4000002,8.11634451 16.1163446,7.4000001 17.0000002,7.4000001 Z" id="Combined-Shape"></path>
            </g>
        </g>
    </g>
</svg>