<?xml version="1.0" encoding="UTF-8"?>
<svg width="80px" height="80px" viewBox="0 0 80 80" version="1.1" xmlns="http://www.w3.org/2000/svg" xmlns:xlink="http://www.w3.org/1999/xlink">
    <!-- Generator: Sketch 64 (93537) - https://sketch.com -->
    <title>pr</title>
    <desc>Created with Sketch.</desc>
    <defs>
        <linearGradient x1="0%" y1="50.0007883%" x2="99.9987174%" y2="50.0007883%" id="linearGradient-1">
            <stop stop-color="#E29A64" offset="0%"></stop>
            <stop stop-color="#E85E8C" offset="100%"></stop>
        </linearGradient>
    </defs>
    <g id="pr" stroke="none" stroke-width="1" fill="none" fill-rule="evenodd">
        <g id="noun_Newspaper_1261651" transform="translate(14.000000, 16.000000)" fill="url(#linearGradient-1)" fill-rule="nonzero">
            <g id="Group">
                <path d="M45,34.2 C45.15,33.45 46.05,32.85 46.8,33 C47.55,33.15 48.15,34.05 48,34.8 C47.25,38.85 44.55,41.4 40.5,41.85 L40.5,41.85 L40.5,45 L42,45 C42.9,45 43.5,45.6 43.5,46.5 C43.5,47.4 42.9,48 42,48 L42,48 L36,48 C35.1,48 34.5,47.4 34.5,46.5 C34.5,45.6 35.1,45 36,45 L36,45 L37.5,45 L37.5,41.85 C33.45,41.4 30.75,39 30,34.8 C29.85,33.9 30.45,33.15 31.2,33 C32.1,32.85 32.85,33.45 33,34.2 C33.6,37.5 35.55,39 39,39 C42.3,39 44.4,37.35 45,34.2 Z M39,0 C42.3,0 45,2.7 45,6 L45,6 L45,19.5 C45,20.4 44.4,21 43.5,21 C42.6,21 42,20.4 42,19.5 L42,19.5 L42,6 C42,4.35 40.65,3 39,3 L39,3 L15,3 C13.35,3 12,4.35 12,6 L12,6 L12,40.5 C12,41.55 11.55,42.6 11.1,43.5 L11.1,43.5 L31.5,43.5 C32.4,43.5 33,44.1 33,45 C33,45.9 32.4,46.5 31.5,46.5 L31.5,46.5 L7.5,46.5 C7.35,46.5 7.2,46.5 7.05,46.35 C6.6,46.5 6.3,46.5 6,46.5 C2.7,46.5 0,43.8 0,40.5 L0,40.5 L0,24 C0,23.1 0.6,22.5 1.5,22.5 L1.5,22.5 L9,22.5 L9,6 C9,2.7 11.7,0 15,0 L15,0 Z M9,25.5 L3,25.5 L3,40.5 C3,42.15 4.35,43.5 6,43.5 C7.65,43.5 9,42.15 9,40.5 L9,40.5 L9,25.5 Z M39.75,21 C41.85,21 43.5,22.65 43.5,24.75 L43.5,24.75 L43.5,33.75 C43.5,35.85 41.85,37.5 39.75,37.5 L39.75,37.5 L38.25,37.5 C36.15,37.5 34.5,35.85 34.5,33.75 L34.5,33.75 L34.5,24.75 C34.5,22.65 36.15,21 38.25,21 L38.25,21 Z M25.5,34.5 C26.4,34.5 27,35.1 27,36 C27,36.9 26.4,37.5 25.5,37.5 L25.5,37.5 L16.5,37.5 C15.6,37.5 15,36.9 15,36 C15,35.1 15.6,34.5 16.5,34.5 L16.5,34.5 Z M39.75,24 L38.25,24 C37.8,24 37.5,24.3 37.5,24.75 L37.5,24.75 L37.5,33.75 C37.5,34.2 37.8,34.5 38.25,34.5 L38.25,34.5 L39.75,34.5 C40.2,34.5 40.5,34.2 40.5,33.75 L40.5,33.75 L40.5,24.75 C40.5,24.3 40.2,24 39.75,24 L39.75,24 Z M27,28.5 C27.9,28.5 28.5,29.1 28.5,30 C28.5,30.9 27.9,31.5 27,31.5 L27,31.5 L16.5,31.5 C15.6,31.5 15,30.9 15,30 C15,29.1 15.6,28.5 16.5,28.5 L16.5,28.5 Z M28.5,22.5 C29.4,22.5 30,23.1 30,24 C30,24.9 29.4,25.5 28.5,25.5 L28.5,25.5 L16.5,25.5 C15.6,25.5 15,24.9 15,24 C15,23.1 15.6,22.5 16.5,22.5 L16.5,22.5 Z M27,6 C27.9,6 28.5,6.6 28.5,7.5 L28.5,7.5 L28.5,18 C28.5,18.9 27.9,19.5 27,19.5 L27,19.5 L16.5,19.5 C15.6,19.5 15,18.9 15,18 L15,18 L15,7.5 C15,6.6 15.6,6 16.5,6 L16.5,6 Z M37.5,16.5 C38.4,16.5 39,17.1 39,18 C39,18.9 38.4,19.5 37.5,19.5 L37.5,19.5 L31.5,19.5 C30.6,19.5 30,18.9 30,18 C30,17.1 30.6,16.5 31.5,16.5 L31.5,16.5 Z M25.5,9 L18,9 L18,16.5 L25.5,16.5 L25.5,9 Z M37.5,10.5 C38.4,10.5 39,11.1 39,12 C39,12.9 38.4,13.5 37.5,13.5 L37.5,13.5 L31.5,13.5 C30.6,13.5 30,12.9 30,12 C30,11.1 30.6,10.5 31.5,10.5 L31.5,10.5 Z" id="Combined-Shape"></path>
            </g>
        </g>
    </g>
</svg>