<?xml version="1.0" encoding="UTF-8"?>
<svg width="80px" height="80px" viewBox="0 0 80 80" version="1.1" xmlns="http://www.w3.org/2000/svg" xmlns:xlink="http://www.w3.org/1999/xlink">
    <!-- Generator: Sketch 64 (93537) - https://sketch.com -->
    <title>smm</title>
    <desc>Created with Sketch.</desc>
    <defs>
        <linearGradient x1="0%" y1="50.0007883%" x2="99.9987174%" y2="50.0007883%" id="linearGradient-1">
            <stop stop-color="#E29A64" offset="0%"></stop>
            <stop stop-color="#E85E8C" offset="100%"></stop>
        </linearGradient>
    </defs>
    <g id="smm" stroke="none" stroke-width="1" fill="none" fill-rule="evenodd">
        <g id="noun_media-marketing_2060589" transform="translate(9.000000, 10.000000)" fill="url(#linearGradient-1)" fill-rule="nonzero">
            <path d="M57,31 C54.6248992,31.0029983 52.5784327,32.6735832 52.1,35 L43.578,35 C44.5980271,31.4378359 43.7426524,27.6014501 41.306,24.81 L47.358,15.3 C50.9425933,16.9533633 55.1952107,15.5451042 57.0845053,12.0790568 C58.9738,8.61300939 57.8529784,4.27576287 54.5209836,2.15898941 C51.1889889,0.0422159426 46.7865177,0.870585568 44.4517357,4.0536206 C42.1169537,7.23665563 42.6491653,11.6846551 45.669,14.227 L39.835,23.4 C35.5557294,19.9779834 29.4053805,20.2476193 25.442,24.031 L19.442,18.031 C21.5000639,15.7338726 21.4572695,12.243664 19.3435014,9.99768858 C17.2297333,7.75171315 13.7485309,7.4975138 11.3309193,9.41260535 C8.91330775,11.3276969 8.36395671,14.7746667 10.0664941,17.3463953 C11.7690314,19.9181239 15.1567903,20.7586458 17.864,19.281 L24.124,25.541 C21.3276166,29.3617534 21.2953715,34.5447493 24.044,38.4 L13.244,44.7 C10.1723201,42.1857174 5.67807311,42.4802384 2.96079064,45.3738884 C0.243508177,48.2675385 0.231823671,52.7714104 2.93405552,55.6791204 C5.63628738,58.5868304 10.1289457,58.9046664 13.2136299,56.4063554 C16.2983141,53.9080444 16.920831,49.4473862 14.638,46.2 L25.377,39.935 C26.420374,40.9365665 27.6517124,41.7216594 29,42.245 L29,51.006 C27.6342371,50.6028114 26.1687806,51.175541 25.4383407,52.3979676 C24.7079007,53.6203942 24.897852,55.1822843 25.9,56.194 L29,59.4 L29,60 C29,60.5522847 29.4477153,61 30,61 L46,61 C46.5522847,61 47,60.5522847 47,60 L47,43 C46.999185,41.8173212 46.3036012,40.7454871 45.2238015,40.2630325 C44.1440017,39.780578 42.8815167,39.977547 42,40.766 C41.5762243,40.387773 41.0535096,40.1380354 40.493,40.046 C41.4304547,39.1721623 42.2081327,38.1413498 42.791,37 L52.1,37 C52.6262254,39.577967 55.0603418,41.3070246 57.6678215,40.955063 C60.2753011,40.6031014 62.1638764,38.2905602 61.9877668,35.6653341 C61.8116571,33.0401079 59.6311265,31.000537 57,31 Z M45,8.5 C45,5.46243388 47.4624339,3 50.5,3 C53.5375661,3 56,5.46243388 56,8.5 C56,11.5375661 53.5375661,14 50.5,14 C47.4638047,13.9966932 45.0033068,11.5361953 45,8.5 Z M15,18 C12.790861,18 11,16.209139 11,14 C11,11.790861 12.790861,10 15,10 C17.209139,10 19,11.790861 19,14 C19,15.060866 18.5785726,16.0782816 17.8284271,16.8284271 C17.0782816,17.5785726 16.060866,18 15,18 Z M8.5,56 C5.46243388,56 3,53.5375661 3,50.5 C3,47.4624339 5.46243388,45 8.5,45 C11.5375661,45 14,47.4624339 14,50.5 C13.9966932,53.5361953 11.5361953,55.9966932 8.5,56 L8.5,56 Z M41,43 L41,46 C41,46.5522847 41.4477153,47 42,47 C42.5522847,47 43,46.5522847 43,46 L43,43 C43,42.4477153 43.4477153,42 44,42 C44.5522847,42 45,42.4477153 45,43 L45,59 L31,59 C30.9997383,58.7410066 30.8990033,58.4922163 30.719,58.306 L27.328,54.793 C26.9076309,54.3612862 26.9033225,53.6746205 27.3182414,53.2376658 C27.7331602,52.8007112 28.4191303,52.7695128 28.872,53.167 L29.203,53.604 C29.4624195,53.9463253 29.9114657,54.0847542 30.3186005,53.9479098 C30.7257352,53.8110654 31.0000089,53.4295173 31,53 L31,37 C31.0023515,36.8472214 31.0407248,36.6971542 31.112,36.562 L32.168,36.034 C32.6437777,36.1100537 32.9953116,36.5182048 33,37 L33,46 C33,46.5522847 33.4477153,47 34,47 C34.5522847,47 35,46.5522847 35,46 L35,43 C35,42.4477153 35.4477153,42 36,42 C36.5522847,42 37,42.4477153 37,43 L37,46 C37,46.5522847 37.4477153,47 38,47 C38.5522847,47 39,46.5522847 39,46 L39,43 C39,42.4477153 39.4477153,42 40,42 C40.5522847,42 41,42.4477153 41,43 Z M31,34.184 L31,29.618 L35.764,32 L31.7,34.03 C31.4612514,34.0525431 31.2261657,34.1042619 31,34.184 Z M36.8,40.148 C36.2114372,39.973771 35.5839188,39.9817893 35,40.171 L35,37 C34.9974689,36.2623021 34.7213137,35.5517814 34.225,35.006 L38.447,32.9 C38.7864145,32.7308365 39.0009339,32.3842341 39.0009339,32.005 C39.0009339,31.6257659 38.7864145,31.2791635 38.447,31.11 L30.447,27.11 C30.1377332,26.9554545 29.7705764,26.9716204 29.4760894,27.1527493 C29.1816024,27.3338781 29.0015658,27.6542721 29,28 L29,36 C29.0020596,36.121941 29.0271677,36.2423919 29.074,36.355 C29.025964,36.5666714 29.0011507,36.7829495 29,37 L29,40.065 C25.2255056,38.2040612 23.2406897,33.9792389 24.2178987,29.8859561 C25.1951077,25.7926734 28.8743298,22.920054 33.0824049,22.9648323 C37.29048,23.0096105 40.9077408,25.9598719 41.7976249,30.0730225 C42.687509,34.186173 40.6132398,38.3678025 36.8,40.148 L36.8,40.148 Z M57,39 C55.3431458,39 54,37.6568542 54,36 C54,34.3431458 55.3431458,33 57,33 C58.6568542,33 60,34.3431458 60,36 C60,37.6568542 58.6568542,39 57,39 Z" id="Shape"></path>
        </g>
    </g>
</svg>