<?xml version="1.0" encoding="UTF-8"?>
<svg width="120px" height="120px" viewBox="0 0 120 120" version="1.1" xmlns="http://www.w3.org/2000/svg" xmlns:xlink="http://www.w3.org/1999/xlink">
    <!-- Generator: sketchtool 64 (101010) - https://sketch.com -->
    <title>F9886378-4A72-4CF2-A5D4-F5814397C332</title>
    <desc>Created with sketchtool.</desc>
    <defs>
        <linearGradient x1="0%" y1="50.0007883%" x2="99.9987174%" y2="50.0007883%" id="linearGradient-1">
            <stop stop-color="#E29A64" offset="0%"></stop>
            <stop stop-color="#E85E8C" offset="100%"></stop>
        </linearGradient>
    </defs>
    <g id="Slice" stroke="none" stroke-width="1" fill="none" fill-rule="evenodd">
        <g id="dubai" fill="url(#linearGradient-1)" fill-rule="nonzero">
            <path d="M83.3077001,6 L83.3077001,16.5419591 L86.8216865,16.5419591 L86.8216865,23.5699318 L100.877632,23.5699318 L100.877632,34.1118909 L93.8496592,34.1118909 L93.8496592,96.3341574 L89.3061846,100.877632 L92.092666,100.877632 C96.9364081,100.877632 100.877632,104.818856 100.877632,109.662598 L100.877632,109.662598 L100.877632,111.419591 L107.905605,111.419591 L107.905605,114.933577 L13.0279727,114.933577 L13.0279727,111.419591 L20.0559455,111.419591 L20.0559455,109.662598 C20.0559455,106.069684 22.2290234,102.982935 25.326925,101.622295 L25.326925,101.622295 L25.326925,76.4101292 C25.326925,66.1787323 28.1116907,56.5152697 32.9717328,48.1678364 L32.9717328,48.1678364 L20.0559455,48.1678364 L20.0559455,37.6258773 L40.8713389,37.6258773 C49.9565721,28.0293316 62.3627627,21.579588 76.2797274,20.2069371 L76.2797274,20.2069371 L76.2797274,16.5419591 L79.7937137,16.5419591 L79.7937137,6 L83.3077001,6 Z M114.933577,111.419591 L114.933577,114.933577 L111.419591,114.933577 L111.419591,111.419591 L114.933577,111.419591 Z M9.51398637,111.419591 L9.51398637,114.933577 L6,114.933577 L6,111.419591 L9.51398637,111.419591 Z M92.092666,104.391618 L28.8409114,104.391618 C25.9351809,104.391618 23.5699318,106.756867 23.5699318,109.662598 L23.5699318,109.662598 L23.5699318,111.419591 L97.3636456,111.419591 L97.3636456,109.662598 C97.3636456,106.756867 94.9983965,104.391618 92.092666,104.391618 L92.092666,104.391618 Z M83.3077001,20.0559455 L79.7937137,20.0559455 L79.7937137,100.877632 L83.3077001,100.877632 L83.3077001,20.0559455 Z M60.0241088,97.3636456 L35.8688841,97.3636456 L35.8688841,100.877632 L65.5147125,100.877632 L60.0241088,97.3636456 Z M35.9212164,74.2138877 C35.888616,74.9405349 35.8688841,75.6731872 35.8688841,76.4101292 L35.8688841,76.4101292 L35.8688841,77.7347373 L72.0313727,100.877632 L76.2797274,100.877632 L76.2797274,99.4612277 Z M76.2797274,23.7355078 C49.5507822,26.5511581 28.8409114,49.3697638 28.8409114,76.4101292 L28.8409114,76.4101292 L28.8409114,100.877632 L32.3548978,100.877632 L32.3548978,76.4101292 C32.3548978,51.2846119 51.5008044,30.0617129 76.2797274,27.2649366 L76.2797274,27.2649366 Z M90.3356728,34.1118909 L86.8216865,34.1118909 L86.8216865,98.3931338 L90.3356728,94.8791474 L90.3356728,34.1118909 Z M76.2797274,90.3356728 L68.3166363,90.3356728 L76.2797274,95.3183957 L76.2797274,90.3356728 Z M49.0429014,90.3356728 L35.8688841,90.3356728 L35.8688841,93.8496592 L54.5335051,93.8496592 L49.0429014,90.3356728 Z M76.2797274,83.3077001 L57.0832042,83.3077001 L62.6999202,86.8216865 L76.2797274,86.8216865 L76.2797274,83.3077001 Z M35.8688841,81.9058804 L35.8688841,86.8216865 L43.5505818,86.8216865 L35.8688841,81.9058804 Z M72.3230611,76.2797274 L45.8489142,76.2797274 L51.4656303,79.7937137 L76.2797274,79.7937137 L76.2797274,78.9658337 L72.3230611,76.2797274 Z M44.8983534,49.1818824 C44.2060228,50.1178586 43.5420028,51.0752826 42.9200204,52.0627334 L42.9200204,52.0627334 L76.2797274,74.7191948 L76.2797274,71.1477286 L53.4911482,55.1958091 L53.438816,55.1958091 L53.438816,55.1589191 Z M61.9724152,69.2517546 L36.4419659,69.2517546 C36.3853439,69.6000649 36.3347276,69.9492328 36.2866848,70.2992588 L36.2866848,70.2992588 L40.2313403,72.765741 L67.1490249,72.765741 L61.9724152,69.2517546 Z M76.2797274,62.2237819 L69.6575445,62.2237819 L76.2797274,66.8590525 L76.2797274,62.2237819 Z M51.625201,62.2237819 L38.145769,62.2237819 C37.76829,63.3785244 37.4277008,64.5487095 37.1394441,65.7377683 L37.1394441,65.7377683 L56.800095,65.7377683 L51.625201,62.2237819 Z M76.2797274,55.1958091 L59.6183189,55.1958091 L64.6379318,58.7097955 L76.2797274,58.7097955 L76.2797274,55.1958091 Z M41.1613113,55.1168817 C40.5427605,56.2853509 39.976542,57.4855624 39.460082,58.7097955 L39.460082,58.7097955 L46.4511649,58.7097955 Z M76.2797274,48.1678364 L49.5790931,48.1678364 L54.598706,51.6818228 L76.2797274,51.6818228 L76.2797274,48.1678364 Z M76.2797274,41.1398637 L52.4745287,41.1398637 C51.1567838,42.241416 49.903382,43.4150326 48.7160389,44.65385 L48.7160389,44.65385 L76.2797274,44.65385 L76.2797274,41.1398637 Z M37.8103273,41.1398637 L23.5699318,41.1398637 L23.5699318,44.65385 L35.1997168,44.65385 C36.0233074,43.448491 36.8966566,42.2765902 37.8103273,41.1398637 L37.8103273,41.1398637 Z M76.2797274,30.7943652 C69.3469823,31.6376876 62.9041019,34.0449741 57.2830964,37.6258773 L57.2830964,37.6258773 L76.2797274,37.6258773 Z M97.3636456,27.0839182 L86.8216865,27.0839182 L86.8216865,30.5979046 L97.3636456,30.5979046 L97.3636456,27.0839182 Z" id="Combined-Shape"></path>
        </g>
    </g>
</svg>