<?xml version="1.0" encoding="UTF-8"?>
<svg width="120px" height="120px" viewBox="0 0 120 120" version="1.1" xmlns="http://www.w3.org/2000/svg" xmlns:xlink="http://www.w3.org/1999/xlink">
    <!-- Generator: sketchtool 64 (101010) - https://sketch.com -->
    <title>17C8A10A-6710-4887-A1DA-B9DCF012D19C</title>
    <desc>Created with sketchtool.</desc>
    <defs>
        <linearGradient x1="0%" y1="50.0007883%" x2="99.9987174%" y2="50.0007883%" id="linearGradient-1">
            <stop stop-color="#E29A64" offset="0%"></stop>
            <stop stop-color="#E85E8C" offset="100%"></stop>
        </linearGradient>
    </defs>
    <g id="Slice" stroke="none" stroke-width="1" fill="none" fill-rule="evenodd">
        <g id="india" fill="url(#linearGradient-1)" fill-rule="nonzero">
            <path d="M59.5680008,6 L69.1200949,17.1459376 C70.7620323,19.0604065 71.664001,21.5005315 71.664001,24.0174377 C71.664001,26.023379 71.0974682,27.8955348 70.1233798,29.4932171 L69.936001,29.7895317 L69.936001,38.0304379 L82.0320011,38.0304379 L82.0320011,48.398438 L88.9440012,48.398438 L88.9440012,41.6729068 C87.8758138,40.2781879 87.2160012,38.5586255 87.2160012,36.6720005 C87.2160012,35.0544753 87.6812564,33.4972205 88.5623743,32.1484114 L88.7575325,31.8626254 L97.5840014,19.5042189 L106.41047,31.864313 C107.417908,33.275063 107.952002,34.9389378 107.952002,36.6720005 C107.952002,38.4476475 107.367531,40.0768033 106.408215,41.4237038 L106.224001,41.6729068 L106.224001,48.398438 L113.136002,48.398438 L113.136002,114.062439 L6,114.062439 L6,48.398438 L12.9120001,48.398438 L12.9120001,41.6729068 C11.8438127,40.2781879 11.1840001,38.5586255 11.1840001,36.6720005 C11.1840001,35.0544753 11.6492552,33.4972205 12.5303732,32.1484114 L12.7255314,31.8626254 L21.5520002,19.5042189 L30.3784691,31.864313 C31.3859067,33.275063 31.9200004,34.9389378 31.9200004,36.6720005 C31.9200004,38.4476475 31.3355299,40.0768033 30.3762137,41.4237038 L30.1920004,41.6729068 L30.1920004,48.398438 L37.1040005,48.398438 L37.1040005,38.0304379 L49.2000006,38.0304379 L49.2000006,29.7895317 C48.1115632,28.1290316 47.4720006,26.1487503 47.4720006,24.0174377 C47.4720006,21.6149364 48.2938357,19.280857 49.7944066,17.4100079 L50.0133757,17.1459376 L59.5680008,6 Z M109.680002,82.9584385 L82.0320011,82.9584385 L82.0320011,110.606439 L109.680002,110.606439 L109.680002,82.9584385 Z M37.1040005,82.9584385 L9.45600005,82.9584385 L9.45600005,110.606439 L37.1040005,110.606439 L37.1040005,82.9584385 Z M59.5680008,72.7937823 L54.3840007,75.3857823 L54.3840007,110.606439 L64.7520009,110.606439 L64.7520009,75.3857823 L59.5680008,72.7937823 Z M71.664001,62.2224382 L47.4720006,62.2224382 L47.4720006,110.606439 L50.9280007,110.606439 L50.9280007,73.250251 L59.5680008,68.9302509 L68.2080009,73.250251 L68.2080009,110.606439 L71.664001,110.606439 L71.664001,62.2224382 Z M78.5760011,51.8544381 L40.5600005,51.8544381 L40.5600005,110.606439 L44.0160006,110.606439 L44.0160006,58.7664382 L75.120001,58.7664382 L75.120001,110.606439 L78.5760011,110.606439 L78.5760011,51.8544381 Z M23.2800003,85.6989386 L30.1920004,92.6109387 L30.1920004,107.150439 L16.3680002,107.150439 L16.3680002,92.6109387 L23.2800003,85.6989386 Z M95.8560013,85.6989386 L102.768001,92.6109387 L102.768001,107.150439 L88.9440012,107.150439 L88.9440012,92.6109387 L95.8560013,85.6989386 Z M23.2800003,90.5859387 L19.8240002,94.0419387 L19.8240002,103.694439 L26.7360003,103.694439 L26.7360003,94.0419387 L23.2800003,90.5859387 Z M95.8560013,90.5859387 L92.4000013,94.0419387 L92.4000013,103.694439 L99.3120014,103.694439 L99.3120014,94.0419387 L95.8560013,90.5859387 Z M37.1040005,51.8544381 L9.45600005,51.8544381 L9.45600005,79.5024385 L37.1040005,79.5024385 L37.1040005,51.8544381 Z M109.680002,51.8544381 L82.0320011,51.8544381 L82.0320011,79.5024385 L109.680002,79.5024385 L109.680002,51.8544381 Z M23.2800003,54.5949381 L30.1920004,61.5069382 L30.1920004,76.0464384 L16.3680002,76.0464384 L16.3680002,61.5069382 L23.2800003,54.5949381 Z M95.8560013,54.5949381 L102.768001,61.5069382 L102.768001,76.0464384 L88.9440012,76.0464384 L88.9440012,61.5069382 L95.8560013,54.5949381 Z M23.2800003,59.4819382 L19.8240002,62.9379382 L19.8240002,72.5904384 L26.7360003,72.5904384 L26.7360003,62.9379382 L23.2800003,59.4819382 Z M95.8560013,59.4819382 L92.4000013,62.9379382 L92.4000013,72.5904384 L99.3120014,72.5904384 L99.3120014,62.9379382 L95.8560013,59.4819382 Z M71.664001,41.4864379 L68.2080009,41.4864379 L68.2080009,48.398438 L71.664001,48.398438 L71.664001,41.4864379 Z M64.7520009,41.4864379 L61.2960008,41.4864379 L61.2960008,48.398438 L64.7520009,48.398438 L64.7520009,41.4864379 Z M57.8400008,41.4864379 L54.3840007,41.4864379 L54.3840007,48.398438 L57.8400008,48.398438 L57.8400008,41.4864379 Z M50.9280007,41.4864379 L47.4720006,41.4864379 L47.4720006,48.398438 L50.9280007,48.398438 L50.9280007,41.4864379 Z M78.5760011,41.4864379 L75.120001,41.4864379 L75.120001,48.398438 L78.5760011,48.398438 L78.5760011,41.4864379 Z M44.0160006,41.4864379 L40.5600005,41.4864379 L40.5600005,48.398438 L44.0160006,48.398438 L44.0160006,41.4864379 Z M26.7360003,44.3324069 C25.8862503,44.6744069 24.971167,44.8904068 24.0114911,44.9341845 L23.6495629,44.942438 L19.4544378,44.942438 C18.4831877,44.942438 17.5546044,44.7644381 16.6894284,44.4546603 L16.3680002,44.3324069 L16.3680002,48.398438 L26.7360003,48.398438 L26.7360003,44.3324069 Z M102.768001,44.3324069 C101.918251,44.6744069 101.003168,44.8904068 100.043492,44.9341845 L99.681564,44.942438 L95.4864389,44.942438 C94.5151889,44.942438 93.5866055,44.7644381 92.7214295,44.4546603 L92.4000013,44.3324069 L92.4000013,48.398438 L102.768001,48.398438 L102.768001,44.3324069 Z M97.5840014,25.4518129 L91.5689076,33.8724378 C90.9833452,34.6934067 90.6720013,35.6628754 90.6720013,36.6720005 C90.6720013,39.2546963 92.7168223,41.36932 95.2723307,41.4817374 L95.4864389,41.4864379 L99.681564,41.4864379 C102.336001,41.4864379 104.496001,39.3264379 104.496001,36.6720005 C104.496001,35.7546141 104.238693,34.8700015 103.751967,34.0999385 L103.599095,33.8724378 L97.5840014,25.4518129 Z M21.5520002,25.4518129 L15.5369064,33.8724378 C14.951344,34.6934067 14.6400001,35.6628754 14.6400001,36.6720005 C14.6400001,39.2546963 16.6848212,41.36932 19.2403295,41.4817374 L19.4544378,41.4864379 L23.6495629,41.4864379 C26.3040003,41.4864379 28.4640003,39.3264379 28.4640003,36.6720005 C28.4640003,35.7546141 28.2066915,34.8700015 27.7199664,34.0999385 L27.5670942,33.8724378 L21.5520002,25.4518129 Z M52.6560007,33.0877504 L52.6543133,33.0877504 L52.6543133,38.0304379 L66.4783135,38.0304379 L66.4783135,33.0877504 C65.0072635,33.9642379 63.3120383,34.4996853 61.4969104,34.5671828 L61.1061571,34.5744378 L58.0281571,34.5744378 C56.0655947,34.5744378 54.2321257,34.024313 52.6560007,33.0877504 Z M59.5680008,11.3080314 L52.6365946,19.3936876 C51.5363446,20.6812502 50.9280007,22.3223439 50.9280007,24.0174377 C50.9280007,27.8517133 53.9852868,30.9880596 57.7910319,31.1144768 L58.0298447,31.1184378 L61.1078447,31.1184378 C65.0211572,31.1184378 68.2080009,27.931594 68.2080009,24.0174377 C68.2080009,22.4282873 67.6733238,20.8865979 66.6978254,19.6391754 L66.4968759,19.3936876 L59.5680008,11.3080314 Z" id="Combined-Shape"></path>
        </g>
    </g>
</svg>