<?xml version="1.0" encoding="UTF-8"?>
<svg width="60px" height="60px" viewBox="0 0 60 60" version="1.1" xmlns="http://www.w3.org/2000/svg" xmlns:xlink="http://www.w3.org/1999/xlink">
    <!-- Generator: sketchtool 64 (101010) - https://sketch.com -->
    <title>3FE45E9B-86A8-4271-95EF-8B0E54AEBD42</title>
    <desc>Created with sketchtool.</desc>
    <g id="Contact" stroke="none" stroke-width="1" fill="none" fill-rule="evenodd">
        <g transform="translate(-665.000000, -1483.000000)" fill="#FFFFFF" fill-rule="nonzero" id="Group-10">
            <g transform="translate(206.000000, 1191.000000)">
                <g id="Group-9" transform="translate(459.000000, 292.000000)">
                    <g id="insta">
                        <g id="icon" transform="translate(10.000000, 10.000000)">
                            <path d="M28.641955,0 L10.63077,0 C4.76886513,0 0,4.76886513 0,10.63077 L0,28.6422546 C0,34.5038598 4.76886513,39.2727249 10.63077,39.2727249 L28.6422546,39.2727249 C34.5038598,39.2727249 39.2727249,34.5038598 39.2727249,28.6422546 L39.2727249,10.63077 C39.2727249,4.76886513 34.5038598,0 28.641955,0 Z M36.9703902,28.6422546 C36.9703902,33.2343397 33.2343397,36.9703902 28.641955,36.9703902 L10.63077,36.9703902 C6.03838519,36.9703902 2.30233473,33.2343397 2.30233473,28.6422546 L2.30233473,10.63077 C2.30233473,6.03838519 6.03838519,2.30233473 10.63077,2.30233473 L28.6422546,2.30233473 C33.2343397,2.30233473 36.9703902,6.03838519 36.9703902,10.63077 L36.9703902,28.6422546 Z" id="Shape"></path>
                            <path d="M19.6363625,8.89802635 C13.7151315,8.89802635 8.89802635,13.7151315 8.89802635,19.6363625 C8.89802635,25.5575934 13.7151315,30.3746986 19.6363625,30.3746986 C25.5575934,30.3746986 30.3746986,25.5575934 30.3746986,19.6363625 C30.3746986,13.7151315 25.5575934,8.89802635 19.6363625,8.89802635 Z M19.6363625,28.0723638 C14.9849512,28.0723638 11.2003611,24.2880734 11.2003611,19.6363625 C11.2003611,14.9849512 14.9849512,11.2003611 19.6363625,11.2003611 C24.2880734,11.2003611 28.0723638,14.9849512 28.0723638,19.6363625 C28.0723638,24.2880734 24.2880734,28.0723638 19.6363625,28.0723638 Z" id="Shape"></path>
                            <path d="M30.631479,5.08437246 C28.8816567,5.08437246 27.4584278,6.50790089 27.4584278,8.25742362 C27.4584278,10.007246 28.8816567,11.4307744 30.631479,11.4307744 C32.3813013,11.4307744 33.8048298,10.007246 33.8048298,8.25742362 C33.8048298,6.50760128 32.3813013,5.08437246 30.631479,5.08437246 Z M30.631479,9.12813997 C30.1514764,9.12813997 29.7607626,8.73742622 29.7607626,8.25742362 C29.7607626,7.77712134 30.1514764,7.38670719 30.631479,7.38670719 C31.1117813,7.38670719 31.502495,7.77712134 31.502495,8.25742362 C31.502495,8.73742622 31.1117813,9.12813997 30.631479,9.12813997 Z" id="Shape"></path>
                        </g>
                    </g>
                </g>
            </g>
        </g>
    </g>
</svg>