<svg xmlns="http://www.w3.org/2000/svg" viewBox="0 0 460.98 365.96"><defs><style>.cls-1{fill:#fff;}.cls-2{fill:#fcfcfc;}.cls-3{fill:#444;}</style></defs><title>test</title><g id="Layer_1" data-name="Layer 1"><g id="Home"><g id="WveLabs_Home" data-name="WveLabs Home"><g id="HEADER"><g id="TopNavigation"><g id="Group-13"><path id="wvelabs-logo-white" class="cls-1" d="M202.55,115.25v17.58h11v2h-13V115.25Zm32.39,0,8.65,19.61h-2.23l-2.67-6.06-.91-2-3.61-8.2-3.64,8.2-.91,2L227,134.86h-2.23l8.65-19.61Zm26.39,0a5.31,5.31,0,0,1,3.84,1.59,5.59,5.59,0,0,1,1.16,1.73,5.22,5.22,0,0,1,.42,2.08,5.35,5.35,0,0,1-.48,2.25,5.66,5.66,0,0,1-1.33,1.81,5.61,5.61,0,0,1,2,2,5.14,5.14,0,0,1,.77,2.79,5.33,5.33,0,0,1-.42,2.11,5.41,5.41,0,0,1-1.17,1.71,5.55,5.55,0,0,1-1.74,1.15,4.9,4.9,0,0,1-1.85.42H254l.06-.8V115.25Zm24.65,0a7.28,7.28,0,0,1,2.4.39,6.82,6.82,0,0,1,2,1.09,5.33,5.33,0,0,1,1.4,1.63,4.67,4.67,0,0,1,.56,1.8v.22l.06.82h-2.15l-.05-.74a2.92,2.92,0,0,0-.4-1.24,3.51,3.51,0,0,0-.93-1,4.82,4.82,0,0,0-1.32-.67,4.89,4.89,0,0,0-1.33-.24h-.73a5.08,5.08,0,0,0-1.64.26,4.4,4.4,0,0,0-1.32.72,3.41,3.41,0,0,0-.9,1.07,2.7,2.7,0,0,0-.33,1.3,2.84,2.84,0,0,0,.3,1.29,3.4,3.4,0,0,0,.84,1.06,4.24,4.24,0,0,0,1.27.72A4.52,4.52,0,0,0,285,124h1.25v0a8.87,8.87,0,0,1,1.43.08h.09a6.45,6.45,0,0,1,2.08.62A5.63,5.63,0,0,1,291.5,126a5.4,5.4,0,0,1,1.06,1.62,4.71,4.71,0,0,1-.11,4,5.23,5.23,0,0,1-1.36,1.71,6.56,6.56,0,0,1-2,1.15,6.83,6.83,0,0,1-2.22.42h-1.94a7,7,0,0,1-2.48-.43,6.61,6.61,0,0,1-2-1.15,5.36,5.36,0,0,1-1.36-1.71,4.61,4.61,0,0,1-.49-1.89v-.33l0-.77h2.15l0,.88a2.6,2.6,0,0,0,.31,1.3,3.31,3.31,0,0,0,.91,1.07,4.39,4.39,0,0,0,1.34.71,5.17,5.17,0,0,0,1.44.26h1.9a5.09,5.09,0,0,0,1.62-.26,4.33,4.33,0,0,0,1.35-.71,3.31,3.31,0,0,0,.91-1.07,2.75,2.75,0,0,0,0-2.61,3.45,3.45,0,0,0-.91-1.08,4.37,4.37,0,0,0-1.35-.73,4.75,4.75,0,0,0-1.41-.25h-1c-.57,0-1.19-.09-1.85-.18a4.13,4.13,0,0,1-1.62-.5q-3.23-1.87-3.23-4.75a4.56,4.56,0,0,1,.5-2.08,5.41,5.41,0,0,1,1.36-1.73,6.66,6.66,0,0,1,2-1.17,7.28,7.28,0,0,1,2.21-.42H286Zm-23.66,10.83h-6.23v6.72h6.23a3.44,3.44,0,0,0,1.31-.26,3.28,3.28,0,0,0,1.07-.71,3.47,3.47,0,0,0,.72-1.07,3.41,3.41,0,0,0,0-2.61,3.64,3.64,0,0,0-.72-1.08,3.33,3.33,0,0,0-1.07-.73A3.44,3.44,0,0,0,262.32,126.08Zm-1-8.78h-5.24V124h5.24a3.26,3.26,0,0,0,1.31-.26,3.3,3.3,0,0,0,1.08-.72,3.35,3.35,0,0,0,1-2.39,3.19,3.19,0,0,0-.27-1.3,3,3,0,0,0-.73-1.07,3.64,3.64,0,0,0-1.08-.72A3.44,3.44,0,0,0,261.33,117.3ZM207.51,91l4.27,15.11L216.16,91h1.65l4.55,15.11L226.49,91h2.09l-5.34,19.61h-1.65L217,95.46l-4.41,15.19H211L205.39,91ZM242,91l6.63,16.13L255.13,91h2.18l-7.94,19.61h-1.54l-8-19.61Zm39.52,0V93.1H270.58v6.72h8v2.06h-8v6.72h10.91v2.05h-13V91Z" transform="translate(-5.45 -25.6)"/></g></g></g></g></g><path class="cls-1" d="M94.34,98l-.74-1.21-7.84-3.91-3.43,4.79A21,21,0,0,1,77.81,94c-1.55-1.89-5-11.59-6.58-12.24-.52-1.64-1.2-12.95-1.37-14a.62.62,0,0,1,.08-.12,56,56,0,0,0,8.89-1.71c-.2-.06-6-1.66-8.55-2.14,0,0,0-1.25-.07-1.35L76.36,60,69.21,61.7a2,2,0,0,0-1-.46s3.58-6.36,3.3-6.17c-1,.69-4.31,3.48-5.7,4.64l-.08-.07a6.93,6.93,0,0,0-.75-.2l-.62-9.13-1.84,8.88a12.67,12.67,0,0,0-2.1.16C59.2,58,55.21,53.48,55,53.24s2.37,5.7,2.95,7l-.77.27-.36.57-7.68-2.7c-.12.35,0,.42-.14.82l6.79,3.49s-4.63-.1-6-.09A7.46,7.46,0,0,0,50.07,64c1.11.25,5.1,1.23,5.1,1.23l1.1,10.08a3.94,3.94,0,0,1-1.69-1c-.65-.67-2.3-2.69-2.39-4.52a10.39,10.39,0,0,0-.88-4.27c-.16-.34-4-32.87-4-33.21,1.71-.32,2.9-.93,2.92-1.68a1,1,0,0,0-.33-.67l0-1.59a.92.92,0,0,0,.37-.67c0-.85-1.48-1.58-3.59-1.95l-4.12-.18c-2.39.19-4.17.91-4.19,1.8a.88.88,0,0,0,.29.64l0,1.7a.92.92,0,0,0-.32.61c0,.65.56,1.55,1.94,2-.11,1.09,4.15,33.38,4.15,33.38a70.64,70.64,0,0,0-3.32,6.38c-1.56,3.39,2.69,8.27,2.69,8.27s.56,66.28.63,68.4-.1,24.11-.26,27.25l18.55.29,12.58.19c.16-.61,2.63-53,3-53.31s3-1.58,4.5-2.32,4.44-8.74,4.44-8.74,4.87-5.6,5.42-6.9a3.24,3.24,0,0,0-.44-2.79Z" transform="translate(-5.45 -25.6)"/><polygon class="cls-1" points="241.85 361.6 223.84 361.6 229.84 238.84 235.85 238.84 241.85 361.6"/><polygon class="cls-1" points="237.95 214.69 226.33 214.69 230.2 134.2 234.08 134.2 237.95 214.69"/><path class="cls-1" d="M263.19,255.83a24.78,24.78,0,1,1-24.78-24.78A24.78,24.78,0,0,1,263.19,255.83Z" transform="translate(-5.45 -25.6)"/><path class="cls-1" d="M213.71,257.25a24.74,24.74,0,0,0,49.41,0Z" transform="translate(-5.45 -25.6)"/><path class="cls-2" d="M405.92,330.91v.25l0,.07.09,7L405.81,354l40.36-.42v-23h.43c3.52-2,4.37-10.07,4.32-15.14-.1-9.7-13.47-17.06-20.62-23.09h.05c1.22,0,2-1.54,2-3.42,0-3.21-2.25-5.16-5.18-5.74a3.74,3.74,0,0,0,2.73-3.65,4,4,0,0,0-3.35-3.9,2.66,2.66,0,0,0,2-2.62,2.72,2.72,0,0,0-2.74-2.71,2.82,2.82,0,0,0-.65,5.51,4.21,4.21,0,0,0-.48,8.08,6.59,6.59,0,0,0-5.06,6.54,6.73,6.73,0,0,0,1.82,4.54c.08.07.14.16.22.23-7.08,3.87-20.23,12.37-20.12,22.06a23.34,23.34,0,0,0,4.46,13.56S405.92,330.89,405.92,330.91Zm37.82,3.31a3.28,3.28,0,1,1-3.31-3.24A3.28,3.28,0,0,1,443.74,334.22Zm-9.44.1a3.28,3.28,0,1,1-3.31-3.24A3.28,3.28,0,0,1,434.3,334.32Zm-9.44.1a3.28,3.28,0,1,1-3.31-3.25A3.28,3.28,0,0,1,424.86,334.42Zm-9.44.1a3.28,3.28,0,1,1-3.31-3.25A3.27,3.27,0,0,1,415.42,334.52Z" transform="translate(-5.45 -25.6)"/><polygon class="cls-2" points="303.41 334.79 448.21 334.79 448.06 328.34 447.83 328.34 447.83 328.79 375.5 330.1 375.18 330.1 303.36 330.68 303.41 332.35 303.41 334.79"/><path class="cls-2" d="M391,335.08a6.44,6.44,0,0,0,1.29,3.76l.17,15.56,11.63-.12L404,338.72a6.37,6.37,0,0,0,1.21-3.79c0-2.69-3.83-4.95-5.87-6a1.82,1.82,0,0,0,.55-1.33,1.84,1.84,0,0,0-1.48-1.78,1.16,1.16,0,0,0-.17-2.23.77.77,0,0,0,.54-.74.76.76,0,0,0-.78-.76.78.78,0,0,0-.77.77.79.79,0,0,0,.58.74,1.14,1.14,0,0,0-.93,1.14,1.15,1.15,0,0,0,.8,1.09,1.84,1.84,0,0,0-.87,3.13C394.77,330.05,391,332.4,391,335.08Zm11.13,4.33a1,1,0,0,1,.95.94.94.94,0,0,1-1.87,0A.94.94,0,0,1,402.17,339.41Zm-2.69,0a1,1,0,0,1,.94.93.94.94,0,1,1-.94-.93Zm-2.7,0a.94.94,0,1,1-.92.95A.94.94,0,0,1,396.78,339.47Zm-2.7,0a.94.94,0,0,1,.95.92,1,1,0,0,1-.93,1,1,1,0,0,1-1-.93A1,1,0,0,1,394.08,339.5Z" transform="translate(-5.45 -25.6)"/><path class="cls-2" d="M315.36,332v.55l-.24,6.92v15.71l40.69-.43-.2-15.52-.09-7.11v-.54a2.12,2.12,0,0,1,.12-.2,23.38,23.38,0,0,0,4.11-13.47c-.1-9.65-13.3-17.82-20.48-21.56l-.1-.05a6.67,6.67,0,0,0,1.93-4.8,6.54,6.54,0,0,0-5.18-6.42,4.18,4.18,0,0,0,2.72-4,4.13,4.13,0,0,0-3.36-4.07,2.71,2.71,0,1,0-1.45,0,4.21,4.21,0,0,0-.47,8.07,6.57,6.57,0,0,0-5.06,6.53,6.68,6.68,0,0,0,2,4.75h0c-7.08,3.86-20.23,12.34-20.12,22a23.5,23.5,0,0,0,4.42,13C314.77,331.62,315.36,331.83,315.36,332Zm37.12,3.41a3.28,3.28,0,1,1-3.46-3.22h.29A3.27,3.27,0,0,1,352.48,335.44Zm-9.44.09a3.29,3.29,0,1,1-3.46-3.21h.29A3.27,3.27,0,0,1,343,335.53Zm-9.44.1a3.28,3.28,0,1,1-3.46-3.21h.29A3.27,3.27,0,0,1,333.6,335.63Zm-9.44.15a3.28,3.28,0,0,1-6.56.08,3.16,3.16,0,0,1,3.1-3.23H321A3.17,3.17,0,0,1,324.16,335.78Z" transform="translate(-5.45 -25.6)"/><path class="cls-2" d="M371.22,287.88l.15,4.56.34,62.31h9.23l9.51-.21-.59-62,0-4.7v-.25c0-1,2-1.43,2-6.21,0-4.33-6.09-8-9.48-9.72l-.18-.09a2.93,2.93,0,0,0,.9-2.18,3,3,0,0,0-2.42-2.92,1.9,1.9,0,0,0-.3-3.66,1.27,1.27,0,0,0,.9-1.23,1.33,1.33,0,0,0-1.12-1.29c-.05,0-.08-.09-.14-.09h0c-.1,0-.19.1-.29.12a1.28,1.28,0,0,0,0,2.48,1.9,1.9,0,0,0-.22,3.68A3,3,0,0,0,378,271.6l0,0c-3.33,1.76-9.36,6.05-9.31,10.44,0,2.31.42,4.41,2.57,5.82Zm8.31,2.49a1.54,1.54,0,1,1-1.56-1.53A1.55,1.55,0,0,1,379.53,290.37Zm-4.43,0a1.54,1.54,0,1,1-1.55-1.52A1.55,1.55,0,0,1,375.1,290.41Zm5.78-.06a1.54,1.54,0,1,1,1.56,1.53A1.54,1.54,0,0,1,380.88,290.35Zm4.43,0a1.54,1.54,0,1,1,1.56,1.52A1.55,1.55,0,0,1,385.31,290.31Z" transform="translate(-5.45 -25.6)"/><path class="cls-2" d="M356.09,336.28a6.3,6.3,0,0,0,1.29,3.76l.16,14.73,11.63-.13L369,339.93a6.38,6.38,0,0,0,1.2-3.79c0-2.69-3.83-5-5.87-6a1.8,1.8,0,0,0,.55-1.33,1.82,1.82,0,0,0-1.48-1.77,1.16,1.16,0,0,0,.78-1.11,1.15,1.15,0,0,0-1-1.12.77.77,0,0,0-.23-1.51.78.78,0,0,0-.76.78.76.76,0,0,0,.57.73,1.15,1.15,0,0,0-.93,1.15,1.13,1.13,0,0,0,.8,1.08,1.84,1.84,0,0,0-1.45,1.81,1.82,1.82,0,0,0,.58,1.32C359.82,331.25,356.06,333.6,356.09,336.28Zm11.14,4.34a.93.93,0,0,1,.94.93.92.92,0,0,1-.92.94.94.94,0,1,1,0-1.87Zm-2.7,0a.94.94,0,1,1-.93,1A.94.94,0,0,1,364.53,340.65Zm-5.37,1.92a.93.93,0,1,1,.92-.93A.92.92,0,0,1,359.16,342.57Zm3.62-1a.94.94,0,1,1-.95-.93A.94.94,0,0,1,362.78,341.61Z" transform="translate(-5.45 -25.6)"/><path class="cls-1" d="M465.64,73.46c-.7-.43-6.27.46-6.27.46s1.88-1,2-1.54-4.23,1-5.68,1.36a11.09,11.09,0,0,0-3,1.57L450.5,76l-.59,0c-2.47.14-12.19.69-15.51.82C430.62,77,424,75.19,420,73.9a29,29,0,0,0-9.11-1,16.18,16.18,0,0,1-.9-3.21c0-.89-.33-5.36-.74-10.39s-4.46-5.34-6.94-4.76a1.06,1.06,0,0,0-.19.06c-3.83,1-3.84,5.18-3.92,8.27s-1.27,10.45-1.27,10.45a37.93,37.93,0,0,0-3.91.16c-2.82.22-7.1,2.41-9.23,2s-7.13,1-8.32,1.49-18,.78-19.68.93h-.1c-1.24.11-2.84-.94-4.44-1.65s-4.49-.47-5.93-.3a1,1,0,0,0-1,1.39,26.78,26.78,0,0,0-2.92.11c-1.1.17-3,.47-2.49,1.92s8.12,2.07,10.68,2.09a42.09,42.09,0,0,0,5.47-.49h.08A44,44,0,0,0,358,85.9a60.94,60.94,0,0,0,6.22,6.68s3.11-.41,5.69-.52,4.69-.55,6.39.17,11.19,2.5,11.19,2.5l-.66,20.42s1.79.15,1.86,1.5a4.15,4.15,0,0,0,1.11,2.43l1.41,48.23h34.9l-2.05-16,1.54-.62-.82-15.52,1.29-1.41-4.38-40.22a60.07,60.07,0,0,0,8.66-1.91c4-1.29,14.94-1.27,14.94-1.27s1.21-.27,3-2.48c1.46-1.76,2.05-5.64,2.22-7.11,0-.36.07-.58.07-.58a24,24,0,0,1,4-.83c1.89-.19,7.76-1.53,10.29-3S466.32,73.88,465.64,73.46Z" transform="translate(-5.45 -25.6)"/><path class="cls-1" d="M5.45,390.87V318s14.63-3.19,40-2L78,346.41l38.12,2.35v42.11S49.73,392.41,5.45,390.87Z" transform="translate(-5.45 -25.6)"/><path class="cls-3" d="M9.8,339.61v-9.2a2.81,2.81,0,0,1,2.81-2.82h.06a2.81,2.81,0,0,1,2.81,2.82v9.2Zm17.63-.08v-9.2a2.82,2.82,0,0,0-2.81-2.82h-.06a2.82,2.82,0,0,0-2.81,2.82v9.2Zm12,0v-9.2a2.82,2.82,0,0,0-2.81-2.82h-.06a2.83,2.83,0,0,0-2.82,2.82v9.2Zm12,0v-9.2a2.82,2.82,0,0,0-2.82-2.82h-.05a2.82,2.82,0,0,0-2.82,2.82v9.2Zm-36,23.67V354a2.81,2.81,0,0,0-2.81-2.81h-.06A2.81,2.81,0,0,0,9.8,354v9.21Zm12-.08v-9.21a2.81,2.81,0,0,0-2.81-2.81h-.06a2.81,2.81,0,0,0-2.81,2.81v9.21Zm12,0v-9.21a2.81,2.81,0,0,0-2.81-2.81h-.06a2.82,2.82,0,0,0-2.82,2.81v9.21Zm12,0v-9.21a2.81,2.81,0,0,0-2.82-2.81h-.05a2.81,2.81,0,0,0-2.82,2.81v9.21Zm-36,23.66v-9.21a2.81,2.81,0,0,0-2.81-2.81h-.06a2.81,2.81,0,0,0-2.81,2.81v9.21Zm12-.08v-9.2a2.81,2.81,0,0,0-2.81-2.82h-.06a2.81,2.81,0,0,0-2.81,2.82v9.2Zm12,0v-9.2a2.81,2.81,0,0,0-2.81-2.82h-.06a2.82,2.82,0,0,0-2.82,2.82v9.2Zm12,0v-9.2a2.82,2.82,0,0,0-2.82-2.82h-.05a2.82,2.82,0,0,0-2.82,2.82v9.2ZM62.8,363.12v-9.21A2.81,2.81,0,0,0,60,351.1h-.06a2.81,2.81,0,0,0-2.81,2.81v9.21Zm0,23.58v-9.2A2.81,2.81,0,0,0,60,374.68h-.06a2.81,2.81,0,0,0-2.81,2.82v9.2Zm11.32-23.58v-9.21a2.81,2.81,0,0,0-2.81-2.81h-.06a2.81,2.81,0,0,0-2.81,2.81v9.21Zm0,23.58v-9.2a2.81,2.81,0,0,0-2.81-2.82h-.06a2.81,2.81,0,0,0-2.81,2.82v9.2Zm11.31-23.58v-9.21a2.81,2.81,0,0,0-2.81-2.81h-.05a2.81,2.81,0,0,0-2.81,2.81v9.21Zm0,23.58v-9.2a2.81,2.81,0,0,0-2.81-2.82h-.05a2.81,2.81,0,0,0-2.81,2.82v9.2Zm11.32-23.58v-9.21a2.81,2.81,0,0,0-2.81-2.81h-.06a2.8,2.8,0,0,0-2.8,2.81v9.21Zm0,23.58v-9.2a2.81,2.81,0,0,0-2.81-2.82h-.06a2.81,2.81,0,0,0-2.8,2.82v9.2Zm11.32-23.58v-9.21a2.81,2.81,0,0,0-2.82-2.81h0a2.81,2.81,0,0,0-2.81,2.81v9.21Zm0,23.58v-9.2a2.82,2.82,0,0,0-2.82-2.82h0a2.81,2.81,0,0,0-2.81,2.82v9.2Z" transform="translate(-5.45 -25.6)"/></g></svg>