<?xml version="1.0" encoding="UTF-8"?>
<svg width="120px" height="120px" viewBox="0 0 120 120" version="1.1" xmlns="http://www.w3.org/2000/svg" xmlns:xlink="http://www.w3.org/1999/xlink">
    <!-- Generator: sketchtool 64 (101010) - https://sketch.com -->
    <title>EC781266-8DDD-4DB1-B61E-36E5763AFF4A</title>
    <desc>Created with sketchtool.</desc>
    <defs>
        <linearGradient x1="0%" y1="50.0007883%" x2="99.9987174%" y2="50.0007883%" id="linearGradient-1">
            <stop stop-color="#E29A64" offset="0%"></stop>
            <stop stop-color="#E85E8C" offset="100%"></stop>
        </linearGradient>
    </defs>
    <g id="Slice" stroke="none" stroke-width="1" fill="none" fill-rule="evenodd">
        <g id="london" fill="url(#linearGradient-1)" fill-rule="nonzero">
            <path d="M90.9551032,101.928984 L90.9547792,101.928984 L87.8194311,101.928984 L87.8194311,105.064332 L84.6840829,105.064332 L84.6840829,101.928984 L81.5487348,101.928984 L81.5487348,105.064332 L78.4133867,105.064332 L78.4133867,101.607576 L73.9480185,91.1900032 C78.0414347,89.4873831 81.7914108,87.090431 85.0336789,84.1148149 L87.495107,86.576243 C84.9646669,87.383651 83.1162469,89.7290871 83.1162469,92.5226152 C83.1162469,95.9809914 85.928891,98.7936355 89.3872671,98.7936355 L92.5226152,98.7936355 C95.9809914,98.7936355 98.7936355,95.9809914 98.7936355,92.5226152 C98.7936355,89.0642391 95.9809914,86.251595 92.5226152,86.251595 L91.6040752,86.251595 L87.253727,81.9012468 C91.1951872,77.6338426 94.1737193,72.4491944 95.8040874,66.6470022 C96.6960594,67.1346222 97.7056434,67.4388582 98.7936355,67.4388582 L101.928984,67.4388582 C105.38736,67.4388582 108.200004,64.6262141 108.200004,61.167838 C108.200004,57.7094619 105.38736,54.8968177 101.928984,54.8968177 L100.361148,54.8968177 L98.7933115,54.8968177 L97.1723394,54.8968177 C96.9448914,49.4160335 95.5419714,44.0700333 93.0364793,39.2194291 L94.0901273,39.2194291 C97.5485034,39.2194291 100.361148,36.406785 100.361148,32.9484089 C100.361148,29.4900327 97.5485034,26.6773886 94.0901273,26.6773886 L91.6037512,26.6773886 L92.0631832,26.2179566 L89.8463751,24.0011485 L85.0696429,28.7782047 C79.9980707,24.1158445 73.7286705,20.9503644 66.9778062,19.6038203 C67.2694062,18.8809763 67.4388582,18.0956003 67.4388582,17.2710202 C67.4388582,13.8126441 64.6262141,11 61.167838,11 L58.0324899,11 C54.5741137,11 51.7614696,13.8126441 51.7614696,17.2710202 C51.7614696,18.0956003 51.9309216,18.8809763 52.2225216,19.6022003 C45.4719814,20.9487444 39.2025811,24.1142245 34.1306849,28.7765847 L29.3536287,23.9998525 L27.1368206,26.2166606 L27.5962527,26.6777126 L25.1098766,26.6777126 C21.6515004,26.6777126 18.8388563,29.4903567 18.8388563,32.9487329 C18.8388563,36.407109 21.6515004,39.2197531 25.1098766,39.2197531 L26.1632006,39.2197531 C23.6580325,44.0703573 22.2547884,49.4163575 22.0273404,54.8971417 L20.4063684,54.8971417 L18.8385323,54.8971417 L17.2706962,54.8971417 C13.8126441,54.8968177 11,57.7094619 11,61.167838 C11,64.6262141 13.8126441,67.4388582 17.2710202,67.4388582 L20.4063684,67.4388582 C21.4943604,67.4388582 22.5039445,67.1346222 23.3959165,66.6457062 C25.0262846,72.4478984 28.0051407,77.6341666 31.9462768,81.8999508 L27.5959287,86.251919 L26.6773886,86.251919 C23.2190125,86.251919 20.4063684,89.0645631 20.4063684,92.5229392 C20.4063684,95.9813154 23.2190125,98.7939595 26.6773886,98.7939595 L29.8127367,98.7939595 C33.2711129,98.7939595 36.083757,95.9813154 36.083757,92.5229392 C36.083757,89.7290871 34.2353369,87.383975 31.7065168,86.576567 L34.1679449,84.1151389 C37.409889,87.089135 41.1601892,89.4877071 45.2536054,91.1903272 L40.7872652,101.6079 L40.7872652,105.064656 L37.6519171,105.064656 L37.6519171,101.929308 L34.5165689,101.929308 L34.5165689,105.064656 L31.3812208,105.064656 L31.3812208,101.929308 L28.2458727,101.929308 L28.2458727,105.064656 L12.5678361,105.064656 L12.5678361,108.200004 L106.632492,108.200004 L106.632492,105.064656 L90.9551032,105.064656 L90.9551032,101.928984 Z M92.5226152,89.3872671 C94.2518033,89.3869431 95.6579634,90.7934272 95.6579634,92.5226152 C95.6579634,94.2518033 94.2518033,95.6579634 92.5226152,95.6579634 L89.3872671,95.6579634 C87.658079,95.6579634 86.251919,94.2518033 86.251919,92.5226152 C86.251919,90.7934272 87.658079,89.3872671 89.3872671,89.3872671 L92.5226152,89.3872671 L92.5226152,89.3872671 Z M32.9484089,92.5226152 C32.9484089,94.2518033 31.5422488,95.6579634 29.8130607,95.6579634 L26.6777126,95.6579634 C24.9485246,95.6579634 23.5423645,94.2518033 23.5423645,92.5226152 C23.5423645,90.7934272 24.9485246,89.3872671 26.6777126,89.3872671 L29.8130607,89.3872671 C31.5422488,89.3869431 32.9484089,90.7934272 32.9484089,92.5226152 Z M61.167838,90.8857672 L61.167838,86.173187 C68.1976663,85.804799 74.5765785,82.9999309 79.4916587,78.5744147 L82.8152509,81.8980068 C76.9894066,87.203183 69.3906343,90.5079832 61.167838,90.8857672 Z M73.7960625,98.7936355 L67.4388582,98.7936355 C67.4388582,96.6882834 66.3884502,94.8320873 64.7908061,93.6938753 C66.9165702,93.3944993 68.9908183,92.9178953 71.0005904,92.2734592 L73.7960625,98.7936355 Z M63.3846461,54.8968177 L79.4932787,38.7881851 C83.3563309,43.1307573 85.811279,48.7291535 86.173511,54.8968177 L63.3846461,54.8968177 Z M86.171891,58.0321659 C85.811279,64.1982101 83.3547109,69.7982263 79.4916587,74.1407985 L63.3846461,58.0321659 L86.171891,58.0321659 Z M61.167838,52.6800097 L61.167838,29.8927648 C67.3338822,30.2533768 72.9338985,32.7099449 77.2764706,36.572997 L61.167838,52.6800097 Z M77.2761466,76.3576066 C72.9335745,80.2206588 67.3351782,82.6756068 61.167514,83.0378389 L61.167514,60.249298 L77.2761466,76.3576066 Z M93.2389793,64.0161221 C91.8985912,70.0110943 89.0059191,75.3603346 85.0398349,79.6873547 L81.7081428,76.3559866 C86.135603,71.4412304 88.9385271,65.0619941 89.3069151,58.0321659 L93.3941753,58.0321659 C92.8547153,58.9588059 92.5226152,60.0199059 92.5226152,61.167514 C92.5226152,62.19751 92.7970433,63.1568741 93.2389793,64.0161221 Z M98.7936355,58.0321659 L100.361148,58.0321659 L101.928984,58.0321659 C103.658172,58.0321659 105.064332,59.4383259 105.064332,61.167514 C105.064332,62.8967021 103.658172,64.3028621 101.928984,64.3028621 L98.7936355,64.3028621 C97.0644474,64.3028621 95.6582874,62.8967021 95.6582874,61.167514 C95.6582874,59.4383259 97.0644474,58.0321659 98.7936355,58.0321659 Z M90.9551032,29.8130607 L94.0904513,29.8130607 C95.8196394,29.8130607 97.2257994,31.2192208 97.2257994,32.9484089 C97.2257994,34.6775969 95.8196394,36.083757 94.0904513,36.083757 L90.9551032,36.083757 C89.2259151,36.083757 87.8197551,34.6775969 87.8197551,32.9484089 C87.8197551,31.2192208 89.2259151,29.8130607 90.9551032,29.8130607 Z M89.3072391,38.9715691 C92.1636232,43.8111573 93.7816793,49.2715295 94.0369913,54.8968177 L89.3072391,54.8968177 L89.3072391,54.8968177 C88.9388511,47.8669895 86.133983,41.4880772 81.7084668,36.572997 L84.7436989,33.5377649 C84.9928549,36.156009 86.836739,38.2944091 89.3072391,38.9715691 Z M82.8466789,31.0011688 L79.4916587,34.3561889 C74.5769025,29.9287288 68.1976663,27.1258046 61.167838,26.7574166 L61.167838,23.5420405 C62.508226,23.5420405 63.7452581,23.1107965 64.7642381,22.3928125 C71.5147784,23.4085525 77.8139867,26.4110606 82.8466789,31.0011688 Z M58.0321659,14.1353481 L61.167514,14.1353481 C62.8967021,14.1353481 64.3028621,15.5415082 64.3028621,17.2706962 C64.3028621,18.9998843 62.8967021,20.4060444 61.167514,20.4060444 L58.0321659,20.4060444 C56.3029778,20.4060444 54.8968177,18.9998843 54.8968177,17.2706962 C54.8968177,15.5415082 56.3029778,14.1353481 58.0321659,14.1353481 Z M55.8153578,58.0321659 L39.7067251,74.1407985 C35.843673,69.7982263 33.3887249,64.1998301 33.0264929,58.0321659 C33.0268169,58.0321659 55.8153578,58.0321659 55.8153578,58.0321659 Z M33.0284369,54.8968177 C33.3890489,48.7307735 35.845617,43.1307573 39.7086691,38.7881851 L55.8153578,54.8968177 L33.0284369,54.8968177 Z M58.0321659,60.248974 L58.0321659,83.0362189 C51.8661216,82.6756068 46.2661054,80.2190388 41.9235332,76.3559866 L58.0321659,60.248974 Z M41.9238572,36.571377 C46.2664294,32.7083249 51.8648256,30.2533768 58.0324899,29.8911448 L58.0324899,52.6800097 L58.0321659,52.6800097 L41.9238572,36.571377 Z M54.4357657,22.3928125 C55.4547458,23.1107965 56.6917778,23.5420405 58.0321659,23.5420405 L58.0321659,26.7574166 C51.0023376,27.1258046 44.6234253,29.9306728 39.7083451,34.3561889 L36.353649,31.0011688 C41.3843972,26.4110606 47.6836055,23.4085525 54.4357657,22.3928125 Z M25.1095526,36.083757 C23.3803645,36.083757 21.9742044,34.6775969 21.9742044,32.9484089 C21.9742044,31.2192208 23.3803645,29.8130607 25.1095526,29.8130607 L28.2449007,29.8130607 C29.9740888,29.8130607 31.3802488,31.2192208 31.3802488,32.9484089 C31.3802488,34.6775969 29.9740888,36.083757 28.2449007,36.083757 L25.1095526,36.083757 L25.1095526,36.083757 Z M20.4063684,64.3031861 L17.2710202,64.3031861 C15.5418322,64.3031861 14.1356721,62.8970261 14.1356721,61.167838 C14.1356721,59.4386499 15.5418322,58.0324899 17.2710202,58.0324899 L18.8388563,58.0324899 L20.4066924,58.0324899 C22.1358804,58.0324899 23.5420405,59.4386499 23.5420405,61.167838 C23.5420405,62.8970261 22.1355564,64.3031861 20.4063684,64.3031861 Z M29.8927648,38.9715691 C32.3635888,38.2944091 34.2071489,36.156009 34.4563049,33.5377649 L37.4915371,36.572997 C33.0644009,41.4877532 30.2611528,47.8669895 29.8927648,54.8968177 L25.1646326,54.8968177 C25.4186486,49.2718535 27.0363806,43.8111573 29.8927648,38.9715691 Z M34.1604929,79.6876787 C30.1937608,75.3606586 27.3014126,70.0114183 25.9610246,64.0164461 C26.4032846,63.1571981 26.6773886,62.197834 26.6773886,61.167838 C26.6773886,60.0202299 26.3449646,58.9588059 25.8058286,58.0324899 L29.8930888,58.0324899 C30.2614768,65.0623181 33.0663449,71.4412304 37.4918611,76.3563106 L34.1604929,79.6876787 Z M36.384753,81.8963868 L39.7083451,78.5727947 C44.6231013,83.0002549 51.0023376,85.803179 58.0321659,86.171567 L58.0321659,90.8841472 C49.8093695,90.5063632 42.2105972,87.201563 36.384753,81.8963868 Z M54.4091977,93.6935513 C52.8115537,94.8317633 51.7611456,96.6879594 51.7611456,98.7933115 L45.4039414,98.7933115 L48.1990895,92.2715152 C50.2091856,92.9175713 52.2834336,93.3941753 54.4091977,93.6935513 Z M43.9226133,105.064656 L43.9226133,102.250716 L44.0606373,101.929308 L52.6330297,101.929308 C53.7210217,103.7949 55.7213978,105.064656 58.0324899,105.064656 L43.9226133,105.064656 Z M58.0321659,101.92866 C56.3029778,101.92866 54.8968177,100.5225 54.8968177,98.7933115 C54.8968177,97.0641234 56.3029778,95.6579634 58.0321659,95.6579634 L61.167514,95.6579634 C62.8967021,95.6579634 64.3028621,97.0641234 64.3028621,98.7933115 C64.3028621,100.5225 62.8967021,101.92866 61.167514,101.92866 L58.0321659,101.92866 Z M75.2773906,105.064332 L61.167838,105.064332 C63.4786061,105.064656 65.4789822,103.794576 66.5669742,101.928984 L75.1393665,101.928984 L75.2773906,102.250392 L75.2773906,105.064332 L75.2773906,105.064332 Z" id="Shape"></path>
        </g>
    </g>
</svg>