<?xml version="1.0" encoding="UTF-8"?>
<svg width="120px" height="120px" viewBox="0 0 120 120" version="1.1" xmlns="http://www.w3.org/2000/svg" xmlns:xlink="http://www.w3.org/1999/xlink">
    <!-- Generator: sketchtool 64 (101010) - https://sketch.com -->
    <title>75FD40A9-28B7-44C1-BFF1-27BCB6140B9A</title>
    <desc>Created with sketchtool.</desc>
    <defs>
        <linearGradient x1="0%" y1="50.0007883%" x2="99.9987174%" y2="50.0007883%" id="linearGradient-1">
            <stop stop-color="#E29A64" offset="0%"></stop>
            <stop stop-color="#E85E8C" offset="100%"></stop>
        </linearGradient>
    </defs>
    <g id="Contact" stroke="none" stroke-width="1" fill="none" fill-rule="evenodd">
        <g transform="translate(-291.000000, -2003.000000)" fill="url(#linearGradient-1)" fill-rule="nonzero" id="Group-2">
            <g transform="translate(60.000000, 1977.000000)">
                <g id="studio" transform="translate(231.000000, 26.000000)">
                    <g id="losangeles">
                        <path d="M72.4343447,7 L77.4369385,17.0035001 L68.6155322,21.4146252 L76.8480011,21.4146252 L76.8480011,31.7826254 L94.1280013,31.7826254 L94.1280013,42.1506255 L90.6720013,42.1506255 L90.6720013,64.6146259 L101.040001,64.6146259 L101.040001,74.982626 L97.5840014,74.982626 L97.5840014,109.542627 L113.136002,109.542627 L113.136002,112.998627 L6,112.998627 L6,109.542627 L21.5520002,109.542627 L21.5520002,74.982626 L18.0960002,74.982626 L18.0960002,64.6146259 L28.4640003,64.6146259 L28.4640003,42.1506255 L25.0080003,42.1506255 L25.0080003,31.7826254 L42.2880005,31.7826254 L42.2880005,22.0752815 L72.4343447,7 Z M94.1280013,74.982626 L25.0080003,74.982626 L25.0080003,109.542627 L28.4640003,109.542627 L28.4640003,92.2626263 L38.8320005,92.2626263 L38.8320005,109.542627 L42.2880005,109.542627 L42.2880005,81.8946261 L76.8480011,81.8946261 L76.8480011,109.542627 L80.3040011,109.542627 L80.3040011,92.2626263 L90.6720013,92.2626263 L90.6720013,109.542627 L94.1280013,109.542627 L94.1280013,74.982626 Z M87.2160012,95.7186263 L83.7600012,95.7186263 L83.7600012,109.542627 L87.2160012,109.542627 L87.2160012,95.7186263 Z M73.392001,85.3506262 L61.2960008,85.3506262 L61.2960008,109.542627 L73.392001,109.542627 L73.392001,85.3506262 Z M57.8400008,85.3506262 L45.7440006,85.3506262 L45.7440006,109.542627 L57.8400008,109.542627 L57.8400008,85.3506262 Z M35.3760004,95.7186263 L31.9200004,95.7186263 L31.9200004,109.542627 L35.3760004,109.542627 L35.3760004,95.7186263 Z M54.3840007,93.9906263 L54.3840007,100.902626 L50.9280007,100.902626 L50.9280007,93.9906263 L54.3840007,93.9906263 Z M68.2080009,93.9906263 L68.2080009,100.902626 L64.7520009,100.902626 L64.7520009,93.9906263 L68.2080009,93.9906263 Z M97.5840014,68.0706259 L21.5520002,68.0706259 L21.5520002,71.526626 L97.5840014,71.526626 L97.5840014,68.0706259 Z M42.2880005,42.1506255 L31.9200004,42.1506255 L31.9200004,64.6146259 L40.5600005,64.6146259 L40.5600005,50.7906257 L50.9280007,50.7906257 L50.9280007,64.6146259 L54.3840007,64.6146259 L54.3840007,50.7906257 L64.7520009,50.7906257 L64.7520009,64.6146259 L68.2080009,64.6146259 L68.2080009,50.7906257 L78.5760011,50.7906257 L78.5760011,64.6146259 L87.2160012,64.6146259 L87.2160012,42.1506255 L76.8480011,42.1506255 L76.8480011,45.6066256 L42.2880005,45.6066256 L42.2880005,42.1506255 Z M75.120001,54.2466257 L71.664001,54.2466257 L71.664001,64.6146259 L75.120001,64.6146259 L75.120001,54.2466257 Z M61.2960008,54.2466257 L57.8400008,54.2466257 L57.8400008,64.6146259 L61.2960008,64.6146259 L61.2960008,54.2466257 Z M47.4720006,54.2466257 L44.0160006,54.2466257 L44.0160006,64.6146259 L47.4720006,64.6146259 L47.4720006,54.2466257 Z M73.392001,31.7826254 L45.7440006,31.7826254 L45.7440006,42.1506255 L73.392001,42.1506255 L73.392001,31.7826254 Z M90.6720013,35.2386254 L76.8480011,35.2386254 L76.8480011,38.6946255 L90.6720013,38.6946255 L90.6720013,35.2386254 Z M42.2880005,35.2386254 L28.4640003,35.2386254 L28.4640003,38.6946255 L42.2880005,38.6946255 L42.2880005,35.2386254 Z M73.392001,24.8706253 L45.7440006,24.8706253 L45.7440006,28.3266253 L73.392001,28.3266253 L73.392001,24.8706253 Z M70.8919697,11.6380938 L51.3372194,21.4146252 L60.8884695,21.4146252 L72.801376,15.4585938 L70.8919697,11.6380938 Z" id="Combined-Shape"></path>
                    </g>
                </g>
            </g>
        </g>
    </g>
</svg>