<?xml version="1.0" encoding="UTF-8"?>
<svg width="120px" height="120px" viewBox="0 0 120 120" version="1.1" xmlns="http://www.w3.org/2000/svg" xmlns:xlink="http://www.w3.org/1999/xlink">
    <!-- Generator: sketchtool 64 (101010) - https://sketch.com -->
    <title>9B93E50C-D49F-4D73-B496-903855FF1E49</title>
    <desc>Created with sketchtool.</desc>
    <defs>
        <linearGradient x1="0%" y1="50.0007883%" x2="99.9987174%" y2="50.0007883%" id="linearGradient-1">
            <stop stop-color="#E29A64" offset="0%"></stop>
            <stop stop-color="#E85E8C" offset="100%"></stop>
        </linearGradient>
    </defs>
    <g id="Slice" stroke="none" stroke-width="1" fill="none" fill-rule="evenodd">
        <g id="newyork" fill="url(#linearGradient-1)" fill-rule="nonzero">
            <path d="M83.5,101.234093 L83.5,51.7306105 L75.9659598,44.2663042 L73.0957728,44.2663042 L71.0606515,45.7787162 C71.0438058,45.7914322 71.0261578,45.8009692 71.0077079,45.8144799 C69.7210169,44.3235263 68.9396972,42.5003662 68.756801,40.5500458 C71.7072057,38.4852815 73.6428571,35.0861293 73.6428571,31.2450952 L73.6428571,27.989793 C73.6428571,25.0206013 72.4813058,22.3208302 70.5953892,20.2910349 L74.9223285,16.0041451 L72.6000279,13.7025447 L68.0340402,18.2238863 C66.7577776,17.4641036 65.321882,16.9443362 63.7857143,16.7265742 L63.7857143,10.0856307 L60.5,10.0856307 L60.5,16.7265742 C58.9638323,16.9443362 57.5279365,17.4641036 56.2516741,18.2238863 L51.6880928,13.7025447 L49.3649901,16.0041451 L53.6919294,20.2910349 C51.8044085,22.3208302 50.6428571,25.0206013 50.6428571,27.989793 L50.6428571,31.2450952 C50.6428571,35.0861293 52.5785086,38.4852815 55.5273088,40.5484564 C55.3235561,42.7475339 54.3625488,44.7884559 52.7670201,46.3708062 L52.2969447,46.8365305 C52.1790249,46.7681817 52.0522809,46.7189073 51.9359654,46.6489691 L42.4285714,40.8528463 L42.4285714,32.8727463 L45.7142857,32.8727463 L45.7142857,23.1068396 L43.1577497,23.1068396 C43.7232839,22.1451902 44.0714286,21.0428698 44.0714286,19.8515374 C44.0714286,18.4535694 43.6045618,17.0651385 42.7574636,15.946923 L37.5,9 L32.2425362,15.946923 C31.395438,17.0651385 30.9285714,18.4535694 30.9285714,19.8515374 C30.9285714,21.0428698 31.2767159,22.1451902 31.8422503,23.1068396 L29.2857143,23.1068396 L29.2857143,32.8727463 L32.5714286,32.8727463 L32.5714286,36.1280486 L31.8927873,36.1280486 C28.6431709,36.1280486 26,38.7467547 26,41.9678826 C26,43.9650933 27.0123464,45.7993798 28.7057407,46.8786523 L32.5714286,49.3399979 L32.5714286,50.7769086 C32.5714286,53.4687319 34.7830287,55.659862 37.5,55.659862 C38.7088798,55.659862 39.8030481,55.2108272 40.6605748,54.4915771 L49,59.8036963 L49,65.744464 L48.2804477,66.1911143 C46.6736886,67.1853485 45.7142857,68.9004221 45.7142857,70.7776253 L45.7142857,71.4110423 C45.7142857,73.6276044 47.0699636,75.5318289 49,76.3671128 L49,83.4809337 L48.0847168,84.1079926 C46.6014926,85.1252745 45.7142857,86.799816 45.7142857,88.5872122 L45.7142857,89.2706985 C45.7142857,91.4944133 47.0699636,93.404996 49,94.2529959 L49,101.234093 L39.1428571,101.234093 L39.1428571,111 L95,111 L95,101.234093 L83.5,101.234093 Z M80.2142857,75.1137897 L78.8626186,89.8548409 C78.7767857,90.7735737 78.0115094,91.4681866 77.0777761,91.4681866 C76.0886927,91.4681866 75.2857143,90.6726402 75.2857143,89.6927116 L75.2857143,88.4536939 C75.2857143,88.3710397 75.2905272,88.2860013 75.2969447,88.2407005 L76.9053084,78.7140142 L75.2857143,78.4469776 L73.6917898,78.0527809 L72.7476283,81.7952658 C72.5190079,82.6981035 71.7023925,83.329931 70.7614397,83.329931 C69.6327776,83.329931 68.7142857,82.4199403 68.7142857,81.3017251 L68.7142857,80.5045893 C68.7142857,80.3464337 68.7327356,80.1882781 68.770438,80.0340964 L76.2026017,49.1055461 L80.2142857,53.078509 L80.2142857,75.1137897 Z M70.3427036,27.8467375 C68.2329799,27.5081735 66.2877021,26.5393713 64.7483259,25.0126537 L62.1428571,22.4328903 L59.5373884,25.0142433 C57.9980119,26.5393713 56.0511299,27.5097629 53.9430105,27.8483271 C54.022426,23.4271243 57.6627021,19.8515374 62.1428571,19.8515374 C66.6230119,19.8515374 70.2632883,23.4271243 70.3427036,27.8467375 Z M53.9285714,31.2450952 L53.9285714,31.1473407 C56.9255022,30.791292 59.694615,29.4608779 61.8604911,27.3158437 L62.1428571,27.0360912 L62.4252232,27.3158437 C64.5910993,29.4608779 67.3602121,30.7928814 70.3571429,31.1473407 L70.3571429,31.2450952 C70.3571429,35.7322622 66.6719447,39.3833508 62.1428571,39.3833508 C57.6137694,39.3833508 53.9285714,35.7322622 53.9285714,31.2450952 Z M58.6221052,42.0870954 C59.7331194,42.4415547 60.913923,42.638653 62.1428571,42.638653 C63.3717913,42.638653 64.5525949,42.4415547 65.663609,42.0870954 C66.0446429,44.0612582 66.8989606,45.9050817 68.1575752,47.4953794 C65.8834053,48.5667045 63.3782087,49.1492575 60.8513531,49.1492575 C59.0119628,49.1492575 57.2062638,48.8202303 55.477574,48.2488039 C57.0963657,46.4995558 58.1785016,44.3831325 58.6221052,42.0870954 Z M42.4285714,29.6174441 L32.5714286,29.6174441 L32.5714286,26.3621419 L42.4285714,26.3621419 L42.4285714,29.6174441 Z M34.2142857,19.8515374 C34.2142857,19.1418241 34.4413017,18.4662854 34.8712682,17.898038 L37.5,14.4265634 L40.1287318,17.898038 C40.5586983,18.4662854 40.7857143,19.1418241 40.7857143,19.8515374 C40.7857143,21.6468809 39.3121164,23.1068396 37.5,23.1068396 C35.6878836,23.1068396 34.2142857,21.6468809 34.2142857,19.8515374 Z M30.4833635,44.1391439 C29.7325265,43.662293 29.2857143,42.8500568 29.2857143,41.9662932 C29.2857143,40.5420984 30.4552873,39.3833508 31.8927873,39.3833508 L32.5714286,39.3833508 L32.5714286,45.4687632 L30.4833635,44.1391439 Z M37.5,52.4045598 C36.5951451,52.4045598 35.8571429,51.6757725 35.8571429,50.7769086 L35.8571429,32.8727463 L39.1428571,32.8727463 L39.1428571,50.7769086 C39.1428571,51.6757725 38.4048549,52.4045598 37.5,52.4045598 Z M42.3347168,51.6884885 C42.3924735,51.3920462 42.4285714,51.0892459 42.4285714,50.7769086 L42.4285714,44.6748063 L50.2120883,49.4210624 C53.4143762,51.3729722 57.0923549,52.4045598 60.8513531,52.4045598 C65.1983468,52.4045598 69.5092423,50.9851334 72.9922921,48.4085489 L72.2927943,51.3221081 L52.2857143,63.7099001 L52.2857143,58.0266319 L42.3347168,51.6884885 Z M49,70.7776253 C49,70.0289695 49.3810338,69.3470726 50.0219726,68.9496968 L71.2098562,55.8307334 L69.5830427,62.5956584 L69.4747489,62.4263763 L52.3418665,73.228639 C51.9913155,73.4487852 51.5894252,73.5640243 51.1738978,73.5640243 C49.9762486,73.5640243 49,72.5976064 49,71.4110423 L49,70.7776253 Z M52.2857143,76.6921663 C52.9282575,76.5602374 53.5459334,76.3257857 54.1058523,75.972916 L68.5578613,66.8610898 L67.6369628,70.6941765 L52.2857143,81.225429 L52.2857143,76.6921663 Z M49,88.5872122 C49,87.8679621 49.3561663,87.1940128 49.9561942,86.783921 L66.4978724,75.4372536 L65.5745674,79.2822613 C65.4775041,79.6820214 65.4285714,80.0944975 65.4285714,80.5045893 L65.4285714,81.3017251 C65.4285714,81.9613688 65.5665458,82.587633 65.790353,83.1701858 L52.3563058,91.1574387 C52.0129743,91.3608951 51.6191057,91.4681866 51.2164133,91.4681866 C49.9938963,91.4681866 49,90.4834894 49,89.2706985 L49,88.5872122 Z M52.2857143,94.6082497 C52.9049944,94.4858581 53.5050223,94.2712751 54.0488978,93.9470164 L67.8711983,85.7308753 C68.7062638,86.2681273 69.6953472,86.5868226 70.763044,86.5868226 C71.2916782,86.5868226 71.8010603,86.4970158 72.287179,86.3523709 L72.0529435,87.7423914 C72.0160435,87.9784326 72,88.2160632 72,88.4536939 L72,89.6927116 C72,92.4655996 74.2789829,94.7234888 77.0777761,94.7234888 C78.2674037,94.7234888 79.3487374,94.310218 80.2142857,93.6346791 L80.2142857,101.234093 L52.2857143,101.234093 L52.2857143,94.6082497 Z M91.7142857,107.744698 L42.4285714,107.744698 L42.4285714,104.489396 L91.7142857,104.489396 L91.7142857,107.744698 Z" id="Shape"></path>
        </g>
    </g>
</svg>