<?xml version="1.0" encoding="UTF-8"?>
<svg width="120px" height="120px" viewBox="0 0 120 120" version="1.1" xmlns="http://www.w3.org/2000/svg" xmlns:xlink="http://www.w3.org/1999/xlink">
    <!-- Generator: sketchtool 64 (101010) - https://sketch.com -->
    <title>18DADCA9-DFE1-4379-9BDB-304E913E2682</title>
    <desc>Created with sketchtool.</desc>
    <defs>
        <linearGradient x1="0%" y1="50.0007883%" x2="99.9987174%" y2="50.0007883%" id="linearGradient-1">
            <stop stop-color="#E29A64" offset="0%"></stop>
            <stop stop-color="#E85E8C" offset="100%"></stop>
        </linearGradient>
    </defs>
    <g id="Slice" stroke="none" stroke-width="1" fill="none" fill-rule="evenodd">
        <g id="orangecounty" fill="url(#linearGradient-1)" fill-rule="nonzero">
            <path d="M18.4225922,57.8400008 L18.4225922,63.0240008 L21.8785922,63.0240008 L21.8785922,57.8400008 L32.2465924,57.8400008 L32.2465924,63.0240008 L35.7025924,63.0240008 L35.7025924,57.8400008 L46.0705926,57.8400008 L46.0705926,73.392001 L41.2131845,73.392001 L43.9589766,89.1790092 C46.5751686,82.9564811 52.7320327,78.5760011 59.8945928,78.5760011 C67.0571529,78.5760011 73.214017,82.9564811 75.830209,89.1790092 L75.830209,89.1790092 L78.5760011,73.392001 L73.718593,73.392001 L73.718593,57.8400008 L84.0865932,57.8400008 L84.0865932,63.0240008 L87.5425932,63.0240008 L87.5425932,57.8400008 L97.9105934,57.8400008 L97.9105934,63.0240008 L101.366593,63.0240008 L101.366593,57.8400008 L111.734594,57.8400008 L111.734594,73.392001 L106.877186,73.392001 L113.789186,113.136002 L6,113.136002 L12.9120001,73.392001 L8.05459203,73.392001 L8.05459203,57.8400008 L18.4225922,57.8400008 Z M103.369345,73.392001 L82.0838411,73.392001 L77.2247051,101.335489 L77.1745931,101.326849 L77.1745931,109.680002 L109.680002,109.680002 L103.369345,73.392001 Z M61.6225928,82.1512331 L61.6225928,109.680002 L73.718593,109.680002 L73.718593,95.8560013 C73.718593,88.8195852 68.4309129,83.0065931 61.6225928,82.1512331 L61.6225928,82.1512331 Z M58.1665928,82.1512331 C51.3582727,83.0065931 46.0705926,88.8195852 46.0705926,95.8560013 L46.0705926,95.8560013 L46.0705926,109.680002 L58.1665928,109.680002 Z M37.7053445,73.392001 L16.4198402,73.392001 L10.1091841,109.680002 L42.6145925,109.680002 L42.6145925,101.622337 L37.7053445,73.392001 Z M39.1585925,102.768001 L39.1585925,106.224001 L32.2465924,106.224001 L32.2465924,102.768001 L39.1585925,102.768001 Z M90.9985933,99.3120014 L90.9985933,102.768001 L82.3585931,102.768001 L82.3585931,99.3120014 L90.9985933,99.3120014 Z M27.0625923,97.5840014 L27.0625923,101.040001 L18.4225922,101.040001 L18.4225922,97.5840014 L27.0625923,97.5840014 Z M54.7105927,92.4000013 L54.7105927,99.3120014 L51.2545927,99.3120014 L51.2545927,92.4000013 L54.7105927,92.4000013 Z M68.5345929,92.4000013 L68.5345929,99.3120014 L65.0785929,99.3120014 L65.0785929,92.4000013 L68.5345929,92.4000013 Z M101.366593,92.4000013 L101.366593,95.8560013 L94.4545933,95.8560013 L94.4545933,92.4000013 L101.366593,92.4000013 Z M97.9105934,82.0320011 L97.9105934,85.4880012 L89.2705932,85.4880012 L89.2705932,82.0320011 L97.9105934,82.0320011 Z M33.9745924,78.5760011 L33.9745924,82.0320011 L25.3345923,82.0320011 L25.3345923,78.5760011 L33.9745924,78.5760011 Z M14.9665921,61.2960008 L11.5105921,61.2960008 L11.5105921,69.936001 L42.6145925,69.936001 L42.6145925,61.2960008 L39.1585925,61.2960008 L39.1585925,66.4800009 L28.7905923,66.4800009 L28.7905923,61.2960008 L25.3345923,61.2960008 L25.3345923,66.4800009 L14.9665921,66.4800009 L14.9665921,61.2960008 Z M80.6305931,61.2960008 L77.1745931,61.2960008 L77.1745931,69.936001 L108.278594,69.936001 L108.278594,61.2960008 L104.822593,61.2960008 L104.822593,66.4800009 L94.4545933,66.4800009 L94.4545933,61.2960008 L90.9985933,61.2960008 L90.9985933,66.4800009 L80.6305931,66.4800009 L80.6305931,61.2960008 Z M59.8945928,47.4720006 C63.7065609,47.4720006 66.8065929,50.5720327 66.8065929,54.3840007 L66.8065929,54.3840007 L66.8065929,61.2960008 L52.9825927,61.2960008 L52.9825927,54.3840007 C52.9825927,50.5720327 56.0826247,47.4720006 59.8945928,47.4720006 Z M59.8945928,50.9280007 C57.9886088,50.9280007 56.4385928,52.4780167 56.4385928,54.3840007 L56.4385928,54.3840007 L56.4385928,57.8400008 L63.3505929,57.8400008 L63.3505929,54.3840007 C63.3505929,52.4780167 61.8005768,50.9280007 59.8945928,50.9280007 Z M59.8945928,6 C61.5621128,6 63.1328649,6.88992001 63.9934089,8.32070403 L63.9934089,8.32070403 L85.4102412,44.0160006 L80.6305931,44.0160006 L80.6305931,54.3840007 L77.1745931,54.3840007 L77.1745931,44.0160006 L42.6145925,44.0160006 L42.6145925,54.3840007 L39.1585925,54.3840007 L39.1585925,44.0160006 L34.3789444,44.0160006 L55.7957767,8.32070403 C56.6545928,6.88992001 58.2270728,6 59.8945928,6 Z M61.0281608,10.0988161 C60.5529608,9.30566405 59.2327688,9.30566405 58.7575688,10.0988161 L58.7575688,10.0988161 L40.4822405,40.5600005 L79.3069451,40.5600005 Z" id="Combined-Shape"></path>
        </g>
    </g>
</svg>