<?xml version="1.0" encoding="UTF-8"?>
<svg width="60px" height="60px" viewBox="0 0 60 60" version="1.1" xmlns="http://www.w3.org/2000/svg" xmlns:xlink="http://www.w3.org/1999/xlink">
    <!-- Generator: sketchtool 64 (101010) - https://sketch.com -->
    <title>F718E908-CFB6-4A3B-A7BB-49219ED72FD5</title>
    <desc>Created with sketchtool.</desc>
    <g id="Contact" stroke="none" stroke-width="1" fill="none" fill-rule="evenodd">
        <g transform="translate(-211.000000, -1191.000000)" fill="#FFFFFF" fill-rule="nonzero" id="Group-10">
            <g transform="translate(206.000000, 1191.000000)">
                <g id="Group-2" transform="translate(5.000000, 0.000000)">
                    <g id="regoffice">
                        <path d="M4.95819318,42.4833555 L4.95819318,30.5792277 L19.9135031,30.5792277 L19.9135031,42.4833555 L22.8716963,42.4833555 L22.8716963,15.3195739 L19.9135031,15.3195739 L19.9135031,27.9826897 L4.95819318,27.9826897 L4.95819318,15.3195739 L2,15.3195739 L2,42.4833555 L4.95819318,42.4833555 Z M56.9456992,45 L59,43.322237 L54.7681403,38.9280959 C57.3565593,36.4513981 58.958914,32.976032 58.958914,28.9014647 C58.958914,20.7123835 52.5494954,15 44.5788083,15 C36.6492071,15 30.2397886,20.7123835 30.2397886,28.9014647 C30.2397886,37.0905459 36.6492071,42.8029294 44.5788083,42.8029294 C47.5780875,42.8029294 50.3719366,41.9640479 52.6727535,40.5259654 L56.9456992,45 Z M44.5788083,40.2063915 C38.0872177,40.2063915 33.3212398,35.3728362 33.3212398,28.9014647 C33.3212398,22.4300932 38.0872177,17.5965379 44.5788083,17.5965379 C51.1114849,17.5965379 55.8774628,22.4300932 55.8774628,28.9014647 C55.8774628,32.0972037 54.7681403,34.8934754 52.8370975,36.8908123 L48.5641519,32.3768309 L46.550937,34.0545939 L50.7827967,38.5286285 C49.057184,39.6071904 46.9617972,40.2063915 44.5788083,40.2063915 Z" id="HQ"></path>
                    </g>
                </g>
            </g>
        </g>
    </g>
</svg>