<?xml version="1.0" encoding="UTF-8"?>
<svg width="80px" height="80px" viewBox="0 0 80 80" version="1.1" xmlns="http://www.w3.org/2000/svg" xmlns:xlink="http://www.w3.org/1999/xlink">
    <!-- Generator: Sketch 64 (93537) - https://sketch.com -->
    <title>ddr</title>
    <desc>Created with Sketch.</desc>
    <defs>
        <linearGradient x1="0%" y1="50.0007883%" x2="99.9987174%" y2="50.0007883%" id="linearGradient-1">
            <stop stop-color="#E29A64" offset="0%"></stop>
            <stop stop-color="#E85E8C" offset="100%"></stop>
        </linearGradient>
    </defs>
    <g id="ddr" stroke="none" stroke-width="1" fill="none" fill-rule="evenodd">
        <path d="M48.1327995,14.99944 C48.9041994,14.99944 49.5327994,15.62664 49.5327994,16.39944 L49.5327994,63.5304392 C49.5327994,64.3032392 48.9041994,64.9304391 48.1327995,64.9304391 L17.4,64.9304391 C16.6272,64.9304391 16,64.3032392 16,63.5304392 L16,16.39944 C16,15.62664 16.6272,14.99944 17.4,14.99944 L48.1327995,14.99944 Z M46.7327995,17.79944 L18.8,17.79944 L18.8,62.1304392 L46.7327995,62.1304392 L46.7327995,17.79944 Z M61.4200592,17.8238 C62.4238592,17.8238 63.2372592,18.6371999 63.2372592,19.6409999 L63.2372592,60.2899992 C63.2372592,61.2937992 62.4238592,62.1071992 61.4200592,62.1071992 L52.3326594,62.1071992 L52.3326594,59.3071992 L60.4372592,59.3071992 L60.4372592,20.6237999 L52.3326594,20.6237999 L52.3326594,17.8238 L61.4200592,17.8238 Z M43.7888795,53.7104193 C43.8658795,53.7104193 43.9288795,53.7720193 43.9288795,53.8504193 L43.9288795,56.3704193 C43.9288795,56.4474193 43.8658795,56.5104193 43.7888795,56.5104193 L21.7444799,56.5104193 C21.6660799,56.5104193 21.6030799,56.4474193 21.6030799,56.3704193 L21.6030799,53.8504193 C21.6030799,53.7720193 21.6660799,53.7104193 21.7444799,53.7104193 L43.7888795,53.7104193 Z M57.4874593,50.9102794 C57.5658593,50.9102794 57.6274593,50.9732794 57.6274593,51.0502794 L57.6274593,53.5702793 C57.6274593,53.6472793 57.5658593,53.7102793 57.4874593,53.7102793 L52.3326594,53.7102793 L52.3326594,50.9102794 L57.4874593,50.9102794 Z M43.7888795,48.1104194 C43.8658795,48.1104194 43.9288795,48.1720194 43.9288795,48.2504194 L43.9288795,50.7704194 C43.9288795,50.8474194 43.8658795,50.9104194 43.7888795,50.9104194 L21.7444799,50.9104194 C21.6660799,50.9104194 21.6030799,50.8474194 21.6030799,50.7704194 L21.6030799,48.2504194 C21.6030799,48.1720194 21.6660799,48.1104194 21.7444799,48.1104194 L43.7888795,48.1104194 Z M57.4874593,45.3102795 C57.5658593,45.3102795 57.6274593,45.3732795 57.6274593,45.4502795 L57.6274593,47.9702794 C57.6274593,48.0472794 57.5658593,48.1102794 57.4874593,48.1102794 L52.3326594,48.1102794 L52.3326594,45.3102795 L57.4874593,45.3102795 Z M30.0261798,20.4795999 C30.6883797,20.4991999 31.2441797,20.9793999 31.3631797,21.6303999 L33.9671797,36.0097996 L34.7819797,31.1615997 C34.8897797,30.5231997 35.4217797,30.0415997 36.0685797,29.9981997 C36.7069796,29.9505997 37.3075796,30.3593997 37.4993796,30.9781997 L39.1597796,36.3051996 L42.5995795,36.3051996 C43.3737795,36.3051996 43.9995795,36.9309996 43.9995795,37.7051996 C43.9995795,38.4779996 43.3737795,39.1051996 42.5995795,39.1051996 L38.1293796,39.1051996 C37.5175796,39.1051996 36.9757796,38.7061996 36.7923796,38.1223996 L36.5711796,37.4083996 L35.3979797,44.3817995 C35.2845797,45.0523995 34.7063797,45.5451995 34.0259797,45.5493995 L34.0175797,45.5493995 C33.3413797,45.5493995 32.7617797,45.0663995 32.6399797,44.3985995 L29.7867798,28.6401998 L27.5411798,37.9011996 C27.3899798,38.5283996 26.8271798,38.9707996 26.1803798,38.9707996 L22.9323799,38.9707996 C22.1581799,38.9707996 21.5323799,38.3435996 21.5323799,37.5707996 C21.5323799,36.7979996 22.1581799,36.1707996 22.9323799,36.1707996 L25.0799798,36.1707996 L28.6247798,21.5491999 C28.7815798,20.9065999 29.3821798,20.4459999 30.0261798,20.4795999 Z M57.4874593,39.7102796 C57.5658593,39.7102796 57.6274593,39.7732796 57.6274593,39.8502796 L57.6274593,42.3702795 C57.6274593,42.4472795 57.5658593,42.5102795 57.4874593,42.5102795 L52.3326594,42.5102795 L52.3326594,39.7102796 L57.4874593,39.7102796 Z M57.4874593,34.1102797 C57.5658593,34.1102797 57.6274593,34.1732797 57.6274593,34.2502797 L57.6274593,36.7702796 C57.6274593,36.8472796 57.5658593,36.9102796 57.4874593,36.9102796 L52.3326594,36.9102796 L52.3326594,34.1102797 L57.4874593,34.1102797 Z" id="Combined-Shape" fill="url(#linearGradient-1)" fill-rule="nonzero"></path>
    </g>
</svg>