<?xml version="1.0" encoding="UTF-8"?>
<svg width="80px" height="80px" viewBox="0 0 80 80" version="1.1" xmlns="http://www.w3.org/2000/svg" xmlns:xlink="http://www.w3.org/1999/xlink">
    <!-- Generator: Sketch 64 (93537) - https://sketch.com -->
    <title>gc</title>
    <desc>Created with Sketch.</desc>
    <defs>
        <linearGradient x1="0%" y1="50.0007883%" x2="99.9987174%" y2="50.0007883%" id="linearGradient-1">
            <stop stop-color="#E29A64" offset="0%"></stop>
            <stop stop-color="#E85E8C" offset="100%"></stop>
        </linearGradient>
    </defs>
    <g id="gc" stroke="none" stroke-width="1" fill="none" fill-rule="evenodd">
        <path d="M53.6665,40.774 L56.497,49.486 L65.65675,49.486 C66.145,49.486 66.577,49.801 66.72775,50.2645 C66.8785,50.728 66.71425,51.2365 66.31825,51.52225 L58.89775,56.9155 L61.54825,65.542 C61.69,66.0055 61.519,66.5095 61.12525,66.79075 C60.92725,66.93025 60.69775,67 60.4705,67 C60.2365,67 60.0025,66.928 59.80675,66.78175 L52.5955,61.4965 L45.38425,66.78175 C44.995,67.0675 44.46175,67.072 44.068,66.79075 C43.672,66.5095 43.50325,66.0055 43.645,65.542 L46.2955,56.9155 L38.875,51.52225 C38.48125,51.2365 38.31475,50.728 38.4655,50.2645 C38.61625,49.801 39.04825,49.486 39.5365,49.486 L48.69625,49.486 L51.52675,40.774 C51.82825,39.847 53.365,39.847 53.6665,40.774 Z M54.8455,13 C60.42775,13 64.9705,17.54275 64.9705,23.125 L64.9705,45.625 C64.9705,46.246 64.4665,46.75 63.8455,46.75 C63.2245,46.75 62.7205,46.246 62.7205,45.625 L62.7205,23.125 C62.7205,18.7825 59.188,15.25 54.8455,15.25 L23.3455,15.25 C19.003,15.25 15.4705,18.7825 15.4705,23.125 L15.4705,62.76775 L24.7315,51.655 C24.94525,51.3985 25.26025,51.25 25.5955,51.25 L35.7205,51.25 C36.3415,51.25 36.8455,51.754 36.8455,52.375 C36.8455,52.996 36.3415,53.5 35.7205,53.5 L26.122,53.5 L15.2095,66.595 C14.99125,66.856 14.67175,67 14.3455,67 C14.21725,67 14.08675,66.9775 13.963,66.9325 C13.5175,66.7705 13.2205,66.3475 13.2205,65.875 L13.2205,23.125 C13.2205,17.54275 17.76325,13 23.3455,13 L54.8455,13 Z M27.8455,31 C29.7085,31 31.2205,32.51425 31.2205,34.375 C31.2205,36.23575 29.70625,37.75 27.8455,37.75 C25.98475,37.75 24.4705,36.23575 24.4705,34.375 C24.4705,32.51425 25.9825,31 27.8455,31 Z M39.0955,31 C40.9585,31 42.4705,32.51425 42.4705,34.375 C42.4705,36.23575 40.95625,37.75 39.0955,37.75 C37.23475,37.75 35.7205,36.23575 35.7205,34.375 C35.7205,32.51425 37.2325,31 39.0955,31 Z M50.3455,31 C52.2085,31 53.7205,32.51425 53.7205,34.375 C53.7205,36.23575 52.20625,37.75 50.3455,37.75 C48.48475,37.75 46.9705,36.23575 46.9705,34.375 C46.9705,32.51425 48.4825,31 50.3455,31 Z M27.8455,33.25 C27.2245,33.25 26.7205,33.754 26.7205,34.375 C26.7205,34.996 27.2245,35.5 27.8455,35.5 C28.4665,35.5 28.9705,34.996 28.9705,34.375 C28.9705,33.754 28.46425,33.25 27.8455,33.25 Z M39.0955,33.25 C38.4745,33.25 37.9705,33.754 37.9705,34.375 C37.9705,34.996 38.4745,35.5 39.0955,35.5 C39.7165,35.5 40.2205,34.996 40.2205,34.375 C40.2205,33.754 39.71425,33.25 39.0955,33.25 Z M50.3455,33.25 C49.7245,33.25 49.2205,33.754 49.2205,34.375 C49.2205,34.996 49.7245,35.5 50.3455,35.5 C50.9665,35.5 51.4705,34.996 51.4705,34.375 C51.4705,33.754 50.96425,33.25 50.3455,33.25 Z" id="Combined-Shape" fill="url(#linearGradient-1)" fill-rule="nonzero"></path>
    </g>
</svg>