<?xml version="1.0" encoding="UTF-8"?>
<svg width="80px" height="80px" viewBox="0 0 80 80" version="1.1" xmlns="http://www.w3.org/2000/svg" xmlns:xlink="http://www.w3.org/1999/xlink">
    <!-- Generator: Sketch 64 (93537) - https://sketch.com -->
    <title>tltt</title>
    <desc>Created with Sketch.</desc>
    <defs>
        <linearGradient x1="0%" y1="50.0007883%" x2="99.9987174%" y2="50.0007883%" id="linearGradient-1">
            <stop stop-color="#E29A64" offset="0%"></stop>
            <stop stop-color="#E85E8C" offset="100%"></stop>
        </linearGradient>
    </defs>
    <g id="tltt" stroke="none" stroke-width="1" fill="none" fill-rule="evenodd">
        <path d="M44.75,66.9999988 L35.75,66.9999988 C35.1035369,67.000802 34.529282,66.5873385 34.325,65.974 L32.43275,60.29725 C30.3173445,59.4840249 28.3431721,58.3428014 26.58275,56.9155 L20.714,58.1155 C20.081288,58.2453411 19.4365043,57.9555813 19.1135,57.39625 L14.6135,49.6015 C14.2907275,49.0422879 14.362026,48.3392721 14.7905,47.85625 L18.7655,43.375 C18.411968,41.1363718 18.411968,38.8561282 18.7655,36.6175 L14.79425,32.14225 C14.3669385,31.65996 14.2953883,30.9586466 14.6165,30.4 L19.1165,22.60525 C19.4372996,22.0498798 20.0757041,21.7599152 20.705,21.88375 L43.97825,26.45875 C45.343994,26.7108155 46.6514282,27.2129903 47.83475,27.94 C52.965038,31.1625896 55.4979597,37.2758605 54.1502041,43.1825087 C52.8024485,49.089157 47.8684813,53.4986627 41.8481092,54.1769388 C35.8277371,54.855215 30.0363271,51.6540678 27.4081115,46.1953664 C24.7798958,40.7366649 25.8891028,34.2130592 30.17375,29.92975 C30.7623183,29.3612917 31.6978772,29.3694214 32.2764779,29.9480221 C32.8550786,30.5266228 32.8632083,31.4621817 32.29475,32.05075 C28.9154551,35.4325171 28.0425928,40.5806983 30.1183333,44.8873541 C32.1940738,49.1940099 36.7649844,51.718378 41.5155564,51.1816768 C46.2661285,50.6449756 50.1586289,47.1644442 51.2212146,42.5032326 C52.2838002,37.8420209 50.2843559,33.0183417 46.23575,30.47575 C45.3647811,29.9449423 44.4034962,29.5790896 43.4,29.3965 L21.179,25.0315 L17.756,30.961 L21.4895,35.1715 C21.7976405,35.5192078 21.9272678,35.9900762 21.8405,36.4465 C21.3873543,38.7923167 21.3873543,41.2031833 21.8405,43.549 C21.9272678,44.0054238 21.7976405,44.4762922 21.4895,44.824 L17.756,49.0345 L21.17525,54.9595 L26.693,53.83 C27.1499622,53.7362541 27.6245291,53.8604398 27.977,54.166 C29.7781643,55.7322211 31.8634568,56.9378206 34.1195,57.71725 C34.5599715,57.8698113 34.904483,58.2184802 35.05175,58.66075 L36.83075,63.9999988 L43.6685,63.9999988 L45.4475,58.66225 C45.594767,58.2199802 45.9392785,57.8713113 46.37975,57.71875 C48.6357932,56.9393206 50.7210857,55.7337211 52.52225,54.1675 C52.8747209,53.8619398 53.3492878,53.7377541 53.80625,53.8315 L59.324,54.961 L62.74325,49.036 L59.00975,44.8255 C58.7016095,44.4777922 58.5719822,44.0069238 58.65875,43.5505 C59.1118957,41.2046833 59.1118957,38.7938167 58.65875,36.448 C58.5719822,35.9915762 58.7016095,35.5207078 59.00975,35.173 L62.74325,30.9625 L59.324,25.0375 L53.80625,26.167 C53.3492878,26.2607459 52.8747209,26.1365602 52.52225,25.831 C50.7210857,24.2647789 48.6357932,23.0591794 46.37975,22.27975 C45.9392785,22.1271887 45.594767,21.7785198 45.4475,21.33625 L43.66925,15.9999988 L36.83075,15.9999988 L35.05175,21.33775 C34.7897599,22.1237202 33.9402202,22.5484901 33.15425,22.2865 C32.3682798,22.0245099 31.9435099,21.1749702 32.2055,20.389 L34.325,14.026 C34.529282,13.4126615 35.1035369,12.999198 35.75,12.9999988 L44.75,12.9999988 C45.3964631,12.999198 45.970718,13.4126615 46.175,14.026 L48.06725,19.70275 C50.1826555,20.5159751 52.1568279,21.6571986 53.91725,23.0845 L59.786,21.8845 C60.418712,21.7546589 61.0634957,22.0444187 61.3865,22.60375 L65.8865,30.3985 C66.2092725,30.9577121 66.137974,31.6607279 65.7095,32.14375 L61.7345,36.625 C62.088032,38.8636282 62.088032,41.1438718 61.7345,43.3825 L65.70575,47.8615 C66.134224,48.3445221 66.2055225,49.0475379 65.88275,49.60675 L61.38275,57.4015 C61.0597457,57.9608313 60.414962,58.2505911 59.78225,58.12075 L53.9135,56.92075 C52.1530779,58.3480514 50.1789055,59.4892749 48.0635,60.3025 L46.175,65.974 C45.970718,66.5873385 45.3964631,67.000802 44.75,66.9999988 Z" id="Path" fill="url(#linearGradient-1)" fill-rule="nonzero"></path>
    </g>
</svg>