<?xml version="1.0" encoding="UTF-8"?>
<svg width="177px" height="70px" viewBox="0 0 177 70" version="1.1" xmlns="http://www.w3.org/2000/svg" xmlns:xlink="http://www.w3.org/1999/xlink">
    <!-- Generator: Sketch 64 (93537) - https://sketch.com -->
    <title>2cc</title>
    <desc>Created with Sketch.</desc>
    <g id="2cc" stroke="none" stroke-width="1" fill="none" fill-rule="evenodd">
        <path d="M21.593334,22 C34.4979248,22 45,32.3181316 45,45.0013098 C45,57.6829163 34.4979248,68 21.593334,68 C13.1330554,68 5.36091185,63.5291554 1.20477971,56.3043564 L1,55.9408294 L5.22732919,53.688691 C8.4877338,59.6026174 14.7608802,63.2740982 21.593334,63.2740982 C31.8472132,63.2740982 40.1917696,55.0771211 40.1917696,45.0013098 C40.1917696,34.9228789 31.8472132,26.7235441 21.593334,26.7235441 C14.9682582,26.7235441 8.84241795,30.1984762 5.51302167,35.8125911 L5.3275673,36.1326469 L1.12503105,33.8380696 C5.25505462,26.535975 13.0997534,22 21.593334,22 Z M150.536922,49 C150.808144,49 151,49.2168806 151,49.4613017 L151,49.4613017 L151,65.5483375 C151,65.7851849 150.808144,66 150.536922,66 L150.536922,66 L140.463768,66 C140.194617,66 140,65.7851849 140,65.5483375 L140,65.5483375 L140,62.8886234 C140,62.651776 140.194617,62.4355838 140.463768,62.4355838 L140.463768,62.4355838 L147.202899,62.4355838 L147.202899,59.414402 L141.653554,59.414402 C141.409248,59.414402 141.189096,59.2009639 141.189096,58.9627395 L141.189096,58.9627395 L141.189096,56.309222 C141.189096,56.0379491 141.409248,55.8472318 141.653554,55.8472318 L141.653554,55.8472318 L147.202899,55.8472318 L147.202899,52.5713013 L140.463768,52.5713013 C140.194617,52.5713013 140,52.3461585 140,52.106557 L140,52.106557 L140,49.4613017 C140,49.2168806 140.194617,49 140.463768,49 L140.463768,49 Z M162.119852,49 C167.034603,49 171,52.752656 171,57.4765877 C171,62.2018572 167.034603,66 162.119852,66 C159.654461,66 157.84358,65.2661919 156.166528,63.7992445 C155.948358,63.6146219 155.948358,63.3316676 156.144223,63.1416936 L156.144223,63.1416936 L158.062447,61.2339262 C158.232522,61.0680334 158.506454,61.0680334 158.674438,61.2339262 C159.585455,62.0085386 160.790618,62.4353112 161.994387,62.4353112 C164.780411,62.4353112 166.821312,60.2185016 166.821312,57.5729126 C166.821312,54.9520737 164.756712,52.7794129 161.984628,52.7794129 C160.82059,52.7794129 159.563847,53.185449 158.674438,53.9172503 C158.506454,54.0523727 158.189306,54.0523727 158.035263,53.894507 L158.035263,53.894507 L156.122616,51.931219 C155.948358,51.757968 155.979028,51.4509326 156.144223,51.291729 C157.821972,49.735146 159.931878,49 162.119852,49 Z M58.5336255,49 C58.8027667,49 59,49.2168806 59,49.4613017 L59,49.4613017 L59,65.5448949 C59,65.7851849 58.8027667,66 58.5336255,66 L58.5336255,66 L55.6607314,66 C55.4210382,66 55.2032598,65.7851849 55.2032598,65.5448949 L55.2032598,65.5448949 L55.2032598,52.5678587 L49.4485687,52.5678587 C49.185591,52.5678587 49,52.3461585 49,52.106557 L49,52.106557 L49,49.4613017 C49,49.2168806 49.185591,49 49.4485687,49 L49.4485687,49 Z M67.0854193,49 C67.5133679,49 67.7004273,49.1363854 67.917766,49.5937176 L67.917766,49.5937176 L68.7756819,51.4841143 L75.2251913,51.4841143 L76.0817615,49.5706474 C76.202879,49.2761635 76.4612631,49 76.9369859,49 L76.9369859,49 L79.5484148,49 C79.9070573,49 80.0907523,49.3080546 79.9555044,49.6215375 L79.9555044,49.6215375 L72.52427,65.7353716 C72.4515995,65.8737926 72.275979,66 72.114489,66 L72.114489,66 L71.876964,66 C71.7174926,66 71.5519652,65.8737926 71.4806405,65.7353716 L71.4806405,65.7353716 L64.0440231,49.6215375 C63.9087752,49.3080546 64.0965074,49 64.4517855,49 L64.4517855,49 Z M87.9040588,49 C88.0925544,49 88.2349579,49.1191122 88.2893052,49.2168806 L88.2893052,49.2168806 L91.5143674,55.6592686 L93.1867492,55.6592686 L93.1867492,49.4613017 C93.1867492,49.2168806 93.4110176,49 93.6483569,49 L93.6483569,49 L96.54252,49 C96.8094407,49 97,49.2168806 97,49.4613017 L97,49.4613017 L97,65.5483375 C97,65.7851849 96.8094407,66 96.54252,66 L96.54252,66 L89.2826904,66 C86.369265,66 84,63.6452959 84,60.7494229 C84,58.5255356 85.4694396,56.722328 87.5793512,55.8692641 L87.5793512,55.8692641 L84.2545378,49.7064112 C84.0901201,49.3800575 84.2545378,49 84.6673017,49 L84.6673017,49 Z M109.491529,49 C109.742824,49 109.965176,49.2189196 109.965176,49.4612456 L109.965176,49.4612456 L109.965176,62.4387706 L113.527059,62.4387706 C113.797412,62.4387706 114,62.6521827 114,62.8917551 L114,62.8917551 L114,65.5483923 C114,65.7845226 113.797412,66 113.527059,66 L113.527059,66 L102.467294,66 C102.192706,66 102,65.7845226 102,65.5483923 L102,65.5483923 L102,62.8917551 C102,62.6521827 102.192706,62.4387706 102.467294,62.4387706 L102.467294,62.4387706 L106.027765,62.4387706 L106.027765,49.4612456 C106.027765,49.2189196 106.255765,49 106.504235,49 L106.504235,49 Z M119.809024,49 C119.884849,49 120.059577,49.0742504 120.110347,49.1177304 L120.110347,49.1177304 L129.303019,58.4973637 L129.330052,58.4973637 L129.330052,49.6889903 C129.330052,49.4515228 129.513352,49.2408122 129.771158,49.2408122 L129.771158,49.2408122 L132.538454,49.2408122 C132.763952,49.2408122 132.97956,49.4515228 132.97956,49.6889903 L132.97956,49.6889903 L133,65.5772409 C133,65.810026 132.793623,66 132.56351,66 L132.56351,66 L131.980643,66 L122.694344,56.9401117 L122.672585,56.9401117 L122.672585,65.3183678 C122.672585,65.5478083 122.492582,65.7571811 122.23082,65.7571811 L122.23082,65.7571811 L119.43649,65.7571811 C119.208355,65.7571811 119,65.5478083 119,65.3183678 L119,65.3183678 L119,49.4307862 C119,49.1852916 119.208355,49 119.43649,49 L119.43649,49 Z M93,58 L89.7004305,58 C88.7786781,58 88,58.9792501 88,60.0567892 C88,61.1423371 88.7786781,62 89.7004305,62 L89.7004305,62 L93,62 L93,58 Z M41.7310645,59.974088 L41.7454271,59.9787051 L41.7454271,59.9787051 L41.7539913,59.9890201 L42.0248475,60.7293415 L42.0317788,60.7293415 L42.2975698,59.9890201 L42.3074336,59.9787051 L42.3074336,59.9787051 L42.3220961,59.974088 L42.3428902,59.974088 L42.3587524,59.979753 L42.3587524,59.979753 L42.3682163,59.9934736 L42.5444328,60.8956912 C42.5470987,60.9082657 42.5443143,60.9185115 42.5359216,60.9239449 L42.5191067,60.9281752 L42.4655219,60.9281752 L42.4495931,60.9221172 L42.4495931,60.9221172 L42.4404624,60.9095755 L42.318897,60.2174562 L42.3132986,60.2174562 L42.061637,60.9268654 L42.052073,60.9372459 L42.052073,60.9372459 L42.0387102,60.9415356 L42.0133841,60.9415356 L42.0000545,60.9372459 L42.0000545,60.9372459 L41.9907239,60.9268654 L41.7363963,60.2174562 L41.7310645,60.2174562 L41.612165,60.9095755 L41.6031009,60.9221172 L41.6031009,60.9221172 L41.5868389,60.9281752 L41.5324544,60.9281752 C41.5193026,60.9281752 41.5108902,60.9221209 41.508007,60.912496 L41.507928,60.8956912 L41.6844111,59.9934736 L41.6937418,59.979753 L41.6937418,59.979753 L41.7094706,59.974088 L41.7310645,59.974088 Z M41.4191533,59.9879723 C41.4287506,59.9879723 41.437163,59.9932116 41.4417049,60.0006631 L41.4452792,60.0131212 L41.4452792,60.0521544 C41.4452792,60.0614106 41.4400659,60.0699682 41.4323249,60.0746448 L41.4191533,60.0783512 L41.1808212,60.0783512 L41.1808212,60.9027643 C41.1808212,60.911322 41.1754894,60.9197631 41.1676694,60.9244398 L41.1544287,60.9281752 L41.1027101,60.9281752 C41.0940015,60.9281752 41.0856483,60.9225866 41.0810472,60.9150574 L41.077384,60.9027643 L41.077384,60.0783512 L40.8387853,60.0783512 C40.829188,60.0783512 40.8212496,60.072879 40.8170236,60.065117 L40.8137258,60.0521544 L40.8137258,60.0131212 C40.8137258,60.0042143 40.8184652,59.9960059 40.8258902,59.9915234 L40.8387853,59.9879723 L41.4191533,59.9879723 Z M74,55 L70,55 L71.9988833,59 L72.0219617,59 L74,55 Z M21.5570777,33.6256136 C25.6360421,33.6256136 29.4167683,35.7414059 31.5009553,39.1735146 L31.6661981,39.4546625 L27.4703266,41.7589325 C26.2744006,39.6550679 24.004114,38.3486338 21.5570777,38.3486338 C17.8245409,38.3486338 14.7880725,41.3334966 14.7880725,45.000262 C14.7880725,48.6672893 17.8245409,51.6516282 21.5570777,51.6516282 C23.9647918,51.6516282 26.176674,50.3995751 27.3962583,48.3694778 L27.5276436,48.1407337 L31.7608378,50.3755823 C29.7406133,54.0756176 25.8286609,56.3754342 21.5570777,56.3754342 C15.1724963,56.3754342 9.97797597,51.2736084 9.97797597,45.000262 C9.97797597,38.7271775 15.1724963,33.6256136 21.5570777,33.6256136 Z M57.8832434,25 C60.3443584,25 62.1626598,25.775827 63.8361112,27.3213774 C64.0510499,27.5261849 64.0510499,27.8191545 63.8568041,28.0212493 L61.9390435,30.0469445 C61.7714981,30.2212343 61.4931457,30.2212343 61.3269354,30.0469445 C60.4177847,29.2202547 59.2109238,28.7774094 58.006733,28.7774094 C55.2238775,28.7774094 53.1812922,31.1170974 53.1812922,33.9220104 C53.1812922,36.6903022 55.2452379,38.9913345 58.0320985,38.9913345 C59.1828884,38.9913345 60.4398126,38.5722252 61.3269354,37.7930073 C61.4931457,37.6472007 61.8168888,37.6472007 61.9630739,37.8174214 L63.8794995,39.888554 C64.0510499,40.0750509 64.0256845,40.3944691 63.8568041,40.5626554 C62.1820176,42.2167131 60.0720137,43 57.8832434,43 C52.9590109,43 49,39.0177831 49,34.0230578 C49,29.0195162 52.9590109,25 57.8832434,25 Z M77.9874278,25 C82.9864084,25 87,29.0195162 87,34.0230578 C87,39.0232085 82.9864084,43 77.9874278,43 C72.987088,43 69,39.0232085 69,34.0230578 C69,29.0195162 72.987088,25 77.9874278,25 Z M159.676454,25 C159.873205,25 159.998349,25.1235315 160.067279,25.2289171 L160.067279,25.2289171 L163.504397,30.5023846 L166.924785,25.2289171 C167.004422,25.1291148 167.097444,25 167.319625,25 L167.319625,25 L170.52787,25 C170.921372,25 171.121469,25.4110736 170.921372,25.7516576 L170.921372,25.7516576 L165.396954,34.3074328 L165.396954,42.5065721 C165.396954,42.7717809 165.17678,43 164.925153,43 L164.925153,43 L161.995974,43 C161.720924,43 161.52685,42.7717809 161.52685,42.5065721 L161.52685,42.5065721 L161.52685,34.3290683 L156.077385,25.7516576 C155.879964,25.4110736 156.077385,25 156.475571,25 L156.475571,25 Z M143.411108,25 C148.132075,25 152,29.0402466 152,33.9759218 C152,38.9611492 148.132075,43 143.411108,43 L143.411108,43 L137.437816,43 C137.195987,43 137,42.7717809 137,42.5093637 L137,42.5093637 L137,25.4857508 C137,25.2289171 137.195987,25 137.437816,25 L137.437816,25 Z M129.535007,25 C129.795905,25 130,25.2289171 130,25.4836571 L130,25.4836571 L130,28.2948703 C130,28.5517041 129.795905,28.7771316 129.535007,28.7771316 L129.535007,28.7771316 L122.797886,28.7771316 L122.797886,31.9715017 L128.350066,31.9715017 C128.587186,31.9715017 128.801189,32.2032104 128.801189,32.4516692 L128.801189,32.4516692 L128.801189,35.2642782 C128.801189,35.5490287 128.587186,35.7472374 128.350066,35.7472374 L128.350066,35.7472374 L122.797886,35.7472374 L122.797886,39.2221705 L129.535007,39.2221705 C129.795905,39.2221705 130,39.4552751 130,39.7086193 L130,39.7086193 L130,42.5093637 C130,42.7717809 129.795905,43 129.535007,43 L129.535007,43 L119.464993,43 C119.190885,43 119,42.7717809 119,42.5093637 L119,42.5093637 L119,25.4836571 C119,25.2289171 119.190885,25 119.464993,25 L119.464993,25 Z M95.7071539,25 C95.8335441,25 96.0569472,25.0942657 96.1327813,25.2502449 L96.1327813,25.2502449 L101.976105,36.0528219 L102.023245,36.0528219 L107.867253,25.2502449 C107.942403,25.0942657 108.161707,25 108.294929,25 L108.294929,25 L108.694596,25 C108.899553,25 109.125688,25.1688644 109.148917,25.3987642 L109.148917,25.3987642 L111.992354,42.1916208 C112.045642,42.5191772 111.813358,42.7429734 111.514804,42.7429734 L111.514804,42.7429734 L108.544294,42.7429734 C108.315425,42.7429734 108.092705,42.5374878 108.070843,42.3469219 L108.070843,42.3469219 L106.933332,34.6191696 L106.885509,34.6191696 L102.653147,42.7192374 C102.582778,42.8650441 102.350493,43 102.222054,43 L102.222054,43 L101.777297,43 C101.620163,43 101.423405,42.8650441 101.35167,42.7192374 L101.35167,42.7192374 L97.0851481,34.6191696 L97.0386912,34.6191696 L95.930557,42.3469219 C95.9080118,42.5374878 95.7071539,42.7429734 95.4495913,42.7429734 L95.4495913,42.7429734 L92.4777148,42.7429734 C92.1818936,42.7429734 91.9591736,42.5191772 92.0063137,42.1916208 L92.0063137,42.1916208 L94.8524832,25.3987642 C94.8702462,25.1688644 95.1018476,25 95.3013391,25 L95.3013391,25 Z M77.9918301,29 C75.2542211,29 73,31.275628 73,34.0264766 C73,36.7488119 75.2542211,39 77.9918301,39 C80.7505447,39 83,36.7488119 83,34.0264766 C83,31.275628 80.7505447,29 77.9918301,29 Z M143.306781,29 L141,29 L141,39 L143.306781,39 C146.023599,39 148,36.7977227 148,33.9892833 C148,31.2009377 146.023599,29 143.306781,29 L143.306781,29 Z" id="Combined-Shape" fill="#222223"></path>
    </g>
</svg>