<?xml version="1.0" encoding="UTF-8"?>
<svg width="115px" height="70px" viewBox="0 0 115 70" version="1.1" xmlns="http://www.w3.org/2000/svg" xmlns:xlink="http://www.w3.org/1999/xlink">
    <!-- Generator: Sketch 64 (93537) - https://sketch.com -->
    <title>5inc</title>
    <desc>Created with Sketch.</desc>
    <g id="5inc" stroke="none" stroke-width="1" fill="none" fill-rule="evenodd">
        <path d="M45.4978774,38.9912525 L45.4978774,44.7513373 C45.7675847,44.5355323 46.037292,44.2144678 46.2503883,43.9444244 C49.2613523,40.5071732 52.7031114,39.2748556 57.2179465,39.2748556 C63.5583683,39.2748556 68.7219276,41.8514151 68.7219276,48.8865647 L68.7219276,59.9231839 L72.0462398,59.9235903 C71.3419242,58.3198911 70.9319725,56.4906776 70.890271,54.4257783 L70.8867425,54.1041723 C70.8867425,43.7423169 80.0289441,39.178927 89.3264805,39.178927 C89.3264805,39.178927 103.908162,38.2343494 105.280171,51.3414552 L94.0233449,52.5774499 C93.8841189,49.4573561 93.2439094,46.1582293 89.433719,46.1582293 C84.5953273,46.1582293 84.2209129,50.1847498 84.2209129,54.0520022 L84.2209129,54.1326705 L84.2225948,54.5547655 C84.2540458,58.2853679 84.7712688,62.0243749 89.433719,62.0243749 C91.9754568,62.0243749 94.2154998,60.5721156 94.2154998,57.4961481 L94.5837009,57.4991358 L105.426761,57.5060305 L105.335401,58.4719818 C103.48335,67.5753196 95.2584293,69 89.3264805,69 C82.0648576,69 74.8979894,66.2167414 72.1074721,60.060814 L72.107306,68.2683316 L51.7340523,68.2683316 L51.7340523,59.9264014 L55.6008536,59.9264014 L55.6008536,51.1933105 C55.6008536,48.561823 53.7227982,47.3825949 51.3055584,47.3825949 C48.2391341,47.3825949 45.9302835,49.6369408 45.9302835,52.6942925 L45.9302835,59.9264014 L49.909156,59.9264014 L49.909156,68.2683316 L29.0464251,68.2683316 L29.0464251,59.9264014 L32.8133518,59.9264014 L32.8133518,47.3426055 L29.0464251,47.3426055 L29.0464251,38.9912525 L45.4978774,38.9912525 Z M109.251357,58.9207136 C111.87456,58.9207136 114,61.0472772 114,63.6656647 C114,66.2852013 111.87456,68.4078579 109.251357,68.4078579 C106.629766,68.4078579 104.504325,66.2852013 104.504325,63.6656647 C104.504325,61.0472772 106.629766,58.9207136 109.251357,58.9207136 Z M27.6651189,30 L27.6651189,38.9737169 L22.6649489,38.9737169 L22.6649489,59.923115 L27.6651189,59.923115 L27.6651189,68.2684925 L1,68.2684925 L1,59.9300097 L6.0006303,59.9300097 L6.0006303,38.9737169 L1,38.9737169 L1,30 L27.6651189,30 Z" id="Combined-Shape" fill="#FFFFFF"></path>
    </g>
</svg>