<?xml version="1.0" encoding="UTF-8"?>
<svg width="115px" height="70px" viewBox="0 0 115 70" version="1.1" xmlns="http://www.w3.org/2000/svg" xmlns:xlink="http://www.w3.org/1999/xlink">
    <!-- Generator: Sketch 64 (93537) - https://sketch.com -->
    <title>6forbes</title>
    <desc>Created with Sketch.</desc>
    <g id="6forbes" stroke="none" stroke-width="1" fill="none" fill-rule="evenodd">
        <path d="M106.605523,48.0435383 C108.656805,47.8560765 111.812623,48.2934873 113.485207,48.9808472 L113.485207,48.9808472 L113.800789,49.1058217 L113.863905,50.7929778 C113.895464,51.7302867 113.927022,52.980032 113.927022,53.573661 L113.927022,53.573661 L113.927022,54.6671881 L113.516765,54.8234062 C112.885602,55.0733553 112.822485,55.0421116 112.475345,54.1048027 C111.465483,51.4803377 110.29783,50.2305925 108.499014,49.8556689 C107.394477,49.6057198 106.447732,49.8556689 105.78501,50.5742724 C105.248521,51.1366578 105.059172,51.6365559 104.996055,52.4488903 C104.932939,53.3237119 105.09073,53.82361 105.658777,54.417239 C106.321499,55.1358425 107.457594,55.7919588 109.666667,56.6980241 C112.380671,57.8227948 113.706114,58.7601037 114.400394,60.1660671 C114.842209,61.0721324 114.968442,61.7907359 115,63.227943 C114.968442,64.2902264 114.936884,64.4776882 114.684418,65.1962917 C113.895464,67.4770768 112.128205,68.9767711 109.382643,69.6953746 C108.467456,69.9453236 108.309665,69.9453236 106.47929,69.9765673 C105.406312,70.0078109 104.39645,70.0078109 104.207101,69.9765673 C102.723866,69.8203491 100.325444,69.320451 99.5364892,68.9767711 L99.5364892,68.9767711 L99.1577909,68.8205529 L99.0946746,66.9146914 C99.0631164,65.8836516 99.0315582,64.4776882 99.0315582,63.821572 L99.0315582,63.821572 L99,62.6030703 L99.2209073,62.4780958 C99.34714,62.4156086 99.5996055,62.3531213 99.7889546,62.3531213 L99.7889546,62.3531213 L100.136095,62.3218777 L100.420118,63.0404812 C101.556213,65.7899207 102.881657,67.289615 104.617357,67.7270258 C105.280079,67.883244 106.510848,67.883244 107.015779,67.7270258 C108.372781,67.2583714 109.130178,66.2273316 109.130178,64.8213682 C109.161736,63.1654557 108.21499,62.3531213 104.74359,61.0096452 C102.566075,60.1660671 101.808679,59.7286563 100.925049,58.822591 C99.9467456,57.8227948 99.504931,56.7292677 99.4102564,55.1670862 C99.2840237,53.2924683 99.8836292,51.6990431 101.209073,50.355567 C102.534517,48.9808472 104.270217,48.2622437 106.605523,48.0435383 Z M26.3813376,49.1140266 C29.4040464,47.548948 33.6480516,47.6428527 36.4570335,49.3331376 C38.9912237,50.8669146 40.5178443,53.5588497 40.945298,57.2524351 C41.0674277,58.3792917 40.9758305,60.7582111 40.7621036,61.7598614 C39.9377284,65.7664625 37.4951355,68.5836039 33.9228433,69.6478573 C33.5564544,69.741762 32.9458061,69.8669683 32.6099496,69.9295715 C31.8771717,70.0234762 29.6483057,70.0234762 28.9460602,69.9295715 C26.9614534,69.6478573 25.2516383,68.8027149 23.9387446,67.4567473 C22.8395778,66.3611923 22.1373323,65.1404311 21.6182813,63.4501462 C20.7939062,60.8521158 20.7939062,57.4715461 21.6182813,54.9048173 C22.412124,52.4006916 24.1830039,50.2408831 26.3813376,49.1140266 Z M85.4936402,48.9995658 C87.9767431,47.7490748 91.3985801,47.6552879 93.6091473,48.8119922 C96.0922502,50.1250078 97.5760556,52.6885144 97.9394365,56.3462008 C98,56.8776595 98,57.4716427 98,57.6904787 L98,57.6904787 L97.9697183,58.0968883 L92.0042149,58.1281505 L86.0387116,58.1594128 L86.0689933,58.8784452 C86.1295568,60.5666081 86.4929377,62.0671974 87.1288543,63.3489507 C87.40139,63.9429339 87.643644,64.2555567 88.2189971,64.84954 C89.521112,66.1938178 90.7929452,66.7252765 92.821822,66.7252765 C94.3056274,66.7252765 95.3654884,66.4439161 96.4556311,65.6936214 C96.7584485,65.4747855 97.0915477,65.3184741 97.1521112,65.3184741 C97.3035199,65.3184741 97.6971826,65.8499328 97.6971826,66.0687687 C97.6971826,66.4439161 96.5464763,67.6318826 95.4260519,68.4134395 C94.4873178,69.0699473 93.0337942,69.6639305 91.761961,69.8827665 C90.8837904,70.0390778 88.8851954,70.0390778 88.0070249,69.8827665 C84.0098348,69.1324718 81.163351,66.2250801 80.224617,61.910886 C80.10349,61.348165 80.0429265,60.7229195 80.0126448,59.534953 C79.9520813,57.6279541 80.10349,56.4712499 80.5879979,55.0019229 C81.4964502,52.188318 83.1316643,50.1875323 85.4936402,48.9995658 Z M65.0730431,40 C65.1682149,40 65.1682149,41.0553037 65.136491,44.779905 C65.104767,47.4181643 65.104767,49.5598101 65.136491,49.5598101 C65.1682149,49.5598101 65.4854542,49.4046184 65.8344174,49.2494266 C66.9447548,48.7528131 67.9281965,48.5665831 69.3874972,48.5045064 C70.339215,48.473468 70.78335,48.5045064 71.2909328,48.5976214 C74.5267733,49.2494266 76.9377918,51.8566476 77.7626139,55.6122872 C77.9846814,56.6055143 78.0798532,59.0575435 77.9212335,60.2680389 C77.7943378,61.2923043 77.4453746,62.7200681 77.0646875,63.6201801 C75.6688347,67.0654363 72.6867856,69.3001971 68.7212947,69.8899257 C67.8013008,70.0140791 64.9461474,70.0451174 63.7089143,69.920964 C62.8840921,69.827849 60.3144541,69.3933122 59.4261841,69.2070821 L59.4261841,69.2070821 L58.8234295,69.0829287 L58.8868774,65.8549409 C59.0137731,58.0953548 59.0137731,53.8431016 58.9503252,49.7150018 C58.8868774,45.680017 58.8551534,45.2454802 58.6965338,44.6557517 C58.4744663,43.9108314 58.188951,43.3831795 57.8399878,43.1348728 C57.7130921,43.0417578 57.3324049,42.886566 57.0151657,42.8244893 C55.9682761,42.6072209 56.0317239,42.6382593 56,42.1726841 C56,41.9243774 56.0317239,41.7381473 56.0951718,41.6760706 C56.1903436,41.6139939 64.7875278,40 65.0730431,40 Z M55.7599278,48 C56.8646209,48 58,48.3662791 58,48.6715116 C58,48.9156977 56.0361011,54.1351744 55.9133574,54.1656977 C55.8519856,54.1656977 55.4837545,54.0436047 55.0541516,53.8299419 C54.1949458,53.4331395 53.366426,53.2194767 52.5685921,53.2194767 C51.5559567,53.2194767 50.4512635,53.5857558 50.0216606,54.0436047 C49.8375451,54.2572674 49.8375451,54.2572674 49.7761733,57.2485465 C49.7148014,60.1787791 49.8375451,63.8110465 49.9909747,65.2456395 C50.1444043,66.497093 50.4819495,67.1075581 51.1570397,67.3822674 C51.4025271,67.5043605 52.8447653,67.6875 53.3050542,67.6875 C53.328921,67.6875 53.3342247,67.8721469 53.3354033,68.1121878 L53.3357401,68.3284884 L53.3050542,68.9694767 L47.2599278,69 C43.9458484,69 41.1841155,68.9694767 41.1227437,68.9389535 C41.0306859,68.877907 41,68.6947674 41.0306859,68.2979651 L41.0306859,68.2979651 L41.0613718,67.7485465 L41.3375451,67.6875 C41.4909747,67.6569767 41.8285199,67.5959302 42.0740072,67.5348837 C42.8718412,67.3822674 43.33213,66.9549419 43.5776173,66.130814 C43.7924188,65.4593023 43.8844765,63.2616279 43.8844765,58.8968023 L43.8843361,58.5466737 C43.8801578,53.4985422 43.7801444,52.257655 43.2400722,51.5712209 C42.933213,51.1744186 42.7184116,51.0523256 42.0126354,50.9302326 C41.6444043,50.869186 41.2761733,50.8081395 41.1841155,50.7776163 C41.0306859,50.747093 41,50.6860465 41,50.2892442 C41,49.8924419 41.0306859,49.8313953 41.1841155,49.7703488 C41.4296029,49.6787791 49.5306859,48.0610465 49.7761733,48.0610465 L49.7761733,48.0610465 L49.9909747,48.0610465 L49.9602888,49.2514535 C49.9296029,49.9229651 49.898917,50.869186 49.868231,51.3880814 L49.868231,51.3880814 L49.8375451,52.3343023 L50.1444043,51.815407 C51.0649819,50.1366279 52.1083032,49.0988372 53.5198556,48.4578488 C54.2870036,48.0915698 54.8086643,48 55.7599278,48 Z M12.173913,40 L23.7786561,40.0309995 L23.8418972,40.3719936 C23.8418972,40.5269909 23.9051383,42.3869588 23.9367589,44.4949225 L23.9367589,44.4949225 L24,48.3078568 L23.3992095,48.4938536 C22.513834,48.7728487 22.513834,48.7728487 22.1027668,47.7188669 C21.0909091,45.1149118 19.9525692,43.6269375 18.4031621,42.8829503 C17.3280632,42.3559594 16.8221344,42.2939604 13.7865613,42.2939604 L13.7865613,42.2939604 L11.1304348,42.2939604 L11.1304348,42.7899519 C11.0355731,43.595938 10.9090909,48.8348477 10.9090909,51.2838055 L10.9090909,53.7327632 L11.6996047,53.7327632 C12.1106719,53.7327632 12.9644269,53.7017638 13.5652174,53.6707643 C14.4505929,53.6087654 14.7351779,53.5777659 15.1146245,53.3917691 C16.0632411,52.9577766 16.6956522,52.0277926 17.0750988,50.5088188 L17.0750988,50.5088188 L17.2648221,49.7338322 L18.6561265,49.6718332 L18.6561265,59.5916622 L17.2648221,59.5296633 L17.0750988,58.7546766 C16.7272727,57.2667023 16.0316206,56.2127205 15.1462451,55.8407269 C14.7351779,55.6547301 13.7549407,55.5617317 11.826087,55.4997328 L11.826087,55.4997328 L10.9090909,55.4687333 L10.9090909,57.3287012 C10.9090909,59.3436665 11.0039526,62.1026189 11.1620553,63.5905933 C11.3517787,65.6675575 11.8893281,66.8145377 12.8695652,67.2175307 C13.0592885,67.2795297 13.6284585,67.4035275 14.1660079,67.4965259 C14.7035573,67.5895243 15.1778656,67.6825227 15.2727273,67.7135222 C15.4624506,67.8065206 15.4624506,68.8915019 15.2727273,68.9535008 C15.1146245,69.0154997 0.28458498,69.0154997 0.126482213,68.9535008 C0.0632411067,68.9225013 0.0316205534,68.7055051 0.0316205534,68.3335115 C0.0316205534,67.6515232 -0.0316205534,67.6825227 1.32806324,67.434527 C2.3715415,67.2485302 2.75098814,67.0625334 3.19367589,66.4735436 C4.05002268,65.3941523 4.25558602,63.2997598 4.26814503,55.0012609 L4.26820628,53.2978625 C4.25718383,45.5515759 4.07958732,43.8307984 3.19367589,42.5729556 C2.7826087,42.0149653 2.08695652,41.6739711 0.948616601,41.5499733 L0.948616601,41.5499733 L0.0632411067,41.4569749 L0.0316205534,40.7749866 L0,40.0929984 L0.28458498,40.0309995 C0.392914654,40.0097591 2.93585344,40.0030723 6.58090919,40.0009672 L12.173913,40 Z M30.7474725,49.6461533 C29.007125,49.6461533 27.9079582,51.492946 27.4805044,55.1552298 C27.2973099,56.8142131 27.2667775,60.8208142 27.4805044,62.2919881 C28.0911527,66.8307159 29.6788381,69.0218259 31.9077041,68.3331913 C32.48782,68.1453819 33.1900654,67.4567473 33.5869868,66.7368112 C34.3502971,65.2030342 34.716686,62.9493211 34.716686,59.3496404 C34.716686,54.8422141 34.044973,51.9624696 32.5794172,50.4599941 C31.968769,49.8339627 31.5413152,49.6461533 30.7474725,49.6461533 Z M67.0082027,50.9254972 C66.5006198,50.9254972 66.0564848,50.9875739 65.6757977,51.080689 L65.6757977,51.080689 L65.104767,51.2358807 L65.0730431,54.2466001 C65.0413192,58.0953548 65.1682149,67.7793183 65.2633867,68.0586634 C65.3585585,68.2448934 65.4220063,68.2759318 65.7392456,68.3380085 C66.5640677,68.4000852 66.6909634,68.4000852 67.1350984,68.3069701 C67.737853,68.1828167 68.2137119,67.93451 68.7212947,67.4999732 C70.0219757,66.3825928 70.9736935,64.0547169 71.3543806,61.1681509 C71.5130003,59.9886938 71.4812764,57.3193962 71.3226567,56.3261692 C70.8467978,53.6879099 69.8633561,51.9497626 68.4040554,51.2358807 C67.8013008,50.9565356 67.737853,50.9254972 67.0082027,50.9254972 Z M89.4605485,49.6560736 C87.9464614,49.6560736 86.7351917,51.6568593 86.220402,55.0019229 C86.1598386,55.4083325 86.0992751,55.9085289 86.0992751,56.0961026 L86.0992751,56.0961026 L86.0992751,56.4399876 L87.6133622,56.4087253 C88.4309693,56.377463 89.7633659,56.3462008 90.5506913,56.3462008 L90.5506913,56.3462008 L91.9436514,56.2836762 L91.8830879,55.2520211 C91.7013975,51.625597 90.8535087,49.6560736 89.4605485,49.6560736 Z" id="Combined-Shape" fill="#222223"></path>
    </g>
</svg>