<?xml version="1.0" encoding="UTF-8"?>
<svg width="177px" height="70px" viewBox="0 0 177 70" version="1.1" xmlns="http://www.w3.org/2000/svg" xmlns:xlink="http://www.w3.org/1999/xlink">
    <!-- Generator: Sketch 64 (93537) - https://sketch.com -->
    <title>7entrepreneur</title>
    <desc>Created with Sketch.</desc>
    <g id="7entrepreneur" stroke="none" stroke-width="1" fill="none" fill-rule="evenodd">
        <path d="M81.7109589,41.527933 C85.7843836,41.527933 87.3846575,44.9986034 87.3846575,50.5223464 C87.3846575,53.6019553 87.3361644,60.396648 80.6926027,60.4455307 C79.5772603,60.4455307 78.510411,60.2011173 77.7830137,59.7611732 L77.7830137,59.7611732 L77.7830137,66.8002793 L79.6257534,67.1424581 L79.480274,69 L71.6728767,69 L71.769863,67.1424581 L73.5156164,66.8002793 L73.5156164,44.5097765 L71.4789041,44.2653631 L71.4789041,42.3589385 L76.8131507,41.6256983 L77.249589,43.1899441 L77.249589,43.7276536 C77.7345205,43.0921788 79.0438356,41.527933 81.7109589,41.527933 Z M40.3947945,38.2527933 L40.3947945,42.0167598 L43.5953425,42.0167598 L43.3528767,44.3142458 L40.3947945,44.6564246 L40.3947945,56.1438547 C40.3947945,57.0726257 40.9282192,57.7081006 41.8980822,57.7081006 L43.6438356,57.7081006 L43.8378082,59.7611732 C43.110411,60.0544693 41.849589,60.396648 40.2008219,60.396648 C38.0186301,60.396648 36.030411,59.4189944 36.030411,56.1927374 L36.030411,44.6564246 L33.9452055,44.3142458 L34.0421918,42.0167598 L36.369863,41.9189944 L37.3882192,38.3994413 L40.3947945,38.2527933 Z M152.850411,41.6256983 L153.286849,43.1899441 L153.286849,54.5796089 C153.286849,56.5837989 154.111233,57.6103352 155.663014,57.6103352 C156.099452,57.6103352 156.68137,57.5614525 157.214795,57.3659218 C157.505753,57.0726257 157.796712,56.7304469 158.039178,56.3393855 L158.039178,44.2653631 L155.953973,44.0698324 L155.953973,42.3589385 L161.91863,41.674581 L162.355068,43.2388268 L162.355068,57.9036313 L164.197808,58.2458101 L163.955342,60.1522346 L158.863562,60.1522346 L158.427123,58.5879888 C157.214795,59.7122905 156.050959,60.396648 154.256712,60.396648 C151.44411,60.396648 148.970959,58.9790503 148.970959,55.1173184 L148.970959,44.2164804 L146.934247,44.0209497 L146.934247,42.3100559 L152.850411,41.6256983 Z M64.7383562,41.527933 C69.4906849,41.527933 71.2364384,45.9273743 71.2364384,50.8645251 L70.8,52.0377095 L61.9742466,52.1354749 C61.9742466,55.2639665 63.3320548,57.7081006 66.0476712,57.7081006 C67.4539726,57.7081006 68.5208219,57.4148045 69.830137,56.7793296 L70.5575342,58.4902235 C69.2482192,59.5656425 67.26,60.396648 64.8353425,60.396648 C60.0830137,60.396648 57.3673973,56.2905028 57.3673973,50.9622905 C57.3673973,46.4650838 59.3556164,41.527933 64.7383562,41.527933 Z M108.382192,41.527933 C113.134521,41.527933 114.880274,45.9273743 114.880274,50.8645251 L114.443836,52.0377095 L105.618082,52.1354749 C105.618082,55.2639665 106.97589,57.7081006 109.691507,57.7081006 C111.097808,57.7081006 112.164658,57.4148045 113.473973,56.7793296 L114.20137,58.4902235 C112.892055,59.5656425 110.903836,60.396648 108.479178,60.396648 C103.726849,60.396648 101.011233,56.2905028 101.011233,50.9622905 C101.011233,46.4650838 102.999452,41.527933 108.382192,41.527933 Z M140.096712,41.527933 C144.849041,41.527933 146.594795,45.9273743 146.594795,50.8645251 L146.158356,52.0377095 L137.332603,52.1354749 C137.332603,55.2639665 138.690411,57.7081006 141.406027,57.7081006 C142.812329,57.7081006 143.879178,57.4148045 145.188493,56.7793296 L145.91589,58.4902235 C144.606575,59.5656425 142.618356,60.396648 140.193699,60.396648 C135.44137,60.396648 132.725753,56.2905028 132.725753,50.9622905 C132.725753,46.4650838 134.713973,41.527933 140.096712,41.527933 Z M56.1550685,41.8212291 L56.9309589,42.5055866 L56.3975342,47.4427374 L53.4879452,47.3449721 L53.1969863,44.7053073 C52.5180822,44.8030726 51.8876712,44.9986034 51.3057534,45.3896648 L51.3057534,57.8547486 L53.1484932,58.2458101 L53.0030137,60.1522346 L45.1471233,60.1522346 L45.2441096,58.2458101 L46.8928767,57.8547486 L46.8928767,44.7053073 L44.9531507,44.5097765 L44.9531507,42.5544693 L50.2873973,41.8212291 L50.6268493,43.0921788 L50.6268493,43.5321229 C52.0331507,42.5055866 53.9243836,41.8212291 56.1550685,41.8212291 Z M27.4956164,41.6256983 C30.3082192,41.6256983 32.3449315,43.3365922 32.3449315,46.7094972 L32.3449315,57.9036313 L34.1876712,58.2458101 L34.0906849,60.1522346 L28.0290411,60.1522346 L28.0290411,47.5893855 C28.0290411,45.7807263 27.3986301,44.7541899 25.749863,44.7541899 C25.2164384,44.7541899 24.8284932,44.8519553 24.3920548,44.9986034 C24.149589,45.2430168 23.8586301,45.5363128 23.6646575,45.8296089 L23.6646575,57.8547486 L25.5073973,58.1969274 L25.3619178,60.103352 L17.5060274,60.1522346 L17.6030137,58.2458101 L19.3487671,57.9036313 L19.3487671,44.7541899 L17.3120548,44.5586592 L17.3120548,42.603352 L22.4523288,41.8701117 L22.840274,42.9944134 L22.840274,43.7276536 C24.0526027,42.4078212 25.5558904,41.6256983 27.4956164,41.6256983 Z M99.8473973,41.8212291 L100.623288,42.5055866 L100.089863,47.4427374 L97.180274,47.3449721 L96.8893151,44.7053073 C96.210411,44.8030726 95.58,44.9986034 94.9980822,45.3896648 L94.9980822,57.8547486 L96.8408219,58.2458101 L96.6953425,60.1522346 L88.8394521,60.1522346 L88.9364384,58.2458101 L90.5852055,57.8547486 L90.5852055,44.7053073 L88.6454795,44.5097765 L88.6454795,42.5544693 L93.979726,41.8212291 L94.3191781,43.0921788 L94.3191781,43.5321229 C95.7254795,42.5055866 97.6167123,41.8212291 99.8473973,41.8212291 Z M125.500274,41.6256983 C128.312877,41.6256983 130.349589,43.3365922 130.349589,46.7094972 L130.349589,57.9036313 L132.192329,58.2458101 L132.095342,60.1522346 L126.033699,60.1522346 L126.033699,47.5893855 C126.033699,45.7807263 125.403288,44.7541899 123.754521,44.7541899 C123.221096,44.7541899 122.833151,44.8519553 122.396712,44.9986034 C122.154247,45.2430168 121.863288,45.5363128 121.669315,45.8296089 L121.669315,57.8547486 L123.512055,58.1969274 L123.366575,60.103352 L115.510685,60.1522346 L115.607671,58.2458101 L117.353425,57.9036313 L117.353425,44.7541899 L115.316712,44.5586592 L115.316712,42.603352 L120.456986,41.8701117 L120.844932,42.9944134 L120.844932,43.7276536 C122.05726,42.4078212 123.560548,41.6256983 125.500274,41.6256983 Z M176.22411,41.8212291 L177,42.5055866 L176.466575,47.4427374 L173.556986,47.3449721 L173.266027,44.7053073 C172.587123,44.8030726 171.956712,44.9986034 171.374795,45.3896648 L171.374795,57.8547486 L173.217534,58.2458101 L173.072055,60.1522346 L165.216164,60.1522346 L165.313151,58.2458101 L166.961918,57.8547486 L166.961918,44.7053073 L165.022192,44.5097765 L165.022192,42.5544693 L170.356438,41.8212291 L170.69589,43.0921788 L170.69589,43.5321229 C172.102192,42.5055866 173.993425,41.8212291 176.22411,41.8212291 Z M15.760274,34 L15.3723288,40.3058659 L12.2687671,40.2081006 L12.0747945,36.2486034 L7.22547945,36.2486034 L7.22547945,45.6340782 L9.35917808,45.6340782 L9.84410959,43.4832402 L11.9778082,43.5321229 L11.9778082,49.9846369 L9.84410959,49.9846369 L9.31068493,47.7849162 L7.1769863,47.7849162 L7.1769863,57.7081006 L12.0747945,57.7081006 L12.5112329,53.4064246 L15.8087671,53.5041899 L16.0512329,60.0544693 L0.145479452,60.0544693 L0.242465753,57.7569832 L2.47315068,57.4148045 L2.47315068,36.5418994 L-3.51718654e-13,36.2486034 L0.145479452,34 L15.760274,34 Z M80.2561644,44.4120112 C79.6742466,44.4120112 79.1893151,44.4608939 78.6558904,44.6564246 C78.3649315,44.9986034 78.0739726,45.3407821 77.8315068,45.7318436 L77.8315068,45.7318436 L77.8315068,57.2681564 C78.4134247,57.6103352 79.1893151,57.7569832 80.1106849,57.7569832 C80.9835616,57.7569832 81.6624658,57.6103352 82.2928767,57.3170391 C82.4868493,56.8282123 83.1172603,55.6550279 83.1172603,51.353352 C83.1172603,46.9050279 82.6808219,44.4120112 80.2561644,44.4120112 Z M64.6413699,44.1187151 C64.1079452,44.1187151 63.7684932,44.2164804 63.1380822,44.5586592 C62.2167123,46.0251397 61.8772603,48.7625698 61.8772603,50.0335196 L67.3084932,49.7891061 C67.2115068,47.5893855 66.7750685,44.1187151 64.6413699,44.1187151 Z M139.999726,44.1187151 C139.466301,44.1187151 139.126849,44.2164804 138.496438,44.5586592 C137.575068,46.0251397 137.235616,48.7625698 137.235616,50.0335196 L142.666849,49.7891061 C142.569863,47.5893855 142.133425,44.1187151 139.999726,44.1187151 Z M108.333699,44.1187151 C107.800274,44.1187151 107.460822,44.2164804 106.830411,44.5586592 C105.909041,46.0251397 105.521096,48.7625698 105.569589,50.0335196 L111.000822,49.7891061 C110.903836,47.5893855 110.467397,44.1187151 108.333699,44.1187151 Z" id="Combined-Shape" fill="#FFFFFF" fill-rule="nonzero"></path>
    </g>
</svg>