<?xml version="1.0" encoding="UTF-8"?>
<svg width="270px" height="102px" viewBox="0 0 270 102" version="1.1" xmlns="http://www.w3.org/2000/svg" xmlns:xlink="http://www.w3.org/1999/xlink">
    <!-- Generator: Sketch 64 (93537) - https://sketch.com -->
    <title>antidote</title>
    <desc>Created with Sketch.</desc>
    <defs>
        <linearGradient x1="131.890676%" y1="49.9704955%" x2="631.286223%" y2="49.9704955%" id="linearGradient-1">
            <stop stop-color="#1F1F20" offset="0%"></stop>
            <stop stop-color="#29D5CB" offset="100%"></stop>
        </linearGradient>
    </defs>
    <g id="antidote" stroke="none" stroke-width="1" fill="none" fill-rule="evenodd">
        <g id="Antidote_logo-2" transform="translate(4.000000, 16.000000)" fill="url(#linearGradient-1)" fill-rule="nonzero">
            <g id="Antidote_logo">
                <g id="text" transform="translate(0.538295, 0.447964)">
                    <path d="M55.4406949,6.70525194 C63.907512,-1.77354552 77.635092,-1.77354552 86.1019091,6.70525194 L86.1019091,6.70525194 L86.3779676,6.98666096 C94.5676974,15.4851618 94.4751003,29.006879 86.0487701,37.4275892 L86.0487701,37.4275892 L73.9507867,49.542691 L73.9507867,49.542691 L73.7028046,49.791024 L61.6933862,61.8174354 C59.8158075,63.6976709 57.6902467,65.1521926 55.4052689,66.1987387 C47.3812769,69.9237334 37.5505583,68.4692117 30.9436069,61.8529116 L30.9436069,61.8529116 L11.1758916,42.0572255 L13.3723044,42.0572255 C13.7797036,42.0572255 14.1693897,41.8443686 14.3996588,41.4896072 L14.3996588,41.4896072 L20.280377,32.1239063 L25.3108708,41.3122265 C25.5765659,40.2302042 25.9308261,39.16592 26.3559382,38.137112 L26.3559382,38.137112 L21.4140094,29.1261724 C21.2191663,28.7359349 20.8117672,28.50534 20.386655,28.4876019 C19.9615429,28.4698638 19.5541437,28.6827207 19.3238746,29.0552201 L19.3238746,29.0552201 L12.6992102,39.5916337 L8.74920975,39.5916337 L6.60593596,37.4453273 C-1.86088114,28.9665298 -1.86088114,15.2195255 6.60593596,6.74072808 L6.60593596,6.74072808 L6.88695368,6.46427894 C15.3738228,-1.73704549 28.893375,-1.64489578 37.2671502,6.74072808 L37.2671502,6.74072808 L46.3362095,15.8226199 Z M43.2364334,23.0242763 L33.1223067,33.1527143 C32.8211856,33.4365234 32.5377775,33.7380706 32.2720824,34.0573559 C30.3590777,36.2391385 29.0128892,38.8111586 28.2689429,41.5605595 L28.2689429,41.5605595 L31.9178222,48.2123357 L42.7758952,29.4986719 C43.0061643,29.1261724 43.4135635,28.8778394 43.8563886,28.8955775 C44.2992138,28.8955775 44.7066129,29.1439105 44.919169,29.534148 L44.919169,29.534148 L49.9142368,38.7756825 L58.2216369,38.7756825 C58.8947311,38.7756825 59.4438343,39.3255627 59.4438343,39.9996093 C59.4438343,40.673656 58.8947311,41.2235362 58.2216369,41.2235362 L58.2216369,41.2235362 L49.1880036,41.2235362 C48.7274654,41.2235362 48.3200663,40.9752032 48.1075102,40.5849656 L48.1075102,40.5849656 L43.8032496,32.6205722 L32.9806026,51.316498 C32.7503336,51.6889975 32.3606474,51.9195924 31.9178222,51.9195924 L31.9178222,51.9195924 L31.9001092,51.9195924 C31.4572841,51.9018543 31.0498849,51.6712594 30.8373289,51.2810219 L30.8373289,51.2810219 L27.6667007,45.5161491 L27.6667007,45.5161491 L27.654236,45.8308356 C27.6489877,46.0384367 27.6489877,46.24341 27.6489877,46.4562668 C27.6489877,51.4761406 29.5974184,56.1944672 33.1400197,59.7420812 C36.682621,63.2896952 41.3942807,65.2408829 46.4070616,65.2408829 C51.4198424,65.2408829 56.1315021,63.2896952 59.6741034,59.7420812 L59.6741034,59.7420812 L67.2198442,52.1856634 L69.8059431,49.5781671 C69.1682749,48.9573347 68.3889026,48.1945977 67.4678263,47.2899561 C67.4678263,47.2899561 67.4501133,47.272218 67.4501133,47.272218 C67.4028786,47.2249165 67.3536753,47.1756441 67.3031599,47.1250577 L66.9895751,46.8110282 C64.4211892,44.2567461 60.8785879,40.7268702 56.4326232,36.2746146 C51.2427123,31.0596221 46.0173754,25.8268914 43.2364334,23.0242763 L43.2364334,23.0242763 Z M210.535995,22.3110993 C214.082139,22.3363676 216.809942,23.4987133 218.769,25.7728677 C220.728059,28.0722905 221.695189,30.8012759 221.670391,33.9850921 C221.670391,35.4759267 221.422409,36.9162245 220.951243,38.2807172 C220.480077,39.6452098 219.785727,40.8833606 218.91779,41.9951694 C218.049852,43.1069783 216.859538,43.9661033 215.421242,44.6230812 C213.982946,45.2800592 212.346264,45.6085481 210.511197,45.6085481 C208.676129,45.6085481 207.039447,45.2800592 205.576353,44.6230812 C204.113259,43.9661033 202.947743,43.1069783 202.055007,41.9951694 C201.162272,40.8833606 200.49272,39.6704782 200.021554,38.3059855 C199.550388,36.9414929 199.302406,35.5011951 199.302406,33.9850921 C199.302406,30.6496656 200.319133,27.8701435 202.377384,25.6465258 C204.435636,23.4229081 207.13864,22.3110993 210.535995,22.3110993 Z M185.142629,22.6648566 C186.952898,22.6648566 188.564782,22.9680772 190.027876,23.5997868 C191.49097,24.2314964 192.631688,25.065353 193.524424,26.1013567 C194.417159,27.1373604 195.086711,28.3249744 195.533078,29.6136619 C195.979446,30.9023494 196.227428,32.2668421 196.227428,33.6818715 C196.227428,35.1474377 196.004244,36.5624671 195.557877,37.9016914 C195.111509,39.2409157 194.466755,40.4537981 193.598818,41.5656069 C192.730881,42.6774158 191.565365,43.5365408 190.102271,44.1935187 C188.639176,44.8504967 187.002495,45.1789856 185.142629,45.1789856 L177.108009,45.1789856 L177.108009,22.6648566 L185.142629,22.6648566 Z M113.574997,22.7153934 L123.444685,45.1537173 L121.634415,45.1537173 L119.204191,39.6452098 L106.06114,39.6452098 L103.680512,45.1537173 L101.845444,45.1537173 L111.715132,22.7153934 L113.574997,22.7153934 Z M128.106748,22.7153934 L142.936077,41.2876547 L142.936077,22.7153934 L144.597557,22.7153934 L144.597557,45.1537173 L143.928005,45.1537173 L129.073878,26.6319927 L129.073878,45.1537173 L127.362802,45.1537173 L127.362802,22.7153934 L128.106748,22.7153934 Z M165.824824,22.7406618 L165.824824,24.2820331 L157.864599,24.2820331 L157.864599,45.1537173 L156.153522,45.1537173 L156.153522,24.2820331 L148.193297,24.2820331 L148.193297,22.7406618 L165.824824,22.7406618 Z M171.057246,22.7153934 L171.057246,45.1537173 L169.395766,45.1537173 L169.395766,22.7153934 L171.057246,22.7153934 Z M240.740214,22.7153934 L240.740214,25.2169633 L233.226356,25.2169633 L233.226356,45.1537173 L230.523351,45.1537173 L230.523351,25.2169633 L222.984696,25.2169633 L222.984696,22.7153934 L240.740214,22.7153934 Z M259.661247,22.7153934 L259.661247,25.2675 L246.890169,25.2675 L246.890169,32.2921104 L259.140485,32.2921104 L259.140485,34.8947539 L246.890169,34.8947539 L246.890169,42.5005371 L260.157211,42.5005371 L260.157211,45.1537173 L244.162366,45.1537173 L244.162366,22.7153934 L259.661247,22.7153934 Z M210.535995,24.8632059 C207.857788,24.8632059 205.774739,25.7223309 204.262048,27.4658493 C202.749357,29.2093678 202.030209,31.3824487 202.030209,33.9598237 C202.030209,36.4361252 202.774156,38.5586694 204.23725,40.3021878 C205.700344,42.0457062 207.808192,42.9300996 210.535995,42.9300996 C213.239,42.9300996 215.322049,42.0457062 216.760345,40.2769194 C218.198642,38.5081326 218.942588,36.3855885 218.942588,33.9598237 C218.967386,32.4184524 218.694606,30.9528862 218.099449,29.6136619 C217.504292,28.2744376 216.56196,27.1626288 215.247655,26.252967 C213.93335,25.3433052 212.371062,24.8884743 210.535995,24.8632059 Z M185.117831,25.3685736 L179.835812,25.3685736 L179.835812,42.3741952 L185.117831,42.3741952 C187.845634,42.3489268 189.928683,41.4898018 191.342181,39.7715517 C192.755679,38.0533017 193.474827,36.0065627 193.474827,33.6313347 C193.474827,31.3571803 192.755679,29.4115148 191.292585,27.7943383 C189.854289,26.1771618 187.796037,25.3685736 185.117831,25.3685736 Z M112.607867,24.3578383 L106.681095,38.0280333 L118.534639,38.0280333 L112.607867,24.3578383 Z" id="Combined-Shape"></path>
                </g>
            </g>
        </g>
    </g>
</svg>