<?xml version="1.0" encoding="UTF-8"?>
<svg width="270px" height="102px" viewBox="0 0 270 102" version="1.1" xmlns="http://www.w3.org/2000/svg" xmlns:xlink="http://www.w3.org/1999/xlink">
    <!-- Generator: Sketch 64 (93537) - https://sketch.com -->
    <title>apply</title>
    <desc>Created with Sketch.</desc>
    <g id="apply" stroke="none" stroke-width="1" fill="none" fill-rule="evenodd">
        <path d="M51.5410046,59.7363084 C50.6934628,59.7363084 50.0068225,60.423603 50.0068225,61.2705594 C50.0061993,62.1181395 50.6934628,62.8054341 51.5410046,62.8048104 C55.2143096,62.8041867 58.2034694,65.7934815 58.2028457,69.467576 C58.2022221,70.3145325 58.8894856,71.0012033 59.7376511,71.0012033 C60.5851929,71.0012033 61.2718328,70.3145325 61.2718328,69.467576 C61.2718328,64.1014396 56.9062751,59.7356847 51.5410046,59.7363084 M83.5012527,63.407284 C82.9094078,63.4066609 82.4298201,63.8856466 82.4304431,64.4775182 C82.4298201,65.0693898 82.9100314,65.5483755 83.5012527,65.5483755 C86.0644587,65.5483755 88.149948,67.633959 88.149948,70.1972808 C88.149948,70.7891524 88.6295357,71.2681381 89.2213806,71.2681381 C89.8126018,71.2681381 90.2921895,70.7891524 90.2921895,70.1972808 C90.2921895,66.4533341 87.2456539,63.4066609 83.5012527,63.407284 M50.2537888,80.6619952 C45.3107301,79.8449753 41.3237286,75.8584175 40.5073694,70.9151356 C39.1596593,62.7555397 46.145799,55.7703319 54.303779,57.1193502 C59.2455904,57.93637 63.2319682,61.9223042 64.0495748,66.8649624 C65.3985321,75.0233109 58.4130161,82.0097661 50.2537888,80.6619952 M52.2781603,54.2117575 C44.1844162,54.2117575 37.5992843,60.7965632 37.5992843,68.8906727 C37.5992843,76.9847822 44.1844162,83.5702116 52.2781603,83.5702116 C60.3719043,83.5702116 66.9570362,76.9847822 66.9570362,68.8906727 C66.9570362,60.7965632 60.3719043,54.2117575 52.2781603,54.2117575 M100.378499,79.4133893 C99.2409592,79.4133893 98.4158688,78.572046 98.4158688,77.4138736 C98.4158688,76.2525828 99.2428301,75.4106158 100.382241,75.4106158 C101.523522,75.4106158 102.330527,76.232625 102.344871,77.4107552 C102.344871,78.5907563 101.535995,79.4133893 100.378499,79.4133893 M83.4245436,84.1121889 C76.1116108,84.1121889 70.1619793,78.1622887 70.1619793,70.8490256 C70.1619793,63.5357625 76.1116108,57.586486 83.4245436,57.586486 C90.7374764,57.586486 96.6871079,63.5357625 96.6871079,70.8490256 C96.6871079,78.1622887 90.7374764,84.1121889 83.4245436,84.1121889 M52.2781603,84.1121889 C43.8856874,84.1121889 37.0573315,77.2841483 37.0573315,68.8906727 C37.0573315,60.4978208 43.8856874,53.6685328 52.2781603,53.6685328 C60.6712568,53.6685328 67.498989,60.4978208 67.498989,68.8906727 C67.498989,77.2841483 60.6712568,84.1121889 52.2781603,84.1121889 M23.8016273,69.3565611 L18.428873,69.3565611 C16.7974018,69.3565611 15.6598621,67.7374897 16.2136643,66.2026151 L18.8984823,58.7527662 C19.64624,56.6777853 22.5805184,56.6771616 23.3295234,58.7521425 L26.0174596,66.2019914 C26.5712618,67.736866 25.4337222,69.3565611 23.8016273,69.3565611 M128.4534,57.2191389 L126.031763,57.2191389 C125.378177,57.2191389 124.794439,57.6301435 124.575538,58.2463386 L119.396116,72.8167337 L119.396116,72.9664167 L113.265002,58.1721208 C113.02552,57.5952175 112.462363,57.2191389 111.836841,57.2191389 L109.15327,57.2191389 L109.15327,46.218684 C109.15327,45.4659031 108.543339,44.8565684 107.790592,44.8565684 L105.022829,44.8565684 C104.270705,44.8565684 103.660151,45.4659031 103.660151,46.218684 L103.660151,75.4274551 C103.042736,74.2692827 101.872143,73.5688909 100.384735,73.5688909 C99.9481795,73.5688909 99.5371935,73.6337535 99.1580136,73.7516289 C99.3313886,72.8098732 99.4268072,71.8400519 99.4268072,70.8484019 C99.4268072,62.0245876 92.2479594,54.8460393 83.4245436,54.8460393 C77.383859,54.8460393 72.0616205,58.249457 69.3487382,63.2831724 C67.4135488,57.3788008 62.4399313,52.7454875 56.2645381,51.3715221 C45.2826658,48.927323 35.1832599,56.9228912 34.3874811,67.5404071 L34.3176322,68.0798896 L34.3176322,72.6789006 L24.7951035,45.9760727 C24.4608265,45.0380591 23.5727473,44.4118851 22.5767765,44.4118851 L19.6474873,44.4118851 C18.6515165,44.4118851 17.7634373,45.0386828 17.4285367,45.9766964 L6.13858077,77.6670873 C5.5922624,79.2007147 6.72917836,80.8129256 8.35690774,80.8129256 L9.29238439,80.8129256 C10.2852369,80.8129256 11.1714452,80.1904937 11.5082168,79.2562221 L12.2141898,77.2953745 C12.5509614,76.361103 13.4371696,75.738671 14.4300222,75.738671 L27.8035964,75.738671 C28.796449,75.738671 29.6820335,76.3604793 30.0194288,77.2941271 L30.7272728,79.2574695 C31.064668,80.1911173 31.9502526,80.8129256 32.9431051,80.8129256 L33.8779581,80.8129256 C34.0295054,80.8129256 34.1754397,80.7948389 34.3176322,80.7686443 L34.3176322,91.9343743 C34.3176322,93.0750836 35.2425067,94 36.382541,94 L38.2746984,94 C39.4153563,94 40.3402309,93.0750836 40.3402309,91.9343743 L40.3402309,82.5442592 L42.6215466,84.0080345 C45.5227715,85.867846 48.8611759,86.8520119 52.2775366,86.8520119 C58.6350359,86.8520119 64.2291863,83.5296725 67.42228,78.5327542 L67.42228,89.016179 L67.4341293,89.0105659 L67.4341293,91.9343743 C67.4341293,93.0750836 68.3590039,94 69.4996618,94 L71.3911956,94 C72.5318534,94 73.456728,93.0750836 73.456728,91.9343743 L73.456728,83.5964061 L75.6494853,84.8225596 C78.0243487,86.1503727 80.7122849,86.8520119 83.4245436,86.8520119 C89.1627574,86.8520119 94.2031056,83.8140702 97.0282451,79.2637063 C97.6257028,80.4861176 98.8393279,81.2544905 100.376004,81.2544905 C101.912057,81.2544905 103.100112,80.5166779 103.702559,79.3379241 C103.84787,79.9341615 104.382339,80.3782211 105.022829,80.3782211 L107.790592,80.3782211 C108.543339,80.3782211 109.15327,79.7676391 109.15327,79.0154819 L109.15327,62.982559 L115.693499,79.3042454 C116.113216,80.2347749 116.300935,80.9950399 116.300935,81.7708969 C116.300935,82.6820923 115.935476,83.6506662 115.30933,84.448352 C114.463035,85.5871904 112.802252,87.0615681 111.055406,87.7632073 C110.946267,87.8099833 110.838375,87.8555119 110.731107,87.8997931 C110.02451,88.1929223 109.637847,88.9494453 109.819953,89.6922473 L110.124918,90.9352401 C110.345067,91.8358329 111.303619,92.3541104 112.167376,92.0191946 C113.505107,91.4996698 114.986902,90.6901341 116.419429,89.4290546 C119.058097,87.0765365 121.646249,83.1735516 125.689379,71.8132337 L129.917733,59.2573227 C130.255752,58.2563175 129.509865,57.2191389 128.4534,57.2191389 M100.382241,75.952593 C99.5440536,75.952593 98.9584452,76.5531962 98.9584452,77.4138736 C98.9584452,78.2851535 99.5284623,78.8707883 100.378499,78.8707883 C101.229783,78.8707883 101.802294,78.2851535 101.802294,77.4138736 C101.791692,76.5276253 101.234772,75.952593 100.382241,75.952593 M83.4245436,80.8291412 C77.9214463,80.8291412 73.444255,76.3529951 73.444255,70.8484019 C73.444255,65.3450561 77.9214463,60.8682863 83.4245436,60.8682863 C88.9276409,60.8682863 93.4048322,65.3450561 93.4048322,70.8484019 C93.4048322,76.3529951 88.9276409,80.8291412 83.4245436,80.8291412 M83.4245436,58.1284633 C76.4103396,58.1284633 70.7045557,63.8345049 70.7045557,70.8490256 C70.7045557,77.8629226 76.4103396,83.5702116 83.4245436,83.5702116 C90.4387475,83.5702116 96.1445315,77.8629226 96.1445315,70.8490256 C96.1445315,63.8345049 90.4387475,58.1284633 83.4245436,58.1284633 M27.884671,42.6213019 C27.884671,43.6796857 28.6118482,44.4274771 29.6527219,44.4274771 C30.7147997,44.4274771 31.4251384,43.6796857 31.4251384,42.6213019 C31.4120417,41.5373474 30.6979612,40.8101374 29.6570875,40.8101374 C28.621203,40.8101374 27.884671,41.5585525 27.884671,42.6213019 M54.9897952,37.9985912 L96.9159879,37.9985912 C97.7367127,37.9985912 98.4027721,37.3331254 98.4027721,36.5123635 L98.4027721,29.2577263 C98.4027721,28.4363407 97.7367127,27.7708749 96.9159879,27.7708749 L94.3976847,27.7708749 C93.5757126,27.7708749 92.9102769,28.4363407 92.9102769,29.2577263 L92.9102769,31.0196202 C92.9102769,31.8403821 92.2454648,32.5064716 91.4241163,32.5064716 L81.486236,32.5064716 C80.6648875,32.5064716 79.9994517,31.8403821 79.9994517,31.0196202 L79.9994517,10.4874751 C79.9994517,9.66671314 79.3333924,9.00062368 78.5120439,9.00062368 L75.9924934,9.00062368 C75.1717686,9.00062368 74.5057092,9.66671314 74.5057092,10.4874751 L74.5057092,31.0196202 C74.5057092,31.8403821 73.8402735,32.5064716 73.018925,32.5064716 L67.6050097,32.5064716 C66.7836612,32.5064716 66.1182255,31.8403821 66.1182255,31.0196202 L66.1182255,10.4874751 C66.1182255,9.66671314 65.4527898,9.00062368 64.6314413,9.00062368 L62.1118908,9.00062368 C61.291166,9.00062368 60.6251066,9.66671314 60.6251066,10.4874751 L60.6251066,31.0196202 C60.6251066,31.8403821 59.9596709,32.5064716 59.1383224,32.5064716 L54.9897952,32.5064716 C54.1684467,32.5064716 53.503011,33.1719374 53.503011,33.993323 L53.503011,36.5123635 C53.503011,37.3331254 54.1684467,37.9985912 54.9897952,37.9985912 M85.9166534,42.6213019 C85.9041804,41.5373474 85.1894762,40.8101374 84.1486025,40.8101374 C83.112718,40.8101374 82.3768097,41.5585525 82.3768097,42.6213019 C82.3768097,43.6796857 83.1033633,44.4274771 84.144237,44.4274771 C85.2069384,44.4274771 85.9166534,43.6796857 85.9166534,42.6213019 M90.4605753,42.6213019 C90.4481023,41.5373474 89.7333981,40.8101374 88.6925245,40.8101374 C87.65664,40.8101374 86.920108,41.5585525 86.920108,42.6213019 C86.920108,43.6796857 87.6472852,44.4274771 88.6881589,44.4274771 C89.7508604,44.4274771 90.4605753,43.6796857 90.4605753,42.6213019 M32.428593,42.6213019 C32.428593,43.6796857 33.1557702,44.4274771 34.1966438,44.4274771 C35.2593453,44.4274771 35.9684366,43.6796857 35.9684366,42.6213019 C35.9559636,41.5373474 35.2418831,40.8101374 34.2010094,40.8101374 C33.1645013,40.8101374 32.428593,41.5585525 32.428593,42.6213019 M17.696083,37.9985912 L46.158272,37.9985912 C46.9796205,37.9985912 47.6450562,37.3331254 47.6450562,36.5123635 L47.6450562,24.4042542 L47.6088845,24.4042542 L47.6088845,21.3507205 C47.6088845,20.5299586 46.9434487,19.8638692 46.1227239,19.8638692 L40.9938172,19.8638692 C40.1724687,19.8638692 39.5076566,19.1984034 39.5076566,18.3776415 L39.5076566,15.9802184 C39.5076566,15.1582091 40.1724687,14.493367 40.9938172,14.493367 L46.1227239,14.493367 C46.9434487,14.493367 47.6088845,13.8279012 47.6088845,13.0065156 L47.6088845,10.4874751 C47.6088845,9.66671314 46.9434487,9.00062368 46.1227239,9.00062368 L35.5006983,9.00062368 C34.6793498,9.00062368 34.0139141,9.66671314 34.0139141,10.4874751 L34.0139141,23.8697611 C34.0139141,24.6911467 34.6793498,25.3566125 35.5006983,25.3566125 L40.6664004,25.3566125 C41.4871252,25.3566125 42.152561,26.0220782 42.152561,26.8434638 L42.152561,31.0196202 C42.152561,31.8403821 41.4871252,32.5064716 40.6664004,32.5064716 L23.1879546,32.5064716 C22.3672297,32.5064716 21.7011704,31.8403821 21.7011704,31.0196202 L21.7011704,29.2577263 C21.7011704,28.4363407 21.0357346,27.7708749 20.2143861,27.7708749 L17.696083,27.7708749 C16.8747345,27.7708749 16.2092988,28.4363407 16.2092988,29.2577263 L16.2092988,36.5123635 C16.2092988,37.3331254 16.8747345,37.9985912 17.696083,37.9985912 M105.146935,37.9992149 L107.667109,37.9992149 C108.487834,37.9992149 109.15327,37.3337491 109.15327,36.5129872 L109.15327,10.4874751 C109.15327,9.66608946 108.487834,9 107.667109,9 L105.146935,9 C104.32621,9 103.660151,9.66608946 103.660151,10.4874751 L103.660151,36.5129872 C103.660151,37.3337491 104.32621,37.9992149 105.146935,37.9992149 M86.1474043,48.2188234 C87.2101058,48.2188234 87.9198207,47.4710319 87.9198207,46.4126482 C87.9073477,45.32807 87.1926436,44.6014836 86.1523935,44.6014836 C85.1158854,44.6014836 84.3799771,45.3505224 84.3799771,46.4126482 C84.3799771,47.4710319 85.1065306,48.2188234 86.1474043,48.2188234" id="Fill-24" fill="#1F1F20"></path>
    </g>
</svg>