<?xml version="1.0" encoding="UTF-8"?>
<svg width="270px" height="102px" viewBox="0 0 270 102" version="1.1" xmlns="http://www.w3.org/2000/svg" xmlns:xlink="http://www.w3.org/1999/xlink">
    <!-- Generator: Sketch 64 (93537) - https://sketch.com -->
    <title>beautychemistry</title>
    <desc>Created with Sketch.</desc>
    <g id="beautychemistry" stroke="none" stroke-width="1" fill="none" fill-rule="evenodd">
        <g id="Group-70" transform="translate(9.000000, 7.000000)" fill="#1F1F20">
            <path d="M10.1475843,31.1560888 C10.9086914,30.8172809 11.3912922,30.1677013 11.5956259,29.2073497 C11.7681371,28.3950188 11.5530364,27.8373876 10.9500845,27.533506 C10.6131971,27.3643397 10.1083446,27.2757174 9.43480905,27.2688272 L5.56515007,27.2688272 L4.67938506,31.4316968 L8.49688391,31.4316968 C9.1785545,31.4316968 9.72862845,31.3399859 10.1475843,31.1560888" id="Fill-1"></path>
            <path d="M20.0779624,18.6682878 L13.2823119,18.6682878 C14.4152394,18.8959021 15.1914203,19.4031634 15.6075049,20.1929231 C15.9475028,20.8567583 16.0192828,21.6510322 15.8223663,22.5759824 C15.6194682,23.5294437 15.2136721,24.2956816 14.6052171,24.8746961 C14.2647407,25.1997235 13.801999,25.4962398 13.2167529,25.76472 C13.9572831,26.0543461 14.4652461,26.5133761 14.7401634,27.1418099 C15.0146022,27.7702438 15.0567132,28.5329178 14.8657784,29.4295944 C14.6691012,30.3550197 14.2589983,31.1844574 13.6364265,31.9188578 C13.2356549,32.4061614 12.7772201,32.815772 12.2613613,33.1476896 C11.6782685,33.528789 11.0303345,33.7903791 10.3180378,33.9315094 C9.96153057,34.0023122 9.59449558,34.0552954 9.21621506,34.0904592 L16.7971385,34.0904592 L20.0779624,18.6682878 Z" id="Fill-3"></path>
            <polygon id="Fill-5" points="30.1750614 34.0905067 39.0001712 18.6683353 31.6092255 18.6683353 31.0505379 21.2944524 22.7300414 21.2944524 22.0246834 24.6100648 29.6625523 24.6100648 29.0859198 27.3217155 21.4478116 27.3217155 20.593869 31.3360893 29.2986278 31.3360893 28.7124246 34.0905067"></polygon>
            <polygon id="Fill-7" points="76.9735298 21.2944762 72.2693089 21.2944762 69.5471726 34.0905305 80.3208698 34.0905305 81.5552462 28.2889809 78.2387717 18.6683591 77.5324566 18.6683591"></polygon>
            <path d="M10.2675526,21.2415642 L6.8472363,21.2415642 L6.11508046,24.6840513 L9.93640758,24.6840513 C10.6190352,24.6840513 11.2006924,24.5552759 11.681379,24.2977249 C12.1618264,24.0399363 12.4721552,23.5825695 12.6118869,22.9256244 C12.7666924,22.1983518 12.5872424,21.7181761 12.0740155,21.4850972 C11.6227587,21.3225835 11.0205246,21.2415642 10.2675526,21.2415642" id="Fill-9"></path>
            <polygon id="Fill-11" points="40.8232393 28.2431255 40.1442006 22.0996794 36.7963822 28.2431255"></polygon>
            <polygon id="Fill-13" points="88.3597256 18.6682878 82.1000324 18.6682878 83.8808938 25.3301622"></polygon>
            <path d="M68.9625246,21.2944762 L64.2367697,21.2944762 L64.7956965,18.6683591 L62.9499938,18.6683591 L60.9375223,28.1267048 C60.5843648,29.786293 60.0503217,31.0787997 59.3358716,32.0035123 C58.5695006,32.9826336 57.570084,33.6771184 56.3392965,34.0905305 L66.2403883,34.0905305 L68.9625246,21.2944762 Z" id="Fill-15"></path>
            <polygon id="Fill-17" points="4.25832367 18.6682878 9.57066446e-05 18.6682878 9.57066446e-05 34.0904592 0.977499832 34.0904592"></polygon>
            <polygon id="Fill-19" points="41.1207913 30.9339154 35.3302999 30.9339154 33.6102122 34.090578 41.4694027 34.090578"></polygon>
            <polygon id="Fill-21" points="84.8408075 28.289076 83.6066703 34.0903879 92.0482358 34.0903879 92.0482358 18.6998164"></polygon>
            <path d="M48.2708673,32.0035598 C47.9495323,31.0786096 47.9653239,29.7863405 48.3182421,28.1267523 L50.3302351,18.6684066 L42.8167848,18.6684066 L45.0304795,34.090578 L50.3881376,34.090578 C49.3317755,33.6769283 48.6245034,32.9826811 48.2708673,32.0035598" id="Fill-23"></path>
            <path d="M51.541642,30.4685892 C51.7524358,31.3438824 52.5235921,31.7812914 53.8558287,31.7812914 C55.1808872,31.7812914 56.1350824,31.3438824 56.7179359,30.4685892 C57.0780322,29.9746331 57.3723301,29.191526 57.6003512,28.1190306 L59.6111478,18.6682878 L53.6692007,18.6682878 L51.6586433,28.1190306 C51.4306222,29.191526 51.3913825,29.9746331 51.541642,30.4685892" id="Fill-25"></path>
            <polygon id="Fill-27" points="40.2623266 45.0927565 34.1500216 45.0927565 32.6727895 52.0361787 38.7853338 52.0361787"></polygon>
            <polygon id="Fill-29" points="42.0663011 36.6137697 35.9537569 36.6137697 34.7222516 42.4022517 40.8347959 42.4022517"></polygon>
            <polygon id="Fill-31" points="48.5837563 36.6137697 45.3304481 36.6137697 42.049385 52.0361787 45.3029324 52.0361787"></polygon>
            <path d="M24.8580308,50.8977749 C24.2158392,51.3924439 23.5274692,51.7709297 22.794117,52.0360837 L29.4084033,52.0360837 L32.6894664,36.6136747 L26.2019914,36.6136747 C27.2837158,37.033977 28.0706637,37.740579 28.5587675,38.7372823 C29.0212699,39.7047616 29.1734435,40.6755672 29.0152883,41.6504119 L25.7299183,41.6504119 C25.6799116,40.9017559 25.5318056,40.3367594 25.2856002,39.9554224 C24.8446319,39.2775691 24.0493096,38.9387613 22.8998728,38.9387613 C21.7293805,38.9387613 20.7046016,39.4170363 19.8252968,40.3738239 C18.945992,41.3306115 18.3198313,42.6848925 17.9475324,44.435954 C17.5749943,46.1874907 17.6522774,47.4992425 18.1798603,48.3712094 C18.7069646,49.2436514 19.5204711,49.6793972 20.6194227,49.6793972 C21.7466077,49.6793972 22.6854899,49.3054256 23.43583,48.556532 C23.8483257,48.1540492 24.2483795,47.550325 24.6352736,46.7451218 L27.8993488,46.7451218 C27.2557216,48.4474768 26.2419489,49.8316945 24.8580308,50.8977749" id="Fill-33"></path>
            <path d="M71.8750932,52.0360837 L74.1160643,41.5021538 C74.1809056,41.1985097 74.2749374,40.7729804 74.3983989,40.2255658 C74.5216212,39.6781512 74.6151745,39.2561857 74.6785801,38.9596695 L68.9227824,52.0360837 L71.8750932,52.0360837 Z" id="Fill-35"></path>
            <path d="M15.2526725,50.3360572 C14.280293,48.8886397 14.0620818,46.9042617 14.5985176,44.3831608 C15.1782606,41.6574922 16.3532989,39.5566935 18.1238719,38.0805273 C18.9115376,37.4231071 19.7537561,36.9348531 20.6505274,36.6138648 L6.78215578,36.6138648 L6.78215578,52.0360362 L17.3802313,52.0360362 C16.4880061,51.6779833 15.7776235,51.1129868 15.2526725,50.3360572" id="Fill-37"></path>
            <polygon id="Fill-39" points="78.2177641 36.6137697 74.936701 52.0361787 85.26608 52.0361787 85.26608 36.6137697"></polygon>
            <polygon id="Fill-41" points="68.0722853 48.7262686 73.4519559 36.6137697 67.8253622 36.6137697"></polygon>
            <polygon id="Fill-43" points="59.7250627 52.0360837 63.0061258 36.6136747 60.1153065 36.6136747 59.5618828 39.2138941 51.2413863 39.2138941 50.5360283 42.5295066 58.1738972 42.5295066 57.5970254 45.2409196 49.9593958 45.2409196 49.1049747 49.2557687 57.8094941 49.2557687 57.2180271 52.0360837"></polygon>
            <path d="M65.5471372,38.9596457 C65.4839708,39.2563996 65.3975956,39.6781274 65.28849,40.225542 C65.1789059,40.7729566 65.0922914,41.198486 65.0274501,41.50213 L62.786479,52.0360599 L65.7177343,52.0360599 L65.5471372,38.9596457 Z" id="Fill-45"></path>
            <polygon id="Fill-47" points="57.0648486 57.2547935 52.3606277 57.2547935 49.6530866 69.9814706 56.3523126 69.9814706 59.6331364 54.5592992 57.6381314 54.5592992"></polygon>
            <path d="M65.6228412,67.9216568 L65.9102004,66.4704378 C66.1085524,65.4746849 66.07673,64.8110873 65.8142545,64.478932 C65.5515397,64.1470144 64.9631831,63.9811744 64.0484669,63.9811744 L60.8396623,63.9811744 L59.5631749,69.9815894 L65.5020116,69.9815894 C65.4821524,69.6914882 65.4735388,69.4529446 65.4756922,69.2671468 C65.483588,68.8287874 65.5321591,68.3806867 65.6228412,67.9216568" id="Fill-49"></path>
            <path d="M32.5014746,55.4222613 C32.9768974,55.065634 33.5107012,54.7783838 34.1012112,54.559323 L28.5698456,54.559323 L25.2890218,69.9814944 L30.947438,69.9814944 C30.4033457,69.7612455 29.9394077,69.4723322 29.5570596,69.1130914 C28.56841,68.184815 28.2470749,66.9084645 28.5925759,65.2842778 L31.7286435,65.2842778 C31.6786367,65.9975324 31.765012,66.5304538 31.9875299,66.8835173 C32.3954795,67.5262067 33.2597105,67.8474327 34.5816586,67.8474327 C35.3731525,67.8474327 36.0337677,67.7623743 36.563504,67.5934456 C37.5691415,67.2684182 38.166351,66.664694 38.353936,65.7820354 C38.4635202,65.2669335 38.3190031,64.8673018 37.9203849,64.5848035 C37.5198526,64.3096707 36.8439244,64.0656625 35.8926004,63.853967 L34.2691764,63.4833217 C32.6742251,63.1160027 31.6097279,62.7173214 31.0756849,62.2863274 C30.1691037,61.565945 29.8791125,60.4395158 30.2052329,58.9072776 C30.5026413,57.5090419 31.267816,56.347449 32.5014746,55.4222613" id="Fill-51"></path>
            <path d="M67.3696789,57.4770619 C67.0710742,57.2938776 66.5844059,57.201929 65.9089562,57.201929 L62.2819136,57.201929 L61.3896884,61.3966361 L64.9253312,61.3966361 C65.6278179,61.3966361 66.1723888,61.3118153 66.5597614,61.1424114 C67.2445425,60.8456576 67.6797684,60.2595153 67.8656786,59.3837469 C68.0671411,58.437651 67.9018079,57.8018517 67.3696789,57.4770619" id="Fill-53"></path>
            <path d="M68.2374989,54.5593705 C68.7885299,54.6251838 69.2304554,54.7361398 69.5637538,54.8922385 C70.0901403,55.1398105 70.503593,55.5033281 70.8036334,55.9837414 C71.0524706,56.379334 71.2230677,56.8169806 71.3147069,57.2969188 C71.4065852,57.7775697 71.3874439,58.3245091 71.2568043,58.9391626 C71.0988884,59.6806908 70.7555408,60.4098642 70.226283,61.1264452 C69.6965467,61.8432637 68.9665443,62.3498123 68.0360364,62.6463285 C68.7000013,62.9361922 69.1261351,63.3472283 69.3149165,63.880625 C69.5036978,64.413784 69.4816853,65.2275405 69.2488789,66.3221322 L69.0256431,67.3706307 C68.8739481,68.0843606 68.800254,68.5678626 68.8036037,68.8216121 C68.8048001,69.2245701 68.943814,69.5213239 69.2206454,69.7116361 L69.1634607,69.9815419 L76.3335634,69.9815419 L76.3335634,54.5593705 L68.2374989,54.5593705 Z" id="Fill-55"></path>
            <path d="M49.0538673,57.2547935 L44.3281124,57.2547935 L44.9016345,54.5592992 L40.1414251,54.5592992 C40.5996207,54.7619662 41.0121164,55.0226058 41.3786728,55.3426438 C42.3773717,56.2150859 42.7288543,57.480507 42.4335993,59.1405703 L39.2759978,59.1405703 C39.4174044,58.201127 39.1365054,57.5339654 38.43354,57.1381353 C37.9638597,56.877258 37.3396131,56.7461066 36.5596039,56.7461066 C35.6915446,56.7461066 34.9629778,56.9159857 34.3734248,57.2547935 C33.7836326,57.5936013 33.4240149,58.0668869 33.2948109,58.6744126 C33.1761347,59.2322813 33.3429035,59.6485445 33.7943996,59.9239149 C34.0834337,60.1080496 34.7339996,60.3230714 35.7458582,60.5701683 L38.367981,61.2166593 C39.5174178,61.4986823 40.3431269,61.876693 40.8463046,62.349741 C41.6270316,63.084379 41.8698872,64.1471332 41.5739144,65.5380035 C41.270285,66.964988 40.4632387,68.1493898 39.1518184,69.0919218 C38.6385915,69.4611416 38.0698548,69.7569451 37.4470438,69.9814706 L46.3465656,69.9814706 L49.0538673,57.2547935 Z" id="Fill-57"></path>
            <polygon id="Fill-59" points="25.3058422 54.5593705 15.7148399 54.5593705 15.7148399 69.9815419 22.0250184 69.9815419"></polygon>
            <polygon id="Fill-61" points="44.7429768 82.1684311 39.3645025 72.5048049 36.1607225 72.5048049 36.1607225 87.9269763 44.7379522 87.9269763"></polygon>
            <polygon id="Fill-63" points="49.5291226 72.5048287 43.2292326 72.5048287 46.4418655 79.2097074"></polygon>
            <polygon id="Fill-65" points="53.244311 72.5048287 48.0285381 82.1684549 48.0237528 87.927 55.8874894 87.927 55.8874894 72.5048287"></polygon>
            <g id="Group-69" transform="translate(0.000000, 0.017582)">
                <path d="M92.0482597,16.1274429 C91.4424367,14.4813976 89.6797595,11.4335526 87.5868944,9.17499214 C83.6354063,4.91019508 78.7876254,2.25176532 73.0342203,1.27121839 C63.3982359,-0.371025464 52.1854845,3.7927945 46.4021711,14.5804739 C46.2720101,14.4141587 46.1507019,14.3022523 46.0820324,14.1644483 C44.6088678,11.2156797 42.6265439,8.65775185 40.1422387,6.47854747 C37.7443086,4.3756105 35.0427493,2.77447026 32.0368428,1.70173718 C30.2014286,1.04693046 28.3066762,0.626628175 26.3609601,0.393549294 C22.9573925,-0.0143981449 19.6256049,0.308490947 16.3483701,1.2396185 C14.2837384,1.8259984 12.3298872,2.68751116 10.4913626,3.79683358 C7.56106432,5.56452662 5.07628052,7.81595932 3.06093782,10.572515 C1.83206448,12.2537242 0.827623224,14.0589569 0.0540742552,15.9908268 C0.0344543927,16.039771 0.0169879297,16.0839634 -5.86824706e-13,16.1274429 L92.0482597,16.1274429 Z" id="Fill-67"></path>
            </g>
        </g>
    </g>
</svg>