<?xml version="1.0" encoding="UTF-8"?>
<svg width="270px" height="102px" viewBox="0 0 270 102" version="1.1" xmlns="http://www.w3.org/2000/svg" xmlns:xlink="http://www.w3.org/1999/xlink">
    <!-- Generator: Sketch 64 (93537) - https://sketch.com -->
    <title>bonfire</title>
    <desc>Created with Sketch.</desc>
    <g id="bonfire" stroke="none" stroke-width="1" fill="none" fill-rule="evenodd">
        <g id="Group" transform="translate(0.000000, 6.000000)" fill="#1F1F20">
            <path d="M51.9847666,-3.11384905e-14 C62.0447644,-3.11384905e-14 70.2000039,8.14919825 70.2000039,18.2091978 L70.2000039,72.6333097 C70.2000039,82.6924884 62.044216,90.8470638 51.9847666,90.8470638 L18.2152372,90.8470638 C8.1552395,90.8470638 0,82.6850038 0,72.6266455 L0,18.2204183 C0,8.15755914 8.15578782,-3.11384905e-14 18.2152372,-3.11384905e-14 L51.9847666,-3.11384905e-14 Z M131.704652,36.7076222 C135.182794,36.7076222 138.123253,37.867003 140.526027,40.1857646 C142.928802,42.5045262 144.130189,45.9154582 144.130189,50.4185605 C144.130189,54.7704391 143.071624,58.3661999 140.954494,61.2058428 C138.837364,64.0454856 135.552452,65.465307 131.099757,65.465307 C127.386378,65.465307 124.437518,64.2093112 122.253178,61.6973194 C120.068837,59.1853277 118.976667,55.8122016 118.976667,51.5779413 C118.976667,47.0412338 120.127646,43.4286704 122.429605,40.7402511 C124.731564,38.0518318 127.823246,36.7076222 131.704652,36.7076222 Z M232.469966,36.8840497 C234.385465,36.8840497 236.242155,37.3335198 238.040035,38.23246 C239.837915,39.1314002 241.207329,40.2949817 242.148276,41.7232044 C243.055617,43.0842166 243.660511,44.6720643 243.962959,46.4867473 C244.231801,47.7301412 244.366222,49.7128504 244.366222,52.4348749 L244.366222,52.4348749 L224.581136,52.4348749 L224.599079,52.8628181 C224.734803,55.4034581 225.375723,57.457753 226.521839,59.0257028 C227.731627,60.6807609 229.605119,61.5082899 232.142315,61.5082899 C234.511485,61.5082899 236.401779,60.7269681 237.8132,59.1643244 C238.619725,58.2569829 239.191014,57.2068191 239.527067,56.013833 L239.527067,56.013833 L243.988163,56.013833 L243.949315,56.2870145 C243.797258,57.2069927 243.419547,58.2207045 242.81618,59.3281499 C242.152476,60.5463399 241.40896,61.5418952 240.585632,62.3148157 C239.207817,63.6590253 237.502351,64.5663668 235.469234,65.0368402 C234.377064,65.3056821 233.142071,65.4401031 231.764256,65.4401031 C228.403732,65.4401031 225.555688,64.2177125 223.220124,61.7729312 C220.884559,59.3281499 219.716777,55.904616 219.716777,51.5023295 C219.716777,47.1672534 220.892961,43.6471044 223.245328,40.9418825 C225.597695,38.2366607 228.672574,36.8840497 232.469966,36.8840497 Z M96.1671095,27.33176 L96.1671095,40.765455 L96.4189738,40.4483931 C97.3572368,39.3092571 98.4578667,38.4277905 99.7208637,37.8039932 C101.098679,37.1234871 102.594112,36.783234 104.207163,36.783234 C107.567687,36.783234 110.293913,37.9384141 112.385839,40.2487745 C114.477765,42.5591348 115.523728,45.965866 115.523728,50.4689683 C115.523728,54.7368339 114.490367,58.2821868 112.423645,61.105027 C110.356922,63.9278673 107.492076,65.3392874 103.829104,65.3392874 C101.779185,65.3392874 100.048515,64.8436101 98.6370947,63.8522555 C97.7969637,63.2641638 96.8980235,62.323217 95.9402741,61.0294152 L95.9402741,61.0294152 L95.9402741,64.4823537 L91.7564216,64.4823537 L91.7564216,27.33176 L96.1671095,27.33176 Z M162.655078,36.8840497 C166.486076,36.8840497 169.073679,38.219858 170.417889,40.8914747 C171.157204,42.3533027 171.526862,44.4452289 171.526862,47.1672534 L171.526862,47.1672534 L171.526862,64.4823537 L166.914543,64.4823537 L166.914543,47.4697006 L166.910218,47.09537 C166.875618,45.6207164 166.633422,44.4180862 166.183629,43.4874795 C165.377103,41.8072175 163.915275,40.9670865 161.798145,40.9670865 C160.722777,40.9670865 159.84064,41.0763035 159.151732,41.2947376 C157.908338,41.6643952 156.816168,42.4037105 155.875221,43.5126835 C155.119103,44.4032223 154.627627,45.3231658 154.400791,46.2725139 C154.173956,47.2218619 154.060538,48.5786735 154.060538,50.3429487 L154.060538,50.3429487 L154.060538,64.4823537 L149.523831,64.4823537 L149.523831,37.488944 L153.833703,37.488944 L153.833703,41.3199415 L154.108503,40.9883041 C155.304318,39.5807417 156.565329,38.5571106 157.891536,37.9174109 C159.319758,37.2285034 160.907606,36.8840497 162.655078,36.8840497 Z M186.472793,26.9284971 C186.758437,26.9284971 187.052483,26.9368984 187.35493,26.9537011 C187.657378,26.9705037 188.001831,26.9957076 188.388292,27.0293128 L188.388292,27.0293128 L188.388292,31.1627575 L188.194633,31.1491268 C187.823261,31.1234085 187.547561,31.1069488 187.367532,31.0997476 C187.1575,31.0913463 186.960069,31.0871457 186.77524,31.0871457 C185.397425,31.0871457 184.574097,31.4442014 184.305255,32.1583127 C184.036413,32.8724241 183.901992,34.6913077 183.901992,37.6149637 L183.901992,37.6149637 L188.388292,37.6149637 L188.388292,41.1939218 L183.851584,41.1939218 L183.851584,64.4823537 L179.365284,64.4823537 L179.365284,41.1939218 L175.609899,41.1939218 L175.609899,37.6149637 L179.365284,37.6149637 L179.365284,33.3807034 L179.380938,33.0337555 C179.474469,31.3285521 179.796902,30.0663865 180.348238,29.2472587 C181.406803,27.7014177 183.448321,26.9284971 186.472793,26.9284971 Z M197.285279,37.6149637 L197.285279,64.4823537 L192.748572,64.4823537 L192.748572,37.6149637 L197.285279,37.6149637 Z M215.835372,36.8840497 C215.919385,36.8840497 216.062207,36.892451 216.263839,36.9092536 C216.46547,36.9260563 216.809924,36.9596615 217.2972,37.0100694 L217.2972,37.0100694 L217.2972,41.7988162 L217.035359,41.7540092 C216.865466,41.7278718 216.704908,41.7092022 216.553684,41.6980005 C216.326849,41.6811978 216.07901,41.6727965 215.810168,41.6727965 C213.525012,41.6727965 211.769138,42.4079112 210.542547,43.8781405 C209.315955,45.3483697 208.70266,47.0412338 208.70266,48.9567325 L208.70266,48.9567325 L208.70266,64.4823537 L204.165952,64.4823537 L204.165952,37.488944 L208.475824,37.488944 L208.475824,42.1516712 L208.553228,41.9675705 C208.946335,41.0961493 209.785869,40.0527439 211.071829,38.8373543 C212.449644,37.5351513 214.037492,36.8840497 215.835372,36.8840497 Z M131.578632,40.6646393 C128.8062,40.6646393 126.789885,41.7232044 125.529689,43.8403346 C124.269492,45.9574647 123.639394,48.511463 123.639394,51.5023295 C123.639394,54.3755776 124.269492,56.769951 125.529689,58.6854497 C126.789885,60.6009484 128.789397,61.5586978 131.528224,61.5586978 C134.535893,61.5586978 136.598415,60.4203203 137.715789,58.1435652 C138.833163,55.8668101 139.391851,53.3338151 139.391851,50.5445801 C139.391851,48.024187 138.988588,45.9742674 138.182062,44.394821 C136.905063,41.9080332 134.703919,40.6646393 131.578632,40.6646393 Z M103.677881,40.8410668 C101.611159,40.8410668 99.8006762,41.605586 98.2464338,43.1346245 C96.6921914,44.663663 95.9150702,47.184056 95.9150702,50.6958037 C95.9150702,53.2329994 96.23432,55.2913204 96.8728196,56.8707667 C98.0658056,59.8448305 100.292153,61.3318624 103.551861,61.3318624 C106.005044,61.3318624 107.84073,60.3573104 109.05892,58.4082065 C110.27711,56.4591025 110.886205,53.8883016 110.886205,50.6958037 C110.886205,47.8561608 110.27711,45.503794 109.05892,43.6387031 C107.84073,41.7736123 106.04705,40.8410668 103.677881,40.8410668 Z M232.192723,40.8410668 C230.109198,40.8410668 228.361726,41.5929841 226.950305,43.0968186 C225.538885,44.6006531 224.791169,46.5119512 224.707156,48.8307128 L224.707156,48.8307128 L239.703494,48.8307128 C239.518666,46.8648062 239.090199,45.2937612 238.418094,44.1175778 C237.1747,41.9332371 235.099576,40.8410668 232.192723,40.8410668 Z M197.285279,27.4577797 L197.285279,32.5993815 L192.748572,32.5993815 L192.748572,27.4577797 L197.285279,27.4577797 Z M20.3644712,20.4405894 C17.8720889,20.4405894 15.8516138,22.4742702 15.8516138,24.9829426 C15.8516138,27.4916149 17.8720889,29.5252957 20.3644712,29.5252957 C22.8568535,29.5252957 24.8773286,27.4916149 24.8773286,24.9829426 C24.8773286,22.4742702 22.8568535,20.4405894 20.3644712,20.4405894 Z M49.7223069,20.4405894 C47.2745909,20.4405894 45.2903251,22.4378243 45.2903251,24.9015384 C45.2903251,27.3652525 47.2745909,29.3624874 49.7223069,29.3624874 C52.1700228,29.3624874 54.1542887,27.3652525 54.1542887,24.9015384 C54.1542887,22.4378243 52.1700228,20.4405894 49.7223069,20.4405894 Z" id="Combined-Shape"></path>
        </g>
    </g>
</svg>