<?xml version="1.0" encoding="UTF-8"?>
<svg width="270px" height="102px" viewBox="0 0 270 102" version="1.1" xmlns="http://www.w3.org/2000/svg" xmlns:xlink="http://www.w3.org/1999/xlink">
    <!-- Generator: Sketch 64 (93537) - https://sketch.com -->
    <title>campuslive</title>
    <desc>Created with Sketch.</desc>
    <g id="campuslive" stroke="none" stroke-width="1" fill="none" fill-rule="evenodd">
        <g id="Group" transform="translate(5.000000, 12.000000)" fill="#1F1F20">
            <g id="Group-3-Copy">
                <path d="M52.4552383,0 C52.4552383,0 64.0636475,3.81266548 63.9019015,3.81266548 C63.7401555,3.81266548 41.7652227,3.81266548 41.3327019,3.81266548 C40.9001811,3.81266548 52.4552383,0 52.4552383,0 Z" id="Triangle-Copy-2"></path>
                <path d="M35.7592899,67.0959882 L35.9331551,67.1011765 L69.302139,67.1011765 C69.360458,67.1011765 69.4184575,67.0998293 69.4761072,67.0971647 L69.4759358,77.0294118 L35.7593583,77.0294118 L35.7592899,67.0959882 Z M35.7592899,39.0229882 L35.9331551,39.0282353 L69.302139,39.0282353 C69.360458,39.0282353 69.4184575,39.0268881 69.4761072,39.0242235 L69.4752899,59.9149882 L69.302139,59.9117647 L62.8712899,59.9109882 L62.8716578,51.2197138 C62.8716578,45.901769 58.6336803,41.5736569 53.3508169,41.4284689 L53.0766499,41.4247059 L52.8538314,41.4247059 C47.4441979,41.4247059 43.0588235,45.8100803 43.0588235,51.2197138 L43.0588235,51.2197138 L43.0582899,59.9109882 L35.9331551,59.9117647 C35.8745673,59.9117647 35.8163019,59.9131244 35.7583897,59.9158134 L35.7592899,39.0229882 Z M69.4761072,11.6359882 L69.4752899,31.8419882 L69.302139,31.8388235 L35.9331551,31.8388235 C35.8745673,31.8388235 35.8163019,31.8401832 35.7583897,31.8428722 L35.7592899,11.6359882 L35.9331551,11.64 L69.302139,11.64 C69.360458,11.64 69.4184575,11.6386528 69.4761072,11.6359882 Z M52.7914439,14.3788235 C48.3761192,14.3788235 44.7967914,17.9041861 44.7967914,22.2529412 C44.7967914,26.6016963 48.3761192,30.1270588 52.7914439,30.1270588 C57.2067685,30.1270588 60.7860963,26.6016963 60.7860963,22.2529412 C60.7860963,17.9041861 57.2067685,14.3788235 52.7914439,14.3788235 Z" id="Combined-Shape"></path>
                <path d="M35.9331551,5.47764706 C34.4933753,5.47764706 33.3262032,6.6272218 33.3262032,8.04529412 C33.3262032,9.46336643 34.4933753,10.6129412 35.9331551,10.6129412 L69.302139,10.6129412 C70.7419188,10.6129412 71.9090909,9.46336643 71.9090909,8.04529412 C71.9090909,6.6272218 70.7419188,5.47764706 69.302139,5.47764706 L35.9331551,5.47764706 Z" id="Rectangle-6-Copy-6" fill-rule="nonzero"></path>
                <g id="Group-Copy-2" transform="translate(17.716578, 58.028235) scale(-1, 1) translate(-17.716578, -58.028235) translate(0.716578, 39.028235)">
                    <path d="M30.2406417,6.16235294 L30.2406417,38.0011765 L0,38.0011765 L0.00048289411,27.8682274 C1.41777751,27.3746162 2.43315508,26.0432151 2.43315508,24.4782353 C2.43315508,22.9132555 1.41777751,21.5818543 0.00048289411,21.0882432 L0,6.16235294 L30.2406417,6.16235294 Z M8.60294118,11.9823529 L8.42914439,11.9823529 C5.69356284,11.9823529 3.47593583,14.166545 3.47593583,16.8608824 L3.47593583,16.8608824 L3.47593583,22.2529412 L13.5561497,22.2529412 L13.5561497,16.8608824 C13.5561497,14.166545 11.3385227,11.9823529 8.60294118,11.9823529 L8.60294118,11.9823529 Z M21.8114973,11.9823529 L21.6377005,11.9823529 C18.902119,11.9823529 16.684492,14.166545 16.684492,16.8608824 L16.684492,16.8608824 L16.684492,22.2529412 L26.7647059,22.2529412 L26.7647059,16.8608824 C26.7647059,14.166545 24.5470789,11.9823529 21.8114973,11.9823529 L21.8114973,11.9823529 Z M31.1489305,0 C32.5670028,-1.00314127e-15 33.7165775,1.14957475 33.7165775,2.56764706 C33.7165775,3.98571937 32.5670028,5.13529412 31.1489305,5.13529412 L0,5.13529412 L0,0 L31.1489305,0 Z" id="Combined-Shape"></path>
                </g>
                <g id="Group-Copy-2" transform="translate(70.518717, 39.028235)">
                    <path d="M30.2406417,6.16235294 L30.2406417,38.0011765 L0,38.0011765 L0.00048289411,27.8682274 C1.41777751,27.3746162 2.43315508,26.0432151 2.43315508,24.4782353 C2.43315508,22.9132555 1.41777751,21.5818543 0.00048289411,21.0882432 L0,6.16235294 L30.2406417,6.16235294 Z M8.60294118,11.9823529 L8.42914439,11.9823529 C5.69356284,11.9823529 3.47593583,14.166545 3.47593583,16.8608824 L3.47593583,16.8608824 L3.47593583,22.2529412 L13.5561497,22.2529412 L13.5561497,16.8608824 C13.5561497,14.166545 11.3385227,11.9823529 8.60294118,11.9823529 L8.60294118,11.9823529 Z M21.8114973,11.9823529 L21.6377005,11.9823529 C18.902119,11.9823529 16.684492,14.166545 16.684492,16.8608824 L16.684492,16.8608824 L16.684492,22.2529412 L26.7647059,22.2529412 L26.7647059,16.8608824 C26.7647059,14.166545 24.5470789,11.9823529 21.8114973,11.9823529 L21.8114973,11.9823529 Z M31.1489305,0 C32.5670028,4.84278486e-15 33.7165775,1.14957475 33.7165775,2.56764706 C33.7165775,3.98571937 32.5670028,5.13529412 31.1489305,5.13529412 L0,5.13529412 L0,0 L31.1489305,0 Z" id="Combined-Shape"></path>
                </g>
                <path d="M35.9331551,32.8658824 C34.4933753,32.8658824 33.3262032,34.0154571 33.3262032,35.4335294 C33.3262032,36.8516017 34.4933753,38.0011765 35.9331551,38.0011765 L69.302139,38.0011765 C70.7419188,38.0011765 71.9090909,36.8516017 71.9090909,35.4335294 C71.9090909,34.0154571 70.7419188,32.8658824 69.302139,32.8658824 L35.9331551,32.8658824 Z" id="Rectangle-6-Copy-7" fill-rule="nonzero"></path>
                <path d="M35.9331551,60.9388235 C34.4933753,60.9388235 33.3262032,62.0883983 33.3262032,63.5064706 C33.3262032,64.9245429 34.4933753,66.0741176 35.9331551,66.0741176 L69.302139,66.0741176 C70.7419188,66.0741176 71.9090909,64.9245429 71.9090909,63.5064706 C71.9090909,62.0883983 70.7419188,60.9388235 69.302139,60.9388235 L35.9331551,60.9388235 Z" id="Path"></path>
                <path d="M56.962578,21.5777378 C57.3465193,21.5777378 57.6577652,21.884291 57.6577652,22.2624437 C57.6577652,22.6405963 57.3465193,22.9471495 56.962578,22.9471495 L52.7914439,22.9471495 C52.4075026,22.9471495 52.0962567,22.6405963 52.0962567,22.2624437 L52.0962567,17.1176471 C52.0962567,16.7394944 52.4075026,16.4329412 52.7914439,16.4329412 C53.1753851,16.4329412 53.486631,16.7394944 53.486631,17.1176471 L53.486631,21.5777378 L56.962578,21.5777378 Z" id="Path-4-Copy-2" fill-rule="nonzero"></path>
            </g>
            <path d="M125.903694,31.6484949 C129.742446,31.6484949 132.792768,30.4270738 135.054659,27.9842314 C136.941722,25.954992 138.05328,23.4410616 138.389332,20.4424403 L138.389332,20.4424403 L134.628131,20.4424403 C134.240378,22.3165786 133.652286,23.8288143 132.863856,24.9791475 C131.37747,27.1634881 129.212517,28.2556583 126.368997,28.2556583 C123.2799,28.2556583 120.956615,27.2184197 119.399141,25.1439424 C117.841668,23.0694652 117.062931,20.3648897 117.062931,17.030216 C117.062931,12.958812 117.925681,9.93757181 119.65118,7.96649529 C121.37668,5.99541877 123.641803,5.00988051 126.446548,5.00988051 C128.747214,5.00988051 130.534108,5.54627183 131.807229,6.61905446 C133.080351,7.69183709 133.930176,9.14590993 134.356704,10.981273 L134.356704,10.981273 L138.117906,10.981273 C137.898179,8.56428079 136.793084,6.40579044 134.802619,4.50580193 C132.812155,2.60581342 130.013873,1.65581916 126.407772,1.65581916 C122.181267,1.65581916 118.865981,3.11635455 116.461914,6.03742532 C114.238798,8.72584444 113.12724,12.1703814 113.12724,16.3710363 C113.12724,21.9029756 114.607163,25.9937672 117.567009,28.6434111 C119.815975,30.6468003 122.59487,31.6484949 125.903694,31.6484949 Z M148.199477,31.6097197 C149.802189,31.6097197 151.269187,31.2672047 152.600471,30.5821749 C153.931756,29.897145 154.952838,29.0893267 155.663718,28.1587201 C155.780044,28.985926 155.980383,29.6257181 156.264735,30.0780963 C156.807588,30.9311523 157.680032,31.3576804 158.882066,31.3576804 C159.373219,31.3576804 159.760972,31.3382927 160.045324,31.2995175 C160.329676,31.2607422 160.743279,31.163804 161.286133,31.0087029 L161.286133,31.0087029 L161.286133,28.4301471 C161.066406,28.4689223 160.859605,28.4980038 160.665728,28.5173914 C160.471852,28.5367791 160.297363,28.5464729 160.142262,28.5464729 C159.664034,28.5464729 159.3506,28.4366096 159.201962,28.216883 C159.053323,27.9971565 158.979004,27.7063419 158.979004,27.3444393 L158.979004,27.3444393 L158.979004,15.3822668 C158.979004,13.4176528 158.222886,11.9700425 156.71065,11.0394359 C155.185489,10.1088293 153.201488,9.64352597 150.758645,9.64352597 C148.651855,9.64352597 146.800336,10.1443733 145.204087,11.1460679 C143.607838,12.1477625 142.777401,13.9281939 142.712776,16.4873621 L142.712776,16.4873621 L145.969899,16.4873621 C146.09915,15.4145795 146.377039,14.6067613 146.803567,14.0639074 C147.566148,13.0816004 148.858657,12.5904469 150.681095,12.5904469 C152.257956,12.5904469 153.469683,12.8586426 154.316277,13.3950339 C155.162871,13.9314252 155.586167,14.7941751 155.586167,15.9832835 C155.586167,16.5649127 155.508617,17.0108284 155.353516,17.3210306 C155.082089,17.8897346 154.545697,18.225787 153.744342,18.3291877 L153.744342,18.3291877 L148.18009,19.0271427 C146.228401,19.2727194 144.65154,19.9254366 143.449506,20.9852941 C142.247472,22.0451517 141.646456,23.5379998 141.646456,25.4638385 C141.646456,27.221651 142.257166,28.6854176 143.478587,29.8551384 C144.700009,31.0248593 146.273639,31.6097197 148.199477,31.6097197 Z M149.013758,28.6434111 C148.005601,28.6434111 147.133157,28.3525965 146.396427,27.7709674 C145.659697,27.1893382 145.291332,26.3944451 145.291332,25.3862879 C145.291332,24.0550034 145.827723,23.0856216 146.900506,22.4781422 C147.533835,22.1162397 148.483829,21.8512753 149.750488,21.6832491 L149.750488,21.6832491 L151.863741,21.4118222 C152.509995,21.3342716 153.169175,21.2050207 153.84128,21.0240694 C154.513385,20.8431181 155.062701,20.616929 155.489229,20.3455021 L155.489229,20.3455021 L155.489229,23.1567096 C155.489229,25.3022748 154.519847,26.8468233 152.581083,27.790355 C151.43075,28.3590591 150.241642,28.6434111 149.013758,28.6434111 Z M168.188132,30.9117647 L168.188132,19.8995864 C168.188132,17.2240924 168.727754,15.3758042 169.807,14.354722 C170.886245,13.3336397 172.085047,12.8230986 173.403406,12.8230986 C174.851017,12.8230986 175.839786,13.3077895 176.369715,14.2771714 C176.705767,14.923426 176.873794,15.9509708 176.873794,17.3598058 L176.873794,17.3598058 L176.873794,30.9117647 L180.421731,30.9117647 L180.421731,18.8332663 C180.421731,16.6877011 180.916116,15.1560777 181.904886,14.2383961 C182.893655,13.3207146 184.07307,12.8618739 185.44313,12.8618739 C186.438362,12.8618739 187.281724,13.1203757 187.973216,13.6373794 C188.664709,14.154383 189.010455,15.1043773 189.010455,16.4873621 L189.010455,16.4873621 L189.010455,30.9117647 L192.635943,30.9117647 L192.635943,17.0883789 C192.635943,15.2530159 192.364516,13.7924805 191.821662,12.7067727 C190.813505,10.6904584 188.913517,9.68230124 186.121697,9.68230124 C184.816263,9.68230124 183.640079,9.9504969 182.593147,10.4868882 C181.546214,11.0232795 180.634995,11.8472541 179.85949,12.958812 C179.394187,12.0540556 178.877183,11.3690257 178.308479,10.9037224 C177.300322,10.0894416 175.969037,9.68230124 174.314625,9.68230124 C172.85409,9.68230124 171.548656,10.0765165 170.398323,10.8649472 C169.726218,11.3302505 168.976563,12.0734432 168.149357,13.0945255 L168.149357,13.0945255 L168.149357,10.1476045 L164.698357,10.1476045 L164.698357,30.9117647 L168.188132,30.9117647 Z M200.992015,39.1902861 L200.992015,28.5852482 C201.754596,29.5287799 202.446088,30.1944221 203.066492,30.5821749 C204.12635,31.2672047 205.438247,31.6097197 207.002183,31.6097197 C208.992647,31.6097197 210.737534,30.9957778 212.236845,29.7678941 C214.602137,27.8291303 215.784783,24.5978573 215.784783,20.0740751 C215.784783,16.7264763 214.96404,14.1511518 213.322553,12.3481014 C211.681066,10.5450511 209.684139,9.64352597 207.331773,9.64352597 C205.741986,9.64352597 204.359002,10.0312787 203.182818,10.8067842 C202.355612,11.3237879 201.593032,12.0540556 200.895077,12.9975873 L200.895077,12.9975873 L200.895077,10.2445427 L197.50224,10.2445427 L197.50224,39.1902861 L200.992015,39.1902861 Z M206.53688,28.5658605 C204.132813,28.5658605 202.478401,27.4930779 201.573644,25.3475126 C201.095416,24.2230296 200.856302,22.8594324 200.856302,21.256721 C200.856302,19.2662569 201.095416,17.6247702 201.573644,16.332261 C202.465476,13.9152688 204.119887,12.7067727 206.53688,12.7067727 C208.940947,12.7067727 210.595358,13.8506434 211.500115,16.1383847 C211.978343,17.3274931 212.217457,18.7492532 212.217457,20.403665 C212.217457,23.1179343 211.677835,25.1568675 210.59859,26.5204647 C209.519345,27.8840619 208.165441,28.5658605 206.53688,28.5658605 Z M226.700023,31.4740062 C228.600011,31.4740062 230.215648,30.9311523 231.546932,29.8454446 C232.219037,29.3025908 232.781279,28.6369485 233.233657,27.8485179 L233.233657,27.8485179 L233.194882,30.9117647 L236.49078,30.9117647 L236.49078,10.1476045 L233.001005,10.1476045 L233.001005,20.3455021 C233.001005,22.3747415 232.761891,23.9709903 232.283663,25.1342486 C231.404756,27.3056641 229.750345,28.3913718 227.320427,28.3913718 C225.62724,28.3913718 224.470445,27.7709674 223.85004,26.5301585 C223.513988,25.8580538 223.345962,24.9920726 223.345962,23.9322151 L223.345962,23.9322151 L223.345962,10.1476045 L219.778636,10.1476045 L219.778636,24.2618049 C219.778636,26.0325425 220.069451,27.4478401 220.65108,28.5076976 C221.723863,30.4852367 223.740177,31.4740062 226.700023,31.4740062 Z M249.286621,31.7066579 C252.155991,31.7066579 254.291863,31.0345531 255.694235,29.6903435 C257.096608,28.346134 257.797794,26.7498851 257.797794,24.901597 C257.797794,22.9886834 257.119227,21.5863109 255.762092,20.6944795 C254.909036,20.1257755 253.228774,19.5376838 250.721306,18.9302045 L250.721306,18.9302045 L248.414177,18.367963 C247.40602,18.1223863 246.64344,17.8380342 246.126436,17.5149069 C245.234605,16.9720531 244.788689,16.2482479 244.788689,15.3434915 C244.788689,14.5162856 245.127973,13.8506434 245.80654,13.3465648 C246.485107,12.8424862 247.483571,12.5904469 248.80193,12.5904469 C250.779469,12.5904469 252.168917,13.0492877 252.970272,13.9669692 C253.461426,14.6132238 253.739315,15.3305664 253.803941,16.118997 L253.803941,16.118997 L257.099839,16.118997 C257.125689,14.7747875 256.705624,13.5210535 255.839643,12.3577953 C254.456658,10.5224322 252.201229,9.60475069 249.073357,9.60475069 C246.682215,9.60475069 244.778995,10.21223 243.363698,11.4271886 C241.9484,12.6421473 241.240751,14.2319336 241.240751,16.1965476 C241.240751,17.8638844 241.990407,19.1693187 243.489717,20.1128504 C244.329848,20.6557043 245.635283,21.1468578 247.40602,21.5863109 L247.40602,21.5863109 L250.178452,22.2842659 C251.664838,22.6590935 252.66007,22.9886834 253.164149,23.2730354 C253.952579,23.7383387 254.346795,24.416906 254.346795,25.3087374 C254.346795,26.4849207 253.855641,27.3541332 252.873334,27.9163747 C251.891027,28.4786162 250.753619,28.7597369 249.46111,28.7597369 C247.289694,28.7597369 245.764534,28.1974954 244.885627,27.0730124 C244.407399,26.452608 244.116584,25.5607767 244.013184,24.3975184 L244.013184,24.3975184 L240.659122,24.3975184 C240.749598,26.4655331 241.437859,28.2007267 242.723906,29.6030991 C244.009952,31.0054716 246.197524,31.7066579 249.286621,31.7066579 Z M132.689367,69.0294118 L132.689367,65.6365751 L118.264964,65.6365751 L118.264964,40.5489717 L114.406824,40.5489717 L114.406824,69.0294118 L132.689367,69.0294118 Z M139.571978,44.5040499 L139.571978,40.5489717 L136.024041,40.5489717 L136.024041,44.5040499 L139.571978,44.5040499 Z M139.571978,69.0294118 L139.571978,48.3621898 L136.024041,48.3621898 L136.024041,69.0294118 L139.571978,69.0294118 Z M153.880055,69.0294118 L161.712661,48.2652516 L157.893296,48.2652516 L152.096392,65.1712718 L146.551528,48.2652516 L142.499512,48.2652516 L150.157629,69.0294118 L153.880055,69.0294118 Z M172.80239,69.766142 C173.862247,69.766142 174.812241,69.6627413 175.652372,69.4559398 C177.216309,69.0940372 178.528205,68.3960823 179.588063,67.3620749 C180.221392,66.7675207 180.793328,66.001709 181.303869,65.0646398 C181.81441,64.1275707 182.114918,63.2777459 182.205394,62.5151654 L182.205394,62.5151654 L178.773782,62.5151654 C178.51528,63.432847 178.075827,64.2406652 177.455423,64.9386202 C176.369715,66.1406537 174.915642,66.7416705 173.093204,66.7416705 C171.141515,66.7416705 169.700368,66.1051097 168.769761,64.8319882 C167.839154,63.5588666 167.341538,61.8689108 167.276913,59.7621209 L167.276913,59.7621209 L182.496209,59.7621209 C182.496209,57.668256 182.392808,56.1430951 182.186006,55.1866383 C181.953355,53.7907284 181.488051,52.5693072 180.790097,51.5223748 C180.066291,50.423742 179.012896,49.5286793 177.629912,48.8371869 C176.246927,48.1456945 174.818704,47.7999483 173.345244,47.7999483 C170.424173,47.7999483 168.058881,48.8404182 166.249368,50.921358 C164.439855,53.0022978 163.535099,55.7101045 163.535099,59.0447783 C163.535099,62.4311523 164.433393,65.0646398 166.22998,66.9452407 C168.026568,68.8258416 170.217371,69.766142 172.80239,69.766142 Z M178.909496,56.9896886 L167.373851,56.9896886 C167.438477,55.206026 168.013643,53.7357968 169.099351,52.579001 C170.185059,51.4222053 171.529268,50.8438074 173.13198,50.8438074 C175.36802,50.8438074 176.964269,51.6839384 177.920726,53.3642004 C178.43773,54.2689568 178.76732,55.4774529 178.909496,56.9896886 L178.909496,56.9896886 Z" id="CampusLive" fill-rule="nonzero"></path>
        </g>
    </g>
</svg>