<?xml version="1.0" encoding="UTF-8"?>
<svg width="270px" height="102px" viewBox="0 0 270 102" version="1.1" xmlns="http://www.w3.org/2000/svg" xmlns:xlink="http://www.w3.org/1999/xlink">
    <!-- Generator: Sketch 64 (93537) - https://sketch.com -->
    <title>ce</title>
    <desc>Created with Sketch.</desc>
    <g id="ce" stroke="none" stroke-width="1" fill="none" fill-rule="evenodd">
        <g id="Group" transform="translate(2.000000, 28.000000)" fill="#1F1F20" fill-rule="nonzero">
            <path d="M86.0708776,2.8841835 C86.0708776,3.43438619 85.874482,3.90849169 85.4761229,4.29798913 C85.0828256,4.69149169 84.6029724,4.88624041 84.0466869,4.88624041 C83.4853397,4.88624041 83.0059927,4.69149169 82.6126953,4.29798913 C82.2143362,3.90899233 82.0179406,3.43438619 82.0179406,2.8841835 C82.0179406,2.32897442 82.2148424,1.85937468 82.6126953,1.46587212 C83.0059927,1.07687532 83.4853397,0.882126598 84.0466869,0.882126598 C84.6029724,0.882126598 85.0828256,1.07687532 85.4761229,1.46587212 C85.874482,1.85937468 86.0708776,2.32897442 86.0708776,2.8841835 L86.0708776,2.8841835 Z M85.7975436,2.8841835 C85.7975436,2.40006522 85.6249381,1.98753836 85.2842829,1.65060806 C84.9390721,1.30917199 84.5265401,1.13845396 84.0466869,1.13845396 C83.5622782,1.13845396 83.1497462,1.30917199 82.8045354,1.65060806 C82.4638801,1.98753836 82.2912747,2.40006522 82.2912747,2.8841835 C82.2912747,3.36780115 82.4638801,3.77582225 82.8045354,4.11725831 C83.1497462,4.45919501 83.5622782,4.6294124 84.0466869,4.6294124 C84.5265401,4.6294124 84.9390721,4.45869437 85.2842829,4.11725831 C85.6254443,3.77582225 85.7975436,3.36780115 85.7975436,2.8841835 L85.7975436,2.8841835 Z M85.2078506,3.90398593 L84.6753553,3.90398593 L84.0132794,3.08343798 L83.7257725,3.08343798 L83.7257725,3.90398593 L83.3370306,3.90398593 L83.3370306,1.78327749 L83.9940448,1.78327749 C84.1383044,1.78327749 84.253206,1.78828389 84.3397618,1.79779604 C84.4258114,1.81181394 84.5123672,1.84035038 84.598923,1.88791113 C84.6945899,1.94498402 84.7619111,2.00656266 84.8049359,2.08265985 C84.8479607,2.15375064 84.8671953,2.24887212 84.8671953,2.36702302 C84.8671953,2.51871675 84.8241705,2.64688043 84.7376147,2.74650767 C84.6515651,2.84613491 84.5361574,2.9222321 84.3974656,2.97880435 L85.2078506,3.90398593 Z M84.4404905,2.39055307 C84.4404905,2.33398082 84.4308731,2.28141368 84.4116385,2.24386573 C84.3924039,2.20131138 84.3589964,2.16326279 84.3159716,2.13472634 C84.2729468,2.11119629 84.2294158,2.09217199 84.1813293,2.0871656 C84.1332427,2.07765345 84.0709833,2.0731477 83.9940448,2.0731477 L83.7257725,2.0731477 L83.7257725,2.78956266 L83.9560817,2.78956266 C84.0330202,2.78956266 84.0998352,2.78005051 84.1671564,2.76603261 C84.2344775,2.75201471 84.2871197,2.72798402 84.3255889,2.69043606 C84.3686137,2.65739386 84.3974656,2.61433887 84.4116385,2.57178453 C84.4308731,2.52372315 84.4404905,2.46164386 84.4404905,2.39055307 L84.4404905,2.39055307 Z" id="Shape"></path>
            <path d="M6.64505523,23.0038792 C6.64505523,32.3803542 22.2175053,39.981562 41.4273233,39.981562 C60.6371413,39.981562 76.2100976,32.3798536 76.2100976,23.0038792 C76.2100976,13.6274041 60.6376475,6.02619629 41.4273233,6.02619629 C22.2169991,6.02619629 6.64505523,13.6274041 6.64505523,23.0038792 L6.64505523,23.0038792 Z M69.151498,45.6287743 L12.6498001,45.6287743 C5.66358341,45.6287743 0,40.0266196 0,33.1172954 L0,13.0992295 C0,6.18940473 5.66358341,0.587750639 12.6498001,0.587750639 L69.151498,0.587750639 C76.1377146,0.587750639 81.801298,6.18940473 81.801298,13.0992295 L81.801298,33.1172954 C81.801298,40.0266196 76.1377146,45.6287743 69.151498,45.6287743 L69.151498,45.6287743 Z" id="Shape"></path>
            <path d="M58.5608147,14.6642283 C62.2407013,15.7866618 65.1319685,17.6285141 66.7390716,19.567991 L73.1897559,19.5980294 C72.6992731,18.6653382 71.9977156,17.7471656 71.0881206,16.847016 C66.5072438,12.3167302 57.5221452,9.13516688 47.2756603,8.24002366 L35.9788639,33.625945 C25.3178224,32.3448088 17.50148,28.1569604 17.50148,23.1886151 C17.50148,17.2029706 28.8483876,12.350273 42.8446111,12.350273 C43.1275625,12.350273 43.4089954,12.3522756 43.6894159,12.3562807 L45.5890878,8.11436317 C44.1991334,8.0282532 42.7899443,7.98419693 41.3686071,7.98419693 C28.7587948,7.98419693 17.0935036,11.46314 11.6495998,16.8475166 C9.68868085,18.7874942 8.6940485,20.816085 8.6940485,22.8772174 C8.6940485,24.9373485 9.68868085,26.9664399 11.6495998,28.9054162 C17.0935036,34.2902935 28.7587948,37.7692366 41.3686071,37.7692366 C56.2536725,37.7692366 69.1975598,32.952585 72.9498294,26.6230013 L66.9334425,26.566429 C64.5944114,29.6203293 58.9728405,32.5731004 52.17897,33.2294386 L52.17897,33.2294386 C41.3802491,33.7095518 43.1133896,25.4374872 52.12076,25.0665134 L73.6468313,25.0735224 C73.8933381,24.3531023 74.0431657,23.6236707 74.0431657,22.8772174 C74.0431657,22.2444092 73.8806838,21.6196113 73.6944117,20.9953139 L55.5996954,21.0003203 C46.4288308,20.9998197 48.9678007,11.0150678 58.5608147,14.6642283 L58.5608147,14.6642283 L58.5608147,14.6642283 Z" id="Shape"></path>
            <path d="M101.554241,6.65199552 C101.478821,5.52605754 101.32545,3.40484847 98.0424042,3.40484847 C96.1356459,3.40484847 93.059119,4.66195396 91.9161776,9.97824361 C91.1903238,13.3565582 91.8878318,16.394438 95.2508534,16.394438 C97.4486619,16.394438 99.2486174,15.1638664 100.220472,12.8589226 L104.192421,12.8589226 C102.519515,16.94414 99.2055926,19.7982852 94.4394561,19.7982852 C89.3817632,19.7982852 86.4803726,16.4199706 87.8764011,9.92567647 C89.2886272,3.35228133 93.8487508,0 98.7469988,0 C104.43994,0 105.910376,3.87595013 105.525684,6.65199552 L101.554241,6.65199552 L101.554241,6.65199552 Z" id="Shape"></path>
            <path d="M109.911684,9.89914258 C111.042983,4.63491944 114.342733,3.32574744 116.487899,3.32574744 C118.632559,3.32574744 121.36995,4.63542008 120.23865,9.89914258 C119.107351,15.1628651 115.807601,16.4720372 113.662435,16.4720372 C111.517774,16.4725377 108.780384,15.1633657 109.911684,9.89914258 L109.911684,9.89914258 Z M105.939735,9.89914258 C104.0431,18.7244137 110.432031,19.7977845 112.94721,19.7977845 C115.46239,19.7977845 122.312952,18.723913 124.209587,9.89914258 C126.106728,1.07387148 119.717797,0 117.202617,0 C114.686931,0 107.836369,1.07387148 105.939735,9.89914258 L105.939735,9.89914258 Z" id="Shape"></path>
            <polygon id="Shape" points="142.551822 19.3011503 138.844602 19.3011503 142.221797 3.58808248 142.168649 3.58808248 135.243679 19.3011503 131.351199 19.3011503 131.259582 3.58808248 131.206433 3.58808248 127.829745 19.3011503 124.122525 19.3011503 128.16382 0.49763555 133.962552 0.49763555 134.219182 15.3205665 134.272331 15.3205665 140.847028 0.49763555 146.592611 0.49763555"></polygon>
            <path d="M151.432649,9.27084015 L152.62064,3.74528325 L155.771575,3.74528325 C158.234112,3.74528325 159.10372,4.5047532 158.709916,6.33809463 C158.529718,7.17566432 158.079729,9.27084015 155.114054,9.27084015 L151.432649,9.27084015 L151.432649,9.27084015 Z M150.735141,12.5179872 L155.289191,12.5179872 C160.400032,12.5179872 162.275913,8.22300192 162.641371,6.52082801 C163.435052,2.82811189 161.712035,0.49763555 158.031643,0.49763555 L149.346705,0.49763555 L145.305916,19.3011503 L149.277866,19.3011503 L150.735141,12.5179872 L150.735141,12.5179872 Z" id="Shape"></path>
            <path d="M170.597924,4.74005371 L170.650566,4.74005371 L171.408815,12.1775524 L166.563209,12.1775524 L170.597924,4.74005371 L170.597924,4.74005371 Z M164.806785,15.4252001 L171.823372,15.4252001 L172.20857,19.3011503 L176.524212,19.3011503 L173.866291,0.49763555 L169.285414,0.49763555 L158.46594,19.3011503 L162.64947,19.3011503 L164.806785,15.4252001 L164.806785,15.4252001 Z" id="Shape"></path>
            <polygon id="Shape" points="184.123912 19.3011503 180.152469 19.3011503 183.478539 3.82338299 177.732956 3.82338299 178.447674 0.49763555 193.91079 0.49763555 193.196072 3.82338299 187.449982 3.82338299"></polygon>
            <polygon id="Shape" points="194.821398 19.3011503 190.849448 19.3011503 194.890237 0.49763555 198.862186 0.49763555"></polygon>
            <path d="M203.060395,11.0255812 L208.118088,11.0255812 C209.547524,11.0255812 210.842318,11.6538836 210.487996,13.3034904 C210.076983,15.2154322 208.785226,16.0535026 206.85164,16.0535026 L201.979714,16.0535026 L203.060395,11.0255812 L203.060395,11.0255812 Z M197.469195,19.3011503 L205.518378,19.3011503 C209.410351,19.3011503 210.584169,18.6463139 211.89516,17.5984757 C213.109472,16.6297385 214.048932,15.2154322 214.369846,13.7225256 C214.769218,11.8631509 214.554094,10.0303101 212.40994,9.16570588 C213.288658,8.77270396 214.987885,8.01373465 215.567454,5.315789 C215.98353,3.37781394 215.411047,0.49713491 210.751207,0.49713491 L201.509984,0.49713491 L197.469195,19.3011503 L197.469195,19.3011503 Z M204.625486,3.74478261 L209.179536,3.74478261 C210.980504,3.74478261 211.990827,4.21588427 211.658777,5.76135806 C211.337863,7.25376407 209.9636,7.85653389 208.401546,7.85653389 L203.7412,7.85653389 L204.625486,3.74478261 L204.625486,3.74478261 Z" id="Shape"></path>
            <polygon id="Shape" points="220.230838 15.8963018 229.683641 15.8963018 228.951713 19.3011503 215.527467 19.3011503 219.568256 0.49763555 223.540205 0.49763555"></polygon>
            <polygon id="Shape" points="247.952988 3.82338299 237.865441 3.82338299 237.015069 7.7779335 246.283119 7.7779335 245.567895 11.1036809 236.300351 11.1036809 235.253582 15.9749022 245.79213 15.9749022 245.077412 19.3011503 230.646891 19.3011503 234.687173 0.49763555 248.668212 0.49763555"></polygon>
            <polygon id="Shape" points="104.01526 30.0118293 93.9272078 30.0118293 93.0773413 33.9663798 102.344885 33.9663798 101.630167 37.2926279 92.3626233 37.2926279 91.315855 42.1633485 101.854402 42.1633485 101.139684 45.4895965 86.7086572 45.4895965 90.749446 26.6865825 104.730484 26.6865825"></polygon>
            <polygon id="Shape" points="108.014543 42.0852487 117.46684 42.0852487 116.735418 45.4895965 103.310666 45.4895965 107.351454 26.6865825 111.323404 26.6865825"></polygon>
            <polygon id="Shape" points="135.736693 30.0118293 125.648134 30.0118293 124.798268 33.9663798 134.065812 33.9663798 133.351094 37.2926279 124.08355 37.2926279 123.036781 42.1633485 133.575329 42.1633485 132.860105 45.4895965 118.43009 45.4895965 122.470879 26.6865825 136.451411 26.6865825"></polygon>
            <path d="M149.877682,32.8409425 C149.801756,31.7145038 149.648891,29.5937954 146.365339,29.5937954 C144.459087,29.5937954 141.382054,30.8504003 140.239619,36.1666899 C139.513259,39.5450045 140.210767,42.5828843 143.573788,42.5828843 C145.771597,42.5828843 147.571552,41.351812 148.543407,39.0468683 L152.515356,39.0468683 C150.842956,43.133087 147.528527,45.9872321 142.762391,45.9872321 C137.705204,45.9872321 134.803307,42.6089175 136.199336,36.1141228 C137.612068,29.540227 142.171686,26.1884463 147.07044,26.1884463 C152.763381,26.1884463 154.233817,30.0643964 153.849631,32.8404418 L149.877682,32.8404418 L149.877682,32.8409425 Z" id="Shape"></path>
            <polygon id="Shape" points="161.165367 45.4895965 157.19443 45.4895965 160.520501 30.0118293 154.773905 30.0118293 155.489129 26.6865825 170.952752 26.6865825 170.237528 30.0118293 164.491944 30.0118293"></polygon>
            <path d="M174.36386,34.9616509 L175.445048,29.9337295 L180.395938,29.9337295 C182.726365,29.9337295 182.861007,31.4006029 182.646895,32.395874 C182.247524,34.2547481 181.089397,34.9616509 179.024206,34.9616509 L174.36386,34.9616509 L174.36386,34.9616509 Z M168.208782,45.4895965 L172.100755,45.4895965 L173.68255,38.1306982 L177.78661,38.1306982 C180.725458,38.1306982 180.670285,39.1259693 180.118555,41.6917462 C179.70248,43.6297212 179.652875,44.5989591 179.726776,45.4895965 L184.121887,45.4895965 L184.229196,44.991961 C183.449687,44.6780601 183.595466,43.9966899 184.186677,41.2471784 C184.940371,37.7376963 184.217554,37.161961 182.801278,36.4810914 C184.816358,35.8522884 186.258448,34.0715141 186.702869,32.0028721 C187.051623,30.378798 186.919006,26.6865825 181.861313,26.6865825 L172.250077,26.6865825 L168.208782,45.4895965 L168.208782,45.4895965 Z" id="Shape"></path>
            <path d="M191.411808,36.0880895 C192.543107,30.824367 195.843363,29.5141937 197.987517,29.5141937 C200.132178,29.5141937 202.870074,30.824367 201.738268,36.0880895 C200.607475,41.351812 197.307219,42.660984 195.162559,42.660984 C193.017899,42.660984 190.281015,41.351812 191.411808,36.0880895 L191.411808,36.0880895 Z M187.440365,36.0880895 C185.544236,44.9138613 191.932661,45.9872321 194.448347,45.9872321 C196.964033,45.9872321 203.814089,44.9133606 205.710724,36.0880895 C207.607359,27.2628184 201.218427,26.1889469 198.702742,26.1889469 C196.187562,26.1889469 189.337,27.2623178 187.440365,36.0880895 L187.440365,36.0880895 Z" id="Shape"></path>
            <polygon id="Shape" points="221.446668 26.6865825 225.153888 26.6865825 221.113099 45.4895965 217.14115 45.4895965 212.264668 32.0809719 212.211519 32.0809719 209.330376 45.4895965 205.623156 45.4895965 209.664451 26.6865825 213.847981 26.6865825 218.579697 39.780305 218.633352 39.780305"></polygon>
            <polygon id="Shape" points="227.520759 45.4895965 223.549316 45.4895965 227.589598 26.6865825 231.561548 26.6865825"></polygon>
            <path d="M245.01414,32.8409425 C244.93872,31.7145038 244.785349,29.5937954 241.502303,29.5937954 C239.595545,29.5937954 236.518512,30.8504003 235.376077,36.1666899 C234.649717,39.5450045 235.347731,42.5828843 238.710246,42.5828843 C240.908561,42.5828843 242.70801,41.351812 243.680371,39.0468683 L247.65232,39.0468683 C245.979414,43.133087 242.665492,45.9872321 237.899355,45.9872321 C232.841662,45.9872321 229.940272,42.6089175 231.335794,36.1141228 C232.748526,29.540227 237.308144,26.1884463 242.206898,26.1884463 C247.899839,26.1884463 249.370275,30.0643964 248.986089,32.8404418 L245.01414,32.8404418 L245.01414,32.8409425 Z" id="Shape"></path>
            <path d="M252.303555,39.7022052 C252.104629,40.7495428 252.206876,42.740085 255.675182,42.740085 C257.555619,42.740085 259.742798,42.2940153 260.170515,40.3044744 C260.485861,38.837601 259.14045,38.4445991 257.229136,37.9734974 L255.291501,37.5023958 C252.371889,36.795493 249.552498,36.115124 250.441846,31.9768389 C250.892341,29.8811624 252.824408,26.1889469 258.994166,26.1889469 C264.819725,26.1889469 265.570888,29.9602634 265.10217,32.2652072 L261.289666,32.2652072 C261.363567,31.4271368 261.473407,29.4365946 258.005101,29.4365946 C256.496196,29.4365946 254.57729,29.9862967 254.210819,31.6884706 C253.895979,33.155344 255.046513,33.4702462 255.801725,33.6529795 L260.193799,34.7794182 C262.653299,35.4082212 264.81112,36.4555588 264.085266,39.8338734 C262.869436,45.4905978 256.93758,45.9882334 255.26923,45.9882334 C248.331606,45.9882334 247.989938,42.0341835 248.491051,39.7027059 L252.303555,39.7027059 L252.303555,39.7022052 Z" id="Shape"></path>
        </g>
    </g>
</svg>