<?xml version="1.0" encoding="UTF-8"?>
<svg width="270px" height="102px" viewBox="0 0 270 102" version="1.1" xmlns="http://www.w3.org/2000/svg" xmlns:xlink="http://www.w3.org/1999/xlink">
    <!-- Generator: Sketch 64 (93537) - https://sketch.com -->
    <title>certsU</title>
    <desc>Created with Sketch.</desc>
    <g id="certsU" stroke="none" stroke-width="1" fill="none" fill-rule="evenodd">
        <g id="Group" transform="translate(6.000000, 5.000000)" fill="#1F1F20">
            <path d="M40.0871197,10.4991505 C38.3094281,8.23748054 35.9737225,6.40205698 33.0810824,4.99362302 C30.1875426,3.58518907 27.2940028,2.88097209 24.4013627,2.88097209 C21.5493905,2.88097209 18.8312985,3.46812925 16.2485263,4.64151453 C13.6650344,5.81582886 11.3914103,7.44834874 9.42873372,9.53888837 C7.46515744,11.6303571 5.92589503,14.0200495 4.8098668,16.7088949 C3.69383857,19.3977402 3.13582446,22.1934259 3.13582446,25.0952086 C3.13582446,27.8700836 3.68322173,30.5477804 4.77873606,33.1295997 C5.87335065,35.712348 7.41369274,38.0059771 9.39760297,40.0116019 C11.4221811,42.0181557 13.7578868,43.6287501 16.4034603,44.8450574 C19.0481341,46.0613646 21.7140416,46.6695182 24.4011827,46.6695182 C25.7651773,46.6695182 27.1804565,46.4883542 28.6481002,46.1252829 C30.1146643,45.7631408 31.561974,45.2510505 32.9880501,44.5888264 C34.4139462,43.9275314 35.7469899,43.1482475 36.9870013,42.2520896 C38.2270126,41.3559317 39.2595457,40.3746731 40.0871197,39.3071991 L40.0871197,43.5323152 C37.8550632,45.4528393 35.4158883,46.9363402 32.7712145,47.9815171 C30.125641,49.0268799 27.377318,49.5499328 24.5255258,49.5499328 C21.3422721,49.5499328 18.2732844,48.90982 15.3187428,47.6294086 C12.3631214,46.3489972 9.74849866,44.5564956 7.47595423,42.2519038 C5.20233013,39.9473119 3.41510143,37.3013885 2.11318846,34.3135761 C0.811275491,31.3266927 0.160229032,28.1679358 0.160229032,24.8389777 C0.160229032,21.4680267 0.800658647,18.2771248 2.08223766,15.2683159 C3.36291695,12.2595071 5.14060848,9.60262094 7.41405264,7.29802908 C9.68659706,4.99343721 12.3012198,3.20093558 15.2568412,1.92052419 C18.2113828,0.640112793 21.3219381,-3.71279477e-14 24.5876073,-3.71279477e-14 C27.3978319,-3.71279477e-14 30.1673886,0.555197975 32.8953776,1.66447907 C35.6233666,2.77487502 38.0198942,4.31133153 40.0871197,6.27384861 L40.0871197,10.4991505 L40.0871197,10.4991505 Z" id="Path"></path>
            <polygon id="Path" points="51.7424348 3.52108488 51.7424348 21.0620335 70.5898519 21.0620335 70.5898519 23.9428198 51.7424348 23.9428198 51.7424348 46.0292196 71.0859644 46.0292196 71.0859644 48.9100058 48.7666594 48.9100058 48.7666594 0.640484411 71.0859644 0.640484411 71.0859644 3.52127069 51.7424348 3.52127069"></polygon>
            <path d="M86.0265629,0.640484411 C88.5065857,0.640484411 90.5523975,0.779469714 92.1643583,1.05651127 C93.7763191,1.33466769 95.2846307,2.00673967 96.6901929,3.07309883 C98.3021537,4.22548767 99.4898006,5.70880274 100.255113,7.52230082 C101.019526,9.33691374 101.402092,11.3103936 101.402092,13.4440409 C101.402092,17.4991415 100.182415,20.6140475 97.7441396,22.7906168 C95.3047847,24.9671861 92.0607091,26.0556565 88.0104732,26.0556565 L103.324281,48.9100058 L99.9142944,48.9100058 L84.6627484,26.0554707 L83.1747707,26.0554707 L83.1747707,48.9100058 L80.1988154,48.9100058 L80.1988154,0.640484411 L86.0265629,0.640484411 Z M85.0967793,3.52127069 L83.1747707,3.52127069 L83.1747707,23.1748702 L86.9567064,23.1748702 C88.8166335,23.1748702 90.3762299,23.0366282 91.6376549,22.7586576 C92.8980002,22.481616 94.0653132,21.8732766 95.1404936,20.9341968 C96.2147742,20.037853 97.0313714,18.9176092 97.5893856,17.5732794 C98.1473997,16.2289497 98.4263168,14.810482 98.4263168,13.3160184 C98.4263168,11.4384161 98.0020029,9.69905593 97.1553546,8.09849523 C96.3078065,6.49812035 95.078412,5.33569781 93.4664512,4.60955535 C92.515074,4.14057285 91.4301766,3.84141999 90.2115788,3.71339744 C88.9919014,3.58537488 87.2870882,3.52127069 85.0967793,3.52127069 Z" id="Combined-Shape" fill-rule="nonzero"></path>
            <polygon id="Path" points="119.691315 48.9100058 116.71536 48.9100058 116.71536 3.52108488 104.625654 3.52108488 104.625654 0.640484411 131.780841 0.640484411 131.780841 3.52127069 119.691135 3.52127069 119.691135 48.9100058"></polygon>
            <path d="M158.812225,8.57862628 C157.696197,6.74413177 156.363333,5.33569781 154.813274,4.35351023 C153.263215,3.37225169 151.434419,2.8811579 149.326345,2.8811579 C146.846503,2.8811579 144.758763,3.77750162 143.064567,5.57000325 C141.369291,7.36250488 140.522642,9.53907418 140.522642,12.099897 C140.522642,13.2522858 140.749375,14.287429 141.20464,15.2047692 C141.658825,16.1230384 142.268304,16.9121702 143.033436,17.5734652 C143.797849,18.2356893 144.593212,18.8007352 145.420426,19.2699035 C146.246921,19.7400008 147.300688,20.294084 148.582446,20.9343826 L148.954216,21.1263235 L157.881902,25.927634 C159.700261,27.0800228 161.043922,28.4353153 161.911984,29.9927683 C162.779866,31.5511503 163.213897,33.3966075 163.213897,35.5304407 C163.213897,37.4938868 162.820534,39.3293104 162.035787,41.0359682 C161.250321,42.7433692 160.165243,44.2369037 158.780915,45.5171293 C157.395687,46.7975407 155.825293,47.789762 154.069015,48.493979 C152.311658,49.198196 150.482682,49.5503045 148.582267,49.5503045 C145.399013,49.5503045 142.588608,48.6119678 140.150513,46.7336224 C137.711158,44.8560201 135.934546,42.338305 134.818698,39.1793623 L137.422704,37.9630551 C138.455237,40.6519005 139.923061,42.7753284 141.824555,44.3327813 C143.72515,45.8913491 146.019109,46.6695182 148.70625,46.6695182 C150.234895,46.6695182 151.691922,46.3813281 153.07715,45.8053194 C154.461479,45.229125 155.690693,44.418811 156.766054,43.3725192 C157.840334,42.3273423 158.688062,41.1000723 159.307978,39.6914526 C159.927894,38.2828328 160.237942,36.8106663 160.237942,35.2742098 C160.237942,34.0798281 159.989975,33.0015771 159.493863,32.041315 C158.99793,31.0810529 158.347064,30.2488134 157.540903,29.5445964 C156.734923,28.8403794 155.887375,28.2221921 154.998979,27.6881764 C154.109683,27.1549039 153.004452,26.5677468 151.682025,25.927634 C151.268328,25.7146966 150.978794,25.5654918 150.814143,25.4794621 L142.38239,20.8700926 C139.158468,18.8215458 137.546507,15.9407595 137.546507,12.2275479 C137.546507,8.64254466 138.662535,5.70880274 140.894412,3.42502151 C143.126288,1.14235514 145.998595,-6.0995914e-14 149.51223,-6.0995914e-14 C151.86809,-6.0995914e-14 154.078733,0.608153606 156.145958,1.82446082 C158.212104,3.04076803 159.803731,4.69539921 160.919759,6.78593884 L158.812225,8.57862628 Z" id="Path"></path>
            <path d="M3.61290339,62.3174287 L0.863896885,62.3174287 L0.863896885,65.0615471 L0,65.0615471 L0,58.8487487 L4.05829656,58.8487487 L4.05829656,59.522464 L0.863896885,59.522464 L0.863896885,61.6476859 L3.61290339,61.6476859 L3.61290339,62.3174287 Z M10.1322967,62.1553557 C10.1322967,62.7647184 10.02432,63.2962225 9.80836675,63.751457 C9.59241347,64.2035135 9.28649362,64.5491104 8.89052343,64.7882475 C8.49455323,65.0273846 8.03265782,65.1465559 7.50475341,65.1465559 C6.98882779,65.1465559 6.53145583,65.0273846 6.13247,64.7882475 C5.73356794,64.5467269 5.42312463,64.2035135 5.20114007,63.7601962 C4.98217116,63.313701 4.86967106,62.7972919 4.86372355,62.210969 L4.86372355,61.7628848 C4.86372355,61.1654393 4.97320801,60.6379075 5.19217692,60.1794952 C5.41114584,59.7218773 5.72008133,59.3723081 6.11898339,59.1299931 C6.5209011,58.8852946 6.97986464,58.7629454 7.49579026,58.7629454 C8.02067903,58.7629454 8.48257445,58.8837057 8.88156028,59.1260207 C9.28347798,59.3651578 9.59241347,59.7131381 9.80836675,60.1715504 C10.02432,60.6267849 10.1322967,61.1567 10.1322967,61.7628848 L10.1322967,62.1553557 Z M9.27292324,61.7541456 C9.27292324,61.0176668 9.11694767,60.4527948 8.80499654,60.0603239 C8.49304542,59.6646751 8.05669917,59.4668507 7.49579026,59.4668507 C6.94987578,59.4668507 6.51939328,59.6646751 6.20451028,60.0603239 C5.89255915,60.4527948 5.73206012,60.9993939 5.7230132,61.6993268 L5.7230132,62.1553557 C5.7230132,62.8695892 5.88049659,63.4312834 6.19546336,63.8412327 C6.51344577,64.2480042 6.94987578,64.4513899 7.50475341,64.4513899 C8.06264668,64.4513899 8.49455323,64.2591268 8.80055685,63.8753951 C9.1064767,63.4884856 9.26396009,62.9347362 9.27292324,62.2149414 L9.27292324,61.7541456 Z M13.8307269,62.5478266 L12.2919132,62.5478266 L12.2919132,65.0615471 L11.4235766,65.0615471 L11.4235766,58.8487487 L13.5922401,58.8487487 C14.3300665,58.8487487 14.8970067,59.0076438 15.2929769,59.3262285 C15.691879,59.6448132 15.89133,60.1087869 15.89133,60.7173551 C15.89133,61.1042647 15.7803377,61.4419167 15.5584369,61.7287224 C15.339468,62.0163225 15.0334644,62.2308309 14.6405936,62.373042 L16.1793236,65.0107006 L16.1793236,65.0615471 L15.2524333,65.0615471 L13.8307269,62.5478266 Z M12.2919132,61.8780838 L13.6192133,61.8780838 C14.048188,61.8780838 14.3886202,61.773213 14.6405936,61.562677 C14.8954989,61.352141 15.0229934,61.0701022 15.0229934,60.7173551 C15.0229934,60.3336234 14.9015302,60.038873 14.6585199,59.8338984 C14.4186091,59.6297182 14.0706378,59.5256419 13.6146899,59.522464 L12.2919132,59.522464 L12.2919132,61.8780838 Z M23.0091601,63.4400226 L20.2645933,63.4400226 L19.6482302,65.0615471 L18.7573601,65.0615471 L21.2589166,58.8487487 L22.0148369,58.8487487 L24.5209169,65.0615471 L23.6345702,65.0615471 L23.0091601,63.4400226 Z M20.5255299,62.7655129 L22.7526633,62.7655129 L21.6368767,59.860116 L20.5255299,62.7655129 Z M26.2710766,64.3918042 L29.3755935,64.3918042 L29.3755935,65.0615471 L25.4027401,65.0615471 L25.4027401,58.8487487 L26.2710766,58.8487487 L26.2710766,64.3918042 Z M31.2292902,64.3918042 L34.3337233,64.3918042 L34.3337233,65.0615471 L30.3609536,65.0615471 L30.3609536,58.8487487 L31.2292902,58.8487487 L31.2292902,64.3918042 Z M39.6023802,61.9678595 L41.3120801,58.8487487 L42.2929168,58.8487487 L40.0342867,62.7440621 L40.0342867,65.0615471 L39.1704736,65.0615471 L39.1704736,62.7440621 L36.9118436,58.8487487 L37.9016434,58.8487487 L39.6023802,61.9678595 Z M48.0427357,62.1553557 C48.0427357,62.7647184 47.9346753,63.2962225 47.7193921,63.751457 C47.5032713,64.2035135 47.1966813,64.5491104 46.80113,64.7882475 C46.4052436,65.0273846 45.9432644,65.1465559 45.41536,65.1465559 C44.8994343,65.1465559 44.4420624,65.0273846 44.0431603,64.7882475 C43.6441745,64.5467269 43.3337312,64.2035135 43.1117466,63.7601962 C42.8927777,63.313701 42.7803614,62.7972919 42.7743301,62.210969 L42.7743301,61.7628848 C42.7743301,61.1654393 42.8838146,60.6379075 43.1027835,60.1794952 C43.3217524,59.7218773 43.6306879,59.3723081 44.02959,59.1299931 C44.4315914,58.8852946 44.8904712,58.7629454 45.4063968,58.7629454 C45.9312856,58.7629454 46.3932648,58.8837057 46.7921668,59.1260207 C47.1941683,59.3651578 47.5032713,59.7131381 47.7193921,60.1715504 C47.9346753,60.6267849 48.0427357,61.1567 48.0427357,61.7628848 L48.0427357,62.1553557 Z M47.1832785,61.7541456 C47.1832785,61.0176668 47.0274705,60.4527948 46.7156869,60.0603239 C46.4037357,59.6646751 45.9673057,59.4668507 45.4063968,59.4668507 C44.8604823,59.4668507 44.4300836,59.6646751 44.1151168,60.0603239 C43.8031657,60.4527948 43.6426667,60.9993939 43.6337035,61.6993268 L43.6337035,62.1553557 C43.6337035,62.8695892 43.7911869,63.4312834 44.1060699,63.8412327 C44.4240523,64.2480042 44.8604823,64.4513899 45.41536,64.4513899 C45.973337,64.4513899 46.4052436,64.2591268 46.7111634,63.8753951 C47.0174183,63.4884856 47.1749017,62.9347362 47.1832785,62.2149414 L47.1832785,61.7541456 Z M53.950038,58.8487487 L53.950038,63.0729749 C53.9475249,63.6592978 53.752346,64.1383665 53.365339,64.5109755 C52.9816827,64.8835845 52.4598095,65.0925316 51.7997196,65.1386112 L51.570196,65.1465559 C50.853144,65.1465559 50.2818478,64.9630321 49.8563076,64.5967789 C49.4299298,64.2297312 49.2146466,63.7244448 49.2079452,63.0817141 L49.2079452,58.8487487 L50.063214,58.8487487 L50.063214,63.0562909 C50.063214,63.5051696 50.1938917,63.8555333 50.4544094,64.105793 C50.7157648,64.3528749 51.0876937,64.4768131 51.570196,64.4768131 C52.0593997,64.4768131 52.4330039,64.3528749 52.6910086,64.105793 C52.9515263,63.8579167 53.082204,63.5099364 53.082204,63.0602633 L53.082204,58.8487487 L53.950038,58.8487487 Z M57.7162363,62.5478266 L56.1774226,62.5478266 L56.1774226,65.0615471 L55.3095887,65.0615471 L55.3095887,58.8487487 L57.4774982,58.8487487 C58.2154922,58.8487487 58.7825999,59.0076438 59.1788214,59.3262285 C59.5775559,59.6448132 59.7769232,60.1087869 59.7769232,60.7173551 C59.7769232,61.1042647 59.6663497,61.4419167 59.4443652,61.7287224 C59.2248937,62.0163225 58.9191413,62.2308309 58.5262706,62.373042 L60.0650843,65.0107006 L60.0650843,65.0615471 L59.1377752,65.0615471 L57.7162363,62.5478266 Z M56.1774226,61.8780838 L57.5051416,61.8780838 C57.9340325,61.8780838 58.2741296,61.773213 58.5262706,61.562677 C58.7809245,61.352141 58.9082515,61.0701022 58.9082515,60.7173551 C58.9082515,60.3336234 58.7867883,60.038873 58.5438618,59.8338984 C58.304286,59.6297182 57.9566498,59.5256419 57.5001155,59.522464 L56.1774226,59.522464 L56.1774226,61.8780838 Z M68.0958992,63.0904534 C68.0154821,63.7474846 67.7583151,64.2551544 67.3269112,64.6134629 C66.8980203,64.9693879 66.3267242,65.1465559 65.6121852,65.1465559 C64.8390088,65.1465559 64.217452,64.8835845 63.7500279,64.3576418 C63.2851169,63.8309045 63.0522425,63.1269992 63.0522425,62.2451315 L63.0522425,61.6476859 C63.0522425,61.0701022 63.1603029,60.5624324 63.3764237,60.1246764 C63.5950576,59.6861259 63.9041606,59.3508573 64.3028951,59.1172815 C64.7024673,58.8813222 65.1640277,58.7629454 65.6892515,58.7629454 C66.3845239,58.7629454 66.9424172,58.9480582 67.3629313,59.3182838 C67.7826078,59.684537 68.0272096,60.1937957 68.0958992,60.8452656 L67.2280652,60.8452656 C67.1526742,60.3503074 66.9893271,59.991999 66.7371862,59.7703403 C66.4883959,59.5486817 66.1390844,59.4374551 65.6892515,59.4374551 C65.137222,59.4374551 64.703305,59.6305126 64.3883382,60.0174222 C64.0767222,60.4043318 63.9209142,60.9549033 63.9209142,61.6691367 L63.9209142,62.2705547 C63.9209142,62.9450644 64.0691831,63.4813353 64.3665586,63.8793675 C64.6630965,64.2781942 65.0785846,64.4768131 65.6121852,64.4768131 C66.0921744,64.4768131 66.4599149,64.3743258 66.7145689,64.1693511 C66.9725736,63.961993 67.1434598,63.6020956 67.2280652,63.0904534 L68.0958992,63.0904534 Z M72.9820725,62.1895182 L70.1431832,62.1895182 L70.1431832,64.3918042 L73.4411198,64.3918042 L73.4411198,65.0615471 L69.2795376,65.0615471 L69.2795376,58.8487487 L73.3958852,58.8487487 L73.3958852,59.522464 L70.1431832,59.522464 L70.1431832,61.5197753 L72.9820725,61.5197753 L72.9820725,62.1895182 Z M76.9191571,62.5478266 L75.3803434,62.5478266 L75.3803434,65.0615471 L74.5116718,65.0615471 L74.5116718,58.8487487 L76.680419,58.8487487 C77.4184129,58.8487487 77.9855207,59.0076438 78.3817422,59.3262285 C78.7804767,59.6448132 78.979844,60.1087869 78.979844,60.7173551 C78.979844,61.1042647 78.8684328,61.4419167 78.6464483,61.7287224 C78.4278144,62.0163225 78.1220621,62.2308309 77.7291913,62.373042 L79.268005,65.0107006 L79.268005,65.0615471 L78.340696,65.0615471 L76.9191571,62.5478266 Z M75.3803434,61.8780838 L76.7072247,61.8780838 C77.1369533,61.8780838 77.4770504,61.773213 77.7291913,61.562677 C77.9838453,61.352141 78.1111723,61.0701022 78.1111723,60.7173551 C78.1111723,60.3336234 77.9897091,60.038873 77.7467826,59.8338984 C77.5072068,59.6297182 77.1587329,59.5256419 76.7030363,59.522464 L75.3803434,59.522464 L75.3803434,61.8780838 Z M84.3610847,59.522464 L82.2551633,59.522464 L82.2551633,65.0615471 L81.3957061,65.0615471 L81.3957061,59.522464 L79.2948107,59.522464 L79.2948107,58.8487487 L84.3610847,58.8487487 L84.3610847,59.522464 Z M86.2592621,65.0615471 L85.3956165,65.0615471 L85.3956165,58.8487487 L86.2592621,58.8487487 L86.2592621,65.0615471 Z M91.4562138,62.3174287 L88.706956,62.3174287 L88.706956,65.0615471 L87.8433104,65.0615471 L87.8433104,58.8487487 L91.9018582,58.8487487 L91.9018582,59.522464 L88.706956,59.522464 L88.706956,61.6476859 L91.4562138,61.6476859 L91.4562138,62.3174287 Z M93.8628615,65.0615471 L92.9992159,65.0615471 L92.9992159,58.8487487 L93.8628615,58.8487487 L93.8628615,65.0615471 Z M100.266069,63.0904534 C100.184814,63.7474846 99.9284848,64.2551544 99.4962432,64.6134629 C99.0673522,64.9693879 98.4960561,65.1465559 97.7823548,65.1465559 C97.0083408,65.1465559 96.3876217,64.8835845 95.9193599,64.3576418 C95.4544489,63.8309045 95.2224122,63.1269992 95.2224122,62.2451315 L95.2224122,61.6476859 C95.2224122,61.0701022 95.3296349,60.5624324 95.5457557,60.1246764 C95.7652272,59.6861259 96.0734926,59.3508573 96.4730648,59.1172815 C96.8717993,58.8813222 97.3333597,58.7629454 97.8585835,58.7629454 C98.5546936,58.7629454 99.1125868,58.9480582 99.5322633,59.3182838 C99.9519398,59.684537 100.196542,60.1937957 100.266069,60.8452656 L99.3973972,60.8452656 C99.3220062,60.3503074 99.1586591,59.991999 98.9065181,59.7703403 C98.6577279,59.5486817 98.3084164,59.4374551 97.8585835,59.4374551 C97.306554,59.4374551 96.8734747,59.6305126 96.5585079,60.0174222 C96.2460542,60.4043318 96.0902461,60.9549033 96.0902461,61.6691367 L96.0902461,62.2705547 C96.0902461,62.9450644 96.2385151,63.4813353 96.5358906,63.8793675 C96.8324285,64.2781942 97.2479165,64.4768131 97.7823548,64.4768131 C98.2623441,64.4768131 98.6292469,64.3743258 98.8847385,64.1693511 C99.1427432,63.961993 99.3136294,63.6020956 99.3973972,63.0904534 L100.266069,63.0904534 Z M105.065961,63.4400226 L102.32173,63.4400226 L101.705199,65.0615471 L100.814748,65.0615471 L103.316053,58.8487487 L104.071638,58.8487487 L106.577969,65.0615471 L105.691707,65.0615471 L105.065961,63.4400226 Z M102.583085,62.7655129 L104.809632,62.7655129 L103.693845,59.860116 L102.583085,62.7655129 Z M111.401317,59.522464 L109.295395,59.522464 L109.295395,65.0615471 L108.435938,65.0615471 L108.435938,59.522464 L106.335043,59.522464 L106.335043,58.8487487 L111.401317,58.8487487 L111.401317,59.522464 Z M113.300332,65.0615471 L112.435849,65.0615471 L112.435849,58.8487487 L113.300332,58.8487487 L113.300332,65.0615471 Z M119.923011,62.1553557 C119.923011,62.7647184 119.81495,63.2962225 119.59883,63.751457 C119.382709,64.2035135 119.076957,64.5491104 118.680735,64.7882475 C118.285351,65.0273846 117.822953,65.1465559 117.295216,65.1465559 C116.779207,65.1465559 116.321835,65.0273846 115.9231,64.7882475 C115.524366,64.5467269 115.213588,64.2035135 114.991603,63.7601962 C114.772969,63.313701 114.659883,62.7972919 114.654019,62.210969 L114.654019,61.7628848 C114.654019,61.1654393 114.763755,60.6379075 114.982389,60.1794952 C115.20186,59.7218773 115.510963,59.3723081 115.909698,59.1299931 C116.311783,58.8852946 116.77083,58.7629454 117.286002,58.7629454 C117.811226,58.7629454 118.272786,58.8837057 118.672358,59.1260207 C119.074443,59.3651578 119.382709,59.7131381 119.59883,60.1715504 C119.81495,60.6267849 119.923011,61.1567 119.923011,61.7628848 L119.923011,62.1553557 Z M119.063554,61.7541456 C119.063554,61.0176668 118.907746,60.4527948 118.595292,60.0603239 C118.283676,59.6646751 117.847246,59.4668507 117.286002,59.4668507 C116.740674,59.4668507 116.310107,59.6646751 115.995141,60.0603239 C115.682687,60.4527948 115.522691,60.9993939 115.513476,61.6993268 L115.513476,62.1553557 C115.513476,62.8695892 115.670959,63.4312834 115.985926,63.8412327 C116.304244,64.2480042 116.740674,64.4513899 117.295216,64.4513899 C117.85311,64.4513899 118.285351,64.2591268 118.591104,63.8753951 C118.896856,63.4884856 119.054339,62.9347362 119.063554,62.2149414 L119.063554,61.7541456 Z M126.25334,65.0615471 L125.384669,65.0615471 L122.086732,60.2740378 L122.086732,65.0615471 L121.218898,65.0615471 L121.218898,58.8487487 L122.086732,58.8487487 L125.393883,63.6577089 L125.393883,58.8487487 L126.25334,58.8487487 L126.25334,65.0615471 Z M135.107592,65.0615471 L134.239758,65.0615471 L130.941822,60.2740378 L130.941822,65.0615471 L130.07315,65.0615471 L130.07315,58.8487487 L130.941822,58.8487487 L134.248135,63.6577089 L134.248135,58.8487487 L135.107592,58.8487487 L135.107592,65.0615471 Z M140.344753,62.1895182 L137.505863,62.1895182 L137.505863,64.3918042 L140.8038,64.3918042 L140.8038,65.0615471 L136.642218,65.0615471 L136.642218,58.8487487 L140.758565,58.8487487 L140.758565,59.522464 L137.505863,59.522464 L137.505863,61.5197753 L140.344753,61.5197753 L140.344753,62.1895182 Z M145.581913,62.1895182 L142.743023,62.1895182 L142.743023,64.3918042 L146.04096,64.3918042 L146.04096,65.0615471 L141.879378,65.0615471 L141.879378,58.8487487 L145.995725,58.8487487 L145.995725,59.522464 L142.743023,59.522464 L142.743023,61.5197753 L145.581913,61.5197753 L145.581913,62.1895182 Z M147.116538,65.0615471 L147.116538,58.8487487 L148.965292,58.8487487 C149.535751,58.8487487 150.039195,58.9679201 150.4773,59.2070572 C150.915406,59.4461943 151.25299,59.7862298 151.489215,60.2271637 C151.729628,60.6680976 151.851092,61.1741785 151.854442,61.7462008 L151.854442,62.1426441 C151.854442,62.728967 151.733817,63.2421982 151.494241,63.6831321 C151.257178,64.124066 150.917081,64.4625125 150.473112,64.6984718 C150.031656,64.9352254 149.517322,65.0559857 148.929272,65.0615471 L147.116538,65.0615471 Z M147.980184,59.522464 L147.980184,64.3918042 L148.889064,64.3918042 C149.555017,64.3918042 150.072702,64.1955688 150.44128,63.8030979 C150.813209,63.4098325 150.999174,62.8513162 150.999174,62.1259601 L150.999174,61.7628848 C150.999174,61.0573906 150.824099,60.509997 150.473112,60.1199095 C150.124638,59.7274386 149.629571,59.5280253 148.98791,59.522464 L147.980184,59.522464 Z M155.093742,62.2920055 C154.352397,62.0902087 153.812933,61.8423324 153.473673,61.5499654 C153.137764,61.253626 152.970229,60.8897563 152.970229,60.4575616 C152.970229,59.9681647 153.17546,59.5637767 153.585922,59.245192 C154.000572,58.9242239 154.536686,58.7629454 155.196776,58.7629454 C155.646609,58.7629454 156.047019,58.8455708 156.398006,59.0108217 C156.752343,59.1752782 157.025426,59.4032926 157.217254,59.6932762 C157.412433,59.9832597 157.509604,60.3010499 157.509604,60.6450578 L156.640932,60.6450578 C156.640932,60.2692709 156.51528,59.975315 156.26314,59.7616011 C156.010999,59.5455037 155.655823,59.4374551 155.196776,59.4374551 C154.771236,59.4374551 154.43784,59.5272308 154.198264,59.7059878 C153.961202,59.8823614 153.843089,60.1286488 153.843089,60.4440555 C153.843089,60.6974932 153.955338,60.9127961 154.179835,61.0891696 C154.407684,61.2623653 154.793853,61.4212604 155.336668,61.5666494 C155.881996,61.7120384 156.308374,61.8725224 156.614126,62.048896 C156.923229,62.2220917 157.151078,62.4254774 157.298509,62.6590532 C157.448453,62.892629 157.523007,63.166723 157.523007,63.4829243 C157.523007,63.9858272 157.3161,64.3902153 156.902287,64.6944994 C156.488475,64.9964001 155.93477,65.1465559 155.242011,65.1465559 C154.792178,65.1465559 154.372501,65.0655194 153.982143,64.9034464 C153.592623,64.73899 153.291059,64.5141534 153.077452,64.2297312 C152.868032,63.945309 152.762485,63.6219575 152.762485,63.2604711 L153.631157,63.2604711 C153.631157,63.636258 153.776912,63.9333919 154.067587,64.1526671 C154.361611,64.3687644 154.752807,64.4768131 155.242011,64.4768131 C155.697707,64.4768131 156.047019,64.3886263 156.289945,64.2122528 C156.532872,64.0358792 156.654335,63.7959476 156.654335,63.490869 C156.654335,63.1865849 156.542086,62.9522146 156.317589,62.7869637 C156.092253,62.6193294 155.684304,62.4540785 155.093742,62.2920055 Z" id="Shape" fill-rule="nonzero"></path>
            <path d="M205.433831,52.442671 C205.40233,52.442671 202.226869,52.4406257 202.060725,52.4346755 C198.36163,52.2985657 194.970703,50.4400718 193.856475,49.8294371 C193.750092,49.7712371 193.639929,49.7122934 193.524906,49.6509324 C192.373957,49.0356492 190.634572,48.1061233 187.862681,45.2431688 C185.273495,42.5687599 184.066744,38.7935721 183.761996,36.9847249 C183.51485,35.5178256 183.703134,10.6138217 183.743275,5.63633064 L183.744175,5.53183104 L183.761276,5.42881897 C183.787017,5.2722555 184.044783,3.86653127 185.132371,2.74325347 C186.216719,1.62295076 187.84252,1.299597 188.024145,1.26649926 L188.132868,1.24678937 L194.243484,1.24678937 L194.243484,3.8499824 L188.371554,3.8499824 C188.035665,3.9303095 187.317627,4.16757195 186.914237,4.58426877 C186.490866,5.02141926 186.315361,5.58798563 186.26208,5.79698484 C186.167938,17.513027 186.086755,35.2727536 186.2475,36.5568715 C186.434884,37.6676912 187.41645,41.1013028 189.644367,43.4025254 C192.139771,45.9798724 193.609688,46.7654789 194.682876,47.3391111 C194.805819,47.4049347 194.923722,47.4677832 195.037305,47.5300739 C196.02499,48.0713521 199.030707,49.7184295 202.150007,49.8333419 C202.335052,49.8370607 205.183625,49.8396639 205.433831,49.8396639 L205.433831,52.442671 Z" id="Path"></path>
            <path d="M204.61949,52.442671 L204.61949,49.839478 C204.869877,49.839478 207.71827,49.8366889 207.914295,49.8327841 C211.022794,49.7182436 214.028331,48.0711662 215.016017,47.5298879 C215.129599,47.4675973 215.247502,47.4045628 215.370446,47.3389251 C216.443633,46.765293 217.913551,45.9796865 220.408955,43.4023395 C222.636872,41.1011168 223.618437,37.6673193 223.808702,36.5384632 C223.966566,35.2723817 223.885564,17.5104238 223.791241,5.79438165 C223.74066,5.59616709 223.565515,5.02439434 223.139265,4.58408283 C222.729214,4.16050614 221.987775,3.92361557 221.682127,3.84979645 L215.809837,3.84979645 L215.809837,1.24660342 L221.920273,1.24660342 L222.028996,1.26631331 C222.210801,1.299597 223.836422,1.62276482 224.92095,2.74325347 C226.008358,3.86653127 226.266305,5.2722555 226.291865,5.42881897 L226.308966,5.53183104 L226.309866,5.63633064 C226.350187,10.6138217 226.538472,35.5178256 226.291145,36.9847249 C225.986398,38.7937581 224.779647,42.5687599 222.19046,45.2431688 C219.418569,48.1061233 217.679185,49.0356492 216.528235,49.6509324 C216.413212,49.7122934 216.303049,49.7710512 216.196667,49.8294371 C215.082438,50.4400718 211.691511,52.2983797 207.992777,52.4344896 C207.826272,52.4406257 204.650811,52.442671 204.61949,52.442671 Z" id="Path"></path>
            <path d="M180.198712,62.3271698 C180.198712,66.0582892 177.270577,69.0830135 173.658604,69.0830135 C170.046452,69.0830135 167.118317,66.0582892 167.118317,62.3271698 C167.118317,58.5958645 170.046452,55.5711401 173.658604,55.5711401 C177.270577,55.5711401 180.198712,58.5958645 180.198712,62.3271698" id="Path"></path>
            <rect id="Rectangle" x="173.649725" y="60.6464246" width="14.1923027" height="3.26050956"></rect>
            <path d="M177.248529,62.2122685 C177.248529,64.2660019 175.636948,65.9311157 173.648437,65.9311157 C171.660286,65.9311157 170.048345,64.2660019 170.048345,62.2122685 C170.048345,60.1585352 171.660286,58.4934213 173.648437,58.4934213 C175.636948,58.4934213 177.248529,60.1585352 177.248529,62.2122685" id="Path"></path>
            <path d="M206.5567,51.1407026 L206.5567,60.6763846 C212.04576,60.6972102 217.247714,60.7446255 220.124187,60.8413155 C226.832419,61.0664917 231.679763,63.9684941 234.142226,69.2338239 C236.923658,75.1808184 235.411799,83.47236 230.699998,88.1103203 C227.488896,91.2709685 223.540675,92.5383517 219.768318,92.5383517 C217.002367,92.5383517 214.331099,91.8572448 212.113982,90.7414047 C206.717984,88.0259025 203.496621,83.3007352 203.496621,78.1019728 L203.496621,63.8282936 C194.745517,63.8093274 186.209159,63.846144 186.060295,63.8468878 L186.047334,60.6858677 C186.196018,60.6851239 194.730937,60.6477495 203.496621,60.6674594 L203.496621,51.1407026 L206.5567,51.1407026 Z M206.55652,63.8372188 L206.55652,78.1019728 C206.55652,82.0634748 209.134906,85.7259814 213.453936,87.8994617 C217.743806,90.0584384 224.086989,90.253306 228.588724,85.8217418 C232.33174,82.1374798 233.586912,75.3128374 231.386716,70.6086817 C229.423586,66.4110329 225.600648,64.1877201 220.024465,64.0004762 C217.175892,63.9050878 212.01174,63.8582303 206.55652,63.8372188 Z" id="Combined-Shape" fill-rule="nonzero"></path>
            <path d="M205.437251,53.0004981 C205.314488,53.0004981 194.565693,52.8582522 189.031991,47.1418262 C183.815637,41.7532167 183.096519,36.674573 183.096519,31.9890115 L183.096519,20.8942028 C183.096519,19.8672432 183.90258,19.0347792 184.896565,19.0347792 C185.89055,19.0347792 186.696611,19.8672432 186.696611,20.8942028 L186.696611,31.9890115 C186.696611,36.4793335 187.526612,40.3274107 191.577616,44.5120435 C195.416574,48.4778221 203.44298,49.281465 205.415471,49.281465 C205.421771,49.281465 205.427531,49.2810931 205.433831,49.281465 C206.426376,49.281465 207.231897,50.1115117 207.233881,51.1371697 C207.235857,52.1643153 206.431597,52.9984527 205.437251,53.0004981 L205.437251,53.0004981 Z" id="Path"></path>
            <path d="M204.61949,53.0004981 C203.625505,53.0004981 202.819444,52.1678482 202.819444,51.1410745 C202.819444,50.1143008 203.625505,49.2816509 204.61949,49.2816509 C210.323476,49.2816509 214.630987,48.4837722 218.475705,44.5122294 C222.526709,40.3275966 223.35671,36.4795195 223.35671,31.9891974 L223.35671,20.8943888 C223.35671,19.8674291 224.162771,19.0349652 225.156756,19.0349652 C226.150742,19.0349652 226.956802,19.8674291 226.956802,20.8943888 L226.956802,31.9891974 C226.956802,36.674759 226.237864,41.7532167 221.02133,47.1420122 C216.036823,52.2907561 210.192613,53.0004981 204.61949,53.0004981 Z" id="Path"></path>
            <path d="M193.266059,0.598222418 C193.907956,0.411722231 195.447175,0.270220096 195.964689,0.363191276 C196.40804,0.442774605 196.556724,1.26631331 196.560864,2.56790983 C196.565184,3.90390568 196.275916,4.57497165 195.968469,4.64618758 C195.465896,4.71721756 193.778173,4.72502714 193.253279,4.42677559 C192.728386,4.12852405 192.488259,3.74882975 192.488259,2.54819994 C192.488439,1.34719824 192.848449,0.719456836 193.266059,0.598222418" id="Path"></path>
            <path d="M213.98819,0.363191276 C213.544839,0.442774605 213.396155,1.26631331 213.392015,2.56790983 C213.387695,3.90390568 213.676962,4.57497165 213.98441,4.64618758 C214.486983,4.71721756 216.174706,4.72502714 216.6996,4.42677559 C217.224493,4.12852405 217.464619,3.74882975 217.464619,2.54819994 C217.464439,1.34719824 217.10443,0.719456836 216.686819,0.598222418 C216.044743,0.411722231 214.505703,0.270220096 213.98819,0.363191276 Z" id="Path"></path>
        </g>
    </g>
</svg>