<?xml version="1.0" encoding="UTF-8"?>
<svg width="270px" height="102px" viewBox="0 0 270 102" version="1.1" xmlns="http://www.w3.org/2000/svg" xmlns:xlink="http://www.w3.org/1999/xlink">
    <!-- Generator: Sketch 64 (93537) - https://sketch.com -->
    <title>cf</title>
    <desc>Created with Sketch.</desc>
    <defs>
        <path d="M53.8669048,13.0848004 C53.8669048,18.7498029 49.1398828,23.3419115 43.3084459,23.3419115 L35.7411985,23.3419115 C25.5068844,23.3419115 16.8959333,31.1701387 16.6536167,41.1097922 C16.4635286,48.920012 21.3656802,55.6644466 28.3557125,58.4240286 L28.3559196,54.7567691 C28.3559196,45.0978188 36.3603443,37.2679892 46.2335021,37.2679892 L64.3739902,37.2679892 C64.3739902,42.9497852 59.6658763,47.5555068 53.8577652,47.5555068 L46.2335021,47.5555068 C42.1679295,47.5555068 38.8721446,50.7796148 38.8721446,54.7567691 L38.8720985,59.7538004 L53.8669048,59.7546559 C53.8669048,65.4196584 49.1398828,70.011767 43.3084459,70.011767 L38.8720985,70.0108004 L38.8721446,78.7037279 C38.8721446,84.4164663 34.3169746,89.0652877 28.640654,89.2161728 L28.3559196,89.2199529 L28.3552069,69.0945355 C15.7948651,65.9550406 6.2992881,55.1058266 6.09357406,41.9898523 C5.84386651,26.0938944 19.0820622,13.0848004 35.3896018,13.0848004 L53.8669048,13.0848004 Z M186.675717,62.2246468 L192.015691,75.9001915 L197.09518,62.2246468 L199.830289,62.2246468 L192.178496,81.989065 C191.201671,84.5939307 188.987535,85.1474647 186.610595,84.9195389 L186.610595,84.9195389 L186.610595,82.8030856 C188.596805,83.0310113 189.345704,82.2495516 189.768995,81.1750445 L189.768995,81.1750445 L190.680698,78.7981046 L183.940608,62.2246468 L186.675717,62.2246468 Z M171.707042,55.7776043 L171.707042,78.179449 C169.558028,78.8957871 167.376453,79.091152 165.325122,79.091152 C159.757221,79.091152 156.696504,74.8256845 156.729065,70.5602169 C156.729065,66.2947494 159.789782,61.8664778 165.325122,61.8664778 C166.660115,61.8339169 167.962548,62.1595251 169.167298,62.7456199 L169.167298,62.7456199 L169.167298,55.7776043 L171.707042,55.7776043 Z M124.959007,61.8013561 C130.201299,61.7687953 133.717868,66.1970669 132.936408,71.4719199 L132.936408,71.4719199 L119.065498,71.4719199 C119.260863,74.2721505 121.344756,76.7793337 124.991568,76.7793337 C126.814974,76.7793337 128.63838,75.997874 129.745447,74.5000762 L129.745447,74.5000762 L131.796779,75.7373874 C130.136177,77.9840841 127.726677,79.0260303 124.991568,79.0260303 C119.391106,79.0260303 116.558315,74.6954412 116.590876,70.4299736 C116.590876,66.1645061 119.488789,61.8339169 124.959007,61.8013561 Z M179.61467,55.7776043 L179.61467,73.8814207 C179.61467,75.7373874 180.103083,76.7142121 182.252097,76.551408 L182.252097,76.551408 L182.252097,78.7981046 C178.865771,79.1562736 177.042365,77.4956718 177.042365,73.8814207 L177.042365,73.8814207 L177.042365,55.7776043 L179.61467,55.7776043 Z M144.067557,61.8013561 C148.691194,61.8013561 152.468249,64.4062218 152.468249,69.2903449 L152.468249,69.2903449 L152.468249,78.732983 L149.928505,78.732983 L149.928505,69.2903449 C149.928505,64.0154919 144.034996,63.266593 140.062576,64.6667083 L140.062576,64.6667083 L140.062576,78.732983 L137.490271,78.732983 L137.490271,63.0712281 C139.704407,62.2897684 141.690617,61.8013561 144.067557,61.8013561 Z M112.199817,62.0618427 L112.199817,78.732983 L109.627512,78.732983 L109.627512,62.0618427 L112.199817,62.0618427 Z M98.6591666,64.2434177 C100.319769,61.4431871 104.096824,61.3455046 106.506324,62.550255 L106.506324,62.550255 L105.562061,64.7643908 C102.175735,63.1689106 98.7568491,65.0574382 98.7568491,68.8019326 L98.7568491,68.8019326 L98.7568491,78.732983 L96.2171051,78.732983 L96.2171051,62.1269643 L98.3986801,62.1269643 Z M92.1842148,55.9078475 L92.1842148,58.4150307 L82.6764552,58.4150307 L82.6764552,66.1645061 L92.0539716,66.1645061 L92.0539716,68.6716893 L82.6764552,68.6716893 L82.6764552,78.7004221 L79.973907,78.7004221 L79.973907,55.9078475 L92.1842148,55.9078475 Z M165.325122,64.1457352 C161.385262,64.1457352 159.268809,67.4994998 159.236248,70.5602169 C159.203687,73.5883733 161.385262,76.909577 165.325122,76.909577 C166.594994,76.8770162 167.929987,76.7793337 169.167298,76.4211647 L169.167298,76.4211647 L169.167298,64.8620733 C167.929987,64.373661 166.562433,64.1457352 165.325122,64.1457352 Z M124.991568,64.0480528 C121.409877,64.0806136 119.52135,66.6203576 119.098059,69.3229057 L119.098059,69.3229057 L130.62459,69.3229057 C130.364103,66.2947494 128.149967,64.1131744 124.991568,64.0480528 Z M112.232377,55.8101651 L112.232377,59.456977 L109.594951,59.456977 L109.594951,55.8101651 L112.232377,55.8101651 Z M172.883884,24.9471584 L172.883884,40.6740349 C170.669748,41.4554946 168.683538,41.9439069 166.339159,41.9439069 C161.682961,41.9439069 157.905906,39.2739196 157.905906,34.3572357 L157.905906,34.3572357 L157.905906,24.9797193 L160.44565,24.9797193 L160.44565,34.3572357 C160.44565,37.8738043 163.083076,39.6646495 166.306598,39.6646495 C167.706713,39.6646495 169.041707,39.566967 170.311579,39.0785547 L170.311579,39.0785547 L170.311579,24.9471584 L172.883884,24.9471584 Z M110.511305,24.6866719 C115.493111,24.6866719 118.911997,28.4637271 118.911997,33.2827286 C118.911997,38.1017301 115.493111,41.9113461 110.511305,41.9113461 C105.562061,41.9113461 102.143174,38.1017301 102.143174,33.2827286 C102.143174,28.4637271 105.562061,24.6866719 110.511305,24.6866719 Z M90.0352007,18.304751 C93.2912828,18.304751 96.1891958,19.6071838 98.3056492,21.756198 L98.3056492,21.756198 L96.5799257,23.5470431 C94.886763,21.7887588 92.5098231,20.7142517 90.0352007,20.7793734 C84.1742529,20.8770558 81.1135358,25.5006924 81.1135358,30.1894506 C81.1135358,34.845648 84.2393746,39.4367237 90.0352007,39.4367237 C92.705188,39.4367237 95.3751753,38.1994125 97.1008988,36.1480808 L97.1008988,36.1480808 L98.9894264,37.7110002 C96.8404122,40.2833051 93.616891,41.9113461 90.0352007,41.9113461 C82.4485294,41.9113461 78.4109876,36.11552 78.4109876,30.1894506 C78.4109876,24.2633812 82.4485294,18.304751 90.0352007,18.304751 Z M148.533041,24.6866719 C150.193643,24.6866719 152.082171,25.207645 153.417164,26.5751995 L153.417164,26.5751995 L151.951927,28.2358013 C150.812299,27.2589767 149.770352,27.031051 148.533041,26.9984902 C146.839878,26.9659293 145.179277,27.9101931 145.211837,29.6359166 C145.211837,31.2965185 147.165487,31.7849308 148.467919,32.0454174 C151.203028,32.5989513 153.840455,33.7711409 153.840455,36.9621013 C153.840455,40.4461092 150.48669,41.8787853 147.881825,41.8787853 C145.667689,41.8787853 143.583796,40.9996431 142.313924,39.1762372 L142.313924,39.1762372 L143.876844,37.5807569 C144.886229,38.8180681 146.253784,39.5995278 147.881825,39.5995278 C149.477305,39.6320887 151.365832,38.8180681 151.365832,36.9295405 C151.333272,35.3014995 149.28194,34.6177222 147.914385,34.3572357 C145.211837,33.9013842 142.769776,32.7617554 142.737215,29.6359166 C142.737215,26.477517 145.570006,24.6866719 148.533041,24.6866719 Z M215.952546,24.5889894 C221.194839,24.5564286 224.711407,28.9847002 223.929948,34.2595532 L223.929948,34.2595532 L210.059038,34.2595532 C210.254403,37.0597838 212.338295,39.566967 215.985107,39.566967 C217.808513,39.566967 219.631919,38.7855073 220.738987,37.2877095 L220.738987,37.2877095 L222.790319,38.5250207 C221.129717,40.7717174 218.720216,41.8136636 215.985107,41.8136636 C210.384646,41.8136636 207.551855,37.4830745 207.584415,33.2176069 C207.584415,28.9521394 210.482328,24.6215502 215.952546,24.5889894 Z M185.024418,24.5889894 C187.433919,24.6215502 189.778298,25.2402058 190.917927,27.4543416 C192.090116,25.3053275 194.23913,24.6215502 196.550949,24.6215502 C200.328004,24.6215502 203.421282,26.5426387 203.421282,31.9802957 L203.421282,31.9802957 L203.421282,41.5206163 L200.881538,41.5206163 L200.881538,31.9802957 C200.881538,28.3660446 198.99301,26.8682469 196.550949,26.8682469 C194.076326,26.8682469 192.22036,28.0078756 192.187799,31.6546875 L192.187799,31.6546875 L192.155238,41.5206163 L189.713176,41.5206163 L189.648055,31.6546875 C189.648055,27.8776323 187.629284,26.8682469 184.991857,26.8356861 C183.624303,26.8356861 182.256748,26.9333685 180.986876,27.4217808 L180.986876,27.4217808 L180.986876,41.5206163 L178.414572,41.5206163 L178.414572,25.7937398 C180.531025,25.0448409 182.842843,24.5889894 185.024418,24.5889894 Z M230.925872,27.031051 C232.586474,24.2308204 236.36353,24.1331379 238.77303,25.3378883 L238.77303,25.3378883 L237.828766,27.5520241 C234.442441,25.9565439 231.023555,27.8450715 231.023555,31.5895659 L231.023555,31.5895659 L231.023555,41.5206163 L228.483811,41.5206163 L228.483811,24.9145976 L230.665386,24.9145976 Z M129.847781,24.5889894 C134.471418,24.5889894 138.248473,27.1938551 138.248473,32.0779782 L138.248473,32.0779782 L138.248473,41.5206163 L135.708729,41.5206163 L135.708729,32.0779782 C135.708729,26.8031252 129.815221,26.0542264 125.8428,27.4543416 L125.8428,27.4543416 L125.8428,41.5206163 L123.270496,41.5206163 L123.270496,25.8588614 C125.484631,25.0774017 127.470842,24.5889894 129.847781,24.5889894 Z M110.511305,26.9659293 C107.548271,26.9659293 104.682918,28.9847002 104.682918,33.2827286 C104.682918,37.5807569 107.548271,39.6646495 110.511305,39.6646495 C113.506901,39.6646495 116.372253,37.5807569 116.372253,33.2827286 C116.372253,28.9847002 113.506901,26.9659293 110.511305,26.9659293 Z M215.985107,26.8356861 C212.403417,26.8682469 210.514889,29.4079909 210.091599,32.110539 L210.091599,32.110539 L221.618129,32.110539 C221.357643,29.0823827 219.143507,26.9008077 215.985107,26.8356861 Z" id="path-1"></path>
    </defs>
    <g id="cf" stroke="none" stroke-width="1" fill="none" fill-rule="evenodd">
        <mask id="mask-2" fill="white">
            <use xlink:href="#path-1"></use>
        </mask>
        <use id="Combined-Shape" fill="#1F1F20" xlink:href="#path-1"></use>
    </g>
</svg>