<?xml version="1.0" encoding="UTF-8"?>
<svg width="270px" height="119px" viewBox="0 0 270 119" version="1.1" xmlns="http://www.w3.org/2000/svg" xmlns:xlink="http://www.w3.org/1999/xlink">
    <!-- Generator: Sketch 64 (93537) - https://sketch.com -->
    <title>dynr</title>
    <desc>Created with Sketch.</desc>
    <defs>
        <polygon id="path-1" points="0 0.213171595 34.0510247 0.213171595 34.0510247 31.738979 0 31.738979"></polygon>
    </defs>
    <g id="dynr" stroke="none" stroke-width="1" fill="none" fill-rule="evenodd">
        <g id="dynr_logo" transform="translate(3.000000, 13.000000)">
            <path d="M106.318379,45.9729698 C106.318379,70.1480702 84.8919683,89.7463153 58.4623864,89.7463153 C32.0317074,89.7463153 10.6058455,70.1480702 10.6058455,45.9729698 C10.6058455,21.7978694 32.0317074,2.19962435 58.4623864,2.19962435 C84.8919683,2.19962435 106.318379,21.7978694 106.318379,45.9729698" id="Fill-1"></path>
            <g id="Group-5" transform="translate(8.228900, 0.030578)" fill="#1F1F20">
                <path d="M50.2332668,0.0601547234 C77.7891107,0.0601547234 100.208475,20.6428987 100.208475,45.9422827 C100.208475,71.2416667 77.7891107,91.8249567 50.2332668,91.8249567 C22.6774228,91.8249567 0.258606905,71.2416667 0.258606905,45.9422827 C0.258606905,20.6428987 22.6774228,0.0601547234 50.2332668,0.0601547234 Z M50.2332668,1.81013844 C23.6462386,1.81013844 2.0163,21.6076859 2.0163,45.9422281 C2.0163,70.2773164 23.6462386,90.0748638 50.2332668,90.0748638 C76.8202949,90.0748638 98.4502335,70.2773164 98.4502335,45.9422281 C98.4502335,21.6076859 76.8202949,1.81013844 50.2332668,1.81013844 Z M50.2332668,2.52817289 C76.4220161,2.52817289 97.7288332,22.0035604 97.7288332,45.9422281 C97.7288332,69.8808959 76.4220161,89.3568294 50.2332668,89.3568294 C24.0439688,89.3568294 2.73770026,69.8808959 2.73770026,45.9422281 C2.73770026,22.0035604 24.0439688,2.52817289 50.2332668,2.52817289 Z M50.2332668,4.27771978 C25.0133332,4.27771978 4.49539335,22.9684567 4.49539335,45.9422827 C4.49539335,68.9161087 25.0133332,87.6068456 50.2332668,87.6068456 C75.4532003,87.6068456 95.9705916,68.9161087 95.9705916,45.9422827 C95.9705916,22.9684567 75.4532003,4.27771978 50.2332668,4.27771978 Z" id="Combined-Shape"></path>
            </g>
            <path d="M58.1621413,17.1392729 C41.8008932,17.1392729 28.4903728,30.0709913 28.4903728,45.9665812 C28.4903728,61.8616251 41.8008932,74.7938896 58.1621413,74.7938896 C74.5233894,74.7938896 87.8344584,61.8616251 87.8344584,45.9665812 C87.8344584,30.0709913 74.5233894,17.1392729 58.1621413,17.1392729 M58.1621413,75.3912505 C41.4700914,75.3912505 27.8902116,62.1914295 27.8902116,45.9665812 C27.8902116,29.7417329 41.4700914,16.5419119 58.1621413,16.5419119 C74.8547398,16.5419119 88.4346196,29.7417329 88.4346196,45.9665812 C88.4346196,62.1914295 74.8547398,75.3912505 58.1621413,75.3912505" id="Fill-8" fill="#1F1F20"></path>
            <g id="Group-12" transform="translate(0.000000, 24.693104)">
                <mask id="mask-2" fill="white">
                    <use xlink:href="#path-1"></use>
                </mask>
                <g id="Clip-11"></g>
                <path d="M23.2201462,26.1552373 C23.1938137,26.6472138 23.1559607,27.1337299 23.1082331,27.6049571 C21.9523469,28.1138606 20.5973214,28.4747889 19.0771692,28.6773675 C16.5755835,29.0131782 14.1178853,29.0808864 11.7320528,28.9088858 C10.8817331,28.8488221 10.0955988,28.71832 9.39449655,28.5222939 C8.71314361,28.3328201 8.16345307,28.0701779 7.76133414,27.7392814 C7.39432519,27.4389628 7.21603235,27.0627455 7.21603235,26.5909723 C7.21603235,26.0170908 7.42778939,25.5376731 7.8639211,25.1254176 C8.32254514,24.6918668 8.95946202,24.3374908 9.75711675,24.0721184 C10.5778124,23.7996475 11.5120669,23.5921547 12.5346449,23.4551002 C13.5583201,23.3174997 14.6000988,23.2476074 15.6314543,23.2476074 C17.0599914,23.2476074 18.4934659,23.371557 19.8929275,23.6167262 C21.2024198,23.8460604 22.3347165,24.1998903 23.2629364,24.6700254 C23.2601935,25.1576336 23.2453815,25.6561625 23.2201462,26.1552373 M33.0964723,30.2903513 L33.1162216,30.2870751 C33.888641,30.1314555 34.0510247,29.7645207 34.0510247,29.4844054 C34.0510247,29.1819027 33.8880925,28.6751833 32.7958431,28.6751833 C32.7053252,28.6751833 32.5292267,28.686104 31.9658214,28.7718313 L30.6146359,28.9820543 C30.1198047,29.0601372 29.6397855,29.13822 29.1740298,29.2152107 C28.9194825,29.2588935 28.708274,29.2943856 28.5409531,29.3227794 C28.4970656,28.5801734 28.4751219,27.8353833 28.4751219,27.1042441 L28.4751219,24.5378852 C28.4751219,21.7274493 28.5628968,18.9235657 28.7362523,16.2010412 C28.9090592,12.805803 29.2596104,9.37780286 29.7780311,6.01532673 L30.2970004,2.81447661 C30.3546027,2.56330106 30.4143994,2.28864606 30.4736474,1.98778144 C30.5350899,1.6705358 30.5663597,1.36148067 30.5663597,1.06880656 C30.5663597,0.749376785 30.4028789,0.213171595 29.3106295,0.213171595 L18.1582753,0.213171595 C17.048471,0.213171595 16.8158674,0.653274836 16.8158674,1.02239368 C16.8158674,1.3909665 17.048471,1.83106974 18.1582753,1.83106974 L23.1000042,1.83106974 C23.2097229,4.73542351 23.2936577,7.67417741 23.3501628,10.5697946 C23.4083137,13.6073807 23.4373891,16.6427825 23.4373891,19.5924571 L23.4373891,21.4118417 C23.4373891,21.8584974 23.4198341,22.3160737 23.3847242,22.7763802 C22.141063,22.3444675 20.8359595,22.046333 19.5001347,21.8885292 C18.0364876,21.7165286 16.5300503,21.6291632 15.0219671,21.6291632 C13.8029927,21.6291632 12.3289224,21.7001476 10.6409006,21.8404783 C8.95342749,21.9802629 7.31258478,22.2259781 5.76500294,22.5699794 C4.20535205,22.9167109 2.86184693,23.3813856 1.77124335,23.9498068 C0.596156394,24.5613647 -0.000164578005,25.3716788 -0.000164578005,26.3578159 C-0.000164578005,27.2527653 0.56762954,27.9926411 1.68730857,28.55724 C2.72305281,29.0803404 3.99304642,29.5051547 5.46217941,29.8196702 C6.92198632,30.1320015 8.47505409,30.3460467 10.0785925,30.4552535 C11.6590899,30.5639142 13.0294761,30.6190636 14.1502523,30.6190636 C14.7997868,30.6190636 15.5403879,30.5873937 16.3512088,30.5256919 C17.1823277,30.4618059 18.0227728,30.3749865 18.8500515,30.2668718 C19.6883022,30.1587572 20.5133866,30.0326233 21.303361,29.8917466 C21.9090081,29.7836319 22.4422408,29.6700569 22.8942817,29.5526596 C22.8805669,29.686984 22.8602689,29.8245845 22.8328393,29.9638231 C22.7713968,30.2750624 22.740127,30.5846635 22.740127,30.883344 C22.740127,31.0646272 22.8097983,31.3239933 23.1400515,31.529848 C23.3627804,31.6707247 23.6431116,31.738979 23.9958572,31.738979 C24.0885694,31.738979 24.3469569,31.7149535 25.5242382,31.5249337 C26.3959531,31.3851491 27.3548942,31.2300755 28.3999646,31.0586209 C29.4461321,30.8882583 30.4336001,30.7249942 31.3640145,30.5688285 C32.2867485,30.414301 32.8649659,30.3209292 33.0964723,30.2903513" id="Fill-10" fill="#1F1F20" mask="url(#mask-2)"></path>
            </g>
            <polygon id="Fill-13" fill="#1F1F20" points="65.773874 33.9125029 70.5691285 31.5618274 71.7414725 37.2089089 72.9127193 31.5618274 77.709071 33.9125029 77.9921451 33.3932248 73.9687615 31.0032348 77.609227 30.6286556 77.6059354 30.0400312 73.9813792 29.7042204 77.9921451 27.322421 77.709071 26.8031428 72.9127193 29.1538183 71.7414725 23.5067368 70.5691285 29.1538183 65.773874 26.8031428 65.4902513 27.322421 69.5004687 29.7042204 65.8753638 30.0400312 65.8726208 30.6286556 69.5136349 31.0032348 65.4902513 33.3932248"></polygon>
            <g id="Group-17" transform="translate(29.624041, 37.797916)" fill="#1F1F20">
                <path d="M26.866317,16.3170188 C26.8114577,16.3170188 26.7587927,16.3186569 26.7066763,16.3213871 C26.6929615,15.416063 26.6726636,14.5140152 26.6435881,13.6168817 C26.5854372,11.846094 26.4971137,10.0376301 26.3824577,8.24773131 L26.3204666,6.85698323 L31.7932339,6.69644929 L34.7457633,16.1390118 L26.866317,16.3170188 Z M81.8523771,0.887741749 C80.6054244,0.475486231 79.1960881,0.265809253 77.6633183,0.265809253 C75.4925344,0.265809253 73.5691661,0.546470625 71.9480728,1.0985108 C70.5398336,1.57792847 69.2830063,2.21514991 68.2022774,2.99597824 L68.2022774,1.40155955 C68.2022774,1.09960286 68.0393451,0.592883498 66.9399641,0.592883498 L57.1887173,0.82603993 C56.0964679,0.82603993 55.9335357,1.36224512 55.9335357,1.68167489 C55.9335357,1.844939 55.9977211,2.14307345 56.4289155,2.30797566 C56.6659078,2.39807123 56.9506277,2.44393807 57.2814295,2.44393807 L62.2374219,2.3554806 L63.9161175,17.4538612 L59.0895932,17.7165034 C58.1273605,17.7689227 57.951262,18.2363276 57.9380958,18.5350081 L55.8068106,18.5530272 C56.6911431,16.3650698 57.1382467,14.1372519 57.1382467,11.9230848 C57.1382467,10.8364776 56.9550165,9.84433414 56.5929449,8.97395627 C56.2248387,8.08992755 55.5895676,7.32711833 54.7035894,6.7062779 C53.8340689,6.09799625 52.6699538,5.62840718 51.2425139,5.31116155 C49.8331776,4.99773815 48.0233682,4.83884231 45.8630075,4.83884231 C44.0888566,4.83884231 42.510005,5.12933229 41.1719858,5.70266778 C40.0929027,6.16515841 39.1860779,6.71774461 38.4674206,7.35168985 L38.4059781,5.74089015 C38.4059781,5.37231733 38.172826,4.93221409 37.0547927,4.93221409 L26.2486009,5.23690095 L26.2085536,4.34085949 C26.2085536,4.06511242 26.222817,3.78445105 26.2502467,3.50651984 C26.2837109,3.16033442 26.2315945,2.83435224 26.1076124,2.57334808 C25.996248,2.21842612 25.6709321,1.80398646 24.738872,1.85531364 C24.5227262,1.88425343 24.1990561,1.89899634 23.7766393,1.89899634 C23.3317301,1.89899634 22.8950497,1.92356786 22.479216,1.9710728 C22.0513132,2.02021585 21.6760753,2.10430505 21.3628285,2.22170232 C20.8438592,2.41609035 20.7352377,2.72077721 20.7352377,2.94137486 C20.7352377,3.39185275 20.7654104,3.82977185 20.825207,4.2425734 C20.8811636,4.63790187 20.9096904,5.04797326 20.9096904,5.46132084 C20.9096904,5.89432564 20.8943298,6.4736675 20.8658029,7.19880039 C20.8367275,7.91738087 20.7357863,8.71076797 20.566271,9.55602829 C20.3973042,10.4018346 20.152083,11.2749427 19.837739,12.1496888 C19.5283324,13.0069619 19.1163387,13.7910664 18.6138272,14.479069 C18.1200932,15.1545128 17.4650728,15.7141975 16.6657723,16.142288 C15.8714091,16.5676483 14.9075306,16.7833316 13.8004692,16.7833316 C13.0357301,16.7833316 12.3900357,16.659928 11.8814896,16.4158509 C11.3734922,16.1734119 10.9691789,15.8643568 10.6795216,15.495784 C10.3865728,15.1266651 10.1846904,14.7384351 10.0793605,14.3431066 C9.970739,13.9384956 9.91587967,13.5873958 9.91587967,13.299636 C9.91587967,12.0770663 10.0310843,10.8397538 10.2592991,9.62046028 L10.9510753,5.91016062 C11.0673771,5.47333359 11.1836789,5.0212176 11.3010779,4.55217457 C11.422317,4.06292829 11.4837595,3.58351061 11.4837595,3.12811842 C11.4837595,2.79121557 11.3093068,2.22607059 10.1287339,2.22607059 L10.1281853,2.22607059 L1.68972238,2.59901167 C0.6731789,2.59901167 0.521767136,3.13521686 0.521767136,3.45464663 C0.521767136,3.61791074 0.585952558,3.91659123 1.01659834,4.08040137 C1.25688223,4.17268108 1.54379655,4.2021669 1.8778899,4.21636378 L5.50354335,4.04763934 C5.30824412,5.01575726 5.15683235,5.98059898 5.0542454,6.92196125 C4.93684642,7.97799062 4.87759834,9.05640737 4.87759834,10.1266336 C4.87759834,10.7070675 4.93794361,11.329 5.05698836,11.9755041 C5.17658171,12.637297 5.38943593,13.3040043 5.68841931,13.9581528 C5.98904847,14.6193997 6.41640269,15.2571672 6.95841292,15.8539821 C7.50536049,16.4568034 8.21194872,16.9597006 9.05129655,17.3441084 C10.479285,18.0457618 12.0773375,18.4006838 13.8004692,18.4006838 C14.8685804,18.4006838 15.8330075,18.2876548 16.6657723,18.0643269 C17.4941482,17.8431832 18.2610817,17.5532393 18.9462748,17.2021396 C19.6353081,16.8488557 20.2420523,16.4420605 20.7500497,15.9937668 C21.0413528,15.7371309 21.309615,15.4723045 21.5526418,15.2036559 C21.5883004,16.1324594 21.606404,17.0503422 21.606404,17.9420154 L21.606404,21.4650254 C21.606404,22.2955428 21.4368886,23.1626445 21.1027953,24.042851 C20.7730907,24.9110447 20.1981648,25.7208129 19.3950242,26.4486759 C18.583106,27.1819993 17.5160919,27.7979254 16.223606,28.2800733 C14.9256341,28.7627671 13.2897288,29.0079363 11.3608746,29.0079363 C10.452404,29.0079363 9.5005945,28.9309456 8.53232724,28.7780561 C7.56844872,28.6262587 6.67972749,28.3958324 5.89139885,28.0938757 C5.11623645,27.7979254 4.47163926,27.4309907 3.97571087,27.0039923 C3.51653824,26.6081178 3.29380934,26.1849416 3.29380934,25.7109842 C3.29380934,25.2954525 3.55603696,24.9530893 4.09585281,24.6647835 C4.68668785,24.3475379 5.46020448,24.1864579 6.39500754,24.1864579 C7.03576458,24.1864579 7.51304079,24.2749154 7.81421854,24.4501922 C8.13404847,24.6352977 8.40395639,24.8444286 8.61626202,25.0715787 C8.84447685,25.3172939 9.04635921,25.5400757 9.21916611,25.7410161 C9.45176969,26.0102108 9.79134898,26.1461732 10.2280293,26.1461732 C11.3208272,26.1461732 11.4837595,25.6394538 11.4837595,25.3380432 C11.4837595,24.6331135 10.9483324,23.9811492 9.89338734,23.3996232 C8.89604463,22.8486751 7.77746279,22.5691058 6.56891164,22.5691058 C5.02846151,22.5691058 3.57084898,22.8268337 2.23721854,23.3351912 C0.809778645,23.8779488 0.0861840153,24.6773423 0.0861840153,25.7109842 C0.0861840153,26.6381496 0.474039514,27.4293526 1.23877864,28.0616597 C1.96182468,28.6584747 2.9174743,29.1548194 4.07939501,29.5375891 C5.22485793,29.9148985 6.50417762,30.1939217 7.88279271,30.3664684 C9.25482468,30.5384691 10.6306968,30.6252884 11.9709104,30.6252884 C15.068817,30.6252884 17.6093528,30.2747347 19.5222978,29.5812718 C21.4434717,28.8845327 22.9614295,27.9737483 24.0333809,26.8734902 C25.1108183,25.7677718 25.8393503,24.4982432 26.1992275,23.1014887 C26.551973,21.7309439 26.7308145,20.3489323 26.7308145,18.9920384 C26.7308145,18.6676943 26.7275229,18.3444423 26.7242313,18.0217363 L26.7231341,17.9234502 C26.801583,17.9310947 26.881129,17.9343709 26.9623208,17.9343709 L26.963418,17.9343709 L42.3788912,17.6078427 C43.4705919,17.6078427 43.6335242,17.0721835 43.6335242,16.7527538 C43.6335242,16.5900357 43.5693387,16.2924473 43.1370472,16.125907 C42.8995063,16.0358114 42.6153349,15.9899445 42.2845331,15.9899445 L42.2839845,15.9899445 L38.6676572,16.0767639 L38.6676572,12.5062489 C38.6676572,12.0022597 38.7373285,11.4780673 38.875574,10.9467764 C39.0110766,10.4225839 39.2469717,9.90330579 39.5777735,9.4025928 C39.9069295,8.90297187 40.3540331,8.43229074 40.9064666,8.00365421 C41.4561572,7.57610974 42.1578081,7.22391794 43.003739,6.95144708 C43.8957518,6.62328076 44.8574359,6.45674046 45.8630075,6.45674046 C47.1927978,6.45674046 48.2389653,6.69153499 48.9713375,7.15457165 C49.7070012,7.62033848 50.2588861,8.19312793 50.6105344,8.85601297 C50.9665715,9.5287266 51.175037,10.2407547 51.2309935,10.9702558 C51.2885958,11.7603667 51.3171226,12.3926739 51.3171226,12.9015774 C51.3171226,13.8713334 51.2584231,14.8694832 51.1437671,15.8659949 C51.03734,16.7860618 50.9062262,17.7055827 50.7537173,18.6032623 L46.3556444,18.6038083 C45.3434896,18.7091929 45.131184,19.1411056 45.131184,19.4856529 C45.131184,19.794708 45.2941162,20.3134402 46.3880114,20.3134402 L61.1100625,20.2206144 C61.4578707,20.2206144 61.747528,20.1474459 61.9708055,20.0022009 C62.2972185,19.7881556 62.3657927,19.5238753 62.3657927,19.3398619 C62.3657927,19.2945411 62.361404,19.2388456 62.3449462,19.1765978 L72.871904,18.6338402 C73.2328784,18.6338402 73.5049807,18.5612177 73.7035715,18.4110584 C73.9817083,18.2024735 74.0398592,17.951844 74.0398592,17.7787513 C74.0398592,17.6160332 73.9756738,17.3184448 73.5428336,17.1519045 C73.3052927,17.062901 73.0216699,17.0170341 72.6864794,17.0170341 L72.6820907,17.0170341 L68.2889551,17.2349016 L68.2889551,11.8062336 C68.2889551,11.0204909 68.3893477,10.1954339 68.5862927,9.35399579 C68.7821405,8.51637994 69.122817,7.68094823 69.5995446,6.87008804 C70.0735293,6.06195802 70.7285497,5.28112969 71.5459538,4.5494444 C72.3600664,3.81885118 73.3744155,3.1827218 74.552794,2.66125953 C75.0097723,2.47396993 75.5144781,2.29487085 76.0531968,2.1277845 C76.5743605,1.9661585 77.1158221,1.8837074 77.6633183,1.8837074 C79.6053387,1.8837074 80.5906124,2.32544874 80.5906124,3.19746472 C80.5906124,3.28100789 80.5906124,3.53600567 80.0617684,3.78827328 C79.6399001,3.98975976 79.1258682,4.09186808 78.5350331,4.09186808 C78.2678682,4.09186808 78.0407505,4.07111879 77.8608119,4.02962022 C77.63534,3.97829305 77.3934104,3.95208342 77.1410574,3.95208342 C76.1031188,3.95208342 75.8858758,4.38126599 75.8858758,4.7416483 C75.8858758,5.1779293 76.2633081,5.45749861 77.0082978,5.5721657 C77.5985843,5.66389938 78.1126162,5.71031225 78.5350331,5.71031225 C79.8434283,5.71031225 81.0508822,5.50773372 82.1239308,5.10803697 C83.2924347,4.67394011 83.8849155,4.00777887 83.8849155,3.12811842 C83.8849155,2.0890161 83.2013682,1.33548946 81.8523771,0.887741749 L81.8523771,0.887741749 Z" id="Fill-15"></path>
            </g>
        </g>
    </g>
</svg>