<?xml version="1.0" encoding="UTF-8"?>
<svg width="270px" height="102px" viewBox="0 0 270 102" version="1.1" xmlns="http://www.w3.org/2000/svg" xmlns:xlink="http://www.w3.org/1999/xlink">
    <!-- Generator: Sketch 64 (93537) - https://sketch.com -->
    <title>exploredubai</title>
    <desc>Created with Sketch.</desc>
    <g id="exploredubai" stroke="none" stroke-width="1" fill="none" fill-rule="evenodd">
        <g id="Group-5" transform="translate(2.000000, 2.000000)" fill="#1F1F20" fill-rule="nonzero">
            <path d="M112.82262,63.4412907 L113.331822,63.4441673 C116.690636,63.4825212 119.332089,63.904415 121.25618,64.7098485 C123.276476,65.5555538 124.654662,66.6988219 125.390739,68.139653 C126.126816,69.5804841 126.494854,71.3188782 126.494854,73.3548352 C126.494854,75.4847594 125.915389,77.3327819 124.75646,78.8989027 C126.416548,79.8072527 127.598969,80.8643842 128.303723,82.0702972 C129.008478,83.2762102 129.360855,84.8345004 129.360855,86.7451677 C129.360855,87.2463264 129.345194,87.6378565 129.313871,87.9197583 C129.219904,89.6111687 128.859696,91.1224752 128.233248,92.4536779 C127.6068,93.7848806 126.353903,94.9203181 124.474558,95.8599906 C122.595213,96.799663 119.901485,97.2694993 116.393375,97.2694993 L116.393375,97.2694993 L102.862092,97.2694993 L102.65507,97.2632592 C102.182297,97.2341392 101.781468,97.1030989 101.452583,96.8701385 C101.076714,96.6038979 100.888779,96.2828432 100.888779,95.9069742 L100.888779,95.9069742 L100.888779,64.7098485 L100.896121,64.5835801 C100.930379,64.2958054 101.084544,64.0559931 101.358616,63.8641433 C101.67184,63.6448864 102.079031,63.535258 102.58019,63.535258 L102.58019,63.535258 L109.486782,63.535258 L112.82262,63.4412907 Z M69.5171434,63.8171597 L69.7454545,63.8230327 C70.2627637,63.8504398 70.6721575,63.9737718 70.9736358,64.1930287 C71.3181823,64.443608 71.4904556,64.7881546 71.4904556,65.2266684 L71.4904556,65.2266684 L71.6783901,80.5433295 L71.6893638,80.8981452 C71.7769365,82.766652 72.3292515,84.2536538 73.3463087,85.3591508 C74.426932,86.5337414 75.891255,87.1210367 77.7392775,87.1210367 C81.3726776,87.1210367 83.1893777,85.0537573 83.1893777,80.9191985 L83.1893777,80.9191985 L83.283345,65.3206356 L83.2905955,65.1869353 C83.3292652,64.8358149 83.5226134,64.5280045 83.8706403,64.2635041 C84.2621704,63.9659412 84.7241761,63.8171597 85.2566571,63.8171597 L85.2566571,63.8171597 L91.505479,63.8171597 L91.7224112,63.8233997 C92.2140263,63.8525198 92.6037212,63.98356 92.8914959,64.2165205 C93.2203812,64.482761 93.3691627,64.8507994 93.3378403,65.3206356 L93.3378403,65.3206356 L93.3384928,74.299728 C93.340668,77.4493709 93.3482811,79.4679266 93.3613321,80.355395 C93.3749051,81.2783622 93.3825965,81.8249035 93.3844063,81.995019 L93.3844063,81.995019 L93.3848239,82.0468054 C93.4161463,84.5839211 92.9854631,86.9879164 92.0927743,89.2587915 C91.2000854,91.5296666 89.586981,93.4246728 87.2534611,94.9438099 C84.9199412,96.4629471 81.779869,97.2225156 77.8332447,97.2225156 C74.2311669,97.2225156 71.2320457,96.4864389 68.8358809,95.0142854 C66.4397161,93.5421318 64.6699997,91.6236339 63.5267315,89.2587915 C62.3834634,86.8939492 61.8118293,84.3333417 61.8118293,81.5769692 L61.8118293,81.5769692 L61.7648457,65.2266684 L61.769776,65.0744067 C61.8256537,64.236242 62.3564913,63.8171597 63.3622888,63.8171597 L63.3622888,63.8171597 L69.5171434,63.8171597 Z M185.479436,63.8171597 L185.66418,63.8249903 C186.148324,63.8667535 186.56441,64.0755696 186.912436,64.4514386 C187.303967,64.8742912 187.499732,65.3832805 187.499732,65.9784064 L187.499732,65.9784064 L187.499732,94.6384164 L187.492481,94.8527429 C187.453812,95.4111326 187.260463,95.8643409 186.912436,96.2123677 C186.520906,96.6038979 186.043239,96.799663 185.479436,96.799663 L185.479436,96.799663 L179.04268,96.799663 L178.838504,96.7924125 C178.30641,96.7537428 177.873309,96.5603946 177.539204,96.2123677 C177.163335,95.8208375 176.9754,95.2961871 176.9754,94.6384164 L176.9754,94.6384164 L176.9754,65.9784064 L176.982361,65.7832213 C177.019484,65.2712352 177.205098,64.8273076 177.539204,64.4514386 C177.915073,64.028586 178.416231,63.8171597 179.04268,63.8171597 L179.04268,63.8171597 L185.479436,63.8171597 Z M39.6489834,63.8171597 L40.143254,63.8240477 C42.934671,63.9021121 45.5654397,64.6437234 48.0355601,66.0488818 C50.6509818,67.5366965 52.7339224,69.5413311 54.284382,72.0627855 C55.8348415,74.58424 56.6100713,77.3171207 56.6100713,80.2614277 C56.6100713,83.2057348 55.8270109,85.9386155 54.2608902,88.4600699 C52.6947694,90.9815244 50.5961676,92.986159 47.9650847,94.4739737 C45.3340018,95.9617884 42.5306456,96.7056958 39.5550162,96.7056958 L39.5550162,96.7056958 L26.9634052,96.7056958 L26.778371,96.6981552 C26.2926802,96.6579388 25.8688608,96.4568566 25.5069129,96.0949087 C25.0997215,95.6877173 24.8961258,95.2022198 24.8961258,94.6384164 L24.8961258,94.6384164 L24.8961258,65.8844391 L24.9036664,65.6994048 C24.9438828,65.2137141 25.144965,64.7898947 25.5069129,64.4279468 C25.9141043,64.0207554 26.3996018,63.8171597 26.9634052,63.8171597 L26.9634052,63.8171597 L39.6489834,63.8171597 Z M155.893178,63.8171597 L156.159418,63.834561 C156.855472,63.8995261 157.440157,64.1129825 157.913473,64.4749304 C158.445955,64.8821218 158.806162,65.3676193 158.994097,65.9314227 L158.994097,65.9314227 L169.518428,92.3832025 L169.533111,92.4496402 C169.574221,92.6226476 169.663295,92.9215565 169.80033,93.3463667 C169.956942,93.8318642 170.035248,94.2938698 170.035248,94.7323836 C170.035248,95.8599906 169.4088,96.5177613 168.155903,96.7056958 L168.155903,96.7056958 L161.719147,96.7056958 L161.477255,96.7001899 C160.923974,96.6744957 160.448631,96.558872 160.051228,96.3533186 C159.597053,96.1184005 159.307321,95.7816845 159.182031,95.3431707 L159.182031,95.3431707 L157.725539,90.6448084 L147.248191,90.6448084 L145.791699,95.3431707 L145.737374,95.5028416 C145.593487,95.8642729 145.329693,96.1477653 144.945994,96.3533186 C144.50748,96.5882367 143.959337,96.7056958 143.301567,96.7056958 L143.301567,96.7056958 L136.770843,96.7056958 L136.572903,96.670313 C135.483289,96.4468025 134.938482,95.8321484 134.938482,94.8263509 C134.938482,94.2938698 135.024618,93.7692193 135.196892,93.2523995 C135.369165,92.7355796 135.470963,92.4458473 135.502285,92.3832025 L135.502285,92.3832025 L145.93265,65.9314227 L146.031547,65.7176763 C146.308422,65.1623801 146.690478,64.7246397 147.177716,64.404455 C147.725858,64.0442472 148.375798,63.8484821 149.127536,63.8171597 L149.127536,63.8171597 L155.893178,63.8171597 Z M114.326096,83.1274287 L110.708357,83.1274287 L110.574453,83.1307176 C110.193886,83.1504507 110.003602,83.2589829 110.003602,83.4563141 L110.003602,83.4563141 L110.003602,89.7521196 L110.01112,89.8244744 C110.031166,89.9171887 110.091305,89.9948683 110.191537,90.0575131 C110.316826,90.1358192 110.4891,90.1749722 110.708357,90.1749722 L110.708357,90.1749722 L115.171801,90.1749722 C116.549987,90.1123274 117.583627,89.7677808 118.27272,89.1413325 C118.961813,88.5148842 119.30636,87.669179 119.30636,86.6042168 C119.30636,85.5392547 118.930491,84.7013801 118.178753,84.090593 C117.427015,83.4798059 116.142796,83.1587512 114.326096,83.1274287 L114.326096,83.1274287 Z M39.7899343,73.0259498 L35.4204574,73.0259498 L35.2936016,73.0353465 C35.130725,73.0604045 34.9929064,73.1355783 34.8801457,73.2608679 C34.7391948,73.41748 34.6687194,73.6210757 34.6687194,73.871655 L34.6687194,73.871655 L34.6687194,85.7585116 L34.6771764,85.9032212 C34.6997286,86.0886499 34.767385,86.2440091 34.8801457,86.3692987 C35.0210966,86.5259108 35.2012005,86.6042168 35.4204574,86.6042168 L35.4204574,86.6042168 L39.7429507,86.6042168 C40.7765904,86.6042168 41.7397546,86.3066539 42.6324435,85.711528 C43.5251323,85.1164021 44.2455479,84.2941887 44.7936901,83.2448878 C45.3418324,82.1955869 45.6159035,81.0444881 45.6159035,79.7915915 C45.6159035,78.5700173 45.349663,77.4424104 44.817182,76.4087707 C44.2847009,75.375131 43.5721159,74.5529176 42.6794271,73.9421305 C41.7867383,73.3313434 40.823574,73.0259498 39.7899343,73.0259498 L39.7899343,73.0259498 Z M152.322422,71.6634247 L148.6577,82.7045761 L156.034129,82.7045761 L152.322422,71.6634247 Z M113.433407,70.5358178 L110.426455,70.5358178 L110.333956,70.5446272 C110.242925,70.5622461 110.156299,70.6062932 110.074078,70.6767687 C109.964449,70.7707359 109.909635,70.8803644 109.909635,71.005654 L109.909635,71.005654 L109.909635,76.3148034 L109.915273,76.3862185 C109.930308,76.4764271 109.975412,76.5465893 110.050586,76.5967052 C110.144553,76.65935 110.269843,76.6906724 110.426455,76.6906724 L110.426455,76.6906724 L113.99721,76.6906724 C115.093495,76.65935 115.931369,76.361787 116.510834,75.7979836 C117.090299,75.2341801 117.380031,74.5294257 117.380031,73.6837205 C117.380031,71.7104084 116.06449,70.6611074 113.433407,70.5358178 L113.433407,70.5358178 Z M128.402254,15.9933901 C130.998372,15.9933901 133.404371,16.6424197 135.62025,17.9404789 C137.836128,19.2385381 139.593097,20.9889512 140.891156,23.1917182 C142.189216,25.3944853 142.838245,27.793928 142.838245,30.3900463 C142.838245,32.9861647 142.189216,35.3856074 140.891156,37.5883744 C139.593097,39.7911415 137.836128,41.5415546 135.62025,42.8396138 C133.404371,44.1376729 130.998372,44.7867025 128.402254,44.7867025 C125.806136,44.7867025 123.406693,44.1376729 121.203926,42.8396138 C119.001159,41.5415546 117.250746,39.7911415 115.952686,37.5883744 C114.654627,35.3856074 114.005598,32.9861647 114.005598,30.3900463 C114.005598,27.793928 114.654627,25.3944853 115.952686,23.1917182 C117.250746,20.9889512 119.001159,19.2385381 121.203926,17.9404789 C123.406693,16.6424197 125.806136,15.9933901 128.402254,15.9933901 Z M72.4400209,16.190349 C76.0933415,16.2200549 78.8766321,16.9083252 80.7898927,18.2551599 C82.7828724,19.6581127 83.8580325,21.7887654 84.015373,24.6471179 C84.015373,24.7520116 84.0219289,24.9749106 84.0350406,25.3158151 C84.0481523,25.6567195 84.0547081,26.0631825 84.0547081,26.535204 L84.0540935,26.7724439 C84.0512254,27.3059266 84.0383185,27.6988681 84.015373,27.9512685 C83.9367028,29.6820141 83.4450137,31.3144218 82.5403058,32.8484917 C81.6355979,34.3825616 80.1801982,35.6412857 78.1741068,36.6246638 C76.1680153,37.608042 73.5522295,38.0997311 70.3267491,38.0997311 L70.3267491,38.0997311 L70.3267491,42.2692544 L70.3186854,42.4395755 C70.2703032,42.9422785 70.0042011,43.370638 69.520379,43.7246541 C68.982799,44.1180054 68.3206577,44.314681 67.5339551,44.314681 L67.5339551,44.314681 L63.6004425,44.314681 L63.3785678,44.3073057 C62.8708989,44.2728874 62.4335004,44.1180054 62.0663726,43.8426595 C61.6467979,43.5279785 61.4370106,43.1477389 61.4370106,42.7019408 L61.4370106,42.7019408 L61.4370106,17.802806 L61.4442949,17.6566347 C61.4831444,17.2733195 61.6773919,16.9418037 62.0270375,16.6620873 C62.4203887,16.3474063 62.8924103,16.1900658 63.443102,16.1900658 L63.443102,16.1900658 Z M158.89238,16.4261056 C162.598959,16.4518054 165.359983,17.1139369 167.17545,18.4125004 C169.063536,19.7630064 170.086249,21.8805474 170.24359,24.7651233 C170.269813,25.0273575 170.276369,25.2305889 170.263257,25.3748177 C170.250146,25.5190465 170.24359,25.6436078 170.24359,25.7485014 L170.24359,25.7485014 L170.24359,26.5745391 L170.208561,26.9199434 C170.049358,28.2792164 169.661127,29.3703588 169.043869,30.1933707 C168.375171,31.0849669 167.490131,31.9110045 166.388748,32.6714837 L166.388748,32.6714837 L166.428083,32.7108188 L166.719954,32.860944 C167.868819,33.4809959 168.794242,34.3356621 169.496223,35.4249425 C170.256702,36.6049963 170.774614,37.8374969 171.04996,39.1224444 C171.325306,40.4073918 171.436755,41.5612222 171.384309,42.5839355 C171.384309,43.0297336 171.226968,43.3837497 170.912287,43.6459839 C170.597606,43.908218 170.151808,44.0393351 169.574893,44.0393351 L169.574893,44.0393351 L164.776007,44.0393351 L164.596074,44.035109 C164.016341,44.0069351 163.637077,43.8378916 163.458281,43.5279785 C163.261605,43.1870741 163.156711,42.8265021 163.1436,42.4462625 C163.130488,42.066023 163.11082,41.7972329 163.084597,41.6398924 C162.796139,39.8567 162.199557,38.6176436 161.294849,37.922723 C160.390141,37.2278024 159.26909,36.8147836 157.931695,36.6836665 C157.748131,36.6574431 157.525232,36.6443314 157.262998,36.6443314 C157.000764,36.6443314 156.777865,36.6705548 156.594301,36.7230017 L156.594301,36.7230017 L156.554966,36.7623368 L156.554966,41.7972329 L156.551142,42.0381606 C156.538394,42.4260486 156.493778,42.7456465 156.417293,42.9969543 C156.325511,43.2985236 156.076389,43.547646 155.669926,43.7443217 C155.263463,43.9409973 154.627545,44.0393351 153.762172,44.0393351 L153.762172,44.0393351 L150.104005,44.0393351 L149.839343,44.0415204 L149.587307,44.030594 C149.013953,43.989802 148.543712,43.8419311 148.176584,43.5869812 C147.704563,43.2591885 147.468552,42.8068345 147.468552,42.2299193 L147.468552,42.2299193 L147.507887,31.6094352 L147.507887,17.9208113 L147.515171,17.7913939 C147.554021,17.4508132 147.748268,17.1464921 148.097914,16.8784305 C148.491265,16.5768612 148.963287,16.4260765 149.513978,16.4260765 L149.513978,16.4260765 Z M21.1409828,16.6227522 L21.3053913,16.6304348 C21.6825578,16.6662871 22.0145504,16.8276226 22.301369,17.1144412 C22.6291618,17.442234 22.7930581,17.8552528 22.7930581,18.3534977 L22.7930581,18.3534977 L22.7930581,21.7756537 L22.7850682,21.9406768 C22.7477817,22.3207115 22.5799928,22.6656109 22.2817015,22.975375 C21.940797,23.3293912 21.5605575,23.5063992 21.1409828,23.5063992 L21.1409828,23.5063992 L9.49778546,23.5063992 L9.49778546,26.6925445 L20.590291,26.6925445 L20.7454804,26.7002271 C21.1025696,26.7360794 21.4245235,26.8974149 21.7113421,27.1842335 C22.0391349,27.5120263 22.2030312,27.9250451 22.2030312,28.42329 L22.2030312,28.42329 L22.2030312,31.845446 L22.1953486,32.0104692 C22.1594962,32.3905038 21.9981608,32.7354032 21.7113421,33.0451674 C21.3835494,33.3991835 21.0098657,33.5761916 20.590291,33.5761916 L20.590291,33.5761916 L9.49778546,33.5761916 L9.49778546,37.0770178 L21.1409828,37.0770178 L21.3053913,37.0847004 C21.6825578,37.1205528 22.0145504,37.2818882 22.301369,37.5687069 C22.6291618,37.8964996 22.7930581,38.3226301 22.7930581,38.8470985 L22.7930581,38.8470985 L22.7930581,42.2299193 L22.7853755,42.4041616 C22.7495231,42.8042736 22.5881877,43.1592117 22.301369,43.4689758 C21.9735763,43.8229919 21.5867809,44 21.1409828,44 L21.1409828,44 L2.57480325,44 L2.41039471,43.9917027 C2.03322821,43.9529822 1.70123565,43.7787399 1.41441702,43.4689758 C1.0866243,43.1149597 0.922727945,42.7019408 0.922727945,42.2299193 L0.922727945,42.2299193 L0.922727945,18.3534977 L0.930410587,18.1706508 C0.966262915,17.7533297 1.12759839,17.4012599 1.41441702,17.1144412 C1.74220974,16.7866485 2.12900515,16.6227522 2.57480325,16.6227522 L2.57480325,16.6227522 L21.1409828,16.6227522 Z M96.3553644,16.3867414 L96.5197729,16.3947314 C96.8969394,16.4320178 97.228932,16.5998067 97.5157506,16.898098 C97.8435433,17.2390025 98.0074397,17.6585772 98.0074397,18.1568221 L98.0074397,18.1568221 L98.0074397,35.7789586 L108.824599,35.7789586 L109.008061,35.786334 C109.42825,35.8207522 109.793227,35.9756343 110.102991,36.2509801 C110.457007,36.5656611 110.634015,36.9590124 110.634015,37.4310339 L110.634015,37.4310339 L110.634015,42.3872598 L110.625718,42.5513611 C110.586997,42.9270935 110.412755,43.2526326 110.102991,43.5279785 C109.748975,43.8426595 109.322844,44 108.824599,44 L108.824599,44 L92.0678356,44 L91.0451223,43.9606649 L90.8807138,43.9529822 C90.5035473,43.9171299 90.1715547,43.7557944 89.8847361,43.4689758 C89.5569434,43.1411831 89.393047,42.7281643 89.393047,42.2299193 L89.393047,42.2299193 L89.393047,18.1568221 L89.4007297,17.9736679 C89.436582,17.5549127 89.5979175,17.1963894 89.8847361,16.898098 C90.2125288,16.5571936 90.5993242,16.3867414 91.0451223,16.3867414 L91.0451223,16.3867414 L96.3553644,16.3867414 Z M197.058908,16.6227522 L197.223316,16.6304348 C197.600483,16.6662871 197.932475,16.8276226 198.219294,17.1144412 C198.547087,17.442234 198.710983,17.8552528 198.710983,18.3534977 L198.710983,18.3534977 L198.710983,21.7756537 L198.702993,21.9406768 C198.665707,22.3207115 198.497918,22.6656109 198.199626,22.975375 C197.858722,23.3293912 197.478482,23.5063992 197.058908,23.5063992 L197.058908,23.5063992 L185.41571,23.5063992 L185.41571,26.6925445 L196.508216,26.6925445 L196.663405,26.7002271 C197.020494,26.7360794 197.342448,26.8974149 197.629267,27.1842335 C197.95706,27.5120263 198.120956,27.9250451 198.120956,28.42329 L198.120956,28.42329 L198.120956,31.845446 L198.113273,32.0104692 C198.077421,32.3905038 197.916086,32.7354032 197.629267,33.0451674 C197.301474,33.3991835 196.927791,33.5761916 196.508216,33.5761916 L196.508216,33.5761916 L185.41571,33.5761916 L185.41571,37.0770178 L197.058908,37.0770178 L197.223316,37.0847004 C197.600483,37.1205528 197.932475,37.2818882 198.219294,37.5687069 C198.547087,37.8964996 198.710983,38.3226301 198.710983,38.8470985 L198.710983,38.8470985 L198.710983,42.2299193 L198.7033,42.4041616 C198.667448,42.8042736 198.506113,43.1592117 198.219294,43.4689758 C197.891501,43.8229919 197.504706,44 197.058908,44 L197.058908,44 L178.492728,44 L178.32832,43.9917027 C177.951153,43.9529822 177.619161,43.7787399 177.332342,43.4689758 C177.004549,43.1149597 176.840653,42.7019408 176.840653,42.2299193 L176.840653,42.2299193 L176.840653,18.3534977 L176.848335,18.1706508 C176.884188,17.7533297 177.045523,17.4012599 177.332342,17.1144412 C177.660135,16.7866485 178.04693,16.6227522 178.492728,16.6227522 L178.492728,16.6227522 L197.058908,16.6227522 Z M37.178476,16.583417 L37.3143051,16.591407 C37.6269374,16.6286934 37.9094538,16.7964823 38.1618542,17.0947737 L38.1618542,17.0947737 L42.0953668,22.5230211 L46.1075497,17.0947737 L46.192366,16.9829144 C46.2833285,16.8772013 46.3927293,16.7899265 46.5205685,16.72109 C46.6910207,16.629308 46.8811405,16.583417 47.0909278,16.583417 L47.0909278,16.583417 L54.8006125,16.583417 L54.9439048,16.591846 C55.22487,16.6255618 55.4721193,16.7604251 55.6856529,16.9964359 C55.9347754,17.2717817 56.0593366,17.5930186 56.0593366,17.9601465 C56.0593366,18.2748275 55.9675546,18.5370616 55.7839907,18.746849 L55.7839907,18.746849 L46.9335873,29.6426789 L56.2560122,41.7972329 L56.3409761,41.9404128 C56.441674,42.1334171 56.492023,42.334813 56.492023,42.5446003 C56.492023,42.8855048 56.3740176,43.1936299 56.1380068,43.4689758 C55.9019961,43.7443217 55.6004268,43.8819946 55.2332989,43.8819946 L55.2332989,43.8819946 L46.8155819,43.8819946 L46.6904962,43.8741276 C46.5247642,43.8531489 46.363228,43.7902127 46.2058875,43.685319 C46.0092118,43.5542019 45.8453155,43.3968614 45.7141984,43.2132975 L45.7141984,43.2132975 L42.0953668,38.0997311 L38.5552054,43.2132975 L38.4265164,43.3536413 C38.0898207,43.7058769 37.8049243,43.8819946 37.5718273,43.8819946 L37.5718273,43.8819946 L29.0361049,43.8819946 L28.8823768,43.873967 C28.5821454,43.8418567 28.325263,43.7134155 28.1117294,43.4886434 C27.862607,43.2264092 27.7380457,42.9248399 27.7380457,42.5839355 C27.7380457,42.2692544 27.8298277,42.0070203 28.0133916,41.7972329 L28.0133916,41.7972329 L36.9424653,29.6820141 L28.446078,18.746849 L28.3611141,18.6020957 C28.2604162,18.4048956 28.2100672,18.1909125 28.2100672,17.9601465 C28.2100672,17.619242 28.3280726,17.304561 28.5640834,17.0161034 C28.8000941,16.7276458 29.07544,16.583417 29.390121,16.583417 L29.390121,16.583417 L37.178476,16.583417 Z M128.284249,23.8210803 C127.130418,23.8210803 126.074926,24.102982 125.117771,24.6667855 C124.160616,25.2305889 123.406693,25.9845122 122.856001,26.9285552 C122.305309,27.8725983 122.029963,28.9084232 122.029963,30.0360302 C122.029963,31.1636371 122.305309,32.206018 122.856001,33.1631727 C123.406693,34.1203275 124.160616,34.8808066 125.117771,35.4446101 C126.074926,36.0084135 127.130418,36.2903153 128.284249,36.2903153 C129.385632,36.2903153 130.414901,36.0084135 131.372056,35.4446101 C132.329211,34.8808066 133.096246,34.1203275 133.673161,33.1631727 C134.250076,32.206018 134.538534,31.1636371 134.538534,30.0360302 C134.538534,28.9084232 134.250076,27.8725983 133.673161,26.9285552 C133.096246,25.9845122 132.329211,25.2305889 131.372056,24.6667855 C130.414901,24.102982 129.385632,23.8210803 128.284249,23.8210803 Z M71.9001542,22.9163724 L68.7922686,22.917 L68.7922686,30.43 L70.9561111,30.4293815 L71.3221245,30.4224978 C72.408954,30.3811959 73.3948889,30.1540356 74.2799293,29.7410168 C75.2633074,29.2821069 75.7549965,28.2266144 75.7549965,26.5745391 C75.7549965,25.3682619 75.4403155,24.4701098 74.8109535,23.8800829 C74.1815915,23.2900561 73.211325,22.9688192 71.9001542,22.9163724 L71.9001542,22.9163724 Z M158.167706,22.2870103 L154.942226,22.2870103 L154.942226,29.3279979 L157.223663,29.3279979 C158.42994,29.3279979 159.53788,29.1116547 160.547481,28.6789683 C161.557083,28.246282 162.061884,27.2432362 162.061884,25.6698312 C162.061884,24.5684477 161.727535,23.7292983 161.058838,23.1523831 C160.390141,22.5754679 159.42643,22.2870103 158.167706,22.2870103 L158.167706,22.2870103 Z M140.950159,6.43495448 C141.999096,6.43495448 142.982474,6.6906328 143.900294,7.20198944 C144.818113,7.71334608 145.552369,8.4148225 146.103061,9.30641869 C146.653752,10.1980149 146.929098,11.181393 146.929098,12.2565532 C146.929098,13.2792664 146.640641,14.2495329 146.063726,15.1673525 C145.48681,16.0851721 144.739443,16.8194278 143.821623,17.3701196 C142.903804,17.9208113 141.946649,18.1961572 140.950159,18.1961572 C139.901222,18.1961572 138.930956,17.933923 138.03936,17.4094547 C137.147764,16.8849863 136.433176,16.1769541 135.895595,15.2853579 C135.358015,14.3937617 135.089225,13.4103835 135.089225,12.3352234 C135.089225,11.2862867 135.35146,10.3094644 135.875928,9.40475651 C136.400396,8.5000486 137.108429,7.77890462 138.000025,7.24132457 C138.891621,6.70374451 139.874999,6.43495448 140.950159,6.43495448 Z M140.871489,10.014451 C140.215903,10.014451 139.691435,10.2242383 139.298084,10.643813 C138.904733,11.0633877 138.708057,11.5747443 138.708057,12.1778829 C138.708057,12.7810215 138.911288,13.298934 139.317751,13.7316204 C139.724214,14.1643068 140.242127,14.38065 140.871489,14.38065 C141.448404,14.38065 141.959761,14.1577509 142.405559,13.7119528 C142.851357,13.2661547 143.074256,12.7416864 143.074256,12.1385478 C143.074256,11.5354092 142.851357,11.0306084 142.405559,10.6241454 C141.959761,10.2176824 141.448404,10.014451 140.871489,10.014451 Z M132.807788,0.73136118 C133.856725,0.73136118 134.741765,1.09193317 135.462909,1.81307715 C136.184053,2.53422113 136.544625,3.44548489 136.544625,4.54686842 C136.544625,5.54335828 136.177497,6.39561935 135.443242,7.10365162 C134.708986,7.8116839 133.830501,8.16570003 132.807788,8.16570003 C131.811298,8.16570003 130.952481,7.80512804 130.231337,7.08398406 C129.510193,6.36284008 129.149621,5.49091145 129.149621,4.46819817 C129.149621,3.44548489 129.503637,2.5670004 130.21167,1.83274471 C130.919702,1.09848902 131.785075,0.73136118 132.807788,0.73136118 Z M132.768453,2.97346337 C132.375102,2.97346337 132.047309,3.11113631 131.785075,3.3864822 C131.522841,3.66182808 131.391724,3.99617665 131.391724,4.38952792 C131.391724,4.78287918 131.529396,5.11722775 131.804742,5.39257363 C132.080088,5.66791952 132.414437,5.80559246 132.807788,5.80559246 C133.201139,5.80559246 133.542044,5.63514025 133.830501,5.29423582 C134.118959,4.95333139 134.250076,4.59931526 134.223853,4.23218741 C134.171406,3.86505957 134.007509,3.56349027 133.732164,3.32747951 C133.456818,3.09146875 133.135581,2.97346337 132.768453,2.97346337 Z" id="Combined-Shape"></path>
        </g>
    </g>
</svg>