<?xml version="1.0" encoding="UTF-8"?>
<svg width="270px" height="102px" viewBox="0 0 270 102" version="1.1" xmlns="http://www.w3.org/2000/svg" xmlns:xlink="http://www.w3.org/1999/xlink">
    <!-- Generator: Sketch 64 (93537) - https://sketch.com -->
    <title>fimigroup</title>
    <desc>Created with Sketch.</desc>
    <g id="fimigroup" stroke="none" stroke-width="1" fill="none" fill-rule="evenodd">
        <g id="Group-10" transform="translate(0.000000, 13.000000)" fill-rule="nonzero">
            <g id="Group" transform="translate(16.604411, 12.241764)" fill="#000000">
                <path d="M26.0363916,7.61299223 C27.7998269,7.61299223 28.7890711,6.53772679 28.7890711,4.77429146 C28.7890711,3.56999416 28.2729437,2.32268624 26.3804765,2.32268624 C24.6600518,2.32268624 23.6708076,3.52698354 23.6708076,5.16138702 C23.6708076,6.49471617 24.2299456,7.61299223 25.993381,7.61299223 L26.0363916,7.61299223 Z M31.842825,36 L31.842825,34.1505434 L28.1009013,33.8494691 L28.1009013,12.3011496 L27.2406889,11.6129797 L27.1546677,11.6129797 L21.262213,12.3011496 L21.262213,14.2366274 L24.6170412,14.9678079 L24.6170412,33.8064585 L20.8321068,34.1505434 L20.8321068,36 L31.842825,36 Z M44.1438617,36 L44.1438617,34.1505434 L41.0901078,33.8064585 L41.0901078,17.0753282 C42.8535432,15.6989884 45.7352546,14.2366274 48.1438492,14.2366274 C52.3158791,14.2366274 52.8750171,16.645222 52.8750171,21.6344536 L52.8750171,33.8064585 L49.7782526,34.1505434 L49.7782526,36 L59.6276841,36 L59.6276841,34.1505434 L56.3588772,33.8064585 L56.3588772,21.6774643 C56.3588772,19.6129546 56.2298453,17.8925299 55.928771,16.5161901 C57.391132,15.4409247 59.9717691,14.1936168 62.2513318,14.1936168 C66.5540478,14.1936168 67.3814932,16.6759529 67.4117268,21.437742 L67.4126059,33.8064585 L64.4878839,34.1505434 L64.4878839,36 L74.1222623,36 L74.1222623,34.1505434 L70.8534554,33.8064585 L70.8534554,21.591443 C70.8534554,14.6237229 69.434105,11.5699691 63.9717565,11.5699691 C60.874992,11.5699691 56.9180152,13.4624363 55.369633,14.7527548 C54.3803887,12.5592133 52.6169534,11.5699691 49.5201889,11.5699691 C46.4664351,11.5699691 42.5524688,13.6344787 40.6600017,15.2688822 L40.7030123,14.1936168 L40.7030123,12.3011496 L39.7567787,11.6129797 L34.2944302,12.3011496 L34.2944302,14.2366274 L37.6062478,14.9678079 L37.6062478,33.8064585 L34.8535682,34.1505434 L34.8535682,36 L44.1438617,36 Z M82.2942797,7.61299223 C84.057715,7.61299223 85.0469593,6.53772679 85.0469593,4.77429146 C85.0469593,3.56999416 84.5308318,2.32268624 82.6383647,2.32268624 C80.9179399,2.32268624 79.9286957,3.52698354 79.9286957,5.16138702 C79.9286957,6.49471617 80.4878338,7.61299223 82.2512691,7.61299223 L82.2942797,7.61299223 Z M88.1007131,36 L88.1007131,34.1505434 L84.3587894,33.8494691 L84.3587894,12.3011496 L83.498577,11.6129797 L83.4125558,11.6129797 L77.5201011,12.3011496 L77.5201011,14.2366274 L80.8749293,14.9678079 L80.8749293,33.8064585 L77.089995,34.1505434 L77.089995,36 L88.1007131,36 Z" id="imi"></path>
                <path d="M13.064472,36 L13.064472,34.1505434 L8.1612616,33.8494691 L8.1612616,14.7097442 L14.3978012,14.7097442 L14.3978012,12.1721177 L8.1612616,12.1721177 L8.1612616,8.94632139 C8.1612616,4.98934455 9.53760137,3.65601539 12.505334,3.65601539 C14.526833,3.65601539 15.9461834,4.12913219 16.333279,4.43020652 L16.333279,0.903335854 C15.8171516,0.731293383 15.2150029,0.559250912 13.9246844,0.559250912 C9.27953766,0.559250912 4.67740155,4.77429146 4.67740155,10.0645975 L4.67740155,12.1721177 L0.333329153,12.9893195 L0.333329153,14.7097442 L4.67740155,14.7097442 L4.67740155,33.8064585 L0.892467184,34.1505434 L0.892467184,36 L13.064472,36 Z" id="f"></path>
                <path d="M103.611137,48.7051756 C110.664879,48.7051756 116.213248,44.6621775 116.213248,39.9740202 C116.213248,36.4041389 113.890675,34.0815655 108.385316,34.0815655 L103.310063,34.0815655 C99.8692135,34.0815655 98.578895,33.3933956 98.578895,31.1568435 C98.578895,30.0815781 99.2240542,28.963302 100.256309,28.1461003 C101.245553,28.404164 102.320819,28.5331958 103.482105,28.5331958 C108.68639,28.5331958 113.030463,25.135357 113.030463,19.9310723 C113.030463,18.2536582 112.557346,16.8343078 111.783155,15.7590423 L116.686365,15.7590423 L116.686365,12.5762566 L115.267015,12.5762566 C112.944441,12.5762566 110.965953,13.7805539 110.363804,14.3396919 C108.729401,13.1353946 106.449838,12.5762566 103.955222,12.5762566 C99.2240542,12.5762566 94.3638544,15.5439892 94.3638544,20.7912846 C94.3638544,23.9740703 96.0412685,26.2966437 98.6649162,27.5439516 C96.8584702,28.4901852 95.4391199,30.4686736 95.4391199,32.6622151 C95.4391199,34.3826399 96.1703004,35.5439265 97.4606189,36.2320964 C95.5681517,37.2643512 93.4606314,39.4578928 93.4606314,42.2535829 C93.4606314,46.0385173 96.1272897,48.7051756 103.611137,48.7051756 Z M103.912212,26.4256756 C99.7401816,26.4256756 98.0197569,23.7160066 98.0197569,20.3181678 C98.0197569,15.9740954 100.557383,14.6837769 103.697158,14.6837769 C107.353061,14.6837769 109.37456,16.4042016 109.37456,20.4041891 C109.37456,24.3181553 107.654135,26.4256756 103.912212,26.4256756 Z M103.82619,46.5116341 C98.5358843,46.5116341 96.9444915,44.6621775 96.9444915,41.565413 C96.9444915,39.543914 97.8907251,37.9525211 99.0520118,36.8342451 C99.9552347,37.0492982 101.0305,37.0923088 102.191787,37.0923088 L107.525103,37.0923088 C112.17025,37.0923088 112.944441,38.5546698 112.944441,40.9632644 C112.944441,44.4471244 108.385316,46.5116341 103.82619,46.5116341 Z M131.912124,37.0923088 L131.912124,35.3288734 L126.191712,34.9847885 L126.191712,18.6837643 C127.525041,17.6945201 129.847614,16.1461379 133.546527,16.1461379 C134.492761,16.1461379 135.352973,16.4042016 135.525016,16.5332335 L135.525016,12.7482991 C135.223941,12.6622779 134.836846,12.5762566 134.234697,12.5762566 C129.503529,12.5762566 126.277733,16.7912972 125.761605,17.3504352 L125.675584,17.3504352 L125.761605,14.0816282 L125.761605,13.3934584 L124.944404,12.7052885 L124.858382,12.7052885 L119.396034,13.3934584 L119.396034,15.3289362 L122.707852,16.0601167 L122.707852,35.0277991 L119.267002,35.2858628 L119.267002,37.0923088 L131.912124,37.0923088 Z M149.07336,37.5654256 C154.578719,37.5654256 160.127089,32.9632895 160.127089,25.135357 C160.127089,18.38269 157.202367,12.5762566 149.503466,12.5762566 C143.998107,12.5762566 138.449738,17.1783927 138.449738,25.0063252 C138.449738,31.7589922 141.37446,37.5654256 149.07336,37.5654256 Z M149.288413,35.3288734 C144.299182,35.3288734 142.363704,30.5116842 142.363704,24.7482615 C142.363704,18.1676369 144.944341,14.8128087 149.331424,14.8128087 C154.363666,14.8128087 156.213123,19.7160192 156.213123,25.3934207 C156.213123,31.9310346 153.632486,35.3288734 149.288413,35.3288734 Z M173.546402,37.5654256 C176.729188,37.5654256 179.868963,35.5439265 181.589387,33.9955443 L181.589387,35.6729584 C181.589387,37.1353194 182.363578,37.4794043 183.739918,37.4794043 C185.24529,37.4794043 186.363566,37.0923088 187.3098,36.8342451 L187.35281,35.1998416 L184.686152,35.1998416 L184.686152,13.2214159 L183.696908,12.7052885 L183.653897,12.7052885 L177.933485,13.2644265 L177.933485,14.8558194 L181.202292,15.5869999 L181.202292,32.1890983 C179.868963,33.350385 177.417357,34.9417779 174.621667,34.9417779 C170.62168,34.9417779 169.804478,32.8342576 169.804478,27.7159941 L169.804478,13.2214159 L169.030287,12.7052885 L168.987276,12.7052885 L163.782992,13.2644265 L163.782992,14.8558194 L166.320618,15.5869999 L166.320618,28.2321215 C166.320618,34.7697354 168.256096,37.5654256 173.546402,37.5654256 Z M201.97642,47.5008783 L201.97642,45.6084111 L197.202242,45.1783049 L197.202242,40.5331582 L197.11622,36.8772557 C198.277507,37.3073619 200.299006,37.5654256 201.847388,37.5654256 C209.202204,37.5654256 213.976383,31.6729709 213.976383,24.2751447 C213.976383,16.017106 209.331236,12.5762566 204.557057,12.5762566 C200.944165,12.5762566 198.277507,14.4687238 196.772135,16.017106 L196.772135,13.3934584 L195.997944,12.7052885 L195.911923,12.7052885 L190.406564,13.3934584 L190.406564,15.3289362 L193.761392,16.0601167 L193.761392,45.1783049 L190.449575,45.6084111 L190.449575,47.5008783 L201.97642,47.5008783 Z M202.019431,35.5439265 C199.653847,35.5439265 197.632348,34.7697354 197.202242,34.0815655 L197.202242,17.6945201 C198.191486,16.6192547 200.428038,15.1999043 203.137707,15.1999043 C206.965652,15.1999043 210.277469,18.0386051 210.234459,24.8772933 C210.105427,32.232109 206.621567,35.5439265 202.019431,35.5439265 Z M221.073135,37.5654256 C222.492485,37.5654256 223.825814,36.4041389 223.825814,34.7267248 C223.825814,33.4794169 223.137644,32.3181302 221.503241,32.3181302 C220.08389,32.3181302 218.707551,33.5224275 218.707551,35.156831 C218.707551,36.619192 219.782816,37.5654256 221.073135,37.5654256 Z" id="group."></path>
            </g>
            <rect id="Rectangle-5" stroke="#000000" stroke-width="1.04029407" x="0.520147036" y="0.520147036" width="256.952636" height="74.9011732"></rect>
        </g>
    </g>
</svg>