<?xml version="1.0" encoding="UTF-8"?>
<svg width="270px" height="102px" viewBox="0 0 270 102" version="1.1" xmlns="http://www.w3.org/2000/svg" xmlns:xlink="http://www.w3.org/1999/xlink">
    <!-- Generator: Sketch 64 (93537) - https://sketch.com -->
    <title>gratcircle</title>
    <desc>Created with Sketch.</desc>
    <g id="gratcircle" stroke="none" stroke-width="1" fill="none" fill-rule="evenodd">
        <g id="Group-2" transform="translate(7.000000, 3.000000)" fill="#1F1F20">
            <g id="Page-1" transform="translate(48.500000, 47.411765) scale(1, -1) translate(-48.500000, -47.411765) translate(0.000000, 15.411765)">
                <path d="M35.2919215,42.3497989 C30.6098995,40.7947733 28.2673465,36.1235405 29.8265814,31.4504609 C28.2673465,36.1235405 23.5871749,38.4616193 18.9063865,36.9053625 C23.5871749,38.4616193 25.9297279,43.1322365 24.3717266,47.8047005 C25.9297279,43.1322365 30.6098995,40.7947733 35.2919215,42.3497989" id="Fill-1"></path>
                <g id="Group-5">
                    <path d="M12.3294291,31.6720879 C9.07132901,29.0696487 5.90802145,26.116765 3.25508679,22.1505268 C1.95059124,20.155755 0.727077359,17.8735496 0.188455036,14.8904551 C-0.0645342363,13.410129 -0.0883893042,11.7286857 0.275086599,10.1292429 C0.624123908,8.5203054 1.36237548,7.12111669 2.19793063,6.06978305 C3.03536906,5.00722827 3.97701648,4.18031724 4.9293359,3.57006035 C5.40455396,3.2196158 5.88856074,2.99605635 6.37193974,2.71207542 C6.85594652,2.47643167 7.34371988,2.24683007 7.83086548,2.04398655 C9.78384222,1.25764422 11.7506298,0.829514922 13.7061176,0.537765519 C15.6641165,0.243426624 17.6152099,0.152794413 19.5562591,0.164878708 C21.4973083,0.179552494 23.4333354,0.264142558 25.3542961,0.492017831 C33.0506944,1.32151835 40.596429,3.40951186 47.9758059,6.2191104 C55.3539273,9.04251957 62.5650633,12.6660817 69.5520871,17.0992915 C76.5027006,21.6334916 83.2963728,26.8055698 89.3517935,34.0216201 C90.8496406,35.8618856 92.2985221,37.8411204 93.6136897,40.1449049 C94.256521,41.3308921 94.897469,42.53069 95.4241638,43.9531841 C95.7047747,44.6247256 95.9301423,45.4093416 96.1605321,46.1628837 C96.3557669,46.9820263 96.5623016,47.7752739 96.6646273,48.6954066 C96.905689,50.4674821 96.8774396,52.5364861 96.3739721,54.4596153 C95.8799211,56.3939656 94.9432958,57.9830504 93.9558216,59.1094793 C92.9595586,60.250582 91.9011469,61.0464191 90.864707,61.6143809 C89.8226172,62.2246378 88.7924549,62.6027036 87.769198,62.9436534 C85.7283342,63.5668577 83.7238807,63.8068173 81.7470489,63.9026285 C79.7702171,63.994987 77.8203792,63.9078075 75.8893742,63.6971955 C72.0273643,63.2940979 68.2388028,62.4576921 64.5117624,61.3485265 C57.0670979,59.0801317 49.8321069,55.8769304 42.914765,51.725112 C50.2640092,54.0522019 57.6132534,56.1134373 65.0064411,57.164771 C66.8514423,57.4418466 68.6945602,57.6749008 70.5364225,57.8104176 C72.3764016,57.9649239 74.2119863,58.0486508 76.0356434,58.0262085 C79.6685192,57.9959978 83.3246222,57.6093004 86.5601227,56.3620285 C87.3485955,56.0279841 88.1270241,55.6706342 88.7943382,55.2027994 C89.4855074,54.7643121 90.0611678,54.2179294 90.4798871,53.6646413 C91.3317641,52.5123175 91.4648503,51.6759116 91.233205,50.1679643 C91.1917725,49.8062986 91.0517809,49.3902536 90.9507108,48.9862929 C90.7900029,48.5650689 90.6707276,48.1447081 90.4616819,47.7105366 C90.1063669,46.8482359 89.6167103,45.9703982 89.1163816,45.1106869 C88.0680141,43.3938539 86.8080899,41.7624741 85.4665562,40.224316 C82.7621448,37.1540419 79.7526397,34.3789699 76.6131872,31.8792473 C73.4913121,29.3329137 70.2237956,27.0507083 66.9022913,24.9204198 C63.5839258,22.7720048 60.1839508,20.8324755 56.7444267,19.0267366 C53.3111802,17.1959659 49.8170405,15.5637229 46.2990458,14.0540493 C39.261173,11.056281 32.0789142,8.63424304 24.8282291,7.21692789 C21.2079087,6.5229441 17.5599666,6.07582519 13.9710344,6.17422588 C12.180021,6.22428939 10.4047018,6.43576455 8.70534204,6.87511498 C8.283484,6.99164211 7.86915914,7.12888517 7.45420651,7.26785456 C7.06122565,7.44480316 6.63622879,7.57255142 6.26647523,7.79179506 C5.47988576,8.15950288 4.7949942,8.68948553 4.19045656,9.2738475 C2.9594095,10.4391188 2.39567658,12.1611308 2.56893971,14.2879667 C2.74157507,16.4199815 3.61165728,18.6296812 4.60980354,20.6710638 C5.62992158,22.7236676 6.86787405,24.6329862 8.18241385,26.4421778 C9.48628164,28.2772642 10.8974972,29.9811498 12.3294291,31.6720879" id="Fill-3"></path>
                </g>
            </g>
            <g id="Group" transform="translate(109.382353, 0.000000)" font-family="Helvetica" font-weight="normal">
                <text id="G" font-size="44.4705882" letter-spacing="0.635294127">
                    <tspan x="0.460558359" y="43">G</tspan>
                </text>
                <text id="ratitude" font-size="22.2352941" letter-spacing="0.317647064">
                    <tspan x="32.4794118" y="41.6470588">RATITUDE</tspan>
                </text>
                <g id="Group-6" transform="translate(21.552941, 42.088235)">
                    <text id="C" font-size="44.4705882" letter-spacing="0.635294127">
                        <tspan x="0.586500455" y="43">C</tspan>
                    </text>
                    <text id="ircle" font-size="22.2352941" letter-spacing="0.317647064">
                        <tspan x="32.3727022" y="41.6470588">IRCLE</tspan>
                    </text>
                </g>
            </g>
        </g>
    </g>
</svg>