<?xml version="1.0" encoding="UTF-8"?>
<svg width="270px" height="102px" viewBox="0 0 270 102" version="1.1" xmlns="http://www.w3.org/2000/svg" xmlns:xlink="http://www.w3.org/1999/xlink">
    <!-- Generator: Sketch 64 (93537) - https://sketch.com -->
    <title>guardian</title>
    <desc>Created with Sketch.</desc>
    <g id="guardian" stroke="none" stroke-width="1" fill="none" fill-rule="evenodd">
        <g id="Group-2" transform="translate(4.000000, 15.000000)" fill="#1F1F20">
            <path d="M51.6717834,3.54728624 C66.573791,12.1567702 70.2420067,33.7166124 59.8650679,51.7024419 C49.4881291,69.6880337 28.995519,77.2889021 14.0937494,68.6794181 C-0.808496121,60.0696965 -4.47671188,38.5098543 5.90046491,20.5242624 C16.2771658,2.53867063 36.7700139,-5.06243541 51.6717834,3.54728624 Z M35.5574118,17.4705882 C32.6604561,17.4705882 30.051541,17.9237602 27.7305882,18.8301176 C25.4096355,19.7364751 23.4275376,21.0155212 21.7842353,22.6672941 C20.140933,24.3190671 18.8788279,26.2926944 17.9978824,28.5882353 C17.1169368,30.8837762 16.6764706,33.4122215 16.6764706,36.1736471 C16.6764706,38.9181314 17.1338778,41.4338709 18.0487059,43.7209412 C18.963534,46.0080114 20.2679915,47.9774035 21.9621176,49.6291765 C23.6562438,51.2809494 25.7018704,52.568466 28.0990588,53.4917647 C30.4962473,54.4150634 33.1771616,54.8767059 36.1418824,54.8767059 C40.797704,54.8767059 44.9021192,53.6558838 48.455242,51.2142042 L48.8477647,50.9378824 L48.8477647,36.4531765 L37.1329412,36.4531765 L37.1329412,39.8329412 C37.1329412,40.1717664 37.2430577,40.4470578 37.4632941,40.6588235 C37.6520682,40.840337 37.9030721,40.9440579 38.2163116,40.9699881 L38.3781176,40.9764706 L43.4858824,40.9764706 L43.4858824,48.2442353 C42.3508179,48.8202382 41.1945941,49.2691749 40.0171765,49.5910588 C38.8397588,49.9129428 37.497184,50.0738824 35.9894118,50.0738824 C33.9734017,50.0738824 32.1480082,49.7604737 30.5131765,49.1336471 C28.8783448,48.5068204 27.4849469,47.5962413 26.3329412,46.4018824 C25.1809354,45.2075234 24.2915325,43.7505968 23.6647059,42.0310588 C23.0378792,40.3115208 22.7244706,38.3590698 22.7244706,36.1736471 C22.7244706,34.1068132 23.0209382,32.2348319 23.6138824,30.5576471 C24.2068265,28.8804622 25.0538768,27.4531824 26.1550588,26.2757647 C27.2562408,25.0983471 28.5818746,24.1920032 30.132,23.5567059 C31.6821254,22.9214086 33.4228139,22.6037647 35.3541176,22.6037647 C36.6247122,22.6037647 37.7258777,22.692705 38.6576471,22.8705882 C39.5894164,23.0484715 40.4110553,23.2771751 41.1225882,23.5567059 C41.8341212,23.8362367 42.4651737,24.1369396 43.0157647,24.4588235 C43.5663557,24.7807075 44.0872917,25.0856456 44.5785882,25.3736471 C45.0698848,25.6785898 45.527292,25.7802358 45.9508235,25.6785882 C46.3214136,25.5896466 46.6336318,25.3774868 46.887485,25.0421035 L46.9927059,24.8908235 L48.6952941,22.1717647 C47.9329374,21.4602317 47.0943575,20.8164735 46.1795294,20.2404706 C45.2647013,19.6644677 44.2651819,19.1731785 43.1809412,18.7665882 C42.0967005,18.359998 40.9235357,18.0423541 39.6614118,17.8136471 C38.3992878,17.58494 37.0313015,17.4705882 35.5574118,17.4705882 Z M84.4944278,26.9852654 C86.3137638,26.9852654 87.887006,27.3368279 89.2141544,28.0399529 C91.1389591,29.0506951 92.3166935,30.8216912 92.7473575,33.3529412 L92.7473575,33.3529412 L90.1501896,33.3529412 L90.0823966,33.0750603 C89.7449747,31.8022088 89.1127872,30.8643181 88.1858341,30.2613884 C87.19267,29.6153923 85.9402286,29.2923943 84.4285099,29.2923943 C82.6355411,29.2923943 81.1260196,29.9647576 79.8999454,31.3094841 C78.6738712,32.6542107 78.0608341,34.658117 78.0608341,37.3212029 C78.0608341,39.6239373 78.5662052,41.4982048 79.5769474,42.9440056 C80.5876896,44.3898064 82.2356388,45.1127068 84.520795,45.1127068 C86.2698185,45.1127068 87.7178165,44.6051384 88.8647892,43.5900017 C90.0117618,42.574865 90.5984318,40.9335076 90.6247989,38.6659295 L90.6247989,38.6659295 L84.5603458,38.6659295 L84.5603458,36.4906365 L93.0637638,36.4906365 L93.0637638,46.8529412 L91.3762638,46.8529412 L90.7434513,44.361242 L90.5038585,44.6199019 C89.7135693,45.4574051 89.0068124,46.047943 88.383588,46.3915154 C87.2322208,47.041906 85.7688419,47.3671013 83.9934513,47.3671013 C81.699506,47.3671013 79.7263614,46.6244256 78.0740177,45.139074 C76.2722599,43.2757927 75.371381,40.7181756 75.371381,37.4662224 C75.371381,34.2230584 76.2502872,31.6434685 78.0080997,29.7274529 C79.6780216,27.8993279 81.840131,26.9852654 84.4944278,26.9852654 Z M99.9719669,27.486242 L99.9719669,39.4569451 L99.9774601,39.8035637 C100.017743,41.0563714 100.279584,42.1097771 100.762983,42.963781 C101.545209,44.370031 102.863568,45.073156 104.718061,45.073156 C106.941693,45.073156 108.453412,44.3129021 109.253217,42.7923943 C109.683881,41.9662224 109.899213,40.854406 109.899213,39.4569451 L109.899213,39.4569451 L109.899213,27.486242 L112.562299,27.486242 L112.562299,38.3627068 L112.558969,38.7773285 C112.523448,40.9582325 112.203757,42.6525448 111.599897,43.8602654 C110.422162,46.198156 108.198529,47.3671013 104.928998,47.3671013 C101.659467,47.3671013 99.4402286,46.198156 98.2712833,43.8602654 C97.6296818,42.5770623 97.308881,40.7445427 97.308881,38.3627068 L97.308881,38.3627068 L97.308881,27.486242 L99.9719669,27.486242 Z M125.218549,27.486242 L132.245404,46.8529412 L129.371381,46.8529412 L127.407026,41.0521599 L119.747358,41.0521599 L117.651166,46.8529412 L114.961713,46.8529412 L122.25224,27.486242 L125.218549,27.486242 Z M143.912885,27.486242 L144.276624,27.490728 C145.590528,27.523626 146.686567,27.7374627 147.56474,28.1322381 C149.384076,28.9584099 150.293744,30.4833123 150.293744,32.7069451 C150.293744,33.8671013 150.054242,34.8163201 149.575238,35.5546013 C149.096234,36.2928826 148.426068,36.8861443 147.56474,37.3343865 C148.3206,37.6420037 148.889692,38.0463006 149.272016,38.5472771 C149.65434,39.0482537 149.867475,39.861242 149.91142,40.986242 L149.91142,40.986242 L150.003705,43.5834099 L150.015241,43.8514077 C150.046003,44.4560677 150.103681,44.9160515 150.188276,45.2313591 C150.346479,45.8465935 150.627729,46.2421013 151.032026,46.4178826 L151.032026,46.4178826 L151.032026,46.8529412 L147.815229,46.8529412 L147.752607,46.7186333 C147.69328,46.5752617 147.643842,46.404699 147.604291,46.2069451 C147.551557,45.9432732 147.507611,45.4335076 147.472455,44.6776482 L147.472455,44.6776482 L147.314252,41.4476677 L147.297927,41.2152554 C147.192355,40.0776555 146.727582,39.3069817 145.903608,38.9032341 C145.402631,38.6659295 144.61601,38.5472771 143.543744,38.5472771 L143.543744,38.5472771 L137.571576,38.5472771 L137.571576,46.8529412 L134.948041,46.8529412 L134.948041,27.486242 L143.912885,27.486242 Z M162.093061,27.486242 L162.422834,27.4911629 C164.927228,27.5666176 166.882734,28.5098015 168.28935,30.3207146 C169.59892,32.0257927 170.253705,34.2098748 170.253705,36.8729607 C170.253705,38.9296013 169.866986,40.7884881 169.093549,42.4496209 C167.731244,45.3851677 165.388959,46.8529412 162.066693,46.8529412 L162.066693,46.8529412 L154.248822,46.8529412 L154.248822,27.486242 L162.093061,27.486242 Z M176.871869,27.486242 L176.871869,46.8529412 L174.221967,46.8529412 L174.221967,27.486242 L176.871869,27.486242 Z M189.725873,27.486242 L196.752729,46.8529412 L193.878705,46.8529412 L191.91435,41.0521599 L184.254682,41.0521599 L182.15849,46.8529412 L179.469037,46.8529412 L186.759565,27.486242 L189.725873,27.486242 Z M202.237104,27.486242 L212.01933,43.1747185 L212.01933,27.486242 L214.511029,27.486242 L214.511029,46.8529412 L211.571088,46.8529412 L201.643842,31.1776482 L201.643842,46.8529412 L199.138959,46.8529412 L199.138959,27.486242 L202.237104,27.486242 Z M161.53935,29.7406365 L156.885541,29.7406365 L156.885541,44.6117302 L161.565717,44.6117302 C162.453412,44.6117302 163.182904,44.5194451 163.754193,44.3348748 C164.773725,43.9921013 165.608686,43.3329216 166.259076,42.3573357 C166.777631,41.5751091 167.151166,40.573156 167.379682,39.3514763 C167.511518,38.6219841 167.577436,37.9452263 167.577436,37.3212029 C167.577436,34.9217888 167.100629,33.0585076 166.147016,31.7313591 C165.193402,30.4042107 163.657514,29.7406365 161.53935,29.7406365 L161.53935,29.7406365 Z M123.623334,30.3602654 L120.498822,38.9164177 L126.563276,38.9164177 L123.623334,30.3602654 Z M188.130658,30.3602654 L185.006147,38.9164177 L191.0706,38.9164177 L188.130658,30.3602654 Z M143.978803,29.7406365 L137.571576,29.7406365 L137.571576,36.3588006 L143.636029,36.3588006 C144.866498,36.3588006 145.839887,36.1127068 146.556195,35.6205193 C147.272504,35.1283318 147.630658,34.2406365 147.630658,32.9574334 C147.630658,31.5775506 147.129682,30.6371209 146.127729,30.1361443 C145.591596,29.8724724 144.875287,29.7406365 143.978803,29.7406365 L143.978803,29.7406365 Z" id="Combined-Shape"></path>
        </g>
    </g>
</svg>