<?xml version="1.0" encoding="UTF-8"?>
<svg width="270px" height="102px" viewBox="0 0 270 102" version="1.1" xmlns="http://www.w3.org/2000/svg" xmlns:xlink="http://www.w3.org/1999/xlink">
    <!-- Generator: Sketch 64 (93537) - https://sketch.com -->
    <title>honda</title>
    <desc>Created with Sketch.</desc>
    <g id="honda" stroke="none" stroke-width="1" fill="none" fill-rule="evenodd">
        <path d="M45.8136636,16 C48.4973726,16.008751 56.4230855,16.1161294 59.8349175,16.3211033 C63.850375,16.4802245 70.1120858,16.9553471 73.6387152,17.5178742 C80.6319012,18.6317229 88.6003876,21.0319883 89.8183351,32.3901068 C90.145791,35.4884886 90.2435566,39.5247892 90.17995,43.8737295 C90.0798286,51.0689228 89.4319842,55.9322056 89.0597682,59.3006452 C88.8029862,61.6079031 87.7888152,68.5520883 86.4895927,72.1412806 C84.6980084,77.0807624 83.0889984,78.5150946 81.1949369,79.983044 C77.7342698,82.672417 72.0355948,83.4971581 70.8141135,83.7033433 C64.6774244,84.7547005 52.5481181,84.9849396 46.4502793,84.9993239 L45.1892933,85 C39.2459588,84.9956823 26.6710359,84.7803434 20.3823704,83.7033433 C19.1667787,83.4971581 13.4657478,82.672417 10.0039028,79.983044 C8.1074855,78.5150946 6.49847554,77.0807624 4.71278075,72.1412806 C3.40766872,68.5520883 2.39585353,61.6079031 2.13907156,59.3006452 C1.7668555,55.9322056 1.11901108,51.0689228 1.01653387,43.8737295 C0.957638923,39.5247892 1.05069294,35.4884886 1.38286044,32.3901068 C2.59609635,21.0319883 10.561049,18.6317229 17.5577687,17.5178742 C21.0843981,16.9553471 27.3437531,16.4802245 31.3592106,16.3211033 C34.678498,16.1218232 42.264378,16.0147917 45.1545733,16.0009575 L45.8136636,16 Z M45.6023646,18.7213687 C42.1146058,18.6944749 35.876453,18.812135 32.0836185,19.0586608 C27.35671,19.2827753 22.3706638,19.7242807 18.66146,20.3551627 C10.7224211,21.7032109 7.01557318,25.2767153 6.06265294,32.3800217 C5.42305381,37.142453 5.33353349,46.0072987 5.75875501,51.476811 C6.46431647,60.5523242 7.31475951,65.9938222 8.53035122,69.9169451 C9.59517186,73.3503779 10.9155966,75.659877 12.8391055,77.3216854 C16.0594813,80.0917395 20.4930929,80.6845222 23.0868263,81.0543109 C28.708938,81.8431937 38.1651107,82.119975 45.6023646,82.1244573 C53.033729,82.119975 62.4899017,81.8431937 68.1061239,81.0543109 C70.7081026,80.6845222 75.1370027,80.0917395 78.3573784,77.3216854 C80.2832431,75.659877 81.6013121,73.3503779 82.6684885,69.9169451 C83.8840802,65.9938222 84.7321674,60.5523242 85.4377289,51.476811 C85.8629504,46.0072987 85.7757859,37.142453 85.133831,32.3800217 C84.1832665,25.2767153 80.4728849,21.7032109 72.5314902,20.3551627 C68.8246422,19.7242807 63.8421297,19.2827753 59.1128655,19.0586608 C55.3223867,18.812135 49.0842339,18.6944749 45.6023646,18.7213687 Z M25.0739419,21.8320767 C27.1211302,30.5310778 27.9291689,34.5270378 29.5970738,40.8212911 C31.1954827,46.8678981 32.4310986,52.4752407 34.571341,55.192628 C36.7457425,57.952597 39.6469076,58.5554648 41.6198883,58.7638912 C42.6423046,58.8748278 43.3855588,58.9218919 45.6011867,58.9297359 C47.8156367,58.9218919 48.5553573,58.8748278 49.5777735,58.7638912 C51.5483985,58.5554648 54.4495636,57.952597 56.623965,55.192628 C58.7642074,52.4752407 60.0033571,46.8678981 61.6017659,40.8212911 C63.2661371,34.5270378 64.0741758,30.5310778 66.1272537,21.8320767 C66.1272537,21.8320767 68.1697304,21.9105168 69.0778905,21.9710277 C70.3017275,22.0528294 71.2558257,22.1514398 72.3017999,22.2847879 C72.3017999,22.2847879 71.1227231,40.1724799 70.5926685,47.7497883 C70.0319887,55.7226586 69.0460872,69.1493532 68.1214366,79.2927716 L68.0971715,79.2963617 C67.8796381,79.3281343 66.2110063,79.5634864 63.5570782,79.7085039 C60.7649703,79.8576945 59.4176234,79.8874103 59.2450623,79.8907995 L59.2259438,79.8911571 C57.9926836,75.4200745 56.4661265,69.2221904 54.7299035,66.581002 C53.3187806,64.4295036 51.1526244,64.2009069 49.92172,64.0395445 C48.1035984,63.8054109 46.5525867,63.7559041 45.7508578,63.7695745 L45.609432,63.7728484 L45.5941193,63.7728484 C44.8355524,63.7504369 43.2076961,63.7907775 41.2771197,64.0395445 C40.0462153,64.2009069 37.8741696,64.4295036 36.4689362,66.581002 C34.735069,69.2221904 33.2085119,75.4200745 31.9740739,79.8911571 C31.9740739,79.8911571 30.6406922,79.8687457 27.6417615,79.7085039 C24.7877124,79.5527444 23.0738694,79.2927716 23.0738694,79.2927716 C22.1492188,69.1493532 21.1633174,55.7226586 20.6061712,47.7497883 C20.0725829,40.1724799 18.8970398,22.2847879 18.8970398,22.2847879 C19.9430141,22.1514398 20.8971122,22.0528294 22.1256608,21.9710277 C23.0291093,21.9105168 25.0739419,21.8320767 25.0739419,21.8320767 Z M144.093696,41.0905752 C147.932558,41.0905752 151.560857,41.4327262 154.292957,43.2033578 C156.767509,44.8559473 158.069172,47.2766659 158.098756,49.9368902 C158.13878,52.6347512 156.551726,55.2744464 153.967541,56.8089938 C151.167574,58.5111952 147.68197,58.7626762 143.879652,58.7626762 C140.291378,58.7626762 136.480359,58.2836648 134.042351,56.605414 C131.747038,55.0212547 130.273096,52.1591612 130.273096,49.9984774 C130.273096,47.6307922 131.602603,44.7875171 134.289458,43.1075555 C136.696143,41.5952479 140.719465,41.0905752 144.093696,41.0905752 Z M171.802936,41.5191193 L181.831659,54.2437164 L181.831659,46.2134316 C181.831659,44.3822107 181.520781,43.6538065 178.698572,43.5943151 L178.450467,43.5908439 L178.450467,41.5191193 L189.21007,41.5191193 L189.21007,43.5258352 C187.415933,43.6849354 186.29525,43.722572 185.93155,45.0210352 C185.771949,45.579719 185.767048,46.2439808 185.768905,46.840371 L185.769712,47.1321071 L185.769712,58.3597934 L176.351797,58.3597934 L166.570181,45.7960073 L166.570976,53.6686189 C166.583234,55.2624396 166.771921,56.0831337 169.568969,56.1663114 L169.822599,56.1717375 L169.822599,58.1750318 L159.28574,58.1750318 L159.28574,56.1717375 C162.541682,56.0850022 162.530441,55.5364015 162.629458,53.6538392 L162.637349,53.5063809 L162.659971,46.1569767 C162.659971,44.182423 160.867996,43.5666842 159.354248,43.5278289 L159.198731,43.5258352 L159.198731,41.5191193 L171.802936,41.5191193 Z M205.756332,41.56377 C207.583532,41.5877206 210.070266,41.6356218 211.885285,42.1146332 C213.324424,42.4944209 214.716577,42.9665893 215.755471,43.6765527 C218.089067,45.3325637 218.953943,47.5137766 218.953943,49.6967002 C218.953943,51.1422883 218.804286,52.4339085 217.375589,54.5176083 C216.249685,56.1633548 213.585452,57.4412889 210.952543,57.8689777 C208.680169,58.2445663 205.121884,58.1634362 203.291097,58.1909946 L203.041633,58.195732 L190.587084,58.1752029 L190.587084,56.1719086 C191.55637,56.1719086 192.509995,56.1428258 193.176488,55.8862125 C193.792052,55.64511 193.905853,54.903281 193.91829,54.805442 L193.91955,54.7947507 L193.91955,45.2282077 C193.935792,44.4522091 193.568511,44.0070478 193.025689,43.8412602 L192.906759,43.8099916 L190.587084,43.5910149 L190.587084,41.5877206 L202.420385,41.5877206 L205.756332,41.56377 Z M237.146947,41.518264 L246.248147,54.4515732 C247.078778,55.7168599 247.564751,56.1008765 249.750088,56.1665745 L250,56.1725929 L250,58.1758872 L235.452,58.1758872 L235.452,56.1725929 C235.452,56.1725929 239.562646,56.4724808 238.094685,54.1243528 L237.99094,53.9674295 L237.35751,53.1120519 L226.674475,53.1052088 C226.677956,53.1411347 226.112394,53.9674295 226.112394,53.9674295 C224.923796,55.7617805 226.962451,56.0548257 228.429548,56.1639009 L228.550402,56.1725929 L228.550402,58.1758872 L217.653324,58.1758872 L217.653324,56.1725929 C220.737997,56.1576627 221.201281,55.0697669 222.380085,53.2021663 L222.492796,53.0248034 L226.509157,46.5461735 C228.66461,43.3626481 223.854884,43.6563618 223.676007,43.6683318 L223.670905,43.6686832 L223.670905,41.5268177 L237.146947,41.518264 Z M111.871095,41.554532 L111.871095,43.5612478 C111.175019,43.6279673 109.699336,43.692976 109.224264,43.8589192 C108.516122,44.1000216 108.390086,44.6809029 108.376428,45.0938817 L108.375051,45.1796222 L108.375051,48.3907097 L119.19382,48.3907097 L119.19382,45.3181934 C119.19382,44.2113348 118.664802,44.0180194 118.400293,43.9222171 C117.973697,43.7633613 116.565794,43.5882795 115.907054,43.5640783 L115.769124,43.5612478 L115.769124,41.554532 L129.403523,41.554532 L129.403523,43.5612478 L126.845441,43.8229933 C125.855186,43.977389 125.967437,44.7292958 125.981137,45.2397279 L125.982307,45.3181934 L125.982307,53.9472425 C125.982307,54.3817744 126.01711,54.6469414 126.051914,55.0848947 C126.086718,55.404806 126.335565,55.7623538 126.807157,55.830784 C128.277926,56.0417101 128.624953,56.0541175 129.338218,56.1233082 L129.476611,56.1370092 L129.476611,58.1420143 L115.769124,58.1420143 L115.769124,56.1370092 C116.129343,56.1370092 117.243066,55.991595 118.257597,55.830784 C119.377173,55.6511547 119.212423,54.7030535 119.195133,54.1381254 L119.19382,54.0601524 L119.19382,51.5299455 L108.375051,51.5299455 L108.375051,54.4758659 C108.375051,55.069498 108.385492,55.7212957 109.485293,55.8752636 C110.036264,55.9526424 111.236687,56.1101939 111.756178,56.1339747 L111.871095,56.1370092 L111.871095,58.1420143 L98.0922601,58.1420143 L98.0922601,56.1370092 L100.18223,55.991595 C100.730902,55.9754938 101.470718,55.7532969 101.555857,55.0768337 L101.563,54.947 L101.564259,54.9607753 C101.565211,54.9765868 101.56902,54.9418049 101.584253,54.4105647 L101.588305,54.2671538 L101.588732,45.1759657 C101.587245,44.7039968 101.539374,44.0320074 100.833061,43.867473 C100.042517,43.6871105 99.3261268,43.6638582 98.5096473,43.5984106 L98.0922601,43.5612478 L98.0922601,41.554532 L111.871095,41.554532 Z M139.210719,46.0620297 C138.011727,47.4374769 137.536655,49.6067145 138.074374,51.6767283 C138.744348,54.1761416 140.447995,55.3582734 143.021738,55.5926469 C145.997465,55.6918707 148.367606,55.228256 149.575299,52.9957205 C150.612453,50.7238376 150.612453,47.9318852 149.072383,46.1561213 C147.166874,43.6926338 141.213679,43.5249798 139.210719,46.0620297 Z M205.725449,44.783834 L200.257327,44.7834113 L200.257327,55.1659845 L205.19425,55.1659845 C210.693254,55.4311516 211.1109,52.088336 210.989087,49.6368238 C210.919479,48.2203185 210.668892,46.8055239 209.419434,45.8526333 C208.377446,45.0609338 207.39289,44.8002654 205.725449,44.783834 Z M231.879388,44.6934256 L228.202363,50.3218102 L235.646902,50.3218102 L231.879388,44.6934256 Z" id="Combined-Shape" fill="#1F1F20"></path>
    </g>
</svg>