<?xml version="1.0" encoding="UTF-8"?>
<svg width="270px" height="102px" viewBox="0 0 270 102" version="1.1" xmlns="http://www.w3.org/2000/svg" xmlns:xlink="http://www.w3.org/1999/xlink">
    <!-- Generator: Sketch 64 (93537) - https://sketch.com -->
    <title>hushair</title>
    <desc>Created with Sketch.</desc>
    <g id="hushair" stroke="none" stroke-width="1" fill="none" fill-rule="evenodd">
        <g id="Group-20" transform="translate(0.000000, 21.000000)">
            <path d="M217.047966,49.761542 C216.538952,50.6371997 216.02951,51.4125126 215.520068,52.084908 C214.670568,53.3640886 213.716007,54.4747416 212.655526,55.4172957 C211.594188,56.3611364 210.766987,56.831127 210.173067,56.831127 C209.663625,56.831127 209.386176,56.4945005 209.343722,55.8212475 C209.301697,55.149281 209.577431,54.121391 210.173067,52.7405792 C210.766987,51.3614826 211.678666,49.7285226 212.90939,47.8425566 C214.056064,46.0252024 215.159856,44.5101688 216.220337,43.2987423 C217.281675,42.0864581 218.109304,41.4801016 218.702796,41.4801016 L218.767548,41.4801016 C219.572879,41.4801016 219.954961,42.0864581 219.912936,43.2987423 C219.912936,43.7018364 219.775713,44.2580206 219.499979,44.964293 C219.22253,45.6718518 218.872181,46.4291542 218.449361,47.2366289 C218.024397,48.0449613 217.557408,48.8875996 217.047966,49.761542 M256.213278,49.0895755 C255.531878,49.8044243 254.792157,50.4442291 253.729103,50.0467096 C252.611589,49.6281779 252.483371,48.5818484 252.45807,47.5848337 C252.416903,45.9360071 252.944785,44.4385553 253.915642,43.1126329 C254.632635,42.1331999 255.42167,41.2060834 256.131802,40.2219334 C256.66826,39.4783533 256.410966,38.8891498 255.51644,38.9963557 C254.655362,39.100131 253.610748,39.326121 253.038269,39.8930257 C250.210606,42.6936723 247.514164,45.62511 244.770551,48.5106637 C244.473376,48.8228472 244.176201,49.1341731 243.878598,49.4463567 L243.594288,49.2563878 C244.039406,48.4068884 244.546276,47.583976 244.915493,46.7027436 C245.613189,45.0367641 246.501711,43.3862223 246.813895,41.6404817 C247.185256,39.5619739 245.661217,38.5529521 243.641029,39.2497904 C241.864413,39.8625792 241.03464,41.4273564 240.062497,42.8939329 C239.616092,43.5684723 239.180836,44.2417253 238.758016,44.9145494 C238.204833,45.7902071 237.707398,46.5642336 237.260564,47.2366289 C236.815445,47.9107396 236.380618,48.5501155 235.956083,49.1556143 C235.829151,49.2911225 235.700504,49.4763743 235.558992,49.7525367 C235.457361,49.8910467 235.367308,50.0205514 235.2571,50.1659226 C234.747658,50.8396044 234.152022,51.6144885 233.473623,52.4884309 C233.006634,53.1621127 232.507484,53.7856221 231.977458,54.3563863 C231.446145,54.9292945 231.011747,55.3503993 230.672977,55.6188428 C230.375373,55.8212475 230.089348,56.0069281 229.813614,56.1745981 C229.535736,56.3431258 229.314035,56.259934 229.145078,55.9215922 C228.889499,55.5858234 228.953823,54.8452451 229.336334,53.7002863 C229.759582,52.556185 230.524175,50.9073585 231.627538,48.7516625 C232.263483,47.5398072 232.837249,46.4128589 233.346691,45.3686736 C233.855705,44.3253459 234.407601,43.2987423 235.001521,42.2880052 C235.426057,41.6164675 235.585579,41.1610569 235.480088,40.9256328 C235.37374,40.6902087 234.979223,40.6061593 234.300824,40.6726269 C233.707332,40.6726269 233.155436,40.808564 232.645994,41.0765787 C232.13698,41.3467375 231.458152,41.9522364 230.608653,42.8939329 C230.226142,43.2987423 229.781024,43.8206206 229.27201,44.4595676 C228.762568,45.1006589 228.263417,45.7391771 227.776273,46.3781242 C227.431928,46.8296754 227.124462,47.2336272 226.833719,47.6174242 C226.789122,47.6461554 226.745382,47.6705984 226.693065,47.7422119 C226.544692,47.9441878 226.38517,48.145306 226.216213,48.3477107 C225.875728,48.8875996 225.452907,49.4935273 224.943465,50.1659226 C224.434452,50.8396044 223.838816,51.6144885 223.159988,52.4884309 C222.650546,53.1621127 222.13124,53.7856221 221.599928,54.3563863 C221.068616,54.9292945 220.63336,55.3503993 220.295018,55.6188428 C220.041154,55.8212475 219.775713,55.990204 219.499979,56.1239969 C219.22253,56.259934 219.000828,56.2251993 218.831443,56.0236522 C218.491386,55.6188428 218.554423,54.8452451 219.021412,53.7002863 C219.319015,52.8919539 219.626911,52.1196427 219.945098,51.3777779 C220.263285,50.6371997 220.698112,49.761542 221.249579,48.7516625 C221.928407,47.4060142 222.587937,46.1431289 223.224312,44.964293 C223.860686,43.7871723 224.390283,42.8278941 224.814818,42.0864581 C225.154875,41.4801016 225.271944,41.0439881 225.165167,40.7738293 C225.058819,40.5058146 224.666016,40.4041834 223.987617,40.4702222 C223.478175,40.4702222 222.936571,40.7905534 222.36452,41.4295005 C221.791183,42.0705917 221.143231,43.0302988 220.42195,44.3077641 L220.35977,44.3077641 C220.57118,43.4338217 220.559173,42.6259182 220.32718,41.8849111 C220.094328,41.1443328 219.659073,40.6726269 219.021412,40.4702222 C218.171484,40.2686751 217.18519,40.4547845 216.061672,41.0259775 C214.936439,41.5988858 213.800914,42.3557593 212.655526,43.2987423 C212.018723,43.8382023 211.413225,44.4093953 210.841174,45.015323 C210.267408,45.6212506 209.810711,46.0929565 209.472369,46.4291542 C209.132312,46.8335348 208.782392,47.2546395 208.421752,47.6911819 C208.179895,47.9836396 207.95219,48.3314154 207.721054,48.6676131 C207.671739,48.7315078 207.604414,48.7855396 207.56196,48.8528649 C207.094971,49.5261179 206.501051,50.3344502 205.778483,51.2765756 C205.057631,52.2199874 204.483865,52.9605656 204.061045,53.4987392 C203.083327,54.6441269 202.223536,55.4524593 201.4821,55.9215922 C200.739378,56.3937269 200.091425,56.6291511 199.539958,56.6291511 C199.285666,56.6291511 199.020224,56.4945005 198.744062,56.2251993 C198.467042,55.9563269 198.329818,55.5180693 198.329818,54.9125704 C198.329818,53.9695874 198.553235,52.774885 198.998354,51.3267479 C199.444759,49.8798973 200.01681,48.3477107 200.717508,46.7319036 C201.418205,45.1156677 202.17122,43.4496882 202.977837,41.7331075 C203.783596,40.0156692 204.548617,38.4504633 205.269041,37.0366321 C205.992037,36.9710221 206.861263,36.9362874 207.880147,36.9362874 L211.062876,36.9362874 C211.318883,36.9362874 211.614772,36.9530115 211.954829,36.9860309 C212.294886,37.0207656 212.464271,36.9032679 212.464271,36.6335379 C212.464271,36.4984585 212.283308,36.3981138 211.922667,36.3303597 C211.562026,36.2634632 211.254131,36.1957091 211.000268,36.127955 C210.40506,35.9937332 209.619885,35.9096838 208.64474,35.8749491 C207.667022,35.8423585 206.754914,35.7921861 205.907559,35.7240032 C206.372404,34.7818779 207.020356,33.4868307 207.847986,31.8358601 C208.675615,30.1870336 209.513107,28.654847 210.362607,27.2410158 C211.636642,25.0870351 212.727998,23.3528727 213.641821,22.039815 C214.553928,20.7271861 215.393565,19.6002378 216.156442,18.656826 C216.963488,17.782026 217.875595,16.9904177 218.89448,16.2828589 C219.912936,15.5765865 220.931821,15.2228071 221.950277,15.2228071 C222.969162,15.2228071 223.753909,15.4925371 224.305805,16.0307106 C224.857272,16.5705995 225.261652,17.242566 225.515516,18.0504695 C225.599994,18.3879537 225.654026,18.6409596 225.674609,18.8082007 C225.696479,18.9767284 225.748796,19.0277584 225.835418,18.9600043 C226.089282,18.8253537 226.109436,18.3201996 225.898026,17.4445419 C225.728641,16.7043924 225.313969,15.9801095 224.655725,15.2734083 C223.99748,14.5662782 223.07551,14.2124988 221.887669,14.2124988 C220.825044,14.2124988 219.711389,14.5165347 218.543703,15.1220335 C217.376445,15.7279612 216.369567,16.4350912 215.520068,17.242566 C215.137557,17.6465178 214.638406,18.1688248 214.024331,18.8082007 C213.408541,19.4488631 212.740005,20.1894414 212.018723,21.0303644 C211.296585,21.8730026 210.553433,22.7975462 209.790556,23.8069968 C209.025964,24.8173051 208.262658,25.8619193 207.497637,26.9382664 C205.927285,29.2277553 204.76989,31.0279565 204.028883,32.3410142 C203.286161,33.6536431 202.660078,34.7818779 202.150636,35.7240032 L193.044997,35.7240032 C193.639346,34.5121478 194.287299,33.148489 194.987996,31.6338842 C195.688265,30.1192794 196.526186,28.4194229 197.502618,26.5338858 C198.307948,24.9176498 199.072541,23.4879521 199.795537,22.2417909 C200.515961,20.9960585 201.279267,19.7679078 202.086312,18.5556237 C202.42637,18.0174501 202.700388,17.6306513 202.913942,17.3939407 C203.125352,17.1593742 203.125352,16.9393877 202.913942,16.7382695 C202.700388,16.5358648 202.414791,16.586466 202.054151,16.8896442 C201.69351,17.1923936 201.279267,17.5461731 200.813993,17.949696 C200.304551,18.4218307 199.433181,18.673979 198.202886,18.7069984 C196.971305,18.7417331 195.614079,18.7069984 194.128205,18.6062249 C192.64276,18.5045937 191.136732,18.353219 189.607118,18.1521007 C188.078791,17.949696 186.784602,17.8150454 185.723264,17.7472913 C183.305128,17.6812525 181.192314,18.0350319 179.389969,18.8082007 C177.584621,19.5826561 176.078593,20.7113196 174.868882,22.1911897 C173.658742,23.6732039 172.768504,25.4069375 172.194738,27.3923905 C171.621401,29.37913 171.355531,31.5172442 171.399699,33.8050178 C171.484178,36.0953644 172.013775,38.215468 172.990206,40.1670439 C173.966637,42.120764 175.261255,43.4998606 176.873632,44.3077641 C177.171664,44.44413 177.437106,44.4938735 177.670815,44.4595676 C177.902809,44.4265482 178.041319,44.3424988 178.083772,44.2074194 C178.125797,44.07234 178.083772,43.989577 177.95684,43.9548423 C177.829909,43.9213941 177.616783,43.8382023 177.320466,43.7018364 C176.555445,43.2987423 175.877046,42.7275493 175.283125,41.9852558 C174.68749,41.2451063 174.200346,40.4204787 173.817407,39.5118016 C173.43704,38.6022668 173.1493,37.6772944 172.958473,36.7338826 C172.768504,35.7921861 172.672448,34.8826514 172.672448,34.0069937 C172.672448,31.5172442 173.042951,29.3615482 173.787389,27.5437652 C174.528396,25.7259822 175.536989,24.2285304 176.811024,23.0496944 C178.083772,21.8730026 179.558925,21.0303644 181.236054,20.5252102 C182.911468,20.0200561 184.682509,19.8026426 186.550893,19.8686814 C189.9892,20.0706573 192.811717,20.1551355 195.020158,20.1204008 C197.226455,20.0878102 198.945609,19.7010114 200.175904,18.9600043 L200.175904,19.060349 C199.539958,19.7340308 198.764645,20.6933091 197.852538,21.9390415 C196.938715,23.1852027 195.97429,24.5642992 194.955406,26.0793328 C193.93695,27.5939376 192.928786,29.1947359 191.9322,30.8765818 C190.933898,32.5605719 190.011499,34.2089696 189.162,35.8252055 C188.228022,35.8929597 187.358368,35.9435608 186.550893,35.9765803 C185.745562,36.0117438 185.044865,36.0953644 184.450944,36.2287285 C183.983955,36.2964826 183.569712,36.3650944 183.209071,36.4311332 C182.848431,36.4984585 182.645168,36.6335379 182.605288,36.8342273 C182.518665,37.1721403 182.645168,37.3398103 182.985654,37.3398103 L183.814999,37.3398103 C184.917933,37.2737715 185.840332,37.2231703 186.583055,37.1884356 C187.325777,37.1554162 187.95186,37.1378344 188.461302,37.1378344 C187.569778,38.9478986 186.520875,41.0920163 185.310735,43.5706164 C184.100595,46.0517895 182.784536,48.3965966 181.362986,50.6076108 C179.93972,52.8203403 178.433692,54.6960145 176.843186,56.2367775 C175.250964,57.7762541 173.605997,58.5477076 171.908713,58.5477076 C171.228599,58.5477076 170.548485,58.3290076 169.871372,57.8911788 C169.191258,57.4537788 168.809176,56.6969052 168.724698,55.6188428 C168.724698,55.149281 168.809176,54.7101657 168.979848,54.3066427 C169.149233,53.9022621 169.340489,53.4987392 169.551899,53.0939298 C170.189988,52.2199874 170.52833,51.2101079 170.570355,50.0642914 C170.654833,48.9879443 170.495739,48.1302972 170.093503,47.4887772 C169.690409,46.8502589 169.171532,46.4638889 168.533014,46.3283807 C167.557012,46.2614842 166.761544,46.7825048 166.145753,47.8935866 C165.531249,49.0042396 165.223354,50.2336767 165.223354,51.5797538 C165.223354,52.993585 165.414609,54.2050116 165.795405,55.2153198 C166.177915,56.2251993 166.665059,57.0519711 167.260695,57.6960641 C167.854615,58.3380129 168.533014,58.8084323 169.298035,59.1098953 C170.061341,59.4074988 170.825934,59.5580159 171.589239,59.5580159 C173.839705,59.5580159 175.909208,58.9516594 177.797747,57.7398041 C179.685857,56.5283775 181.457756,54.8962751 183.114301,52.8422103 C184.76956,50.7890032 186.361353,48.4154649 187.88968,45.722453 C189.41715,43.0302988 190.945477,40.1670439 192.473375,37.1378344 L201.386044,37.0366321 C201.003533,37.7789256 200.473936,38.8389774 199.795537,40.218074 C199.114994,41.5988858 198.446458,43.0800423 197.788214,44.6611147 C197.130399,46.2447601 196.568211,47.8601384 196.101222,49.5093937 C195.634233,51.1603644 195.400953,52.6239391 195.400953,53.9022621 C195.400953,55.3834187 195.676687,56.4945005 196.229869,57.2350787 C196.779621,57.9747994 197.522772,58.3457317 198.45675,58.3457317 C199.094839,58.3457317 199.720922,58.1772041 200.334997,57.8405776 C200.950788,57.5048088 201.522838,57.1180099 202.054151,56.6797523 C202.585463,56.2423522 203.050737,55.8049522 203.455546,55.3666946 C203.857783,54.9292945 204.166107,54.5768016 204.379232,54.3066427 C204.844505,53.7684692 205.450433,52.993585 206.193156,51.9832768 C206.935878,50.9738261 207.519507,50.1659226 207.944471,49.5591373 C208.029378,49.4257731 208.15631,49.2066443 208.325266,48.9034661 C208.336416,48.8837402 208.335987,48.8717331 208.38959,48.8528649 C207.795669,49.9309273 207.371134,50.923225 207.115555,51.8319021 C206.861263,52.7405792 206.692306,53.5660645 206.605684,54.3066427 C206.522921,55.990204 206.75663,57.100857 207.306381,57.6390305 C207.859564,58.1772041 208.494652,58.4126282 209.21679,58.3457317 C209.810711,58.2779776 210.436793,58.0588488 211.095038,57.6892029 C211.753282,57.3204146 212.389656,56.8478511 213.005446,56.2753716 C213.619951,55.7041787 214.203579,55.098251 214.756762,54.4580175 C215.306514,53.8186416 215.795801,53.1959898 216.220337,52.5892044 L216.285089,52.5892044 C215.987057,53.1290933 215.753348,53.735021 215.584391,54.4074163 C215.413291,55.0806692 215.351111,55.6870257 215.393565,56.2251993 C215.435589,56.831127 215.604975,57.3362811 215.902578,57.7398041 C216.198895,58.143327 216.644014,58.3457317 217.239221,58.3457317 C218.300131,58.3457317 219.319015,57.8744547 220.295018,56.9319005 C221.271878,55.990204 222.078495,55.1136887 222.715298,54.3066427 C223.309219,53.5660645 223.99748,52.6578162 224.784372,51.5797538 C225.13472,51.098185 225.431466,50.6809397 225.702054,50.2928544 C225.794251,50.2169526 225.897598,50.1157502 226.024958,49.9639467 C226.576425,49.1556143 227.063569,48.466066 227.490248,47.8935866 C227.913068,47.3223936 228.358187,46.7319036 228.826891,46.125976 C229.292594,45.5200483 229.781024,44.9312736 230.290895,44.3583653 C230.799908,43.7871723 231.16012,43.399087 231.373674,43.1966823 L231.373674,43.2987423 C231.118095,43.6362264 230.790045,44.1413806 230.385665,44.8129183 C229.982571,45.4870289 229.547744,46.2267495 229.081184,47.0350819 C228.613766,47.8425566 228.158355,48.6684708 227.71195,49.5093937 C227.266831,50.352032 226.894612,51.1753732 226.598295,51.9832768 C226.343145,52.5892044 226.121015,53.2127139 225.930188,53.8512321 C225.738933,54.4927522 225.642447,55.149281 225.642447,55.8212475 C225.601709,56.5631122 225.738933,57.1840487 226.05712,57.6892029 C226.374878,58.194357 226.874029,58.4473629 227.552856,58.4473629 C228.613766,58.4473629 229.642514,57.9572176 230.640815,56.9829305 C231.637401,56.0069281 232.455167,55.1136887 233.092828,54.3066427 C233.686748,53.5660645 234.375439,52.6578162 235.160615,51.5797538 C235.945791,50.5034067 236.529849,49.6611973 236.91193,49.0552696 C236.996837,48.920619 237.12334,48.7014902 237.294441,48.3983119 C237.322314,48.3485684 237.325745,48.3146913 237.346757,48.2696649 C237.43681,48.1423043 237.514856,48.0265219 237.610913,47.8935866 C238.120355,47.1860278 238.629369,46.4291542 239.138811,45.6212506 C239.6058,44.8806724 240.062497,44.1744 240.507616,43.4998606 C240.886267,42.9265235 241.165431,42.1362017 241.789798,41.7747034 C242.502074,41.362604 243.264093,41.5757293 242.978068,42.5131376 C242.824549,43.0140035 242.546672,43.479277 242.299669,43.9479812 C240.086082,48.1435907 237.850625,52.3271933 235.677347,56.544244 C235.4505,56.9850746 235.35916,57.8723105 235.610022,58.0944411 C235.976237,58.4177741 236.858756,58.5845864 237.255847,58.3564523 C238.134935,57.8500117 238.948413,57.142024 239.612661,56.3658534 C242.894448,52.5330286 246.115341,48.6483161 249.370112,44.7923347 C249.591385,44.5298947 249.915576,44.3545059 250.412153,43.9668494 C250.412153,44.6538247 250.417728,45.0440541 250.410867,45.4347124 C250.395429,46.2683454 250.269355,47.1144142 250.374417,47.9317519 C250.647148,50.0514267 251.996227,51.2701432 253.895916,51.2452714 C255.535737,51.2238303 257.577795,49.4184831 257.865964,47.4193078 C257.179418,48.1110001 256.687557,48.5912825 256.213278,49.0895755" id="Fill-8" fill="#1F1F20"></path>
            <path d="M145.552532,39.1578077 C146.400316,37.3353077 147.1752,35.7143547 147.875898,34.2970928 C148.576595,32.879831 149.277293,31.4621404 149.977133,30.0448785 C150.676115,28.6276167 151.451428,27.125019 152.300499,25.5379431 C153.148712,23.9525824 154.147013,22.0447465 155.292401,19.8161505 C156.948946,16.6450004 158.507291,13.8597914 159.97301,11.4630966 C161.436585,9.06683065 162.698612,7.02520175 163.761666,5.33649462 C164.43835,4.32404223 165.160917,3.39563925 165.925938,2.55128569 C166.688816,1.70950507 167.34706,1.28668505 167.898527,1.28668505 C168.663548,1.28668505 169.02376,1.9286339 168.981735,3.20952983 C168.895541,4.35877694 168.514746,5.67397875 167.836347,7.15985234 C167.155804,8.64572593 166.26428,10.2825454 165.160917,12.0720261 C164.057554,13.8615067 162.795098,15.7847803 161.373976,17.8422757 C159.950711,19.9014864 158.477273,22.0117271 156.948946,24.1717113 C156.226807,25.1845925 155.515389,26.145586 154.815549,27.0576937 C154.114851,27.9698014 153.329676,28.9813962 152.459593,30.0959085 C151.589938,31.2091345 150.6015,32.4926033 149.498566,33.9445999 C148.395203,35.3957388 147.08043,37.1659224 145.552532,39.2585813 L145.552532,39.1578077 Z M142.176833,46.7316892 C142.643822,45.6553421 143.090656,44.6793397 143.515191,43.803682 C143.938011,42.928882 144.278068,42.255629 144.534076,41.7830655 C146.909758,38.4854124 149.180379,35.5574052 151.346367,32.9968998 C153.510639,30.4389674 155.568134,27.8814638 157.520997,25.3222448 C159.133373,23.2360183 160.693862,21.1656582 162.201177,19.1111646 C163.707205,17.0579574 165.066147,15.1059527 166.275858,13.2530061 C167.48557,11.4026325 168.472293,9.68605186 169.235599,8.10326415 C170.00062,6.52219173 170.44531,5.12422697 170.572242,3.9119428 C170.65672,2.97024629 170.56195,2.12932332 170.286216,1.38702976 C170.010483,0.64688032 169.448724,0.276376776 168.599224,0.276376776 C167.664818,0.276376776 166.753139,0.697481498 165.861186,1.53840447 C164.969662,2.38147157 164.079424,3.30601513 163.1879,4.31632341 C162.338401,5.25973521 161.267199,6.67356644 159.97301,8.5578171 C158.676248,10.4433542 157.329742,12.5304384 155.930062,14.8190697 C154.529524,17.1089874 153.16029,19.3980475 151.823647,21.6866788 C150.487004,23.9761677 149.349335,25.9624784 148.417502,27.6447532 C146.973653,30.2039721 145.604848,32.7953528 144.310659,35.4206105 C143.014325,38.0471547 141.816192,40.506029 140.713258,42.7938026 C139.990262,43.7367856 139.289993,44.6960638 138.611165,45.6716374 C137.938341,46.639921 137.307541,47.5241551 136.717909,48.3269128 C136.713192,48.3342028 136.705902,48.3402063 136.700756,48.3479252 C136.276221,48.8873852 135.692592,49.6279634 134.951156,50.5692311 C134.206718,51.5130718 133.391525,52.4226065 132.499572,53.2965489 C131.990129,53.8360089 131.490979,54.3064283 131.003406,54.7103801 C130.514976,55.1139031 130.079721,55.4522449 129.69721,55.7202596 L129.69721,55.6190572 C130.079721,55.2151054 130.462231,54.6096066 130.844742,53.8012742 C131.225537,52.9937995 131.523141,52.2202018 131.734551,51.4779082 C132.117061,50.0645058 132.318608,48.6854093 132.340049,47.3376169 C132.360633,45.9915398 132.35077,44.6107279 132.308316,43.1968967 C132.308316,42.6587232 132.318608,42.1715796 132.340049,41.733322 C132.360633,41.2959219 132.499572,40.8743884 132.753007,40.4704366 C132.922392,40.2019931 133.145809,39.9661401 133.423258,39.7637354 C133.697276,39.5613307 133.985017,39.2928871 134.283049,38.955403 C134.705869,38.5523089 135.045926,38.0968983 135.301934,37.5930306 C135.555797,37.0874477 135.322088,36.8344418 134.601236,36.8344418 C134.388111,36.8344418 134.111948,36.9030535 133.773607,37.0368465 C133.431834,37.1719259 133.093492,37.4759618 132.753007,37.9455236 C132.541597,38.1479283 132.340049,38.4352401 132.149223,38.8044571 C131.957968,39.1749607 131.819458,39.4605572 131.734551,39.6629619 C131.014127,40.6724125 130.355883,41.5656519 129.761533,42.3392496 C129.167613,43.1141338 128.573692,43.8384167 127.979772,44.5099544 C127.470329,45.0498433 126.98147,45.5700062 126.514482,46.0751604 C126.047493,46.5807433 125.644827,47.001848 125.30477,47.3376169 C125.050907,47.7424263 124.94413,48.0451757 124.986583,48.2471516 C125.071061,48.4482699 125.282472,48.3826599 125.622529,48.0451757 C125.835654,47.9105251 126.186003,47.6073469 126.673575,47.1360698 C127.160719,46.6660792 127.617845,46.1609251 128.04238,45.6210362 C128.594276,44.9490697 129.15775,44.2749591 129.729801,43.6012773 C130.302709,42.928882 130.758119,42.3229543 131.098605,41.7830655 L131.098605,41.8846967 C130.92922,42.2221808 130.726386,42.8105267 130.494393,43.6518785 C130.260684,44.4936591 130.017112,45.4190603 129.761533,46.4289398 C129.50767,47.4392481 129.242228,48.4662805 128.966495,49.5096081 C128.688617,50.5533647 128.40302,51.4453176 128.106703,52.1854671 C127.384136,54.1391872 126.651276,55.5350078 125.910269,56.3767884 C125.167547,57.2194267 124.477141,57.6392449 123.840767,57.6392449 C123.245131,57.6392449 122.779857,57.4209738 122.4398,56.9827161 C122.101458,56.5453161 121.952657,55.9218066 121.994681,55.1139031 C122.037135,54.3741825 122.226675,53.750673 122.566732,53.2459477 C122.906789,52.7407936 123.204821,52.3535659 123.458685,52.0851224 C124.264016,51.27679 124.73272,50.435867 124.859651,49.5593517 C124.94413,49.0897899 124.901676,48.618084 124.73272,48.1455204 C124.561619,47.675101 124.243861,47.4392481 123.776443,47.4392481 C123.013566,47.3045975 122.290998,47.7767322 121.612171,48.8526505 C121.377604,49.2261558 121.188064,49.6262481 121.019108,50.0392052 C120.948781,50.1348329 120.89089,50.2188823 120.817132,50.3170829 C120.28582,51.0237841 119.701762,51.7810865 119.065817,52.58899 C118.556374,53.2635295 118.03664,53.8861813 117.505756,54.4582319 C116.974015,55.0311401 116.540904,55.4522449 116.200846,55.7202596 C115.520732,56.1919655 115.033589,56.2931678 114.737272,56.0234378 C114.651078,55.8887872 114.608625,55.6190572 114.608625,55.2151054 C114.608625,54.8107248 114.715402,54.341163 114.928527,53.8012742 C115.096197,53.2635295 115.393801,52.5392465 115.818765,51.6297118 C116.2433,50.7210347 116.730872,49.7283082 117.284055,48.6506746 C117.92,47.2968786 118.493766,46.1570657 119.003208,45.2359527 C119.512222,44.3144109 120.062402,43.271512 120.658038,42.109829 C121.040549,41.3593878 121.11302,40.8984025 120.881455,40.7281596 C120.646031,40.5574878 120.253658,40.4704366 119.701762,40.4704366 C119.234773,40.4704366 118.874561,40.5733543 118.620698,40.7779031 C118.365119,40.9837384 118.111255,41.2564702 117.856105,41.5969561 C116.837221,42.8958626 115.796466,44.2779609 114.737272,45.7445374 C113.674647,47.2115428 112.422482,48.7870405 110.980777,50.4688864 C110.002631,51.6147029 109.132977,52.6237247 108.3701,53.4985248 C107.606794,54.3741825 106.861927,55.1139031 106.141504,55.7202596 C105.420651,56.1919655 104.933079,56.2254137 104.6775,55.8210331 C104.506828,55.5525896 104.550568,54.9796813 104.804432,54.1040236 C104.973817,53.5662789 105.281712,52.7913947 105.728547,51.7810865 C106.173237,50.7716358 106.650517,49.7283082 107.15996,48.6506746 C107.796334,47.4323869 108.401833,46.2599833 108.973883,45.1338927 C109.547649,44.0069444 110.0468,43.0665344 110.471335,42.3152355 C110.85213,41.6334061 111.000932,41.1882872 110.916454,40.9837384 C110.831976,40.7779031 110.449465,40.6758431 109.771066,40.6758431 C109.177146,40.7448837 108.62525,40.8984025 108.114092,41.1368284 C107.606794,41.3765408 106.926251,41.9743208 106.07718,42.9305973 C105.653931,43.4083067 105.186942,43.9722097 104.6775,44.6205909 C104.168487,45.2706874 103.667621,45.9199262 103.180048,46.5674498 C102.692905,47.2166886 102.267941,47.7921698 101.907729,48.2968952 C101.718189,48.4662805 101.559095,48.6506746 101.430448,48.8526505 C100.963459,49.5263323 100.369539,50.3342358 99.6486864,51.27679 C98.9261187,52.2202018 98.3540681,52.96078 97.9295328,53.4985248 C96.9531016,54.6439125 96.0937392,55.4522449 95.350588,55.9218066 C94.6078656,56.3935125 93.9611997,56.6289367 93.4097326,56.6289367 C93.1541538,56.6289367 92.888712,56.4947149 92.6142649,56.2254137 C92.3368161,55.9565413 92.1983061,55.5178549 92.1983061,54.912356 C92.1983061,53.9698019 92.4217231,52.7750995 92.8685573,51.3269623 C93.3132473,49.8801117 93.8870132,48.3479252 94.5872821,46.7316892 C95.2879797,45.1158821 96.0392786,43.4499026 96.8480398,41.733322 C97.6537992,40.0158836 98.4166763,38.4506777 99.139244,37.0368465 C99.8600964,36.9708076 100.729751,36.9360729 101.748635,36.9360729 L104.933079,36.9360729 C105.186942,36.9360729 105.484546,36.9527971 105.823317,36.9862453 C106.163374,37.02098 106.334045,36.9030535 106.334045,36.6333235 C106.334045,36.4986729 106.151367,36.3978994 105.79287,36.3301453 C105.430514,36.2636776 105.122619,36.1959235 104.868755,36.1281694 C104.273119,35.9935188 103.489659,35.9098982 102.513228,35.8751635 C101.536796,35.8425729 100.624689,35.7919717 99.7756181,35.7237888 C100.242607,34.7820923 100.888844,33.4866163 101.718189,31.8360745 C102.545389,30.187248 103.383311,28.6550614 104.23281,27.2412302 C105.50513,25.0868207 106.598201,23.3526583 107.512024,22.0396006 C108.423703,20.7274005 109.261624,19.6004522 110.026216,18.6570404 C110.831976,17.7822404 111.745799,16.9902033 112.764255,16.2830733 C113.783139,15.5763721 114.801595,15.2230215 115.82048,15.2230215 C116.838936,15.2230215 117.624112,15.4927515 118.175579,16.030925 C118.727475,16.5708139 119.13014,17.2423516 119.384004,18.0502551 C119.468482,18.3877393 119.522514,18.6407452 119.543097,18.8084152 C119.566682,18.976514 119.617284,19.027544 119.705621,18.9597899 C119.959056,18.8251393 119.97964,18.320414 119.766514,17.4447563 C119.597129,16.704178 119.184172,15.979895 118.524212,15.2736227 C117.867684,14.5660638 116.943998,14.2127132 115.756156,14.2127132 C114.693532,14.2127132 113.579877,14.5163203 112.41219,15.122248 C111.244933,15.7277468 110.238055,16.4353057 109.390271,17.2423516 C109.00776,17.6467322 108.50861,18.1690393 107.894534,18.8084152 C107.278315,19.4490775 106.608493,20.189227 105.887211,21.03015 C105.166788,21.8727882 104.423637,22.7977606 103.660759,23.8072112 C102.895738,24.8170907 102.131146,25.8621337 101.36784,26.938052 C99.7957728,29.2275409 98.6400934,31.0281709 97.897371,32.3412286 C97.1546486,33.6534287 96.5302815,34.7820923 96.0191239,35.7237888 L86.9152,35.7237888 C87.5095494,34.5123623 88.1575018,33.1482746 88.8581995,31.6336698 C89.5584683,30.1194938 90.3946742,28.4196373 91.3723919,26.5341002 C92.1777225,24.9178642 92.9427438,23.4877377 93.6635961,22.2415765 C94.3844485,20.9962729 95.1490409,19.7676934 95.9548003,18.5554093 C96.2948574,18.0172357 96.570591,17.6308657 96.7837163,17.3937263 C96.9955551,17.1595886 96.9955551,16.9391733 96.7837163,16.7380551 C96.570591,16.5360792 96.2828504,16.5866804 95.9243539,16.8894298 C95.561998,17.192608 95.1490409,17.5463875 94.6824809,17.9494816 C94.1730385,18.4220451 93.3012402,18.6737646 92.0730896,18.706784 C90.8410796,18.7415187 89.4825666,18.706784 87.9984083,18.6064393 C86.5108194,18.5048081 85.0052199,18.3530046 83.4768928,18.1518863 C81.9489945,17.9494816 80.6543762,17.8152598 79.5938956,17.7475057 C77.1736155,17.6814669 75.0620883,18.0352463 73.2584565,18.8084152 C71.4526805,19.5824417 69.9466523,20.7111052 68.7386563,22.1909753 C67.5289451,23.6734183 66.6369921,25.4067231 66.0649415,27.3926049 C65.4898891,29.3789156 65.2257338,31.5174586 65.2681874,33.8052322 C65.3526656,36.09515 65.8822627,38.2156824 66.8604092,40.1672584 C67.8351251,42.1205496 69.1314587,43.500075 70.7438352,44.3079785 C71.0397235,44.4439156 71.3055941,44.4936591 71.5388741,44.4593532 C71.7725829,44.4263338 71.9098064,44.3427132 71.9535464,44.207205 C71.9942847,44.0725544 71.9535464,43.9897915 71.8248994,43.9550567 C71.6979676,43.9211797 71.4865576,43.8384167 71.1889541,43.7020509 C70.4239329,43.2985279 69.745534,42.7273349 69.1516134,41.9854702 C68.5559775,41.2448919 68.0688339,40.4202643 67.6876098,39.5115872 C67.305528,38.6020524 67.0195027,37.6775089 66.8282474,36.734097 C66.6369921,35.7919717 66.5422221,34.882437 66.5422221,34.0067793 C66.5422221,31.5174586 66.9127257,29.3613338 67.6558769,27.5439796 C68.396884,25.7257678 69.4054769,24.228316 70.6795117,23.0499089 C71.9535464,21.8727882 73.427413,21.03015 75.1045419,20.5249958 C76.7812419,20.0198417 78.552712,19.8024281 80.4210962,19.868467 C83.8594034,20.0708717 86.68192,20.1553499 88.8882171,20.1206152 C91.0949431,20.0875958 92.8140967,19.700797 94.0461067,18.9597899 L94.0461067,19.0605634 C93.4097326,19.7342452 92.6348484,20.6935235 91.7210255,21.938827 C90.8089178,23.1849883 89.8427783,24.5640848 88.8238936,26.0795472 C87.8054377,27.594152 86.7968447,29.1945215 85.8019741,30.8763674 C84.8036728,32.5603575 83.8799869,34.209184 83.0304875,35.82542 C82.096081,35.8931741 81.2264268,35.9437753 80.4210962,35.9767947 C79.6136215,36.0115294 78.9150679,36.09515 78.319432,36.2289429 C77.8524432,36.2962682 77.4394861,36.36488 77.077559,36.4313476 C76.7169184,36.4986729 76.5158002,36.6333235 76.4733466,36.8344418 C76.3867243,37.1719259 76.5158002,37.3400247 76.8558572,37.3400247 L77.6830579,37.3400247 C78.7864208,37.2735571 79.7101068,37.2229559 80.453258,37.1882212 C81.1959803,37.1552018 81.8220627,37.13762 82.3297898,37.13762 C81.4395521,38.948113 80.3889344,41.0922308 79.1792232,43.5708308 C77.9707985,46.0515751 76.6543102,48.396811 75.2331889,50.6073964 C73.8099236,52.8201259 72.30218,54.6958001 70.7116735,56.2365631 C69.1211669,57.7764685 67.4744845,58.547922 65.7772009,58.547922 C65.0970868,58.547922 64.4186879,58.3287932 63.7398602,57.8913932 C63.0597461,57.4539932 62.6772355,56.6966908 62.5944725,55.6190572 C62.5944725,55.1494954 62.6772355,54.7103801 62.8500514,54.3064283 C63.0177214,53.9024766 63.2089767,53.4985248 63.422102,53.0941442 C64.0580473,52.2202018 64.3968179,51.2098935 64.4405579,50.0645058 C64.5250362,48.9881587 64.3663714,48.1305116 63.9632773,47.4889916 C63.5588967,46.8500445 63.0395914,46.4636745 62.4032172,46.3285951 C61.4250707,46.2612698 60.6300319,46.7822904 60.0155277,47.8933722 C59.4014524,49.004454 59.0935571,50.2334623 59.0935571,51.5799682 C59.0935571,52.9937995 59.2830971,54.205226 59.6656077,55.2151054 C60.0476895,56.2254137 60.5352619,57.0521855 61.1308978,57.6958496 C61.7231031,58.3382273 62.4032172,58.8082179 63.1682385,59.1096809 C63.9315444,59.4077132 64.6944215,59.5578015 65.4594427,59.5578015 C67.7081933,59.5578015 69.7776958,58.951445 71.6658058,57.7400185 C73.5543447,56.528592 75.3275301,54.8960607 76.982789,52.8419959 C78.6376191,50.7887888 80.2298409,48.4156793 81.7577392,45.7226674 C83.2856375,43.0300844 84.8135358,40.1672584 86.3418629,37.13762 L95.2541027,37.0368465 C94.8733074,37.7787112 94.341995,38.8391918 93.6635961,40.2182884 C92.983482,41.5986714 92.3166614,43.0798279 91.6584172,44.6613291 C91.0001731,46.2445457 90.4384142,47.8603528 89.9714254,49.5096081 C89.5044366,51.16015 89.2707277,52.6237247 89.2707277,53.9024766 C89.2707277,55.3836331 89.5464613,56.4947149 90.0983572,57.2348643 C90.6498242,57.9750138 91.3929755,58.3455173 92.3269531,58.3455173 C92.9628985,58.3455173 93.5889808,58.1774185 94.2052003,57.8403632 C94.8192756,57.5045943 95.3930415,57.1182243 95.9243539,56.6795378 C96.453951,56.2425666 96.9209398,55.8047378 97.3253204,55.366909 C97.7279857,54.9290801 98.035881,54.5765872 98.2477198,54.3064283 C98.7147087,53.7682548 99.3189211,52.9937995 100.06293,51.9830624 C100.555219,51.3136688 100.951452,50.7656323 101.303945,50.2733429 C101.363552,50.2124499 101.424445,50.1481264 101.494772,50.0645058 C102.044952,49.2566023 102.533811,48.5666252 102.958347,47.9928593 C103.383311,47.4182357 103.826285,46.8247439 104.295418,46.209811 C104.761978,45.5940203 105.251266,44.9966691 105.758993,44.4156132 C106.270151,43.8349862 106.628647,43.4413261 106.841773,43.2367773 L106.841773,43.3392661 C105.863626,44.8435791 104.963525,46.3740504 104.135896,47.9315375 C103.308695,49.488167 102.660743,50.7716358 102.195469,51.7810865 C101.939891,52.3878718 101.707897,53.0444006 101.494772,53.750673 C101.281646,54.4582319 101.154715,55.0808837 101.112261,55.6190572 C101.070236,56.5633267 101.239193,57.2691702 101.619988,57.7400185 C102.002499,58.2104379 102.533811,58.4471485 103.213925,58.4471485 C104.188641,58.4471485 105.239259,57.9076885 106.364492,56.8313414 C107.48801,55.7549943 108.709728,54.4423654 110.026216,52.8917395 C110.747069,52.0177971 111.510374,51.0915382 112.31742,50.1155358 C113.122751,49.1395334 113.865902,48.1785399 114.546016,47.2334128 L114.672948,47.4392481 C114.205959,48.1802551 113.759125,48.9036805 113.336305,49.6099529 C112.911341,50.3170829 112.529259,51.0748141 112.190489,51.8827176 C111.93491,52.4886453 111.70163,53.1447453 111.49022,53.8514466 C111.276666,54.5585766 111.172033,55.2832884 111.172033,56.0234378 C111.172033,57.6392449 111.828562,58.4471485 113.14505,58.4471485 C114.205959,58.4471485 115.224415,57.9750138 116.200846,57.0328884 C117.177278,56.0907631 117.984324,55.2151054 118.620698,54.4076307 C119.239919,53.7129365 119.859569,52.9144671 120.480505,52.0456706 C120.453918,52.2266341 120.419612,52.4024518 120.40246,52.58899 C120.317981,53.3312836 120.317981,54.0534224 120.40246,54.7609813 C120.488653,55.4672537 120.66833,56.1087737 120.944064,56.6795378 C121.219797,57.2524461 121.622463,57.7237232 122.153775,58.0933691 C122.683372,58.4625861 123.373778,58.6486956 124.223277,58.6486956 C125.197993,58.6486956 126.186003,58.4471485 127.183017,58.0427679 C128.179603,57.6392449 128.976358,57.2348643 129.570278,56.8313414 C130.164199,56.4269608 130.800573,55.9398172 131.481116,55.366909 C132.159515,54.795716 132.859784,54.1391872 133.582351,53.3968936 C134.303632,52.6576018 134.97174,51.8668512 135.587959,51.0237841 C136.127419,50.2849211 136.542091,49.7137282 136.870141,49.2608905 C136.89973,49.2235828 136.92546,49.1991399 136.956335,49.1553999 C137.212343,48.7514481 137.562263,48.2308563 138.007381,47.5906228 C138.452071,46.950818 138.909197,46.2955757 139.376615,45.6210362 L139.376615,45.7226674 C138.993676,46.4636745 138.643756,47.1862422 138.32514,47.8933722 C138.007381,48.6000734 137.721356,49.2235828 137.466206,49.7617564 C136.404868,52.2532212 135.535214,54.5079754 134.8551,56.528592 C134.601236,57.2691702 134.558782,57.7237232 134.728168,57.8913932 C134.89884,58.0586344 135.217027,58.1431126 135.684015,58.1431126 C136.277936,58.1431126 136.829403,57.8403632 137.339274,57.2348643 C138.017673,56.3609219 138.643756,55.5525896 139.217521,54.8107248 C139.789143,54.071433 140.352617,53.3471501 140.904084,52.6395912 C141.45598,51.9324612 142.007447,51.2098935 142.559343,50.4688864 C143.11081,49.7283082 143.747185,48.9208334 144.469752,48.0451757 C145.488208,46.7664239 146.420471,45.7063721 147.26997,44.8637338 C148.119469,44.0228109 148.840322,43.3658532 149.435958,42.8941473 C149.647368,42.7603543 149.933393,42.5913979 150.295749,42.3889932 C150.655961,42.1874461 150.920116,42.1544267 151.090788,42.2882196 C151.260173,42.4237279 151.324497,42.6261326 151.282043,42.8941473 C151.240018,43.1638773 151.155111,43.4340361 151.026893,43.7020509 C150.6015,44.4439156 150.167102,45.2175133 149.721983,46.0254168 C149.277293,46.8333204 148.820167,47.7089781 148.352749,48.6506746 C147.801282,49.7283082 147.239952,50.8899911 146.666186,52.1348659 C146.092421,53.3818848 145.763942,54.5765872 145.679463,55.7202596 C145.59327,56.4616955 145.73178,57.0834896 146.092421,57.5882149 C146.453061,58.0933691 146.952212,58.3455173 147.589872,58.3455173 C148.692807,58.3455173 149.742567,57.8742402 150.740868,56.9316861 C151.737454,55.9904184 152.576661,55.1139031 153.25506,54.3064283 C154.10456,53.364303 154.867866,52.4050247 155.54798,51.4281647 C156.226807,50.4530199 156.757691,49.6609829 157.138486,49.0550552 C157.222965,48.9208334 157.35204,48.7017046 157.520997,48.3985263 C157.690382,48.0957769 157.732407,47.8775057 157.647929,47.7424263 C157.56345,47.6073469 157.436519,47.6403663 157.267133,47.842771 C157.096033,48.0451757 156.948946,48.2132746 156.820299,48.3479252 C156.439933,48.8873852 156.01454,49.4937417 155.54798,50.166137 C155.080991,50.83939 154.48707,51.6147029 153.764074,52.4886453 C153.128128,53.2300812 152.554363,53.8694571 152.045349,54.4076307 C151.535907,54.9470907 151.090788,55.3506137 150.708277,55.6190572 C150.454843,55.8210331 150.176965,55.9724078 149.881077,56.0731813 C149.583044,56.1748125 149.349335,56.1237825 149.180379,55.9218066 C148.882775,55.5860378 148.967254,54.8454595 149.435958,53.7000718 C149.7743,52.8261295 150.474997,51.3775635 151.535907,49.3578046 C152.045349,48.3479252 152.576661,47.3045975 153.128128,46.2265351 C153.679596,45.1506168 153.997783,44.1411662 154.08269,43.1968967 C154.167168,42.3229543 154.030373,41.6497014 153.669733,41.1775666 C153.307377,40.7067184 152.788071,40.4704366 152.109673,40.4704366 C151.133241,40.4704366 150.008008,41.0437737 148.73526,42.1874461 C147.461225,43.3332626 146.273384,44.5777085 145.170021,45.9237856 C144.064943,47.2715781 143.068357,48.5340346 142.176833,49.7107264 C141.286595,50.8899911 140.459394,51.9830624 139.694373,52.9937995 L139.503547,52.8917395 C139.885629,52.0177971 140.308449,51.0417947 140.777153,49.9637323 C141.242426,48.8873852 141.709844,47.8097516 142.176833,46.7316892 L142.176833,46.7316892 Z" id="Fill-10" fill="#1F1F20"></path>
            <path d="M239.204807,31.6337127 C239.840752,31.1285585 240.350195,30.4720297 240.732705,29.6641261 C241.113501,28.9248343 241.242148,28.3013249 241.113501,27.7961708 C240.986569,27.2910166 240.710835,27.0388684 240.285871,27.0388684 L240.223263,27.0388684 C239.627627,27.0388684 239.108322,27.1743766 238.663203,27.4423913 C238.216369,27.7121213 237.888319,28.2177043 237.676909,28.9578537 C237.505808,29.6311067 237.431193,30.2876356 237.453492,30.9265826 C237.473646,31.5681027 237.570132,32.0548174 237.739517,32.3914439 C238.079574,32.3914439 238.567146,32.1392956 239.204807,31.6337127" id="Fill-12" fill="#FFFFFF"></path>
            <path d="M10.1113438,51.9123494 C10.0758953,51.9972564 16.6467585,58.0578196 24.81842,58.9158955 C37.1771147,60.2135156 45.5846291,54.0217324 48.2381892,51.0062452 C50.9569305,47.9165716 48.5062039,45.5198767 48.5469422,45.5374585 C50.9346317,46.5649197 52.0774464,44.6425038 52.0534323,43.6214749 C52.0289894,42.5481296 51.1520452,41.976079 50.5062369,42.1990672 C49.9401899,42.3954684 49.9148893,42.9477931 50.0062287,43.2406796 C50.0139475,43.2389643 50.0190934,42.9619443 50.1961975,42.7886996 C50.438054,42.5511313 50.8304275,42.5871525 51.1301752,42.9975366 C51.4676593,43.4580931 51.0053876,44.2449843 50.2566616,44.2702849 C49.3458404,44.3007314 47.5979557,43.6146137 48.6095504,41.8247043 C49.2587893,40.6767436 48.6687281,40.0622395 48.6597228,40.0275048 C49.1837451,39.2041636 50.2549463,39.6166918 50.5062369,40.1274207 C51.330007,41.7994037 52.3381711,41.1304389 52.3030076,41.1257219 C51.2798346,40.9760625 51.5547105,40.1522924 51.2052193,39.4786106 C50.4955164,38.1098059 49.0469504,38.3143547 49.115991,38.2688994 C52.8356065,37.9309864 52.7927241,35.3035846 52.6696517,34.6041734 C52.46982,33.472508 51.854887,32.2790921 50.2738146,31.8755691 C48.576531,31.4428862 47.3230798,32.7709527 47.7060192,33.9111945 C48.0430745,34.913784 48.8694175,35.0544381 49.3750004,34.9034922 C49.3707122,34.8897699 48.8938604,34.8730457 48.5953992,34.5574316 C48.1863016,34.1251775 47.9041357,33.1864827 48.6614381,32.7405062 C51.3716029,31.1431385 53.6508,36.9163899 49.2086169,36.7671593 C48.248481,36.6449446 46.1142262,36.4339634 45.1493732,33.2396569 C45.1442273,33.2237904 44.8663497,32.6410192 44.8663497,32.6410192 C45.9894385,33.3391439 46.9461439,33.1401698 47.2454627,32.3078233 C46.6798444,32.6410192 46.1142262,32.6989104 45.5983515,32.2250603 C45.3895144,32.0329474 44.9662656,31.4999197 44.6167744,31.1186956 C43.9842596,30.4282897 42.6866396,30.1950097 42.6866396,30.1950097 C43.2359625,30.2949256 43.3397378,30.3506726 43.9345161,30.3446691 C45.7664503,30.3262297 46.6108039,29.3579461 46.8376515,28.8840961 C47.3024962,27.9110955 46.809778,26.5594436 45.8487844,26.3506066 C45.1991167,26.2095236 44.4834102,26.5350007 44.5005632,27.2168301 C44.5151432,27.8167543 44.9499703,28.0320237 45.2565791,28.0345966 C45.2570079,28.0268778 44.9945679,27.9372537 44.882645,27.7159807 C44.7304126,27.4132313 44.7497097,26.9046466 45.2321362,26.7429801 C46.4971656,26.3184448 47.3616739,29.4711555 43.8183049,29.0719208 C43.5224167,29.0389014 42.7282355,28.9102543 42.0219631,28.3828014 C42.8620284,28.3073284 43.5592955,27.768726 43.6446314,27.0097084 C43.7085261,26.4440901 43.1845037,25.9204966 42.6068784,26.0692983 C42.0991513,26.198803 41.9992354,26.602326 42.0554113,26.8583337 C42.0622725,26.8566184 42.0884307,26.6211942 42.2552431,26.4852572 C42.483806,26.2987189 42.9203484,26.2146695 43.1519131,26.5838866 C43.6000337,27.3017372 42.1973519,28.2528678 41.317406,27.545309 C40.782663,26.7897219 40.537376,25.7862748 40.9233172,23.9560559 C41.5789884,20.8500869 43.718389,15.1716055 39.5922489,9.9476771 C38.3349382,8.3558841 35.5308611,7.86445231 35.4541016,7.80184407 C29.9428614,3.29276448 21.2720493,3.15940036 19.0833339,8.48581763 C19.0134357,8.65734705 18.8569151,9.2319706 18.9889928,9.63420709 C19.0378786,9.78343768 19.0966275,9.93095298 19.1429404,10.0806124 C19.1506592,10.1076283 19.1214992,10.1445071 19.1034886,10.1740959 C18.8860751,10.5094359 17.5125533,12.310066 17.5790209,14.572539 C17.5953162,15.1381573 17.7870004,15.5116626 17.8303115,16.0506938 C17.838888,16.1578997 17.8440339,16.2659632 17.8466068,16.3740268 C17.4375092,16.3654503 17.063575,16.2380897 16.7406709,15.9344826 C16.6947868,15.8911715 16.6437568,15.8530062 16.5764315,15.8277056 C16.6437568,16.1711932 16.8577397,16.4113344 17.1360462,16.6000168 C17.3444545,16.7415285 17.5717309,16.8294374 17.8303115,16.8555956 C17.7848562,17.3384509 17.6377698,17.8028668 17.2959974,18.1828045 C16.8465903,18.6819551 16.2976962,19.3058934 15.748802,19.8800881 C14.8894397,20.7780446 15.1488779,21.1506923 15.9057515,21.7128799 C16.6356091,22.2553417 16.1334568,22.95218 15.4490544,23.4903535 C15.2745232,23.6275771 15.5489703,24.2094906 16.1780544,24.5825671 C16.2792568,24.6421736 16.3577315,24.73823 16.3911797,24.7669612 C16.0481209,25.0581324 15.6806191,25.2305195 15.5361056,25.7078001 C15.4370473,26.0349924 15.4975114,26.0903107 15.5819897,26.1520613 C16.2788279,26.6662207 16.7093668,27.0585943 16.371025,27.8253308 C16.0811403,28.4814308 16.6240309,29.5178973 17.4456568,29.7460314 C18.643361,30.0783697 19.3766492,29.7679014 20.5400475,29.7125832 C21.9375835,29.6461155 22.5919682,29.6529767 23.3621353,30.4282897 C24.2828194,31.3554062 24.48308,33.2040645 24.5298218,34.2396734 C24.5709889,35.1457775 24.9213377,36.7937464 23.1292841,37.5356111 C20.7398793,38.5240494 17.8564698,38.0707829 16.4555032,38.3182141 C13.773212,38.7912065 12.421989,41.0077954 11.8829578,44.4559655 C11.6766936,45.7745979 11.4296913,48.7815086 10.1113438,51.9123494" id="Fill-14" fill="#1F1F20"></path>
            <path d="M10.8941764,52.4483788 C10.7904011,51.825727 10.4790752,43.9598167 10.8380005,42.4602207 C10.9932347,41.8118395 11.0494106,41.1724636 11.1922088,40.6188524 C11.3174253,40.1329954 11.41777,39.6291277 11.5910147,39.1565641 C11.7376723,38.7547565 11.9962529,38.3954023 12.1506294,37.9965965 C12.4212171,37.2980429 12.5653018,36.5390252 12.9130777,35.8863558 C13.665663,34.4768128 13.8955124,32.921041 14.2612989,31.4111532 C14.7124213,29.5440555 15.0250337,27.640079 15.3445072,25.7433924 C15.4684372,25.0122483 15.4757272,24.2562324 15.4740119,23.5117947 C15.4735831,23.3329753 15.4409925,23.1035547 15.0906437,23.0083559 C14.7746007,22.9221623 14.569623,23.1309994 14.4851448,23.2978117 C14.1999772,23.8591418 13.9602648,24.4513471 13.7694383,25.0517001 C13.3333248,26.4187895 12.951243,27.7459984 12.5237059,29.1156608 C12.4396565,29.384962 12.3191571,29.6761332 12.1862218,29.9295679 C12.1214694,30.0685067 12.0095465,29.9715926 11.9649488,29.9175608 C11.8418765,29.5985161 11.7097988,29.2816155 11.5987335,28.9587114 C11.4417841,28.502872 10.8804541,28.2468643 10.365437,28.259729 C9.93789992,28.2713072 9.9537664,28.5693396 9.81396992,28.9286937 C9.73420874,29.1336714 9.73335109,29.367809 9.66731227,29.5800767 C9.56182167,29.9158455 9.43103049,30.2434667 9.30752931,30.5843815 C8.08109397,29.9677332 7.50775689,30.1418356 7.22001629,31.1508574 C7.08150628,31.1611491 6.93870804,31.1615779 6.79891156,31.1847344 C6.29847449,31.2666397 5.78388623,31.8412633 5.90953153,32.3099674 C6.10507507,33.0419692 5.93311682,33.7452398 5.81776329,34.4347881 C5.5557521,35.9931328 5.82548211,37.5171717 6.00687447,39.0442124 C6.13380624,40.1128407 6.47772273,41.2659472 6.23758154,42.3251413 C6.05061448,43.149769 5.87651212,45.6420915 5.70369623,46.474438 C5.70369623,46.474438 6.52746626,47.7519033 7.92800396,49.3171093 C9.32854166,50.882744 10.8941764,52.4483788 10.8941764,52.4483788" id="Fill-16" fill="#FFFFFF"></path>
            <path d="M28.7108514,4.3916677 C21.5143346,4.3916677 14.7487855,7.1944584 9.6599365,12.2828786 C4.5715163,17.3717276 1.7687256,24.1372767 1.7687256,31.3337935 C1.7687256,38.5303102 4.5715163,45.2962882 9.6599365,50.3847084 C14.7487855,55.4735574 21.5143346,58.2759193 28.7108514,58.2759193 C35.9073681,58.2759193 42.673346,55.4735574 47.7617663,50.3847084 C52.8501865,45.2962882 55.6529772,38.5303102 55.6529772,31.3337935 C55.6529772,24.1372767 52.8501865,17.3717276 47.7617663,12.2828786 C42.6729172,7.1944584 35.9073681,4.3916677 28.7108514,4.3916677 M28.7108514,59.7587911 C21.1181017,59.7587911 13.9803337,56.8024816 8.61146293,51.4336107 C3.24259213,46.0651688 0.285853776,38.9265432 0.285853776,31.3337935 C0.285853776,23.7414726 3.24259213,16.6032758 8.61146293,11.234405 C13.9803337,5.86553423 21.1181017,2.90879588 28.7108514,2.90879588 C36.3036011,2.90879588 43.4417978,5.86553423 48.8106686,11.234405 C54.1795394,16.6032758 57.135849,23.7414726 57.135849,31.3337935 C57.135849,38.9265432 54.1795394,46.0651688 48.8102398,51.4336107 C43.4417978,56.8024816 36.3036011,59.7587911 28.7108514,59.7587911" id="Fill-18" fill="#1F1F20"></path>
        </g>
    </g>
</svg>