<?xml version="1.0" encoding="UTF-8"?>
<svg width="270px" height="102px" viewBox="0 0 270 102" version="1.1" xmlns="http://www.w3.org/2000/svg" xmlns:xlink="http://www.w3.org/1999/xlink">
    <!-- Generator: Sketch 64 (93537) - https://sketch.com -->
    <title>inshort</title>
    <desc>Created with Sketch.</desc>
    <g id="inshort" stroke="none" stroke-width="1" fill="none" fill-rule="evenodd">
        <g id="Group" transform="translate(11.000000, 8.000000)" fill="#1F1F20">
            <path d="M74.8235294,67.0832848 C79.9890162,67.0832848 84.1764706,71.2652634 84.1764706,76.4239953 C84.1764706,81.5827273 79.9890162,85.7647059 74.8235294,85.7647059 C69.6580426,85.7647059 65.4705882,81.5827273 65.4705882,76.4239953 C65.4705882,71.2652634 69.6580426,67.0832848 74.8235294,67.0832848 Z M43.3636364,67.0832848 C48.5291231,67.0832848 52.7165775,71.2652634 52.7165775,76.4239953 C52.7165775,81.5827273 48.5291231,85.7647059 43.3636364,85.7647059 C38.1981496,85.7647059 34.0106952,81.5827273 34.0106952,76.4239953 C34.0106952,71.2652634 38.1981496,67.0832848 43.3636364,67.0832848 Z M9.35294118,67.0832848 C14.518428,67.0832848 18.7058824,71.2652634 18.7058824,76.4239953 C18.7058824,81.5827273 14.518428,85.7647059 9.35294118,85.7647059 C4.1874544,85.7647059 0,81.5827273 0,76.4239953 C0,71.2652634 4.1874544,67.0832848 9.35294118,67.0832848 Z M74.8235294,33.1170646 C79.9890162,33.1170646 84.1764706,37.2990432 84.1764706,42.4577752 C84.1764706,47.6165072 79.9890162,51.7984857 74.8235294,51.7984857 C69.6580426,51.7984857 65.4705882,47.6165072 65.4705882,42.4577752 C65.4705882,37.2990432 69.6580426,33.1170646 74.8235294,33.1170646 Z M43.3636364,33.1170646 C48.5291231,33.1170646 52.7165775,37.2990432 52.7165775,42.4577752 C52.7165775,47.6165072 48.5291231,51.7984857 43.3636364,51.7984857 C38.1981496,51.7984857 34.0106952,47.6165072 34.0106952,42.4577752 C34.0106952,37.2990432 38.1981496,33.1170646 43.3636364,33.1170646 Z M74.8235294,0 C79.9890162,0 84.1764706,4.18197856 84.1764706,9.34071054 C84.1764706,14.4994425 79.9890162,18.6814211 74.8235294,18.6814211 C69.6580426,18.6814211 65.4705882,14.4994425 65.4705882,9.34071054 C65.4705882,4.18197856 69.6580426,0 74.8235294,0 Z M44.2782823,0.849155504 C48.9386241,0.849155504 52.7165775,4.62710895 52.7165775,9.2874507 L52.7165775,9.39397039 C52.7165775,14.0543121 48.9386241,17.8322656 44.2782823,17.8322656 L8.43829519,17.8322656 C3.77795344,17.8322656 2.3470841e-15,14.0543121 0,9.39397039 L0,9.2874507 C-5.70727261e-16,4.62710895 3.77795344,0.849155504 8.43829519,0.849155504 L44.2782823,0.849155504 Z" id="Combined-Shape"></path>
            <path d="M106.165929,33.5334616 L106.165929,29.5783835 L102.617992,29.5783835 L102.617992,33.5334616 L106.165929,33.5334616 Z M106.165929,58.0588235 L106.165929,37.3916016 L102.617992,37.3916016 L102.617992,58.0588235 L106.165929,58.0588235 Z M115.831548,58.0588235 L115.831548,47.1823587 C115.831548,45.825224 115.918793,44.7815229 116.093282,44.0512552 C116.26777,43.3209875 116.645829,42.6133387 117.227458,41.9283088 C117.951264,41.0752528 118.791395,40.5065487 119.747851,40.2221967 C120.27778,40.0541705 120.956347,39.9701574 121.783553,39.9701574 C123.412115,39.9701574 124.536598,40.616412 125.157002,41.9089212 C125.53183,42.6844267 125.719244,43.705509 125.719244,44.972168 L125.719244,44.972168 L125.719244,58.0588235 L129.267182,58.0588235 L129.267182,44.7395163 C129.267182,42.6456514 128.982829,41.0364775 128.414125,39.9119945 C127.380118,37.8569049 125.389654,36.8293601 122.442733,36.8293601 C121.098523,36.8293601 119.877102,37.0943244 118.778469,37.6242532 C117.679837,38.154182 116.639367,39.0266257 115.65706,40.2415843 L115.65706,40.2415843 L115.65706,37.2946634 L112.341774,37.2946634 L112.341774,58.0588235 L115.831548,58.0588235 Z M142.674615,58.8537167 C145.543985,58.8537167 147.679856,58.1816119 149.082229,56.8374023 C150.484601,55.4931928 151.185788,53.8969439 151.185788,52.0486558 C151.185788,50.1357422 150.50722,48.7333697 149.150086,47.8415384 C148.29703,47.2728343 146.616768,46.6847426 144.1093,46.0772633 L144.1093,46.0772633 L141.802171,45.5150218 C140.794014,45.2694451 140.031433,44.9850931 139.51443,44.6619658 C138.622598,44.1191119 138.176683,43.3953068 138.176683,42.4905503 C138.176683,41.6633444 138.515966,40.9977022 139.194534,40.4936236 C139.873101,39.989545 140.871564,39.7375057 142.189924,39.7375057 C144.167463,39.7375057 145.55691,40.1963465 146.358266,41.114028 C146.849419,41.7602826 147.127309,42.4776252 147.191934,43.2660558 L147.191934,43.2660558 L150.487833,43.2660558 C150.513683,41.9218463 150.093617,40.6681124 149.227636,39.5048541 C147.844651,37.669491 145.589223,36.7518095 142.461351,36.7518095 C140.070209,36.7518095 138.166989,37.3592888 136.751691,38.5742475 C135.336394,39.7892061 134.628745,41.3789924 134.628745,43.3436064 C134.628745,45.0109432 135.3784,46.3163775 136.877711,47.2599092 C137.717842,47.8027631 139.023276,48.2939166 140.794014,48.7333697 L140.794014,48.7333697 L143.566446,49.4313247 C145.052832,49.8061523 146.048064,50.1357422 146.552142,50.4200942 C147.340573,50.8853975 147.734788,51.5639648 147.734788,52.4557962 C147.734788,53.6319795 147.243635,54.501192 146.261328,55.0634335 C145.279021,55.625675 144.141613,55.9067957 142.849103,55.9067957 C140.677688,55.9067957 139.152527,55.3445542 138.273621,54.2200712 C137.795392,53.5996668 137.504578,52.7078355 137.401177,51.5445772 L137.401177,51.5445772 L134.047116,51.5445772 C134.137591,53.6125919 134.825853,55.3477855 136.111899,56.750158 C137.397946,58.1525304 139.585518,58.8537167 142.674615,58.8537167 Z M159.571823,58.0588235 L159.571823,47.0466452 C159.571823,44.2806756 160.159914,42.4000747 161.336098,41.4048426 C162.512281,40.4096105 163.824178,39.9119945 165.271788,39.9119945 C167.016676,39.9119945 168.205784,40.4806985 168.839113,41.6181066 C169.226866,42.3289867 169.420743,43.4470071 169.420743,44.972168 L169.420743,44.972168 L169.420743,58.0588235 L173.007456,58.0588235 L173.007456,44.7395163 C173.007456,42.6973518 172.716641,41.1011029 172.135012,39.9507698 C171.062229,37.8439798 169.020065,36.7905848 166.008518,36.7905848 C164.328256,36.7905848 162.925884,37.1589499 161.801401,37.8956801 C161.142221,38.3222082 160.399028,39.0589384 159.571823,40.1058709 L159.571823,40.1058709 L159.571823,29.4814453 L156.082048,29.4814453 L156.082048,58.0588235 L159.571823,58.0588235 Z M186.97713,58.8149414 C190.40228,58.8149414 192.929135,57.7227711 194.557697,55.5384306 C196.186258,53.3540901 197.000539,50.5881204 197.000539,47.2405216 C197.000539,43.776597 196.076395,41.1528033 194.228107,39.3691406 C192.379819,37.5854779 190.117928,36.6936466 187.442434,36.6936466 C184.456737,36.6936466 182.07852,37.727654 180.307783,39.7956687 C178.537045,41.8636834 177.651676,44.6425781 177.651676,48.1323529 C177.651676,51.3894761 178.491807,53.9841883 180.172069,55.9164895 C181.852331,57.8487908 184.120685,58.8149414 186.97713,58.8149414 Z M187.30672,55.8098575 C185.19993,55.8098575 183.661844,55.0731273 182.692462,53.5996668 C181.72308,52.1262063 181.238389,50.2843807 181.238389,48.07419 C181.238389,45.7735237 181.72308,43.8089097 182.692462,42.1803481 C183.661844,40.5517865 185.212855,39.7375057 187.345495,39.7375057 C189.749562,39.7375057 191.442749,40.6939625 192.425056,42.6068761 C193.045461,43.8218348 193.355663,45.398696 193.355663,47.3374598 C193.355663,49.483025 192.925904,51.4314827 192.066385,53.1828326 C191.206867,54.9341826 189.620312,55.8098575 187.30672,55.8098575 Z M205.638613,58.0588235 L205.638613,46.1160386 C205.638613,44.6425781 206.110379,43.3403751 207.053911,42.2094296 C207.997442,41.078484 209.348115,40.5130113 211.105927,40.5130113 C211.312729,40.5130113 211.503374,40.5194738 211.677862,40.5323989 C211.852351,40.545324 212.042996,40.5711742 212.249798,40.6099494 L212.249798,40.6099494 L212.249798,36.9262983 C211.87497,36.887523 211.610006,36.8616728 211.454905,36.8487477 C211.299803,36.8358226 211.18994,36.8293601 211.125315,36.8293601 C209.74233,36.8293601 208.520909,37.3302074 207.461051,38.331902 C206.401194,39.3335966 205.735551,40.1834214 205.464124,40.8813764 L205.464124,40.8813764 L205.464124,37.2946634 L202.148838,37.2946634 L202.148838,58.0588235 L205.638613,58.0588235 Z M221.062361,58.3884134 C221.566439,58.3884134 222.034974,58.3625632 222.467964,58.3108628 C222.900955,58.2591625 223.317789,58.1751494 223.718467,58.0588235 L223.718467,58.0588235 L223.718467,55.305779 C223.459965,55.3316291 223.233776,55.3477855 223.0399,55.354248 C222.846023,55.3607106 222.665072,55.3639419 222.497046,55.3639419 C221.863716,55.3639419 221.411338,55.2928539 221.139911,55.1506778 C220.648758,54.9051011 220.403181,54.4204102 220.403181,53.696605 L220.403181,53.696605 L220.403181,40.1446461 L223.718467,40.1446461 L223.718467,37.2946634 L220.403181,37.2946634 L220.403181,31.4977597 L216.874631,31.4977597 L216.874631,37.2946634 L214.063423,37.2946634 L214.063423,40.1446461 L216.874631,40.1446461 L216.874631,53.8904814 C216.874631,55.2217659 217.165445,56.3042423 217.747075,57.1379107 C218.328704,57.9715792 219.433799,58.3884134 221.062361,58.3884134 Z M235.458563,58.8537167 C238.327934,58.8537167 240.463805,58.1816119 241.866178,56.8374023 C243.26855,55.4931928 243.969736,53.8969439 243.969736,52.0486558 C243.969736,50.1357422 243.291169,48.7333697 241.934034,47.8415384 C241.080978,47.2728343 239.400716,46.6847426 236.893249,46.0772633 L236.893249,46.0772633 L234.58612,45.5150218 C233.577962,45.2694451 232.815382,44.9850931 232.298378,44.6619658 C231.406547,44.1191119 230.960631,43.3953068 230.960631,42.4905503 C230.960631,41.6633444 231.299915,40.9977022 231.978482,40.4936236 C232.65705,39.989545 233.655513,39.7375057 234.973872,39.7375057 C236.951411,39.7375057 238.340859,40.1963465 239.142214,41.114028 C239.633368,41.7602826 239.911257,42.4776252 239.975883,43.2660558 L239.975883,43.2660558 L243.271781,43.2660558 C243.297632,41.9218463 242.877566,40.6681124 242.011585,39.5048541 C240.6286,37.669491 238.373172,36.7518095 235.245299,36.7518095 C232.854157,36.7518095 230.950937,37.3592888 229.53564,38.5742475 C228.120342,39.7892061 227.412694,41.3789924 227.412694,43.3436064 C227.412694,45.0109432 228.162349,46.3163775 229.66166,47.2599092 C230.501791,47.8027631 231.807225,48.2939166 233.577962,48.7333697 L233.577962,48.7333697 L236.350395,49.4313247 C237.83678,49.8061523 238.832012,50.1357422 239.336091,50.4200942 C240.124521,50.8853975 240.518737,51.5639648 240.518737,52.4557962 C240.518737,53.6319795 240.027583,54.501192 239.045276,55.0634335 C238.062969,55.625675 236.925561,55.9067957 235.633052,55.9067957 C233.461637,55.9067957 231.936476,55.3445542 231.05757,54.2200712 C230.579341,53.5996668 230.288527,52.7078355 230.185126,51.5445772 L230.185126,51.5445772 L226.831064,51.5445772 C226.92154,53.6125919 227.609801,55.3477855 228.895848,56.750158 C230.181895,58.1525304 232.369466,58.8537167 235.458563,58.8537167 Z" id="inshorts" fill-rule="nonzero"></path>
        </g>
    </g>
</svg>