<?xml version="1.0" encoding="UTF-8"?>
<svg width="270px" height="102px" viewBox="0 0 270 102" version="1.1" xmlns="http://www.w3.org/2000/svg" xmlns:xlink="http://www.w3.org/1999/xlink">
    <!-- Generator: Sketch 64 (93537) - https://sketch.com -->
    <title>jinx</title>
    <desc>Created with Sketch.</desc>
    <g id="jinx" stroke="none" stroke-width="1" fill="none" fill-rule="evenodd">
        <g id="Group" transform="translate(1.000000, -8.000000)">
            <g id="Logo">
                <g id="Group-4">
                    <path d="M65.1736595,63.4422761 L99.9686595,98.3312761 L78.5526595,98.3312761 L60.3876595,80.1172761 L68.3632407,77.0262308 L56.0982651,69.8927872 L65.1736595,63.4422761 Z M95.4846373,19.3862888 L65.5557782,45.4948433 L76.7276418,51.9624017 L51.541931,69.8333185 L62.7137945,76.3008768 L6.44285092,98.1431229 L39.037278,72.5792039 L25.6310418,64.8181339 L51.3263441,51.2362334 L37.9201078,43.4751635 L95.4846373,19.3862888 Z M21.5156595,19.6662761 L41.4466595,39.6512761 L32.7155165,43.302285 L46.5602533,51.3545351 L36.8316595,56.4982761 L0.0996595344,19.6662761 L21.5156595,19.6662761 Z" id="Combined-Shape" fill="#1F1F20"></path>
                    <g id="Bitmap" transform="translate(6.349374, 0.000000)"></g>
                </g>
            </g>
        </g>
        <path d="M117.555003,73.36 C121.595003,73.36 124.645003,72.25 126.705003,70.0300002 C128.765003,67.8100003 129.795003,64.5000025 129.795003,60.1000008 L129.795003,60.1000008 L129.795003,31.0000025 L110.055004,31.0000025 L110.055004,34.8400023 L125.415004,34.8400023 L125.415004,60.2800008 C125.415004,66.4400004 122.815003,69.5200002 117.615003,69.5200002 C113.895004,69.5200002 110.875004,67.8000003 108.555004,64.3600005 L108.555004,64.3600005 L105.915004,67.3600003 C107.195004,69.2800002 108.855004,70.7600001 110.895004,71.8000001 C112.935004,72.84 115.155004,73.36 117.555003,73.36 Z M147.867502,73.0000025 L147.867502,31.0000025 L143.427502,31.0000025 L143.427502,73.0000025 L147.867502,73.0000025 Z M166.300001,73.0000025 L166.300001,38.920002 L193.299999,73.0000025 L196.959999,73.0000025 L196.959999,31.0000025 L192.579999,31.0000025 L192.579999,65.0800005 L165.520001,31.0000025 L161.860001,31.0000025 L161.860001,73.0000025 L166.300001,73.0000025 Z M210.232498,73.0000025 L223.732497,54.5200011 L237.292496,73.0000025 L242.452496,73.0000025 L226.432497,51.2800013 L241.312496,31.0000025 L236.512496,31.0000025 L223.912497,48.1600015 L211.252498,31.0000025 L206.152498,31.0000025 L221.092497,51.4000013 L205.132498,73.0000025 L210.232498,73.0000025 Z" id="JINX" fill="#1F1F20" fill-rule="nonzero"></path>
    </g>
</svg>