<?xml version="1.0" encoding="UTF-8"?>
<svg width="270px" height="102px" viewBox="0 0 270 102" version="1.1" xmlns="http://www.w3.org/2000/svg" xmlns:xlink="http://www.w3.org/1999/xlink">
    <!-- Generator: Sketch 64 (93537) - https://sketch.com -->
    <title>leadr</title>
    <desc>Created with Sketch.</desc>
    <g id="leadr" stroke="none" stroke-width="1" fill="none" fill-rule="evenodd">
        <g id="inshort_logo"></g>
        <g id="Group" transform="translate(3.000000, 11.000000)" fill="#1F1F20">
            <path d="M11.367596,39.4069239 C17.5241852,39.4069239 22.5150869,44.3978255 22.5150869,50.5544148 L22.5150869,67.360177 C22.5150869,73.5775465 17.474913,78.6177204 11.2575434,78.6177204 C5.04017387,78.6177204 -9.16091475e-14,73.5775465 -9.23705556e-14,67.360177 L-9.23705556e-14,50.5544148 C-9.13481635e-14,44.3978255 4.99090167,39.4069239 11.1474909,39.4069239 L11.367596,39.4069239 Z M65.0878032,52.7385947 C71.2443924,52.7385947 76.2352941,57.7294964 76.2352941,63.8860856 L76.2352941,67.360177 C76.2352941,73.5775465 71.1951202,78.6177204 64.9777507,78.6177204 C58.7603811,78.6177204 53.7202073,73.5775465 53.7202073,67.360177 L53.7202073,63.8860856 C53.7202073,57.7294964 58.7111089,52.7385947 64.8676981,52.7385947 L65.0878032,52.7385947 Z M38.2276996,26.859469 C44.3842888,26.859469 49.3751905,31.8503706 49.3751905,38.0069599 L49.3751905,67.360177 C49.3751905,73.5775465 44.3350166,78.6177204 38.1176471,78.6177204 C31.9002775,78.6177204 26.8601036,73.5775465 26.8601036,67.360177 L26.8601036,38.0069599 C26.8601036,31.8503706 31.8510053,26.859469 38.0075945,26.859469 L38.2276996,26.859469 Z M64.9777507,26.467361 C71.1951202,26.467361 76.2352941,31.4706134 76.2352941,37.642438 C76.2352941,43.8142626 71.1951202,48.817515 64.9777507,48.817515 C58.7603811,48.817515 53.7202073,43.8142626 53.7202073,37.642438 C53.7202073,31.4706134 58.7603811,26.467361 64.9777507,26.467361 Z M11.2283788,13.1356902 C17.4296412,13.1356902 22.4567576,18.1389426 22.4567576,24.3107672 C22.4567576,30.4825918 17.4296412,35.4858442 11.2283788,35.4858442 C5.02711643,35.4858442 -9.23705556e-14,30.4825918 -9.23705556e-14,24.3107672 C-9.23705556e-14,18.1389426 5.02711643,13.1356902 11.2283788,13.1356902 Z M38.1176471,0.588235294 C44.3350166,0.588235294 49.3751905,5.5914877 49.3751905,11.7633123 C49.3751905,17.9351369 44.3350166,22.9383893 38.1176471,22.9383893 C31.9002775,22.9383893 26.8601036,17.9351369 26.8601036,11.7633123 C26.8601036,5.5914877 31.9002775,0.588235294 38.1176471,0.588235294 Z" id="Combined-Shape"></path>
            <path d="M109.219806,65 L109.219806,58.2429074 L106.750208,58.2429074 C104.96661,58.2429074 104.074811,57.4311416 104.074811,55.80761 L104.074811,14.9906544 L96.906119,14.9906544 L96.906119,56.3564094 C96.906119,59.4891393 97.797918,61.7186369 99.581516,63.0449021 C101.273648,64.3483007 103.423112,65 106.029909,65 L109.219806,65 Z M129.079484,65.4115996 C133.995812,65.4573328 138.271874,63.5365349 141.90767,59.6492058 L136.728376,55.2245106 C134.441711,57.5340415 131.846348,58.6888069 128.942284,58.6888069 C126.44982,58.6888069 124.437556,57.9342077 122.905491,56.4250093 C121.259092,54.9386776 120.435893,52.7663467 120.435893,49.9080164 L142.627969,49.9080164 L142.627969,44.0084229 C142.582236,39.3207613 141.130204,35.639232 138.271874,32.9638349 C135.459277,30.3341711 132.017847,28.9964725 127.947585,28.9507392 C126.255454,28.9507392 124.540456,29.2594389 122.802591,29.8768382 C121.041859,30.4942376 119.452628,31.5003698 118.034896,32.8952349 C116.640031,34.2672335 115.496699,36.1422981 114.6049,38.5204288 C113.713101,40.8528263 113.267201,43.7797564 113.267201,47.3012193 C113.267201,50.959882 113.781701,53.9325454 114.810699,56.2192096 C115.748232,58.5973403 116.971597,60.4495383 118.480795,61.7758035 C119.258261,62.4160695 120.092894,62.9534356 120.984693,63.3879018 C121.830758,63.8909679 122.699691,64.2911341 123.59149,64.5884004 C125.375088,65.1371999 127.204419,65.4115996 129.079484,65.4115996 Z M135.459277,44.0084229 L120.435893,44.0084229 C120.573093,41.2415592 121.316259,39.1492615 122.665391,37.7315297 C124.037389,36.3823978 125.798121,35.7078319 127.947585,35.7078319 C130.097049,35.7078319 131.857781,36.3823978 133.229779,37.7315297 C134.624645,39.1492615 135.36781,41.2415592 135.459277,44.0084229 Z M159.91515,65.4115996 C162.339014,65.4115996 164.236946,65.1143332 165.608944,64.5198005 C167.003809,63.9481345 168.032808,63.0563354 168.695941,61.8444034 L168.833141,61.8444034 L168.833141,65 L176.001833,65 L176.001833,40.6813265 C175.9561,36.3366645 174.595534,33.2725345 171.920137,31.4889365 C169.24474,29.7510717 165.666111,28.905006 161.184249,28.9507392 C155.879188,28.8592727 151.866092,30.5971375 149.144962,34.1643336 L154.770156,38.4518289 C155.387555,37.42283 156.233621,36.6910975 157.308353,36.2566313 C158.337352,35.890765 159.743651,35.7078319 161.527249,35.7078319 C166.443577,35.6163653 168.878874,37.136997 168.833141,40.2697269 L168.833141,44.0084229 L158.920451,44.0084229 C155.124589,44.0541561 152.243392,45.083155 150.276861,47.0954195 C148.31033,49.0619507 147.327064,51.5429813 147.327064,54.5385114 C147.327064,57.6712413 148.458963,60.2437385 150.72276,62.256003 C152.872225,64.3140007 155.936355,65.3658663 159.91515,65.4115996 Z M160.806949,58.6888069 C158.428819,58.6888069 156.725254,58.2200407 155.696255,57.2825084 C154.621523,56.4364427 154.084157,55.4074438 154.084157,54.1955118 C154.038423,51.4286481 156.096421,49.999483 160.25815,49.9080164 L168.833141,49.9080164 L168.833141,52.4805136 C168.833141,55.1559107 168.272908,56.8709088 167.152442,57.625508 C165.917644,58.3801072 163.802479,58.7345402 160.806949,58.6888069 Z M197.33641,65.4115996 C201.132272,65.320133 204.207835,63.9367012 206.5631,61.2613041 L206.5631,65 L213.731792,65 L213.731792,14.9906544 L206.5631,14.9906544 L206.5631,33.1696347 C205.236834,31.9119694 203.853403,30.8829705 202.412804,30.082638 C200.857872,29.3280388 199.165741,28.9507392 197.33641,28.9507392 C192.991748,29.0650725 189.813284,30.6200041 187.80102,33.6155342 C186.817754,34.7359996 186.166055,36.210898 185.845922,38.0402293 C185.457189,39.846694 185.262823,42.8879574 185.262823,47.1640194 C185.262823,51.3714815 185.457189,54.3898782 185.845922,56.2192096 C186.166055,58.1400075 186.817754,59.6606391 187.80102,60.7811046 C188.875752,62.1531031 190.213451,63.2507019 191.814116,64.073901 C193.346181,64.9199668 195.186945,65.3658663 197.33641,65.4115996 Z M199.531607,58.2429074 C197.839476,58.2429074 196.54751,57.9227744 195.655711,57.2825084 C194.672446,56.6193758 193.952147,55.77331 193.494814,54.7443112 C193.060348,53.669579 192.774515,52.457647 192.637315,51.1085151 C192.500115,49.8279832 192.431515,48.5131513 192.431515,47.1640194 C192.431515,45.7462876 192.500115,44.3628558 192.637315,43.0137239 C192.774515,41.7560586 193.060348,40.5898599 193.494814,39.5151277 C193.952147,38.4403956 194.672446,37.5943298 195.655711,36.9769305 C196.54751,36.4052645 197.839476,36.1194314 199.531607,36.1194314 C201.223739,36.1194314 202.561437,36.4509977 203.544703,37.1141304 C204.527968,37.777263 205.202534,38.6461954 205.568401,39.7209275 C206.025733,40.7956597 206.334433,41.9618584 206.4945,43.2195237 C206.540233,44.477189 206.5631,45.7920209 206.5631,47.1640194 C206.5631,48.4216847 206.540233,49.7022167 206.4945,51.0056152 C206.334433,52.3318805 206.025733,53.5323792 205.568401,54.6071113 C205.202534,55.6818435 204.527968,56.5507759 203.544703,57.2139085 C202.561437,57.8999077 201.223739,58.2429074 199.531607,58.2429074 Z M228.892375,65 L228.892375,43.5625233 C228.938109,40.9557262 229.692708,39.0692282 231.156173,37.9030295 C232.459571,36.7139641 234.025936,36.1194314 235.855268,36.1194314 C237.478799,36.1194314 239.045164,36.7139641 240.554363,37.9030295 L245.767957,31.6947363 C243.641359,29.9111382 241.148895,28.9964725 238.290565,28.9507392 C234.471836,28.9507392 231.384839,30.3570377 229.029575,33.1696347 L228.892375,33.1696347 L228.892375,29.3966388 L221.723683,29.3966388 L221.723683,65 L228.892375,65 Z" id="leadr" fill-rule="nonzero"></path>
        </g>
    </g>
</svg>