<?xml version="1.0" encoding="UTF-8"?>
<svg width="270px" height="102px" viewBox="0 0 270 102" version="1.1" xmlns="http://www.w3.org/2000/svg" xmlns:xlink="http://www.w3.org/1999/xlink">
    <!-- Generator: Sketch 64 (93537) - https://sketch.com -->
    <title>linemogul</title>
    <desc>Created with Sketch.</desc>
    <g id="linemogul" stroke="none" stroke-width="1" fill="none" fill-rule="evenodd">
        <g id="Group" transform="translate(0.000000, 11.000000)" fill="#1F1F20" fill-rule="nonzero">
            <g id="Group-8">
                <path d="M87.3601696,0.555399991 C91.7426242,0.555399991 95.2959357,4.10607214 95.2959357,8.48651187 C95.2959357,11.4990188 93.6113752,14.1117424 91.1365251,15.4541636 L90.8945864,15.5800806 L90.8945864,71.3783407 L106.099247,79.8665188 L68.3543433,79.8665188 L83.2922559,71.3794515 L83.2927119,19.3545434 C76.5032003,29.2675831 65.1952556,35.4280699 52.7940176,35.4280699 C40.5375624,35.4280699 29.3523104,29.4101608 22.5402932,19.7083676 L22.5402987,71.3783407 L37.7449598,79.8665188 L5.55725898e-05,79.8665188 L14.9379682,71.3794515 L14.9379682,15.2873848 C12.6239255,13.9016618 11.0701158,11.3784796 11.0701158,8.48651187 C11.0701158,4.10607214 14.6228716,0.555399991 19.0058819,0.555399991 C23.3883365,0.555399991 26.941648,4.10607214 26.941648,8.48651187 C26.941648,11.3980713 25.3680934,13.9361916 23.0283342,15.3149657 C29.0367905,25.922867 40.3143804,32.6644133 52.7940176,32.6644133 C65.4148776,32.6644133 76.8099421,25.7700331 82.7667787,14.9426909 C80.7452503,13.5057626 79.4244035,11.152884 79.4244035,8.48651187 C79.4244035,4.10607214 82.9771593,0.555399991 87.3601696,0.555399991 Z M22.0068019,73.4683109 L15.3380909,73.4683109 L8.00250876,77.7337828 L29.4757582,77.7337828 L22.0068019,73.4683109 Z M90.3610895,73.4683109 L83.6923785,73.4683109 L76.3567964,77.7337828 L97.8300458,77.7337828 L90.3610895,73.4683109 Z M223.877195,44.4531976 L223.877195,60.4926337 C223.877195,63.7378317 225.891445,66.7010993 230.013882,66.7010993 C234.138594,66.7010993 236.021614,63.9106193 236.101535,60.7068074 L236.104197,60.4926337 L236.104197,44.4531976 L242.89724,44.4531976 L242.89724,60.4926337 C242.89724,67.7832319 238.072075,73.2862719 230.013882,73.2862719 C222.211335,73.2862719 217.23005,67.9415845 217.087303,60.8084785 L217.084151,60.4926337 L217.084151,44.4531976 L223.877195,44.4531976 Z M199.893459,43.8413488 C207.071398,43.8413488 210.246807,47.1171797 210.468255,47.3554219 L210.480761,47.369077 L206.451665,52.5433982 C206.451665,52.5433982 203.781653,50.3797329 199.799524,50.3797329 C195.254975,50.3797329 191.882234,53.6723192 191.882234,58.5641103 C191.882234,63.4559014 195.254975,66.7478878 199.799524,66.7478878 C203.732109,66.7478878 205.8353,64.4173627 206.020053,61.7244395 L206.030147,61.5267781 L206.030147,61.2454476 L199.19073,61.2454476 L199.19073,55.8827729 L213.338643,55.8827729 L213.338643,59.0343941 C213.338643,67.2655598 208.888029,73.2862719 199.893459,73.2862719 C190.523744,73.2862719 184.854948,66.6537111 184.854948,58.5641103 C184.854948,50.4739097 190.523744,43.8413488 199.893459,43.8413488 Z M166.961527,43.8413488 C176.378209,43.8413488 182.047006,50.4739097 182.047006,58.5641103 C182.047006,66.6537111 176.378209,73.2862719 166.961527,73.2862719 C157.638779,73.2862719 151.970578,66.6537111 151.970578,58.5641103 C151.970578,50.4739097 157.638779,43.8413488 166.961527,43.8413488 Z M255.450042,44.4531976 L255.450042,66.7952761 L269.738263,66.7952761 L269.738263,72.6744231 L248.656999,72.6744231 L248.656999,44.4531976 L255.450042,44.4531976 Z M119.929838,44.4531976 L132.718667,56.5414102 L145.69596,44.4531976 L147.475968,44.4531976 L147.475968,72.6744231 L140.730487,72.6744231 L140.730487,57.8580848 L133.42199,65.0551061 L132.250776,65.0551061 L124.848939,57.8112963 L124.848939,72.6744231 L118.102268,72.6744231 L118.102268,44.4531976 L119.929838,44.4531976 Z M20.4063112,16.9508077 L17.0719557,16.9508077 L17.0719557,71.3039171 L20.4063112,71.3039171 L20.4063112,16.9508077 Z M88.7605989,16.9508077 L85.4262434,16.9508077 L85.4262434,71.3039171 L88.7605989,71.3039171 L88.7605989,16.9508077 Z M166.961527,50.4271212 C162.510912,50.4271212 158.997864,53.6723192 158.997864,58.5641103 C158.997864,63.4559014 162.510912,66.7010993 166.961527,66.7010993 C171.506077,66.7010993 175.01972,63.4559014 175.01972,58.5641103 C175.01972,53.6723192 171.506077,50.4271212 166.961527,50.4271212 Z M157.715746,6.71180538 L175.892755,21.6691089 L175.892755,6.75919367 L182.638831,6.75919367 L182.638831,34.9330309 L181.093066,34.9330309 L162.916057,19.3638786 L162.916057,34.9330309 L156.169981,34.9330309 L156.169981,6.71180538 L157.715746,6.71180538 Z M149.987515,6.71120553 L149.987515,34.9330309 L143.194472,34.9330309 L143.194472,6.71120553 L149.987515,6.71120553 Z M125.253489,6.71180538 L125.253489,29.0538839 L139.54171,29.0538839 L139.54171,34.9330309 L118.460445,34.9330309 L118.460445,6.71180538 L125.253489,6.71180538 Z M212.387082,28.9573077 L212.387082,34.7608735 L189.987161,34.7608735 L189.987161,28.9573077 L212.387082,28.9573077 Z M208.774747,17.3495764 L208.774747,23.153742 L189.987755,23.153742 L189.987755,17.3495764 L208.774747,17.3495764 Z M19.0058819,2.68813596 C15.8015663,2.68813596 13.2041033,5.28407552 13.2041033,8.48651187 C13.2041033,11.6889482 15.8015663,14.2848878 19.0058819,14.2848878 C22.2101975,14.2848878 24.8076605,11.6889482 24.8076605,8.48651187 C24.8076605,5.28407552 22.2101975,2.68813596 19.0058819,2.68813596 Z M87.3601696,2.68813596 C84.155854,2.68813596 81.558391,5.28407552 81.558391,8.48651187 C81.558391,11.6889482 84.155854,14.2848878 87.3601696,14.2848878 C90.5644852,14.2848878 93.1619482,11.6889482 93.1619482,8.48651187 C93.1619482,5.28407552 90.5644852,2.68813596 87.3601696,2.68813596 Z M212.387082,6.46706587 L212.387082,12.2712315 L189.987161,12.2712315 L189.987161,6.46706587 L212.387082,6.46706587 Z" id="Combined-Shape"></path>
            </g>
        </g>
    </g>
</svg>