<?xml version="1.0" encoding="UTF-8"?>
<svg width="270px" height="102px" viewBox="0 0 270 102" version="1.1" xmlns="http://www.w3.org/2000/svg" xmlns:xlink="http://www.w3.org/1999/xlink">
    <!-- Generator: Sketch 64 (93537) - https://sketch.com -->
    <title>motor</title>
    <desc>Created with Sketch.</desc>
    <g id="motor" stroke="none" stroke-width="1" fill="none" fill-rule="evenodd">
        <g id="Group" transform="translate(0.000000, 8.000000)" fill="#1F1F20">
            <path d="M88.9176539,80.1203086 C85.9273593,80.1203086 83.5032856,77.6640327 83.5032856,74.634733 C83.5032856,71.6051114 85.9273593,69.1491574 88.9176539,69.1491574 C91.9079485,69.1491574 94.3320221,71.6051114 94.3320221,74.634733 C94.3320221,77.6640327 91.9079485,80.1203086 88.9176539,80.1203086 M44.0775334,80.1203086 C41.0872388,80.1203086 38.6631651,77.6640327 38.6631651,74.634733 C38.6631651,71.6051114 41.0872388,69.1491574 44.0775334,69.1491574 C47.067828,69.1491574 49.4919017,71.6051114 49.4919017,74.634733 C49.4919017,77.6640327 47.067828,80.1203086 44.0775334,80.1203086 M114.388062,63.6635818 L107.067226,57.173605 C105.2367,55.5047538 103.101774,55.6283724 103.101774,55.6283724 L91.5104499,55.6283724 L78.0889173,44.8114225 C76.4417292,43.4519398 74.1234644,43.5752365 74.1234644,43.5752365 L47.8904688,43.5752365 C45.4501901,43.5752365 43.925016,45.120469 43.925016,45.120469 L36.9092148,51.3013993 C36.2991451,52.2285388 35.6890755,51.3013993 35.6890755,51.3013993 L29.5883788,23.3330118 L103.711843,23.3330118 L97.9158637,42.0303258 C97.2298531,44.6572212 95.4759028,45.120469 95.4759028,45.120469 L90.2899929,47.9022096 L95.4759028,51.9194923 C101.118729,50.2200584 103.406808,45.4295155 103.406808,45.4295155 L109.81254,23.3330118 C110.727644,17.2035892 104.62663,17.461128 104.62663,17.461128 L28.3682395,17.461128 L25.622926,5.7173605 C23.9960735,0.309046513 18.30209,0 18.30209,0 L0,0 L0,5.7173605 L11.5913237,5.7173605 L15.8618113,5.7173605 C20.0306207,5.7173605 20.4373338,9.88948843 20.4373338,9.88948843 L30.5034833,54.7012329 C32.4353706,60.2637482 38.434389,57.4826515 38.434389,57.4826515 L46.6703295,50.3745817 C47.585434,49.1383956 48.8055733,49.4474421 48.8055733,49.4474421 L72.5982903,49.4474421 C75.3436038,49.4474421 75.6486386,50.3745817 75.6486386,50.3745817 L88.7651364,60.5727947 C90.7478629,61.8093027 91.2054151,61.3457329 91.2054151,61.3457329 L100.661495,61.3457329 C103.178032,61.3457329 104.016878,62.1183492 104.016878,62.1183492 L109.81254,67.371818 L109.81254,71.6987911 L99.3511161,71.6987911 C98.0836328,67.0656688 93.8938523,63.6635818 88.9176539,63.6635818 C83.9411377,63.6635818 79.7516749,67.0656688 78.4841916,71.6987911 L54.5109957,71.6987911 C53.2435124,67.0656688 49.0540496,63.6635818 44.0775334,63.6635818 C38.0969442,63.6635818 33.2487968,68.5754898 33.2487968,74.634733 C33.2487968,80.6936543 38.0969442,85.6058842 44.0775334,85.6058842 C49.1639892,85.6058842 53.429393,82.0518493 54.591385,77.2616283 L78.4034845,77.2616283 C79.5654765,82.0518493 83.8308803,85.6058842 88.9176539,85.6058842 C94.0041097,85.6058842 98.2695134,82.0518493 99.4315055,77.2616283 L109.81254,77.2616283 C114.693097,76.5195948 115.303167,72.9349772 115.303167,72.9349772 L115.303167,65.8269074 C115.363856,64.4052934 114.388062,63.6635818 114.388062,63.6635818" id="Fill-1"></path>
            <path d="M139.774962,56.8588238 L140.121064,34.8236684 L144.774212,56.8588238 L148.177548,56.8588238 L152.773012,34.9005799 L153.15757,56.8588238 L157.541527,56.8588238 L157.003147,24.9789916 L151.177098,24.9789916 L146.42781,47.3794769 L141.813118,24.9789916 L135.852474,24.9789916 L135.333321,56.8588238 L139.774962,56.8588238 Z M172.330517,57.2433815 C173.996934,57.2433815 175.426207,57.0062376 176.618335,56.5319498 C177.810464,56.057662 178.762244,55.3558442 179.473676,54.4264965 C180.185108,53.4971487 180.704261,52.4011593 181.031135,51.1385282 C181.358009,49.8758972 181.521446,48.4113733 181.521446,46.7449567 L181.521446,46.7449567 L181.521446,34.9774915 C181.521446,31.5805652 180.80681,29.0040287 179.377537,27.247882 C177.948264,25.4917352 175.599258,24.6136618 172.330517,24.6136618 C170.651282,24.6136618 169.2156,24.8411918 168.023471,25.2962517 C166.831342,25.7513117 165.879562,26.4339015 165.16813,27.3440214 C164.456699,28.2541413 163.94075,29.3309028 163.620286,30.574306 C163.299821,31.8177092 163.139588,33.2854377 163.139588,34.9774915 L163.139588,34.9774915 L163.139588,46.7449567 C163.139588,50.1803387 163.85102,52.7889217 165.273884,54.5707056 C166.696747,56.3524895 169.048958,57.2433815 172.330517,57.2433815 Z M172.330517,52.9363354 C171.766499,52.9363354 171.279393,52.8530146 170.869198,52.6863729 C170.471822,52.5197313 170.157766,52.3018152 169.927032,52.0326249 C169.696297,51.7634345 169.513632,51.4109233 169.379037,50.9750912 C169.244442,50.5392592 169.154712,50.1034271 169.109847,49.6675951 C169.064981,49.2317631 169.042549,48.7126102 169.042549,48.1101365 L169.042549,48.1101365 L169.042549,33.6315396 C169.042549,32.8624242 169.081005,32.2214947 169.157916,31.7087511 C169.234828,31.1960076 169.382242,30.7121058 169.600158,30.2570459 C169.818074,29.8019859 170.154562,29.4622933 170.609622,29.237968 C171.064681,29.0136427 171.638313,28.90148 172.330517,28.90148 C173.022721,28.90148 173.593148,29.0136427 174.041799,29.237968 C174.49045,29.4622933 174.826937,29.8019859 175.051263,30.2570459 C175.275588,30.7121058 175.426207,31.1960076 175.503118,31.7087511 C175.58003,32.2214947 175.618485,32.8624242 175.618485,33.6315396 L175.618485,33.6315396 L175.618485,48.1101365 C175.618485,48.7126102 175.596053,49.2317631 175.551188,49.6675951 C175.506323,50.1034271 175.416593,50.5392592 175.281997,50.9750912 C175.147402,51.4109233 174.961533,51.7634345 174.724389,52.0326249 C174.487245,52.3018152 174.169985,52.5197313 173.772609,52.6863729 C173.375232,52.8530146 172.894535,52.9363354 172.330517,52.9363354 Z M196.098929,56.8588238 L196.098929,29.2668098 L201.27123,29.2668098 L201.27123,24.9789916 L184.946756,24.9789916 L184.946756,29.2668098 L190.292108,29.2668098 L190.292108,56.8588238 L196.098929,56.8588238 Z M213.887469,57.2433815 C215.553886,57.2433815 216.983158,57.0062376 218.175287,56.5319498 C219.367416,56.057662 220.319196,55.3558442 221.030628,54.4264965 C221.74206,53.4971487 222.261212,52.4011593 222.588087,51.1385282 C222.914961,49.8758972 223.078398,48.4113733 223.078398,46.7449567 L223.078398,46.7449567 L223.078398,34.9774915 C223.078398,31.5805652 222.363761,29.0040287 220.934488,27.247882 C219.505216,25.4917352 217.156209,24.6136618 213.887469,24.6136618 C212.208234,24.6136618 210.772552,24.8411918 209.580423,25.2962517 C208.388294,25.7513117 207.436514,26.4339015 206.725082,27.3440214 C206.01365,28.2541413 205.497702,29.3309028 205.177237,30.574306 C204.856773,31.8177092 204.69654,33.2854377 204.69654,34.9774915 L204.69654,34.9774915 L204.69654,46.7449567 C204.69654,50.1803387 205.407972,52.7889217 206.830835,54.5707056 C208.253699,56.3524895 210.60591,57.2433815 213.887469,57.2433815 Z M213.887469,52.9363354 C213.323451,52.9363354 212.836345,52.8530146 212.42615,52.6863729 C212.028773,52.5197313 211.714718,52.3018152 211.483983,52.0326249 C211.253249,51.7634345 211.070584,51.4109233 210.935989,50.9750912 C210.801393,50.5392592 210.711663,50.1034271 210.666798,49.6675951 C210.621933,49.2317631 210.599501,48.7126102 210.599501,48.1101365 L210.599501,48.1101365 L210.599501,33.6315396 C210.599501,32.8624242 210.637956,32.2214947 210.714868,31.7087511 C210.79178,31.1960076 210.939193,30.7121058 211.157109,30.2570459 C211.375025,29.8019859 211.711513,29.4622933 212.166573,29.237968 C212.621633,29.0136427 213.195265,28.90148 213.887469,28.90148 C214.579673,28.90148 215.1501,29.0136427 215.598751,29.237968 C216.047401,29.4622933 216.383889,29.8019859 216.608215,30.2570459 C216.83254,30.7121058 216.983158,31.1960076 217.06007,31.7087511 C217.136981,32.2214947 217.175437,32.8624242 217.175437,33.6315396 L217.175437,33.6315396 L217.175437,48.1101365 C217.175437,48.7126102 217.153005,49.2317631 217.108139,49.6675951 C217.063274,50.1034271 216.973544,50.5392592 216.838949,50.9750912 C216.704354,51.4109233 216.518484,51.7634345 216.28134,52.0326249 C216.044197,52.3018152 215.726936,52.5197313 215.32956,52.6863729 C214.932184,52.8530146 214.451487,52.9363354 213.887469,52.9363354 Z M234.540963,56.8588238 L234.540963,42.3033154 L237.1175,42.3033154 L240.924621,56.8588238 L246.75067,56.8588238 L242.328257,41.1496423 C243.699846,40.5728058 244.683672,39.6498674 245.279737,38.380827 C245.875801,37.1117866 246.173833,35.4774165 246.173833,33.4777165 C246.173833,31.8753928 245.952713,30.519827 245.510471,29.411019 C245.06823,28.302211 244.401663,27.4241376 243.510772,26.7767988 C242.61988,26.12946 241.57196,25.6679908 240.367012,25.3923911 C239.162065,25.1167915 237.719974,24.9789916 236.040738,24.9789916 L236.040738,24.9789916 L228.734142,24.9789916 L228.734142,56.8588238 L234.540963,56.8588238 Z M235.944599,38.5923337 L234.540963,38.5923337 L234.540963,28.9783916 L236.290701,28.9783916 C237.969936,28.9783916 239.123609,29.346926 239.75172,30.0839949 C240.379831,30.8210638 240.693886,32.0420345 240.693886,33.7469069 C240.693886,35.5158722 240.331761,36.7656847 239.607511,37.4963443 C238.883261,38.2270039 237.66229,38.5923337 235.944599,38.5923337 L235.944599,38.5923337 Z" id="MOTOR" fill-rule="nonzero"></path>
        </g>
    </g>
</svg>