<?xml version="1.0" encoding="UTF-8"?>
<svg width="270px" height="102px" viewBox="0 0 270 102" version="1.1" xmlns="http://www.w3.org/2000/svg" xmlns:xlink="http://www.w3.org/1999/xlink">
    <!-- Generator: Sketch 64 (93537) - https://sketch.com -->
    <title>myhrmanager</title>
    <desc>Created with Sketch.</desc>
    <g id="myhrmanager" stroke="none" stroke-width="1" fill="none" fill-rule="evenodd">
        <g id="Logo" transform="translate(3.000000, 6.000000)" fill="#1F1F20">
            <g id="Group-6">
                <g id="Group-4" transform="translate(0.780090, 0.000000)">
                    <g id="Group-27">
                        <path d="M219.841173,-8.9384395e-05 L219.841173,61.675149 L1.13686838e-12,61.675149 L1.13686838e-12,16.3393796 C1.13686838e-12,7.31602403 9.1328942,-8.9384395e-05 20.3994753,-8.9384395e-05 L219.841173,-8.9384395e-05 Z M20.8108596,12.3949352 L14.5048892,12.3949352 C14.1729023,15.004066 13.8604964,17.8482777 13.5676715,20.9275704 C13.2730666,24.0068631 13.006943,27.1862663 12.769301,30.4648862 C12.5298788,33.7444 12.3091476,37.0507291 12.1079974,40.3829796 C11.905067,43.7170179 11.7315082,46.9411133 11.5846508,50.0570536 L11.5846508,50.0570536 L18.2947018,50.0570536 C18.4415592,45.6727486 18.6151181,41.1633055 18.8180484,36.5242549 C19.0191986,31.8878859 19.3235941,27.394532 19.7285646,23.0468746 C20.1246348,23.8441835 20.5945787,24.8318811 21.1348361,26.0081799 C21.6768737,27.1862663 22.2527329,28.4456925 22.8677542,29.7855647 C23.4801053,31.1263308 24.1022469,32.5225152 24.734179,33.9705425 C25.3643311,35.4203575 25.9793523,36.8236927 26.5747926,38.1823356 C27.1693428,39.5409785 27.7193907,40.8182817 28.2240464,42.014245 C28.728702,43.2093144 29.1621541,44.2238274 29.5235124,45.0568901 L29.5235124,45.0568901 L34.6101209,45.0568901 C34.9696992,44.2238274 35.4040413,43.2182529 35.9086969,42.0410603 C36.4133526,40.8638677 36.9634005,39.595503 37.5588408,38.2368601 C38.1542811,36.8782172 38.7675222,35.4739882 39.3994544,34.0241732 C40.0304964,32.5761458 40.652638,31.1719168 41.2658792,29.8123801 C41.8791204,28.454631 42.4567597,27.1960986 42.9979072,26.035889 C43.5390547,24.8765733 44.0072185,23.8808311 44.4050687,23.0468746 C44.8091493,27.394532 45.1126547,31.8878859 45.314695,36.5242549 C45.5167352,41.1633055 45.6920742,45.6727486 45.8389316,50.0570536 L45.8389316,50.0570536 L52.5489826,50.0570536 C52.4021252,46.9411133 52.2276763,43.7438332 52.024746,40.4643194 C51.8235958,37.1856995 51.6028646,33.9258503 51.3634424,30.6820903 C51.1258003,27.440118 50.8596768,24.2696532 50.5659619,21.1715898 C50.2713569,18.0744202 49.958951,15.1488687 49.6287442,12.3949352 L49.6287442,12.3949352 L43.485652,12.3949352 C42.6908416,13.7723489 41.8079168,15.4572449 40.8333172,17.4487294 C39.8587177,19.4420016 38.8663173,21.5344905 37.857006,23.726196 C36.8468046,25.9187955 35.8544042,28.1471486 34.8806947,30.4103617 C33.9069852,32.6753625 33.0044793,34.7678514 32.1749572,36.6878284 C31.344545,34.7678514 30.4340287,32.6753625 29.4416283,30.4103617 C28.4492278,28.1471486 27.447927,25.9187955 26.4386157,23.726196 C25.4275243,21.5344905 24.4360139,19.4420016 23.4623044,17.4487294 C22.4885949,15.4572449 21.6038899,13.7723489 20.8108596,12.3949352 L20.8108596,12.3949352 Z M64.7788272,12.3950246 L56.7702002,12.3950246 C58.7897128,16.2358724 60.90001,20.0579495 63.1010919,23.8621497 C65.3012837,27.6663499 67.6465529,31.5071977 70.1360094,35.3837993 L70.1360094,35.3837993 L70.1360094,50.057143 L76.954646,50.057143 L76.954646,35.2747503 C79.4441025,31.4347964 81.7786911,27.6207639 83.9619721,23.8353344 C86.1452531,20.0490111 88.2457598,16.2358724 90.2661625,12.3950246 L90.2661625,12.3950246 L82.6909875,12.3950246 C81.4280133,15.2213594 80.0208518,18.0298174 78.470393,20.8186108 C76.9181541,23.6091919 75.3312035,26.3622315 73.707761,29.0795173 L73.707761,29.0795173 L72.7205441,27.4448411 C71.4158945,25.259514 70.1577265,23.0510756 68.9451289,20.8186108 C67.4302719,18.0298174 66.0418014,15.2213594 64.7788272,12.3950246 L64.7788272,12.3950246 Z M150.884206,12.3949352 L144.06646,12.3949352 L144.06646,50.0570536 L150.884206,50.0570536 L150.884206,33.3725609 L167.172924,33.3725609 L167.172924,50.0570536 L173.991561,50.0570536 L173.991561,12.3949352 L167.172924,12.3949352 L167.172924,27.4490564 L150.884206,27.4490564 L150.884206,12.3949352 Z M194.392198,12.0143364 C192.912943,12.0143364 191.235208,12.0777994 189.359883,12.2047252 C187.482777,12.3325449 185.715147,12.5765643 184.056993,12.9385712 L184.056993,12.9385712 L184.056993,50.0572324 L190.87474,50.0572324 L190.87474,35.8182969 L195.20392,35.8182969 C195.564388,35.8182969 195.99784,35.80042 196.502496,35.7637724 C197.18783,36.6334827 197.927458,37.6211803 198.721378,38.7259715 C199.514409,39.8307628 200.31812,41.0088492 201.128951,42.2584432 C201.941562,43.5080371 202.744383,44.7951725 203.538303,46.116274 C204.331333,47.440057 205.070961,48.7531139 205.757186,50.0572324 L205.757186,50.0572324 L213.386654,50.0572324 C212.736921,48.6440649 211.997293,47.2031884 211.168661,45.7363903 C210.337359,44.2686984 209.472235,42.8376541 208.570619,41.4432574 C207.668113,40.0488607 206.785188,38.7527869 205.918284,37.5568235 C205.05316,36.3617541 204.277041,35.3481349 203.591706,34.5141785 C208.606221,32.7032504 211.113478,29.2422863 211.113478,24.1339677 C211.113478,20.040162 209.679615,16.9966231 206.81189,15.0042447 C203.944164,13.0109725 199.803673,12.0143364 194.392198,12.0143364 Z M110.946072,37.9344329 L103.163476,37.9344329 C102.787513,37.9344329 102.478787,38.2437938 102.478787,38.6223391 C102.478787,44.4422617 107.179161,49.1614219 112.977167,49.1614219 C118.775733,49.1614219 123.475547,44.4422617 123.475547,38.6223391 L123.475547,38.6223391 C123.475547,38.2370442 123.161218,37.9344329 122.784695,37.9344329 L122.784695,37.9344329 L115.008262,37.9344329 C114.8934,38.9643235 114.033897,39.767537 112.977167,39.767537 C111.920998,39.767537 111.060934,38.9643235 110.946072,37.9344329 L110.946072,37.9344329 Z M97.9499212,34.8548856 C96.2040199,34.8548856 94.7898174,36.2756959 94.7898174,38.0272412 C94.7898174,39.7787865 96.2040199,48.4735157 97.9499212,48.4735157 C99.6947019,48.4735157 101.109465,39.7787865 101.109465,38.0272412 C101.109465,36.2756959 99.6947019,34.8548856 97.9499212,34.8548856 Z M133.664753,27.0070179 C132.270721,25.9529408 125.930343,32.0439761 124.880337,33.4428499 C123.830331,34.8422862 124.109361,36.8311956 125.502832,37.8847102 C126.897424,38.9387872 128.878652,38.658675 129.928098,37.2598011 C130.978104,35.8603648 135.058784,28.0610949 133.664753,27.0070179 Z M112.977111,12.9607385 C111.968567,12.9607385 111.151087,13.7813886 111.151087,14.7938425 C111.151087,15.6480417 111.732982,16.3657119 112.520577,16.5691972 L112.520577,16.5691972 L112.520577,18.6889777 L106.761624,18.6889777 C104.396029,18.6889777 102.478675,20.6137651 102.478675,22.9879695 L102.478675,22.9879695 L102.478675,30.8856725 C102.478675,33.2604394 104.396029,35.1852268 106.761624,35.1852268 L106.761624,35.1852268 L119.193046,35.1852268 C121.558642,35.1852268 123.475996,33.2604394 123.475996,30.8856725 L123.475996,30.8856725 L123.475996,22.9879695 C123.475996,20.6137651 121.558642,18.6889777 119.193046,18.6889777 L119.193046,18.6889777 L113.433869,18.6889777 L113.433869,16.5691393 C114.22135,16.3655757 114.803136,15.6479607 114.803136,14.7938425 C114.803136,13.7813886 113.985655,12.9607385 112.977111,12.9607385 Z M194.879053,17.9387347 C196.214121,17.9387347 197.440603,18.0379514 198.55939,18.2372786 C199.677287,18.4374997 200.642986,18.7726912 201.454707,19.2428531 C202.266429,19.7139089 202.88857,20.3476444 203.321132,21.1449532 C203.754584,21.9422621 203.970865,22.9201275 203.970865,24.0794432 C203.970865,25.3111603 203.754584,26.3265671 203.321132,27.1220883 C202.88857,27.920291 202.247738,28.5549203 201.400415,29.0250822 C200.552201,29.496138 199.496608,29.8223911 198.235414,30.0029476 C196.971549,30.184398 195.510095,30.27557 193.851941,30.27557 L193.851941,30.27557 L190.87474,30.27557 L190.87474,18.1014143 C192.101222,17.9932592 193.43629,17.9387347 194.879053,17.9387347 Z M108.41261,25.103942 C109.421154,25.103942 110.238635,25.9245921 110.238635,26.937046 C110.238635,27.9494999 109.421154,28.7701501 108.41261,28.7701501 C107.404066,28.7701501 106.586586,27.9494999 106.586586,26.937046 C106.586586,25.9245921 107.404066,25.103942 108.41261,25.103942 Z M117.542116,25.103942 C118.5501,25.103942 119.367581,25.9245921 119.367581,26.937046 C119.367581,27.9494999 118.5501,28.7701501 117.542116,28.7701501 C116.533573,28.7701501 115.716092,27.9494999 115.716092,26.937046 C115.716092,25.9245921 116.533573,25.103942 117.542116,25.103942 Z" id="Combined-Shape"></path>
                    </g>
                </g>
                <g id="Group-2" transform="translate(0.000000, 70.803692)" fill-rule="nonzero">
                    <path d="M2.73552913,19.1999113 C2.84225853,16.3360056 2.96232911,13.6010647 3.09574086,10.9950884 C3.22915262,8.38911211 3.41148201,5.97435936 3.64272906,3.75083011 C3.78503493,3.99986539 4.00738785,4.426783 4.30978783,5.03158296 C4.61218781,5.63638291 4.95905837,6.33901815 5.35039951,7.13948868 C5.74174066,7.9399592 6.15087004,8.79824149 6.57778765,9.71433554 C7.00470527,10.6304296 7.42272877,11.5198413 7.83185815,12.3825706 C8.24098753,13.2453 8.61009338,14.0413234 8.93917571,14.770641 C9.26825804,15.4999586 9.52174037,16.0869703 9.69962271,16.5316762 L9.69962271,16.5316762 L11.3272461,16.5316762 C11.5051285,16.0869703 11.7586108,15.4999586 12.0876931,14.770641 C12.4167754,14.0413234 12.7858813,13.2453 13.1950107,12.3825706 C13.6041401,11.5198413 14.0221636,10.6304296 14.4490812,9.71433554 C14.8759988,8.79824149 15.2851282,7.9399592 15.6764693,7.13948868 C16.0678105,6.33901815 16.414681,5.63638291 16.717081,5.03158296 C17.019481,4.426783 17.2418339,3.99986539 17.3841398,3.75083011 C17.6153868,5.97435936 17.7977162,8.38911211 17.931128,10.9950884 C18.0645397,13.6010647 18.1846103,16.3360056 18.2913397,19.1999113 L18.2913397,19.1999113 L20.1324219,19.1999113 C19.9723278,15.8379351 19.7899984,12.6182647 19.5854337,9.54090026 C19.380869,6.46353579 19.1273867,3.51958307 18.8249867,0.709042112 L18.8249867,0.709042112 L17.3040927,0.709042112 C16.7704457,1.59845381 16.2012222,2.62572432 15.5964223,3.79085364 C14.9916223,4.95598296 14.3912694,6.16558287 13.7953636,7.41965336 C13.1994577,8.67372385 12.6213401,9.91000611 12.0610108,11.1285001 C11.5006814,12.3469942 11.0070579,13.4454176 10.5801403,14.4237705 C10.1532227,13.4454176 9.65959918,12.3469942 9.09926981,11.1285001 C8.53894045,9.91000611 7.96082284,8.67372385 7.36491701,7.41965336 C6.76901117,6.16558287 6.16865827,4.95598296 5.56385832,3.79085364 C4.95905837,2.62572432 4.38983488,1.59845381 3.85618786,0.709042112 L3.85618786,0.709042112 L2.25524681,0.709042112 C1.95284683,3.51958307 1.6993645,6.46353579 1.49479981,9.54090026 C1.29023512,12.6182647 1.10790572,15.8379351 0.947811615,19.1999113 L0.947811615,19.1999113 L2.73552913,19.1999113 Z M36.2619029,19.1999113 C36.5820911,18.2927114 36.8933852,17.4210879 37.1957852,16.5850409 C37.4981852,15.7489939 37.8005852,14.9307351 38.1029851,14.1302646 L38.1029851,14.1302646 L47.0949374,14.1302646 C47.3795491,14.9307351 47.673055,15.7489939 47.975455,16.5850409 C48.277855,17.4210879 48.5980432,18.2927114 48.9360196,19.1999113 L48.9360196,19.1999113 L50.9371959,19.1999113 C50.2078783,17.278782 49.5319254,15.4866174 48.9093373,13.8234176 C48.2867491,12.1602177 47.6775021,10.585959 47.0815962,9.10064147 C46.4856904,7.61532394 45.8942316,6.18781816 45.3072199,4.81812415 C44.7202082,3.44843014 44.09762,2.07873612 43.4394553,0.709042112 L43.4394553,0.709042112 L41.8385143,0.709042112 C41.1803496,2.07873612 40.5577614,3.44843014 39.9707497,4.81812415 C39.383738,6.18781816 38.7922792,7.61532394 38.1963734,9.10064147 C37.6004675,10.585959 36.9912205,12.1602177 36.3686323,13.8234176 C35.7460441,15.4866174 35.0789854,17.278782 34.367456,19.1999113 L34.367456,19.1999113 L36.2619029,19.1999113 Z M46.534608,12.5826883 L38.6633145,12.5826883 C39.3392674,10.7505002 39.992985,9.04282971 40.6244673,7.45967689 C41.2559496,5.87652407 41.9096672,4.3200536 42.5856201,2.79026548 C43.261573,4.3200536 43.9197376,5.87652407 44.5601141,7.45967689 C45.2004905,9.04282971 45.8586551,10.7505002 46.534608,12.5826883 L46.534608,12.5826883 Z M67.4135475,19.1999113 L67.4135475,3.61741836 C67.9294063,4.22221831 68.511971,4.94264179 69.1612415,5.77868878 C69.810512,6.61473578 70.4775708,7.50859453 71.1624178,8.46026505 C71.8472648,9.41193556 72.5365589,10.3902884 73.2303,11.3953236 C73.9240411,12.4003589 74.5822058,13.3787117 75.204794,14.3303822 C75.8273822,15.2820528 76.4010527,16.1759115 76.9258056,17.0119585 C77.4505585,17.8480055 77.8819232,18.5773231 78.2198996,19.1999113 L78.2198996,19.1999113 L79.7407936,19.1999113 L79.7407936,0.709042112 L77.9530761,0.709042112 L77.9530761,15.757888 C77.4016409,14.7795352 76.6945586,13.6321941 75.8318292,12.3158648 C74.9690999,10.9995354 74.0396646,9.65207672 73.0435235,8.27348859 C72.0473824,6.89490046 71.0290061,5.54299468 69.9883944,4.21777125 C68.9477827,2.89254783 67.9738769,1.72297145 67.0666769,0.709042112 L67.0666769,0.709042112 L65.62583,0.709042112 L65.62583,19.1999113 L67.4135475,19.1999113 Z M96.3238746,19.1999113 C96.6440628,18.2927114 96.9553569,17.4210879 97.2577569,16.5850409 C97.5601569,15.7489939 97.8625568,14.9307351 98.1649568,14.1302646 L98.1649568,14.1302646 L107.156909,14.1302646 C107.441521,14.9307351 107.735027,15.7489939 108.037427,16.5850409 C108.339827,17.4210879 108.660015,18.2927114 108.997991,19.1999113 L108.997991,19.1999113 L110.999168,19.1999113 C110.26985,17.278782 109.593897,15.4866174 108.971309,13.8234176 C108.348721,12.1602177 107.739474,10.585959 107.143568,9.10064147 C106.547662,7.61532394 105.956203,6.18781816 105.369192,4.81812415 C104.78218,3.44843014 104.159592,2.07873612 103.501427,0.709042112 L103.501427,0.709042112 L101.900486,0.709042112 C101.242321,2.07873612 100.619733,3.44843014 100.032721,4.81812415 C99.4457097,6.18781816 98.8542509,7.61532394 98.258345,9.10064147 C97.6624392,10.585959 97.0531922,12.1602177 96.430604,13.8234176 C95.8080158,15.4866174 95.1409571,17.278782 94.4294277,19.1999113 L94.4294277,19.1999113 L96.3238746,19.1999113 Z M106.59658,12.5826883 L98.7252862,12.5826883 C99.4012391,10.7505002 100.054957,9.04282971 100.686439,7.45967689 C101.317921,5.87652407 101.971639,4.3200536 102.647592,2.79026548 C103.323545,4.3200536 103.981709,5.87652407 104.622086,7.45967689 C105.262462,9.04282971 105.920627,10.7505002 106.59658,12.5826883 L106.59658,12.5826883 Z M133.185542,19.5734642 C134.626389,19.5734642 135.840436,19.4622877 136.827683,19.2399348 C137.81493,19.0175819 138.477542,18.8352525 138.815518,18.6929466 L138.815518,18.6929466 L138.815518,10.4481002 L137.001118,10.4481002 L137.001118,17.5456055 C136.78766,17.6345467 136.374083,17.7279349 135.760389,17.8257702 C135.146695,17.9236055 134.386248,17.9725231 133.479048,17.9725231 C132.358389,17.9725231 131.371142,17.7857467 130.517307,17.4121938 C129.663472,17.0386409 128.947496,16.5005468 128.369378,15.7979115 C127.79126,15.0952763 127.359896,14.2503352 127.075284,13.2630882 C126.790672,12.2758412 126.648366,11.1685237 126.648366,9.94113552 C126.648366,8.62480621 126.821802,7.46857101 127.168672,6.47242991 C127.515543,5.47628881 127.991378,4.64024181 128.596178,3.96428892 C129.200978,3.28833603 129.912507,2.78137136 130.730766,2.44339492 C131.549025,2.10541848 132.420648,1.93643025 133.345636,1.93643025 C134.341777,1.93643025 135.266766,2.04760672 136.120601,2.26995964 C136.974436,2.49231256 137.650389,2.78137136 138.14846,3.13713604 L138.14846,3.13713604 L138.762154,1.58955969 C138.353024,1.32273618 137.703754,1.0425715 136.814342,0.749065638 C135.92493,0.455559778 134.795377,0.308806848 133.425683,0.308806848 C132.233872,0.308806848 131.113213,0.522265655 130.063707,0.94918327 C129.014201,1.37610088 128.09366,1.99424201 127.302084,2.80360666 C126.510507,3.6129713 125.883472,4.61800652 125.420978,5.81871231 C124.958484,7.0194181 124.727237,8.39355917 124.727237,9.94113552 C124.727237,11.4887119 124.940696,12.8628529 125.367613,14.0635587 C125.794531,15.2642645 126.38599,16.2692997 127.14199,17.0786644 C127.89799,17.888029 128.791848,18.5061702 129.823566,18.9330878 C130.855284,19.3600054 131.975942,19.5734642 133.185542,19.5734642 Z M166.41841,19.1999113 L166.41841,17.6256526 L156.866129,17.6256526 L156.866129,10.2613237 L164.764104,10.2613237 L164.764104,8.71374738 L156.866129,8.71374738 L156.866129,2.28330081 L165.724669,2.28330081 L165.724669,0.709042112 L155.051729,0.709042112 L155.051729,19.1999113 L166.41841,19.1999113 Z M183.695232,19.1999113 L183.695232,11.728853 L186.683656,11.728853 C187.252879,11.728853 187.822103,11.7021707 188.391326,11.648806 C188.711514,12.0757236 189.085067,12.5737941 189.511985,13.1430176 C189.938902,13.7122411 190.379161,14.3303822 190.832761,14.997441 C191.286361,15.6644998 191.731067,16.3537939 192.166879,17.0653232 C192.60269,17.7768526 193.007373,18.4883819 193.380926,19.1999113 L193.380926,19.1999113 L195.328737,19.1999113 C195.008549,18.4883819 194.617208,17.7412761 194.154714,16.9585938 C193.69222,16.1759115 193.220832,15.4243586 192.740549,14.7039352 C192.260267,13.9835117 191.793326,13.3209 191.339726,12.7161 C190.886126,12.1113001 190.51702,11.6310177 190.232408,11.2752531 C191.42422,10.9194884 192.384785,10.3413708 193.114102,9.54090026 C193.84342,8.74042973 194.208079,7.64645334 194.208079,6.2589711 C194.208079,4.3734183 193.563255,2.95035959 192.273608,1.98979495 C190.983961,1.02923032 189.067279,0.548948006 186.523562,0.548948006 C185.794244,0.548948006 184.99822,0.588971533 184.135491,0.669018585 C183.272762,0.749065638 182.521209,0.878030334 181.880832,1.05591267 L181.880832,1.05591267 L181.880832,19.1999113 L183.695232,19.1999113 Z M186.203373,10.1812767 L183.695232,10.1812767 L183.695232,2.30998317 C184.033209,2.2744067 184.455679,2.23438317 184.962644,2.18991259 C185.469609,2.145442 186.061067,2.12320671 186.73702,2.12320671 C187.44855,2.12320671 188.137844,2.18101847 188.804903,2.29664199 C189.471961,2.41226551 190.06342,2.62572432 190.579279,2.93701841 C191.095138,3.24831251 191.513161,3.67078306 191.833349,4.20443008 C192.153538,4.7380771 192.313632,5.41402999 192.313632,6.23228875 C192.313632,7.12170044 192.153538,7.82433568 191.833349,8.34019447 C191.513161,8.85605325 191.077349,9.25184146 190.525914,9.52755908 C189.974479,9.80327671 189.325208,9.98115905 188.578103,10.0612061 C187.830997,10.1412532 187.03942,10.1812767 186.203373,10.1812767 L186.203373,10.1812767 Z M214.339912,19.6001465 C216.332194,19.6001465 217.9109,19.182123 219.07603,18.3460761 C220.241159,17.5100291 220.823724,16.2559586 220.823724,14.5838646 C220.823724,13.7300293 220.681418,13.0096059 220.396806,12.4225942 C220.112194,11.8355824 219.729747,11.3375119 219.249465,10.9283825 C218.769182,10.5192531 218.204406,10.1634884 217.555136,9.86108847 C216.905865,9.55868849 216.216571,9.25628852 215.487253,8.95388854 C214.882453,8.70485326 214.322124,8.46471211 213.806265,8.23346506 C213.290406,8.00221802 212.841254,7.74428863 212.458807,7.45967689 C212.076359,7.17506515 211.778407,6.8370887 211.564948,6.44574755 C211.351489,6.05440641 211.24476,5.57412409 211.24476,5.00490061 C211.24476,4.45346535 211.347042,3.98207715 211.551607,3.59073601 C211.756171,3.19939486 212.036336,2.87475959 212.392101,2.6168302 C212.747865,2.35890081 213.170336,2.17212435 213.659512,2.05650083 C214.148689,1.94087731 214.686783,1.88306555 215.273795,1.88306555 C216.12763,1.88306555 216.923653,1.98979495 217.661865,2.20325376 C218.400077,2.41671257 219.027112,2.70132431 219.542971,3.05708899 L219.542971,3.05708899 L220.183347,1.53619499 C219.9521,1.37610088 219.663041,1.2249009 219.316171,1.08259502 C218.9693,0.940289153 218.586853,0.811324457 218.16883,0.695700936 C217.750806,0.580077416 217.301653,0.486689188 216.821371,0.415536252 C216.341089,0.344383316 215.851912,0.308806848 215.353842,0.308806848 C213.486077,0.308806848 212.027442,0.717936229 210.977936,1.53619499 C209.92843,2.35445375 209.403677,3.55515954 209.403677,5.13831236 C209.403677,5.83205348 209.514854,6.43685344 209.737207,6.95271222 C209.95956,7.46857101 210.284195,7.92661803 210.711113,8.32685329 C211.13803,8.72708856 211.653889,9.08730029 212.258689,9.4074885 C212.863489,9.72767671 213.548336,10.0389708 214.31323,10.3413708 C214.91803,10.5904061 215.496147,10.8261002 216.047583,11.0484531 C216.599018,11.270806 217.088194,11.5376295 217.515112,11.8489236 C217.94203,12.1602177 218.284453,12.5426647 218.542383,12.9962647 C218.800312,13.4498647 218.929277,14.0146411 218.929277,14.690594 C218.929277,15.8646174 218.529041,16.7140056 217.728571,17.2387585 C216.9281,17.7635114 215.807442,18.0258878 214.366595,18.0258878 C213.744006,18.0258878 213.174783,17.9814173 212.658924,17.8924761 C212.143065,17.8035349 211.680571,17.6923585 211.271442,17.5589467 C210.862313,17.4255349 210.506548,17.2876761 210.204148,17.1453703 C209.901748,17.0030644 209.661607,16.8785468 209.483724,16.7718174 L209.483724,16.7718174 L208.896713,18.3460761 C209.074595,18.4528055 209.32363,18.5773231 209.643818,18.719629 C209.964007,18.8619348 210.355348,18.9997937 210.817842,19.1332054 C211.280336,19.2666172 211.805089,19.3777936 212.392101,19.4667348 C212.979112,19.555676 213.628383,19.6001465 214.339912,19.6001465 Z" id="MANAGERS"></path>
                </g>
            </g>
        </g>
    </g>
</svg>