<?xml version="1.0" encoding="UTF-8"?>
<svg width="270px" height="102px" viewBox="0 0 270 102" version="1.1" xmlns="http://www.w3.org/2000/svg" xmlns:xlink="http://www.w3.org/1999/xlink">
    <!-- Generator: Sketch 64 (93537) - https://sketch.com -->
    <title>myplaylist</title>
    <desc>Created with Sketch.</desc>
    <g id="myplaylist" stroke="none" stroke-width="1" fill="none" fill-rule="evenodd">
        <path d="M15.7891997,32.4231059 L15.9646925,32.7472102 C16.5576818,33.8501412 17.2308048,35.1789034 17.9840614,36.7334969 C18.8126438,38.4435498 19.6764849,40.294638 20.5755849,42.2867615 C21.4746849,44.278885 22.3649701,46.315082 23.2464407,48.3953525 C24.1279113,50.475623 24.9564936,52.4324877 25.7321877,54.2659465 C26.5078818,52.4324877 27.3364641,50.475623 28.2179347,48.3953525 C29.0994052,46.315082 29.9896905,44.278885 30.8887905,42.2867615 C31.7878905,40.294638 32.6517316,38.4435498 33.480314,36.7334969 C34.3088963,35.023444 35.0405169,33.586647 35.6751757,32.4231059 L35.6751757,32.4231059 L43.1853049,32.4231059 L43.2808097,33.0938248 C43.5969735,35.3535948 43.8912827,37.8537659 44.1637372,40.594338 C44.4634372,43.6089673 44.7278784,46.7470026 44.9570607,50.0084436 C45.1862431,53.2698847 45.397796,56.5401405 45.5917195,59.819211 C45.785643,63.0982815 45.9531224,66.1834285 46.0941577,69.074652 L46.0941577,69.074652 L38.0551462,69.074652 L38.0254239,68.095564 C37.9234355,64.8057119 37.7923077,61.253604 37.6320403,57.4392405 C37.4557462,53.2434406 37.191305,49.0123819 36.8387168,44.7460644 C36.204058,46.2269349 35.4988815,47.8664702 34.7231874,49.6646701 C33.9474934,51.4628701 33.180614,53.26107 32.4225493,55.05927 C31.6644846,56.8574699 30.932864,58.5763375 30.2276876,60.2158728 C29.5225111,61.855408 28.9231111,63.2569462 28.4294876,64.4204874 L28.4294876,64.4204874 L22.6646701,64.4204874 L22.5134098,64.0642851 C22.0501088,62.9742586 21.501129,61.6914545 20.8664702,60.2158728 C20.1612937,58.5763375 19.4296731,56.8574699 18.6716085,55.05927 C17.9135438,53.26107 17.1466644,51.4628701 16.3709703,49.6646701 C15.5952762,47.8664702 14.8900997,46.2269349 14.2554409,44.7460644 C13.9028527,49.0123819 13.6384115,53.2434406 13.4621174,57.4392405 C13.2858233,61.6350404 13.144788,65.5135109 13.0390116,69.074652 L13.0390116,69.074652 L5,69.074652 L5.0541278,67.981353 C5.18331833,65.4091117 5.33275514,62.6883977 5.50243822,59.819211 C5.69636175,56.5401405 5.90791468,53.2698847 6.13709703,50.0084436 C6.36627938,46.7470026 6.63072055,43.6089673 6.93042054,40.594338 C7.23012053,37.5797087 7.55626464,34.8559646 7.90885286,32.4231059 L7.90885286,32.4231059 L15.7891997,32.4231059 Z M64.4992631,32 C69.9643806,32 74.1601805,32.9608029 77.0866628,34.8824087 C80.0131451,36.8040146 81.4763862,39.9508645 81.4763862,44.3229585 C81.4763862,48.7303113 79.9955157,51.9124201 77.0337746,53.8692847 C74.0720335,55.8261494 69.8409748,56.8045817 64.3405984,56.8045817 L64.3405984,56.8045817 L61.749075,56.8045817 L61.749075,69.074652 L53.4985105,69.074652 L53.4985105,32.9519882 L54.2756437,32.8073551 C55.8428624,32.531041 57.4877944,32.3324403 59.2104397,32.2115529 C61.2201926,32.0705176 62.9831338,32 64.4992631,32 Z M95.8090976,32.4231059 L95.8090976,61.9876286 L112.045785,61.9876286 L112.045785,69.074652 L87.5585331,69.074652 L87.5585331,32.4231059 L95.8090976,32.4231059 Z M242.498353,44.6460049 C243.165412,44.6460049 243.741941,44.7174755 244.227941,44.8604167 C244.713941,45.0033578 245.114177,45.1605931 245.428647,45.3321225 L245.428647,45.3321225 L244.785412,47.090299 L244.57234,46.98622 C244.353461,46.8852678 244.117162,46.7936961 243.863441,46.7115049 C243.525147,46.6019167 243.117765,46.5471225 242.641294,46.5471225 C242.107647,46.5471225 241.724088,46.6209755 241.490618,46.7686814 C241.257147,46.9163873 241.140412,47.1427108 241.140412,47.447652 C241.140412,47.6287108 241.183294,47.7811814 241.269059,47.9050637 C241.354824,48.0289461 241.476324,48.1409167 241.633559,48.2409755 C241.790794,48.3410343 241.971853,48.4315637 242.176735,48.5125637 C242.381618,48.5935637 242.607941,48.6769461 242.855706,48.7627108 C243.370294,48.953299 243.818177,49.1415049 244.199353,49.3273284 C244.580529,49.513152 244.897382,49.7299461 245.149912,49.9777108 C245.402441,50.2254755 245.590647,50.5161225 245.714529,50.849652 C245.838412,51.1831814 245.900353,51.5881814 245.900353,52.064652 C245.900353,52.9890049 245.576353,53.7060931 244.928353,54.2159167 C244.280353,54.7257402 243.303588,54.980652 241.998059,54.980652 C241.559706,54.980652 241.164235,54.9544461 240.811647,54.9020343 C240.459059,54.8496225 240.146971,54.785299 239.875382,54.7090637 C239.603794,54.6328284 239.370324,54.5518284 239.174971,54.4660637 C238.979618,54.380299 238.815235,54.299299 238.681824,54.2230637 L238.681824,54.2230637 L239.310765,52.4505931 L239.496302,52.545792 C239.75474,52.6700555 240.057394,52.7836461 240.404265,52.8865637 C240.837853,53.0152108 241.369118,53.0795343 241.998059,53.0795343 C242.312529,53.0795343 242.572206,53.0533284 242.777088,53.0009167 C242.981971,52.9485049 243.146353,52.8770343 243.270235,52.7865049 C243.394118,52.6959755 243.479882,52.5887696 243.527529,52.4648873 C243.575177,52.3410049 243.599,52.2028284 243.599,52.0503578 C243.599,51.7263578 243.446529,51.457152 243.141588,51.2427402 C242.836647,51.0283284 242.312529,50.7972402 241.569235,50.5494755 C241.245235,50.4351225 240.921235,50.3040931 240.597235,50.1563873 C240.273235,50.0086814 239.982588,49.8228578 239.725294,49.5989167 C239.468,49.3749755 239.258353,49.1033873 239.096353,48.784152 C238.934353,48.4649167 238.853353,48.0765931 238.853353,47.6191814 C238.853353,47.1617696 238.939118,46.7496225 239.110647,46.3827402 C239.282177,46.0158578 239.525177,45.7037696 239.839647,45.4464755 C240.154118,45.1891814 240.535294,44.9914461 240.983177,44.8532696 C241.431059,44.7150931 241.936118,44.6460049 242.498353,44.6460049 Z M132.659177,44.8747108 L132.765239,45.0722555 C132.910848,45.3474649 133.073229,45.6699402 133.252382,46.0396814 C133.476324,46.5018578 133.709794,47.002152 133.952794,47.5405637 C134.195794,48.0789755 134.436412,48.629299 134.674647,49.1915343 C134.912882,49.7537696 135.136824,50.282652 135.346471,50.7781814 C135.556118,50.282652 135.780059,49.7537696 136.018294,49.1915343 C136.256529,48.629299 136.497147,48.0789755 136.740147,47.5405637 C136.983147,47.002152 137.216618,46.5018578 137.440559,46.0396814 C137.6645,45.5775049 137.862235,45.1891814 138.033765,44.8747108 L138.033765,44.8747108 L140.063529,44.8747108 L140.119848,45.2786625 C140.193797,45.8298437 140.263171,46.4313402 140.327971,47.083152 C140.408971,47.8979167 140.480441,48.7460343 140.542382,49.6275049 C140.604324,50.5089755 140.6615,51.3928284 140.713912,52.2790637 C140.766324,53.165299 140.811588,53.9991225 140.849706,54.7805343 L140.849706,54.7805343 L138.677,54.7805343 L138.658704,54.1927602 C138.632784,53.395339 138.600765,52.5430284 138.562647,51.6358284 C138.515,50.5018284 138.443529,49.358299 138.348235,48.2052402 C138.176706,48.6054755 137.986118,49.0485931 137.776471,49.5345931 C137.566824,50.0205931 137.359559,50.5065931 137.154677,50.9925931 C136.949794,51.4785931 136.752059,51.943152 136.561471,52.3862696 C136.370882,52.8293873 136.208882,53.2081814 136.075471,53.522652 L136.075471,53.522652 L134.517412,53.522652 L134.424235,53.3034755 C134.359294,53.1510049 134.288706,52.9858284 134.212471,52.8079461 L134.212471,52.8079461 L134.031412,52.3862696 C133.840824,51.943152 133.643088,51.4785931 133.438206,50.9925931 C133.233324,50.5065931 133.026059,50.0205931 132.816412,49.5345931 C132.606765,49.0485931 132.416177,48.6054755 132.244647,48.2052402 C132.149353,49.358299 132.077882,50.5018284 132.030235,51.6358284 C131.982588,52.7698284 131.944471,53.8180637 131.915882,54.7805343 L131.915882,54.7805343 L129.743177,54.7805343 L129.773105,54.1846483 C129.804373,53.578935 129.839662,52.9437402 129.878971,52.2790637 C129.931382,51.3928284 129.988559,50.5089755 130.0505,49.6275049 C130.112441,48.7460343 130.183912,47.8979167 130.264912,47.083152 C130.345912,46.2683873 130.434059,45.5322402 130.529353,44.8747108 L130.529353,44.8747108 L132.659177,44.8747108 Z M147.328118,44.8747108 L147.641,45.5592402 C147.854882,46.0145343 148.079353,46.4677108 148.314412,46.9187696 C148.667,47.5953578 149.043412,48.2719461 149.443647,48.9485343 C149.843882,48.2719461 150.225059,47.5953578 150.587177,46.9187696 C150.949294,46.2421814 151.282824,45.5608284 151.587765,44.8747108 L151.587765,44.8747108 L154.046353,44.8747108 L153.635397,45.6689277 C153.220868,46.4568909 152.795618,47.2260931 152.359647,47.9765343 C151.778353,48.9771225 151.163706,49.9824755 150.515706,50.9925931 L150.515706,50.9925931 L150.515706,54.7805343 L148.285824,54.7805343 L148.285824,51.0211814 L147.648147,50.0110637 C147.229912,49.337652 146.825441,48.6642402 146.434735,47.9908284 C145.848677,46.9807108 145.284059,45.9420049 144.740882,44.8747108 L144.740882,44.8747108 L147.328118,44.8747108 Z M168.018059,44.7603578 C169.495118,44.7603578 170.629118,45.0200343 171.420059,45.5393873 C172.211,46.0587402 172.606471,46.9092402 172.606471,48.0908873 C172.606471,49.2820637 172.206235,50.1420931 171.405765,50.6709755 C170.605294,51.1998578 169.461765,51.464299 167.975177,51.464299 L167.975177,51.464299 L167.274765,51.464299 L167.274765,54.7805343 L165.044882,54.7805343 L165.044882,45.017652 L165.414743,44.9515417 C165.789963,44.8907917 166.181265,44.8461225 166.588647,44.8175343 C167.131824,44.7794167 167.608294,44.7603578 168.018059,44.7603578 Z M179.656647,44.8747108 L179.656647,52.8651225 L184.044941,52.8651225 L184.044941,54.7805343 L177.426765,54.7805343 L177.426765,44.8747108 L179.656647,44.8747108 Z M194.168353,44.8747108 L194.490765,45.5663873 C194.704647,46.0312108 194.916412,46.5034461 195.126059,46.9830931 C195.440529,47.7025637 195.757382,48.4625343 196.076618,49.2630049 C196.395853,50.0634755 196.722235,50.9163578 197.055765,51.821652 C197.389294,52.7269461 197.741882,53.7132402 198.113529,54.7805343 L198.113529,54.7805343 L195.726412,54.7805343 L195.617618,54.434299 C195.542441,54.2013578 195.461971,53.9641814 195.376206,53.7227696 C195.247559,53.360652 195.121294,52.9985343 194.997412,52.6364167 L194.997412,52.6364167 L191.138,52.6364167 L190.95039,53.1795931 L190.95039,53.1795931 L190.759206,53.7227696 C190.630559,54.0848873 190.513824,54.4374755 190.409,54.7805343 L190.409,54.7805343 L188.093353,54.7805343 L188.314054,54.1498778 C188.605273,53.3219625 188.884294,52.5458873 189.151118,51.821652 C189.484647,50.9163578 189.811029,50.0634755 190.130265,49.2630049 C190.4495,48.4625343 190.763971,47.7025637 191.073677,46.9830931 C191.383382,46.2636225 191.705,45.5608284 192.038529,44.8747108 L192.038529,44.8747108 L194.168353,44.8747108 Z M202.662235,44.8747108 L202.975118,45.5592402 C203.189,46.0145343 203.413471,46.4677108 203.648529,46.9187696 C204.001118,47.5953578 204.377529,48.2719461 204.777765,48.9485343 C205.178,48.2719461 205.559177,47.5953578 205.921294,46.9187696 C206.283412,46.2421814 206.616941,45.5608284 206.921882,44.8747108 L206.921882,44.8747108 L209.380471,44.8747108 L208.969515,45.6689277 C208.554985,46.4568909 208.129735,47.2260931 207.693765,47.9765343 C207.112471,48.9771225 206.497824,49.9824755 205.849824,50.9925931 L205.849824,50.9925931 L205.849824,54.7805343 L203.619941,54.7805343 L203.619941,51.0211814 L202.982265,50.0110637 C202.564029,49.337652 202.159559,48.6642402 201.768853,47.9908284 C201.182794,46.9807108 200.618177,45.9420049 200.075,44.8747108 L200.075,44.8747108 L202.662235,44.8747108 Z M222.608882,44.8747108 L222.608882,52.8651225 L226.997177,52.8651225 L226.997177,54.7805343 L220.379,54.7805343 L220.379,44.8747108 L222.608882,44.8747108 Z M233.832941,44.8747108 L233.832941,54.7805343 L231.603059,54.7805343 L231.603059,44.8747108 L233.832941,44.8747108 Z M257.853412,44.8747108 L257.853412,46.7758284 L254.865941,46.7758284 L254.865941,54.7805343 L252.636059,54.7805343 L252.636059,46.7758284 L249.648588,46.7758284 L249.648588,44.8747108 L257.853412,44.8747108 Z M193.053412,47.1188873 C193.005765,47.2618284 192.934294,47.4571814 192.839,47.7049461 C192.743706,47.9527108 192.634118,48.2385931 192.510235,48.5625931 C192.386353,48.8865931 192.250559,49.2439461 192.102853,49.634652 C191.955147,50.0253578 191.805059,50.4351225 191.652588,50.8639461 L191.652588,50.8639461 L194.468529,50.8639461 C194.316059,50.4351225 194.168353,50.0253578 194.025412,49.634652 C193.882471,49.2439461 193.746677,48.8865931 193.618029,48.5625931 C193.489382,48.2385931 193.377412,47.9527108 193.282118,47.7049461 C193.186824,47.4571814 193.110588,47.2618284 193.053412,47.1188873 Z M65.0281455,39.0341351 C64.4287455,39.0341351 63.8381602,39.0517645 63.2563896,39.0870233 C62.6746191,39.1222822 62.1721808,39.157541 61.749075,39.1927998 L61.749075,39.1927998 L61.749075,49.7704466 L64.3405984,49.7704466 C67.1965631,49.7704466 69.3473512,49.3825995 70.792963,48.6069054 C72.2385747,47.8312113 72.9613806,46.3855996 72.9613806,44.2700703 C72.9613806,43.2475644 72.7762717,42.4013527 72.4060541,41.731435 C72.0358365,41.0615174 71.5069541,40.5238204 70.8194071,40.1183439 C70.13186,39.7128674 69.294463,39.4307969 68.307216,39.2721322 C67.3199689,39.1134675 66.2269454,39.0341351 65.0281455,39.0341351 Z M168.161,46.6614755 C167.999,46.6614755 167.839382,46.6662402 167.682147,46.6757696 C167.524912,46.685299 167.389118,46.6948284 167.274765,46.7043578 L167.274765,46.7043578 L167.274765,49.5631814 L167.975177,49.5631814 C168.747059,49.5631814 169.328353,49.4583578 169.719059,49.2487108 C170.109765,49.0390637 170.305118,48.6483578 170.305118,48.0765931 C170.305118,47.8002402 170.255088,47.5715343 170.155029,47.3904755 C170.054971,47.2094167 169.912029,47.0640931 169.726206,46.9545049 C169.540382,46.8449167 169.314059,46.7686814 169.047235,46.725799 C168.780412,46.6829167 168.485,46.6614755 168.161,46.6614755 Z" id="Combined-Shape" fill="#1F1F20" fill-rule="nonzero"></path>
    </g>
</svg>