<?xml version="1.0" encoding="UTF-8"?>
<svg width="270px" height="102px" viewBox="0 0 270 102" version="1.1" xmlns="http://www.w3.org/2000/svg" xmlns:xlink="http://www.w3.org/1999/xlink">
    <!-- Generator: Sketch 64 (93537) - https://sketch.com -->
    <title>openchair</title>
    <desc>Created with Sketch.</desc>
    <g id="openchair" stroke="none" stroke-width="1" fill="none" fill-rule="evenodd">
        <path d="M134.998904,-5.82645043e-11 C148.450628,-5.82645043e-11 160.678647,5.33913016 169.674963,14.0096265 L169.015339,14.0076189 C202.222996,14.167615 236.192989,14.1654382 269.980065,14 L269.999781,17.8736478 C252.843916,17.9574553 235.635475,17.9999033 218.508088,17.9999033 C203.350151,17.9999033 188.256029,17.9672906 173.303904,17.9012389 C173.538882,18.1763039 173.768075,18.4553982 173.994286,18.7369848 L173.009721,18.7337086 C204.931482,18.8599641 237.558624,18.8523452 269.985323,18.710852 L269.994085,20.6471317 C252.879842,20.7233204 235.703166,20.7603263 218.610828,20.7603263 C204.149043,20.7603263 189.746965,20.7340649 175.475843,20.6797031 C181.465599,28.9217062 185,39.0560168 185,50.0005479 C185,60.944644 181.465599,71.0786923 175.478246,79.3212999 L173.140392,79.3279437 C205.364459,79.2114839 237.951074,79.216926 269.994414,79.3529771 L269.985651,81.2892568 C238.227149,81.1565544 205.936994,81.1468372 173.993163,81.2622256 C173.768075,81.544801 173.538882,81.8238905 173.306757,82.1004395 L169.044036,82.1176449 C202.537569,81.9620024 236.504277,81.9652677 270,82.1263522 L269.980284,86 C236.703812,85.8420653 202.961023,85.838948 169.675614,85.9874425 C160.68045,94.6600825 148.45162,100 134.998904,100 C121.5508,100 109.325839,94.6633186 100.330512,85.9964659 L101.131213,86 C67.786643,85.8389155 33.9261809,85.8389155 0.488508964,86 L0.469888668,82.1263522 C32.4342158,81.9703407 64.7856176,81.9634128 96.7040368,82.1055683 C96.4661006,81.8305704 96.2365541,81.5511321 96.0099968,81.2691946 L97.8324636,81.2751075 C65.4944845,81.1444984 32.7413823,81.1499404 0.483361,81.2892568 L0.474598507,79.3529771 C31.6342722,79.2163109 63.2599116,79.2086023 94.5293501,79.3259284 C88.5359409,71.0836018 85,60.947295 85,50.0005479 C85,39.0529239 88.5362264,28.9159784 94.526381,20.6719526 L97.0857897,20.6623695 C81.5915121,20.727674 66.0085142,20.7603263 50.4430414,20.7603263 C33.726396,20.7603263 17.0305616,20.7233204 0.474927101,20.6471317 L0.483689593,18.710852 C32.0968661,18.8529333 64.2306562,18.8608913 96.011075,18.7305152 C96.2376417,18.4477282 96.4674829,18.1679483 96.700272,17.8907229 L100.487827,17.8736478 C83.6068854,17.9585437 66.9866275,18.0009917 50.395943,18.0009917 C33.8041632,18.0009917 17.2397661,17.9585437 0.469450543,17.8736478 L0.489166151,14 C33.9703324,14.1684813 66.6321763,14.1687031 100.33593,14.0006653 C109.330355,5.33471026 121.553283,-5.82645043e-11 134.998904,-5.82645043e-11 Z M134.998904,3.95064164 C109.60768,3.95064164 88.9505983,24.6090454 88.9505983,50.0005479 C88.9505983,75.3909546 109.60768,96.0482625 134.998904,96.0482625 C160.391224,96.0482625 181.048306,75.3909546 181.048306,50.0005479 C181.048306,24.6090454 160.391224,3.95064164 134.998904,3.95064164 Z M134.894695,5.13725877 C159.631687,5.13725877 179.757273,25.2630656 179.757273,50.0003288 C179.757273,74.7375919 159.631687,94.8633988 134.894695,94.8633988 C110.158798,94.8633988 90.0332122,74.7375919 90.0332122,50.0003288 C90.0332122,25.2630656 110.158798,5.13725877 134.894695,5.13725877 Z M134.894695,7.08682645 C111.233843,7.08682645 91.9838544,26.3370264 91.9838544,50.0003288 C91.9838544,73.6625352 111.233843,92.9127352 134.894695,92.9127352 C158.557738,92.9127352 177.807727,73.6625352 177.807727,50.0003288 C177.807727,26.3370264 158.557738,7.08682645 134.894695,7.08682645 Z M139.439016,18.0550212 L139.580538,18.1013372 L139.591641,18.1055103 L139.639746,18.1250608 L139.687557,18.1463997 L149.166389,22.1883499 L149.23657,22.2162861 L149.306113,22.2479307 L149.311115,22.2500347 C149.707053,22.4440666 150.067413,22.8172965 150.30128,23.3285194 C150.738741,24.2846241 150.582063,25.3895585 149.967031,25.9224359 L149.853765,26.0103881 C149.829361,26.0269402 149.809709,26.0400557 149.789419,26.0523996 L149.758124,26.070749 L149.726563,26.088099 L149.446233,26.2583379 C152.160396,28.0100981 154.450006,30.3140472 155.137187,33.439623 C155.497476,35.0784609 155.17124,36.5353305 154.947873,38.1597905 L154.401249,42.1353217 C154.140588,44.0309468 153.878861,45.9004809 153.617159,47.770488 C154.439734,47.961865 155.031667,48.3880486 155.106936,48.8933671 L155.115042,49.0028041 L155.115042,51.1068907 C155.115042,51.4075413 154.932192,51.684917 154.623942,51.9085513 L154.503079,51.990081 L154.491337,51.9968491 L154.441295,52.0267272 L154.389604,52.0557636 L152.900688,52.9163695 L152.860654,53.2056584 L152.859415,56.345989 C152.757469,56.4131795 146.076244,60.5160781 141.263437,63.470952 C139.949677,64.277579 138.560116,64.7293857 137.143866,64.8990439 L137.144445,67.5214484 C142.762446,67.9389403 147.103482,70.5223435 147.194668,73.6637727 L147.196131,73.6641431 L147.196131,76.1565388 C147.196131,78.8794722 141.979085,81.7883017 135.54354,81.7883017 C129.220898,81.7883017 124.074377,78.9806411 123.895744,76.300006 L123.890948,76.1565388 L123.890948,73.6641431 L123.893688,73.6633695 L123.895743,73.5821203 C124.058191,70.4936487 128.329057,67.961501 133.85674,67.5280073 L133.85743,64.8238462 C132.439844,64.6048079 131.033105,64.1627845 129.68523,63.5688271 C129.173954,63.343532 128.671458,63.1002667 128.176379,62.8428482 L127.683083,62.5808533 C126.513607,61.9447879 125.384816,61.2349042 124.281566,60.4960542 C122.899434,59.5704665 120.954717,58.4955939 120.936397,56.6091751 L120.936353,53.4530348 C120.925321,52.2996096 121.575984,51.232452 122.613399,50.7045367 L133.333041,45.2473078 L133.347958,45.253787 C133.206595,44.9985031 133.241229,43.6122392 133.226316,43.4295883 L133.041893,41.1712328 L133.009214,40.7823695 L123.523543,46.2762306 L123.45114,46.3200175 L123.375305,46.3620423 L123.370056,46.3650932 L123.195256,46.4485602 C122.771409,46.6333922 122.233062,46.7441444 121.646754,46.7441444 C120.383005,46.7441444 119.340742,46.2304165 119.191303,45.5671752 L119.175667,45.4666132 C119.173858,45.4422409 119.172688,45.4226027 119.172688,45.4028243 L119.173371,45.3725211 L119.175277,45.3424019 L119.172688,43.2987027 L119.18128,43.1863266 C119.221059,42.9269055 119.397258,42.688524 119.67059,42.4920873 L119.793565,42.4105292 L119.843776,42.3805284 L119.890262,42.354315 L129.873931,36.5809821 L130.017575,36.4897104 C130.469274,36.226048 131.11389,36.0609571 131.829964,36.0609571 C132.110374,36.0609571 132.379889,36.0862491 132.631172,36.1328548 L132.244841,31.4105551 C132.114729,29.8170252 131.96674,28.2324025 131.792537,26.6444134 C131.737307,26.1410808 131.724147,25.6202843 131.857203,25.1349066 C131.879798,25.0524966 131.90658,24.9711736 131.938079,24.8911131 C132.164783,24.3151024 132.562896,23.937046 133.069647,23.7068522 L132.976324,23.6879079 L135.777857,22.1893831 C135.343587,21.2083156 135.529052,20.0796567 136.189284,19.5747272 L136.303694,19.4964798 L138.461361,18.1845538 C138.764851,17.999986 139.107014,17.9647255 139.439016,18.0550212 Z M109.575947,52.451001 L110.630624,57.091481 C110.582714,57.4510682 110.535881,57.7957935 110.491743,58.119132 L110.448563,58.4351 L110.435148,58.5485182 L110.382766,58.9171274 L109.871716,63.0117822 L109.830194,63.333993 L109.812307,63.3327042 C109.436047,65.0281774 107.833908,66.1894251 106.093786,65.9658108 C104.241872,65.7293081 102.930392,64.0222353 103.164197,62.1566348 C103.398641,60.2884565 105.092769,58.965459 106.940211,59.2006729 C107.487433,59.2722842 107.985257,59.468722 108.410573,59.7614934 L108.588344,59.8927817 L109.575947,52.451001 Z M164.36709,34.6040234 C165.201876,34.5949375 165.894664,35.2234626 165.97783,36.0326697 L165.986082,36.1772535 L166.288863,64.0237546 C166.297707,64.8531249 165.665708,65.5406641 164.849536,65.6227608 L164.703687,65.6308692 L164.352003,65.6339668 L164.347321,65.6344831 L164.342639,65.6349993 L160.472561,65.6768235 C160.334697,65.6778488 160.221284,65.5684019 160.219203,65.4315932 C160.218311,65.3138861 160.299596,65.2143851 160.409657,65.1877082 L160.466838,65.1806913 L163.977429,65.1424881 L163.970146,64.5095544 L160.459555,64.5472413 C160.322211,64.5482739 160.209318,64.4383107 160.207758,64.3009857 C160.20642,64.1841637 160.287641,64.0851683 160.397365,64.0579677 L160.454352,64.0506001 L163.964943,64.0129131 L163.95766,63.3779144 L160.447589,63.4161176 C160.309725,63.4176664 160.196312,63.3077032 160.195272,63.1708945 C160.19438,63.0527449 160.275283,62.9539392 160.384907,62.9271449 L160.441866,62.9199926 L163.952457,62.8823056 L163.945174,62.2478232 L160.435623,62.2849938 C160.297759,62.2865426 160.184867,62.1765794 160.183306,62.0397708 C160.181522,61.9220637 160.263062,61.8229419 160.372887,61.7960483 L160.429901,61.7888688 L163.940492,61.7511819 L163.933209,61.1166994 L160.422617,61.1543864 C160.285274,61.1559351 160.171861,61.0459719 160.171341,60.908647 C160.170003,60.7913824 160.251224,60.6923239 160.360621,60.6654393 L160.417415,60.6582613 L163.927486,60.6210907 L163.921243,59.9855757 L160.411172,60.0232626 C160.273308,60.0242951 160.159895,59.9143319 160.158335,59.7780395 C160.156997,59.6603324 160.237836,59.5612107 160.348106,59.534317 L160.405449,59.5271376 L163.916041,59.4894507 L163.908757,58.8549682 L160.398686,58.8926551 C160.260302,58.8942039 160.14793,58.7837244 160.145849,58.6469158 C160.144511,58.5296512 160.225732,58.4305927 160.335784,58.4037081 L160.392964,58.3965301 L163.903035,58.3588432 L163.896792,57.7238445 L160.3862,57.7610151 C160.248336,57.7630801 160.134924,57.653117 160.133363,57.5163083 C160.132025,57.3986012 160.213629,57.2991002 160.32379,57.2727484 L160.380998,57.2659226 L163.891069,57.2277194 L163.884306,56.593237 L160.374235,56.6309239 C160.236371,56.6319564 160.122958,56.5225095 160.121397,56.3851845 C160.12006,56.2683625 160.201281,56.1686086 160.311005,56.1415163 L160.367992,56.1342826 L163.879103,56.0965957 L163.87182,55.4621132 L160.361229,55.4998001 C160.223365,55.5013489 160.110472,55.3913857 160.108912,55.254577 C160.107574,55.1373125 160.189177,55.0378746 160.299338,55.0108817 L160.356547,55.0036751 L163.866097,54.9659882 L163.859334,54.3315057 L160.348743,54.3686764 C160.211399,54.3702252 160.097987,54.260262 160.096946,54.1239696 C160.095608,54.0062625 160.176447,53.9067614 160.28639,53.8800845 L160.343541,53.8730676 L163.854132,53.8353807 L163.846848,53.200382 L160.337298,53.2380689 C160.198913,53.2396177 160.086021,53.1296545 160.08446,52.9928458 C160.083122,52.8751387 160.164344,52.7763963 160.274396,52.749611 L160.331575,52.7424601 L163.841646,52.7047732 L163.834883,52.0697745 L160.324292,52.1069452 C160.186948,52.1084939 160.073535,51.999047 160.072495,51.8617221 C160.070711,51.7444575 160.151869,51.6450197 160.261911,51.6183518 L160.319089,51.6113364 L163.82968,51.5736495 L163.822917,50.9386507 L160.312326,50.9763377 C160.173942,50.9784027 160.06157,50.8679232 160.060009,50.7311146 C160.058225,50.6142925 160.139765,50.5149179 160.249917,50.487934 L160.307124,50.4807289 L163.816674,50.443042 L163.810432,49.8080433 L160.300361,49.8457302 C160.162497,49.8467627 160.049084,49.737832 160.047003,49.6010234 C160.046111,49.4833163 160.127396,49.3841945 160.237457,49.3569758 L160.294638,49.3496052 L163.805229,49.3124345 L163.797425,48.677952 L160.287355,48.7146064 C160.150011,48.7166715 160.036598,48.6067083 160.035037,48.4698996 C160.034145,48.352635 160.115431,48.2535765 160.225164,48.2263668 L160.282152,48.2189977 L163.792743,48.181827 L163.78546,47.546312 L160.275389,47.5845152 C160.137525,47.586064 160.024632,47.4761008 160.023072,47.3387759 C160.021734,47.2215113 160.102573,47.122832 160.212843,47.0957307 L160.270187,47.0883902 L163.780257,47.050187 L163.772974,46.4157045 L160.262903,46.4533915 C160.125039,46.4549402 160.012147,46.344977 160.011106,46.2081684 C160.009322,46.0909038 160.090862,45.991466 160.201014,45.964473 L160.258221,45.9572664 L163.768292,45.9195795 L163.761009,45.2845808 L160.250938,45.322784 C160.113074,45.3243327 159.999661,45.2138533 159.999141,45.0770446 C159.997803,44.95978 160.07826,44.8607215 160.188093,44.834162 L160.245215,44.8271752 L163.755286,44.7894883 L163.749563,44.1539733 L160.238452,44.1916602 C160.101108,44.193209 159.987695,44.0832458 159.985614,43.9469534 C159.984277,43.8292463 160.06588,43.7301246 160.176041,43.7029058 L160.233249,43.6955352 L163.743841,43.6578483 L163.736557,43.0238821 L160.226486,43.0610527 C160.088102,43.0626015 159.97573,42.9531546 159.974169,42.8153134 C159.972831,42.6989338 160.054053,42.5996224 160.163777,42.5726475 L160.220764,42.565444 L163.730835,42.5277571 L163.724592,41.8922421 L160.214,41.929929 C160.076136,41.9314778 159.962724,41.8209983 159.961163,41.6852222 C159.960271,41.5675151 160.041174,41.468014 160.151453,41.441012 L160.208798,41.433804 L163.718869,41.3966333 L163.711586,40.7621508 L160.201515,40.7993215 C160.064171,40.8013865 159.950758,40.6909071 159.948677,40.5535822 C159.947785,40.4367601 160.02907,40.3373855 160.138804,40.3107266 L160.195792,40.3037127 L163.705863,40.2660258 L163.69962,39.6310271 L160.190069,39.668714 C160.051685,39.6702628 159.937752,39.5602996 159.937232,39.4234909 C159.935448,39.3062263 160.016606,39.2071678 160.126648,39.1806083 L160.183826,39.1736215 L163.694418,39.1354183 L163.687134,38.5004196 L160.177063,38.5381065 C160.039199,38.5396553 159.926307,38.4296921 159.924746,38.2933997 C159.923408,38.1752501 160.00463,38.0756858 160.115009,38.0489999 L160.172381,38.0419815 L163.681932,38.0048108 L163.675169,37.3692959 L160.165098,37.4069828 C160.027234,37.4085316 159.913301,37.2985684 159.91226,37.1622759 C159.910922,37.0441264 159.991762,36.9453207 160.102032,36.9188515 L160.159375,36.9118903 L163.669446,36.8736871 L163.662683,36.2386884 L160.152612,36.2763753 C160.015268,36.2779241 159.901335,36.1679609 159.899774,36.0316685 C159.898437,35.9135189 159.98004,35.8143339 160.090201,35.7874312 L160.14741,35.7802503 L163.65748,35.7430796 L163.650197,35.1080809 L160.140126,35.1457678 C160.002262,35.1473166 159.88989,35.0373534 159.887793,34.9005447 C159.886469,34.7828376 159.967692,34.6837159 160.077744,34.6571473 L160.134924,34.650159 L163.644995,34.6124721 L164.36709,34.6040234 Z M107.337105,34.6244307 L109.698151,44.8791116 L110.25775,47.3085811 L111.299013,51.8311319 L112.214429,55.8046355 L112.958645,59.0318989 C113.378983,58.6246244 113.918778,58.3249684 114.529482,58.1870621 C116.349455,57.772699 118.160486,58.9262137 118.572519,60.7647485 C118.981358,62.5961947 117.836608,64.4237744 116.015357,64.8381375 C114.365102,65.2140884 112.721381,64.2945399 112.125512,62.7468659 L112.06367,62.5723511 L112.045783,62.5755732 L111.975514,62.2604511 L111.086289,58.2566597 C111.070318,58.1896398 111.052432,58.1142425 111.036461,58.0452894 C110.932974,57.6077271 110.819265,57.1224776 110.697252,56.5966296 C110.384874,55.2549438 110.020751,53.6561339 109.644491,51.936817 C109.410686,50.8690104 109.17241,49.7573832 108.939243,48.6328675 C107.600934,42.1770519 106.440213,35.3532715 107.337105,34.6244307 Z M104.43607,62.3196734 C104.289783,63.4751214 105.106822,64.5397058 106.255405,64.6827674 C107.331047,64.8224019 108.32753,64.1053564 108.563131,63.0556794 L108.591538,62.9035194 L108.606231,62.7759239 C108.709719,61.649475 107.901622,60.6248446 106.780508,60.4856495 C105.633203,60.3367882 104.579164,61.160359 104.43607,62.3196734 Z M114.815031,59.4481952 C113.711164,59.6950087 113.004639,60.7924587 113.212892,61.9040859 C113.214808,61.9266407 113.218641,61.9498399 113.225029,61.97755 C113.228223,61.9955938 113.232056,62.0129932 113.238444,62.0278149 C113.514411,63.1387977 114.625304,63.8302621 115.73428,63.5757156 C116.862421,63.3198802 117.575973,62.1856982 117.321726,61.0489385 C117.068757,59.9076678 115.942533,59.1904266 114.815031,59.4481952 Z M202.200104,39.2041795 C203.338132,39.2041795 204.437825,39.3968279 205.499182,39.7843015 C206.560539,40.1706867 207.518937,40.7344826 208.374375,41.4746008 L206.423625,44.6625509 C205.884732,44.0846057 205.247261,43.6405348 204.511211,43.3303382 C203.775162,43.0190532 203.005158,42.8644991 202.200104,42.8644991 C201.387382,42.8644991 200.626141,43.0168764 199.915284,43.3238077 C199.205522,43.6296507 198.58448,44.0443345 198.054349,44.5667709 C197.524219,45.0902956 197.104714,45.7063351 196.796932,46.4170663 C196.488054,47.126709 196.33471,47.8809764 196.33471,48.6809571 C196.33471,49.4798493 196.488054,50.2297632 196.796932,50.931787 C197.104714,51.6338108 197.524219,52.2476735 198.054349,52.7744635 C198.58448,53.3023419 199.205522,53.7192026 199.915284,54.0250455 C200.626141,54.3308884 201.387382,54.4843541 202.200104,54.4843541 C203.005158,54.4843541 203.775162,54.3287116 204.511211,54.018515 C205.247261,53.7083185 205.884732,53.2642476 206.423625,52.685214 L208.374375,55.8742525 C207.518937,56.6056634 206.560539,57.166194 205.499182,57.5580213 C204.437825,57.9487601 203.338132,58.1446737 202.200104,58.1446737 C201.32714,58.1446737 200.487036,58.0314792 199.678696,57.8061785 C198.869261,57.5808779 198.112401,57.261974 197.405925,56.849467 C196.700544,56.4380484 196.056501,55.9417338 195.474891,55.3637886 C194.892185,54.7858434 194.393818,54.1458589 193.978695,53.4449235 C193.564667,52.7428996 193.243741,51.990809 193.017011,51.1864747 C192.789187,50.3832288 192.67637,49.5484191 192.67637,48.6809571 C192.67637,47.8134951 192.789187,46.9754201 193.017011,46.1678206 C193.243741,45.3602211 193.564667,44.6048652 193.978695,43.9039298 C194.393818,43.2019059 194.892185,42.5630098 195.474891,41.9839762 C196.056501,41.406031 196.700544,40.9108049 197.405925,40.4982978 C198.112401,40.0857908 198.869261,39.766887 199.678696,39.5415863 C200.487036,39.3162856 201.32714,39.2041795 202.200104,39.2041795 Z M9.52373418,39.2276891 C10.3966975,39.2276891 11.2400874,39.3408837 12.0528086,39.5661843 C12.8655298,39.791485 13.6223901,40.108212 14.3244848,40.5163654 C15.0265796,40.9245188 15.6684321,41.4175681 16.2500426,41.9955133 C16.831653,42.5745469 17.3278292,43.2123547 17.738571,43.9089364 C18.1493129,44.6066066 18.4680485,45.3586973 18.694778,46.1662968 C18.9215075,46.9749847 19.0354199,47.8119713 19.0354199,48.6794333 C19.0354199,49.5468953 18.9215075,50.3817051 18.694778,51.1860393 C18.4680485,51.9892852 18.1493129,52.7413759 17.738571,53.4433997 C17.3278292,54.1443351 16.831653,54.7843197 16.2500426,55.3633533 C15.6684321,55.9412985 15.0265796,56.4365246 14.3244848,56.8490316 C13.6223901,57.2615386 12.8655298,57.5804425 12.0528086,57.8057432 C11.2400874,58.0310438 10.3966975,58.14315 9.52373418,58.14315 C8.65077086,58.14315 7.81066687,58.0310438 7.00232693,57.8057432 C6.19289167,57.5804425 5.43603137,57.2615386 4.7295554,56.8490316 C4.02417474,56.4365246 3.38013153,55.9412985 2.79852109,55.3633533 C2.21581533,54.7843197 1.71744856,54.1443351 1.30232547,53.4433997 C0.887202379,52.7413759 0.567371398,51.9892852 0.33954659,51.1860393 C0.112817093,50.3817051 -9.65645341e-11,49.5468953 -9.65645341e-11,48.6794333 C-9.65645341e-11,47.8119713 0.112817093,46.9749847 0.33954659,46.1662968 C0.567371398,45.3586973 0.887202379,44.6066066 1.30232547,43.9089364 C1.71744856,43.2123547 2.21581533,42.5745469 2.79852109,41.9955133 C3.38013153,41.4175681 4.02417474,40.9245188 4.7295554,40.5163654 C5.43603137,40.108212 6.19289167,39.791485 7.00232693,39.5661843 C7.81066687,39.3408837 8.65077086,39.2276891 9.52373418,39.2276891 Z M236.632428,39.4586495 C237.649972,39.4586495 238.60618,39.6502095 239.501049,40.0322411 C240.394823,40.4153611 241.17578,40.9388858 241.843921,41.6017269 C242.510965,42.2645681 243.036715,43.0406037 243.422265,43.9298339 C243.807814,44.8179757 243.999494,45.7681568 243.999494,46.7803772 L243.999494,57.7493636 L240.315961,57.7493636 L240.315961,54.089044 L232.9478,54.089044 L232.9478,57.7493636 L229.277411,57.7493636 L229.277411,46.7803772 C229.277411,45.7681568 229.470186,44.8179757 229.85464,43.9298339 C230.24019,43.0406037 230.763749,42.2645681 231.427507,41.6017269 C232.090171,40.9388858 232.868937,40.4153611 233.763807,40.0322411 C234.657581,39.6502095 235.613788,39.4586495 236.632428,39.4586495 Z M214.609327,39.4584318 L214.609327,46.7801595 L221.964344,46.7801595 L221.964344,39.4584318 L225.647877,39.4584318 L225.647877,57.7491459 L221.964344,57.7491459 L221.964344,50.4404791 L214.609327,50.4404791 L214.609327,57.7491459 L210.925794,57.7491459 L210.925794,39.4584318 L214.609327,39.4584318 Z M251.301607,39.458323 L251.301607,57.7490371 L247.618075,57.7490371 L247.618075,39.458323 L251.301607,39.458323 Z M262.503249,39.4590849 C263.179057,39.4590849 263.829672,39.5461576 264.455095,39.7203031 C265.079422,39.8944485 265.663223,40.1415174 266.206498,40.4604212 C266.749772,40.7793251 267.245949,41.1613566 267.696122,41.6076044 C268.145199,42.0538521 268.529654,42.5501666 268.85058,43.0943711 C269.171506,43.6385756 269.420142,44.2208745 269.595392,44.8412676 C269.770642,45.4616608 269.858267,46.1081758 269.858267,46.7797241 C269.858267,47.4088246 269.779404,48.0215989 269.620584,48.6169586 C269.462859,49.2123184 269.23613,49.7772027 268.940396,50.3126999 C268.645757,50.8492856 268.284304,51.3423349 267.856037,51.7929362 C267.42777,52.2435376 266.949119,52.6342764 266.417893,52.9662412 L268.459554,57.7487105 L264.54491,57.7487105 L262.940279,54.0633575 L258.819717,54.0883909 L258.819717,57.7487105 L255.136184,57.7487105 L255.136184,39.4590849 L262.503249,39.4590849 Z M51.7854552,39.4574523 L51.7854552,43.1188603 L42.852094,43.1188603 L42.852094,46.7791799 L48.8971186,46.7791799 L48.8971186,50.4394996 L42.852094,50.4394996 L42.852094,54.0878467 L51.7854552,54.0878467 L51.7854552,57.7481663 L39.1674658,57.7481663 L39.1674658,39.4574523 L51.7854552,39.4574523 Z M58.7271019,39.4574523 L65.8258163,51.5115825 L65.8258163,39.4574523 L69.5093491,39.4574523 L69.5093491,57.7481663 L65.568418,57.7481663 L58.470799,45.707097 L58.470799,57.7481663 L54.7872662,57.7481663 L54.7872662,39.4574523 L58.7271019,39.4574523 Z M29.2360567,39.4581053 C29.9118639,39.4581053 30.562479,39.545178 31.1879019,39.7193235 C31.8122295,39.8934689 32.3960306,40.1405378 32.9393051,40.4594416 C33.4825797,40.7783455 33.9787558,41.1603771 34.4289289,41.6066248 C34.8780066,42.0528725 35.262461,42.549187 35.5833873,43.0933915 C35.9043136,43.6375961 36.1529493,44.2198949 36.3281992,44.8402881 C36.503449,45.4606812 36.5910739,46.1071962 36.5910739,46.7787446 C36.5910739,47.7822577 36.3982991,48.7280852 36.0138447,49.6173154 C35.6282951,50.5054572 35.1025455,51.2814928 34.4344054,51.9443339 C33.7673607,52.6082634 32.9864035,53.1306998 32.0926293,53.5138198 C31.1977597,53.8958513 30.245934,54.0874113 29.2360567,54.0874113 L25.5525238,54.0874113 L25.5525238,57.747731 L21.868991,57.747731 L21.868991,39.4581053 L29.2360567,39.4581053 Z M9.52373418,42.8629753 C8.71101299,42.8629753 7.94977144,43.016441 7.23891423,43.322284 C6.52915233,43.6281269 5.90811066,44.0428108 5.37797986,44.5663355 C4.84784905,45.0887719 4.42834472,45.7058998 4.12056216,46.4155425 C3.8116843,47.1251852 3.65834068,47.8805411 3.65834068,48.6794333 C3.65834068,49.4783255 3.8116843,50.2293278 4.12056216,50.9302632 C4.42834472,51.632287 4.84784905,52.2461498 5.37797986,52.7740281 C5.90811066,53.3008181 6.52915233,53.7176788 7.23891423,54.0235217 C7.94977144,54.3293647 8.71101299,54.4828303 9.52373418,54.4828303 C10.3287882,54.4828303 11.0878391,54.3293647 11.8019823,54.0235217 C12.5172207,53.7176788 13.1371671,53.3008181 13.664012,52.7740281 C14.1897615,52.2461498 14.6070752,51.632287 14.9148578,50.9302632 C15.2226403,50.2293278 15.3770793,49.4783255 15.3770793,48.6794333 C15.3770793,47.8805411 15.2226403,47.1251852 14.9148578,46.4155425 C14.6070752,45.7058998 14.1897615,45.0887719 13.664012,44.5663355 C13.1371671,44.0428108 12.5172207,43.6281269 11.8019823,43.322284 C11.0878391,43.016441 10.3287882,42.8629753 9.52373418,42.8629753 Z M111.881247,35.0569665 C112.706338,35.6051373 112.444926,40.7746531 111.897243,46.3756429 L111.86336,46.7190642 L111.856334,46.7893061 L111.83717,46.9752218 L111.81609,47.1572709 L111.375961,51.192639 L111.370531,51.2349291 L111.365101,51.2777026 L110.320034,46.8376378 L110.558943,45.0332573 L110.585134,44.8354199 L110.593438,44.7709777 L111.881247,35.0569665 Z M262.503249,43.1194045 L258.819717,43.1194045 L258.819717,50.4411322 L262.503249,50.4411322 C263.008188,50.4411322 263.483553,50.3453522 263.92825,50.1537922 C264.372946,49.9622322 264.762877,49.701014 265.095852,49.3690493 C265.429922,49.0370845 265.692797,48.6485225 265.885572,48.2022748 C266.078346,47.7560271 266.174734,47.2814807 266.174734,46.7797241 C266.174734,46.2779676 266.078346,45.8045096 265.885572,45.3582619 C265.692797,44.9109258 265.429922,44.5223638 265.095852,44.190399 C264.762877,43.8595227 264.372946,43.5972161 263.92825,43.4067445 C263.483553,43.2151845 263.008188,43.1194045 262.503249,43.1194045 Z M236.632428,43.1189692 C236.127489,43.1189692 235.649934,43.2147492 235.200856,43.4063091 C234.751778,43.5978691 234.360752,43.8590873 234.026682,44.1910521 C233.692612,44.5230168 233.429737,44.9115789 233.236962,45.3578266 C233.044187,45.8040743 232.9478,46.2786206 232.9478,46.7803772 L232.9478,50.4406968 L240.315961,50.4406968 L240.315961,46.7803772 C240.315961,46.2786206 240.219573,45.8040743 240.026799,45.3578266 C239.835119,44.9115789 239.571149,44.5230168 239.238174,44.1910521 C238.904104,43.8590873 238.513078,43.5978691 238.062905,43.4063091 C237.613827,43.2147492 237.137367,43.1189692 236.632428,43.1189692 Z M29.2360567,43.118425 L25.5525238,43.118425 L25.5525238,50.4401526 L29.2360567,50.4401526 C29.7409953,50.4401526 30.2163605,50.3443726 30.661057,50.1528126 C31.1057535,49.9612526 31.4956845,49.7000345 31.8286592,49.3680697 C32.1627292,49.0361049 32.425604,48.6475429 32.6183788,48.2012952 C32.8111537,47.7550475 32.9075411,47.2805012 32.9075411,46.7787446 C32.9075411,46.276988 32.8111537,45.8035301 32.6183788,45.3572824 C32.425604,44.9099462 32.1627292,44.5213842 31.8286592,44.1894195 C31.4956845,43.8585431 31.1057535,43.5962365 30.661057,43.4057649 C30.2163605,43.2142049 29.7409953,43.118425 29.2360567,43.118425 Z" id="Combined-Shape" fill="#1F1F20"></path>
    </g>
</svg>