<?xml version="1.0" encoding="UTF-8"?>
<svg width="270px" height="102px" viewBox="0 0 270 102" version="1.1" xmlns="http://www.w3.org/2000/svg" xmlns:xlink="http://www.w3.org/1999/xlink">
    <!-- Generator: Sketch 64 (93537) - https://sketch.com -->
    <title>orangepeople</title>
    <desc>Created with Sketch.</desc>
    <g id="orangepeople" stroke="none" stroke-width="1" fill="none" fill-rule="evenodd">
        <g id="orangepeople_logo" transform="translate(2.000000, 32.000000)" fill="#1F1F20" fill-rule="nonzero">
            <g id="orangepeople" transform="translate(0.697024, 0.384573)">
                <path d="M9.51584062,27.7234697 C12.315002,27.7234697 14.6367363,26.863447 16.4810436,25.1434016 C18.3253508,23.4233561 19.2475044,21.2618542 19.2475044,18.6588957 C19.2475044,15.9774561 18.338431,13.7505532 16.5202841,11.978187 C14.7021373,10.2058208 12.4196435,9.31963772 9.67280294,9.31963772 C6.89980196,9.31963772 4.5944179,10.1992807 2.75665074,11.9585667 C0.918883579,13.7178527 1.12850905e-14,15.9185952 1.12850905e-14,18.5607943 C1.12850905e-14,21.1768329 0.909073434,23.3579552 2.7272203,25.104161 C4.54536717,26.8503668 6.80824061,27.7234697 9.51584062,27.7234697 Z M9.63356236,24.3880204 C7.86773627,24.3880204 6.42237491,23.8419223 5.29747829,22.7497262 C4.17258166,21.6575301 3.61013335,20.2481392 3.61013335,18.5215537 C3.61013335,16.781888 4.15950147,15.3496068 5.25823771,14.2247102 C6.35697394,13.0998136 7.76309472,12.5373653 9.47660004,12.5373653 C11.2424261,12.5373653 12.7074078,13.0998136 13.871545,14.2247102 C15.0356822,15.3496068 15.6177508,16.7688078 15.6177508,18.4823131 C15.6177508,20.2088986 15.0585725,21.6248296 13.940216,22.7301059 C12.8218595,23.8353822 11.3863083,24.3880204 9.63356236,24.3880204 Z M27.0367595,27.4095451 L27.0367595,17.9721856 C27.0367595,16.4679634 27.4585958,15.1664841 28.3022682,14.0677479 C29.1459407,12.9690117 30.1433055,12.4196435 31.2943625,12.4196435 C32.3538581,12.4196435 33.5049151,13.0082522 34.7475335,14.1854696 L34.7475335,14.1854696 L36.6310813,11.0462232 C35.1660997,9.68588314 33.7599789,9.00571309 32.412719,9.00571309 C30.6861335,9.00571309 28.959548,10.3987537 27.2329624,13.1848348 L27.2329624,13.1848348 L27.0367595,13.4987595 L27.0367595,9.3588783 L23.4462465,9.3588783 L23.4462465,27.4095451 L27.0367595,27.4095451 Z M49.6197133,27.7234697 C50.1560012,27.7234697 50.6693988,27.6286383 51.159906,27.4389755 C51.6504133,27.2493127 52.3011529,26.8928774 53.1121249,26.3696697 L53.1121249,26.3696697 L53.1121249,24.1918175 C52.1965114,24.832747 51.5228814,25.1532117 51.091235,25.1532117 C50.6726688,25.1532117 50.4633857,24.8458272 50.4633857,24.2310581 L50.4633857,24.2310581 L50.4633857,16.5595247 C50.4633857,15.0422223 50.4208751,14.0121571 50.3358539,13.469329 C50.2508326,12.926501 50.0513597,12.383673 49.737435,11.840845 C49.4235104,11.298017 49.0703452,10.8631005 48.6779394,10.5360957 C47.500722,9.51584062 45.9376389,9.00571309 43.9886901,9.00571309 C41.3857316,9.00571309 39.3910021,9.82322517 38.0045016,11.4582493 L38.0045016,11.4582493 L38.0045016,15.362687 C39.8488089,13.3483373 41.7454369,12.3411624 43.6943857,12.3411624 C45.8656978,12.3411624 46.9513538,13.4268184 46.9513538,15.5981305 L46.9513538,15.5981305 L46.9513538,16.5595247 L42.3798263,18.1291479 C40.8756041,18.6523556 39.7147369,19.3619561 38.8972248,20.2579494 C38.0797127,21.1539426 37.6709567,22.1709276 37.6709567,23.3089045 C37.6709567,24.564603 38.0895229,25.6077484 38.9266553,26.4383407 C39.7637876,27.268933 40.8102031,27.6842291 42.0659016,27.6842291 C43.779407,27.6842291 45.3948108,27.0956204 46.9121133,25.918403 C47.1867973,27.1217808 48.0893307,27.7234697 49.6197133,27.7234697 Z M43.7924872,25.2316929 C43.033836,25.2316929 42.4157968,24.9962494 41.9383698,24.5253624 C41.4609427,24.0544755 41.2222292,23.4462465 41.2222292,22.7006755 C41.2222292,21.9681846 41.4740229,21.3566856 41.9776103,20.8661784 C42.4811978,20.3756711 43.3412205,19.8884339 44.5576785,19.4044668 L44.5576785,19.4044668 L46.9513538,18.4823131 L46.9513538,23.8386523 C45.9834195,24.767346 44.930464,25.2316929 43.7924872,25.2316929 Z M59.8418843,27.4095451 L59.8418843,14.5190146 C61.0191017,12.8316696 62.4513829,11.9879972 64.1387278,11.9879972 C65.4598274,11.9879972 66.4016013,12.383673 66.9640496,13.1750247 C67.5264979,13.9663764 67.8077221,15.2842059 67.8077221,17.1285131 L67.8077221,17.1285131 L67.8077221,27.4095451 L71.3786148,27.4095451 L71.3786148,17.0892725 C71.3786148,14.8918001 71.1268211,13.2862063 70.6232337,12.2724914 C70.1196462,11.2587764 69.3838854,10.4608846 68.415951,9.87881599 C67.4480167,9.29674739 66.4016013,9.00571309 65.2767047,9.00571309 C63.2492747,9.00571309 61.4376679,9.88862613 59.8418843,11.6544522 L59.8418843,11.6544522 L59.8418843,9.3588783 L56.1925104,9.3588783 L56.1925104,27.4095451 L59.8418843,27.4095451 Z M82.3071163,36.611461 C84.857754,36.611461 86.8949941,36.1013335 88.4188366,35.0810784 C89.9426792,34.0608233 90.7046004,32.6939431 90.7046004,30.9804378 C90.7046004,29.6724185 90.272954,28.5867625 89.4096613,27.7234697 C88.8995338,27.2133422 88.3272753,26.8209364 87.6928859,26.5462523 C87.0584965,26.2715682 85.6360255,25.8922426 83.4254729,25.4082755 C82.1043733,25.1205112 81.1920299,24.8425571 80.6884424,24.5744132 C80.184855,24.3062692 79.9330612,23.9629141 79.9330612,23.5443479 C79.9330612,22.8118571 80.6066912,22.3475102 81.9539511,22.1513074 C83.8767395,21.8635431 85.25997,21.4776774 86.1036424,20.9937102 C86.9473149,20.5097431 87.6372951,19.8132228 88.173583,18.9041494 C88.7098709,17.9950759 88.9780149,17.0696523 88.9780149,16.1278783 C88.9780149,15.3692271 88.8406729,14.6955972 88.5659888,14.1069885 C88.2913048,13.5183798 87.8007975,12.8643701 87.0944671,12.1449595 L87.0944671,12.1449595 L90.743841,12.1449595 L90.743841,9.3588783 L83.3077511,9.3588783 C80.8748352,9.3588783 78.9553168,9.91805657 77.549196,11.0364131 C76.1430752,12.1547696 75.4400148,13.6753421 75.4400148,15.5981305 C75.4400148,18.2272494 76.7676545,20.1304175 79.4229337,21.3076349 C78.5465608,21.5299982 77.8500405,21.8766233 77.3333728,22.3475102 C76.8167052,22.8183972 76.5583714,23.3416049 76.5583714,23.9171334 C76.5583714,24.6757847 77.1600603,25.440976 78.363438,26.2127074 C75.3419134,26.9190378 73.8311511,28.4952011 73.8311511,30.9411972 C73.8311511,32.6677828 74.5996124,34.0444731 76.1365351,35.0712683 C77.6734579,36.0980635 79.7303182,36.611461 82.3071163,36.611461 Z M82.1893946,19.012061 C81.1691395,19.012061 80.325467,18.7079465 79.6583772,18.0997175 C78.9912873,17.4914885 78.6577424,16.7230271 78.6577424,15.7943334 C78.6577424,14.8787199 78.9978274,14.0939083 79.6779975,13.4398986 C80.3581675,12.7858889 81.1822197,12.4588841 82.150154,12.4588841 C83.1704091,12.4588841 84.0206217,12.7728088 84.7007917,13.400658 C85.3809618,14.0285073 85.7210468,14.8133189 85.7210468,15.7550928 C85.7210468,16.6837866 85.3842318,17.458788 84.7106018,18.0800972 C84.0369719,18.7014064 83.1965695,19.012061 82.1893946,19.012061 Z M82.2286352,33.766519 C78.8801057,33.766519 77.2058409,32.8378253 77.2058409,30.9804378 C77.2058409,30.182546 77.5884366,29.5285364 78.3536279,29.0184088 C79.1188192,28.5082813 80.1031038,28.2532175 81.3064815,28.2532175 C83.0461473,28.2532175 84.4653482,28.5180914 85.5640845,29.0478393 C86.6628207,29.5775871 87.2121888,30.2610272 87.2121888,31.0981596 C87.2121888,31.9483721 86.7772724,32.6056518 85.9074395,33.0699987 C85.0376067,33.5343456 83.8113386,33.766519 82.2286352,33.766519 Z M101.51538,27.6842291 C102.967282,27.6842291 104.23279,27.5272668 105.311906,27.2133422 C106.391022,26.8994175 107.479948,26.3762098 108.578685,25.643719 L108.578685,25.643719 L108.578685,22.1513074 C106.590495,23.616289 104.419183,24.3487798 102.064748,24.3487798 C100.377403,24.3487798 99.000713,23.8386523 97.9346773,22.8183972 C96.8686415,21.7981421 96.289843,20.4247218 96.1982816,18.6981363 L96.1982816,18.6981363 L108.892609,18.6981363 L108.892609,18.2468697 C108.892609,15.4346281 108.179739,13.1913749 106.753998,11.5171102 C105.328257,9.84284546 103.418548,9.00571309 101.024873,9.00571309 C98.5396362,9.00571309 96.5187463,9.8657358 94.9622033,11.5857812 C93.4056603,13.3058266 92.6273888,15.5392696 92.6273888,18.2861102 C92.6273888,20.1173373 92.9969043,21.7294711 93.7359352,23.1225117 C94.4749661,24.5155523 95.4592507,25.6240987 96.6887889,26.4481508 C97.918327,27.272203 99.5271908,27.6842291 101.51538,27.6842291 Z M105.360957,16.5595247 L96.2767628,16.5595247 C96.5252864,15.1337836 97.0583043,14.0350474 97.8758164,13.263316 C98.6933285,12.4915846 99.743014,12.1057189 101.024873,12.1057189 C102.306732,12.1057189 103.326987,12.4915846 104.085638,13.263316 C104.844289,14.0350474 105.269396,15.1337836 105.360957,16.5595247 L105.360957,16.5595247 Z M116.171737,36.611461 L116.171737,26.9582784 C117.571317,27.4684059 118.846636,27.7234697 119.997693,27.7234697 C122.600652,27.7234697 124.742533,26.8536368 126.423338,25.1139711 C128.104143,23.3743054 128.944546,21.1506726 128.944546,18.4430726 C128.944546,15.5785102 128.051822,13.3483373 126.266376,11.7525537 C124.48093,10.1567701 121.985883,9.3588783 118.781235,9.3588783 L118.781235,9.3588783 L112.522363,9.3588783 L112.522363,36.611461 L116.171737,36.611461 Z M119.624908,24.6430842 C118.42153,24.6430842 117.270473,24.36186 116.171737,23.7994117 L116.171737,23.7994117 L116.171737,12.6943276 L118.702754,12.6943276 C120.377019,12.6943276 121.649068,12.9003406 122.518901,13.3123667 C123.388733,13.7243928 124.075444,14.3816725 124.579031,15.2842059 C125.082618,16.1867392 125.334412,17.2266146 125.334412,18.403832 C125.334412,20.235059 124.801394,21.7327412 123.735359,22.8968784 C122.669323,24.0610156 121.299173,24.6430842 119.624908,24.6430842 Z M140.854062,27.6842291 C142.305963,27.6842291 143.571472,27.5272668 144.650588,27.2133422 C145.729704,26.8994175 146.81863,26.3762098 147.917366,25.643719 L147.917366,25.643719 L147.917366,22.1513074 C145.929177,23.616289 143.757864,24.3487798 141.40343,24.3487798 C139.716085,24.3487798 138.339394,23.8386523 137.273359,22.8183972 C136.207323,21.7981421 135.628524,20.4247218 135.536963,18.6981363 L135.536963,18.6981363 L148.231291,18.6981363 L148.231291,18.2468697 C148.231291,15.4346281 147.51842,13.1913749 146.092679,11.5171102 C144.666938,9.84284546 142.75723,9.00571309 140.363554,9.00571309 C137.878318,9.00571309 135.857428,9.8657358 134.300885,11.5857812 C132.744342,13.3058266 131.96607,15.5392696 131.96607,18.2861102 C131.96607,20.1173373 132.335586,21.7294711 133.074617,23.1225117 C133.813647,24.5155523 134.797932,25.6240987 136.02747,26.4481508 C137.257008,27.272203 138.865872,27.6842291 140.854062,27.6842291 Z M144.699638,16.5595247 L135.615444,16.5595247 C135.863968,15.1337836 136.396986,14.0350474 137.214498,13.263316 C138.03201,12.4915846 139.081695,12.1057189 140.363554,12.1057189 C141.645413,12.1057189 142.665668,12.4915846 143.42432,13.263316 C144.182971,14.0350474 144.608077,15.1337836 144.699638,16.5595247 L144.699638,16.5595247 Z" id="orangepe"></path>
                <path d="M160.572453,27.7234697 C163.371614,27.7234697 165.693349,26.863447 167.537656,25.1434016 C169.381963,23.4233561 170.304117,21.2618542 170.304117,18.6588957 C170.304117,15.9774561 169.395043,13.7505532 167.576896,11.978187 C165.75875,10.2058208 163.476256,9.31963772 160.729415,9.31963772 C157.956414,9.31963772 155.65103,10.1992807 153.813263,11.9585667 C151.975496,13.7178527 151.056612,15.9185952 151.056612,18.5607943 C151.056612,21.1768329 151.965686,23.3579552 153.783833,25.104161 C155.601979,26.8503668 157.864853,27.7234697 160.572453,27.7234697 Z M160.690175,24.3880204 C158.924349,24.3880204 157.478987,23.8419223 156.354091,22.7497262 C155.229194,21.6575301 154.666746,20.2481392 154.666746,18.5215537 C154.666746,16.781888 155.216114,15.3496068 156.31485,14.2247102 C157.413586,13.0998136 158.819707,12.5373653 160.533212,12.5373653 C162.299038,12.5373653 163.76402,13.0998136 164.928157,14.2247102 C166.092295,15.3496068 166.674363,16.7688078 166.674363,18.4823131 C166.674363,20.2088986 166.115185,21.6248296 164.996828,22.7301059 C163.878472,23.8353822 162.442921,24.3880204 160.690175,24.3880204 Z" id="o"></path>
                <path d="M177.681346,36.611461 L177.681346,26.9582784 C179.080926,27.4684059 180.356245,27.7234697 181.507302,27.7234697 C184.110261,27.7234697 186.252142,26.8536368 187.932947,25.1139711 C189.613752,23.3743054 190.454155,21.1506726 190.454155,18.4430726 C190.454155,15.5785102 189.561431,13.3483373 187.775985,11.7525537 C185.990539,10.1567701 183.495492,9.3588783 180.290844,9.3588783 L180.290844,9.3588783 L174.031972,9.3588783 L174.031972,36.611461 L177.681346,36.611461 Z M181.134517,24.6430842 C179.931139,24.6430842 178.780082,24.36186 177.681346,23.7994117 L177.681346,23.7994117 L177.681346,12.6943276 L180.212363,12.6943276 C181.886628,12.6943276 183.158677,12.9003406 184.02851,13.3123667 C184.898342,13.7243928 185.585053,14.3816725 186.08864,15.2842059 C186.592227,16.1867392 186.844021,17.2266146 186.844021,18.403832 C186.844021,20.235059 186.311003,21.7327412 185.244968,22.8968784 C184.178932,24.0610156 182.808782,24.6430842 181.134517,24.6430842 Z" id="p"></path>
                <path d="M198.007966,27.4095451 L198.007966,2.82127263e-15 L194.437073,2.82127263e-15 L194.437073,27.4095451 L198.007966,27.4095451 Z M211.173181,27.6842291 C212.625082,27.6842291 213.890591,27.5272668 214.969707,27.2133422 C216.048823,26.8994175 217.137749,26.3762098 218.236485,25.643719 L218.236485,25.643719 L218.236485,22.1513074 C216.248296,23.616289 214.076984,24.3487798 211.722549,24.3487798 C210.035204,24.3487798 208.658514,23.8386523 207.592478,22.8183972 C206.526442,21.7981421 205.947643,20.4247218 205.856082,18.6981363 L205.856082,18.6981363 L218.55041,18.6981363 L218.55041,18.2468697 C218.55041,15.4346281 217.837539,13.1913749 216.411798,11.5171102 C214.986057,9.84284546 213.076349,9.00571309 210.682673,9.00571309 C208.197437,9.00571309 206.176547,9.8657358 204.620004,11.5857812 C203.063461,13.3058266 202.285189,15.5392696 202.285189,18.2861102 C202.285189,20.1173373 202.654705,21.7294711 203.393736,23.1225117 C204.132767,24.5155523 205.117051,25.6240987 206.346589,26.4481508 C207.576128,27.272203 209.184991,27.6842291 211.173181,27.6842291 Z M215.018758,16.5595247 L205.934563,16.5595247 C206.183087,15.1337836 206.716105,14.0350474 207.533617,13.263316 C208.351129,12.4915846 209.400815,12.1057189 210.682673,12.1057189 C211.964532,12.1057189 212.984787,12.4915846 213.743439,13.263316 C214.50209,14.0350474 214.927196,15.1337836 215.018758,16.5595247 L215.018758,16.5595247 Z" id="le"></path>
            </g>
        </g>
    </g>
</svg>