<?xml version="1.0" encoding="UTF-8"?>
<svg width="270px" height="102px" viewBox="0 0 270 102" version="1.1" xmlns="http://www.w3.org/2000/svg" xmlns:xlink="http://www.w3.org/1999/xlink">
    <!-- Generator: Sketch 64 (93537) - https://sketch.com -->
    <title>park</title>
    <desc>Created with Sketch.</desc>
    <g id="park" stroke="none" stroke-width="1" fill="none" fill-rule="evenodd">
        <path d="M50.7830158,2 L52.3717947,2 C55.7082171,2 59.0446394,2.32198934 62.3281295,3.01974723 C68.6302455,4.3614838 74.6146327,6.99124632 79.910495,10.6943981 C87.80139,16.222339 93.8387772,23.9507005 97.3869284,33.0207986 C98.6050464,36.0799717 99.4524358,39.2464288 100.034961,42.4666652 C100.617554,45.7940484 100.829351,49.2288529 100.723418,52.6100839 C100.511622,58.9429982 99.0817072,65.1686284 96.5396743,70.9649167 C95.2686918,73.7557425 93.7858449,76.4392156 92.0382016,78.9616255 C88.5428472,84.0065824 84.2001711,88.3000708 79.1691054,91.7349439 C76.6270726,93.4523804 73.9791753,94.9014696 71.1722783,96.135785 C65.3996876,98.6046214 59.256436,99.9462894 52.95432,100 L52.424727,100 C44.0043067,100 35.6896832,97.7995795 28.3813134,93.5059538 L37.2254622,68.7108541 L53.3780485,68.7108541 C56.23781,68.6571435 59.0446394,68.1205175 61.7455366,67.1007702 C64.5523659,66.0273124 67.2532631,64.5782918 69.6364315,62.7535026 C72.1254645,60.928782 74.3497686,58.7283615 76.2563439,56.2595936 C78.1099194,53.8444678 79.592834,51.2146367 80.6519522,48.3165269 C81.658206,45.6866957 82.0817992,42.8959386 81.8700026,40.0514708 C81.7640705,38.8170868 81.5522739,37.6363449 81.128613,36.5093136 C80.7578844,35.4359244 80.2282914,34.3625351 79.592834,33.4501406 C77.1566656,29.9079834 72.9729215,27.9759102 67.8887882,27.9759102 L32.6710572,27.9759102 L28.6991098,39.0317235 L32.8299216,39.0317235 C36.8547336,39.0317235 40.7737488,40.3198181 44.0572389,42.7350125 L49.9356264,47.0821429 L55.3375561,47.0821429 C61.004147,47.0821429 65.717484,51.429342 66.1941448,57.1719196 C66.1941448,57.4403355 66.1411449,57.7086828 65.9822805,57.8696775 C65.8234161,58.0843142 65.5586196,58.1916669 65.3467554,58.1379562 L62.063333,58.1379562 C62.1692651,57.7086828 62.222265,57.2256302 62.222265,56.7425776 C62.222265,53.4687678 59.6272323,50.8390053 56.3966744,50.8390053 C56.1848778,50.8390053 55.9730135,50.8390053 55.761217,50.892716 C54.8079631,51 53.9077092,51.3757 53.113252,51.9123946 C52.3188625,52.5027312 51.6833374,53.2541312 51.2067443,54.1127465 C50.5182193,55.347199 50.3593549,56.7962883 50.6771513,58.1379562 L45.3282215,58.1379562 C38.6024446,58.1379562 32.0355321,60.2310927 26.5277379,64.2025918 C23.8269084,66.1347336 21.44374,68.4961488 19.4842323,71.179622 C17.4717925,73.9167371 15.9359458,76.9759102 14.8768275,80.24972 C14.7708276,80.6791306 14.612031,81.1084726 14.5060311,81.537746 C9.58089753,75.3121843 6.24447521,67.9058122 4.81456059,60.0701666 C4.30987688,57.2338618 4.00392592,54.357291 4,51.4754385 L4,51.3637643 C4,50.9563044 4.00717496,50.5489131 4.02010341,50.1412474 C4.12610324,43.8083331 5.45001803,37.5827029 7.88618641,31.7864146 C9.10423676,28.9419468 10.5341514,26.2584737 12.2287948,23.7359952 C15.6182847,18.6374649 19.854961,14.2901972 24.8330945,10.7480401 C27.3221951,8.97696156 29.9700924,7.47423033 32.7239895,6.2398464 C38.3905803,3.66372591 44.5338997,2.21470529 50.7830158,2 Z M34.8424291,46.9211483 C34.8424291,47.5651955 35.3719544,48.0481795 35.9544797,48.0481795 L46.7052039,48.0481795 C46.9170004,48.0481795 47.1288647,47.8871163 47.1288647,47.618769 C47.1288647,47.5114849 47.0758648,47.3504903 46.9699327,47.2967796 L42.3625278,43.8619752 C40.1382914,42.2518913 37.4902587,41.3932073 34.8424291,41.3932073 L34.8424291,46.9211483 Z M51.9481339,56.7962883 C51.9481339,54.3274518 53.9605737,52.2880259 56.3966744,52.2880259 C58.8328428,52.2880259 60.8452149,54.3274518 60.8452149,56.7962883 C60.8452149,59.2650561 58.885775,61.304482 56.3966744,61.304482 C53.960506,61.304482 51.9481339,59.2650561 51.9481339,56.7962883 Z M54.3313023,56.7962883 C54.3313023,57.9233195 55.2845562,58.8894247 56.3966744,58.8894247 C57.5617925,58.8894247 58.4621142,57.9233195 58.4621142,56.7962883 C58.5149787,55.6155464 57.5617925,54.7031518 56.3966744,54.7031518 C55.2315563,54.7031518 54.3313023,55.669257 54.3313023,56.7962883 Z M118.362507,18.1117456 C118.393305,17.9408045 118.459707,17.8692589 118.598671,17.8692589 C118.616811,17.8692589 118.636238,17.8704937 118.657018,17.8728945 C118.709477,17.8789996 118.763357,17.8737177 118.816492,17.8737177 C122.815988,17.8737177 126.815553,17.871111 130.815117,17.8750896 C132.241986,17.8765301 133.630069,18.0985752 134.948366,18.6795142 C138.076579,20.0581554 139.892926,23.1807111 139.605318,26.6289604 C139.407939,28.9963434 138.626681,31.1179472 137.097265,32.9302519 C135.508283,34.8130733 133.453199,35.8883146 131.090202,36.4044305 C129.963463,36.6505527 128.822307,36.7457639 127.669982,36.7419225 C126.789628,36.7389729 125.909342,36.7395216 125.028989,36.7400704 C123.643613,36.7408935 122.258169,36.7417167 120.872997,36.7289578 C120.528531,36.7259396 120.429029,36.8441304 120.362627,37.15487 C119.685609,40.3209842 118.991601,43.483257 118.314448,46.6493712 C118.248249,46.9585331 118.150439,47.0823487 117.805026,47.0780059 C116.018259,47.0551847 114.231086,47.0673262 112.444115,47.0673262 L112.067227,47.0673262 C112.273541,46.1171353 112.469025,45.2153045 112.665118,44.3135422 C114.46549,36.0313371 116.26593,27.7491321 118.066844,19.466927 C118.165128,19.0150855 118.280468,18.5666053 118.362507,18.1117456 Z M122.204966,28.784039 C122.031549,29.5921677 121.859012,30.4004337 121.674426,31.2631648 L122.082045,31.2631648 C123.656338,31.2631648 125.230564,31.266183 126.804858,31.2617243 C126.945582,31.2613813 127.086509,31.2620673 127.227368,31.2626846 C127.72508,31.2650169 128.223401,31.2672806 128.71739,31.2237222 C130.101547,31.10169 131.323117,30.5985388 132.214572,29.4682835 C133.035495,28.4273401 133.327232,27.2227954 133.110426,25.9165915 C132.842448,24.3024605 131.430539,23.2347647 129.581024,23.2235836 C128.563467,23.2174785 127.545977,23.2180959 126.528487,23.2187818 C125.578143,23.2193992 124.6278,23.2200166 123.677457,23.2149956 C123.443729,23.2137743 123.376853,23.2971184 123.331367,23.5145675 C122.963684,25.2726815 122.581922,27.0278458 122.204966,28.784039 Z M142.943433,28.2859639 C144.760186,26.3591725 147.282115,25.3556139 149.787867,25.3556139 C151.039965,25.3556139 152.287933,25.6061949 153.442018,26.1172347 C154.624397,26.6408961 155.617384,27.4127376 156.385239,28.4713101 C156.416511,28.5144569 156.450491,28.5558889 156.484741,28.5968407 C156.490359,28.6035631 156.503965,28.6035631 156.546337,28.6167335 C156.696538,27.8719874 156.838074,27.1282016 156.998427,26.3886688 C157.104969,25.8967673 157.02178,25.906165 157.361169,25.9154254 C157.411732,25.9168659 157.471704,25.9182378 157.543047,25.9178949 C159.106375,25.9120642 160.669636,25.915837 162.232964,25.915837 L162.635845,25.915837 C161.091469,32.9814931 159.554742,40.0124397 158.015917,47.0529897 L152.47631,47.0529897 C152.666581,46.2181085 152.851641,45.405864 153.044011,44.5620653 C152.716603,44.885701 152.41627,45.1851222 152.113298,45.4816625 C148.953135,48.573693 144.055145,47.9266961 141.683213,45.9066829 C140.333915,44.7576323 139.479147,43.2900222 139.178205,41.5581806 C138.304214,36.5281089 139.42696,32.0153193 142.943433,28.2859639 Z M185.258346,18.1596256 C185.295778,17.9856662 185.324004,17.8693275 185.543584,17.8693275 L185.546969,17.8693275 C186.763462,17.8755698 187.980024,17.8755012 189.196585,17.875364 C189.681977,17.8752954 190.167438,17.8752954 190.65283,17.8755698 C190.694255,17.8755698 190.735681,17.8869567 190.81562,17.8987552 C189.57591,23.5444068 188.338298,29.1801119 187.100685,34.8158171 C187.119841,34.8302908 187.139065,34.8448332 187.158153,34.8593069 C187.262189,34.7645759 187.367377,34.6710797 187.47006,34.5749082 C190.483136,31.7521167 193.49479,28.9278161 196.513483,26.1113354 C196.625304,26.0070696 196.806167,25.9249602 196.955285,25.9240685 C199.114676,25.9122014 201.273999,25.9157684 203.43339,25.9164543 C203.504192,25.9164543 203.574994,25.9248916 203.717884,25.9339463 C200.245476,29.1467743 196.819705,32.3163183 193.37004,35.5080873 C195.369958,39.3596121 197.356067,43.1844531 199.363092,47.0496971 C199.210861,47.0573112 199.109734,47.0667089 199.008743,47.0667774 C198.475292,47.0670518 197.941976,47.0667089 197.408593,47.0664345 C195.952754,47.0656113 194.496982,47.0647196 193.041211,47.075009 C192.773165,47.076861 192.654169,46.9800722 192.547628,46.7490411 C191.387519,44.2335594 190.218001,41.722605 189.050852,39.2104845 C188.996701,39.0938714 188.941265,38.9780129 188.868838,38.8246324 C188.776647,38.8962465 188.69339,38.9544159 188.617579,39.0210912 C187.677186,39.8465061 186.735169,40.6698631 185.80283,41.5044013 C185.701772,41.5948108 185.623795,41.7438012 185.59408,41.8789352 C185.242778,43.4758486 184.893574,45.0732423 184.567452,46.6755062 C184.50308,46.9917335 184.380768,47.0786445 184.068928,47.0753763 C182.505464,47.0579972 180.941662,47.0673262 179.378063,47.0673262 L178.982222,47.0673262 C179.066224,46.6558878 179.138582,46.2803936 179.219944,45.9068887 C180.634493,39.4118136 182.050667,32.9171501 183.465555,26.4222122 C184.06534,23.6685654 184.664449,20.9146443 185.258346,18.1596256 Z M172.94822,28.5525277 C174.940218,26.499314 177.319731,25.4343621 180.199257,25.4343621 C180.228025,25.4343621 180.256454,25.4343621 180.285357,25.4347051 C179.896149,27.2787011 179.511477,29.1009522 179.126331,30.9257414 C178.60574,30.8536471 178.106404,30.7554177 177.602803,30.719885 C175.562611,30.5762451 173.895923,31.4179859 172.386881,32.7286485 C171.886461,33.1632037 171.8051,33.7223292 171.682246,34.2922929 C170.782872,38.46615 169.886882,42.6409675 168.988862,46.8152361 C168.973226,46.8882222 168.946354,46.9588074 168.919549,47.047845 L163.436732,47.047845 C164.975083,40.0066776 166.512013,32.9723012 168.049417,25.9353868 L173.546787,25.9353868 C173.343451,26.8243216 173.145937,27.6884246 172.94822,28.5525277 Z M144.673883,38.3300557 C144.859552,40.8873123 146.738037,42.6257392 149.681258,42.6257392 L149.683763,42.6257392 C151.13994,42.5843072 152.643229,41.7566972 153.855864,40.3382018 C153.960984,40.2152779 154.038352,40.0468062 154.073617,39.8869777 C154.579926,37.5985486 155.08048,35.3087475 155.566414,33.0157911 C155.5964,32.8743462 155.534601,32.6734287 155.446403,32.5516709 C153.752504,30.2154304 149.595903,29.3042706 146.966688,31.9015872 C145.184524,33.662102 144.493765,35.8511356 144.673883,38.3300557 Z M149.462354,59.7685503 C149.512444,59.5336778 149.586968,59.4386038 149.846553,59.4386038 L149.849328,59.4386038 C153.848486,59.448756 157.847644,59.4437485 161.846735,59.4464238 C163.79636,59.4477957 165.65447,59.8213692 167.305455,60.9331722 C169.336712,62.3010438 170.53696,64.2384675 170.679174,66.692007 C170.942549,71.2385459 169.129586,74.7204757 165.146808,76.9342039 C163.62565,77.7796488 161.949756,78.2024056 160.225804,78.2522063 C157.95405,78.3178526 155.680266,78.3157261 153.406956,78.3135996 C152.936725,78.3131195 152.466427,78.3127079 151.996264,78.3128451 C151.662832,78.3129823 151.550334,78.4103199 151.481563,78.732858 C150.802988,81.9205113 150.10431,85.1035687 149.4212,88.2902616 C149.367523,88.5410484 149.290968,88.6392092 149.013446,88.6369174 C147.18417,88.6210998 145.35476,88.628714 143.525281,88.628714 L143.192458,88.628714 C143.564337,86.9144329 143.92586,85.2436416 144.289211,83.5733305 C145.578943,77.6460926 146.869488,71.7190604 148.159287,65.7918911 C148.596012,63.7847053 149.0347,61.777794 149.462354,59.7685503 Z M156.883019,64.7967012 C156.386593,64.7986219 155.889964,64.8006112 155.393539,64.8006112 C155.176259,64.8006112 154.959115,64.8001996 154.741836,64.7993079 C154.543306,64.7984847 154.49782,64.8862875 154.461607,65.0577088 C154.110643,66.7208859 153.751015,68.3821424 153.394433,70.0441534 C153.198273,70.9580571 153.003127,71.8721666 152.797017,72.8351164 L153.193738,72.8351164 C155.183028,72.8351164 157.172386,72.8430049 159.161609,72.8292171 C159.616,72.8259931 160.079259,72.7927927 160.522211,72.6966212 C162.34932,72.2997251 163.649476,71.273667 164.146782,69.3871415 C164.810939,66.8674068 163.368908,64.8773015 160.80508,64.816937 C159.49829,64.7862061 158.190621,64.7914193 156.883019,64.7967012 Z M185.306472,70.2934996 C187.227127,68.0627597 189.69626,66.9578849 192.567799,66.9578849 C192.747714,66.9578849 192.928983,66.9622064 193.112013,66.9709181 C195.587372,67.08808 197.684896,68.0451991 199.207409,70.1066443 C199.226361,70.1322992 199.241659,70.1607665 199.306775,70.2650323 C199.508892,69.273478 199.690297,68.3831713 199.87231,67.4901208 L205.412933,67.4901208 C203.873228,74.5346493 202.337788,81.5596967 200.79788,88.6058029 L195.257121,88.6058029 C195.443061,87.7918435 195.625887,86.9910545 195.813384,86.1701669 C195.551836,86.4221884 195.304097,86.6469773 195.071655,86.8868573 C191.837713,90.2235696 186.735913,89.5146305 184.354572,87.3947416 C182.994174,86.1835431 182.17122,84.6513156 181.895052,82.8742692 C181.164763,78.1755846 182.191323,73.9117982 185.306472,70.2934996 Z M239.632533,67.0035698 C239.993718,66.9725644 240.353142,66.9563758 240.70986,66.9563758 C242.152026,66.9563758 243.554662,67.2206759 244.895228,67.8396171 C247.57548,69.0770192 249.16277,71.2105587 249.767633,74.1059933 C250.145807,75.9166517 250.031278,77.7253209 249.647824,79.5232204 C249.627789,79.6172655 249.596314,79.7087724 249.560236,79.8369097 L234.110727,79.8369097 C234.005201,80.6925754 234.198519,81.4572143 234.631115,82.1612145 C235.48947,83.5581022 236.77927,84.2929705 238.335897,84.6091977 C240.294186,85.0070542 243.222245,84.4958772 245.040623,83.1714954 C245.613333,84.4350326 246.1832,85.6920532 246.784475,87.0186301 C246.20283,87.331016 245.644673,87.686343 245.045496,87.9433034 C241.272688,89.5612072 237.453106,89.6811815 233.687405,88.0119679 C230.625594,86.6547286 228.949091,84.1618836 228.65221,80.793823 C228.31959,77.0218009 229.387914,73.6716438 231.900096,70.850773 C233.961407,68.5362089 236.561652,67.2670468 239.632533,67.0035698 Z M213.33219,68.4606847 C215.182719,67.425915 217.140196,66.9524658 219.182893,66.9524658 C219.743825,66.9524658 220.310918,66.9881357 220.884373,67.057692 C222.702886,67.2782279 224.380878,67.8566975 225.836243,69.0165862 C226.554213,69.5887449 227.274348,70.4293196 227.639188,71.1333883 C226.271952,72.1995064 224.918052,73.2551293 223.608961,74.2759055 C223.166279,73.8183706 222.795822,73.3141218 222.316589,72.9618817 C220.464164,71.5999779 218.457748,71.59792 216.459997,72.5424175 C214.417368,73.5081797 213.310868,75.2643729 212.821888,77.4461354 C212.586536,78.4963392 212.512282,79.5624573 212.783103,80.6162281 C213.290426,82.5901449 214.622937,83.6856906 216.54102,84.0814892 C218.669003,84.5205718 220.48711,83.8976521 221.998318,82.3292059 C222.05714,82.2680183 222.109395,82.2004513 222.194141,82.1017418 C222.52006,82.5049487 222.827906,82.8830495 223.132774,83.2636884 C223.762748,84.0500036 224.386022,84.8418066 225.023984,85.621468 C225.162406,85.790557 225.166806,85.892422 225.007806,86.0481348 C223.301724,87.7200236 221.274189,88.7441609 218.926083,89.0535286 C216.506769,89.3724312 214.146006,89.1183518 211.937879,87.99379 C209.236576,86.6180984 207.666479,84.3737765 207.195098,81.3642668 C206.419796,76.4139037 208.647823,71.0800893 213.33219,68.4606847 Z M176.33622,59.4681687 L181.827431,59.4681687 C181.724545,59.9585611 181.625246,60.4468955 181.519382,60.9337895 C180.337477,66.3672739 179.154692,71.8005524 177.971975,77.2338996 C177.164454,80.9437051 176.355918,84.6533049 175.551984,88.3639337 C175.516583,88.5273292 175.486123,88.6338587 175.279539,88.6329048 C174.085653,88.6274107 172.891835,88.6274793 171.69795,88.6274793 C171.190017,88.6275478 170.682152,88.6275478 170.174287,88.6271363 C170.123521,88.6270677 170.072687,88.6117022 170.001952,88.6001781 C172.113759,78.8878162 174.222722,69.1883504 176.33622,59.4681687 Z M187.483327,80.2390876 C187.785826,82.5487129 189.641297,84.2059222 191.938163,84.206128 C191.942765,84.206128 191.94703,84.206128 191.951633,84.206128 C193.913509,84.2006403 195.459645,83.3182222 196.703281,81.8298961 C196.774895,81.7442197 196.822819,81.6250686 196.847119,81.5136688 C197.344898,79.2339514 197.833607,76.952176 198.337344,74.6738305 C198.389396,74.4382721 198.346414,74.2737104 198.207653,74.0871294 C196.540152,71.8456885 192.521229,70.9129896 189.873535,73.3506148 C188.172258,74.9169345 187.479537,76.9305683 187.398378,79.2655055 C187.422814,79.5537456 187.438585,79.8984402 187.483327,80.2390876 Z M236.069084,73.3358667 C235.379341,74.1210844 234.879666,75.003777 234.653046,76.0556271 L245.044955,76.0556271 C245.192312,74.067511 244.181726,72.4267647 242.416213,71.7485567 C240.206191,70.8996133 237.644055,71.5426317 236.069084,73.3358667 Z" id="park-logo" fill="#1F1F20"></path>
    </g>
</svg>