<?xml version="1.0" encoding="UTF-8"?>
<svg width="270px" height="102px" viewBox="0 0 270 102" version="1.1" xmlns="http://www.w3.org/2000/svg" xmlns:xlink="http://www.w3.org/1999/xlink">
    <!-- Generator: Sketch 64 (93537) - https://sketch.com -->
    <title>sony</title>
    <desc>Created with Sketch.</desc>
    <g id="sony" stroke="none" stroke-width="1" fill="none" fill-rule="evenodd">
        <path d="M32.0486788,49 C38.2551779,49 43.4515656,49.8229157 48.4352278,52.6195018 C49.8172743,53.5074544 51.1123575,53.6149643 51.0949649,50.2741921 L57.6038284,50.2741921 L57.6038284,64.8291817 L51.5926622,64.8291817 C51.0601796,61.9197765 49.2259243,60.7876038 47.5508786,59.2612279 C44.5299097,56.5084421 37.9916124,54.2162237 32.4915224,54.2162237 C25.3926467,54.2162237 19.4015489,56.4009322 19.4015489,59.612958 C19.4015489,68.5296478 60,61.4339908 60,78.2931444 C60,87.0877242 51.3036766,92 35.6864178,92 C30.2799804,92 22.098747,90.3342593 17.2716186,87.7925117 C15.7571204,86.9244683 15.1162683,88.6114455 14.8326344,90.7258079 L8.15920961,90.7258079 L8.15920961,75.6850326 L14.194458,75.6850326 C15.5256644,79.5076087 17.3599197,80.2946878 19.0470065,81.8117727 C21.9743227,84.4796123 28.9420845,86.4214279 35.3318754,86.3590456 C44.9647259,86.2648085 48.278694,84.1756644 48.278694,81.1428219 C48.278694,78.1113066 45.0021869,77.3839553 34.4448504,75.7460876 L25.4809478,74.291385 C15.3651169,72.7743001 8,70.5298639 8,62.5250177 C8,54.2162237 17.318445,49 32.0486788,49 Z M97.1209968,49 C114.91733,49 127,57.4922213 127,69.9849981 C127,83.8741203 115.804203,92 96.5559092,92 C78.4351741,92 67,83.7533337 67,70.651315 C67,57.3090505 78.5960671,49 97.1209968,49 Z M222.447444,51 L222.447444,56.157988 L220.564336,56.157988 C218.648443,56.157988 217.838025,56.5176034 217.838025,57.2368343 C217.838025,57.8379434 218.426824,58.3183056 218.795315,58.7960429 L226.002532,66.6563966 C226.856226,67.5475605 227.900066,67.6643699 228.875715,66.547462 L236.522237,58.3773665 C236.965475,57.77757 237.185783,57.3575811 237.185783,56.9979657 C237.185783,56.3981691 236.669109,56.157988 235.049583,56.157988 L233.120577,56.157988 L233.120577,51 L254,51 L254,56.157988 L251.25533,56.157988 C248.087092,56.157988 247.496982,56.6370378 243.079021,62.2150146 L230.983065,75.2871674 L230.983065,83.2643305 C230.983065,85.3052138 232.013792,86.0218197 234.961722,86.0218197 L239.527866,86.0218197 L239.527866,91 L210.283298,91 L210.283298,86.0218197 L214.850754,86.0218197 C217.797373,86.0218197 218.829411,85.3052138 218.829411,83.2643305 L218.829411,75.2871674 L204.584142,59.5152738 C202.227633,56.7577846 202.554161,56.157988 196,56.157988 L196,51 L222.447444,51 Z M150.978244,51 L176.401399,74.7910556 L176.528923,58.7960429 C176.528923,56.6974112 175.436429,55.9768678 172.310136,55.9768678 L168.638253,55.9768678 L168.638253,51 L192,51 L192,55.9768678 L188.953902,55.9768678 C185.827608,55.9768678 184.7338,56.6974112 184.7338,58.7960429 L184.7338,91 L175.587617,90.9291269 L145.978541,62.9342455 L145.978541,83.263018 C145.978541,85.3025888 147.072349,86.0808807 150.197328,86.0808807 L154.259669,86.0808807 L154.259669,91 L130,91 L130,86.0808807 L134.018957,86.0808807 C137.143936,86.0808807 138.239059,85.3025888 138.239059,83.263018 L138.239059,58.7960429 C138.239059,56.6974112 137.143936,55.9768678 134.018957,55.9768678 L130,55.9768678 L130,51 L150.978244,51 Z M97.2112538,54.2150574 C86.7021954,54.2150574 80.5516362,60.2198728 80.5516362,70.348685 C80.5516362,80.7190703 86.4458131,86.7238857 96.6997972,86.7238857 C107.208856,86.7238857 113.189365,80.9619706 113.189365,70.7734288 C113.189365,60.3419867 107.29388,54.2150574 97.2112538,54.2150574 Z" id="sony-logo" fill="#1F1F20"></path>
    </g>
</svg>