<?xml version="1.0" encoding="UTF-8"?>
<svg width="270px" height="102px" viewBox="0 0 270 102" version="1.1" xmlns="http://www.w3.org/2000/svg" xmlns:xlink="http://www.w3.org/1999/xlink">
    <!-- Generator: Sketch 64 (93537) - https://sketch.com -->
    <title>sportsyap</title>
    <desc>Created with Sketch.</desc>
    <g id="sportsyap" stroke="none" stroke-width="1" fill="none" fill-rule="evenodd">
        <path d="M16.3425882,63.1094118 C22.5970588,63.1094118 26.0562353,59.9996471 26.0562353,55.3175294 C26.0562353,46.6521176 12.8834118,48.8184706 12.8834118,45.8484706 C12.8834118,44.8701176 13.6521176,44.1712941 15.3991765,44.1712941 C17.7052941,44.1712941 20.256,44.9749412 22.2127059,46.5822353 L25.4971765,42.2844706 C23.0163529,40.1530588 19.7668235,39.0349412 16.0281176,39.0349412 C10.0531765,39.0349412 6.73376471,42.5290588 6.73376471,46.4424706 C6.73376471,55.4223529 19.9415294,52.8716471 19.9415294,56.0512941 C19.9415294,57.1694118 18.6836471,57.9730588 16.6221176,57.9730588 C13.4424706,57.9730588 10.8568235,56.5754118 9.17964706,54.8982353 L6,59.4056471 C8.34105882,61.6418824 11.6255294,63.1094118 16.3425882,63.1094118 Z M39.8251146,62.6901176 L39.8251146,54.8632941 L45.4855852,54.8632941 C50.7267617,54.8632941 53.5919382,51.3342353 53.5919382,47.1412941 C53.5919382,42.9134118 50.7267617,39.3843529 45.4855852,39.3843529 L33.8152323,39.3843529 L33.8152323,62.6901176 L39.8251146,62.6901176 Z M44.6819382,49.6221176 L39.8251146,49.6221176 L39.8251146,44.6255294 L44.6819382,44.6255294 C46.2892323,44.6255294 47.4772323,45.534 47.4772323,47.1412941 C47.4772323,48.7136471 46.2892323,49.6221176 44.6819382,49.6221176 Z M72.5321116,63.1094118 C79.6601116,63.1094118 84.9711704,58.1477647 84.9711704,51.0547059 C84.9711704,43.9616471 79.6601116,39 72.5321116,39 C65.4041116,39 60.0581116,43.9616471 60.0581116,51.0547059 C60.0581116,58.1477647 65.4041116,63.1094118 72.5321116,63.1094118 Z M72.5321116,57.7983529 C68.653641,57.7983529 66.1728175,54.8283529 66.1728175,51.0547059 C66.1728175,47.2461176 68.653641,44.3110588 72.5321116,44.3110588 C76.375641,44.3110588 78.8564645,47.2461176 78.8564645,51.0547059 C78.8564645,54.8283529 76.375641,57.7983529 72.5321116,57.7983529 Z M98.984638,62.6901176 L98.984638,54.8632941 L102.059462,54.8632941 L105.972873,62.6901176 L112.856285,62.6901176 L108.104285,54.1295294 C110.270638,53.3608235 112.751462,51.1944706 112.751462,47.1412941 C112.751462,42.8085882 109.816403,39.3843529 104.645109,39.3843529 L92.9747556,39.3843529 L92.9747556,62.6901176 L98.984638,62.6901176 Z M103.736638,49.6221176 L98.984638,49.6221176 L98.984638,44.6255294 L103.736638,44.6255294 C105.308991,44.6255294 106.636756,45.534 106.636756,47.1063529 C106.636756,48.7485882 105.308991,49.6221176 103.736638,49.6221176 Z M131.901282,62.6901176 L131.901282,44.6255294 L138.400341,44.6255294 L138.400341,39.3843529 L119.3574,39.3843529 L119.3574,44.6255294 L125.8914,44.6255294 L125.8914,62.6901176 L131.901282,62.6901176 Z M154.615103,63.1094118 C160.869573,63.1094118 164.32875,59.9996471 164.32875,55.3175294 C164.32875,46.6521176 151.155926,48.8184706 151.155926,45.8484706 C151.155926,44.8701176 151.924632,44.1712941 153.671691,44.1712941 C155.977808,44.1712941 158.528514,44.9749412 160.48522,46.5822353 L163.769691,42.2844706 C161.288867,40.1530588 158.039338,39.0349412 154.300632,39.0349412 C148.325691,39.0349412 145.006279,42.5290588 145.006279,46.4424706 C145.006279,55.4223529 158.214044,52.8716471 158.214044,56.0512941 C158.214044,57.1694118 156.956161,57.9730588 154.894632,57.9730588 C151.714985,57.9730588 149.129338,56.5754118 147.452161,54.8982353 L144.272514,59.4056471 C146.613573,61.6418824 149.898044,63.1094118 154.615103,63.1094118 Z M184.107511,62.6901176 L184.107511,53.2909412 L192.912688,39.3843529 L186.099158,39.3843529 L181.10257,47.9798824 L176.0361,39.3843529 L169.257511,39.3843529 L178.097629,53.2909412 L178.097629,62.6901176 L184.107511,62.6901176 Z M201.545214,62.6901176 L202.698273,59.3357647 L211.887802,59.3357647 L213.040861,62.6901176 L219.854391,62.6901176 L211.049214,39.3843529 L203.50192,39.3843529 L194.731685,62.6901176 L201.545214,62.6901176 Z M210.245567,54.0945882 L204.305567,54.0945882 L207.275567,45.3243529 L210.245567,54.0945882 Z M232.540093,62.6901176 L232.540093,54.8632941 L238.200564,54.8632941 C243.441741,54.8632941 246.306917,51.3342353 246.306917,47.1412941 C246.306917,42.9134118 243.441741,39.3843529 238.200564,39.3843529 L226.530211,39.3843529 L226.530211,62.6901176 L232.540093,62.6901176 Z M237.396917,49.6221176 L232.540093,49.6221176 L232.540093,44.6255294 L237.396917,44.6255294 C239.004211,44.6255294 240.192211,45.534 240.192211,47.1412941 C240.192211,48.7136471 239.004211,49.6221176 237.396917,49.6221176 Z" id="SPORTSYAP" fill="#1F1F20" fill-rule="nonzero"></path>
    </g>
</svg>