<?xml version="1.0" encoding="UTF-8"?>
<svg width="270px" height="102px" viewBox="0 0 270 102" version="1.1" xmlns="http://www.w3.org/2000/svg" xmlns:xlink="http://www.w3.org/1999/xlink">
    <!-- Generator: Sketch 64 (93537) - https://sketch.com -->
    <title>spottr</title>
    <desc>Created with Sketch.</desc>
    <g id="spottr" stroke="none" stroke-width="1" fill="none" fill-rule="evenodd">
        <g id="Group" transform="translate(-2.000000, 17.000000)" fill="#1F1F20">
            <g id="Group-2" transform="translate(30.500000, 34.000000) rotate(-4.000000) translate(-30.500000, -34.000000) translate(3.000000, 2.000000)">
                <g id="Group-3" transform="translate(0.830513, 0.939246)">
                    <path d="M50.4970966,5.39477967 C53.8204704,7.44778249 54.8416456,11.7922444 52.7779552,15.098407 C50.7142649,18.4045696 46.3471866,19.4204563 43.0238128,17.3674535 C40.4265527,15.763005 37.6096434,14.7141669 34.7333773,14.2940628 C27.6088275,13.2534593 21.557967,16.2959017 18.7662539,21.8945449 C17.0278195,25.3808896 12.7775864,26.8051492 9.27309258,25.0757179 C5.76859874,23.3462865 4.33692469,19.1180647 6.07535909,15.6317201 C11.6301618,4.49183649 23.6764431,-1.56517258 36.7912379,0.350359188 C41.625912,1.05650609 46.2788189,2.78895303 50.4970966,5.39477967 Z" id="Oval-5" fill-rule="nonzero"></path>
                    <path d="M3.3476023,56.9419125 C0.0242284976,54.8889096 -0.99694672,50.5444477 1.06674361,47.2382851 C3.13043394,43.9321225 7.49751228,42.9162358 10.8208861,44.9692386 C13.4181461,46.5736871 16.2350555,47.6225252 19.1113216,48.0426293 C26.2358714,49.0832328 32.2867318,46.0407905 35.0784449,40.4421472 C36.8168793,36.9558026 41.0671124,35.5315429 44.5716063,37.2609743 C48.0761001,38.9904056 49.5077742,43.2186274 47.7693398,46.7049721 C42.214537,57.8448556 30.1682557,63.9018647 17.0534609,61.9863329 C12.2187868,61.280186 7.56587998,59.5477391 3.3476023,56.9419125 Z" id="Oval-5" fill-rule="nonzero"></path>
                    <path d="M18.0477917,2.92203244 C16.2150635,11.1065289 17.9136801,16.4650168 23.1436414,18.9974959 C34.9110544,24.695574 48.709413,32.7388006 48.5065266,42.980139 C48.371269,49.807698 44.2114034,55.1235364 36.0269297,58.9276543 C39.4759991,54.5539386 38.5630101,50.2500645 33.2879629,46.016032 C25.3753921,39.6649831 9.37417531,28.1056832 6.52919729,23.7265706 C3.68421927,19.3474579 4.71431417,16.1574799 7.68704837,11.4725876 C9.66887118,8.34932605 13.1224523,5.49914101 18.0477917,2.92203244 Z" id="Path-2"></path>
                </g>
            </g>
            <path d="M87.1992832,47.7669301 C91.6721152,47.7669301 95.0611456,46.8637621 97.3663744,45.0574261 C99.6716032,43.2510901 100.824218,40.8856501 100.824218,37.9611061 C100.824218,35.2085941 99.955456,33.0323893 98.2179328,31.4324917 C96.4804096,29.8325941 93.9945472,28.5165493 90.7603456,27.4843573 L90.7603456,27.4843573 L88.0250368,26.6069941 C87.1304704,26.3317429 86.4595456,26.0306869 86.0122624,25.7038261 C85.5649792,25.3769653 85.3413376,24.9554869 85.3413376,24.4393909 C85.3413376,23.7856693 85.7026048,23.2437685 86.4251392,22.8136885 C87.1476736,22.3836085 88.2830848,22.1685685 89.8313728,22.1685685 C91.3452544,22.1685685 92.7387136,22.3492021 94.0117504,22.7104693 C95.2847872,23.0717365 96.299776,23.4932149 97.0567168,23.9749045 C97.6416256,23.5276213 98.1405184,22.9857205 98.5533952,22.3492021 C98.966272,21.7126837 99.1727104,20.9471413 99.1727104,20.0525749 C99.1727104,19.1580085 98.9146624,18.3752629 98.3985664,17.7043381 C97.8824704,17.0334133 97.1685376,16.4829109 96.256768,16.0528309 C95.3449984,15.6227509 94.2525952,15.3044917 92.9795584,15.0980533 C91.7065216,14.8916149 90.3302656,14.7883957 88.8507904,14.7883957 C84.7908352,14.7883957 81.634048,15.6657589 79.3804288,17.4204853 C77.1268096,19.1752117 76,21.5148469 76,24.4393909 C76,25.9532725 76.2494464,27.2349109 76.7483392,28.2843061 C77.247232,29.3337013 77.9439616,30.2368693 78.838528,30.9938101 C79.7330944,31.7507509 80.7996928,32.3958709 82.0383232,32.9291701 C83.2769536,33.4624693 84.6532096,33.9871669 86.1670912,34.5032629 L86.1670912,34.5032629 L88.3346944,35.2257973 C89.33248,35.5698613 90.106624,35.9225269 90.6571264,36.2837941 C91.2076288,36.6450613 91.48288,37.1697589 91.48288,37.8578869 C91.48288,38.5460149 91.138816,39.1481269 90.450688,39.6642229 C89.76256,40.1803189 88.5755392,40.4383669 86.8896256,40.4383669 C85.2381184,40.4383669 83.7156352,40.1631157 82.322176,39.6126133 C80.9287168,39.0621109 79.7502976,38.4083893 78.7869184,37.6514485 C78.0987904,38.0299189 77.462272,38.5718197 76.8773632,39.2771509 C76.2924544,39.9824821 76,40.8340405 76,41.8318261 C76,42.7952053 76.2838528,43.6467637 76.8515584,44.3865013 C77.419264,45.1262389 78.2106112,45.7455541 79.2256,46.2444469 C80.2405888,46.7433397 81.4276096,47.1218101 82.7866624,47.3798581 C84.1457152,47.6379061 85.6165888,47.7669301 87.1992832,47.7669301 Z M111.218998,56.1276853 C112.010345,56.1276853 112.784489,56.0674741 113.54143,55.9470517 C114.298371,55.8266293 114.848873,55.7148085 115.192937,55.6115893 L115.192937,55.6115893 L115.192937,47.0443957 C116.465974,47.4916789 117.84223,47.7153205 119.321705,47.7153205 C121.28287,47.7153205 123.063401,47.4400693 124.663299,46.8895669 C126.263197,46.3390645 127.630851,45.5047093 128.766262,44.3865013 C129.901673,43.2682933 130.779037,41.8834357 131.398352,40.2319285 C132.017667,38.5804213 132.327325,36.6536629 132.327325,34.4516533 C132.327325,32.1464245 131.966057,30.1594549 131.243523,28.4907445 C130.520989,26.8220341 129.523203,25.4371765 128.250166,24.3361717 C126.977129,23.2351669 125.454646,22.4180149 123.682717,21.8847157 C121.910787,21.3514165 119.99263,21.0847669 117.928246,21.0847669 C115.967081,21.0847669 114.195152,21.2912053 112.612457,21.7040821 C111.029763,22.1169589 109.705117,22.6674613 108.638518,23.3555893 C107.95039,23.8372789 107.408489,24.3705781 107.012816,24.9554869 C106.617142,25.5403957 106.419305,26.2973365 106.419305,27.2263093 L106.419305,27.2263093 L106.419305,51.9989173 C106.419305,52.8590773 106.522525,53.5558069 106.728963,54.0891061 C106.935401,54.6224053 107.245059,55.0438837 107.657936,55.3535413 C108.070813,55.6631989 108.578307,55.8696373 109.180419,55.9728565 C109.782531,56.0760757 110.462057,56.1276853 111.218998,56.1276853 Z M118.031465,40.7996341 C117.480963,40.7996341 116.964867,40.7308213 116.483177,40.5931957 C116.001488,40.4555701 115.554205,40.2835381 115.141328,40.0770997 L115.141328,40.0770997 L115.141328,28.7229877 C115.519798,28.5165493 115.967081,28.3359157 116.483177,28.1810869 C116.999273,28.0262581 117.584182,27.9488437 118.237904,27.9488437 C119.889411,27.9488437 121.153846,28.4821429 122.031209,29.5487413 C122.908573,30.6153397 123.347254,32.2496437 123.347254,34.4516533 C123.347254,38.6836405 121.575325,40.7996341 118.031465,40.7996341 Z M150.566764,47.7669301 C152.596742,47.7669301 154.437484,47.4744757 156.088992,46.8895669 C157.740499,46.3046581 159.159763,45.4444981 160.346784,44.3090869 C161.533804,43.1736757 162.454176,41.7716149 163.107897,40.1029045 C163.761619,38.4341941 164.08848,36.5332405 164.08848,34.4000437 C164.08848,32.4044725 163.761619,30.5809333 163.107897,28.9294261 C162.454176,27.2779189 161.533804,25.8758581 160.346784,24.7232437 C159.159763,23.5706293 157.740499,22.6760629 156.088992,22.0395445 C154.437484,21.4030261 152.596742,21.0847669 150.566764,21.0847669 C148.536787,21.0847669 146.696044,21.3944245 145.044537,22.0137397 C143.39303,22.6330549 141.973766,23.5190197 140.786745,24.6716341 C139.599724,25.8242485 138.679353,27.2263093 138.025632,28.8778165 C137.37191,30.5293237 137.045049,32.3700661 137.045049,34.4000437 C137.045049,36.4644277 137.37191,38.3223733 138.025632,39.9738805 C138.679353,41.6253877 139.599724,43.0274485 140.786745,44.1800629 C141.973766,45.3326773 143.39303,46.2186421 145.044537,46.8379573 C146.696044,47.4572725 148.536787,47.7669301 150.566764,47.7669301 Z M150.618374,40.9028533 C149.173305,40.9028533 148.046496,40.3437493 147.237945,39.2255413 C146.429395,38.1073333 146.02512,36.4988341 146.02512,34.4000437 C146.02512,32.3356597 146.420793,30.7443637 147.21214,29.6261557 C148.003488,28.5079477 149.121696,27.9488437 150.566764,27.9488437 C152.011833,27.9488437 153.130041,28.5079477 153.921388,29.6261557 C154.712736,30.7443637 155.108409,32.3356597 155.108409,34.4000437 C155.108409,36.4644277 154.721337,38.0643253 153.947193,39.1997365 C153.173049,40.3351477 152.063443,40.9028533 150.618374,40.9028533 Z M179.437782,47.7153205 C181.915042,47.7153205 183.643964,47.3024437 184.624546,46.4766901 C185.605129,45.6509365 186.09542,44.5843381 186.09542,43.2768949 C186.09542,42.6231733 185.983599,42.0640693 185.759958,41.5995829 C185.536316,41.1350965 185.269666,40.7136181 184.960009,40.3351477 C184.547132,40.4727733 184.065442,40.5845941 183.51494,40.6706101 C182.964438,40.7566261 182.431138,40.7996341 181.915042,40.7996341 C180.88285,40.7996341 180.082902,40.6103989 179.515196,40.2319285 C178.94749,39.8534581 178.663638,39.2169397 178.663638,38.3223733 L178.663638,38.3223733 L178.663638,30.5293237 L183.360111,30.5293237 C184.254678,30.5293237 184.96861,30.2626741 185.50191,29.7293749 C186.035209,29.1960757 186.301858,28.3273141 186.301858,27.1230901 C186.301858,26.4349621 186.207241,25.8070453 186.018006,25.2393397 C185.82877,24.6716341 185.630934,24.1985461 185.424495,23.8200757 L185.424495,23.8200757 L178.663638,23.8200757 L178.663638,20.5170613 C178.663638,18.7967413 178.242159,17.6699317 177.399202,17.1366325 C176.556246,16.6033333 175.377826,16.3366837 173.863945,16.3366837 C173.072598,16.3366837 172.324258,16.3968949 171.618927,16.5173173 C170.913596,16.6377397 170.371695,16.7495605 169.993225,16.8527797 L169.993225,16.8527797 L169.993225,38.9416885 C169.993225,42.0382645 170.810377,44.2746805 172.444681,45.6509365 C174.078985,47.0271925 176.410018,47.7153205 179.437782,47.7153205 Z M201.599551,47.7153205 C204.076812,47.7153205 205.805733,47.3024437 206.786316,46.4766901 C207.766898,45.6509365 208.257189,44.5843381 208.257189,43.2768949 C208.257189,42.6231733 208.145369,42.0640693 207.921727,41.5995829 C207.698085,41.1350965 207.431436,40.7136181 207.121778,40.3351477 C206.708901,40.4727733 206.227212,40.5845941 205.676709,40.6706101 C205.126207,40.7566261 204.592908,40.7996341 204.076812,40.7996341 C203.04462,40.7996341 202.244671,40.6103989 201.676965,40.2319285 C201.10926,39.8534581 200.825407,39.2169397 200.825407,38.3223733 L200.825407,38.3223733 L200.825407,30.5293237 L205.521881,30.5293237 C206.416447,30.5293237 207.13038,30.2626741 207.663679,29.7293749 C208.196978,29.1960757 208.463628,28.3273141 208.463628,27.1230901 C208.463628,26.4349621 208.36901,25.8070453 208.179775,25.2393397 C207.99054,24.6716341 207.792703,24.1985461 207.586265,23.8200757 L207.586265,23.8200757 L200.825407,23.8200757 L200.825407,20.5170613 C200.825407,18.7967413 200.403929,17.6699317 199.560972,17.1366325 C198.718015,16.6033333 197.539596,16.3366837 196.025714,16.3366837 C195.234367,16.3366837 194.486028,16.3968949 193.780697,16.5173173 C193.075365,16.6377397 192.533465,16.7495605 192.154994,16.8527797 L192.154994,16.8527797 L192.154994,38.9416885 C192.154994,42.0382645 192.972146,44.2746805 194.60645,45.6509365 C196.240754,47.0271925 198.571788,47.7153205 201.599551,47.7153205 Z M219.064847,47.3540533 C219.856194,47.3540533 220.621736,47.3024437 221.361474,47.1992245 C222.101212,47.0960053 222.643112,46.9927861 222.987176,46.8895669 L222.987176,46.8895669 L222.987176,29.2906933 C223.43446,29.0842549 223.97636,28.9036213 224.612879,28.7487925 C225.249397,28.5939637 225.928924,28.4477365 226.651458,28.3101109 C227.373992,28.1724853 228.11373,28.0692661 228.870671,28.0004533 C229.627612,27.9316405 230.367349,27.8972341 231.089884,27.8972341 C231.296322,27.5187637 231.468354,27.0972853 231.60598,26.6327989 C231.743605,26.1683125 231.812418,25.6952245 231.812418,25.2135349 C231.812418,23.7684661 231.330728,22.7276725 230.367349,22.0911541 C229.40397,21.4546357 228.096527,21.1363765 226.44502,21.1363765 C225.447234,21.1363765 224.449448,21.2137909 223.451663,21.3686197 C222.453877,21.5234485 221.490498,21.7384885 220.561525,22.0137397 C219.632552,22.2889909 218.763791,22.6072501 217.95524,22.9685173 C217.14669,23.3297845 216.467164,23.7340597 215.916661,24.1813429 C215.366159,24.6286261 214.94468,25.1361205 214.652226,25.7038261 C214.359772,26.2715317 214.213544,26.9510581 214.213544,27.7424053 L214.213544,27.7424053 L214.213544,43.2252853 C214.213544,44.0854453 214.325365,44.7821749 214.549007,45.3154741 C214.772648,45.8487733 215.090908,46.2702517 215.503784,46.5799093 C215.916661,46.8895669 216.424156,47.0960053 217.026268,47.1992245 C217.62838,47.3024437 218.307906,47.3540533 219.064847,47.3540533 Z" id="Spottr" fill-rule="nonzero"></path>
        </g>
    </g>
</svg>