<?xml version="1.0" encoding="UTF-8"?>
<svg width="270px" height="102px" viewBox="0 0 270 102" version="1.1" xmlns="http://www.w3.org/2000/svg" xmlns:xlink="http://www.w3.org/1999/xlink">
    <!-- Generator: Sketch 64 (93537) - https://sketch.com -->
    <title>strategicpartners</title>
    <desc>Created with Sketch.</desc>
    <g id="strategicpartners" stroke="none" stroke-width="1" fill="none" fill-rule="evenodd">
        <g id="Group" transform="translate(2.000000, 29.000000)" fill-rule="nonzero">
            <path d="M48.5833671,38.129895 C49.2751347,38.129895 49.8072636,38.660886 49.8072636,39.3511744 C49.8072636,40.0414627 49.2751347,40.5724538 48.5833671,40.5724538 C47.8915996,40.5724538 47.3594707,40.0414627 47.3594707,39.3511744 C47.3594707,38.7139851 47.8915996,38.129895 48.5833671,38.129895 L48.5833671,38.129895 Z M48.5833671,40.4131565 C49.115496,40.4131565 49.5411991,39.9883636 49.5411991,39.4042735 C49.5411991,38.8201833 49.115496,38.3953905 48.5833671,38.3953905 C48.0512382,38.3953905 47.6255351,38.8201833 47.6255351,39.4042735 C47.6255351,39.9352645 48.0512382,40.4131565 48.5833671,40.4131565 L48.5833671,40.4131565 Z M48.157664,38.7139851 L48.63658,38.7139851 C48.9026445,38.7139851 49.0622831,38.8732824 49.0622831,39.0856789 C49.0622831,39.2980753 48.9558574,39.4042735 48.8494316,39.4042735 L48.8494316,39.4042735 C48.8494316,39.4042735 48.8494316,39.4042735 48.9026445,39.4573726 L49.1687089,39.9352645 L48.9026445,39.9352645 L48.6897929,39.4573726 L48.4237285,39.4573726 L48.4237285,39.9352645 L48.157664,39.9352645 L48.157664,38.7139851 Z M48.63658,39.3511744 C48.7430058,39.3511744 48.8494316,39.2449762 48.8494316,39.138778 C48.8494316,39.0325797 48.7430058,38.9263815 48.63658,38.9263815 L48.4237285,38.9263815 L48.4237285,39.3511744 L48.63658,39.3511744 L48.63658,39.3511744 Z" id="Shape" fill="#91969D"></path>
            <polygon id="Shape" fill="#1F1F20" points="40.8142854 30.5898221 46.6144903 40.6255529 35.0140806 40.6255529 35.0140806 40.6255529"></polygon>
            <polygon id="Shape" fill="#1F1F20" points="35.0140806 20.5540913 40.8142854 30.5898221 29.2138757 30.5898221"></polygon>
            <polygon id="Shape" fill="#1F1F20" points="40.8142854 30.5898221 35.0140806 40.6255529 29.2138757 30.5898221 29.2138757 30.5898221"></polygon>
            <polygon id="Shape" fill="#1F1F20" points="35.0140806 20.5540913 35.0140806 20.5540913 29.2138757 30.5898221 29.2138757 30.5898221"></polygon>
            <polygon id="Shape" fill="#1F1F20" points="29.2138757 10.5183606 35.0140806 20.5540913 23.4136709 20.5540913"></polygon>
            <polygon id="Shape" fill="#1F1F20" points="35.0140806 20.5540913 29.2138757 30.5898221 23.4136709 20.5540913"></polygon>
            <polygon id="Shape" fill="#1F1F20" points="29.2138757 30.5898221 35.0140806 40.6255529 23.4136709 40.6255529"></polygon>
            <polygon id="Shape" fill="#1F1F20" points="29.2138757 10.5183606 23.4136709 20.5540913 23.4136709 20.5009922 29.1606629 10.5183606 29.2138757 10.5183606"></polygon>
            <polygon id="Shape" fill="#1F1F20" points="29.2138757 30.5898221 29.2138757 30.5898221 23.4136709 40.6255529 23.4136709 40.6255529"></polygon>
            <polygon id="Shape" fill="#1F1F20" points="17.5602532 10.5183606 17.5602532 10.5183606 17.5602532 10.5183606 23.360458 0.482629786 29.2138757 10.5183606 29.1606629 10.5183606 17.6134661 10.5183606"></polygon>
            <polygon id="Shape" fill="#1F1F20" points="29.2138757 30.5898221 23.4136709 40.6255529 17.5602532 30.5898221"></polygon>
            <polygon id="Shape" fill="#1F1F20" points="29.1606629 10.5183606 23.4136709 20.5009922 23.360458 20.5009922 17.6134661 10.5183606"></polygon>
            <polygon id="Shape" fill="#1F1F20" points="23.4136709 20.5009922 23.4136709 20.5540913 23.360458 20.5540913 23.360458 20.5009922"></polygon>
            <polygon id="Shape" fill="#1F1F20" points="23.4136709 20.5540913 17.5602532 30.5898221 11.7600483 20.5540913 23.360458 20.5540913"></polygon>
            <polygon id="Shape" fill="#1F1F20" points="23.4136709 40.6255529 23.4136709 40.6255529 23.360458 40.6255529"></polygon>
            <polygon id="Shape" fill="#1F1F20" points="17.5602532 30.5898221 23.4136709 40.6255529 23.360458 40.6255529 11.7600483 40.6255529"></polygon>
            <polygon id="Shape" fill="#1F1F20" points="23.360458 20.5009922 23.360458 20.5540913 11.7600483 20.5540913 17.5602532 10.5183606 17.5602532 10.5183606"></polygon>
            <polygon id="Shape" fill="#1F1F20" points="17.6134661 10.5183606 23.360458 20.5009922 17.5602532 10.5183606"></polygon>
            <polygon id="Shape" fill="#1F1F20" points="11.7600483 20.5540913 17.5602532 30.5898221 5.9598435 30.5898221"></polygon>
            <polygon id="Shape" fill="#1F1F20" points="17.5602532 30.5898221 11.7600483 40.6255529 5.9598435 30.5898221"></polygon>
            <polygon id="Shape" fill="#1F1F20" points="5.9598435 30.5898221 11.7600483 40.6255529 0.159638665 40.6255529"></polygon>
            <path d="M56.5120875,24.2179296 C56.5120875,24.2179296 57.8424097,25.4923081 59.5452221,25.4923081 C60.4498413,25.4923081 61.3012475,25.0144161 61.3012475,24.0055331 C61.3012475,21.8284698 55.5542555,22.2001636 55.5542555,18.4832263 C55.5542555,16.4654603 57.3102808,14.9255862 59.6516479,14.9255862 C62.0462279,14.9255862 63.3233372,16.2530639 63.3233372,16.2530639 L62.3655052,18.0584334 C62.3655052,18.0584334 61.1948217,16.9964513 59.6516479,16.9964513 C58.640603,16.9964513 57.7891968,17.5805415 57.7891968,18.4301272 C57.7891968,20.6071904 63.5361888,20.0761994 63.5361888,23.952434 C63.5361888,25.9171009 62.0462279,27.510074 59.4920093,27.510074 C56.778152,27.510074 55.2881911,25.8640018 55.2881911,25.8640018 L56.5120875,24.2179296 Z" id="Shape" fill="#1F1F20"></path>
            <polygon id="Shape" fill="#1F1F20" points="68.8574776 17.0495504 64.8132981 17.0495504 64.8132981 15.1379827 75.0833856 15.1379827 75.0833856 17.0495504 71.039206 17.0495504 71.039206 27.3507767 68.8574776 27.3507767"></polygon>
            <path d="M76.9458367,15.1379827 L80.8835904,15.1379827 C82.2139126,15.1379827 82.7992544,15.2441809 83.3313833,15.4565773 C84.5552797,15.9875683 85.3002601,17.1557486 85.3002601,18.8018209 C85.3002601,20.2354967 84.5020668,21.6160734 83.2249575,22.1470645 L83.2249575,22.2001636 C83.2249575,22.2001636 83.3845962,22.3594609 83.6506606,22.7842537 L86.1516664,27.3507767 L83.6506606,27.3507767 L81.2028677,22.7842537 L79.0743522,22.7842537 L79.0743522,27.3507767 L76.8394109,27.3507767 L76.8394109,15.1379827 L76.9458367,15.1379827 Z M81.1496549,20.872686 C82.3203384,20.872686 83.0653188,20.1823976 83.0653188,18.9611182 C83.0653188,17.7929379 82.5864028,17.0495504 80.8303775,17.0495504 L79.1275651,17.0495504 L79.1275651,20.872686 L81.1496549,20.872686 L81.1496549,20.872686 Z" id="Shape" fill="#1F1F20"></path>
            <path d="M95.1446445,24.2179296 L90.8876134,24.2179296 L89.8765686,27.3507767 L87.5884144,27.3507767 L91.8986583,15.1910818 L94.2400254,15.1910818 L98.5502694,27.3507767 L96.2621152,27.3507767 L95.1446445,24.2179296 Z M92.9629161,17.2619468 C92.9629161,17.2619468 92.6968516,18.4832263 92.4307872,19.1735146 L91.3665294,22.41256 L94.5593027,22.41256 L93.495045,19.1735146 C93.2821934,18.4832263 93.016129,17.2619468 92.9629161,17.2619468 L92.9629161,17.2619468 Z" id="Shape" fill="#1F1F20"></path>
            <polygon id="Shape" fill="#1F1F20" points="101.743043 17.0495504 97.752076 17.0495504 97.752076 15.1379827 107.968951 15.1379827 107.968951 17.0495504 103.977984 17.0495504 103.977984 27.3507767 101.743043 27.3507767"></polygon>
            <polygon id="Shape" fill="#1F1F20" points="109.884615 15.1379827 117.17478 15.1379827 117.17478 17.0495504 112.066343 17.0495504 112.066343 20.2354967 116.163735 20.2354967 116.163735 22.1470645 112.066343 22.1470645 112.066343 25.439209 117.440845 25.439209 117.440845 27.3507767 109.884615 27.3507767"></polygon>
            <path d="M125.263139,14.9786854 C128.243061,14.9786854 129.786235,16.5185594 129.786235,16.5185594 L128.668764,18.1646316 C128.668764,18.1646316 127.338442,16.9964513 125.422778,16.9964513 C122.708921,16.9964513 121.21896,18.9080191 121.21896,21.1912806 C121.21896,23.8462358 123.028198,25.5454072 125.316352,25.5454072 C127.178803,25.5454072 128.349487,24.2710287 128.349487,24.2710287 L128.349487,22.8373528 L126.487036,22.8373528 L126.487036,20.9257851 L130.371577,20.9257851 L130.371577,27.3507767 L128.455913,27.3507767 L128.455913,26.7666866 C128.455913,26.5011911 128.455913,26.2356955 128.455913,26.2356955 L128.4027,26.2356955 C128.4027,26.2356955 127.12559,27.5631731 124.837436,27.5631731 C121.644663,27.5631731 118.877593,25.0675152 118.877593,21.2443797 C118.984019,17.6867397 121.644663,14.9786854 125.263139,14.9786854" id="Shape" fill="#1F1F20"></path>
            <polygon id="Rectangle-path" fill="#1F1F20" points="133.351498 15.1379827 135.58644 15.1379827 135.58644 27.2976776 133.351498 27.2976776"></polygon>
            <path d="M144.366566,14.9786854 C147.346488,14.9786854 148.889662,16.6247576 148.889662,16.6247576 L147.825404,18.2708298 C147.825404,18.2708298 146.441869,16.9964513 144.472992,16.9964513 C141.918773,16.9964513 140.3756,18.9080191 140.3756,21.1912806 C140.3756,23.5276412 141.918773,25.5454072 144.472992,25.5454072 C146.601508,25.5454072 148.038256,24.0055331 148.038256,24.0055331 L149.208939,25.5985063 C149.208939,25.5985063 147.506127,27.5631731 144.419779,27.5631731 C140.694877,27.5631731 138.087445,24.8020197 138.087445,21.1912806 C138.087445,17.6867397 140.801303,14.9786854 144.366566,14.9786854" id="Shape" fill="#1F1F20"></path>
            <path d="M156.286253,15.1379827 L161.0222,15.1379827 C163.310355,15.1379827 164.906741,16.7309558 164.906741,19.1204155 C164.906741,21.5098752 163.310355,23.1559475 161.0222,23.1559475 L158.521195,23.1559475 L158.521195,27.3507767 L156.286253,27.3507767 L156.286253,15.1379827 Z M160.596497,21.1912806 C161.873607,21.1912806 162.618587,20.3416949 162.618587,19.1204155 C162.618587,17.846037 161.873607,17.0495504 160.596497,17.0495504 L158.467982,17.0495504 L158.467982,21.1912806 L160.596497,21.1912806 L160.596497,21.1912806 Z" id="Shape" fill="#1F1F20"></path>
            <path d="M172.569397,24.2179296 L168.312366,24.2179296 L167.301321,27.3507767 L164.959954,27.3507767 L169.270198,15.1910818 L171.611565,15.1910818 L175.921809,27.3507767 L173.633655,27.3507767 L172.569397,24.2179296 Z M170.440882,17.2619468 C170.440882,17.2619468 170.174817,18.4832263 169.908753,19.1735146 L168.844495,22.41256 L172.037268,22.41256 L170.973011,19.1735146 C170.706946,18.4832263 170.440882,17.2619468 170.440882,17.2619468 L170.440882,17.2619468 Z" id="Shape" fill="#1F1F20"></path>
            <path d="M177.731047,15.1379827 L181.668801,15.1379827 C182.999123,15.1379827 183.584465,15.2441809 184.116594,15.4565773 C185.34049,15.9875683 186.085471,17.1557486 186.085471,18.8018209 C186.085471,20.2354967 185.287278,21.6160734 184.010168,22.1470645 L184.010168,22.2001636 C184.010168,22.2001636 184.169807,22.3594609 184.435871,22.7842537 L186.936877,27.3507767 L184.435871,27.3507767 L181.988078,22.7842537 L179.859563,22.7842537 L179.859563,27.3507767 L177.731047,27.3507767 L177.731047,15.1379827 Z M181.934866,20.872686 C183.105549,20.872686 183.85053,20.1823976 183.85053,18.9611182 C183.85053,17.7929379 183.371614,17.0495504 181.615588,17.0495504 L179.912776,17.0495504 L179.912776,20.872686 L181.934866,20.872686 L181.934866,20.872686 Z" id="Shape" fill="#1F1F20"></path>
            <polygon id="Shape" fill="#1F1F20" points="191.77925 17.0495504 187.788283 17.0495504 187.788283 15.1379827 198.005158 15.1379827 198.005158 17.0495504 194.014191 17.0495504 194.014191 27.3507767 191.77925 27.3507767"></polygon>
            <path d="M199.867609,15.1379827 L202.10255,15.1379827 L206.732072,22.1470645 C207.210988,22.8373528 207.743116,24.0586322 207.743116,24.0586322 L207.796329,24.0586322 C207.796329,24.0586322 207.689904,22.8904519 207.689904,22.1470645 L207.689904,15.1379827 L209.871632,15.1379827 L209.871632,27.2976776 L207.689904,27.2976776 L203.060382,20.2885958 C202.581466,19.5983075 202.049337,18.377028 202.049337,18.377028 L201.996124,18.377028 C201.996124,18.377028 202.10255,19.5452083 202.10255,20.2885958 L202.10255,27.2976776 L199.867609,27.2976776 L199.867609,15.1379827 Z" id="Shape" fill="#1F1F20"></path>
            <polygon id="Shape" fill="#1F1F20" points="213.170831 15.1379827 220.51421 15.1379827 220.51421 17.0495504 215.405772 17.0495504 215.405772 20.2354967 219.503165 20.2354967 219.503165 22.1470645 215.405772 22.1470645 215.405772 25.439209 220.780274 25.439209 220.780274 27.3507767 213.170831 27.3507767"></polygon>
            <path d="M223.334493,15.1379827 L227.272246,15.1379827 C228.602569,15.1379827 229.18791,15.2441809 229.720039,15.4565773 C230.943936,15.9875683 231.688916,17.1557486 231.688916,18.8018209 C231.688916,20.2354967 230.890723,21.6160734 229.613614,22.1470645 L229.613614,22.2001636 C229.613614,22.2001636 229.773252,22.3594609 230.039317,22.7842537 L232.540322,27.3507767 L230.039317,27.3507767 L227.591524,22.7842537 L225.463008,22.7842537 L225.463008,27.3507767 L223.228067,27.3507767 L223.228067,15.1379827 L223.334493,15.1379827 Z M227.538311,20.872686 C228.708994,20.872686 229.453975,20.1823976 229.453975,18.9611182 C229.453975,17.7929379 228.975059,17.0495504 227.219034,17.0495504 L225.516221,17.0495504 L225.516221,20.872686 L227.538311,20.872686 L227.538311,20.872686 Z" id="Shape" fill="#1F1F20"></path>
            <path d="M235.094541,24.2179296 C235.094541,24.2179296 236.424863,25.4923081 238.127676,25.4923081 C239.032295,25.4923081 239.883701,25.0144161 239.883701,24.0055331 C239.883701,21.8284698 234.136709,22.2001636 234.136709,18.4832263 C234.136709,16.4654603 235.892734,14.9255862 238.234101,14.9255862 C240.628681,14.9255862 241.852578,16.2530639 241.852578,16.2530639 L240.894746,18.0584334 C240.894746,18.0584334 239.724062,16.9964513 238.180889,16.9964513 C237.169844,16.9964513 236.318438,17.5805415 236.318438,18.4301272 C236.318438,20.6071904 242.065429,20.0761994 242.065429,23.952434 C242.065429,25.9171009 240.575469,27.510074 238.02125,27.510074 C235.307393,27.510074 233.817432,25.8640018 233.817432,25.8640018 L235.094541,24.2179296 Z" id="Shape" fill="#1F1F20"></path>
        </g>
    </g>
</svg>