<?xml version="1.0" encoding="UTF-8"?>
<svg width="270px" height="102px" viewBox="0 0 270 102" version="1.1" xmlns="http://www.w3.org/2000/svg" xmlns:xlink="http://www.w3.org/1999/xlink">
    <!-- Generator: Sketch 64 (93537) - https://sketch.com -->
    <title>switch</title>
    <desc>Created with Sketch.</desc>
    <g id="switch" stroke="none" stroke-width="1" fill="none" fill-rule="evenodd">
        <path d="M40.9855138,93.6804571 C42.0114486,93.6804571 42.8427052,94.5102831 42.8427052,95.5336933 C42.8427052,96.557215 42.0114486,97.3869295 40.9855138,97.3869295 L40.9855138,97.3869295 L30.9778551,97.3869295 C29.9518086,97.3869295 29.1205539,96.557215 29.1205539,95.5336933 C29.1205539,94.5102831 29.9518086,93.6804571 30.9778551,93.6804571 L30.9778551,93.6804571 Z M35.9071926,0.0101434479 C45.3901207,0.0101434479 54.3174954,3.65417383 61.0835986,10.2960956 C67.9416674,17.0281914 71.7507815,26.020084 71.8101387,35.6158919 C71.8675728,45.0952479 68.1714827,54.0594592 61.4010539,60.856678 C54.5827418,67.7018483 45.5396267,71.5274433 35.8839857,71.664293 L35.3469413,71.6680965 L26.129377,71.6680965 C24.5930546,71.6680965 23.3435341,72.9149566 23.3435341,74.447918 C23.3435341,75.9240166 24.5022115,77.1349869 25.9599037,77.2226636 L26.129377,77.2277463 L44.066125,77.2277463 C47.587687,77.2277463 50.4525206,80.0865699 50.4525206,83.6009215 C50.4525206,87.0387871 47.7108911,89.8494084 44.2948383,89.9699846 L44.066125,89.9740151 L24.1426315,89.9740151 C23.1169127,89.9740151 22.2856542,89.1442411 22.2856542,88.1208012 C22.2856542,87.1460894 23.0396301,86.3470519 23.9974919,86.2731633 L24.1426315,86.2675873 L44.066125,86.2675873 C45.5394434,86.2675873 46.7381863,85.0712983 46.7381863,83.6009215 C46.7381863,82.1870121 45.629881,81.0266013 44.2348521,80.9394305 L44.066125,80.9341741 L26.129377,80.9341741 C22.5448109,80.9341741 19.6290137,78.0242966 19.6290137,74.447918 C19.6290137,70.9491995 22.419415,68.0884042 25.8965722,67.9656752 L26.129377,67.9615727 L35.3469413,67.9615727 C44.2075521,67.9615727 52.5244585,64.5103697 58.7664191,58.2439714 C64.834224,52.1519156 68.1472265,44.1236944 68.0951257,35.6385033 C68.0424665,27.0356475 64.6275406,18.9740206 58.4786734,12.9383585 C52.3316899,6.90391508 44.2075521,3.63005847 35.5650976,3.71835594 C18.4731507,3.89420021 4.19074211,17.9011273 3.72640404,34.9417905 C3.51614417,42.6397142 6.07348585,50.1559776 10.9278837,56.1056888 C11.5752118,56.8992415 11.4556008,58.066627 10.66064,58.712954 C9.86511424,59.3578731 8.69514659,59.2399224 8.04781842,58.4457161 C2.63222708,51.8083898 -0.221132627,43.425102 0.0133875083,34.8407303 C0.531513423,15.8324705 16.4625214,0.208320111 35.5263571,0.0119263196 C35.6533035,0.0101434479 35.7809981,0.0101434479 35.9071926,0.0101434479 Z M128.373134,63 C130.310252,63 131.880597,64.5670034 131.880597,66.5 C131.880597,68.4329966 130.310252,70 128.373134,70 C126.436016,70 124.865672,68.4329966 124.865672,66.5 C124.865672,64.5670034 126.436016,63 128.373134,63 Z M29.1630935,12.3649407 C32.3822431,12.3649407 35.044153,14.9594416 35.044153,18.2334846 L35.044153,18.2334846 L35.044153,64.7728226 L31.3298187,64.7728226 L31.3298187,18.1719313 C31.3298187,16.9981659 30.4011411,16.0098144 29.1630935,16.0098144 C27.9867323,16.0098144 26.9963684,16.9364232 26.9963684,18.1719313 C26.9963684,18.8513798 26.562308,19.530455 25.9431902,19.8393543 C25.3240724,20.1481608 24.581582,20.0871702 24.0245265,19.6546908 C23.5291556,19.2841416 22.9722882,19.0985383 22.4150448,19.0985383 C20.9293117,19.0985383 19.7527607,20.2714586 19.7527607,21.7541252 C19.7527607,21.9394462 19.8155769,22.0634944 19.8155769,22.2487226 C19.8774493,22.2487226 19.8772614,22.3100882 19.8772614,22.371831 C20.1247589,23.5455964 21.1769972,24.4108376 22.4150447,24.4108376 C23.467471,24.4108376 24.3483789,24.4478074 24.3491309,24.4897512 C24.3495069,24.4992291 24.3468732,24.5130215 24.3468732,24.5227798 C25.261634,24.6487057 25.9431901,25.3685973 25.9431901,26.3256066 L25.9431901,26.3256066 L25.9431901,36.7656328 C25.9431901,41.5222495 22.1060488,45.3525417 17.3392918,45.3525417 C16.5571189,45.3525417 15.3730465,45.149578 14.168286,44.6993648 C14.2239539,45.7290008 14.475964,46.9580344 15.1436034,48.001745 C16.1550314,49.5846267 17.9277544,50.386905 20.4121265,50.386905 C21.463423,50.386905 22.3149917,51.2367566 22.3149917,52.2856268 C22.3149917,53.3345937 21.463423,54.1844452 20.4121266,54.1844452 C15.3040249,54.1844452 12.8326304,51.6823709 11.6589021,49.5834046 C10.2826242,47.1215858 10.130477,44.1042701 10.5760095,42.133295 C10.5620918,42.113496 10.5432854,42.0980135 10.5295567,42.0780287 C10.4678703,42.0161913 10.3437456,41.8927058 10.2816833,41.7691275 L10.2816833,41.7691275 L9.91062605,41.2128804 L9.72443996,40.8425206 L9.35319469,40.1017009 C9.29132032,39.9781225 9.29056834,39.8548266 9.22869396,39.7313411 C9.16681968,39.4841845 9.10550925,39.2988616 9.0438238,39.1135388 C9.0438238,38.9900533 8.98213747,38.865539 8.98213747,38.7419569 C8.92007515,38.4948931 8.91932316,38.3097597 8.85744879,38.062696 C8.85744879,37.9391176 8.79595041,37.8773768 8.79595041,37.7537948 C8.73388809,37.4448973 8.7342649,37.0745339 8.7342649,36.7656327 C8.7342649,34.3835707 9.70469278,32.185238 11.342008,30.5834024 C10.9568459,29.3327888 10.2922154,26.360043 11.5646797,23.4768162 C12.5210028,21.3110422 14.3335971,19.7150256 16.9170803,18.7013403 C18.0191561,16.8032722 20.0532933,15.5151241 22.4150447,15.5151241 C22.9104137,15.5151241 23.3440983,15.5774295 23.8394673,15.700915 C24.8298312,13.7242148 26.8105573,12.3649407 29.1630935,12.3649407 Z M43.1468488,12.3649408 C45.499385,12.3649408 47.4801128,13.7242149 48.4706648,15.7009151 C48.966032,15.5774296 49.3997164,15.5151242 49.8948975,15.5151242 C52.2568369,15.5151242 54.290976,16.8032723 55.3930518,18.7014332 C57.9763452,19.7150256 59.7895062,21.3111351 60.7450773,23.4768162 C62.0182937,26.3598555 61.3532862,29.3324117 60.9679355,30.5832148 C62.6056304,32.1850486 63.5758684,34.3834779 63.5758684,36.7656328 C63.5758684,37.074534 63.5762406,37.4448974 63.5141783,37.7537949 C63.5141783,37.8773769 63.4524957,37.9391178 63.4524957,38.0626961 C63.3908055,38.3097599 63.3900535,38.4948933 63.3279912,38.741957 C63.3279912,38.8655391 63.2663086,38.9900534 63.2663086,39.1135389 C63.2044324,39.2988618 63.1433155,39.4841846 63.0812532,39.7313412 C63.0401265,39.8136649 63.0260833,39.8959043 63.002902,39.9781993 L62.9567488,40.101701 L62.5856924,40.8425207 L62.3993193,41.2128805 L62.0282592,41.7691276 C61.9663868,41.892706 61.8422621,42.0161914 61.7803858,42.0780288 C61.766847,42.0979207 61.7482267,42.1134032 61.7343118,42.1330127 C62.1800314,44.1040844 62.0273212,47.1221504 60.6497246,49.5840621 C59.4767491,51.6830284 57.0051657,54.1844452 51.8976298,54.1844452 C50.8470853,54.1844452 49.9947628,53.3345937 49.9947628,52.2856268 C49.9947628,51.2367565 50.8470853,50.386905 51.8976298,50.386905 C54.381438,50.386905 56.154161,49.5846267 57.1661511,48.0023096 C57.8336043,46.9587846 58.0865553,45.7289079 58.1425983,44.6990825 C56.9374636,45.1494852 55.7530115,45.3525417 54.9706506,45.3525417 C50.2905639,45.3525417 46.5067735,41.6602667 46.3707282,37.0241485 L46.3669405,36.7656328 L46.3669405,26.3256066 C46.3669405,25.3686902 47.0484984,24.6487057 47.9632592,24.5227798 C47.9632592,24.5130215 47.9606236,24.4992291 47.9608134,24.4897512 C47.9615654,24.4478075 48.8426632,24.4108376 49.8948978,24.4108376 C51.1329472,24.4108376 52.1853716,23.5455964 52.4328691,22.371831 C52.4328691,22.3100882 52.4324931,22.2487226 52.4945554,22.2487226 C52.4945554,22.0634944 52.5573697,21.9394462 52.5573697,21.7541252 C52.5573697,20.2714586 51.3808206,19.0985383 49.8948977,19.0985383 C49.3378441,19.0985383 48.7809767,19.2841416 48.2856058,19.6546908 C47.7285485,20.0871702 46.98587,20.1481607 46.3667541,19.8393543 C45.7478242,19.530455 45.3137638,18.8513798 45.3137638,18.1719313 C45.3137638,16.9364232 44.3232118,16.0098144 43.1468488,16.0098144 C41.9628092,16.0098144 41.0616523,16.9140907 40.9855291,18.019949 L40.9803134,18.1719313 L40.9803134,64.7728245 L37.2659791,64.7728245 L37.2659791,18.2334847 C37.2659791,14.9594416 39.927889,12.3649408 43.1468488,12.3649408 Z M84.2688454,40.6 C85.8339703,40.6 87.8082491,41.0669505 90.1901598,41.9994255 L89.1056761,45.3253937 C87.5937858,44.1909557 86.0758125,43.6251683 84.5502328,43.6251683 C83.6391446,43.6251683 82.8740734,43.8256997 82.251978,44.2296259 C81.6298822,44.6335576 81.3180735,45.1434787 81.3180735,45.760832 C81.3180735,47.0585573 82.1013968,48.0411666 83.6665227,48.7086542 L86.3967461,49.8803364 C88.0683428,50.5993844 89.2866767,51.4187008 90.0502261,52.3382856 C90.8122546,53.2578593 91.1940299,54.4109251 91.1940299,55.7974606 C91.1940299,57.6122764 90.5171789,59.0331816 89.1665158,60.0587614 C87.8143332,61.0872046 85.9419625,61.6 83.5463618,61.6 C81.2846113,61.6 79.1567102,61.070014 77.1641791,60.0114904 L78.5087572,56.6096134 C80.6366588,57.9202344 82.3493228,58.5762578 83.646749,58.5762578 C86.0012819,58.5762578 87.1800696,57.6437828 87.1800696,55.7788329 C87.1800696,54.4424317 86.0423497,53.2965408 83.7669098,52.3382856 C82.0146993,51.5819936 80.8328696,51.009037 80.2244631,50.6180009 C79.6160568,50.228402 79.0867434,49.7829311 78.6395646,49.2859002 C78.1908648,48.7874319 77.8562413,48.2588942 77.6356941,47.6974017 C77.4151468,47.1373462 77.3041126,46.5357463 77.3041126,45.8926128 C77.3041126,44.2296259 77.9459814,42.9319006 79.2312398,41.9994255 C80.5149773,41.0669505 82.194179,40.6 84.2688454,40.6 Z M131.764516,29.4 C132.603662,29.4 133.283582,30.0914461 133.283582,30.9441867 C133.283582,31.7496487 132.67711,32.4110588 131.90281,32.4820628 L131.764516,32.4883733 L129.280996,32.4883733 L129.275868,61.519254 C128.769918,61.3431743 128.236277,61.2268897 127.671593,61.2268897 C127.106951,61.2268897 126.56655,61.3275002 126.06126,61.5049701 L125.811591,61.6 L125.811591,32.4883733 L123.578862,32.4883733 C122.739616,32.4883733 122.059701,31.7970288 122.059701,30.9441867 C122.059701,30.1388206 122.666169,29.4773252 123.440552,29.4063114 L123.578862,29.4 L131.764516,29.4 Z M170.71783,32.2 L170.71783,43.0446947 C171.219509,42.278643 172.028364,41.6391716 173.144403,41.126269 C174.260441,40.6133722 175.412704,40.357586 176.601179,40.357586 C178.84667,40.357586 180.605238,41.0840813 181.879554,42.5383906 C183.153881,43.9926999 183.791045,45.9783715 183.791045,48.4967122 L183.791045,61.6 L180.028433,61.6 L180.028433,48.4967122 C180.028433,46.9382378 179.638093,45.712031 178.860084,44.8167619 C178.080729,43.9201799 176.983471,43.4732104 175.570981,43.4732104 C174.660177,43.4732104 173.745354,43.7355893 172.827836,44.2616716 C171.91033,44.7864411 171.206094,45.4008602 170.71783,46.1009904 L170.71783,61.6 L166.955224,61.6 L166.955224,32.2 L170.71783,32.2 Z M139.070843,35 L139.070843,40.690911 L144.491095,40.690911 L144.491095,43.5655738 L139.070843,43.5655738 L139.070843,53.7611963 C139.070843,55.485994 139.350473,56.7137305 139.909721,57.4417986 C140.468974,58.169878 141.369021,58.533266 142.611111,58.533266 C143.507413,58.533266 144.436167,58.2970564 145.394887,57.8246488 L145.910448,61.0250675 C144.459886,61.4092211 142.868264,61.6 141.135581,61.6 C139.575168,61.6 138.256934,60.9965146 137.18212,59.7895438 C136.106059,58.581281 135.569276,57.057645 135.569276,55.2186474 L135.569276,43.5655738 L133.283582,43.5655738 L133.283582,40.690911 L135.569276,40.690911 L135.569276,36.397744 L139.070843,35 Z M157.883862,40.6 C158.937552,40.6 160.080233,40.8201591 161.311902,41.2617683 C162.54228,41.7033723 163.450234,42.1565021 164.034472,42.622427 L162.24436,45.1555863 C161.876794,44.7895004 161.225494,44.4438956 160.293036,44.1162117 C159.359287,43.7885277 158.442306,43.6246856 157.540801,43.6246856 C155.57271,43.6246856 154.010878,44.308215 152.855299,45.6752736 C151.69972,47.0423378 151.121936,48.9162888 151.121936,51.2983955 C151.121936,53.6677127 151.712617,55.4725404 152.893991,56.7141645 C154.07407,57.9557773 155.711997,58.5753148 157.806484,58.5753148 C159.432803,58.5753148 161.069435,57.9519427 162.72026,56.7039239 L164.149254,59.7286091 C162.206958,60.9766278 159.800364,61.6 156.930768,61.6 C154.150165,61.6 151.85191,60.674545 150.037293,58.8210749 C148.221386,56.9688905 147.313433,54.4613269 147.313433,51.2983952 C147.313433,48.0727462 148.256209,45.4832699 150.141757,43.5299609 C152.02731,41.5766517 154.608008,40.6 157.883862,40.6 Z M95.1971316,40.6 L99.713724,54.0943299 L105.333424,40.6 L106.320342,40.6 L112.11766,54.0943299 L116.969458,40.6 L120.656716,40.6 L113.084546,61.6 L112.098963,61.6 L105.906342,47.6065017 L99.7337555,61.6 L98.7468357,61.6 L91.1940299,40.6 L95.1971316,40.6 Z M56.0719742,23.4383457 C56.0595632,23.4981178 56.0480903,23.5590154 56.0238304,23.607339 C56.0238304,23.6690817 56.0242064,23.6698321 55.9621441,23.7315748 C55.1998577,26.1305537 52.990123,27.9079988 50.3391626,28.0896 L50.0812745,28.1021598 L50.0812745,36.7656328 C50.0812745,39.4837127 52.2468717,41.6460173 54.9706503,41.6460173 C55.862147,41.6460173 56.6537119,41.3955034 57.3899046,40.9851139 L57.6333124,40.8425204 L58.3338629,40.2835504 C58.4171772,40.2098001 58.4788636,40.1192487 58.5772208,40.0587262 C58.5794805,40.0573183 58.5822984,40.0575078 58.584558,40.0560999 C58.6026124,40.034986 58.6234884,40.0165948 58.6234884,39.9774649 C58.7224845,39.8786023 58.7821251,39.7797396 58.8336049,39.7125378 L58.871172,39.6685675 L58.9945448,39.5454572 C59.0566071,39.4219718 59.1807318,39.2988615 59.2424182,39.1135387 C59.2424182,39.1135387 59.2422283,39.050858 59.3041045,39.050858 C59.3661668,38.8655388 59.4901017,38.7427108 59.5519742,38.557388 C59.5519742,38.4955505 59.6136605,38.4333379 59.6136605,38.3715971 C59.6757229,38.2480188 59.6762887,38.1247191 59.7381612,38.0011408 C59.7381612,37.9393999 59.7998476,37.8770945 59.7998476,37.8153499 C59.7998476,37.7329644 59.8272637,37.6507043 59.8455411,37.5684024 L59.8615339,37.4448973 L59.8615339,37.2603248 C59.8615339,37.0750018 59.9232202,36.8894932 59.9232202,36.7041741 C59.9232202,35.2455654 59.3159613,33.9516735 58.2055292,33.0318164 L58.0043685,32.873414 L56.3333903,32.873414 C55.2809622,32.873414 54.4762212,32.0703854 54.4762212,31.0201982 C54.4762212,30.0200219 55.2061449,29.2440237 56.1847885,29.1723871 L56.3333903,29.1669844 L57.4157179,29.1669844 C57.6524944,28.2731238 57.9503915,26.5429254 57.2530388,24.9855688 C56.9912505,24.40211 56.5878451,23.8900595 56.0719742,23.4383457 Z M16.235524,23.4299933 C15.7149533,23.8853679 15.3136168,24.4051133 15.047689,25.0078064 C14.3593625,26.5660082 14.6576375,28.2831645 14.8927222,29.1669845 L14.8927222,29.1669845 L15.9767418,29.1669845 C17.0291682,29.1669845 17.833721,29.970013 17.833721,31.0201983 C17.833721,32.0703854 17.0291682,32.8734141 15.9767418,32.8734141 L15.9767418,32.8734141 L14.3055756,32.8734141 C13.0675271,33.800021 12.3869109,35.1597649 12.3869109,36.7041742 C12.3869109,36.8894934 12.4485972,37.075002 12.4485972,37.2603249 L12.4485972,37.2603249 L12.4485972,37.4448974 C12.4485972,37.5684757 12.5102827,37.6917717 12.5102827,37.81535 C12.5102827,37.8770946 12.571969,37.9394 12.571969,38.0011409 C12.6336554,38.1247191 12.6344074,38.2480189 12.6964697,38.3715972 C12.6964697,38.433338 12.7581561,38.4955506 12.7581561,38.5573881 C12.8198425,38.742711 12.9439663,38.865539 13.0060286,39.0508581 C13.0677149,39.0508581 13.067527,39.1135388 13.067527,39.1135388 C13.1294013,39.2988616 13.2535261,39.4219719 13.3153995,39.5454573 L13.3153995,39.5454573 L13.4387722,39.6685676 C13.5006466,39.7303084 13.5627089,39.8538868 13.6866447,39.977465 C13.6866447,40.0392096 13.7483311,40.03996 13.7483311,40.1017009 L13.7483311,40.1017009 L14.6768197,40.8425206 C15.4817486,41.3367409 16.3487398,41.6460173 17.3392918,41.6460173 C20.0630722,41.6460173 22.2288574,39.4837127 22.2288574,36.7656328 L22.2288574,36.7656328 L22.2288574,28.1021598 C19.4638887,28.022026 17.1346743,26.2079402 16.3479878,23.7315748 C16.2859255,23.6698321 16.2863015,23.6690817 16.2863015,23.607339 C16.2607238,23.5565748 16.2486888,23.4928615 16.235524,23.4299933 Z" id="Combined-Shape" fill="#FFFFFF"></path>
    </g>
</svg>