<?xml version="1.0" encoding="UTF-8"?>
<svg width="270px" height="102px" viewBox="0 0 270 102" version="1.1" xmlns="http://www.w3.org/2000/svg" xmlns:xlink="http://www.w3.org/1999/xlink">
    <!-- Generator: Sketch 64 (93537) - https://sketch.com -->
    <title>thepresents</title>
    <desc>Created with Sketch.</desc>
    <g id="thepresents" stroke="none" stroke-width="1" fill="none" fill-rule="evenodd">
        <g id="Group" transform="translate(7.000000, 11.000000)" fill="#1F1F20">
            <path d="M74.4108592,18.69245 L65.7827399,18.69245 C64.7188827,18.69245 63.8562407,19.560343 63.8562407,20.6308808 C63.8562407,21.7014186 64.7188827,22.5696527 65.7827399,22.5696527 L70.6462325,22.5696527 C65.1488441,28.8168447 55.1767979,32.6800602 44.452574,32.6800602 C33.1964216,32.6800602 22.8926423,28.4879733 17.56248,21.7396277 C16.9003734,20.9017562 15.6879842,20.7622246 14.8555924,21.4284963 C14.0228608,22.0944267 13.8841855,23.3137072 14.5459522,24.1522611 C17.7558777,28.2160745 22.4936109,31.4624855 28.0888877,33.6134546 L17.5872921,44.1806658 C16.8347746,44.9376841 16.8347746,46.1651523 17.5872921,46.9221706 C17.9632109,47.3005091 18.456392,47.489849 18.949573,47.489849 C19.4424142,47.489849 19.9355953,47.3005091 20.3115141,46.9221706 L32.2046213,34.9545266 C36.0559201,35.9981134 40.1988449,36.557263 44.452574,36.557263 C48.5326191,36.557263 52.5246326,36.0339344 56.2603687,35.0596017 L68.1837261,47.0579494 C68.5599848,47.4366291 69.0531659,47.625969 69.5463469,47.625969 C70.0391881,47.625969 70.5323692,47.4366291 70.908288,47.0582906 C71.6608055,46.3009311 71.6608055,45.0738041 70.9086279,44.3167858 L60.411111,33.7529861 C65.1699174,31.9796733 69.3335755,29.4227323 72.4843601,26.256151 L72.4843601,29.3128811 C72.4843601,30.3834189 73.3470021,31.2513119 74.4108592,31.2513119 C75.4747164,31.2513119 76.3373584,30.3834189 76.3373584,29.3128811 L76.3373584,20.6308808 C76.3373584,19.560343 75.4747164,18.69245 74.4108592,18.69245 L74.4108592,18.69245 Z M85.0885181,43.6952052 C85.0885181,53.8076596 76.912453,62.0345619 66.8625719,62.0345619 L22.0782647,62.0345619 C12.0287234,62.0345619 3.85299827,53.8076596 3.85299827,43.6952052 L3.85299827,22.2169006 C3.85299827,12.1041051 12.0287234,3.87720277 22.0782647,3.87720277 L66.8625719,3.87720277 C76.912453,3.87720277 85.0885181,12.1041051 85.0885181,22.2169006 L85.0885181,43.6952052 Z M66.8625719,0 L22.0782647,0 C9.90440806,0 0,9.96644097 0,22.2169006 L0,43.6952052 C0,55.9453237 9.90440806,65.9117647 22.0782647,65.9117647 L66.8625719,65.9117647 C79.0367684,65.9117647 88.9411765,55.9453237 88.9411765,43.6952052 L88.9411765,22.2169006 C88.9411765,9.96644097 79.0367684,0 66.8625719,0 L66.8625719,0 Z" id="Fill-1"></path>
            <path d="M113.417682,31.7647059 L113.417682,6.67710248 L123.014562,6.67710248 L123.014562,3.28426585 L99.9044979,3.28426585 L99.9044979,6.67710248 L109.501379,6.67710248 L109.501379,31.7647059 L113.417682,31.7647059 Z M129.567584,31.7647059 L129.567584,20.7525276 C129.567584,17.9865579 130.155676,16.105957 131.331859,15.110725 C132.508042,14.1154929 133.819939,13.6178768 135.267549,13.6178768 C137.012437,13.6178768 138.201545,14.1865809 138.834875,15.323989 C139.222628,16.034869 139.416504,17.1528895 139.416504,18.6780503 L139.416504,18.6780503 L139.416504,31.7647059 L143.003217,31.7647059 L143.003217,18.4453987 C143.003217,16.4032341 142.712402,14.8069853 142.130773,13.6566521 C141.057991,11.5498621 139.015826,10.4964671 136.00428,10.4964671 C134.324018,10.4964671 132.921645,10.8648323 131.797162,11.6015625 C131.137983,12.0280905 130.39479,12.7648208 129.567584,13.8117532 L129.567584,13.8117532 L129.567584,3.18732767 L126.077809,3.18732767 L126.077809,31.7647059 L129.567584,31.7647059 Z M156.264361,32.5014361 C157.324219,32.5014361 158.274213,32.3980354 159.114344,32.1912339 C160.67828,31.8293313 161.990177,31.1313764 163.050034,30.097369 C163.683364,29.5028148 164.255299,28.7370031 164.76584,27.7999339 C165.276382,26.8628648 165.57689,26.01304 165.667366,25.2504596 L165.667366,25.2504596 L162.235754,25.2504596 C161.977252,26.1681411 161.537799,26.9759593 160.917394,27.6739143 C159.831687,28.8759478 158.377614,29.4769646 156.555176,29.4769646 C154.603487,29.4769646 153.162339,28.8404038 152.231733,27.5672823 C151.301126,26.2941607 150.80351,24.604205 150.738884,22.497415 L150.738884,22.497415 L165.95818,22.497415 C165.95818,20.4035501 165.854779,18.8783892 165.647978,17.9219324 C165.415326,16.5260225 164.950023,15.3046013 164.252068,14.2576689 C163.528263,13.1590361 162.474868,12.2639735 161.091883,11.572481 C159.708898,10.8809886 158.280676,10.5352424 156.807215,10.5352424 C153.886144,10.5352424 151.520852,11.5757123 149.71134,13.6566521 C147.901827,15.7375919 146.99707,18.4453987 146.99707,21.7800724 C146.99707,25.1664465 147.895364,27.7999339 149.691952,29.6805348 C151.48854,31.5611357 153.679343,32.5014361 156.264361,32.5014361 Z M162.371467,19.7249828 L150.835823,19.7249828 C150.900448,17.9413201 151.475615,16.4710909 152.561322,15.3142952 C153.64703,14.1574994 154.99124,13.5791016 156.593951,13.5791016 C158.829992,13.5791016 160.426241,14.4192325 161.382698,16.0994945 C161.899701,17.0042509 162.229291,18.212747 162.371467,19.7249828 L162.371467,19.7249828 Z M106.515682,79.4117647 L106.515682,67.3720416 L115.472771,67.3720416 C118.342142,67.3720416 120.468319,66.548067 121.851304,64.9001178 C123.234289,63.2521685 123.925781,61.316636 123.925781,59.0935202 C123.925781,56.5085018 123.150276,54.5018813 121.599265,53.0736587 C120.048254,51.645436 118.006089,50.9313247 115.472771,50.9313247 L115.472771,50.9313247 L102.657543,50.9313247 L102.657543,79.4117647 L106.515682,79.4117647 Z M114.193187,64.1149184 L106.515682,64.1149184 L106.515682,54.2466108 L114.193187,54.2466108 C115.679573,54.2466108 116.849293,54.4469497 117.702349,54.8476275 C119.253361,55.5972829 120.028866,57.019043 120.028866,59.1129079 C120.028866,60.9741211 119.489243,62.2730928 118.409998,63.0098231 C117.330753,63.7465533 115.925149,64.1149184 114.193187,64.1149184 L114.193187,64.1149184 Z M131.8941,79.4117647 L131.8941,67.4689798 C131.8941,65.9955193 132.365866,64.6933163 133.309398,63.5623707 C134.25293,62.4314252 135.603602,61.8659524 137.361414,61.8659524 C137.568216,61.8659524 137.758861,61.872415 137.93335,61.8853401 C138.107838,61.8982652 138.298483,61.9241153 138.505285,61.9628906 L138.505285,61.9628906 L138.505285,58.2792394 C138.130457,58.2404642 137.865493,58.214614 137.710392,58.2016889 C137.555291,58.1887638 137.445427,58.1823012 137.380802,58.1823012 C135.997817,58.1823012 134.776396,58.6831486 133.716538,59.6848432 C132.656681,60.6865378 131.991039,61.5363626 131.719612,62.2343176 L131.719612,62.2343176 L131.719612,58.6476045 L128.404326,58.6476045 L128.404326,79.4117647 L131.8941,79.4117647 Z M149.633789,80.1484949 C150.693647,80.1484949 151.643641,80.0450942 152.483772,79.8382927 C154.047708,79.4763902 155.359605,78.7784352 156.419462,77.7444278 C157.052792,77.1498736 157.624727,76.3840619 158.135268,75.4469928 C158.645809,74.5099236 158.946318,73.6600988 159.036793,72.8975184 L159.036793,72.8975184 L155.605182,72.8975184 C155.34668,73.8151999 154.907227,74.6230182 154.286822,75.3209731 C153.201114,76.5230067 151.747042,77.1240234 149.924604,77.1240234 C147.972915,77.1240234 146.531767,76.4874627 145.60116,75.2143411 C144.670554,73.9412196 144.172938,72.2512638 144.108312,70.1444738 L144.108312,70.1444738 L159.327608,70.1444738 C159.327608,68.0506089 159.224207,66.5254481 159.017406,65.5689913 C158.784754,64.1730813 158.319451,62.9516602 157.621496,61.9047277 C156.897691,60.8060949 155.844296,59.9110323 154.461311,59.2195399 C153.078326,58.5280474 151.650103,58.1823012 150.176643,58.1823012 C147.255572,58.1823012 144.89028,59.2227711 143.080767,61.3037109 C141.271255,63.3846507 140.366498,66.0924575 140.366498,69.4271312 C140.366498,72.8135053 141.264792,75.4469928 143.06138,77.3275936 C144.857968,79.2081945 147.048771,80.1484949 149.633789,80.1484949 Z M155.740895,67.3720416 L144.20525,67.3720416 C144.269876,65.5883789 144.845043,64.1181497 145.93075,62.961354 C147.016458,61.8045582 148.360668,61.2261604 149.963379,61.2261604 C152.19942,61.2261604 153.795669,62.0662914 154.752125,63.7465533 C155.269129,64.6513097 155.598719,65.8598058 155.740895,67.3720416 L155.740895,67.3720416 Z M170.960191,80.2066579 C173.829561,80.2066579 175.965433,79.5345531 177.367805,78.1903435 C178.770178,76.846134 179.471364,75.2498851 179.471364,73.401597 C179.471364,71.4886834 178.792796,70.0863109 177.435662,69.1944795 C176.582606,68.6257755 174.902344,68.0376838 172.394876,67.4302045 L172.394876,67.4302045 L170.087747,66.867963 C169.07959,66.6223863 168.317009,66.3380342 167.800006,66.0149069 C166.908174,65.4720531 166.462259,64.7482479 166.462259,63.8434915 C166.462259,63.0162856 166.801542,62.3506434 167.48011,61.8465648 C168.158677,61.3424862 169.15714,61.0904469 170.4755,61.0904469 C172.453039,61.0904469 173.842486,61.5492877 174.643842,62.4669692 C175.134995,63.1132238 175.412885,63.8305664 175.47751,64.618997 L175.47751,64.618997 L178.773409,64.618997 C178.799259,63.2747875 178.379193,62.0210535 177.513212,60.8577953 C176.130227,59.0224322 173.874799,58.1047507 170.746927,58.1047507 C168.355785,58.1047507 166.452565,58.71223 165.037267,59.9271886 C163.62197,61.1421473 162.914321,62.7319336 162.914321,64.6965476 C162.914321,66.3638844 163.663976,67.6693187 165.163287,68.6128504 C166.003418,69.1557043 167.308852,69.6468578 169.07959,70.0863109 L169.07959,70.0863109 L171.852022,70.7842659 C173.338408,71.1590935 174.33364,71.4886834 174.837718,71.7730354 C175.626149,72.2383387 176.020364,72.916906 176.020364,73.8087374 C176.020364,74.9849207 175.529211,75.8541332 174.546904,76.4163747 C173.564597,76.9786162 172.427189,77.2597369 171.134679,77.2597369 C168.963264,77.2597369 167.438103,76.6974954 166.559197,75.5730124 C166.080969,74.952608 165.790154,74.0607767 165.686753,72.8975184 L165.686753,72.8975184 L162.332692,72.8975184 C162.423168,74.9655331 163.111429,76.7007267 164.397475,78.1030991 C165.683522,79.5054716 167.871094,80.2066579 170.960191,80.2066579 Z M191.56925,80.1484949 C192.629107,80.1484949 193.579102,80.0450942 194.419233,79.8382927 C195.983169,79.4763902 197.295065,78.7784352 198.354923,77.7444278 C198.988253,77.1498736 199.560188,76.3840619 200.070729,75.4469928 C200.58127,74.5099236 200.881778,73.6600988 200.972254,72.8975184 L200.972254,72.8975184 L197.540642,72.8975184 C197.28214,73.8151999 196.842687,74.6230182 196.222283,75.3209731 C195.136575,76.5230067 193.682502,77.1240234 191.860064,77.1240234 C189.908375,77.1240234 188.467228,76.4874627 187.536621,75.2143411 C186.606014,73.9412196 186.108398,72.2512638 186.043773,70.1444738 L186.043773,70.1444738 L201.263069,70.1444738 C201.263069,68.0506089 201.159668,66.5254481 200.952866,65.5689913 C200.720215,64.1730813 200.254912,62.9516602 199.556957,61.9047277 C198.833151,60.8060949 197.779756,59.9110323 196.396772,59.2195399 C195.013787,58.5280474 193.585564,58.1823012 192.112104,58.1823012 C189.191033,58.1823012 186.825741,59.2227711 185.016228,61.3037109 C183.206715,63.3846507 182.301959,66.0924575 182.301959,69.4271312 C182.301959,72.8135053 183.200253,75.4469928 184.996841,77.3275936 C186.793428,79.2081945 188.984231,80.1484949 191.56925,80.1484949 Z M197.676356,67.3720416 L186.140711,67.3720416 C186.205337,65.5883789 186.780503,64.1181497 187.866211,62.961354 C188.951919,61.8045582 190.296128,61.2261604 191.89884,61.2261604 C194.134881,61.2261604 195.731129,62.0662914 196.687586,63.7465533 C197.20459,64.6513097 197.53418,65.8598058 197.676356,67.3720416 L197.676356,67.3720416 Z M209.037511,79.4117647 L209.037511,68.5352999 C209.037511,67.1781652 209.124756,66.134464 209.299245,65.4041963 C209.473733,64.6739287 209.851792,63.9662799 210.433421,63.28125 C211.157227,62.4281939 211.997358,61.8594899 212.953814,61.5751379 C213.483743,61.4071117 214.16231,61.3230986 214.989516,61.3230986 C216.618078,61.3230986 217.742561,61.9693532 218.362965,63.2618624 C218.737793,64.0373679 218.925207,65.0584501 218.925207,66.3251091 L218.925207,66.3251091 L218.925207,79.4117647 L222.473145,79.4117647 L222.473145,66.0924575 C222.473145,63.9985926 222.188793,62.3894187 221.620088,61.2649357 C220.586081,59.209846 218.595617,58.1823012 215.648696,58.1823012 C214.304486,58.1823012 213.083065,58.4472656 211.984432,58.9771944 C210.8858,59.5071232 209.84533,60.3795669 208.863023,61.5945255 L208.863023,61.5945255 L208.863023,58.6476045 L205.547737,58.6476045 L205.547737,79.4117647 L209.037511,79.4117647 Z M232.515941,79.7413545 C233.02002,79.7413545 233.488554,79.7155044 233.921545,79.663804 C234.354535,79.6121036 234.771369,79.5280905 235.172047,79.4117647 L235.172047,79.4117647 L235.172047,76.6587201 C234.913545,76.6845703 234.687356,76.7007267 234.49348,76.7071892 C234.299604,76.7136518 234.118652,76.716883 233.950626,76.716883 C233.317297,76.716883 232.864918,76.645795 232.593491,76.503619 C232.102338,76.2580423 231.856761,75.7733513 231.856761,75.0495462 L231.856761,75.0495462 L231.856761,61.4975873 L235.172047,61.4975873 L235.172047,58.6476045 L231.856761,58.6476045 L231.856761,52.8507008 L228.328211,52.8507008 L228.328211,58.6476045 L225.517004,58.6476045 L225.517004,61.4975873 L228.328211,61.4975873 L228.328211,75.2434226 C228.328211,76.574707 228.619026,77.6571835 229.200655,78.4908519 C229.782284,79.3245203 230.887379,79.7413545 232.515941,79.7413545 Z" id="ThePresent" fill-rule="nonzero"></path>
        </g>
    </g>
</svg>