<?xml version="1.0" encoding="UTF-8"?>
<svg width="270px" height="102px" viewBox="0 0 270 102" version="1.1" xmlns="http://www.w3.org/2000/svg" xmlns:xlink="http://www.w3.org/1999/xlink">
    <!-- Generator: Sketch 64 (93537) - https://sketch.com -->
    <title>tipping</title>
    <desc>Created with Sketch.</desc>
    <g id="tipping" stroke="none" stroke-width="1" fill="none" fill-rule="evenodd">
        <g id="Group" transform="translate(0.000000, 9.000000)">
            <g id="logo">
                <g id="Group-5">
                    <g id="Group-4">
                        <path d="M79.3127502,21.3166084 C82.8984116,27.5461568 84.9493456,34.7709924 84.9493456,42.4749088 C84.9493456,65.9329279 65.9329279,84.9493456 42.4744368,84.9493456 C31.1817165,84.9493456 20.9183248,80.5423443 13.3102778,73.3543576 L13.6859294,73.3541647 C14.4274505,73.3541647 15.0368344,72.7883998 15.1059608,72.0653836 L15.1124912,71.928075 L15.1118235,71.8543529 L24.6953209,73.0259757 C29.8881782,76.0347215 35.9192788,77.7570574 42.3526456,77.7570574 C45.7047353,77.7570574 48.9482515,77.2897191 52.0208824,76.4154662 L51.7626662,75.5076971 C48.7726456,76.357875 45.6164603,76.8129397 42.3526456,76.8129397 C36.9506765,76.8129397 31.841573,75.5659239 27.2959396,73.3436319 L33.5256176,74.104308 L43.4053368,69.0919874 L49.3348676,70.1328772 C51.2065047,70.4613387 53.1846866,69.2362798 53.617976,67.404068 L53.6560941,67.218858 L53.6636471,67.1754286 C53.9890057,65.3227551 52.7307697,63.5349251 50.9191429,63.0920185 L50.7298015,63.0510507 L50.3985882,62.9883529 L55.8153699,59.6968764 C57.1923655,58.8603882 57.6304361,57.0660926 56.7939478,55.689097 C55.9891783,54.3650628 54.2992985,53.9099904 52.9463542,54.6205785 L52.7856964,54.7114632 L52.1815745,55.0801719 C52.2228127,54.3711355 52.0124022,53.6449088 51.5342741,53.0462056 C50.5447662,51.8097746 48.7722761,51.5688744 47.4942445,52.4657694 L47.3433359,52.5788673 L43.6165882,55.5563529 L43.7665209,55.4078455 C44.630209,54.5433517 44.7565101,53.2209559 44.145424,52.2227621 C47.0226266,49.0866842 49.8493097,45.8758552 54.0734768,44.6502028 C54.6172885,44.491119 54.8353797,44.0459676 54.5266533,43.6074249 L54.5266533,43.6074249 L48.635,35.239 L53.2625928,36.55994 C53.4675843,36.6183573 53.6733725,36.6536732 53.8775674,36.66768 L54.0811428,36.6746503 C55.3797766,36.6746503 56.5740854,35.8202238 56.9470119,34.5093165 C57.0098999,34.2890773 57.0462782,34.0675602 57.0580458,33.8481658 L57.061,33.629 L57.0962455,33.6356766 C59.5508603,34.027369 62.0458756,33.8984195 64.452933,33.2558294 L70.9636734,31.5054746 C71.1780811,31.9259277 71.5949392,32.2258052 72.0856222,32.2768536 L72.2349132,32.284575 L75.088247,32.2846211 C75.6340731,34.0663085 76.0388094,35.9096228 76.2894265,37.8015265 L77.2250471,37.677375 C76.9804596,35.8307042 76.5930397,34.0291637 76.0742539,32.2842122 L79.3124912,32.284575 L79.3127502,21.3166084 Z M35.7424059,67.5044118 L43.4978603,68.7652809 L40.8014603,70.1333074 L36.1889735,69.3105088 L31.3513147,71.0939471 L23.1308824,69.6513353 L29.4163456,69.9317382 L35.7424059,67.5044118 Z M42.4744368,-8.2086996e-10 C55.281724,-8.2086996e-10 66.7649749,5.66816984 74.5524869,14.6328069 L72.2349132,14.6338235 C71.4938364,14.6338235 70.8844787,15.1991703 70.8153539,15.9225309 L70.8088235,16.0599132 L70.808,16.761 L65.5307235,15.8455811 C59.320443,10.3894992 51.1767425,7.08135277 42.2601221,7.08088235 C40.0810985,7.08088235 37.9473926,7.278675 35.8764706,7.65726618 L36.0464118,8.58580588 C38.0611588,8.2176 40.1382176,8.025 42.2601221,8.025 C50.3609342,8.02456085 57.8065526,10.8308837 63.6778511,15.5242722 L42.4625448,11.8465456 C41.7841963,11.729475 41.0869654,11.841825 40.4803698,12.1675456 L24.2826154,20.8685338 C22.7843007,21.6729221 22.2211345,23.5394427 23.0255227,25.0377574 C23.581136,26.0729824 24.6432683,26.6616397 25.7412772,26.6616397 C26.2326904,26.6616397 26.7311845,26.543625 27.1947463,26.29485 L38.088,20.442 L35.693,24.487 L35.5284727,24.4854485 C33.5651801,24.4391868 31.758611,26.1494559 31.7128213,28.1127485 L31.7114051,28.15665 C31.6939883,28.9044831 31.9209626,29.6045536 32.317455,30.1870803 L31.5793069,31.4333309 C30.7338495,32.8462029 31.1941069,34.6773191 32.6069789,35.5227764 C33.0865907,35.8097882 33.6143525,35.9462132 34.1355054,35.9462132 C35.0861139,35.9462132 36.014318,35.4914878 36.5871641,34.6652754 L36.6968966,34.4951044 L38.247,31.903 L40.697,31.991 L40.5978992,36.2875038 C40.5962051,36.3595448 40.5970816,36.4310496 40.6004449,36.5019304 L40.5979696,36.6506471 L40.5987578,36.8040267 C36.1503692,40.6528433 32.9732335,46.3075012 27.0296988,48.0320323 C26.4858871,48.1911161 26.2677959,48.6362676 26.5765224,49.0748102 C28.8060562,52.2418528 31.035118,55.4084234 33.2641797,58.574994 L31.627,56.249 L29.7858334,58.0915391 C27.4491934,57.2833501 24.9937127,56.9759863 22.5357863,57.1804786 L22.0442029,57.2282051 L15.1247647,58.0108786 L15.1118235,58.0783529 L15.1124912,57.1295029 C15.1124912,56.3879818 14.5467262,55.778598 13.8233165,55.7094716 L13.6859294,55.7029412 L10.6616211,55.7024733 C8.96301291,51.634686 8.025,47.1701241 8.025,42.4852941 L7.08088235,42.4852941 C7.08088235,47.1590806 7.989897,51.6205109 9.64076965,55.702448 L6.60882353,55.7029412 L6.60785334,65.2372701 C2.42367243,58.6580147 -8.2086996e-10,50.8495063 -8.2086996e-10,42.4749088 C-8.2086996e-10,19.0164176 19.0164176,-8.2086996e-10 42.4744368,-8.2086996e-10 Z" id="Combined-Shape" fill="#1F1F20"></path>
                        <polygon id="Fill-45" fill="#1F1F20" points="1.88823529 74.2737353 10.8398868 74.2737353 10.8398868 54.7588235 1.88823529 54.7588235"></polygon>
                        <path d="M40.6426607,37.236 C40.6426607,37.2355279 40.6421886,37.2345838 40.6421886,37.2336397 C40.6421886,37.2345838 40.6426607,37.2355279 40.6426607,37.236 M40.6403004,37.2237265 C40.6398283,37.21995 40.6388842,37.2157015 40.6384121,37.211925 C40.6388842,37.2161735 40.6398283,37.21995 40.6403004,37.2237265 M40.6379401,37.2105088 C40.6072562,37.0268779 40.5935665,36.8380544 40.5978151,36.6454544 L40.781918,28.7955882 L40.5982871,36.6454544 C40.5935665,36.8380544 40.6072562,37.0268779 40.6379401,37.2105088" id="Fill-51" fill="#9A2E29"></path>
                        <polygon id="Fill-55" fill="#1F1F20" points="75.0573529 33.2046176 84.0090044 33.2046176 84.0090044 13.6897059 75.0573529 13.6897059"></polygon>
                        <path d="M43.4416853,35.8764706 C44.4603882,37.3238029 46.4515324,37.6778471 48.1986221,37.1071279 C49.0469118,38.3122941 49.8952015,39.5169882 50.7434912,40.7221544 C48.9964015,41.2928735 48.6451897,43.2674956 49.6492588,44.6940574 C44.8441721,47.6675559 41.8461265,53.2085824 37.0410397,56.1820809 C36.0223368,54.7352206 34.0311926,54.3811765 32.284575,54.9518956 C31.4362853,53.7467294 30.5879956,52.5415632 29.7397059,51.3368691 C31.4867956,50.76615 31.8380074,48.7910559 30.8339382,47.3649662 C35.639025,44.3909956 38.6365985,38.8499691 43.4416853,35.8764706 Z M43.2500294,37.2926471 C39.1917397,40.1665412 36.3711882,44.7993265 32.3128985,47.6727485 C32.3468868,47.7213706 32.380875,47.7695206 32.4148632,47.8181426 C33.2598485,49.0181162 32.6187926,51.1504059 31.3239353,51.6696706 L31.3239353,51.6696706 L31.1558824,51.7395353 C31.7454838,52.5769676 32.3346132,53.4139279 32.9242147,54.2513603 C32.9803897,54.2282294 33.0360926,54.2050985 33.0917956,54.1814956 C34.3866529,53.6622309 36.6091059,53.7764691 37.4441779,54.9618088 C37.4781662,55.0104309 37.5121544,55.0585809 37.5461426,55.1072029 C41.6049044,52.2333088 44.4249838,47.6005235 48.4837456,44.7271015 C48.4497574,44.6784794 48.4152971,44.6303294 48.3813088,44.5817074 C47.5740882,43.4355485 47.9045294,41.4203294 49.2140206,40.8430015 C49.2687794,40.8184544 49.3240103,40.7939074 49.3797132,40.7698324 C48.7901118,39.9328721 48.2009824,39.0954397 47.6113809,38.2584794 C47.55615,38.2820824 47.5009191,38.3066294 47.4461603,38.3311765 C46.1361971,38.9089765 44.1606309,38.5860882 43.3524662,37.4380412 C43.3184779,37.3894191 43.2844897,37.3412691 43.2500294,37.2926471 Z" id="Combined-Shape" fill="#1F1F20"></path>
                        <path d="M41.9339294,48.6527426 C41.8078897,48.4738324 41.68185,48.2949221 41.5553382,48.1155397 C41.2230088,48.4483412 40.839225,48.6838985 40.5682632,48.7561235 C40.4611059,48.4837456 40.3539485,48.2113676 40.2467912,47.9389897 C40.5408838,47.8516588 40.9072015,47.6633074 41.2182882,47.3238971 C41.4911382,47.0260279 41.5902706,46.6979471 41.4307147,46.4718309 C41.2791838,46.2565721 41.0304088,46.2882 40.5767603,46.5331985 C39.9220147,46.8881868 39.3711221,46.9825985 38.9845059,46.4340662 C38.6342382,45.9360441 38.6587853,45.2255956 39.0869426,44.5481912 C38.9609029,44.3692809 38.8348632,44.1898985 38.7088235,44.0109882 C38.865075,43.840575 39.0213265,43.6696897 39.1775779,43.4992765 C39.2941765,43.6654412 39.4112471,43.8311338 39.5278456,43.9972985 C39.8606471,43.6644971 40.1325529,43.5096618 40.3548926,43.4294118 C40.4582735,43.6923485 40.5616544,43.9557574 40.6655074,44.2186941 C40.4965103,44.2913912 40.1844794,44.4009088 39.8403485,44.7766676 C39.5292618,45.11655 39.5396471,45.3842074 39.651525,45.5423471 C39.7827574,45.7292824 40.0338926,45.6655544 40.5682632,45.4026176 C41.304675,45.0193059 41.7564353,45.0835059 42.1142559,45.5923853 C42.4687721,46.0956 42.4673559,46.8508941 41.9967132,47.564175 C42.1321941,47.756775 42.267675,47.9489029 42.4026838,48.1415029 C42.2464324,48.3119162 42.0901809,48.4823294 41.9339294,48.6527426" id="Fill-59" fill="#1F1F20"></path>
                    </g>
                </g>
            </g>
            <path d="M111.018441,55.9932353 C112.908442,55.9932353 114.636442,55.7367353 116.202442,55.2237353 C117.768442,54.7107353 119.219692,53.9749852 120.556192,53.0164852 C121.892692,52.0579852 123.134692,50.8969852 124.282192,49.5334851 C125.429692,48.1699851 126.516442,46.624235 127.542442,44.896235 C128.541442,43.2222349 129.506692,41.5212349 130.438192,39.7932349 C131.369692,38.0652348 132.328192,36.4992348 133.313692,35.0952347 C134.299192,33.6912347 135.338692,32.5437346 136.432192,31.6527346 C137.525692,30.7617346 138.733942,30.3162346 140.056942,30.3162346 C140.758942,30.3162346 141.535192,30.3432346 142.385692,30.3972346 C143.236192,30.4512346 144.174442,30.4782346 145.200442,30.4782346 C146.307442,30.4782346 147.117442,30.3297346 147.630442,30.0327346 C148.143443,29.7357346 148.399943,29.3712346 148.399943,28.9392345 C148.399943,28.5342345 148.244693,28.1967345 147.934192,27.9267345 C147.623692,27.6567345 147.103942,27.5082345 146.374942,27.4812345 C145.834942,27.4542345 145.112692,27.4137345 144.208192,27.3597345 C143.303692,27.3057345 142.304692,27.2517345 141.211192,27.1977345 C140.117692,27.1437345 138.956692,27.0964845 137.728192,27.0559845 C136.499692,27.0154845 135.291442,26.9952345 134.103442,26.9952345 C132.834442,26.9952345 131.308942,27.0627345 129.526942,27.1977345 C127.744942,27.3327345 125.881942,27.5622345 123.937942,27.8862345 C121.993942,28.2102345 120.056692,28.6557345 118.126192,29.2227346 C116.195692,29.7897346 114.467692,30.5052346 112.942192,31.3692346 C111.416691,32.2332346 110.181441,33.2659847 109.236441,34.4674847 C108.291441,35.6689847 107.818941,37.0662348 107.818941,38.6592348 C107.818941,39.6582348 108.007941,40.5289849 108.385941,41.2714849 C108.763941,42.0139849 109.256691,42.6282349 109.864191,43.1142349 C110.471691,43.600235 111.173691,43.964735 111.970191,44.207735 C112.766692,44.450735 113.569942,44.572235 114.379942,44.572235 C115.783942,44.572235 117.127192,44.329235 118.409692,43.843235 C119.692192,43.357235 120.819442,42.7092349 121.791442,41.8992349 C122.763442,41.0892349 123.539692,40.1509849 124.120192,39.0844848 C124.700692,38.0179848 124.990942,36.9042348 124.990942,35.7432347 C124.990942,35.3652347 124.984192,34.9939847 124.970692,34.6294847 C124.957192,34.2649847 124.909942,33.8937347 124.828942,33.5157347 L124.828942,33.5157347 L124.383442,33.5562347 C124.464442,34.1502347 124.504942,34.7442347 124.504942,35.3382347 C124.504942,36.5802348 124.201192,37.6737348 123.593692,38.6187348 C122.986192,39.5637348 122.203192,40.3399849 121.244692,40.9474849 C120.286192,41.5549849 119.233192,42.0139849 118.085692,42.3244849 C116.938192,42.6349849 115.824442,42.7902349 114.744442,42.7902349 C114.015442,42.7902349 113.272942,42.6957349 112.516942,42.5067349 C111.760941,42.3177349 111.072441,42.0409849 110.451441,41.6764849 C109.830441,41.3119849 109.317441,40.8462349 108.912441,40.2792349 C108.507441,39.7122348 108.304941,39.0642348 108.304941,38.3352348 C108.304941,37.2282348 108.615441,36.2494848 109.236441,35.3989847 C109.857441,34.5484847 110.714691,33.8059847 111.808191,33.1714847 C112.901692,32.5369846 114.170692,31.9969846 115.615192,31.5514846 C117.059692,31.1059846 118.605442,30.7549846 120.252442,30.4984846 C121.899442,30.2419846 123.600442,30.0529846 125.355442,29.9314846 C127.110442,29.8099846 128.824942,29.7492346 130.498942,29.7492346 C131.146942,29.7492346 131.848942,29.7559846 132.604942,29.7694846 C133.360942,29.7829846 134.096692,29.8032346 134.812192,29.8302346 C135.527692,29.8572346 136.189192,29.8909846 136.796692,29.9314846 C137.404192,29.9719846 137.910442,30.0192346 138.315442,30.0732346 L138.315442,30.0732346 L138.315442,30.1542346 C136.587442,30.6672346 135.102442,31.2679846 133.860442,31.9564846 C132.618442,32.6449847 131.504692,33.4617347 130.519192,34.4067347 C129.533692,35.3517347 128.615692,36.4519848 127.765192,37.7074848 C126.914692,38.9629848 126.016942,40.4142349 125.071942,42.0612349 C124.234942,43.519235 123.364192,45.044735 122.459692,46.637735 C121.555192,48.2307351 120.556192,49.6819851 119.462692,50.9914852 C118.369192,52.3009852 117.147442,53.3809852 115.797442,54.2314853 C114.447442,55.0819853 112.894942,55.5072353 111.139941,55.5072353 C109.330941,55.5072353 108.001191,55.1764853 107.150691,54.5149853 C106.300191,53.8534852 105.820941,52.8477352 105.712941,51.4977352 C106.171941,51.3627352 106.543191,51.1467352 106.826691,50.8497352 C107.110191,50.5527352 107.251941,50.1342351 107.251941,49.5942351 C107.251941,49.0272351 107.083191,48.5817351 106.745691,48.2577351 C106.408191,47.9337351 105.901941,47.7717351 105.226941,47.7717351 C104.443941,47.7717351 103.816191,48.0417351 103.343691,48.5817351 C102.871191,49.1217351 102.634941,49.7697351 102.634941,50.5257352 C102.634941,51.5787352 102.918441,52.4562352 103.485441,53.1582352 C104.052441,53.8602352 104.754441,54.4204853 105.591441,54.8389853 C106.428441,55.2574853 107.332941,55.5544853 108.304941,55.7299853 C109.276941,55.9054853 110.181441,55.9932353 111.018441,55.9932353 Z M142.122442,36.3912348 C142.662442,36.3912348 143.148442,36.1684847 143.580442,35.7229847 C144.012442,35.2774847 144.228442,34.7847347 144.228442,34.2447347 C144.228442,33.7317347 144.032692,33.2862347 143.641192,32.9082347 C143.249692,32.5302346 142.797442,32.3412346 142.284442,32.3412346 C141.663442,32.3412346 141.116692,32.5504846 140.644192,32.9689847 C140.171692,33.3874847 139.935442,33.9072347 139.935442,34.5282347 C139.935442,35.1492347 140.151442,35.6149847 140.583442,35.9254847 C141.015442,36.2359848 141.528442,36.3912348 142.122442,36.3912348 Z M132.240442,55.9932353 C133.185442,55.9932353 134.218192,55.6827353 135.338692,55.0617353 C136.459192,54.4407353 137.802442,53.3472352 139.368442,51.7812352 C139.908442,51.2412352 140.461942,50.6742352 141.028942,50.0802351 C141.595942,49.4862351 142.149442,48.8854851 142.689442,48.2779851 C143.229442,47.6704851 143.735692,47.0899851 144.208192,46.536485 C144.680692,45.982985 145.078942,45.490235 145.402942,45.058235 L145.402942,45.058235 L145.038442,44.815235 C144.795442,45.085235 144.478192,45.449735 144.086692,45.908735 C143.695192,46.367735 143.249692,46.880735 142.750192,47.4477351 C142.250692,48.0147351 141.717442,48.6019851 141.150442,49.2094851 C140.583442,49.8169851 140.002942,50.4312351 139.408942,51.0522352 C137.923942,52.5642352 136.688692,53.6307352 135.703192,54.2517353 C134.717692,54.8727353 133.954942,55.1832353 133.414942,55.1832353 C133.171942,55.1832353 132.989692,55.0819853 132.868192,54.8794853 C132.746692,54.6769853 132.685942,54.4137353 132.685942,54.0897353 C132.685942,53.6847352 132.827692,53.1649852 133.111192,52.5304852 C133.394692,51.8959852 133.826692,51.0792352 134.407192,50.0802351 C134.987692,49.0812351 135.736942,47.8729851 136.654942,46.455485 C137.572942,45.037985 138.666442,43.330235 139.935442,41.3322349 L139.935442,41.3322349 L135.763942,41.5347349 C134.548942,43.424735 133.536442,45.010985 132.726442,46.293485 C131.916442,47.5759851 131.268442,48.6492351 130.782442,49.5132351 C130.296442,50.3772351 129.952192,51.0994852 129.749692,51.6799852 C129.547192,52.2604852 129.445942,52.8207352 129.445942,53.3607352 C129.445942,54.1437353 129.688942,54.7782353 130.174942,55.2642353 C130.660942,55.7502353 131.349442,55.9932353 132.240442,55.9932353 Z M129.081442,68.7102357 L133.374442,68.5482357 C133.995442,67.6302356 134.785192,66.3409856 135.743692,64.6804855 C136.702192,63.0199855 137.761942,61.2109855 138.922942,59.2534854 C140.083942,57.2959853 141.292192,55.2979853 142.547692,53.2594852 C143.803192,51.2209852 145.038442,49.3714851 146.253442,47.7109851 C147.468442,46.050485 148.615943,44.693735 149.695943,43.640735 C150.775943,42.5877349 151.720943,42.0612349 152.530943,42.0612349 C152.881943,42.0612349 153.165443,42.1287349 153.381443,42.2637349 C153.597443,42.3987349 153.766193,42.5809849 153.887693,42.8104849 C154.009193,43.0399849 154.090193,43.2964849 154.130693,43.579985 C154.171193,43.863485 154.191443,44.153735 154.191443,44.450735 C154.191443,45.206735 154.096943,45.942485 153.907943,46.657985 C153.718943,47.3734851 153.482693,48.0417351 153.199193,48.6627351 C152.915693,49.2837351 152.618693,49.8439851 152.308193,50.3434851 C151.997693,50.8429852 151.720943,51.2547352 151.477943,51.5787352 C150.910943,51.6597352 150.202193,51.7677352 149.351693,51.9027352 C148.501193,52.0377352 147.684442,52.2199852 146.901442,52.4494852 C146.118442,52.6789852 145.450192,52.9759852 144.896692,53.3404852 C144.343192,53.7049852 144.066442,54.1707353 144.066442,54.7377353 C144.066442,55.2777353 144.275692,55.6624853 144.694192,55.8919853 C145.112692,56.1214853 145.605442,56.2362353 146.172442,56.2362353 C146.928442,56.2362353 147.697942,56.0877353 148.480943,55.7907353 C149.263943,55.4937353 150.033443,55.1157353 150.789443,54.6567353 C151.545443,54.1977353 152.260943,53.6982352 152.935943,53.1582352 C153.610943,52.6182352 154.218443,52.1052352 154.758443,51.6192352 C155.892443,51.4302352 156.965693,51.0994852 157.978193,50.6269852 C158.990693,50.1544851 159.922193,49.6009851 160.772693,48.9664851 C161.623193,48.3319851 162.399443,47.6637351 163.101443,46.9617351 C163.803443,46.259735 164.410943,45.584735 164.923943,44.936735 L164.923943,44.936735 L164.640443,44.653235 C164.073443,45.355235 163.438943,46.050485 162.736943,46.738985 C162.034943,47.4274851 161.278943,48.0619851 160.468943,48.6424851 C159.658943,49.2229851 158.815193,49.7224851 157.937693,50.1409851 C157.060193,50.5594852 156.162443,50.8632352 155.244443,51.0522352 L155.244443,51.0522352 L155.163443,50.9712352 C155.973443,50.1072351 156.661943,49.0812351 157.228943,47.8932351 C157.795943,46.705235 158.079443,45.449735 158.079443,44.126735 C158.079443,43.1007349 157.782443,42.2704849 157.188443,41.6359849 C156.594443,41.0014849 155.811443,40.6842349 154.839443,40.6842349 C153.840443,40.6842349 152.915693,40.9137349 152.065193,41.3727349 C151.214693,41.8317349 150.418193,42.4054849 149.675693,43.0939849 C148.933193,43.782485 148.244693,44.531735 147.610192,45.341735 C146.975692,46.151735 146.374942,46.8942351 145.807942,47.5692351 L145.807942,47.5692351 L145.726942,47.4882351 L155.082443,33.2322347 L150.708443,33.4347347 C147.117442,39.2937348 143.519692,45.179735 139.915192,51.0927352 C136.310692,57.0057353 132.699442,62.8782355 129.081442,68.7102357 L129.081442,68.7102357 Z M146.739442,55.5072353 C145.983442,55.5072353 145.605442,55.2102353 145.605442,54.6162353 C145.605442,54.1572353 145.828192,53.7792352 146.273692,53.4822352 C146.719192,53.1852352 147.245692,52.9489852 147.853192,52.7734852 C148.460693,52.5979852 149.081693,52.4562352 149.716193,52.3482352 C150.350693,52.2402352 150.843443,52.1592352 151.194443,52.1052352 C150.951443,52.4292352 150.654443,52.7869852 150.303443,53.1784852 C149.952443,53.5699852 149.574443,53.9344852 149.169443,54.2719853 C148.764443,54.6094853 148.352693,54.8997353 147.934192,55.1427353 C147.515692,55.3857353 147.117442,55.5072353 146.739442,55.5072353 Z M148.561943,68.7102357 L152.854943,68.5482357 C153.475943,67.6302356 154.265693,66.3409856 155.224193,64.6804855 C156.182693,63.0199855 157.242443,61.2109855 158.403443,59.2534854 C159.564443,57.2959853 160.772693,55.2979853 162.028193,53.2594852 C163.283693,51.2209852 164.518943,49.3714851 165.733943,47.7109851 C166.948943,46.050485 168.096443,44.693735 169.176443,43.640735 C170.256443,42.5877349 171.201443,42.0612349 172.011443,42.0612349 C172.362443,42.0612349 172.645943,42.1287349 172.861943,42.2637349 C173.077943,42.3987349 173.246693,42.5809849 173.368193,42.8104849 C173.489693,43.0399849 173.570693,43.2964849 173.611193,43.579985 C173.651693,43.863485 173.671943,44.153735 173.671943,44.450735 C173.671943,45.206735 173.577443,45.942485 173.388443,46.657985 C173.199443,47.3734851 172.963193,48.0417351 172.679693,48.6627351 C172.396193,49.2837351 172.099193,49.8439851 171.788693,50.3434851 C171.478193,50.8429852 171.201443,51.2547352 170.958443,51.5787352 C170.391443,51.6597352 169.682693,51.7677352 168.832193,51.9027352 C167.981693,52.0377352 167.164943,52.2199852 166.381943,52.4494852 C165.598943,52.6789852 164.930693,52.9759852 164.377193,53.3404852 C163.823693,53.7049852 163.546943,54.1707353 163.546943,54.7377353 C163.546943,55.2777353 163.756193,55.6624853 164.174693,55.8919853 C164.593193,56.1214853 165.085943,56.2362353 165.652943,56.2362353 C166.408943,56.2362353 167.178443,56.0877353 167.961443,55.7907353 C168.744443,55.4937353 169.513943,55.1157353 170.269943,54.6567353 C171.025943,54.1977353 171.741443,53.6982352 172.416443,53.1582352 C173.091443,52.6182352 173.698943,52.1052352 174.238943,51.6192352 C175.372943,51.4302352 176.446193,51.0994852 177.458693,50.6269852 C178.471193,50.1544851 179.402693,49.6009851 180.253193,48.9664851 C181.103693,48.3319851 181.879943,47.6637351 182.581943,46.9617351 C183.283943,46.259735 183.891444,45.584735 184.404444,44.936735 L184.404444,44.936735 L184.120944,44.653235 C183.553943,45.355235 182.919443,46.050485 182.217443,46.738985 C181.515443,47.4274851 180.759443,48.0619851 179.949443,48.6424851 C179.139443,49.2229851 178.295693,49.7224851 177.418193,50.1409851 C176.540693,50.5594852 175.642943,50.8632352 174.724943,51.0522352 L174.724943,51.0522352 L174.643943,50.9712352 C175.453943,50.1072351 176.142443,49.0812351 176.709443,47.8932351 C177.276443,46.705235 177.559943,45.449735 177.559943,44.126735 C177.559943,43.1007349 177.262943,42.2704849 176.668943,41.6359849 C176.074943,41.0014849 175.291943,40.6842349 174.319943,40.6842349 C173.320943,40.6842349 172.396193,40.9137349 171.545693,41.3727349 C170.695193,41.8317349 169.898693,42.4054849 169.156193,43.0939849 C168.413693,43.782485 167.725193,44.531735 167.090693,45.341735 C166.456193,46.151735 165.855443,46.8942351 165.288443,47.5692351 L165.288443,47.5692351 L165.207443,47.4882351 L174.562943,33.2322347 L170.188943,33.4347347 C166.597943,39.2937348 163.000193,45.179735 159.395693,51.0927352 C155.791193,57.0057353 152.179943,62.8782355 148.561943,68.7102357 L148.561943,68.7102357 Z M166.219943,55.5072353 C165.463943,55.5072353 165.085943,55.2102353 165.085943,54.6162353 C165.085943,54.1572353 165.308693,53.7792352 165.754193,53.4822352 C166.199693,53.1852352 166.726193,52.9489852 167.333693,52.7734852 C167.941193,52.5979852 168.562193,52.4562352 169.196693,52.3482352 C169.831193,52.2402352 170.323943,52.1592352 170.674943,52.1052352 C170.431943,52.4292352 170.134943,52.7869852 169.783943,53.1784852 C169.432943,53.5699852 169.054943,53.9344852 168.649943,54.2719853 C168.244943,54.6094853 167.833193,54.8997353 167.414693,55.1427353 C166.996193,55.3857353 166.597943,55.5072353 166.219943,55.5072353 Z M191.572944,36.3912348 C192.112944,36.3912348 192.598944,36.1684847 193.030944,35.7229847 C193.462944,35.2774847 193.678944,34.7847347 193.678944,34.2447347 C193.678944,33.7317347 193.483194,33.2862347 193.091694,32.9082347 C192.700194,32.5302346 192.247944,32.3412346 191.734944,32.3412346 C191.113944,32.3412346 190.567194,32.5504846 190.094694,32.9689847 C189.622194,33.3874847 189.385944,33.9072347 189.385944,34.5282347 C189.385944,35.1492347 189.601944,35.6149847 190.033944,35.9254847 C190.465944,36.2359848 190.978944,36.3912348 191.572944,36.3912348 Z M181.690943,55.9932353 C182.635943,55.9932353 183.668693,55.6827353 184.789194,55.0617353 C185.909694,54.4407353 187.252944,53.3472352 188.818944,51.7812352 C189.358944,51.2412352 189.912444,50.6742352 190.479444,50.0802351 C191.046444,49.4862351 191.599944,48.8854851 192.139944,48.2779851 C192.679944,47.6704851 193.186194,47.0899851 193.658694,46.536485 C194.131194,45.982985 194.529444,45.490235 194.853444,45.058235 L194.853444,45.058235 L194.488944,44.815235 C194.245944,45.085235 193.928694,45.449735 193.537194,45.908735 C193.145694,46.367735 192.700194,46.880735 192.200694,47.4477351 C191.701194,48.0147351 191.167944,48.6019851 190.600944,49.2094851 C190.033944,49.8169851 189.453444,50.4312351 188.859444,51.0522352 C187.374444,52.5642352 186.139194,53.6307352 185.153694,54.2517353 C184.168194,54.8727353 183.405443,55.1832353 182.865443,55.1832353 C182.622443,55.1832353 182.440193,55.0819853 182.318693,54.8794853 C182.197193,54.6769853 182.136443,54.4137353 182.136443,54.0897353 C182.136443,53.6847352 182.278193,53.1649852 182.561693,52.5304852 C182.845193,51.8959852 183.277193,51.0792352 183.857694,50.0802351 C184.438194,49.0812351 185.187444,47.8729851 186.105444,46.455485 C187.023444,45.037985 188.116944,43.330235 189.385944,41.3322349 L189.385944,41.3322349 L185.214444,41.5347349 C183.999444,43.424735 182.986943,45.010985 182.176943,46.293485 C181.366943,47.5759851 180.718943,48.6492351 180.232943,49.5132351 C179.746943,50.3772351 179.402693,51.0994852 179.200193,51.6799852 C178.997693,52.2604852 178.896443,52.8207352 178.896443,53.3607352 C178.896443,54.1437353 179.139443,54.7782353 179.625443,55.2642353 C180.111443,55.7502353 180.799943,55.9932353 181.690943,55.9932353 Z M201.738444,55.9932353 C202.791444,55.9932353 203.810694,55.6827353 204.796194,55.0617353 C205.781694,54.4407353 206.976444,53.3877352 208.380444,51.9027352 C209.541444,50.6877352 210.634944,49.4592351 211.660944,48.2172351 C212.686944,46.9752351 213.550944,45.935735 214.252944,45.098735 L214.252944,45.098735 L213.847944,44.896235 C213.361944,45.490235 212.632944,46.374485 211.660944,47.5489851 C210.688944,48.7234851 209.622444,49.9317351 208.461444,51.1737352 C206.976444,52.7397352 205.795194,53.8129852 204.917694,54.3934853 C204.040194,54.9739853 203.412444,55.2642353 203.034444,55.2642353 C202.656444,55.2642353 202.386444,55.1629853 202.224444,54.9604853 C202.062444,54.7579853 201.981444,54.4947353 201.981444,54.1707353 C201.981444,53.4147352 202.271694,52.5979852 202.852194,51.7204852 C203.432694,50.8429852 204.073944,49.9249851 204.775944,48.9664851 C205.477944,48.0079851 206.119194,47.0494851 206.699694,46.090985 C207.280194,45.132485 207.570444,44.194235 207.570444,43.2762349 C207.570444,42.5472349 207.340944,41.9329849 206.881944,41.4334849 C206.422944,40.9339849 205.747944,40.6842349 204.856944,40.6842349 C203.803944,40.6842349 202.750944,41.0082349 201.697944,41.6562349 C200.644944,42.3042349 199.659444,43.0602349 198.741444,43.924235 C197.823444,44.788235 197.006694,45.665735 196.291194,46.556735 C195.575694,47.4477351 195.028944,48.1362351 194.650944,48.6222351 L194.650944,48.6222351 L194.569944,48.5412351 L199.834944,41.1702349 L195.217944,41.3322349 C193.813944,43.789235 192.389694,46.185485 190.945194,48.5209851 C189.500694,50.8564852 188.062944,53.2122352 186.631944,55.5882353 L186.631944,55.5882353 L190.722444,55.4667353 C191.073444,54.7917353 191.545944,53.9817352 192.139944,53.0367352 C192.733944,52.0917352 193.402194,51.1129852 194.144694,50.1004851 C194.887194,49.0879851 195.676944,48.0754851 196.513944,47.0629851 C197.350944,46.050485 198.174444,45.145985 198.984444,44.349485 C199.794444,43.552985 200.563944,42.9049849 201.292944,42.4054849 C202.021944,41.9059849 202.656444,41.6562349 203.196444,41.6562349 C203.574444,41.6562349 203.857944,41.7507349 204.046944,41.9397349 C204.235944,42.1287349 204.330444,42.3717349 204.330444,42.6687349 C204.330444,43.2897349 204.040194,44.018735 203.459694,44.855735 C202.879194,45.692735 202.237944,46.576985 201.535944,47.5084851 C200.833944,48.4399851 200.192694,49.3917351 199.612194,50.3637351 C199.031694,51.3357352 198.741444,52.2807352 198.741444,53.1987352 C198.741444,53.9277352 198.984444,54.5757353 199.470444,55.1427353 C199.956444,55.7097353 200.712444,55.9932353 201.738444,55.9932353 Z M203.034444,68.1837356 C204.978444,68.1837356 206.800944,67.9137356 208.501944,67.3737356 C210.202944,66.8337356 211.782444,66.0777356 213.240444,65.1057356 C214.698444,64.1337355 216.041694,62.9592355 217.270194,61.5822355 C218.498694,60.2052354 219.598945,58.6797354 220.570945,57.0057353 C222.109945,56.5737353 223.567945,55.9459853 224.944945,55.1224853 C226.321945,54.2989853 227.617945,53.3472352 228.832945,52.2672352 C230.047945,51.1872352 231.188695,50.0194851 232.255195,48.7639851 C233.321695,47.5084851 234.300445,46.232735 235.191445,44.936735 L235.191445,44.936735 L234.948445,44.815235 C234.030445,46.030235 233.065195,47.2384851 232.052695,48.4399851 C231.040195,49.6414851 229.960195,50.7619852 228.812695,51.8014852 C227.665195,52.8409852 226.436695,53.7657352 225.127195,54.5757353 C223.817695,55.3857353 222.406945,56.0067353 220.894945,56.4387353 C222.460945,53.9277352 223.945945,51.4032352 225.349945,48.8652351 C226.753945,46.327235 228.184945,43.816235 229.642945,41.3322349 L229.642945,41.3322349 L225.511945,41.5752349 L224.580445,43.3167349 C224.256445,42.3177349 223.797445,41.6292349 223.203445,41.2512349 C222.609445,40.8732349 221.799445,40.6842349 220.773445,40.6842349 C219.450445,40.6842349 218.113944,41.0352349 216.763944,41.7372349 C215.413944,42.4392349 214.198944,43.336985 213.118944,44.430485 C212.038944,45.523985 211.161444,46.752485 210.486444,48.1159851 C209.811444,49.4794851 209.473944,50.8227352 209.473944,52.1457352 C209.473944,53.1717352 209.764194,54.0694853 210.344694,54.8389853 C210.925194,55.6084853 211.768944,55.9932353 212.875944,55.9932353 C213.604944,55.9932353 214.300194,55.8784853 214.961694,55.6489853 C215.623194,55.4194853 216.244194,55.1224853 216.824694,54.7579853 C217.405194,54.3934853 217.958694,53.9749852 218.485194,53.5024852 C219.011694,53.0299852 219.490945,52.5372352 219.922945,52.0242352 L219.922945,52.0242352 L220.003945,52.1052352 C219.382945,52.9962352 218.721444,54.0087352 218.019444,55.1427353 C217.317444,56.2767353 216.568194,57.4174853 215.771694,58.5649854 C214.975194,59.7124854 214.124694,60.8329854 213.220194,61.9264855 C212.315694,63.0199855 211.357194,63.9987355 210.344694,64.8627356 C209.332194,65.7267356 208.258944,66.4152356 207.124944,66.9282356 C205.990944,67.4412356 204.789444,67.6977356 203.520444,67.6977356 C202.818444,67.6977356 202.190694,67.5829856 201.637194,67.3534856 C201.083694,67.1239856 200.611194,66.8067356 200.219694,66.4017356 C199.828194,65.9967356 199.524444,65.5174856 199.308444,64.9639856 C199.092444,64.4104855 198.984444,63.8097355 198.984444,63.1617355 C198.984444,61.8117355 199.342194,60.7587354 200.057694,60.0027354 C200.773194,59.2467354 201.846444,58.8552354 203.277444,58.8282354 L203.277444,58.8282354 L203.277444,58.5447354 C203.007444,58.5177354 202.629444,58.4772354 202.143444,58.4232354 C201.657444,58.3692354 201.292944,58.3422354 201.049944,58.3422354 C200.374944,58.3422354 199.706694,58.4434854 199.045194,58.6459854 C198.383694,58.8484854 197.796444,59.1454854 197.283444,59.5369854 C196.770444,59.9284854 196.358694,60.4144854 196.048194,60.9949854 C195.737694,61.5754855 195.582444,62.2302355 195.582444,62.9592355 C195.582444,63.9312355 195.784944,64.7479856 196.189944,65.4094856 C196.594944,66.0709856 197.141694,66.6109856 197.830194,67.0294856 C198.518694,67.4479856 199.308444,67.7449856 200.199444,67.9204856 C201.090444,68.0959856 202.035444,68.1837356 203.034444,68.1837356 Z M215.548944,54.6162353 C214.630944,54.6162353 214.036944,54.3462353 213.766944,53.8062352 C213.496944,53.2662352 213.361944,52.6047352 213.361944,51.8217352 C213.361944,50.9307352 213.604944,49.8777351 214.090944,48.6627351 C214.576944,47.4477351 215.204694,46.279985 215.974194,45.159485 C216.743694,44.038985 217.614444,43.0939849 218.586444,42.3244849 C219.558445,41.5549849 220.543945,41.1702349 221.542945,41.1702349 C221.920945,41.1702349 222.217945,41.2444849 222.433945,41.3929849 C222.649945,41.5414849 222.811945,41.7372349 222.919945,41.9802349 C223.027945,42.2232349 223.102195,42.4864849 223.142695,42.7699849 C223.183195,43.0534849 223.203445,43.343735 223.203445,43.640735 C223.203445,44.153735 223.095445,44.781485 222.879445,45.523985 C222.663445,46.266485 222.366445,47.0427351 221.988445,47.8527351 C221.610445,48.6627351 221.164945,49.4727351 220.651945,50.2827351 C220.138945,51.0927352 219.598945,51.8149852 219.031944,52.4494852 C218.464944,53.0839852 217.884444,53.6037352 217.290444,54.0087352 C216.696444,54.4137353 216.115944,54.6162353 215.548944,54.6162353 Z" id="Tipping" fill="#1F1F20" fill-rule="nonzero" opacity="0.8"></path>
        </g>
    </g>
</svg>