<?xml version="1.0" encoding="UTF-8"?>
<svg width="270px" height="119px" viewBox="0 0 270 119" version="1.1" xmlns="http://www.w3.org/2000/svg" xmlns:xlink="http://www.w3.org/1999/xlink">
    <!-- Generator: Sketch 64 (93537) - https://sketch.com -->
    <title>viva</title>
    <desc>Created with Sketch.</desc>
    <defs>
        <path d="M137.821579,49.4123633 L144.324389,49.4123633 L144.324389,21.222031 L137.821579,21.222031 L137.821579,49.4123633 Z M250.324595,24.3107675 C249.287494,22.3232021 247.249418,21.0882356 245.004275,21.0882356 L243.308962,21.0882356 C241.0647,21.0882356 239.025743,22.3232021 237.988642,24.3116477 L224.92751,49.3489865 L232.320271,49.3489865 L244.1575,26.2516806 L256.043191,49.43789 C256.271406,49.4370098 256.497859,49.4361296 256.723431,49.4361296 C257.319081,49.4361296 257.906801,49.4387703 258.490997,49.4422912 C260.155469,49.4502133 261.734471,49.4581354 263.41921,49.3991598 L250.324595,24.3107675 Z M161.224645,49.4123633 L167.728336,49.4123633 L167.728336,21.222031 L161.224645,21.222031 L161.224645,49.4123633 Z M200.649472,44.2770857 L188.7629,21.0899961 C187.931985,21.0952775 187.121337,21.0899961 186.315975,21.0855949 C184.650621,21.0759123 183.070738,21.0688705 181.387762,21.1287263 L194.482376,46.2171186 C195.518597,48.204684 197.557553,49.4396505 199.801816,49.4396505 L201.497128,49.4396505 C203.742272,49.4396505 205.781229,48.204684 206.81833,46.2162384 L219.877699,21.1788996 L212.484939,21.1788996 L200.649472,44.2770857 Z M140.617435,14.8773137 C142.241375,14.8773137 143.55956,13.5613658 143.55956,11.9382167 C143.55956,10.3159479 142.241375,9 140.617435,9 C138.992614,9 137.67531,10.3159479 137.67531,11.9382167 C137.67531,13.5613658 138.992614,14.8773137 140.617435,14.8773137 L140.617435,14.8773137 Z M105.26171,44.2770857 L93.3742569,21.0899961 C92.5451046,21.0952775 91.733575,21.0899961 90.9282135,21.0855949 C89.2628597,21.0759123 87.6829765,21.0688705 86,21.1287263 L99.0937337,46.2171186 C100.131716,48.204684 102.169792,49.4396505 104.413173,49.4396505 L106.109367,49.4396505 C108.35451,49.4396505 110.393467,48.204684 111.430568,46.2162384 L124.489938,21.1788996 L117.097177,21.1788996 L105.26171,44.2770857 Z M164.194967,14.8773137 C165.820669,14.8773137 167.137092,13.5613658 167.137092,11.9382167 C167.137092,10.3159479 165.820669,9 164.194967,9 C162.570146,9 161.253723,10.3159479 161.253723,11.9382167 C161.253723,13.5613658 162.570146,14.8773137 164.194967,14.8773137 L164.194967,14.8773137 Z" id="path-1"></path>
    </defs>
    <g id="viva" stroke="none" stroke-width="1" fill="none" fill-rule="evenodd">
        <g id="Group-2" transform="translate(4.000000, 30.000000)">
            <g id="Group" fill="#1F1F20">
                <path d="M6.74799577,0.184634259 L31.1459049,47.0099339 C31.9618357,48.5741964 33.5700308,49.5453102 35.3483993,49.5453102 L35.3483993,49.5453102 L39.0426275,49.5453102 C40.7871868,49.5453102 42.3841122,48.5987251 43.2079318,47.0779453 L43.2079318,47.0779453 L47.2143324,39.6858853 L50.1399628,45.3364072 L48.9600186,47.5752091 C46.9776674,51.3381356 43.0817105,53.6750523 38.7924388,53.6750523 L38.7924388,53.6750523 L35.5512551,53.6750523 C31.2608564,53.6750523 27.3637725,51.3370207 25.3825483,47.5740942 L25.3825483,47.5740942 L0.422278005,0.184634259 L6.74799577,0.184634259 Z M14.5521937,0.184857248 L37.1717342,43.9017009 L43.2844535,32.0944738 L46.2089569,37.7438808 L41.6108937,46.230813 C41.1026274,47.1695935 40.1176502,47.7515928 39.0425148,47.7515928 L39.0425148,47.7515928 L35.3482867,47.7515928 C34.2517387,47.7515928 33.2588727,47.1528694 32.7573682,46.1895602 L32.7573682,46.1895602 L8.78545615,0.184857248 L14.5521937,0.184857248 Z M68.7172649,-0.000111494118 C70.4539353,0.0043482706 72.1894788,0.025532153 73.9858789,0.0890838003 L73.9858789,0.0890838003 L60.358482,25.9624088 L57.5455492,20.6240705 Z M66.6614348,-0.000334482354 L56.5299182,18.699459 L53.3518451,12.6676272 L59.8905614,0.0186195177 C61.47509,0.0253091648 63.0269363,0.0186195177 64.5663859,0.00858504709 C65.2718731,0.00412528237 65.9672174,0.00189540001 66.6614348,-0.000334482354 L66.6614348,-0.000334482354 Z" id="Combined-Shape"></path>
                <path d="M39.041726,9.97537874 C40.1179883,9.97537874 41.1029655,10.557378 41.6101049,11.4961585 L41.6101049,11.4961585 L66.6605332,57.7283095 C65.9674428,57.7260796 65.2720985,57.7227348 64.5666113,57.7193899 C63.0271617,57.7104704 61.4753154,57.7015509 59.8896598,57.7104704 L59.8896598,57.7104704 L37.1720723,13.8252706 L30.9838457,25.8209228 L28.166405,20.3788949 L32.7565793,11.5374113 C33.2592108,10.5741021 34.2520768,9.97537874 35.3474978,9.97537874 L35.3474978,9.97537874 Z M38.7927769,4.05169625 C43.0809216,4.05169625 46.9768785,6.39084284 48.9603567,10.1515394 L48.9603567,10.1515394 L73.9859916,57.6391142 C72.1884645,57.7015509 70.454048,57.7227348 68.7173776,57.7283095 L68.7173776,57.7283095 L43.2093969,10.6488032 C42.3844502,9.12802344 40.7875249,8.18255332 39.0418387,8.18255332 L39.0418387,8.18255332 L35.3476105,8.18255332 C33.5703689,8.18255332 31.9610468,9.15366709 31.146243,10.7168146 L31.146243,10.7168146 L27.1511121,18.4154835 L24.1251808,12.567617 L25.3817594,10.1537693 C27.3641106,6.39084284 31.2611945,4.05169625 35.5504662,4.05169625 L35.5504662,4.05169625 Z M18.029817,39.8011702 L20.9058605,45.2610372 L14.5519683,57.5421143 L8.78635773,57.5421143 L18.029817,39.8011702 Z M13.8983221,31.9573361 L17.0053956,37.8564898 L6.74765767,57.5418913 L0.421939913,57.5418913 L13.8983221,31.9573361 Z" id="Combined-Shape"></path>
            </g>
            <mask id="mask-2" fill="white">
                <use xlink:href="#path-1"></use>
            </mask>
            <use id="Fill-2" fill="#1F1F20" xlink:href="#path-1"></use>
        </g>
    </g>
</svg>