<?xml version="1.0" encoding="UTF-8"?>
<svg width="270px" height="102px" viewBox="0 0 270 102" version="1.1" xmlns="http://www.w3.org/2000/svg" xmlns:xlink="http://www.w3.org/1999/xlink">
    <!-- Generator: Sketch 64 (93537) - https://sketch.com -->
    <title>vizi</title>
    <desc>Created with Sketch.</desc>
    <g id="vizi" stroke="none" stroke-width="1" fill="none" fill-rule="evenodd">
        <g id="Group" transform="translate(3.000000, 9.000000)" fill="#1F1F20">
            <g id="vizi_logo">
                <path d="M71.1422107,75.7227437 C71.1422107,80.6464097 55.2167551,84.6374948 35.5712542,84.6374948 C15.9257533,84.6374948 -7.44232333e-05,80.6464097 -7.44232333e-05,75.7227437 C-7.44232333e-05,70.7990777 15.9257533,66.8079926 35.5712542,66.8079926 C55.2167551,66.8079926 71.1422107,70.7990777 71.1422107,75.7227437" id="Path" opacity="0.100000001"></path>
                <path d="M53.6144229,75.7227437 C53.6144229,78.219896 45.536153,80.2447461 35.5712542,80.2447461 C25.6059832,80.2447461 17.5277134,78.219896 17.5277134,75.7227437 C17.5277134,73.2255914 25.6059832,71.2007413 35.5712542,71.2007413 C45.536153,71.2007413 53.6144229,73.2255914 53.6144229,75.7227437" id="Path" opacity="0.100000001"></path>
                <path d="M11.7607315,44.9145497 C11.7607315,52.1215732 14.9397199,58.5752428 19.9543573,62.9368053 L19.9543573,62.9368053 L32.2330745,75.3357715 C33.9366223,77.0555227 36.6980964,77.0555227 38.4012721,75.3357715 L38.4012721,75.3357715 L50.6803613,62.9368053 C55.6946267,58.5748671 58.8736151,52.1215732 58.8736151,44.9145497 L58.8736151,44.9145497 C58.8736151,31.7780105 48.3270987,21.1288544 35.3171733,21.1288544 L35.3171733,21.1288544 C22.3072479,21.1288544 11.7607315,31.7780105 11.7607315,44.9145497 M35.3171733,29.0182175 C43.8008773,29.0182175 50.697854,35.8782162 50.8648112,44.404142 L50.8679079,44.720669 C50.8679079,53.2869372 44.074391,60.2514026 35.6306493,60.4199936 L35.3171733,60.4231205 C26.7287321,60.4231205 19.7664387,53.3926936 19.7664387,44.720669 C19.7664387,36.1544008 26.5599555,29.1899355 35.0036972,29.0213445 L35.3171733,29.0182175 Z M59.9549847,15.8828056 L60.132677,15.8893879 C60.2524709,15.8982108 60.3748558,15.9159957 60.4993906,15.9432993 L60.4993906,15.9432993 L60.6954891,15.9919651 C61.7877958,16.2960578 62.5541954,17.0796552 62.7752531,18.2443166 L62.7752531,18.2443166 L62.8279385,18.5489378 C63.2374367,21.1771952 62.4247748,23.4974488 60.5976293,25.4009913 L60.5976293,25.4009913 L60.4700061,25.5269949 C59.2257073,26.6894437 57.6860188,26.2448104 56.9147956,24.6187056 L56.9147956,24.6187056 L56.8061726,24.3634417 C56.4812126,23.5069631 56.5140265,22.5966223 56.502863,21.6962182 L56.502863,21.6962182 L56.4996624,21.4070693 C56.4983294,19.8687552 56.7581566,18.394678 57.7289858,17.1392722 C58.3061379,16.3923058 59.055952,15.8828056 59.9549847,15.8828056 L59.9549847,15.8828056 Z M10.61573,0.761620186 L10.9015395,0.767034559 C13.1724866,0.85363683 15.0706006,1.97846906 16.5863339,4.09366153 L16.5863339,4.09366153 L16.839063,4.45830608 C18.9685609,7.63554539 19.5331494,11.2512269 19.8144417,15.0550556 L19.8144417,15.0550556 L19.7733933,15.4367233 C19.5421709,17.6040028 19.3153925,19.8415147 18.1190804,21.8333625 L18.1190804,21.8333625 L17.9832134,22.0508226 C16.4600307,24.3943847 14.0000062,25.1348807 11.4418279,24.0160224 L11.4418279,24.0160224 L11.2039028,23.9066566 C6.1361778,21.4639779 1.60900741,12.06782 2.96502162,6.69752334 L2.96502162,6.69752334 L3.04553352,6.39710582 C3.88762925,3.43008932 5.83834661,1.57905559 8.83664261,0.953997855 C9.45249487,0.825495584 10.045648,0.761620186 10.61573,0.761620186 L10.61573,0.761620186 Z M51.7059135,7.88410279 L51.9325788,7.89199328 L51.9325788,7.89199328 L52.1628721,7.91566475 L52.3551908,7.94704935 C54.1858589,8.29617175 55.1902356,9.96796876 55.1636169,12.6383111 L55.1636169,12.6383111 L55.1553166,13.0008051 C55.0711662,15.1640018 54.3676996,17.1143549 52.9885979,18.7962752 L52.9885979,18.7962752 L52.8671556,18.9394703 C52.1275366,19.7823054 51.1893771,20.3211569 49.9897137,20.0193012 L49.9897137,20.0193012 L49.7912777,19.9614884 C48.765561,19.6203978 48.2556305,18.7624367 47.9754489,17.7340649 L47.9754489,17.7340649 L47.8767405,17.3523698 C47.4101158,15.4439014 47.3519218,13.5351029 47.9121892,11.6061598 C48.5942781,9.25704811 49.9863647,7.88410279 51.7059135,7.88410279 L51.7059135,7.88410279 Z M40.7761174,2.80751161 L41.0002124,2.81321009 C42.5459757,2.89272487 43.6127759,3.79882704 44.3242451,5.18217346 L44.3242451,5.18217346 L44.4231087,5.38928303 C45.6175641,8.0876271 44.6246764,13.5791678 42.5511116,15.5784581 L42.5511116,15.5784581 L42.4019087,15.7156652 C40.8458438,17.079698 38.8599518,16.7784232 37.7020658,14.9686359 L37.7020658,14.9686359 L37.5591858,14.7331409 C36.8186775,13.4458493 36.4238686,11.6633603 36.4420804,9.66885656 L36.4420804,9.66885656 L36.4397915,9.30977982 C36.4509804,7.87699935 36.7099468,6.48800625 37.3478112,5.19570001 L37.3478112,5.19570001 L37.4434389,5.00913407 C38.1288,3.72173329 39.1525239,2.83155882 40.7065317,2.80788734 L40.7065317,2.80788734 L40.7761174,2.80751161 Z M27.5310146,0 L27.7590552,0.00792433455 C28.8249849,0.0731820016 29.9099533,0.535225736 30.7903801,1.43193613 L30.7903801,1.43193613 L31.0112981,1.66685023 C32.7211528,3.56687136 33.0661384,5.95822197 33.1172225,8.43267974 L33.1172225,8.43267974 L33.1217006,8.81578095 C33.1197685,10.4719842 32.8363545,12.0760734 32.1117646,13.5738978 L32.1117646,13.5738978 L32.0157362,13.7644421 C30.7077973,16.2552952 28.3106343,16.7518501 26.4068517,14.676312 L26.4068517,14.676312 L26.1556747,14.3953906 C23.364703,11.1910777 22.4681084,7.29287425 23.521835,3.14717843 L23.521835,3.14717843 L23.5836228,2.92597989 C24.1589403,1.04180449 25.7578535,0.014472857 27.4599404,0 L27.4599404,0 L27.5310146,0 Z" id="Combined-Shape"></path>
            </g>
            <path d="M104.727101,56.3823529 L114.931513,29.8985294 L108.49916,29.8985294 L101.193278,50.2676471 L93.8476895,29.8985294 L87.4153366,29.8985294 L97.6594542,56.3823529 L104.727101,56.3823529 Z M124.44958,56.3823529 L124.44958,29.8985294 L118.811345,29.8985294 L118.811345,56.3823529 L124.44958,56.3823529 Z M150.326471,56.3823529 L150.326471,51.4191176 L137.541176,51.4191176 L150.048529,34.425 L150.048529,29.8985294 L130.155882,29.8985294 L130.155882,34.8617647 L142.663235,34.8617647 L130.155882,51.8161765 L130.155882,56.3823529 L150.326471,56.3823529 Z M161.671008,56.3823529 L161.671008,29.8985294 L156.032773,29.8985294 L156.032773,56.3823529 L161.671008,56.3823529 Z" id="VIZI" fill-rule="nonzero"></path>
        </g>
    </g>
</svg>