<?xml version="1.0" encoding="UTF-8"?>
<svg width="80px" height="80px" viewBox="0 0 80 80" version="1.1" xmlns="http://www.w3.org/2000/svg" xmlns:xlink="http://www.w3.org/1999/xlink">
    <!-- Generator: Sketch 64 (93537) - https://sketch.com -->
    <title>1</title>
    <desc>Created with Sketch.</desc>
    <defs>
        <linearGradient x1="0%" y1="50.0007883%" x2="99.9987174%" y2="50.0007883%" id="linearGradient-1">
            <stop stop-color="#E29A64" offset="0%"></stop>
            <stop stop-color="#E85E8C" offset="100%"></stop>
        </linearGradient>
        <linearGradient x1="0%" y1="50.0007883%" x2="99.9987174%" y2="50.0007883%" id="linearGradient-2">
            <stop stop-color="#E29A64" offset="0%"></stop>
            <stop stop-color="#E85E8C" offset="100%"></stop>
        </linearGradient>
        <linearGradient x1="0%" y1="50.0007883%" x2="99.9987174%" y2="50.0007883%" id="linearGradient-3">
            <stop stop-color="#E29A64" offset="0%"></stop>
            <stop stop-color="#E85E8C" offset="100%"></stop>
        </linearGradient>
    </defs>
    <g id="1" stroke="none" stroke-width="1" fill="none" fill-rule="evenodd">
        <path d="M39.6567664,65.5384615 C39.5029202,65.5384615 39.4259972,65.5384615 39.272151,65.5384615 C39.0413818,65.5384615 38.8106125,65.4615385 38.6567664,65.3076923 C23.6567664,59 19.272151,48.1538462 18.272151,40.2307692 C17.1952279,31.6923077 19.6567664,24.6153846 19.7336895,24.3076923 L20.1952279,23 L21.5798433,23 C33.5798433,22.8461538 37.9644587,17.0769231 37.9644587,17 L39.4259972,15 L41.1183049,16.8461538 C41.1952279,16.9230769 47.272151,23.4615385 57.5029202,23 L58.8875356,22.9230769 L59.4259972,24.2307692 C59.6567664,24.6923077 64.3490741,35.8461538 59.7336895,47.5384615 C56.6567664,55.2307692 50.1952279,61.2307692 40.5798433,65.3846154 C40.272151,65.4615385 39.9644587,65.5384615 39.6567664,65.5384615 Z M23.1952279,27 C22.5798433,29.2307692 21.5798433,34.2307692 22.3490741,39.8461538 C23.6567664,49.5384615 29.3490741,56.7692308 39.5029202,61.2307692 L39.7336895,61.0769231 L39.9644587,61.2307692 C48.1183049,57.6153846 53.5798433,52.4615385 56.1183049,46 C59.3490741,38 57.272151,30.0769231 56.3490741,27.0769231 C48.1952279,27 42.5029202,23.2307692 39.8875356,21 C37.3490741,23.0769231 32.1952279,26.5384615 23.1952279,27 Z" id="Shape" fill="url(#linearGradient-1)" fill-rule="nonzero"></path>
        <g id="Group-4" transform="translate(34.000000, 33.000000)" stroke-linecap="round" stroke-linejoin="round" stroke-width="0.800000012">
            <path d="M3.20000005,4.80000007 L3.20000005,2.29565221 C3.20000005,1.0277985 4.27451666,0 5.60000008,0 C6.9254835,0 8.00000012,1.0277985 8.00000012,2.29565221 L8.00000012,4.80000007" id="Path" stroke="url(#linearGradient-2)"></path>
            <path d="M8.80000013,4.00000006 C10.1254836,4.00000006 11.2000002,5.07451668 11.2000002,6.4000001 L11.2000002,12.0000002 C11.2000002,13.3254836 10.1254836,14.4000002 8.80000013,14.4000002 L2.40000004,14.4000002 C1.07451662,14.4000002 6.06414113e-16,13.3254836 0,12.0000002 L0,6.4000001 C2.81764307e-16,5.07451668 1.07451662,4.00000006 2.40000004,4.00000006 L8.80000013,4.00000006 Z M5.60000008,8.00000012 C4.71634447,8.00000012 4.00000006,8.71634453 4.00000006,9.60000014 C4.00000006,10.4836558 4.71634447,11.2000002 5.60000008,11.2000002 C6.4836557,11.2000002 7.20000011,10.4836558 7.20000011,9.60000014 C7.20000011,8.71634453 6.4836557,8.00000012 5.60000008,8.00000012 Z" id="Combined-Shape" stroke="url(#linearGradient-3)" fill="url(#linearGradient-3)"></path>
        </g>
    </g>
</svg>