<?xml version="1.0" encoding="UTF-8"?>
<svg width="80px" height="80px" viewBox="0 0 80 80" version="1.1" xmlns="http://www.w3.org/2000/svg" xmlns:xlink="http://www.w3.org/1999/xlink">
    <!-- Generator: Sketch 64 (93537) - https://sketch.com -->
    <title>2</title>
    <desc>Created with Sketch.</desc>
    <defs>
        <linearGradient x1="0%" y1="50.0007883%" x2="99.9987174%" y2="50.0007883%" id="linearGradient-1">
            <stop stop-color="#E29A64" offset="0%"></stop>
            <stop stop-color="#E85E8C" offset="100%"></stop>
        </linearGradient>
        <linearGradient x1="0%" y1="50.0007883%" x2="99.9987174%" y2="50.0007883%" id="linearGradient-2">
            <stop stop-color="#E29A64" offset="0%"></stop>
            <stop stop-color="#E85E8C" offset="100%"></stop>
        </linearGradient>
        <linearGradient x1="0%" y1="50.0007883%" x2="99.9987174%" y2="50.0007883%" id="linearGradient-3">
            <stop stop-color="#E29A64" offset="0%"></stop>
            <stop stop-color="#E85E8C" offset="100%"></stop>
        </linearGradient>
        <linearGradient x1="0%" y1="50.0007883%" x2="99.9987174%" y2="50.0007883%" id="linearGradient-4">
            <stop stop-color="#E29A64" offset="0%"></stop>
            <stop stop-color="#E85E8C" offset="100%"></stop>
        </linearGradient>
        <linearGradient x1="0%" y1="50.0007883%" x2="99.9987174%" y2="50.0007883%" id="linearGradient-5">
            <stop stop-color="#E29A64" offset="0%"></stop>
            <stop stop-color="#E85E8C" offset="100%"></stop>
        </linearGradient>
        <linearGradient x1="0%" y1="50.0007883%" x2="99.9987174%" y2="50.0007883%" id="linearGradient-6">
            <stop stop-color="#E29A64" offset="0%"></stop>
            <stop stop-color="#E85E8C" offset="100%"></stop>
        </linearGradient>
    </defs>
    <g id="2" stroke="none" stroke-width="1" fill="none" fill-rule="evenodd">
        <path d="M40.0932667,30 L49.1865335,35.25 L49.1865335,45.75 L40.0932667,51 L31,45.75 L31,35.25 L40.0932667,30 Z M41.368,34 L39.604,34 L39.604,35.512 C39.1933333,35.5866667 38.8386667,35.7056667 38.54,35.869 C38.2413333,36.0323333 37.9986667,36.2306667 37.812,36.464 C37.6253333,36.6973333 37.4876667,36.9563333 37.399,37.241 C37.3103333,37.5256667 37.266,37.822 37.266,38.13 C37.266,38.5313333 37.3383333,38.8743333 37.483,39.159 C37.6276667,39.4436667 37.819,39.684 38.057,39.88 C38.295,40.076 38.561,40.2416667 38.855,40.377 C39.149,40.5123333 39.45,40.636 39.758,40.748 C40.0753333,40.86 40.3553333,40.965 40.598,41.063 C40.8406667,41.161 41.0413333,41.2613333 41.2,41.364 C41.3586667,41.4666667 41.48,41.581 41.564,41.707 C41.648,41.833 41.69,41.9846667 41.69,42.162 C41.69,42.442 41.585,42.659 41.375,42.813 C41.165,42.967 40.7753333,43.044 40.206,43.044 C39.702,43.044 39.2236667,42.9786667 38.771,42.848 C38.4088667,42.7434667 38.0870533,42.6299733 37.80556,42.50752 L37.602,42.414 L37,44.024 C37.2053333,44.1266667 37.5203333,44.255 37.945,44.409 C38.309,44.541 38.7672857,44.637 39.3198571,44.697 L39.604,44.724 L39.604,46.39 L41.368,46.39 L41.368,44.682 C41.8253333,44.6073333 42.2103333,44.486 42.523,44.318 C42.8356667,44.15 43.09,43.9493333 43.286,43.716 C43.482,43.4826667 43.622,43.2283333 43.706,42.953 C43.79,42.6776667 43.832,42.4 43.832,42.12 C43.832,41.7093333 43.7596667,41.35 43.615,41.042 C43.4703333,40.734 43.2696667,40.4656667 43.013,40.237 C42.7563333,40.0083333 42.453,39.8053333 42.103,39.628 C41.753,39.4506667 41.3726667,39.2873333 40.962,39.138 C40.6913333,39.0446667 40.4603333,38.9583333 40.269,38.879 C40.0776667,38.7996667 39.9166667,38.718 39.786,38.634 C39.6553333,38.55 39.5596667,38.4543333 39.499,38.347 C39.4383333,38.2396667 39.408,38.1113333 39.408,37.962 C39.408,37.7193333 39.506,37.5233333 39.702,37.374 C39.898,37.2246667 40.22,37.15 40.668,37.15 C41.116,37.15 41.543,37.1966667 41.949,37.29 C42.2535,37.36 42.5304375,37.4405 42.7798125,37.5315 L43.02,37.626 L43.454,35.946 C43.2486667,35.8526667 42.971,35.7593333 42.621,35.666 C42.341,35.5913333 42.0176933,35.5316 41.65108,35.4868 L41.368,35.456 L41.368,34 Z" id="Combined-Shape" fill="url(#linearGradient-1)" fill-rule="nonzero"></path>
        <g id="Group-2" transform="translate(52.000000, 14.000000)" fill-rule="nonzero">
            <path d="M21.2272727,0 L3.77272727,0 C1.96748786,0.005436414 0.505391493,1.47971479 0.5,3.29999524 L0.5,14.2999794 C0.505391493,16.1202598 1.96748786,17.5945382 3.77272727,17.5999746 L7.90727273,17.5999746 L7.17636364,20.6359702 C7.09046002,20.9648896 7.1632156,21.3153958 7.37272727,21.5819689 C7.58089686,21.8476098 7.89878508,22.001792 8.23454545,21.9999843 L16.7654545,21.9999843 C17.1012149,22.001792 17.4191031,21.8476098 17.6272727,21.5819689 C17.8367844,21.3153958 17.90954,20.9648896 17.8236364,20.6359702 L17.0927273,17.5999746 L21.2272727,17.5999746 C23.0325121,17.5945382 24.4946085,16.1202598 24.5,14.2999794 L24.5,3.29999524 C24.4946085,1.47971479 23.0325121,0.005436414 21.2272727,0 L21.2272727,0 Z M9.62,19.7999715 L10.1545455,17.5999746 L14.8454545,17.5999746 L15.38,19.7999715 L9.62,19.7999715 Z M22.3181818,14.2999794 C22.3181818,14.9074917 21.8297652,15.3999778 21.2272727,15.3999778 L3.77272727,15.3999778 C3.17023482,15.3999778 2.68181818,14.9074917 2.68181818,14.2999794 L2.68181818,13.199981 L22.3181818,13.199981 L22.3181818,14.2999794 Z M22.3181818,13.1999968 L2.68181818,13.1999968 L2.68181818,3.57499683 C2.68181818,2.8156053 3.17023482,2.19999683 3.77272727,2.19999683 L21.2272727,2.19999683 C21.8297652,2.19999683 22.3181818,2.8156053 22.3181818,3.57499683 L22.3181818,13.1999968 Z" id="Shape-Copy" fill="url(#linearGradient-2)"></path>
            <path d="M13.6005587,10.5110803 C13.5893855,10.4602955 13.5837989,10.4044321 13.5837989,10.3434903 L13.5837989,10.3434903 L13.5837989,10.1759003 C13.5837989,9.84072022 13.6564246,9.53855032 13.801676,9.26939058 C13.9469274,9.00023084 14.1256983,8.75138504 14.3379888,8.52285319 C14.5502793,8.29432133 14.7849162,8.0734072 15.0418994,7.8601108 C15.2988827,7.6468144 15.5335196,7.42336103 15.7458101,7.18975069 C15.9581006,6.95614035 16.1368715,6.70475531 16.2821229,6.43559557 C16.4273743,6.16643583 16.5,5.85918744 16.5,5.51385042 C16.5,5.23961219 16.452514,4.95267775 16.3575419,4.65304709 C16.2625698,4.35341644 16.0921788,4.08171745 15.8463687,3.83795014 C15.6005587,3.59418283 15.273743,3.39358264 14.8659218,3.23614958 C14.4581006,3.07871653 13.9357542,3 13.2988827,3 C12.7625698,3 12.2569832,3.05586334 11.7821229,3.16759003 C11.3072626,3.27931671 10.8798883,3.4265928 10.5,3.60941828 L10.5,3.60941828 L10.9357542,4.70637119 C11.6396648,4.36103416 12.3603352,4.18836565 13.0977654,4.18836565 C13.6787709,4.18836565 14.1201117,4.32294552 14.4217877,4.59210526 C14.7234637,4.861265 14.8743017,5.20914127 14.8743017,5.63573407 C14.8743017,5.89981533 14.8100559,6.14358264 14.6815642,6.36703601 C14.5530726,6.59048938 14.3882682,6.80378578 14.1871508,7.00692521 C13.9860335,7.21006464 13.773743,7.41066482 13.5502793,7.60872576 C13.3268156,7.8067867 13.1145251,8.0200831 12.9134078,8.24861496 C12.7122905,8.47714681 12.547486,8.72345337 12.4189944,8.98753463 C12.2905028,9.25161588 12.226257,9.54616805 12.226257,9.87119114 C12.226257,10.0946445 12.2486034,10.3079409 12.2932961,10.5110803 L12.2932961,10.5110803 L13.6005587,10.5110803 Z M13.0307263,14 C13.377095,14 13.650838,13.8984303 13.8519553,13.6952909 C14.0530726,13.4921514 14.1536313,13.2534626 14.1536313,12.9792244 C14.1536313,12.7049861 14.0530726,12.4662973 13.8519553,12.2631579 C13.650838,12.0600185 13.377095,11.9584488 13.0307263,11.9584488 C12.6843575,11.9584488 12.4106145,12.0600185 12.2094972,12.2631579 C12.0083799,12.4662973 11.9078212,12.7049861 11.9078212,12.9792244 C11.9078212,13.2534626 12.0083799,13.4921514 12.2094972,13.6952909 C12.4106145,13.8984303 12.6843575,14 13.0307263,14 Z" id="?" fill="url(#linearGradient-3)"></path>
        </g>
        <g id="Group-3" transform="translate(26.000000, 56.000000)" fill-rule="nonzero">
            <path d="M26.2743841,11.6827743 C26.0841114,11.4634017 25.7988369,11.3351979 25.4968129,11.33333 L24.6081601,11.33333 L24.6081601,0.944444165 C24.6081601,0.422842055 24.1560426,0 23.5983273,0 L3.40167265,0 C2.84395743,0 2.39183992,0.422842055 2.39183992,0.944444165 L2.39183992,11.33333 L1.50318711,11.33333 C1.20116305,11.3351979 0.915888623,11.4634017 0.725615907,11.6827743 C0.531896832,11.9043167 0.457464496,12.1966901 0.52364936,12.4761074 L1.40220384,16.2538841 C1.50234388,16.689925 1.91497786,17.0010199 2.39183992,17 L24.6081601,17 C25.0850221,17.0010199 25.4976561,16.689925 25.5977962,16.2538841 L26.4763506,12.4761074 C26.5425355,12.1966901 26.4681032,11.9043167 26.2743841,11.6827743 Z M4.41150539,1.88888833 L22.5884946,1.88888833 L22.5884946,11.33333 L15.5196655,11.33333 C14.9619503,11.33333 14.5098327,11.756172 14.5098327,12.2777741 L12.4901673,12.2777741 C12.4901673,11.756172 12.0380497,11.33333 11.4803345,11.33333 L4.41150539,11.33333 L4.41150539,1.88888833 Z M23.8002939,15.1111066 L3.19970611,15.1111066 L2.76547803,13.2222183 L10.4705018,13.2222183 C10.4705018,13.7438204 10.9226193,14.1666625 11.4803345,14.1666625 L15.5196655,14.1666625 C16.0773807,14.1666625 16.5294982,13.7438204 16.5294982,13.2222183 L24.234522,13.2222183 L23.8002939,15.1111066 Z" id="Shape" fill="url(#linearGradient-4)"></path>
            <path d="M14.6005587,10.5110803 C14.5893855,10.4602955 14.5837989,10.4044321 14.5837989,10.3434903 L14.5837989,10.3434903 L14.5837989,10.1759003 C14.5837989,9.84072022 14.6564246,9.53855032 14.801676,9.26939058 C14.9469274,9.00023084 15.1256983,8.75138504 15.3379888,8.52285319 C15.5502793,8.29432133 15.7849162,8.0734072 16.0418994,7.8601108 C16.2988827,7.6468144 16.5335196,7.42336103 16.7458101,7.18975069 C16.9581006,6.95614035 17.1368715,6.70475531 17.2821229,6.43559557 C17.4273743,6.16643583 17.5,5.85918744 17.5,5.51385042 C17.5,5.23961219 17.452514,4.95267775 17.3575419,4.65304709 C17.2625698,4.35341644 17.0921788,4.08171745 16.8463687,3.83795014 C16.6005587,3.59418283 16.273743,3.39358264 15.8659218,3.23614958 C15.4581006,3.07871653 14.9357542,3 14.2988827,3 C13.7625698,3 13.2569832,3.05586334 12.7821229,3.16759003 C12.3072626,3.27931671 11.8798883,3.4265928 11.5,3.60941828 L11.5,3.60941828 L11.9357542,4.70637119 C12.6396648,4.36103416 13.3603352,4.18836565 14.0977654,4.18836565 C14.6787709,4.18836565 15.1201117,4.32294552 15.4217877,4.59210526 C15.7234637,4.861265 15.8743017,5.20914127 15.8743017,5.63573407 C15.8743017,5.89981533 15.8100559,6.14358264 15.6815642,6.36703601 C15.5530726,6.59048938 15.3882682,6.80378578 15.1871508,7.00692521 C14.9860335,7.21006464 14.773743,7.41066482 14.5502793,7.60872576 C14.3268156,7.8067867 14.1145251,8.0200831 13.9134078,8.24861496 C13.7122905,8.47714681 13.547486,8.72345337 13.4189944,8.98753463 C13.2905028,9.25161588 13.226257,9.54616805 13.226257,9.87119114 C13.226257,10.0946445 13.2486034,10.3079409 13.2932961,10.5110803 L13.2932961,10.5110803 L14.6005587,10.5110803 Z M14.0307263,14 C14.377095,14 14.650838,13.8984303 14.8519553,13.6952909 C15.0530726,13.4921514 15.1536313,13.2534626 15.1536313,12.9792244 C15.1536313,12.7049861 15.0530726,12.4662973 14.8519553,12.2631579 C14.650838,12.0600185 14.377095,11.9584488 14.0307263,11.9584488 C13.6843575,11.9584488 13.4106145,12.0600185 13.2094972,12.2631579 C13.0083799,12.4662973 12.9078212,12.7049861 12.9078212,12.9792244 C12.9078212,13.2534626 13.0083799,13.4921514 13.2094972,13.6952909 C13.4106145,13.8984303 13.6843575,14 14.0307263,14 Z" id="?-copy-2" fill="url(#linearGradient-3)"></path>
        </g>
        <g id="Group" transform="translate(10.000000, 14.000000)" fill-rule="nonzero">
            <path d="M11,0 L3,0 C1.3451972,0.00494220137 0.00494220167,1.34519712 0,3 L0,19 C0.00494220167,20.6548016 1.3451972,21.9950565 3,22 L11,22 C12.6548028,21.9950565 13.9950578,20.6548016 14,19 L14,3 C13.9950578,1.34519712 12.6548028,0.00494220137 11,0 L11,0 Z M9,1.99999988 C9,2.5522846 8.55228475,2.99999988 8,2.99999988 L6,2.99999988 C5.44771525,2.99999988 5,2.5522846 5,1.99999988 L9,1.99999988 Z M12,18.9999999 C12,19.5522836 11.5522847,19.9999999 11,19.9999999 L3,19.9999999 C2.44771525,19.9999999 2,19.5522836 2,18.9999999 L2,2.99999988 C2,2.4477151 2.44771525,1.99999988 3,1.99999988 C3.0049422,3.65480258 4.3451972,4.9950575 6,4.99999988 L8,4.99999988 C9.6548028,4.9950575 10.9950578,3.65480258 11,1.99999988 C11.5522847,1.99999988 12,2.4477151 12,2.99999988 L12,18.9999999 Z" id="Shape" fill="url(#linearGradient-5)"></path>
            <path d="M7.10055866,13.8282548 C7.08938547,13.7820868 7.08379888,13.7313019 7.08379888,13.6759003 L7.08379888,13.6759003 L7.08379888,13.5235457 C7.08379888,13.2188366 7.15642458,12.9441367 7.30167598,12.699446 C7.44692737,12.4547553 7.62569832,12.2285319 7.83798883,12.0207756 C8.05027933,11.8130194 8.2849162,11.6121884 8.54189944,11.4182825 C8.79888268,11.2243767 9.03351955,11.0212373 9.24581006,10.8088643 C9.45810056,10.5964912 9.63687151,10.3679594 9.78212291,10.1232687 C9.9273743,9.87857802 10,9.59926131 10,9.28531856 C10,9.03601108 9.95251397,8.77516159 9.8575419,8.50277008 C9.76256983,8.23037858 9.59217877,7.9833795 9.34636872,7.76177285 C9.10055866,7.5401662 8.77374302,7.3578024 8.36592179,7.21468144 C7.95810056,7.07156048 7.43575419,7 6.79888268,7 C6.26256983,7 5.75698324,7.05078486 5.28212291,7.15235457 C4.80726257,7.25392428 4.37988827,7.38781163 4,7.55401662 L4,7.55401662 L4.43575419,8.55124654 C5.1396648,8.23730379 5.8603352,8.08033241 6.59776536,8.08033241 C7.17877095,8.08033241 7.62011173,8.20267775 7.92178771,8.44736842 C8.22346369,8.6920591 8.37430168,9.00831025 8.37430168,9.39612188 C8.37430168,9.63619575 8.31005587,9.8578024 8.18156425,10.0609418 C8.05307263,10.2640813 7.88826816,10.4579871 7.68715084,10.6426593 C7.48603352,10.8273315 7.27374302,11.0096953 7.05027933,11.1897507 C6.82681564,11.3698061 6.61452514,11.5637119 6.41340782,11.7714681 C6.2122905,11.9792244 6.04748603,12.2031394 5.91899441,12.4432133 C5.79050279,12.6832872 5.72625698,12.9510619 5.72625698,13.2465374 C5.72625698,13.4496768 5.74860335,13.6435826 5.79329609,13.8282548 L5.79329609,13.8282548 L7.10055866,13.8282548 Z M6.53072626,17 C6.87709497,17 7.15083799,16.9076639 7.35195531,16.7229917 C7.55307263,16.5383195 7.65363128,16.3213296 7.65363128,16.0720222 C7.65363128,15.8227147 7.55307263,15.6057248 7.35195531,15.4210526 C7.15083799,15.2363804 6.87709497,15.1440443 6.53072626,15.1440443 C6.18435754,15.1440443 5.91061453,15.2363804 5.70949721,15.4210526 C5.50837989,15.6057248 5.40782123,15.8227147 5.40782123,16.0720222 C5.40782123,16.3213296 5.50837989,16.5383195 5.70949721,16.7229917 C5.91061453,16.9076639 6.18435754,17 6.53072626,17 Z" id="?-copy" fill="url(#linearGradient-6)"></path>
        </g>
    </g>
</svg>