<?xml version="1.0" encoding="UTF-8"?>
<svg width="80px" height="80px" viewBox="0 0 80 80" version="1.1" xmlns="http://www.w3.org/2000/svg" xmlns:xlink="http://www.w3.org/1999/xlink">
    <!-- Generator: Sketch 64 (93537) - https://sketch.com -->
    <title>3</title>
    <desc>Created with Sketch.</desc>
    <defs>
        <linearGradient x1="0%" y1="50.0007883%" x2="99.9987174%" y2="50.0007883%" id="linearGradient-1">
            <stop stop-color="#E29A64" offset="0%"></stop>
            <stop stop-color="#E85E8C" offset="100%"></stop>
        </linearGradient>
    </defs>
    <g id="3" stroke="none" stroke-width="1" fill="none" fill-rule="evenodd">
        <path d="M52.7505742,19 C53.1946437,19 53.6111502,19.1904286 53.9020922,19.5252143 L64.6210097,31.8109286 C65.1263301,32.3883571 65.1263301,33.2545 64.6210097,33.8319286 L53.9020922,46.1176429 C53.6111502,46.4524286 53.1946437,46.6428571 52.7505742,46.6428571 L35.175,46.642 L34.568,48.205 L35.9511323,51.7472531 C37.0728936,50.4996046 38.6965329,49.7142857 40.5,49.7142857 C43.8779375,49.7142857 46.625,52.4693571 46.625,55.8571429 C46.625,59.2449286 43.8779375,62 40.5,62 C37.96425,62 35.66125,60.4028571 34.767,58.0286429 C34.57459,57.5110266 34.4524533,56.9783079 34.4018268,56.435448 L32.884,52.544 L31.2664468,56.7133871 L31.2467872,56.7592812 C31.1834513,57.1900055 31.0744776,57.6131617 30.9205,58.0255714 C30.02625,60.4028571 27.72325,62 25.1875,62 C21.8095625,62 19.0625,59.2449286 19.0625,55.8571429 C19.0625,52.4693571 21.8095625,49.7142857 25.1875,49.7142857 C27.0356261,49.7142857 28.6949082,50.5389798 29.8187737,51.8407849 L31.209,48.254 L30.58,46.642 L17.5312739,46.6428571 C16.6860107,46.6428571 16,45.9548571 16,45.1071429 L16,20.5357143 C16,19.688 16.6860107,19 17.5312739,19 L52.7505742,19 Z M25.1875,52.7857143 C23.5000625,52.7857143 22.125,54.1617143 22.125,55.8571429 C22.125,57.5525714 23.5000625,58.9285714 25.1875,58.9285714 C26.455375,58.9285714 27.606875,58.13 28.054,56.9444286 C28.1856875,56.5973571 28.25,56.2318571 28.25,55.8571429 C28.25,54.1617143 26.8749375,52.7857143 25.1875,52.7857143 Z M40.5,52.7857143 C38.9027907,52.7857143 37.5854438,54.0184975 37.4491319,55.5880778 L37.9472849,56.8623355 C38.0515345,57.1285736 38.0737371,57.4048521 38.0260804,57.6656337 C38.5927585,58.4426364 39.5109718,58.9285714 40.5,58.9285714 C42.1905,58.9285714 43.5625,57.5525714 43.5625,55.8571429 C43.5625,54.1617143 42.1905,52.7857143 40.5,52.7857143 Z M52.0553759,22.0714286 L19.0625479,22.0714286 L19.0625479,43.5714286 L33.027,43.571 L39.3210532,27.35781 C39.6297663,26.5648314 40.5403142,26.1714157 41.3354844,26.4726246 C42.1400095,26.7769071 42.5422721,27.6651661 42.233559,28.4581447 L36.367,43.571 L52.0553759,43.5714286 L61.4328974,32.8214286 L52.0553759,22.0714286 Z M33.15,37.4285714 L33.15,40.5 L30.0875,40.5 L30.0875,37.4285714 L33.15,37.4285714 Z M51.21875,28.2142857 C53.7514375,28.2142857 55.8125,30.2813571 55.8125,32.8214286 C55.8125,35.3615 53.7514375,37.4285714 51.21875,37.4285714 C48.6860625,37.4285714 46.625,35.3615 46.625,32.8214286 C46.625,30.2813571 48.6860625,28.2142857 51.21875,28.2142857 Z M51.21875,31.2857143 C50.3765625,31.2857143 49.6875,31.9737143 49.6875,32.8214286 C49.6875,33.6691429 50.3765625,34.3571429 51.21875,34.3571429 C52.0609375,34.3571429 52.75,33.6691429 52.75,32.8214286 C52.75,31.9737143 52.0609375,31.2857143 51.21875,31.2857143 Z M33.15,31.2857143 L33.15,34.3571429 L30.0875,34.3571429 L30.0875,31.2857143 L33.15,31.2857143 Z M33.15,25.1428571 L33.15,28.2142857 L30.0875,28.2142857 L30.0875,25.1428571 L33.15,25.1428571 Z" id="Combined-Shape" fill="url(#linearGradient-1)" fill-rule="nonzero"></path>
    </g>
</svg>