<?xml version="1.0" encoding="UTF-8"?>
<svg width="80px" height="80px" viewBox="0 0 80 80" version="1.1" xmlns="http://www.w3.org/2000/svg" xmlns:xlink="http://www.w3.org/1999/xlink">
    <!-- Generator: Sketch 64 (93537) - https://sketch.com -->
    <title>4</title>
    <desc>Created with Sketch.</desc>
    <defs>
        <linearGradient x1="0%" y1="50.0007883%" x2="99.9987174%" y2="50.0007883%" id="linearGradient-1">
            <stop stop-color="#E29A64" offset="0%"></stop>
            <stop stop-color="#E85E8C" offset="100%"></stop>
        </linearGradient>
        <linearGradient x1="0%" y1="50.0007883%" x2="99.9987174%" y2="50.0007883%" id="linearGradient-2">
            <stop stop-color="#E29A64" offset="0%"></stop>
            <stop stop-color="#E85E8C" offset="100%"></stop>
        </linearGradient>
        <linearGradient x1="0%" y1="50.0007883%" x2="99.9987174%" y2="50.0007883%" id="linearGradient-3">
            <stop stop-color="#E29A64" offset="0%"></stop>
            <stop stop-color="#E85E8C" offset="100%"></stop>
        </linearGradient>
        <linearGradient x1="0%" y1="50.0007883%" x2="99.9987174%" y2="50.0007883%" id="linearGradient-4">
            <stop stop-color="#E29A64" offset="0%"></stop>
            <stop stop-color="#E85E8C" offset="100%"></stop>
        </linearGradient>
        <linearGradient x1="0%" y1="50.0007883%" x2="99.9987174%" y2="50.0007883%" id="linearGradient-5">
            <stop stop-color="#E29A64" offset="0%"></stop>
            <stop stop-color="#E85E8C" offset="100%"></stop>
        </linearGradient>
        <linearGradient x1="0%" y1="50.0007883%" x2="99.9987174%" y2="50.0007883%" id="linearGradient-6">
            <stop stop-color="#E29A64" offset="0%"></stop>
            <stop stop-color="#E85E8C" offset="100%"></stop>
        </linearGradient>
    </defs>
    <g id="4" stroke="none" stroke-width="1" fill="none" fill-rule="evenodd">
        <g id="Group-4" transform="translate(2.000000, 7.000000)">
            <path d="M38.5,23 L47.5932667,28.25 L47.5932667,38.75 L38.5,44 L29.4067333,38.75 L29.4067333,28.25 L38.5,23 Z M37.4999697,28.9424307 C36.6416673,29.8007307 36.3435417,31.0655927 36.715183,32.2131502 L33.08584,35.8425021 C33.0308985,35.8974435 33,35.9718184 33,36.0496503 L33,37.7070315 C33,37.868965 33.1310354,38 33.2929693,38 L34.9503554,38 C35.028168,38 35.1025627,37.9691016 35.1574847,37.9141602 L35.5717628,37.4995903 C35.6349856,37.4363677 35.6658841,37.3476764 35.6555911,37.2586921 L35.6040871,36.8135168 L36.2209243,36.7554309 C36.3611198,36.7422669 36.4718427,36.6315443 36.4850068,36.4913491 L36.5430929,35.8745138 L36.9882695,35.9262911 C37.0709455,35.9374434 37.1542073,35.9096895 37.2168637,35.8542013 C37.2792271,35.7984201 37.3149889,35.7188694 37.3149889,35.6353343 L37.3149889,35.0898466 L37.8505759,35.0898466 C37.9283885,35.0898466 38.0027832,35.0589482 38.0577052,35.0040068 L38.8090153,34.2626404 C39.9562831,34.6345736 41.1992738,34.3589098 42.0575763,33.5000239 C43.3141412,32.2434822 43.3141412,30.1989725 42.0575763,28.9424112 C40.8010113,27.6858499 38.7565347,27.6858694 37.4999697,28.9424307 Z M41.2287661,29.771258 C41.5715206,30.1140116 41.5715011,30.6713353 41.2287661,31.0140889 C40.8860115,31.3568424 40.3286862,31.3568424 39.9859316,31.0140889 C39.643177,30.6713353 39.643177,30.1140116 39.9859316,29.771258 C40.3286862,29.4285045 40.8860115,29.4285045 41.2287661,29.771258 Z" id="Combined-Shape" fill="url(#linearGradient-1)" fill-rule="nonzero"></path>
            <g id="Group-3" fill-rule="nonzero">
                <path d="M13.9545455,26 L3.04545455,26 C1.91717991,26.0034595 1.00336968,26.9416367 1,28.099997 L1,35.0999869 C1.00336968,36.2583472 1.91717991,37.1965243 3.04545455,37.1999839 L5.62954545,37.1999839 L5.17272727,39.1319811 C5.11903751,39.3412934 5.16450975,39.5643428 5.29545455,39.7339802 C5.42556053,39.9030244 5.62424067,40.0011404 5.83409091,39.99999 L11.1659091,39.99999 C11.3757593,40.0011404 11.5744395,39.9030244 11.7045455,39.7339802 C11.8354903,39.5643428 11.8809625,39.3412934 11.8272727,39.1319811 L11.3704545,37.1999839 L13.9545455,37.1999839 C15.0828201,37.1965243 15.9966303,36.2583472 16,35.0999869 L16,28.099997 C15.9966303,26.9416367 15.0828201,26.0034595 13.9545455,26 L13.9545455,26 Z M6.7,38.5999818 L7.03409091,37.1999839 L9.96590909,37.1999839 L10.3,38.5999818 L6.7,38.5999818 Z M14.6363636,35.0999869 C14.6363636,35.4865856 14.3311032,35.7999859 13.9545455,35.7999859 L3.04545455,35.7999859 C2.66889676,35.7999859 2.36363636,35.4865856 2.36363636,35.0999869 L2.36363636,34.3999879 L14.6363636,34.3999879 L14.6363636,35.0999869 Z M14.6363636,32.9999899 L2.36363636,32.9999899 L2.36363636,28.099997 C2.36363636,27.7133982 2.66889676,27.399998 3.04545455,27.399998 L13.9545455,27.399998 C14.3311032,27.399998 14.6363636,27.7133982 14.6363636,28.099997 L14.6363636,32.9999899 Z" id="Shape-Copy" fill="url(#linearGradient-2)"></path>
                <path d="M16.8524819,59.5594422 C16.7280728,59.4174952 16.5415472,59.3345398 16.34407,59.3333312 L15.7630277,59.3333312 L15.7630277,52.6111109 C15.7630277,52.2736037 15.4674124,52 15.1027525,52 L1.8972475,52 C1.53258755,52 1.23697225,52.2736037 1.23697225,52.6111109 L1.23697225,59.3333312 L0.655930035,59.3333312 C0.458452764,59.3345398 0.271927176,59.4174952 0.147518093,59.5594422 C0.0208556208,59.7027932 -0.0278116756,59.8919759 0.0154630433,60.0727754 L0.58990251,62.5172191 C0.655378689,62.7993632 0.925177829,63.0006599 1.23697225,63 L15.7630277,63 C16.0748222,63.0006599 16.3446213,62.7993632 16.4100975,62.5172191 L16.984537,60.0727754 C17.0278117,59.8919759 16.9791444,59.7027932 16.8524819,59.5594422 Z M2.55752275,53.2222219 L14.4424772,53.2222219 L14.4424772,59.3333312 L9.8205505,59.3333312 C9.45589055,59.3333312 9.16027525,59.6069348 9.16027525,59.9444421 L7.83972475,59.9444421 C7.83972475,59.6069348 7.54410945,59.3333312 7.1794495,59.3333312 L2.55752275,59.3333312 L2.55752275,53.2222219 Z M15.2348075,61.7777749 L1.76519245,61.7777749 L1.4812741,60.555553 L6.51917425,60.555553 C6.51917425,60.8930603 6.81478955,61.166664 7.1794495,61.166664 L9.8205505,61.166664 C10.1852105,61.166664 10.4808257,60.8930603 10.4808257,60.555553 L15.5187259,60.555553 L15.2348075,61.7777749 Z" id="Shape" fill="url(#linearGradient-3)"></path>
                <path d="M11.8571429,0 L6.14285714,0 C4.96085514,0.00359432827 4.00353014,0.978325179 4,2.18181805 L4,13.818181 C4.00353014,15.0216739 4.96085514,15.9964047 6.14285714,16 L11.8571429,16 C13.0391449,15.9964047 13.9964699,15.0216739 14,13.818181 L14,2.18181805 C13.9964699,0.978325179 13.0391449,0.00359432827 11.8571429,0 L11.8571429,0 Z M10.4285714,1.45454537 C10.4285714,1.85620698 10.1087748,2.18181805 9.71428571,2.18181805 L8.28571429,2.18181805 C7.89122518,2.18181805 7.57142857,1.85620698 7.57142857,1.45454537 L10.4285714,1.45454537 Z M12.5714286,13.818181 C12.5714286,14.2198426 12.251632,14.5454537 11.8571429,14.5454537 L6.14285714,14.5454537 C5.74836804,14.5454537 5.42857143,14.2198426 5.42857143,13.818181 L5.42857143,2.18181805 C5.42857143,1.78015644 5.74836804,1.45454537 6.14285714,1.45454537 C6.14638729,2.65803824 7.10371229,3.63276909 8.28571429,3.63636342 L9.71428571,3.63636342 C10.8962877,3.63276909 11.8536127,2.65803824 11.8571429,1.45454537 C12.251632,1.45454537 12.5714286,1.78015644 12.5714286,2.18181805 L12.5714286,13.818181 Z" id="Shape" fill="url(#linearGradient-4)"></path>
            </g>
            <g id="Group-3-Copy" transform="translate(60.000000, 0.000000)" fill-rule="nonzero">
                <path d="M13.9545455,26 L3.04545455,26 C1.91717991,26.0034595 1.00336968,26.9416367 1,28.099997 L1,35.0999869 C1.00336968,36.2583472 1.91717991,37.1965243 3.04545455,37.1999839 L5.62954545,37.1999839 L5.17272727,39.1319811 C5.11903751,39.3412934 5.16450975,39.5643428 5.29545455,39.7339802 C5.42556053,39.9030244 5.62424067,40.0011404 5.83409091,39.99999 L11.1659091,39.99999 C11.3757593,40.0011404 11.5744395,39.9030244 11.7045455,39.7339802 C11.8354903,39.5643428 11.8809625,39.3412934 11.8272727,39.1319811 L11.3704545,37.1999839 L13.9545455,37.1999839 C15.0828201,37.1965243 15.9966303,36.2583472 16,35.0999869 L16,28.099997 C15.9966303,26.9416367 15.0828201,26.0034595 13.9545455,26 L13.9545455,26 Z M6.7,38.5999818 L7.03409091,37.1999839 L9.96590909,37.1999839 L10.3,38.5999818 L6.7,38.5999818 Z M14.6363636,35.0999869 C14.6363636,35.4865856 14.3311032,35.7999859 13.9545455,35.7999859 L3.04545455,35.7999859 C2.66889676,35.7999859 2.36363636,35.4865856 2.36363636,35.0999869 L2.36363636,34.3999879 L14.6363636,34.3999879 L14.6363636,35.0999869 Z M14.6363636,32.9999899 L2.36363636,32.9999899 L2.36363636,28.099997 C2.36363636,27.7133982 2.66889676,27.399998 3.04545455,27.399998 L13.9545455,27.399998 C14.3311032,27.399998 14.6363636,27.7133982 14.6363636,28.099997 L14.6363636,32.9999899 Z" id="Shape-Copy" fill="url(#linearGradient-2)"></path>
                <path d="M16.8524819,59.5594422 C16.7280728,59.4174952 16.5415472,59.3345398 16.34407,59.3333312 L15.7630277,59.3333312 L15.7630277,52.6111109 C15.7630277,52.2736037 15.4674124,52 15.1027525,52 L1.8972475,52 C1.53258755,52 1.23697225,52.2736037 1.23697225,52.6111109 L1.23697225,59.3333312 L0.655930035,59.3333312 C0.458452764,59.3345398 0.271927176,59.4174952 0.147518093,59.5594422 C0.0208556208,59.7027932 -0.0278116756,59.8919759 0.0154630433,60.0727754 L0.58990251,62.5172191 C0.655378689,62.7993632 0.925177829,63.0006599 1.23697225,63 L15.7630277,63 C16.0748222,63.0006599 16.3446213,62.7993632 16.4100975,62.5172191 L16.984537,60.0727754 C17.0278117,59.8919759 16.9791444,59.7027932 16.8524819,59.5594422 Z M2.55752275,53.2222219 L14.4424772,53.2222219 L14.4424772,59.3333312 L9.8205505,59.3333312 C9.45589055,59.3333312 9.16027525,59.6069348 9.16027525,59.9444421 L7.83972475,59.9444421 C7.83972475,59.6069348 7.54410945,59.3333312 7.1794495,59.3333312 L2.55752275,59.3333312 L2.55752275,53.2222219 Z M15.2348075,61.7777749 L1.76519245,61.7777749 L1.4812741,60.555553 L6.51917425,60.555553 C6.51917425,60.8930603 6.81478955,61.166664 7.1794495,61.166664 L9.8205505,61.166664 C10.1852105,61.166664 10.4808257,60.8930603 10.4808257,60.555553 L15.5187259,60.555553 L15.2348075,61.7777749 Z" id="Shape" fill="url(#linearGradient-3)"></path>
                <path d="M11.8571429,0 L6.14285714,0 C4.96085514,0.00359432827 4.00353014,0.978325179 4,2.18181805 L4,13.818181 C4.00353014,15.0216739 4.96085514,15.9964047 6.14285714,16 L11.8571429,16 C13.0391449,15.9964047 13.9964699,15.0216739 14,13.818181 L14,2.18181805 C13.9964699,0.978325179 13.0391449,0.00359432827 11.8571429,0 L11.8571429,0 Z M10.4285714,1.45454537 C10.4285714,1.85620698 10.1087748,2.18181805 9.71428571,2.18181805 L8.28571429,2.18181805 C7.89122518,2.18181805 7.57142857,1.85620698 7.57142857,1.45454537 L10.4285714,1.45454537 Z M12.5714286,13.818181 C12.5714286,14.2198426 12.251632,14.5454537 11.8571429,14.5454537 L6.14285714,14.5454537 C5.74836804,14.5454537 5.42857143,14.2198426 5.42857143,13.818181 L5.42857143,2.18181805 C5.42857143,1.78015644 5.74836804,1.45454537 6.14285714,1.45454537 C6.14638729,2.65803824 7.10371229,3.63276909 8.28571429,3.63636342 L9.71428571,3.63636342 C10.8962877,3.63276909 11.8536127,2.65803824 11.8571429,1.45454537 C12.251632,1.45454537 12.5714286,1.78015644 12.5714286,2.18181805 L12.5714286,13.818181 Z" id="Shape" fill="url(#linearGradient-4)"></path>
            </g>
            <g id="key" transform="translate(33.000000, 28.000000)"></g>
            <g id="Group-2" transform="translate(48.000000, 6.000000)" stroke-linecap="round" stroke-linejoin="round">
                <g id="Group" transform="translate(1.000000, 24.000408)">
                    <line x1="1" y1="3" x2="11" y2="3" id="Path-2" stroke="url(#linearGradient-5)" transform="translate(6.000000, 2.999994) scale(-1, 1) translate(-6.000000, -2.999994) "></line>
                    <polyline id="Path" stroke="url(#linearGradient-6)" transform="translate(3.000000, 3.000000) scale(-1, 1) rotate(-45.000000) translate(-3.000000, -3.000000) " points="5 1 5 5 1 5"></polyline>
                </g>
                <g id="Group" transform="translate(6.500000, 7.000000) rotate(-45.000000) translate(-6.500000, -7.000000) translate(1.000000, 4.000000)">
                    <line x1="1" y1="3" x2="11" y2="3" id="Path-2" stroke="url(#linearGradient-5)" transform="translate(6.000000, 2.999994) scale(-1, 1) translate(-6.000000, -2.999994) "></line>
                    <polyline id="Path" stroke="url(#linearGradient-6)" transform="translate(3.000000, 3.000000) scale(-1, 1) rotate(-45.000000) translate(-3.000000, -3.000000) " points="5 1 5 5 1 5"></polyline>
                </g>
                <g id="Group" transform="translate(6.500000, 47.000815) rotate(-315.000000) translate(-6.500000, -47.000815) translate(1.000000, 44.000815)">
                    <line x1="1" y1="3" x2="11" y2="3" id="Path-2" stroke="url(#linearGradient-5)" transform="translate(6.000000, 2.999994) scale(-1, 1) translate(-6.000000, -2.999994) "></line>
                    <polyline id="Path" stroke="url(#linearGradient-6)" transform="translate(3.000000, 3.000000) scale(-1, 1) rotate(-45.000000) translate(-3.000000, -3.000000) " points="5 1 5 5 1 5"></polyline>
                </g>
            </g>
            <g id="Group-2" transform="translate(22.500000, 33.000000) scale(-1, 1) translate(-22.500000, -33.000000) translate(16.000000, 6.000000)" stroke-linecap="round" stroke-linejoin="round">
                <g id="Group" transform="translate(1.000000, 24.000000)">
                    <line x1="1" y1="3" x2="11" y2="3" id="Path-2" stroke="url(#linearGradient-5)" transform="translate(6.000000, 2.999994) scale(-1, 1) translate(-6.000000, -2.999994) "></line>
                    <polyline id="Path" stroke="url(#linearGradient-6)" transform="translate(3.000000, 3.000000) scale(-1, 1) rotate(-45.000000) translate(-3.000000, -3.000000) " points="5 1 5 5 1 5"></polyline>
                </g>
                <g id="Group" transform="translate(6.500000, 7.000000) rotate(-45.000000) translate(-6.500000, -7.000000) translate(1.000000, 4.000000)">
                    <line x1="1" y1="3" x2="11" y2="3" id="Path-2" stroke="url(#linearGradient-5)" transform="translate(6.000000, 2.999994) scale(-1, 1) translate(-6.000000, -2.999994) "></line>
                    <polyline id="Path" stroke="url(#linearGradient-6)" transform="translate(3.000000, 3.000000) scale(-1, 1) rotate(-45.000000) translate(-3.000000, -3.000000) " points="5 1 5 5 1 5"></polyline>
                </g>
                <g id="Group" transform="translate(6.500000, 47.000000) rotate(-315.000000) translate(-6.500000, -47.000000) translate(1.000000, 44.000000)">
                    <line x1="1" y1="3" x2="11" y2="3" id="Path-2" stroke="url(#linearGradient-5)" transform="translate(6.000000, 2.999994) scale(-1, 1) translate(-6.000000, -2.999994) "></line>
                    <polyline id="Path" stroke="url(#linearGradient-6)" transform="translate(3.000000, 3.000000) scale(-1, 1) rotate(-45.000000) translate(-3.000000, -3.000000) " points="5 1 5 5 1 5"></polyline>
                </g>
            </g>
        </g>
    </g>
</svg>