<?xml version="1.0" encoding="UTF-8"?>
<svg width="24px" height="24px" viewBox="0 0 24 24" version="1.1" xmlns="http://www.w3.org/2000/svg" xmlns:xlink="http://www.w3.org/1999/xlink">
    <!-- Generator: sketchtool 64 (101010) - https://sketch.com -->
    <title>CD51E889-1310-4260-BD1E-5A93D1EB9964</title>
    <desc>Created with sketchtool.</desc>
    <defs>
        <linearGradient x1="0%" y1="50.0007883%" x2="99.9987174%" y2="50.0007883%" id="linearGradient-1">
            <stop stop-color="#E29A64" offset="0%"></stop>
            <stop stop-color="#E85E8C" offset="100%"></stop>
        </linearGradient>
    </defs>
    <g id="About" stroke="none" stroke-width="1" fill="none" fill-rule="evenodd">
        <g transform="translate(-777.000000, -3004.000000)" fill="url(#linearGradient-1)" fill-rule="nonzero" id="Group-6">
            <g transform="translate(-369.000000, 1900.000000)">
                <g id="Group-9" transform="translate(580.000000, 481.000000)">
                    <path d="M584.053571,630.553571 C586.375,630.553571 588,631.285714 588.928571,632.75 C589.603175,633.863095 589.959215,635.549603 589.996693,637.809524 L590,638.214286 L590,647 L585.017857,647 L585.017857,639.178571 L585.015625,638.864583 C584.999256,637.740575 584.892857,636.916667 584.696429,636.392857 C584.303571,635.428571 583.535714,634.946429 582.392857,634.946429 C581.25,634.946429 580.446429,635.375 579.982143,636.232143 C579.654762,636.821429 579.477431,637.665799 579.450149,638.765253 L579.446429,639.071429 L579.446429,647 L574.517857,647 L574.517857,630.982143 L579.285714,630.982143 L579.285714,633.178571 L579.339286,633.178571 L579.46627,632.945106 C579.826058,632.334877 580.355159,631.823413 581.053571,631.410714 C581.910714,630.839286 582.910714,630.553571 584.053571,630.553571 Z M571.357143,630.982143 L571.357143,647 L566.375,647 L566.375,630.982143 L571.357143,630.982143 Z M568.892857,623 C569.678571,623 570.357143,623.285714 570.928571,623.857143 C571.5,624.428571 571.785714,625.107143 571.785714,625.892857 C571.785714,626.678571 571.5,627.357143 570.928571,627.928571 C570.357143,628.5 569.678571,628.785714 568.892857,628.785714 C568.107143,628.785714 567.428571,628.5 566.857143,627.928571 C566.285714,627.357143 566,626.678571 566,625.892857 C566,625.107143 566.285714,624.428571 566.857143,623.857143 C567.428571,623.285714 568.107143,623 568.892857,623 Z" id="linkedin-icon"></path>
                </g>
            </g>
        </g>
    </g>
</svg>