<?xml version="1.0" encoding="UTF-8"?>
<svg width="80px" height="80px" viewBox="0 0 80 80" version="1.1" xmlns="http://www.w3.org/2000/svg" xmlns:xlink="http://www.w3.org/1999/xlink">
    <!-- Generator: Sketch 64 (93537) - https://sketch.com -->
    <title>future-proofflexibility</title>
    <desc>Created with Sketch.</desc>
    <defs>
        <linearGradient x1="0%" y1="50.0007883%" x2="99.9987174%" y2="50.0007883%" id="linearGradient-1">
            <stop stop-color="#E29A64" offset="0%"></stop>
            <stop stop-color="#E85E8C" offset="100%"></stop>
        </linearGradient>
    </defs>
    <g id="future-proofflexibility" stroke="none" stroke-width="1" fill="none" fill-rule="evenodd">
        <path d="M57.875,18 C60.1522321,18.0022738 61.9977262,19.8477679 62,22.125 L62,22.125 L62,55.125 C61.9958321,58.9202299 58.9202299,61.9958321 55.125,62 L55.125,62 L24.989125,62 L24.989125,62 L24.9554375,61.9965625 C24.928625,62 24.9018125,62 24.875,62 C21.0797701,61.9958321 18.0041679,58.9202299 18,55.125 L18,55.125 L18,52.375 C18.0022738,50.0977679 19.8477679,48.2522738 22.125,48.25 L22.125,48.25 L29,48.25 L29,22.125 C29.0022738,19.8477679 30.8477679,18.0022738 33.125,18 L33.125,18 Z M53.75,33.125 L37.25,33.125 L37.25,56.5 C37.2495148,57.4470722 37.0516628,58.3836496 36.6690625,59.25 L36.6690625,59.25 L52.684375,59.25 C53.3675208,58.4967058 53.7471866,57.516923 53.75,56.5 L53.75,56.5 L53.75,33.125 Z M57.875,20.75 L33.125,20.75 C32.3656085,20.75 31.75,21.3656085 31.75,22.125 L31.75,22.125 L31.75,55.125 C31.7481354,55.3932674 31.7302285,55.6611832 31.696375,55.9273125 L31.696375,55.9273125 L31.684,56.02975 C31.6220541,56.4949641 31.5121569,56.9525236 31.3560625,57.395125 C31.3450625,57.42675 31.3313125,57.4563125 31.319625,57.48725 C31.270125,57.6213125 31.21925,57.7519375 31.1615,57.8839375 C31.10375,58.0159375 31.039125,58.143125 30.9745,58.269625 C30.96075,58.2950625 30.9490625,58.3211875 30.936,58.3459375 C30.7677822,58.6618278 30.5751551,58.9641007 30.359875,59.25 L30.359875,59.25 L33.431625,59.25 C34.1157134,58.4970816 34.4963679,57.5172757 34.5,56.5 L34.5,56.5 L34.5,31.75 C34.5,30.9906085 35.1156085,30.375 35.875,30.375 L35.875,30.375 L55.125,30.375 C55.8843915,30.375 56.5,30.9906085 56.5,31.75 L56.5,31.75 L56.5,56.5 C56.4981695,57.4169097 56.3110931,58.3239966 55.95,59.1668125 C57.86945,58.772833 59.2479439,57.0844653 59.25,55.125 L59.25,55.125 L59.25,22.125 C59.25,21.3656085 58.6343915,20.75 57.875,20.75 L57.875,20.75 Z M29,51 L22.125,51 C21.3656085,51 20.75,51.6156085 20.75,52.375 L20.75,52.375 L20.75,55.125 C20.7522738,57.4022321 22.5977679,59.2477262 24.875,59.25 C25.067626,59.2486853 25.259918,59.2337523 25.4504375,59.2053125 C25.5295,59.1943125 25.607875,59.1805625 25.6855625,59.16475 C25.8352108,59.1352241 25.9830381,59.0971196 26.1283125,59.050625 C26.2121875,59.0238125 26.2933125,58.9908125 26.375125,58.9585 C26.4775625,58.9145 26.5848125,58.8670625 26.677625,58.821 C26.7704375,58.7749375 26.86325,58.7268125 26.952625,58.673875 C27.0644583,58.607875 27.1728542,58.5370625 27.2778125,58.4614375 C27.3465625,58.4105625 27.4153125,58.359 27.4840625,58.304 C27.604755,58.2054231 27.719537,58.0998236 27.8278125,57.98775 C27.876625,57.93825 27.9199375,57.886 27.9653125,57.8344375 C28.0718484,57.7149827 28.171031,57.5891677 28.2623125,57.4576875 C28.2788125,57.433625 28.2966875,57.4123125 28.3118125,57.3889375 C28.4280681,57.2121191 28.5305776,57.0266366 28.6184375,56.834125 C28.624625,56.8210625 28.6308125,56.8086875 28.6363125,56.7963125 C28.7289589,56.5885075 28.8046026,56.3735322 28.8625,56.1535 C28.9054692,55.988098 28.938528,55.8202788 28.9615,55.6509375 C28.962875,55.642 28.9663125,55.632375 28.9663125,55.62275 C28.988291,55.4577361 28.9995438,55.2914705 29,55.125 L29,55.125 L29,51 Z M37.655625,23.905625 C38.1989619,23.3898438 39.0510381,23.3898438 39.594375,23.905625 C39.9893185,24.2982255 40.1084589,24.8902779 39.8961157,25.4050845 C39.6837724,25.9198912 39.1818802,26.255785 38.625,26.255785 C38.0681198,26.255785 37.5662276,25.9198912 37.3538843,25.4050845 C37.1415411,24.8902779 37.2606815,24.2982255 37.655625,23.905625 Z M52.375,23.5 C53.1343915,23.5 53.75,24.1156085 53.75,24.875 C53.75,25.6343915 53.1343915,26.25 52.375,26.25 L52.375,26.25 L44.125,26.25 C43.3656085,26.25 42.75,25.6343915 42.75,24.875 C42.75,24.1156085 43.3656085,23.5 44.125,23.5 L44.125,23.5 Z" id="Combined-Shape" fill="url(#linearGradient-1)" fill-rule="nonzero"></path>
    </g>
</svg>