<?xml version="1.0" encoding="UTF-8"?>
<svg width="80px" height="80px" viewBox="0 0 80 80" version="1.1" xmlns="http://www.w3.org/2000/svg" xmlns:xlink="http://www.w3.org/1999/xlink">
    <!-- Generator: Sketch 64 (93537) - https://sketch.com -->
    <title>instantcredibility</title>
    <desc>Created with Sketch.</desc>
    <defs>
        <linearGradient x1="0%" y1="50.0007883%" x2="99.9987174%" y2="50.0007883%" id="linearGradient-1">
            <stop stop-color="#E29A64" offset="0%"></stop>
            <stop stop-color="#E85E8C" offset="100%"></stop>
        </linearGradient>
    </defs>
    <g id="instantcredibility" stroke="none" stroke-width="1" fill="none" fill-rule="evenodd">
        <path d="M65,38.5863932 L65,56.3246094 L57.9556452,56.3246094 L57.5306452,54.9668295 L53.9048387,57.1067034 L51.8709677,57.6154677 C52.0153226,57.9355619 52.0967742,58.283876 52.0967742,58.6458968 C52.0967742,60.0028704 51.0145161,61.1058649 49.6685484,61.1534356 C49.6209677,62.4991212 48.5177419,63.5811523 47.1604839,63.5811523 C46.8733871,63.5811523 46.5927419,63.5222937 46.325,63.4271524 C46.0032258,64.4470998 45.0596774,65.1937174 43.9346774,65.1937174 C43.3975806,65.1937174 42.8758065,65.0106913 42.4459677,64.6946285 L42.4459677,64.6946285 L41.8491935,65.2912776 C41.3927419,65.7484398 40.7846774,66 40.1387097,66 L40.1387097,66 L40,66 C38.9556452,66 38.0725806,65.3315918 37.733871,64.4035605 C37.2806452,64.8945866 36.6435484,65.1937174 35.9677419,65.1937174 C34.8483871,65.1937174 33.9129032,64.4261365 33.6379032,63.3924822 C33.3548387,63.5061681 33.0540323,63.5811523 32.7419355,63.5811523 C31.6225806,63.5811523 30.6870968,62.8135713 30.4120968,61.7799171 C30.1290323,61.893603 29.8282258,61.9685872 29.516129,61.9685872 C28.1822581,61.9685872 27.0967742,60.8833309 27.0967742,59.5497396 L27.0967742,59.5497396 L27.0967742,59.2812475 C27.0967742,58.7611952 27.2685484,58.2459807 27.5806452,57.8299389 L27.5806452,57.8299389 L27.8475806,57.4743683 L24.8532258,55.0789028 L24.4637097,56.3246094 L15,56.3246094 L15,38.5863932 L16.833871,38.6178382 L28.9193548,42.0687275 L28.2209677,44.3029365 L39.4096774,45.0487478 L42.1508065,46.4194282 C42.9169355,46.0469256 43.7548387,45.8429362 44.6137097,45.8429362 L44.6137097,45.8429362 L50.2935484,45.8429362 L54.0870968,43.9465596 L53.5169355,42.1235547 L63.2451613,38.5863932 L65,38.5863932 Z M40.8064516,61.9685872 L40.6677419,61.9685872 C40.4556452,61.9685872 40.2483871,62.0548595 40.0975806,62.204828 L40.0975806,62.204828 L39.4298387,62.87243 C39.2774194,63.0248174 39.1935484,63.2280006 39.1935484,63.443278 L39.1935484,63.443278 L39.1935484,63.5811523 C39.1935484,64.025414 39.5548387,64.3874349 40,64.3874349 L40,64.3874349 L40.1387097,64.3874349 C40.3508065,64.3874349 40.5580645,64.3011627 40.708871,64.1511941 L40.708871,64.1511941 L41.3766129,63.4835922 C41.5290323,63.3312047 41.6129032,63.1280215 41.6129032,62.9127441 L41.6129032,62.9127441 L41.6129032,62.7748698 C41.6129032,62.3306081 41.2516129,61.9685872 40.8064516,61.9685872 L40.8064516,61.9685872 Z M27.7258065,45.8864754 L25.3693548,53.4268299 L28.816129,56.1835099 L29.1943548,55.6795833 C29.6475806,55.0740651 30.3709677,54.7120442 31.1290323,54.7120442 C32.2483871,54.7120442 33.183871,55.4796252 33.458871,56.5132795 C33.7419355,56.3995936 34.0427419,56.3246094 34.3548387,56.3246094 C35.4741935,56.3246094 36.4096774,57.0921903 36.6846774,58.1258446 C36.9677419,58.0121587 37.2685484,57.9371745 37.5806452,57.9371745 C38.9145161,57.9371745 40,59.0224308 40,60.3560221 L40,60.3560221 L40,60.4608389 C40.2153226,60.3987551 40.4370968,60.3560221 40.6677419,60.3560221 L40.6677419,60.3560221 L40.8064516,60.3560221 C42.1403226,60.3560221 43.2258065,61.4412784 43.2258065,62.7748698 L43.2258065,62.7748698 L43.2258065,62.9127441 C43.2258065,63.0167546 43.208871,63.1167336 43.1959677,63.2175189 L43.1959677,63.2175189 L43.2951613,63.3166917 C43.4637097,63.4843984 43.6967742,63.5811523 43.9346774,63.5811523 C44.4330645,63.5811523 44.8387097,63.1755922 44.8387097,62.6773096 C44.8387097,62.4354248 44.7451613,62.2088594 44.5741935,62.0379275 L44.5741935,62.0379275 L41.0427419,58.5072162 L42.1830645,57.3671327 L45.7145161,60.897844 L46.5209677,61.7041266 C46.6895161,61.8718333 46.9225806,61.9685872 47.1604839,61.9685872 C47.658871,61.9685872 48.0645161,61.5630271 48.0645161,61.0647445 C48.0645161,60.8228597 47.9709677,60.5962943 47.8,60.4253624 L47.8,60.4253624 L44.2685484,56.8946511 L43.4620968,56.0883686 L44.6024194,54.948285 L45.408871,55.7545676 L48.9403226,59.2852789 C49.108871,59.4529857 49.3419355,59.5497396 49.5798387,59.5497396 C50.0782258,59.5497396 50.483871,59.1441794 50.483871,58.6458968 C50.483871,58.4040121 50.3903226,58.1774467 50.2193548,58.0065148 L50.2193548,58.0065148 L44.9524194,52.7406834 C44.4693548,52.2569139 43.675,52.1577411 43.0862903,52.5108929 L43.0862903,52.5108929 L40.058871,54.3266412 C39.6387097,54.5790076 39.1580645,54.7120442 38.6693548,54.7120442 C37.1798387,54.7120442 35.9677419,53.5010079 35.9677419,52.011804 L35.9677419,52.011804 L35.9677419,51.7304114 C35.9677419,50.7927048 36.4427419,49.937239 37.2379032,49.4397626 L37.2379032,49.4397626 L40.5032258,47.3990615 L38.9774194,46.6363182 L27.7258065,45.8864754 Z M37.5806452,59.5497396 C37.3282258,59.5497396 37.0870968,59.6698757 36.9362903,59.8722526 L36.9362903,59.8722526 L35.3225806,62.0226082 C35.2185484,62.162095 35.1612903,62.3338332 35.1612903,62.5063777 L35.1612903,62.5063777 L35.1612903,62.7748698 C35.1612903,63.2191315 35.5225806,63.5811523 35.9677419,63.5811523 C36.2201613,63.5811523 36.4612903,63.4610162 36.6120968,63.2594456 L36.6120968,63.2594456 L38.2258065,61.1082837 C38.3298387,60.9687969 38.3870968,60.7970587 38.3870968,60.6245142 L38.3870968,60.6245142 L38.3870968,60.3560221 C38.3870968,59.9117604 38.0258065,59.5497396 37.5806452,59.5497396 Z M34.3548387,57.9371745 C34.1024194,57.9371745 33.8612903,58.0573106 33.7104839,58.2596875 L33.7104839,58.2596875 L32.0967742,60.4100431 C31.9927419,60.5495299 31.9354839,60.7212681 31.9354839,60.8938126 L31.9354839,60.8938126 L31.9354839,61.1623047 C31.9354839,61.6065664 32.2967742,61.9685872 32.7419355,61.9685872 C32.9943548,61.9685872 33.2354839,61.8484511 33.3862903,61.6460742 L33.3862903,61.6460742 L35,59.4957186 C35.1040323,59.3562318 35.1612903,59.1844936 35.1612903,59.0119491 L35.1612903,59.0119491 L35.1612903,58.743457 C35.1612903,58.2991953 34.8,57.9371745 34.3548387,57.9371745 Z M31.1290323,56.3246094 C30.8766129,56.3246094 30.6354839,56.4447455 30.4846774,56.6471224 L30.4846774,56.6471224 L28.8709677,58.7974779 C28.7669355,58.9369648 28.7096774,59.108703 28.7096774,59.2812475 L28.7096774,59.2812475 L28.7096774,59.5497396 C28.7096774,59.9940013 29.0709677,60.3560221 29.516129,60.3560221 C29.7685484,60.3560221 30.0096774,60.235886 30.1604839,60.0335091 L30.1604839,60.0335091 L31.7741935,57.8831535 C31.8782258,57.7436667 31.9354839,57.5719285 31.9354839,57.399384 L31.9354839,57.399384 L31.9354839,57.1308919 C31.9354839,56.6866302 31.5741935,56.3246094 31.1290323,56.3246094 Z M54.5741935,45.5059101 L50.675,47.4555013 L44.6137097,47.4555013 C43.8572581,47.4555013 43.1185484,47.6675536 42.4774194,48.068276 L42.4774194,48.068276 L38.0927419,50.8080241 C37.7717742,51.0079822 37.5806452,51.3530711 37.5806452,51.7304114 L37.5806452,51.7304114 L37.5806452,52.011804 C37.5806452,52.6116782 38.0685484,53.0994791 38.6693548,53.0994791 C38.866129,53.0994791 39.058871,53.0462645 39.2274194,52.9446729 L39.2274194,52.9446729 L42.2556452,51.1281183 C43.466129,50.402464 45.0967742,50.6056472 46.0919355,51.6005999 L46.0919355,51.6005999 L50.7306452,56.2383371 L53.3975806,55.5715415 L57.0379032,53.3881283 L54.5741935,45.5059101 Z M63.3870968,40.2505604 L55.5153226,43.1120571 L59.141129,54.7120442 L63.3870968,54.7120442 L63.3870968,40.2505604 Z M16.6129032,40.2312096 L16.6129032,54.7120442 L23.2782258,54.7120442 L26.8870968,43.1660781 L16.6129032,40.2312096 Z M30.7379032,16 L49.3193548,16.0209633 L55.5459677,24.9352233 L39.9975806,43.8909261 L24.4919355,24.8997468 L30.7379032,16 Z M35.4758065,25.6810346 L40.0016129,39.9586861 L44.5604839,25.69071 L35.4758065,25.6810346 Z M46.2524194,25.6931289 L42.05,38.8452099 L52.8322581,25.7003854 L46.2524194,25.6931289 Z M27.2040323,25.6713592 L37.9548387,38.8395659 L33.7830645,25.6786158 L27.2040323,25.6713592 Z M49.091129,18.5115702 L46.8556452,24.08137 L52.9862903,24.0886266 L49.091129,18.5115702 Z M40.0258065,18.222921 L35.9233871,24.0684695 L44.116129,24.0781449 L40.0258065,18.222921 Z M30.9596774,18.4898005 L27.0524194,24.0579878 L33.1830645,24.0652444 L30.9596774,18.4898005 Z M41.5766129,17.6246593 L45.4717742,23.2009095 L47.7072581,17.6319159 L41.5766129,17.6246593 Z M32.3467742,17.6141777 L34.5701613,23.1896215 L38.4782258,17.6214342 L32.3467742,17.6141777 Z" id="Combined-Shape" fill="url(#linearGradient-1)" fill-rule="nonzero"></path>
    </g>
</svg>