<?xml version="1.0" encoding="UTF-8"?>
<svg width="80px" height="80px" viewBox="0 0 80 80" version="1.1" xmlns="http://www.w3.org/2000/svg" xmlns:xlink="http://www.w3.org/1999/xlink">
    <!-- Generator: Sketch 64 (93537) - https://sketch.com -->
    <title>multi-mediacompatibility</title>
    <desc>Created with Sketch.</desc>
    <defs>
        <linearGradient x1="0%" y1="50.0007883%" x2="99.9987174%" y2="50.0007883%" id="linearGradient-1">
            <stop stop-color="#E29A64" offset="0%"></stop>
            <stop stop-color="#E85E8C" offset="100%"></stop>
        </linearGradient>
    </defs>
    <g id="multi-mediacompatibility" stroke="none" stroke-width="1" fill="none" fill-rule="evenodd">
        <g id="noun_Projector_2480091" transform="translate(9.000000, 16.000000)" fill="url(#linearGradient-1)" fill-rule="nonzero">
            <g id="Group">
                <path d="M38.8875015,0 C47.2148195,0 54.2964395,5.95375335 55.8044211,14.0250373 L59.9250024,14.0250006 C60.6290574,14.0250006 61.2000024,14.5958181 61.2000024,15.3000006 L61.2000024,42.0750017 C61.2000024,42.7790567 60.6290574,43.3500017 59.9250024,43.3500017 L56.1,43.35 L56.1000022,45.9000018 C56.1000022,46.6040569 55.5290572,47.1750019 54.8250022,47.1750019 L49.725002,47.1750019 C49.0209469,47.1750019 48.4500019,46.6040569 48.4500019,45.9000018 L48.45,43.35 L12.75,43.35 L12.7500005,45.9000018 C12.7500005,46.6040569 12.179183,47.1750019 11.4750005,47.1750019 L6.37500025,47.1750019 C5.67081773,47.1750019 5.1000002,46.6040569 5.1000002,45.9000018 L5.1,43.35 L1.27500005,43.3500017 C0.570817523,43.3500017 0,42.7790567 0,42.0750017 L0,15.3000006 C0,14.5958181 0.570817523,14.0250006 1.27500005,14.0250006 L21.9704859,14.0250373 C23.4786801,5.95375335 30.5601836,0 38.8875015,0 Z M10.2000004,43.3500017 L7.6500003,43.3500017 L7.6500003,44.6250018 L10.2000004,44.6250018 L10.2000004,43.3500017 Z M53.5500021,43.3500017 L51.000002,43.3500017 L51.000002,44.6250018 L53.5500021,44.6250018 L53.5500021,43.3500017 Z M21.6869859,16.5750007 L2.5500001,16.5750007 L2.55,25.5 L17.8500007,25.500001 C18.5541832,25.500001 19.1250008,26.070946 19.1250008,26.7750011 C19.1250008,27.4790561 18.5541832,28.0500011 17.8500007,28.0500011 L2.55,28.05 L2.55,30.6 L12.7500005,30.6000012 C13.454183,30.6000012 14.0250006,31.1709462 14.0250006,31.8750013 C14.0250006,32.5790563 13.454183,33.1500013 12.7500005,33.1500013 L2.55,33.15 L2.5500001,35.7000014 L2.5500001,35.7000014 L7.6500003,35.7000014 C8.35418283,35.7000014 8.92500035,36.2709464 8.92500035,36.9750015 C8.92500035,37.6790565 8.35418283,38.2500015 7.6500003,38.2500015 L2.5500001,38.2500015 L2.5500001,40.8000016 L58.6500023,40.8000016 L58.6500023,16.5750007 L56.0880172,16.5750007 L56.0912951,16.667908 C56.0920819,16.6926065 56.0928155,16.7172982 56.0934958,16.741982 L56.0970219,16.8942766 L56.0970219,16.8942766 L56.1000022,17.2125007 L56.1000022,17.2125007 C56.1000022,26.5943819 48.5549607,34.2472612 39.2140661,34.42195 L38.8875015,34.4250014 L38.8875015,34.4250014 C29.3965287,34.4250014 21.6750009,26.7034736 21.6750009,17.2125007 C21.6750009,17.0535973 21.6772288,16.894119 21.6817386,16.7342815 L21.6750009,17.2125007 C21.6750009,17.0320672 21.6778983,16.8508694 21.683672,16.6692616 C21.6847075,16.6378075 21.6858024,16.6064096 21.6869859,16.5750007 Z M38.8875015,2.5500001 C31.4685313,2.5500001 25.2104485,8.09637782 24.330571,15.4514706 C24.260446,16.0373331 24.225001,16.6298257 24.225001,17.2125007 C24.225001,25.2974035 30.8025987,31.8750013 38.8875015,31.8750013 C46.9724044,31.8750013 53.5500021,25.2974035 53.5500021,17.2125007 C53.5500021,16.6295707 53.5145571,16.0370781 53.4444321,15.4514706 C52.5645546,8.09637782 46.3064718,2.5500001 38.8875015,2.5500001 Z M38.8875015,6.37500025 C44.8632993,6.37500025 49.725002,11.2367029 49.725002,17.2125007 C49.725002,23.0919146 45.0188637,27.8928822 39.1757678,28.0462226 L38.8875015,28.0500011 L38.8875015,28.0500011 C32.9117038,28.0500011 28.0500011,23.1882984 28.0500011,17.2125007 C28.0500011,11.2367029 32.9117038,6.37500025 38.8875015,6.37500025 Z M38.8875015,8.92500035 C34.3177739,8.92500035 30.6000012,12.642773 30.6000012,17.2125007 C30.6000012,21.7822284 34.3177739,25.500001 38.8875015,25.500001 C43.4572292,25.500001 47.1750019,21.7822284 47.1750019,17.2125007 C47.1750019,12.642773 43.4572292,8.92500035 38.8875015,8.92500035 Z M7.01250028,19.1250008 C8.0687449,19.1250008 8.92500035,19.9812562 8.92500035,21.0375008 C8.92500035,22.0937455 8.0687449,22.9500009 7.01250028,22.9500009 C5.95625565,22.9500009 5.1000002,22.0937455 5.1000002,21.0375008 C5.1000002,19.9812562 5.95625565,19.1250008 7.01250028,19.1250008 Z M13.3875005,19.1250008 C14.4437452,19.1250008 15.3000006,19.9812562 15.3000006,21.0375008 C15.3000006,22.0937455 14.4437452,22.9500009 13.3875005,22.9500009 C12.3312559,22.9500009 11.4750005,22.0937455 11.4750005,21.0375008 C11.4750005,19.9812562 12.3312559,19.1250008 13.3875005,19.1250008 Z" id="Combined-Shape"></path>
            </g>
        </g>
    </g>
</svg>