<?xml version="1.0" encoding="UTF-8"?>
<svg width="940px" height="740px" viewBox="0 0 940 740" version="1.1" xmlns="http://www.w3.org/2000/svg" xmlns:xlink="http://www.w3.org/1999/xlink">
    <!-- Generator: Sketch 64 (93537) - https://sketch.com -->
    <title>about-m-health-app-development</title>
    <desc>Created with Sketch.</desc>
    <g id="about-m-health-app-development" stroke="none" stroke-width="1" fill="none" fill-rule="evenodd">
        <g id="healthcare" transform="translate(235.000000, 87.000000)" fill-rule="nonzero">
            <g id="Cross_icon" transform="translate(307.667207, 348.749301)">
                <circle id="Oval" fill="#FFFFFF" cx="52.2549878" cy="52.1509371" r="51.1498974"></circle>
                <path d="M52.2549878,103.930521 C23.6600169,103.921604 0.485607275,80.7351483 0.491549951,52.1401766 C0.497494914,23.5452049 23.6815417,0.368385004 52.2765139,0.371356219 C80.8714861,0.374327434 104.050717,23.5559648 104.050717,52.1509371 C104.024001,80.7432415 80.8472992,103.912719 52.2549878,103.930521 Z M52.2549878,1.6307259 C24.3534456,1.6307259 1.73477665,24.2493949 1.73477665,52.1509371 C1.73477665,80.0524793 24.3534456,102.671148 52.2549878,102.671148 C80.1565301,102.671148 102.775199,80.0524793 102.775199,52.1509371 C102.757398,24.2541577 80.1517601,1.64129547 52.2549878,1.6145801 L52.2549878,1.6307259 Z" id="Shape" fill="#E07B9E"></path>
                <rect id="Rectangle" fill="#E07B9E" x="44.0206294" y="23.1530786" width="16.468717" height="57.995717"></rect>
                <rect id="Rectangle" fill="#E07B9E" transform="translate(52.254988, 52.150937) rotate(90.000000) translate(-52.254988, -52.150937) " x="44.0206294" y="23.1530786" width="16.468717" height="57.995717"></rect>
            </g>
            <g id="Pulse_icon">
                <path d="M13.4494522,14.2567422 L12.3353919,13.0780988 C19.8094307,6.01273856 29.2932334,1.44291094 39.4764833,0 L39.7025246,1.6145801 C29.8532785,3.00763069 20.6797626,7.42513562 13.4494522,14.2567422 L13.4494522,14.2567422 Z" id="Path" fill="#E36F93"></path>
                <path d="M1.50155949,31.9041027 L0,31.3228539 C1.62985554,27.2097245 3.80183611,23.3327392 6.45832038,19.794752 L7.74998446,20.7635 C5.18452025,24.1849233 3.08344775,27.9310216 1.50155949,31.9041027 L1.50155949,31.9041027 Z" id="Path" fill="#E36F93"></path>
                <circle id="Oval" fill="#E36F93" cx="46.5483442" cy="49.4545883" r="44.3040778"></circle>
                <path d="M72.9467287,29.4983784 C69.5025921,25.9209839 64.7640491,23.879613 59.7983918,23.8340565 C54.8327344,23.7885 50.0575358,25.7425889 46.5483442,29.2561913 C43.0363795,25.7416482 38.2585255,23.7871852 33.2902427,23.8327379 C28.3219599,23.8782906 23.5807458,25.9200312 20.1338138,29.4983784 C13.1908718,37.0175567 13.4914257,48.6962214 20.8119374,55.8483255 L41.8014787,76.8378668 C43.0704699,78.1087641 44.7927358,78.8229072 46.5887087,78.8229072 C48.3846816,78.8229072 50.1069474,78.1087641 51.3759387,76.8378668 L72.3654799,55.8483255 C79.6665852,48.6732699 79.9243396,36.9884056 72.9467287,29.4983784 Z" id="Path" fill="#FFFFFF"></path>
                <path d="M46.5483442,68.8134037 L46.5483442,68.8134037 C45.8780802,68.7881458 45.2932372,68.3511203 45.0790763,67.7154892 L35.6660743,40.3645024 L31.7587905,51.8280211 C31.5221805,52.5084162 30.8634631,52.9497569 30.1442104,52.9097897 L14.5312209,52.9097897 C13.6395129,52.9097897 12.9166408,52.1869176 12.9166408,51.2952096 C12.9166408,50.4035017 13.6395129,49.6806295 14.5312209,49.6806295 L29.0624417,49.6806295 L34.1160774,34.8749301 C34.3338578,34.2123475 34.9524732,33.7645024 35.6499285,33.7645024 C36.3473838,33.7645024 36.9659993,34.2123475 37.1837796,34.8749301 L46.6936564,62.6941451 L55.9290545,40.9457512 C56.1701404,40.380921 56.7107896,40.0017678 57.3239635,39.9675123 C57.9371374,39.9332568 58.516654,40.2498308 58.8191529,40.7842932 L63.7920596,49.6806295 L78.5008843,49.6806295 C79.3925922,49.6806295 80.1154644,50.4035017 80.1154644,51.2952096 C80.1154644,52.1869176 79.3925922,52.9097897 78.5008843,52.9097897 L62.8394573,52.9097897 C62.2569748,52.908786 61.7201886,52.5941182 61.4347726,52.0863539 L57.6243636,45.2082427 L48.0337579,67.812364 C47.7860755,68.4152894 47.2001532,68.8101501 46.5483442,68.8134037 L46.5483442,68.8134037 Z" id="Path" fill="#E36F93"></path>
            </g>
            <g id="Character" transform="translate(34.803171, 17.760381)">
                <path d="M257.564993,490.833644 L89.0512682,490.833644 C83.484328,490.89597 78.1479509,488.612346 74.3503728,484.541317 C70.5527947,480.470289 68.6451327,474.988256 69.0950582,469.439163 L96.3491703,65.8748679 C97.3277865,53.928652 107.210793,44.6742464 119.195479,44.4803869 L287.709203,44.4803869 C293.276143,44.418061 298.612521,46.701685 302.410099,50.7727133 C306.207677,54.8437416 308.115339,60.3257745 307.665413,65.8748679 L280.411301,469.37458 C279.464152,481.34626 269.572488,490.636733 257.564993,490.833644 L257.564993,490.833644 Z" id="Path" fill="#1F1F20"></path>
                <path d="M294.845647,208.797905 L290.599302,208.797905 C289.044614,208.816366 287.554013,208.178921 286.493691,207.041764 C285.433369,205.904607 284.901592,204.373125 285.029,202.823552 L290.227948,125.662769 C290.479416,122.317199 293.25069,119.721323 296.60554,119.688601 L300.868031,119.688601 C302.421151,119.674942 303.908718,120.313904 304.967935,121.449877 C306.027153,122.585849 306.560657,124.114411 306.438332,125.662769 L301.223239,202.823552 C300.971771,206.169121 298.200497,208.764998 294.845647,208.797905 Z" id="Path" fill="#263238"></path>
                <path d="M93.8788627,157.324898 L89.6325171,157.324898 C88.3698166,157.336934 87.159542,156.820513 86.2946651,155.900431 C85.4297882,154.980349 84.9891446,153.740474 85.0794012,152.480944 L86.9684599,124.613292 C87.2082229,121.900615 89.4605817,119.80864 92.1835536,119.76935 L96.4137535,119.76935 C97.6777183,119.757658 98.8893424,120.2736 99.7567086,121.193069 C100.624075,122.112539 101.068539,123.352168 100.983015,124.613292 L99.0939564,152.480944 C98.8470444,155.190116 96.5988657,157.278208 93.8788627,157.324898 L93.8788627,157.324898 Z" id="Path" fill="#407BFF"></path>
                <path d="M90.5205361,207.086256 L86.2903363,207.086256 C85.0276358,207.098293 83.8173612,206.581871 82.9524843,205.661789 C82.0876074,204.741708 81.6469639,203.501833 81.7372204,202.242303 L83.5939875,174.37465 C83.8486898,171.662935 86.101959,169.576575 88.825227,169.530898 L93.0554269,169.530898 C94.3137932,169.52803 95.5168324,170.047908 96.3770758,170.966317 C97.2373191,171.884726 97.6774857,173.119161 97.5923969,174.37465 L95.7033382,202.226157 C95.4655854,204.929663 93.2337309,207.022461 90.5205361,207.086256 Z" id="Path" fill="#407BFF"></path>
                <path d="M253.996771,490.833644 L85.4830462,490.833644 C79.916106,490.89597 74.5797289,488.612346 70.7821508,484.541317 C66.9845727,480.470289 65.0769107,474.988256 65.5268362,469.439163 L92.7486567,65.8748679 C93.7285244,53.9165196 103.630123,44.6577915 115.627257,44.4803869 L284.140981,44.4803869 C289.707921,44.418061 295.044299,46.701685 298.841877,50.7727133 C302.639455,54.8437416 304.547117,60.3257745 304.097191,65.8748679 L276.810788,469.37458 C275.864881,481.334142 265.991807,490.620282 253.996771,490.833644 L253.996771,490.833644 Z" id="Path" fill="#B4B4B4"></path>
                <polygon id="Path" fill="#FFFFFF" opacity="0.810137649" points="67.2867285 464.918339 93.8950085 71.0415242 302.288861 71.0415242 275.680582 464.918339"></polygon>
                <polygon id="Path" fill="#FFFFFF" opacity="0.1" points="149.56573 464.918339 223.933289 71.0415242 270.6108 71.0415242 196.243241 464.918339"></polygon>
                <polygon id="Path" fill="#FFFFFF" opacity="0.1" points="114.303301 464.918339 188.67086 71.0415242 212.308313 71.0415242 137.956899 464.918339"></polygon>
                <path d="M178.902651,54.3790576 L219.541632,54.3790576 C220.226047,54.3723575 220.881757,54.6536603 221.348549,55.1542336 C221.815342,55.654807 222.050219,56.3285427 221.995793,57.0108232 L221.995793,57.0108232 C221.87922,58.4818159 220.661888,59.6221904 219.186424,59.6425887 L178.547443,59.6425887 C177.860237,59.6538732 177.20019,59.3745711 176.729812,58.8734488 C176.259433,58.3723265 176.022423,57.6959408 176.077135,57.0108232 L176.077135,57.0108232 C176.208812,55.5407904 177.426981,54.4061534 178.902651,54.3790576 Z" id="Path" fill="#131415"></path>
                <polygon id="Path" fill="#F7D2DF" points="170.442251 529.582271 156.185509 530.954665 151.051144 498.09796 165.307886 496.725566"></polygon>
                <path d="M154.570929,523.995824 L169.473503,519.345834 C170.011976,519.16733 170.596877,519.435116 170.813604,519.959374 L175.657345,531.810392 C175.892678,532.428258 175.863349,533.115743 175.57625,533.711322 C175.289151,534.3069 174.769589,534.758069 174.139639,534.958823 C168.730796,536.573403 163.612577,536.960902 157.105819,539.802563 C149.501147,543.031724 146.304278,547.358798 138.134503,547.358798 C132.273577,547.358798 130.949622,541.982247 133.419929,541.23954 C144.72199,537.81663 143.252722,535.007261 151.454789,526.175507 C152.287245,525.191383 153.361003,524.440308 154.570929,523.995824 L154.570929,523.995824 Z" id="Path" fill="#263238"></path>
                <polygon id="Path" fill="#000000" opacity="0.2" points="151.051144 498.09796 153.699055 515.034905 167.955798 513.678657 165.307886 496.725566"></polygon>
                <path d="M161.368311,82.9086879 C142.687619,80.712859 124.103802,82.1982727 105.455402,85.8149321 C99.078466,87.0527762 94.2379933,92.2786577 93.4913635,98.7315729 C91.4569926,116.524246 89.148143,156.614269 98.1575,216.256858 L174.494847,209.798538 C174.656305,198.964705 166.954758,149.606992 173.316203,98.392511 C173.818857,94.7491643 172.836359,91.0566515 170.58953,88.1448828 C168.342702,85.2331142 165.020033,83.3463637 161.368311,82.9086879 L161.368311,82.9086879 Z" id="Path" fill="#FFFFFF"></path>
                <path d="M116.967358,98.2149072 L119.712144,103.688334 C119.986253,104.237638 120.535906,104.595838 121.149121,104.62479 L124.087656,104.786248 C124.619805,104.808914 125.143775,104.649445 125.57307,104.334166 L130.658997,100.539903 L124.362135,95.9706409 L116.967358,98.2149072 Z" id="Path" fill="#263238"></path>
                <path d="M124.136094,103.220106 C123.059224,102.721158 121.839415,102.623803 120.697038,102.945627 C118.291314,111.422172 115.643402,135.753894 115.38507,146.539289 C122.682972,167.787164 125.07255,169.950701 125.07255,169.950701 L128.786084,144.359606 C128.786084,144.359606 124.620468,118.187263 124.136094,103.220106 Z" id="Path" fill="#263238"></path>
                <path d="M145.206364,46.0962617 C143.462617,56.623324 141.977204,75.8691187 149.517293,82.6665009 C143.995429,88.4789893 136.745964,95.2117883 124.313698,95.9706409 C111.881431,96.7294935 113.738198,88.1237816 116.967358,83.5222284 C128.560043,80.4222346 128.011086,71.7680853 125.734528,63.679039 L145.206364,46.0962617 Z" id="Path" fill="#F9CCDA"></path>
                <path d="M152.698016,81.7461903 C151.813324,81.3637947 150.894253,81.0664482 149.953229,80.8581712 C149.491746,80.7387501 149.006483,80.9354782 148.75844,81.3425452 C147.547505,83.393062 143.9147,92.4831479 124.297552,95.9706409 C127.526712,97.8758454 131.805349,103.785209 133.662116,106.62687 C139.539188,103.575313 154.829261,94.4529356 153.359993,82.6503551 C153.314798,82.2530915 153.063072,81.90927 152.698016,81.7461903 L152.698016,81.7461903 Z" id="Path" fill="#F5F5F5"></path>
                <path d="M117.064233,83.958165 C117.148153,83.5849029 117.037544,83.1945248 116.770299,82.9207607 C116.503053,82.6469967 116.115453,82.5270151 115.740277,82.6019177 C115.060567,82.7293589 114.391341,82.9074594 113.738198,83.1347291 C113.581974,83.1831806 113.43855,83.2659253 113.318407,83.3769161 C111.816848,84.765455 103.630926,96.5680355 111.300182,106.142496 C112.995491,103.543022 118.468918,97.6336584 124.297552,95.9222035 C118.791834,93.4680417 116.079339,88.8019053 117.064233,83.958165 Z" id="Path" fill="#F5F5F5"></path>
                <path d="M137.26263,53.2811432 L125.718382,63.679039 C126.279336,65.5566671 126.673743,67.4800744 126.897026,69.4269441 C131.337121,68.6680915 137.327213,63.6144558 137.666275,58.9160277 C137.867348,57.028665 137.730665,55.1205755 137.26263,53.2811432 L137.26263,53.2811432 Z" id="Path" fill="#EF9DB8" opacity="0.2"></path>
                <path d="M121.811098,14.2890338 C111.865285,18.1640261 111.203307,26.3499472 112.123618,35.2785751 C113.043928,44.207203 122.747555,38.2978399 124.894946,32.7113927 C127.042338,27.1249456 135.631904,8.89633633 121.811098,14.2890338 Z" id="Path" fill="#263238"></path>
                <path d="M153.569889,32.0978523 C150.808957,46.1608449 149.904792,54.508224 141.848037,60.9826902 C129.738687,70.6701708 113.302261,62.3066459 111.865285,47.7915708 C110.557475,34.7457637 115.288195,13.8853888 129.770978,9.83279278 C136.196281,7.93757146 143.144753,9.58388494 148.036669,14.1605145 C152.928584,18.737144 155.033483,25.5607069 153.569889,32.0978523 L153.569889,32.0978523 Z" id="Path" fill="#F9CCDA"></path>
                <path d="M153.004786,43.7389748 C141.153768,44.368661 143.672513,37.635862 145.819904,33.7931614 C147.967296,29.9504608 143.575638,23.5567236 146.449591,20.2468344 C141.331372,22.2812053 135.970966,20.602042 129.141292,15.8390307 C123.829323,12.1577881 117.209545,26.931196 110.751225,19.5202734 C104.648112,12.5291415 110.315288,1.98593352 124.95953,0.290624417 C139.603771,-1.40468468 142.30012,8.96091953 151.923017,8.04060888 C161.545915,7.12029822 158.203734,15.0317407 156.314675,16.6463208 C164.387576,17.195278 168.779233,24.9129709 153.004786,43.7389748 Z" id="Path" fill="#263238"></path>
                <path d="M154.522491,17.6473604 C158.293089,15.5791958 160.647381,11.6306592 160.674041,7.33019364 C163.790181,12.9166408 163.451119,19.3749612 154.522491,17.6473604 Z" id="Path" fill="#263238"></path>
                <path d="M123.780886,47.1134472 C126.380126,47.5538817 129.047034,46.9250039 131.175663,45.3697007 C131.300729,45.238679 131.300729,45.0324941 131.175663,44.9014725 C131.03924,44.7743184 130.827712,44.7743184 130.691289,44.9014725 C128.304201,46.5936501 125.260782,47.0660079 122.473076,46.1769907 C122.295852,46.133285 122.114352,46.2310162 122.053285,46.403032 C122.022847,46.4864477 122.0281,46.5787169 122.067811,46.6581383 C122.107522,46.7375598 122.178185,46.7971243 122.263181,46.8228228 C122.761357,46.9564103 123.2686,47.053542 123.780886,47.1134472 L123.780886,47.1134472 Z" id="Path" fill="#263238"></path>
                <path d="M156.443841,48.0176121 C154.244644,50.8908204 151.001988,52.7818863 147.418339,53.2811432 C142.703765,53.8946836 141.153768,49.5191715 143.123556,45.4181381 C144.899594,41.7530413 149.581876,37.0061758 153.892805,38.2816941 C158.203734,39.5572123 159.156336,44.4978274 156.443841,48.0176121 Z" id="Path" fill="#F9CCDA"></path>
                <path d="M151.777705,353.802936 C152.342808,311.630104 157.71936,211.235514 157.71936,211.235514 L98.2059374,216.256858 C98.2059374,216.256858 110.040809,319.686859 117.193399,362.74771 C124.620468,407.455433 147.402193,512.177098 147.402193,512.177098 L171.620894,510.126581 C171.620894,510.126581 162.772995,386.385163 151.777705,353.802936 Z" id="Path" fill="#263238"></path>
                <polygon id="Path" fill="#DD92B2" points="145.932925 512.855222 174.656305 510.417206 173.526099 501.149516 143.60793 503.151595"></polygon>
                <path d="M132.370452,32.937434 C132.208994,34.0837858 131.482433,34.9556591 130.755872,34.8749301 C130.029311,34.7942011 129.528791,33.7770156 129.690249,32.6306637 C129.851707,31.4843119 130.562122,30.6124386 131.304829,30.6931676 C132.047536,30.7738966 132.53191,31.7749363 132.370452,32.937434 Z" id="Path" fill="#263238"></path>
                <path d="M119.195479,31.8395195 C119.034021,33.0020172 118.30746,33.8577446 117.580899,33.7770156 C116.854337,33.6962866 116.353818,32.6952469 116.515276,31.5327493 C116.676734,30.3702516 117.387149,29.5145242 118.129856,29.611399 C118.872563,29.7082738 119.340791,30.6770218 119.195479,31.8395195 Z" id="Path" fill="#263238"></path>
                <path d="M122.909013,33.26035 C120.956432,36.2470791 118.616424,38.9617049 115.950173,41.3332505 C117.661628,43.1254344 121.213704,42.6249145 121.213704,42.6249145 L122.909013,33.26035 Z" id="Path" fill="#EF9DB8"></path>
                <path d="M110.815808,32.1947271 C110.589767,34.0353484 112.430388,35.5691995 115.013716,35.8921155 C117.597044,36.2150315 119.857456,34.8103469 120.180372,32.9697256" id="Path" fill="#FFC0D4"></path>
                <path d="M126.122027,33.906182 C125.76682,35.7306575 127.559004,37.3775292 130.077748,37.8619032 C132.596493,38.3462773 135.066801,37.0546132 135.405863,35.2462835" id="Path" fill="#FFC0D4"></path>
                <path d="M131.078788,38.2978399 C130.788386,38.3138989 130.497317,38.3138989 130.206915,38.2978399 C128.965078,38.1524561 127.798137,37.6281782 126.864734,36.7962804 C126.007459,36.0958653 125.568725,35.0051258 125.702236,33.906182 C124.876893,33.5501986 123.998741,33.3320241 123.102762,33.26035 C122.212493,33.0361724 121.280537,33.0361724 120.390268,33.26035 C120.164227,35.2301377 117.710065,36.586385 114.965279,36.2473232 C113.719674,36.1157381 112.548687,35.5896423 111.623098,34.7457637 C110.804351,34.0482411 110.386647,32.9888481 110.509038,31.9202485 L111.284036,32.0171233 C111.192632,32.8417321 111.505376,33.6596785 112.123618,34.2129522 C112.93124,34.9402506 113.948822,35.3925091 115.029862,35.5046163 C117.338712,35.8113865 119.405374,34.7296179 119.615269,33.1150378 C119.72829,32.2108729 121.617349,32.2593103 123.167346,32.4692057 C124.717343,32.6791011 126.557964,33.098892 126.396506,33.986911 C126.330346,34.8245783 126.673178,35.6425617 127.316817,36.1827399 C128.999476,37.6263429 131.379476,37.9309829 133.371492,36.9577384 C134.126778,36.5962423 134.661683,35.8930525 134.808468,35.0686797 L134.808468,34.6811805 L154.748532,37.2483628 L154.651658,38.0233613 L135.583467,35.5207621 C135.314156,36.4307217 134.675827,37.1861744 133.823574,37.6035704 C132.980844,38.0602302 132.037293,38.2988932 131.078788,38.2978399 L131.078788,38.2978399 Z" id="Path" fill="#263238"></path>
                <path d="M137.424088,27.867662 C137.544028,27.868312 137.661662,27.8347023 137.76315,27.7707776 C138.082572,27.5754672 138.19559,27.1657778 138.021483,26.8343212 C136.988788,24.9321665 135.087587,23.6586636 132.935555,23.4275572 C132.558158,23.4183745 132.242587,23.7124298 132.22514,24.089535 C132.211867,24.2678528 132.271296,24.443956 132.389902,24.5777687 C132.508509,24.7115814 132.676205,24.7917211 132.854826,24.7999503 L132.854826,24.7999503 C134.554815,24.9907785 136.049128,26.0132028 136.842839,27.5285906 C136.960412,27.7390017 137.183059,27.868879 137.424088,27.867662 L137.424088,27.867662 Z" id="Path" fill="#263238"></path>
                <path d="M114.932987,26.0431769 C115.163131,26.0645 115.388287,25.9671352 115.530382,25.7848441 C116.592522,24.4044871 118.245168,23.6081033 119.986623,23.6374526 C120.356225,23.6576599 120.679406,23.3906845 120.72933,23.0239122 C120.770329,22.6758566 120.539359,22.3538979 120.196518,22.2812053 C117.996036,22.218438 115.897308,23.2078381 114.545488,24.9452625 C114.416241,25.070013 114.34324,25.241932 114.34324,25.4215636 C114.34324,25.6011952 114.416241,25.7731142 114.545488,25.8978647 C114.658697,25.9812681 114.792852,26.0315765 114.932987,26.0431769 L114.932987,26.0431769 Z" id="Path" fill="#263238"></path>
                <path d="M201.345314,347.005554 C188.993776,283.520265 186.232844,233.871927 174.494847,209.766246 L116.854337,216.224566 C116.854337,216.224566 151.196456,310.822814 167.955798,351.203462 C185.377117,393.182545 219.783819,464.886047 219.783819,464.886047 L248.571782,464.886047 C248.571782,464.886047 221.689023,375.922684 201.345314,347.005554 Z" id="Path" fill="#263238"></path>
                <path d="M18.6071387,106.675307 L12.4232969,102.719586 C10.3254521,101.390288 7.5830005,101.713722 5.85195589,103.494584 L1.63790184,107.950825 C0.717005626,108.922953 0.239630021,110.232935 0.319158868,111.569631 C0.398687714,112.906328 1.02802462,114.150464 2.05769267,115.00654 L5.07695745,117.573723 C7.69624174,119.809306 10.7621614,121.460609 14.0701686,122.417463 L23.1925461,125.113812 L29.1664925,118.655491 C30.9425306,111.938838 18.6071387,106.675307 18.6071387,106.675307 Z" id="Path" fill="#F9CCDA"></path>
                <path d="M110.8481,103.656042 C108.587687,109.177906 106.375713,114.312271 103.969988,119.559656 C101.564264,124.807041 99.126248,129.973698 96.4137535,135.140354 C93.7012589,140.30701 90.8434521,145.409083 87.5820003,150.543448 C85.9674203,153.094485 84.1752363,155.645521 82.1570112,158.212704 C79.9699427,161.043359 77.4794017,163.625942 74.7299428,165.914251 C72.911091,167.40139 70.9020744,168.639379 68.7559964,169.595493 C68.0940186,169.853826 67.4643324,170.112159 66.7054797,170.3382 L65.5914194,170.64497 C65.0225254,170.783211 64.4455279,170.885669 63.8638187,170.951741 C61.8948273,171.178072 59.9007973,171.030163 57.9867472,170.515804 C55.5853241,169.852876 53.302608,168.817754 51.2216566,167.448102 C49.672357,166.47033 48.1891171,165.391611 46.7815613,164.218942 C42.1305274,160.140994 37.8412587,155.668054 33.9617954,150.850218 C30.1998237,146.34554 26.6477475,141.80857 23.2409835,137.174725 C19.8342195,132.54088 16.5404761,127.987764 13.1982953,123.127878 L31.0555512,111.599776 C36.6871733,120.679706 42.9170842,129.374612 49.7039513,137.626807 C52.8323098,141.456862 56.2782021,145.016178 60.0049723,148.26689 C60.7234537,148.852458 61.4784482,149.39174 62.2653844,149.88147 C62.8789249,150.285115 63.4763195,150.446573 63.0565287,150.301261 C62.4888142,150.14514 61.8942964,150.112111 61.3127822,150.204386 C61.0783904,150.220755 60.8459939,150.258587 60.6185127,150.317407 L60.4893463,150.317407 C60.4086173,150.317407 60.4086173,150.317407 60.3924715,150.317407 C60.7617233,150.086471 61.1125919,149.827368 61.4419486,149.542408 C62.9137758,148.201618 64.2446523,146.71385 65.4138156,145.102313 C66.8023545,143.277838 68.1586018,141.211175 69.4825575,139.063784 C72.1524731,134.597174 74.5883939,129.994793 76.7804595,125.27527 C79.0408716,120.431529 81.204409,115.587789 83.2387799,110.550299 C85.2731508,105.512809 87.1945011,100.39459 88.8090812,95.4862669 L110.8481,103.656042 Z" id="Path"></path>
                <g id="Group" transform="translate(12.916641, 95.260226)" fill="#DD92B2">
                    <path d="M97.9314588,8.3958165 C95.6710466,13.9176804 93.4590719,19.0520451 91.0533476,24.2994304 C88.6476232,29.5468158 86.2096073,34.7134721 83.4971127,39.8801284 C80.7846181,45.0467847 77.9268114,50.1488578 74.6653596,55.2832225 C73.0507795,57.834259 71.2585956,60.3852956 69.2403705,62.9524779 C67.0533019,65.7831337 64.562761,68.3657164 61.813302,70.654025 C59.9944502,72.1411645 57.9854337,73.3791531 55.8393557,74.3352676 C55.1773778,74.5936004 54.5476916,74.8519332 53.7888389,75.0779745 L52.6747787,75.3847447 C52.1058846,75.5229858 51.5288872,75.6254433 50.947178,75.6915149 C48.9781865,75.9178461 46.9841566,75.7699373 45.0701064,75.2555783 C42.6686833,74.5926503 40.3859672,73.5575285 38.3050158,72.1878761 C36.7557162,71.2101048 35.2724763,70.1313849 33.8649206,68.9587159 C29.2138867,64.8807682 24.924618,60.4078281 21.0451546,55.5899927 C17.283183,51.0853142 13.7311068,46.5483442 10.3243428,41.9144993 C6.91757876,37.2806544 3.62383536,32.7275385 0.281654563,27.8676525 L18.1389104,16.3395506 C23.7705326,25.4194804 30.0004435,34.1143863 36.7873105,42.3665817 C39.9156691,46.1966368 43.3615613,49.7559519 47.0883315,53.0066645 C47.8068129,53.5922321 48.5618074,54.1315139 49.3487437,54.6212446 C49.9622841,55.0248897 50.5596787,55.1863477 50.1398879,55.0410355 C49.5721734,54.8849146 48.9776557,54.8518858 48.3961414,54.9441607 C48.1617496,54.9605294 47.9293531,54.9983613 47.701872,55.0571813 L47.5727056,55.0571813 C47.4919766,55.0571813 47.4919766,55.0571813 47.4758308,55.0571813 C47.8450825,54.8262458 48.1959511,54.5671428 48.5253078,54.2821828 C49.997135,52.9413928 51.3280116,51.4536242 52.4971749,49.8420876 C53.8857137,48.0176121 55.241961,45.9509495 56.5659167,43.803558 C59.2358323,39.3369485 61.6717532,34.7345671 63.8638187,30.015044 C66.1242309,25.1713037 68.2877682,20.3275634 70.3221391,15.2900735 C72.35651,10.2525836 74.2778604,5.1343647 75.8924405,0.226041213 L97.9314588,8.3958165 Z" id="Path"></path>
                </g>
                <path d="M153.133952,78.8722377 C147.079277,90.1742984 125.524633,133.23515 122.909013,159.811138 C113.366844,135.624728 115.449653,82.0206689 115.449653,82.0206689 C108.648442,82.6800087 101.976915,84.3111888 95.638755,86.8644092 C91.4118777,88.5587121 88.5179747,92.5112073 88.179395,97.0524096 C86.3123987,124.771765 87.188527,152.607768 90.7950147,180.154847 C97.4793763,232.305784 103.711656,313.406142 103.711656,313.406142 C103.711656,313.406142 157.073528,311.178022 198.24532,302.491581 C193.20783,262.627598 176.028698,195.816274 175.883386,177.926727 C175.67349,154.902814 176.206302,109.888321 176.949009,91.094609 C177.200813,85.6120124 173.416481,80.765051 168.036527,79.6795277 C163.127538,78.7445267 158.115218,78.4730034 153.133952,78.8722377 L153.133952,78.8722377 Z" id="Path" fill="#407BFF"></path>
                <path d="M153.133952,78.8722377 C147.079277,90.1742984 125.524633,133.23515 122.909013,159.811138 C113.366844,135.624728 115.449653,82.0206689 115.449653,82.0206689 C108.648442,82.6800087 101.976915,84.3111888 95.638755,86.8644092 C91.4118777,88.5587121 88.5179747,92.5112073 88.179395,97.0524096 C86.3123987,124.771765 87.188527,152.607768 90.7950147,180.154847 C97.4793763,232.305784 103.711656,313.406142 103.711656,313.406142 C103.711656,313.406142 157.073528,311.178022 198.24532,302.491581 C193.20783,262.627598 176.028698,195.816274 175.883386,177.926727 C175.67349,154.902814 176.206302,109.85603 176.949009,91.0784632 C177.264037,85.7675116 173.71494,80.9990513 168.537046,79.7764025 C163.47,78.7579473 158.285356,78.4536076 153.133952,78.8722377 Z" id="Path" fill="#DE87A8"></path>
                <path d="M140.556373,304.671264 C131.288684,253.489075 123.926198,178.507975 123.328804,169.53091 L124.168385,169.53091 C124.76578,178.556413 132.112119,253.489075 141.379809,304.638972 L140.556373,304.671264 Z" id="Path" fill="#FFFFFF"></path>
                <path d="M135.922528,213.705821 L86.7262729,213.705821 C84.6831334,213.619085 82.9443836,212.189886 82.4637814,210.202183 L65.9950645,133.719524 C65.7496184,132.86974 65.9287331,131.95375 66.4761981,131.259014 C67.0236631,130.564277 67.8723782,130.175945 68.7559964,130.215885 L117.952252,130.215885 C119.997441,130.29725 121.739014,131.72877 122.214743,133.719524 L138.68346,210.202183 C138.928906,211.051967 138.749792,211.967956 138.202327,212.662693 C137.654862,213.357429 136.806147,213.745761 135.922528,213.705821 Z" id="Path" fill="#FFFFFF"></path>
                <path d="M134.404823,214.416237 L84.3528402,214.416237 C82.2788771,214.317781 80.5174458,212.865257 80.0257655,210.848015 L63.2987157,133.073692 C63.0565018,132.212032 63.239365,131.286525 63.7910811,130.581732 C64.3427973,129.876938 65.1973297,129.477217 66.0919393,129.505469 L116.143922,129.505469 C118.217885,129.603925 119.979317,131.056449 120.470997,133.073692 L137.214192,210.848015 C137.457392,211.71249 137.272658,212.641137 136.717129,213.346723 C136.1616,214.052309 135.302229,214.449795 134.404823,214.416237 L134.404823,214.416237 Z" id="Path" fill="#E38870"></path>
                <path d="M140.136582,170.467367 L127.68817,169.999138 C126.186178,169.947267 124.690025,170.211293 123.296512,170.774137 L116.838192,173.341319 C115.588831,173.824301 114.595247,174.80308 114.093565,176.04505 C113.591883,177.287019 113.626895,178.68129 114.19028,179.896514 L116.773608,185.466816 C117.843366,187.704852 120.341519,188.879659 122.747555,188.276185 L129.883999,186.516293 C129.883999,186.516293 143.252722,185.45067 143.737096,178.443392 L140.136582,170.467367 Z" id="Path" fill="#F9CCDA"></path>
                <path d="M174.510993,85.7987863 C177.594841,90.6425266 180.40421,95.066476 183.197434,99.8133415 C185.990657,104.560207 188.703152,109.258635 191.270334,114.166959 C193.837516,119.075282 196.275532,124.145064 198.487507,129.570053 C199.634499,132.41333 200.620946,135.318765 201.442189,138.272639 C202.475433,141.876607 202.954522,145.616764 202.863019,149.364805 L202.863019,149.994491 C202.874033,150.101859 202.874033,150.210039 202.863019,150.317407 C202.808726,150.902926 202.722487,151.485043 202.604686,152.061153 C202.47552,152.577819 202.346354,153.078339 202.184896,153.595005 C202.023438,154.11167 201.845834,154.483024 201.66823,154.91896 C201.050893,156.320856 200.258855,157.639111 199.310943,158.84239 C197.990838,160.495225 196.484734,161.990494 194.82241,163.298631 C192.283262,165.299402 189.583106,167.086906 186.74951,168.642891 C181.762877,171.369744 176.62565,173.811679 171.362562,175.956939 C166.29278,178.136622 161.206853,180.10641 156.120925,181.963177 C151.034998,183.819944 145.997508,185.612128 140.68554,187.388166 L134.53399,167.044457 C139.37773,165.720501 144.318345,164.089775 149.06521,162.442903 C153.812076,160.796032 158.752691,158.95541 163.338098,157.03406 C167.84188,155.171831 172.235345,153.053264 176.496926,150.68876 C178.29001,149.689661 180.001402,148.550532 181.615145,147.281996 C182.035472,146.963078 182.410287,146.588263 182.729205,146.167936 C182.60316,146.33074 182.499949,146.510001 182.422435,146.700748 C182.422435,146.84606 182.32556,146.942935 182.260977,147.120538 C182.114774,147.554266 182.022587,148.004359 181.986499,148.46064 C181.986499,148.557515 181.986499,148.557515 181.986499,148.46064 L181.986499,148.363765 C181.889903,146.831074 181.596882,145.317133 181.114625,143.859087 C180.463132,141.745064 179.692278,139.669687 178.805776,137.642953 C176.837522,133.174129 174.611024,128.823563 172.13756,124.613292 C169.618815,120.286217 166.938612,115.959142 164.064659,111.696651 C161.190707,107.43416 158.252171,103.171668 155.281344,99.3128217 L174.510993,85.7987863 Z" id="Path" fill="#E07B9E"></path>
                <g id="Group" opacity="0.7" transform="translate(134.010148, 85.572745)" fill="#DE87A8">
                    <path d="M40.5008448,0.226041213 C43.5846927,5.0697815 46.3940621,9.49373096 49.1872857,14.2405964 C51.9805092,18.9874619 54.6930038,23.68589 57.2601861,28.5942135 C59.8273685,33.502537 62.2653844,38.5723185 64.4773592,43.9973076 C65.6243515,46.8405848 66.6107978,49.7460195 67.4320408,52.6998943 C68.4652853,56.3038623 68.9443738,60.0440192 68.8528712,63.7920596 L68.8528712,64.4217458 C68.8638851,64.529114 68.8638851,64.6372936 68.8528712,64.7446618 C68.7985782,65.3301813 68.7123388,65.9122974 68.5945384,66.4884083 C68.465372,67.005074 68.3362056,67.5055938 68.1747476,68.0222594 C68.0132896,68.5389251 67.8356858,68.9102785 67.658082,69.3462151 C67.0407451,70.7481112 66.2487072,72.066366 65.300795,73.2696447 C63.9806904,74.9224803 62.4745861,76.4177493 60.8122624,77.7258858 C58.2731144,79.7266568 55.5729578,81.5141605 52.7393619,83.0701459 C47.7527286,85.7969994 42.6155022,88.2389339 37.3524136,90.3841938 C32.2826321,92.5638769 27.1967048,94.5336646 22.1107775,96.3904317 C17.0248502,98.2471988 11.9873603,100.039383 6.67539174,101.815421 L0.523841578,81.4717116 C5.36758187,80.147756 10.308197,78.5170301 15.0550624,76.8701584 C19.8019279,75.2232867 24.742543,73.3826654 29.3279505,71.461315 C33.8317321,69.5990854 38.2251974,67.4805187 42.4867783,65.1160153 C44.2798622,64.1169155 45.9912541,62.9777872 47.6049972,61.7092513 C48.0253243,61.3903331 48.4001393,61.0155181 48.7190574,60.595191 C48.5930118,60.7579945 48.4898006,60.9372561 48.4122872,61.1280024 C48.4122872,61.2733146 48.3154124,61.3701894 48.2508292,61.5477933 C48.1046265,61.9815204 48.0124386,62.4316139 47.9763506,62.8878947 C47.9763506,62.9847695 47.9763506,62.9847695 47.9763506,62.8878947 L47.9763506,62.7910199 C47.8797548,61.2583293 47.5867339,59.7443881 47.1044773,58.2863415 C46.452984,56.1723184 45.6821299,54.0969422 44.7956278,52.0702081 C42.8273741,47.6013843 40.6008761,43.250818 38.127412,39.0405467 C35.6086671,34.7134721 32.9284641,30.3863974 30.0545115,26.123906 C27.180559,21.8614145 24.2420232,17.598923 21.2711958,13.7400766 L40.5008448,0.226041213 Z" id="Path"></path>
                </g>
                <path d="M158.171442,141.80857 C157.89014,141.804358 157.643927,141.618533 157.562748,141.349166 C157.481569,141.079799 157.584103,140.788871 157.816235,140.629926 L160.351125,139.015346 C165.165312,135.981812 167.601415,130.286859 166.470384,124.710167 L161.416748,99.0221973 C160.62165,95.0951527 157.248029,92.2184762 153.244683,92.0539027 C149.241338,91.8893293 145.642984,94.479395 144.52824,98.3279278 L137.327213,123.515377 C135.730366,128.962885 137.656457,134.831044 142.170953,138.272639 L144.544386,140.080969 C144.764888,140.204233 144.89328,140.444743 144.873,140.696544 C144.852721,140.948346 144.687492,141.165208 144.450105,141.251594 C144.212718,141.33798 143.946757,141.27803 143.769388,141.098155 L141.395955,139.289825 C136.420881,135.549409 134.280008,129.120358 136.019403,123.144024 L143.22043,97.9727202 C144.467561,93.5233833 148.610614,90.5157041 153.227423,90.7080712 C157.844233,90.9004383 161.722719,94.2423483 162.595392,98.7800103 L167.665173,124.46798 C168.890627,130.5633 166.224486,136.782155 160.964666,140.097115 L158.445921,141.711695 C158.362518,141.763473 158.268868,141.796526 158.171442,141.80857 L158.171442,141.80857 Z" id="Path" fill="#263238"></path>
                <path d="M162.030289,99.5550087 L162.030289,99.5550087 L143.898554,98.7961561 C143.728622,98.7920238 143.567579,98.7193646 143.452031,98.5946944 C143.336483,98.4700242 143.276246,98.3039343 143.285014,98.1341782 C143.317764,97.7911905 143.602508,97.5272813 143.946991,97.5206378 L162.078726,98.2794904 C162.429079,98.296909 162.701469,98.5908034 162.692266,98.9414683 C162.688134,99.1114004 162.615475,99.2724436 162.490805,99.3879916 C162.366135,99.5035395 162.200045,99.563776 162.030289,99.5550087 L162.030289,99.5550087 Z" id="Path" fill="#263238"></path>
                <path d="M153.230827,92.0310655 C152.880355,92.0310655 152.593757,91.7517415 152.584995,91.4013792 C152.584995,88.172219 151.583955,82.5696261 148.548545,81.3263994 C148.391427,81.2657993 148.266123,81.1432831 148.202005,80.9875674 C148.137887,80.8318518 148.140591,80.6566268 148.209483,80.5029636 C148.270601,80.3458892 148.392138,80.219873 148.546899,80.1531135 C148.701659,80.0863539 148.876724,80.0844241 149.032919,80.147756 C153.521451,81.9883773 153.876659,90.4164854 153.876659,91.3690876 C153.885426,91.5388437 153.82519,91.7049336 153.709642,91.8296038 C153.594094,91.954274 153.433051,92.0269332 153.263119,92.0310655 L153.230827,92.0310655 Z" id="Path" fill="#263238"></path>
                <path d="M97.7700008,113.989355 L97.5923969,113.989355 C97.4236087,113.958418 97.2747574,113.859935 97.1802753,113.716688 C97.0857932,113.573441 97.0538653,113.397839 97.0918771,113.230502 C99.206977,102.622711 108.03873,85.7826405 115.788715,80.9389002 C116.089295,80.7579611 116.478838,80.8429522 116.676734,81.1326498 C116.866622,81.4316986 116.780179,81.8278928 116.482984,82.0206689 C108.975187,86.7675344 100.337183,103.01021 98.3512496,113.456543 C98.3009829,113.745538 98.0622679,113.96436 97.7700008,113.989355 L97.7700008,113.989355 Z" id="Path" fill="#263238"></path>
                <path d="M103.065823,115.652372 C102.064784,118.219555 99.8366633,119.769552 98.2220832,119.107574 C96.6075031,118.445596 95.9778168,115.878413 96.9788565,113.246648 C97.9798962,110.614882 100.208017,109.129469 101.822597,109.791447 C103.437177,110.453424 104.050717,113.020607 103.065823,115.652372 Z" id="Path" fill="#FFFFFF"></path>
                <path d="M145.690738,140.646072 C145.690738,141.857007 144.948031,142.809609 144.076158,142.777318 C143.204285,142.745026 142.80064,141.743987 142.80064,140.468468 C142.80064,139.19295 143.543346,138.304931 144.41522,138.337223 C145.287093,138.369514 145.739175,139.451283 145.690738,140.646072 Z" id="Path" fill="#FFFFFF"></path>
                <path d="M159.608418,141.227321 C159.608418,142.438256 158.865712,143.390858 157.993838,143.358567 C157.121965,143.326275 156.589154,142.325235 156.637591,141.1143 C156.686028,139.903365 157.380298,138.950763 158.171442,138.983055 C158.962586,139.015346 159.656856,140.032532 159.608418,141.227321 Z" id="Path" fill="#FFFFFF"></path>
            </g>
            <g id="Chat" transform="translate(245.416175, 107.459275)">
                <path d="M222.812053,29.1503467 L221.197473,29.0534719 C221.74083,22.1005947 219.341133,15.2388575 214.583031,10.1400141 C209.82493,5.04117067 203.145283,2.1733664 196.171482,2.23529648 L196.171482,0.620716384 C203.593893,0.548200883 210.705529,3.59634913 215.771531,9.02157599 C220.837532,14.4468028 223.392099,21.7502789 222.812053,29.1503467 Z" id="Path" fill="#E38870"></path>
                <rect id="Rectangle" fill="#E38870" transform="translate(223.059084, 42.682142) rotate(-85.995827) translate(-223.059084, -42.682142) " x="216.358366" y="41.872877" width="13.4014365" height="1.61853098"></rect>
                <path d="M196.171482,6.27174672 L84.765455,6.27174672 C72.1604985,6.4788991 61.7685941,16.2143257 60.7405032,28.7789933 L59.7394635,43.7784423 C59.2666986,49.6138288 61.273613,55.378469 65.2680304,59.6586409 C69.2624478,63.9388128 74.8749062,66.3386236 80.7290048,66.2695431 L192.135031,66.2695431 L213.721967,79.6059747 L217.161023,28.7789933 C217.633484,22.9421516 215.62699,17.1760603 211.633132,12.8934161 C207.639274,8.61077195 202.027059,6.20726151 196.171482,6.27174672 Z" id="Path" fill="#E38870"></path>
                <rect id="Rectangle" fill="#FFFFFF" x="87.3164916" y="27.7618078" width="103.187814" height="3.74582582"></rect>
                <rect id="Rectangle" fill="#FFFFFF" x="113.004461" y="41.049802" width="76.6118255" height="3.74582582"></rect>
                <path d="M28.5780677,86.5163775 L142.438256,86.5163775 C148.423813,86.4516062 154.160275,88.9088615 158.242927,93.2864223 C162.325578,97.6639831 164.377427,103.557626 163.896026,109.524144 L162.862694,124.862655 C161.802143,137.70789 151.175958,147.656847 138.288785,147.870421 L24.4285969,147.870421 L0.50051983,161.513623 L4.00415864,109.524144 C5.06471007,96.678909 15.6908953,86.7299511 28.5780677,86.5163775 Z" id="Path" fill="#FFFFFF"></path>
                <path d="M28.5780677,86.5163775 L142.438256,86.5163775 C148.423813,86.4516062 154.160275,88.9088615 158.242927,93.2864223 C162.325578,97.6639831 164.377427,103.557626 163.896026,109.524144 L162.862694,124.862655 C161.802143,137.70789 151.175958,147.656847 138.288785,147.870421 L24.4285969,147.870421 L0.50051983,161.513623 L4.00415864,109.524144 C5.06471007,96.678909 15.6908953,86.7299511 28.5780677,86.5163775 Z" id="Path" fill="#FF95B6" opacity="0.590987723"></path>
                <path d="M71.9133975,122.069431 L71.9133975,125.912132 L30.2087936,125.912132 L30.2087936,122.069431 L71.9133975,122.069431 Z M108.774261,122.069431 L108.774261,125.912132 L82.1336895,125.912132 L82.1336895,122.069431 L108.774261,122.069431 Z M136.658059,108.490813 L136.658059,112.333513 L31.1291042,112.333513 L31.1291042,108.490813 L136.658059,108.490813 Z" id="Combined-Shape" fill="#E07B9E"></path>
            </g>
        </g>
        <g id="Group-1" transform="translate(549.000000, 363.000000)" font-family="LucidaGrande, Lucida Grande" font-size="11" font-weight="normal">
            <text id="-"></text>
        </g>
    </g>
</svg>