<?xml version="1.0" encoding="UTF-8"?>
<svg width="524px" height="500px" viewBox="0 0 524 500" version="1.1" xmlns="http://www.w3.org/2000/svg" xmlns:xlink="http://www.w3.org/1999/xlink">
    <!-- Generator: Sketch 64 (93537) - https://sketch.com -->
    <title>bestpracticesforreachingnewcustomers</title>
    <desc>Created with Sketch.</desc>
    <defs>
        <linearGradient x1="99.9987174%" y1="50.0007883%" x2="0%" y2="50.0007883%" id="linearGradient-1">
            <stop stop-color="#E29A64" offset="0%"></stop>
            <stop stop-color="#E85E8C" offset="100%"></stop>
        </linearGradient>
        <path d="M275.416667,407.333333 L259.369048,407.333333 C218.580113,407.293969 185.522127,374.241309 185.47619,333.452381 L185.47619,230.059524 L228.940476,230.059524 L228.940476,333.452381 C228.960168,350.247526 242.573896,363.855928 259.369048,363.869048 L275.416667,363.869048 C292.207169,363.849367 305.813653,350.242884 305.833333,333.452381 L305.833333,230.059524 L349.297619,230.059524 L349.297619,333.452381 C349.251694,374.236667 316.200952,407.287409 275.416667,407.333333 L275.416667,407.333333 Z" id="path-2"></path>
        <linearGradient x1="0%" y1="50.0007883%" x2="99.9987174%" y2="50.0007883%" id="linearGradient-3">
            <stop stop-color="#E29A64" offset="0%"></stop>
            <stop stop-color="#E85E8C" offset="100%"></stop>
        </linearGradient>
        <path d="M292.857143,230.047619 L292.857143,333.440476 C292.844023,350.235628 279.235621,363.849356 262.440476,363.869048 L246.357143,363.869048 C229.557349,363.855918 215.941701,350.240271 215.928571,333.440476 L215.928571,230.047619 L172.464286,230.047619 L172.464286,333.440476 C172.503662,374.234053 205.563566,407.293957 246.357143,407.333333 L262.404762,407.333333 C303.19369,407.287397 336.24635,374.229411 336.285714,333.440476 L336.285714,230.047619 L292.857143,230.047619 Z" id="path-4"></path>
        <linearGradient x1="0%" y1="50.0007883%" x2="99.9987174%" y2="50.0007883%" id="linearGradient-5">
            <stop stop-color="#E29A64" offset="0%"></stop>
            <stop stop-color="#E85E8C" offset="100%"></stop>
        </linearGradient>
        <linearGradient x1="0%" y1="50.0007883%" x2="99.9987174%" y2="50.0007883%" id="linearGradient-6">
            <stop stop-color="#E29A64" offset="0%"></stop>
            <stop stop-color="#E85E8C" offset="100%"></stop>
        </linearGradient>
        <linearGradient x1="0%" y1="50.0007883%" x2="99.9987174%" y2="50.0007883%" id="linearGradient-7">
            <stop stop-color="#E29A64" offset="0%"></stop>
            <stop stop-color="#E85E8C" offset="100%"></stop>
        </linearGradient>
        <linearGradient x1="0%" y1="50.0007883%" x2="99.9987174%" y2="50.0007883%" id="linearGradient-8">
            <stop stop-color="#E29A64" offset="0%"></stop>
            <stop stop-color="#E85E8C" offset="100%"></stop>
        </linearGradient>
    </defs>
    <g id="bestpracticesforreachingnewcustomers" stroke="none" stroke-width="1" fill="none" fill-rule="evenodd">
        <g id="newcustomer" fill-rule="nonzero">
            <rect id="Rectangle" fill="#B3B3B3" x="231.869048" y="468.797619" width="58.6309524" height="27.4642857"></rect>
            <path d="M409.654762,306.309524 L409.654762,470.428571 C409.654762,475.644332 405.430042,479.874383 400.214286,479.880952 L122.166667,479.880952 C116.962454,479.842065 112.753173,475.632784 112.714286,470.428571 L112.714286,306.309524 C112.753173,301.105311 116.962454,296.89603 122.166667,296.857143 L400.214286,296.857143 C405.430042,296.863712 409.654762,301.093764 409.654762,306.309524 L409.654762,306.309524 Z" id="Path" fill="#A5A5A5"></path>
            <rect id="Rectangle" fill="#E2758F" x="121.904762" y="305.297619" width="278.559524" height="169.083333" rx="5.67857143"></rect>
            <path d="M409.654762,440.583333 L409.654762,470.428571 C409.654762,475.644332 405.430042,479.874383 400.214286,479.880952 L122.166667,479.880952 C116.962454,479.842065 112.753173,475.632784 112.714286,470.428571 L112.714286,440.583333 L409.654762,440.583333 Z" id="Path" fill="#CACACA"></path>
            <path d="M321.250019,495.702381 C321.250019,497.786598 319.560408,499.47619 317.47619,499.47619 L204.285714,499.47619 C202.201497,499.47619 200.511886,497.786598 200.511886,495.702381 L200.511886,495.702381 C200.508729,494.700534 200.905306,493.738805 201.613722,493.030389 C202.322138,492.321973 203.283868,491.925396 204.285714,491.928553 L317.47619,491.928553 C318.478037,491.925396 319.439766,492.321973 320.148183,493.030389 C320.856599,493.738805 321.253175,494.700534 321.250019,495.702381 L321.250019,495.702381 Z" id="Path" fill="#D0D0D0"></path>
            <rect id="Rectangle" fill="#E6EAED" x="145.785714" y="320.97619" width="229.404762" height="119.607143"></rect>
            <rect id="Rectangle" fill="#C7567A" x="145.785714" y="320.97619" width="229.404762" height="12.297619"></rect>
            <path d="M363,327.119048 C363,328.434011 361.934011,329.5 360.619048,329.5 C359.304084,329.5 358.238095,328.434011 358.238095,327.119048 C358.238095,325.804084 359.304084,324.738095 360.619048,324.738095 C361.934011,324.738095 363,325.804084 363,327.119048 Z" id="Path" fill="#FFFFFF"></path>
            <path d="M353.892857,327.119048 C353.892857,328.434011 352.826868,329.5 351.511905,329.5 C350.196941,329.5 349.130952,328.434011 349.130952,327.119048 C349.130952,325.804084 350.196941,324.738095 351.511905,324.738095 C352.826868,324.738095 353.892857,325.804084 353.892857,327.119048 Z" id="Path" fill="#FFFFFF"></path>
            <path d="M344.797619,327.119048 C344.797619,328.434011 343.73163,329.5 342.416667,329.5 C341.101703,329.5 340.035714,328.434011 340.035714,327.119048 C340.035714,325.804084 341.101703,324.738095 342.416667,324.738095 C343.73163,324.738095 344.797619,325.804084 344.797619,327.119048 Z" id="Path" fill="#FFFFFF"></path>
            <rect id="Rectangle" fill="#FFFFFF" x="209.107143" y="346.083333" width="153.892857" height="85.0238095"></rect>
            <rect id="Rectangle" fill="#FFFFFF" x="156.083333" y="365.166667" width="43.2738095" height="30.4761905"></rect>
            <rect id="Rectangle" fill="#FFFFFF" x="156.083333" y="346.630952" width="43.2738095" height="13.5238095"></rect>
            <rect id="Rectangle" fill="#FFFFFF" x="156.083333" y="400.642857" width="43.2738095" height="30.4761905"></rect>
            <g id="Path">
                <use fill="#E19D71" xlink:href="#path-2"></use>
                <use fill="url(#linearGradient-1)" xlink:href="#path-2"></use>
            </g>
            <g id="Path">
                <use fill="#E19D71" xlink:href="#path-4"></use>
                <use fill="url(#linearGradient-3)" xlink:href="#path-4"></use>
            </g>
            <rect id="Rectangle" fill="#F9AEBF" x="185.47619" y="205.761905" width="43.4642857" height="52.9166667"></rect>
            <rect id="Rectangle" fill="#F8DCE5" x="172.464286" y="205.761905" width="43.4642857" height="52.9166667"></rect>
            <rect id="Rectangle" fill="#F5B7C6" x="305.833333" y="205.761905" width="43.4642857" height="52.9166667"></rect>
            <rect id="Rectangle" fill="#F7E1E8" x="292.821429" y="205.761905" width="43.4642857" height="52.9166667"></rect>
            <path d="M371.630952,95.0952381 C371.630952,97.4818972 369.696183,99.4166667 367.309524,99.4166667 C364.922865,99.4166667 362.988095,97.4818972 362.988095,95.0952381 C362.988095,92.708579 364.922865,90.7738095 367.309524,90.7738095 C369.696183,90.7738095 371.630952,92.708579 371.630952,95.0952381 Z" id="Path" fill="#FFFFFF"></path>
            <path d="M134.452397,122.75 C134.452397,124.498937 133.398199,126.075434 131.78193,126.743606 C130.165661,127.411777 128.306007,127.039867 127.071029,125.801477 C125.836051,124.563088 125.469272,122.702415 126.1419,121.087995 C126.814528,119.473575 128.393927,118.423753 130.142857,118.428555 C131.28788,118.428555 132.385832,118.884239 133.194367,119.695008 C134.002903,120.505777 134.455544,121.604982 134.452397,122.75 L134.452397,122.75 Z" id="Path" fill="#FFFFFF"></path>
            <path d="M399.47619,119.119048 C395.178571,121.130952 393.52381,122.77381 391.52381,127.059524 C389.5,122.77381 387.869048,121.107143 383.571429,119.119048 C387.869048,117.095238 389.52381,115.452381 391.52381,111.166667 C393.535714,115.47619 395.238095,117.095238 399.47619,119.119048 Z" id="Path" fill="#FFFFFF"></path>
            <path d="M162.964286,85.7142857 C158.666667,87.7380952 157.011905,89.3690476 155.011905,93.6666667 C153,89.3690476 151.357143,87.7142857 147.059524,85.7142857 C151.357143,83.702381 153.011905,82.0595238 155.011905,77.7619048 C157.035714,82 158.666667,83.6428571 162.964286,85.7142857 Z" id="Path" fill="#FFFFFF"></path>
            <polygon id="Path" fill="url(#linearGradient-5)" points="309 185.035714 300.666667 185.035714 300.666667 147.428571 322.321429 150.52381 340.869048 113.178571 348.333333 116.892857 327.107143 159.619048 309 157.035714"></polygon>
            <polyline id="Path" fill="#5FBED9" points="327.035714 189.940476 332.464286 176.511905 349.52381 176.107143 377.666667 143.964286"></polyline>
            <polygon id="Path" fill="url(#linearGradient-6)" points="330.904762 191.5 323.178571 188.380952 329.630952 172.404762 347.595238 171.988095 374.535714 141.22619 380.809524 146.714286 351.452381 180.22619 335.309524 180.607143"></polygon>
            <polygon id="Path" fill="url(#linearGradient-7)" points="212.97619 185.035714 204.642857 185.035714 204.642857 157.035714 186.52381 159.619048 165.297619 116.892857 172.761905 113.178571 191.309524 150.52381 212.97619 147.428571"></polygon>
            <polyline id="Path" fill="#5FBED9" points="186.595238 189.940476 181.166667 176.511905 164.107143 176.107143 135.964286 143.964286"></polyline>
            <polygon id="Path" fill="url(#linearGradient-8)" points="182.72619 191.5 178.333333 180.607143 162.178571 180.22619 132.833333 146.714286 139.095238 141.22619 166.035714 171.988095 184 172.404762 190.452381 188.380952"></polygon>
            <path d="M130.142857,207.607143 C130.168452,226.972176 121.54104,245.33599 106.619048,257.678571 C105.690476,258.452381 104.738095,259.190476 103.77381,259.904762 L103.77381,259.904762 C103.25,260.297619 102.714286,260.678571 102.166667,261.095238 C100.340969,262.383145 98.4495251,263.575232 96.5,264.666667 C95.3095238,265.297619 94.1190476,265.857143 92.9285714,266.47619 C85.3561894,270.072102 77.1558704,272.158574 68.7857143,272.619048 L68.7261905,272.619048 L66.6666667,272.619048 L64.8214286,272.619048 C55.6609588,272.604831 46.6079972,270.644912 38.2619048,266.869048 C36.7261905,266.166667 35.2261905,265.416667 33.75,264.595238 C32.0952381,263.690476 30.5,262.72619 28.9880952,261.678571 C28.5714286,261.404762 28.1547619,261.130952 27.797619,260.833333 C26.3928571,259.845238 25.0238095,258.809524 23.702381,257.702381 C0.407645721,238.451405 -6.56780271,205.696377 6.86212401,178.624586 C20.2920507,151.552796 50.5924699,137.289791 80.0139577,144.190576 C109.435446,151.091361 130.23399,177.339585 130.226193,207.559524 L130.142857,207.607143 Z" id="Path" fill="#FAD7E1"></path>
            <path d="M74.7380952,207.619048 C68.952381,225.392857 74.7380952,232.619048 74.7380952,232.619048 C74.734233,232.650676 74.734233,232.682657 74.7380952,232.714286 L74.4880952,233.702381 C74.4880952,233.702381 74.4880952,233.702381 74.4880952,233.702381 C73.797619,235.904762 71.6666667,240.547619 65.9642857,240.547619 C61.2803713,240.670446 57.1304596,237.54691 55.952381,233.011905 C55.9064324,232.879903 55.8706144,232.74459 55.8452381,232.607143 C55.8452381,232.607143 60.4880952,226.464286 55.8452381,211.72619 C54.3928571,207.142857 76.1904762,203.02381 74.7380952,207.619048 Z" id="Path" fill="#DEA26D"></path>
            <path d="M98.8095238,240.178571 L74.7738095,232.607143 C74.7699473,232.638771 74.7699473,232.670752 74.7738095,232.702381 C74.7080185,233.035938 74.6245678,233.365767 74.5238095,233.690476 C74.5238095,233.690476 74.5238095,233.690476 74.5238095,233.690476 C73.8333333,235.892857 71.702381,240.535714 66,240.535714 C61.3063598,240.676775 57.1380779,237.555502 55.952381,233.011905 C55.9064324,232.879903 55.8706144,232.74459 55.8452381,232.607143 L32.6071429,240.333333 C29.9285714,241.214286 28.9285714,245.464286 28.3928571,250.72619 C28.0833333,253.916667 27.9404762,257.47619 27.7261905,260.880952 C28.1309524,261.178571 28.547619,261.452381 28.9166667,261.72619 C30.452381,262.77381 32.0595238,263.75 33.6785714,264.654762 C35.1428571,265.464286 36.6547619,266.22619 38.1904762,266.916667 C46.5372651,270.691798 55.5892155,272.655556 64.75,272.678571 L66.6666667,272.619048 C67.3571429,272.619048 68.0357143,272.619048 68.7261905,272.547619 L68.797619,272.547619 C77.1645771,272.082179 85.3608026,269.991676 92.9285714,266.392857 C94.1190476,265.821429 95.3095238,265.202381 96.5,264.571429 C98.4495251,263.479993 100.340969,262.287907 102.166667,261 C102.714286,260.619048 103.25,260.238095 103.77381,259.809524 C103.22619,251.047619 103.107143,241.345238 98.8095238,240.178571 Z" id="Path" fill="#253E7D"></path>
            <path d="M79.2738095,204.47619 C79.0238095,208.047619 80.4642857,211.035714 82.3571429,211.178571 C84.25,211.321429 86.0714286,208.535714 86.3214286,204.964286 C86.5714286,201.392857 85.1309524,198.404762 83.2380952,198.27381 C81.3452381,198.142857 79.5238095,200.916667 79.2738095,204.47619 Z" id="Path" fill="#DEA26D"></path>
            <path d="M52.6785714,204.47619 C52.9166667,208.047619 51.4880952,211.035714 49.5952381,211.178571 C47.702381,211.321429 45.8690476,208.535714 45.6309524,204.964286 C45.3928571,201.392857 46.8214286,198.404762 48.702381,198.27381 C50.5833333,198.142857 52.3809524,200.916667 52.6785714,204.47619 Z" id="Path" fill="#DEA26D"></path>
            <path d="M85.3452381,187.5 C85.3452381,191.416667 84.3809524,198.511905 82.6309524,201.261905 C79.4047619,206.345238 73.4880952,209.25 65.9642857,209.25 C57.9761905,209.25 51.4047619,206.571429 48.047619,200.238095 C46.5,197.321429 45.6666667,189.928571 45.6666667,185.357143 C45.6666667,174.202381 54.5714286,170.309524 66.2261905,170.309524 C77.8809524,170.309524 85.3452381,176.345238 85.3452381,187.5 Z" id="Path" fill="#000000"></path>
            <path d="M82.4880952,203.02381 C82.3859366,209.173538 80.6477996,215.185108 77.452381,220.440476 C74.297619,225.952381 70.3095238,228.77381 65.25,228.77381 C59.7738095,228.77381 55.8571429,225.452381 52.702381,219.25 C50.3214286,214.666667 47.9404762,209.404762 47.9404762,203.095238 C47.9404762,188.238095 55.6666667,176.202381 65.1904762,176.202381 C74.7142857,176.202381 82.4880952,188.166667 82.4880952,203.02381 Z" id="Path" fill="#FFBA80"></path>
            <path d="M65.3333333,175.22619 C64.297619,175.107143 47.4761905,173.654762 47.9880952,199.095238 L48.0952381,203.928571 C48.0952381,203.928571 50.1666667,204.22619 50.4761905,201.547619 C50.7857143,198.869048 51.25,192.154762 51.25,192.154762 C51.25,192.154762 51.9166667,187.071429 54.8214286,186.47619 C58.2404218,187.231495 61.7374748,187.575205 65.2380952,187.5 L65.3333333,187.5 C69.132595,187.541888 72.9238667,187.142386 76.6309524,186.309524 C77.7684811,187.510758 78.5227255,189.023391 78.797619,190.654762 C78.797619,190.654762 79.8452381,198.857143 80.1547619,201.583333 C80.4642857,204.309524 82.5357143,203.964286 82.5357143,203.964286 L82.6428571,199.130952 C83.1785714,173.654762 66.3690476,175.107143 65.3333333,175.22619 Z" id="Path" fill="#000000"></path>
            <path d="M51.6071429,185.369048 C51.6071429,185.369048 57.9047619,198.059524 81.9404762,194.202381 C81.9404762,194.202381 83.7261905,181.654762 70.2857143,179.380952 C56.8452381,177.107143 51.6071429,185.369048 51.6071429,185.369048 Z" id="Path" fill="#000000"></path>
            <path d="M523.404762,206.22619 C523.431616,225.588889 514.809047,243.951685 499.892857,256.297619 C498.964286,257.071429 498.011905,257.809524 497.047619,258.52381 L497.047619,258.52381 L495.440476,259.714286 C493.615969,261.003977 491.72443,262.196123 489.77381,263.285714 C488.583333,263.928571 487.392857,264.535714 486.202381,265.107143 C478.634612,268.705962 470.438387,270.796464 462.071429,271.261905 L462.011905,271.261905 L459.952381,271.345238 L458.095238,271.345238 C448.934768,271.331022 439.881807,269.371102 431.535714,265.595238 C430,264.892857 428.488095,264.142857 427.02381,263.321429 C425.369048,262.416667 423.77381,261.452381 422.261905,260.404762 C421.845238,260.130952 421.428571,259.845238 421.071429,259.547619 C419.666667,258.571429 418.301587,257.531746 416.97619,256.428571 C393.674461,237.181117 386.692508,204.423287 400.120915,177.347228 C413.549323,150.271169 443.852834,136.005114 473.277238,142.907255 C502.701642,149.809397 523.500463,176.062628 523.488101,206.285714 L523.404762,206.22619 Z" id="Path" fill="#FAD7E1"></path>
            <path d="M484.380952,201.904762 C484.380952,209.309524 483.190476,222.702381 480.916667,227.904762 C476.797619,237.511905 469.25,243 459.595238,243 C449.416667,243 441.02381,237.940476 436.738095,225.964286 C434.761905,220.452381 433.666667,206.5 433.654762,197.869048 C433.654762,176.797619 445.02381,169.440476 459.845238,169.440476 C474.666667,169.440476 484.380952,180.833333 484.380952,201.904762 Z" id="Path" fill="#000000"></path>
            <path d="M468,206.238095 C462.214286,224.011905 468,231.238095 468,231.238095 C467.996854,231.265784 467.996854,231.29374 468,231.321429 L467.75,232.309524 C467.75,232.309524 467.75,232.309524 467.75,232.309524 C467.059524,234.511905 464.928571,239.154762 459.22619,239.154762 C454.548562,239.258082 450.415786,236.126444 449.25,231.595238 C449.204051,231.463236 449.168233,231.327924 449.142857,231.190476 C449.142857,231.190476 453.785714,225.047619 449.142857,210.309524 C447.619048,205.738095 469.488095,201.642857 468,206.238095 Z" id="Path" fill="#DEA26D"></path>
            <path d="M492.035714,238.797619 L468,231.22619 C467.996854,231.253879 467.996854,231.281835 468,231.309524 C467.937082,231.64372 467.853589,231.973713 467.75,232.297619 C467.75,232.297619 467.75,232.297619 467.75,232.297619 C467.059524,234.5 464.928571,239.142857 459.22619,239.142857 C454.548562,239.246177 450.415786,236.114539 449.25,231.583333 C449.204051,231.451332 449.168233,231.316019 449.142857,231.178571 L425.904762,238.904762 C423.22619,239.785714 422.22619,244.035714 421.690476,249.297619 C421.380952,252.47619 421.238095,256.047619 421.02381,259.452381 C421.428571,259.75 421.845238,260.02381 422.214286,260.297619 C423.75,261.345238 425.357143,262.321429 426.97619,263.22619 C428.440476,264.035714 429.952381,264.797619 431.488095,265.47619 C439.835915,269.249588 448.88664,271.217137 458.047619,271.25 C458.666667,271.25 459.238095,271.25 459.880952,271.25 L461.940476,271.190476 L462.011905,271.190476 C470.377983,270.719321 478.573124,268.629095 486.142857,265.035714 C487.333333,264.464286 488.52381,263.845238 489.714286,263.214286 C491.663811,262.122851 493.555254,260.930764 495.380952,259.642857 C495.928571,259.261905 496.464286,258.880952 496.988095,258.452381 C496.488095,249.666667 496.428571,239.964286 492.035714,238.797619 Z" id="Path" fill="#FF3D3D"></path>
            <path d="M472.547619,203.095238 C472.297619,206.666667 473.678571,209.654762 475.619048,209.785714 C477.559524,209.916667 479.345238,207.142857 479.595238,203.583333 C479.845238,200.02381 478.464286,197.02381 476.511905,196.880952 C474.559524,196.738095 472.785714,199.535714 472.547619,203.095238 Z" id="Path" fill="#DEA26D"></path>
            <path d="M445.940476,203.095238 C446.190476,206.666667 444.809524,209.654762 442.869048,209.785714 C440.928571,209.916667 439.142857,207.142857 438.892857,203.583333 C438.642857,200.02381 440.02381,197.02381 441.97619,196.880952 C443.928571,196.738095 445.702381,199.535714 445.940476,203.095238 Z" id="Path" fill="#DEA26D"></path>
            <path d="M475.761905,201.642857 C475.65764,207.78853 473.919581,213.795722 470.72619,219.047619 C467.559524,224.547619 463.583333,227.380952 458.511905,227.380952 C453.035714,227.380952 449.130952,224.047619 445.97619,217.857143 C443.595238,213.27381 441.27381,208.011905 441.27381,201.702381 C441.27381,186.845238 448.988095,174.809524 458.511905,174.809524 C468.035714,174.809524 475.761905,186.785714 475.761905,201.642857 Z" id="Path" fill="#FFBA80"></path>
            <path d="M458.607143,173.809524 C457.571429,173.702381 440.75,172.25 441.261905,197.619048 L441.369048,202.452381 C441.369048,202.452381 443.440476,202.761905 443.75,200.071429 C444.059524,197.380952 444.511905,190.678571 444.511905,190.678571 C444.511905,190.678571 445.190476,185.607143 448.142857,185.011905 C451.56185,185.767209 455.058903,186.110919 458.559524,186.035714 L458.654762,186.035714 C462.454024,186.077602 466.245295,185.6781 469.952381,184.845238 C471.085574,186.047972 471.835601,187.560458 472.107143,189.190476 C472.107143,189.190476 473.154762,197.392857 473.464286,200.107143 C473.77381,202.821429 475.845238,202.488095 475.845238,202.488095 L475.952381,197.654762 C476.452381,172.27381 459.642857,173.72619 458.607143,173.809524 Z" id="Path" fill="#000000"></path>
            <path d="M447.821429,180.595238 C447.821429,180.595238 457.345238,199.869048 479.535714,217.690476 C479.535714,217.690476 489.321429,181.714286 467.154762,177.321429 C453.77381,174.666667 447.821429,180.595238 447.821429,180.595238 Z" id="Path" fill="#000000"></path>
            <path d="M456.178571,187.666667 C456.178571,187.666667 441.142857,198.440476 445.285714,216.988095 C445.285714,216.988095 432.369048,204.297619 436.630952,191.988095 C440.892857,179.678571 451.309524,176.309524 456.178571,187.666667 Z" id="Path" fill="#000000"></path>
            <path d="M321.238095,64.4285714 C321.26877,82.4823097 313.698148,99.7149827 300.380952,111.904762 C299.595238,112.630952 298.785714,113.333333 298,114.02381 C297.214286,114.714286 296.142857,115.52381 295.178571,116.22619 L295.178571,116.22619 L293.595238,117.416667 C291.787183,118.680888 289.911368,119.845324 287.97619,120.904762 C286.785714,121.547619 285.595238,122.095238 284.404762,122.714286 C277.550843,125.979325 270.16926,127.995049 262.607143,128.666667 L262.095238,128.666667 C261.571429,128.666667 261.047619,128.761905 260.511905,128.785714 L260.511905,128.785714 L258.464286,128.857143 L256.642857,128.857143 C254.988095,128.857143 253.345238,128.785714 251.714286,128.642857 L251.404762,128.642857 C244.124739,128.035336 237.002231,126.187268 230.345238,123.178571 C228.833333,122.488095 227.333333,121.738095 225.880952,120.928571 C224.246032,120.039683 222.65873,119.079365 221.119048,118.047619 L219.928571,117.202381 C218.539683,116.22619 217.190476,115.194444 215.880952,114.107143 L214.619048,113.035714 C192.211806,93.5278447 186.052415,61.2257282 199.708863,34.8412085 C213.365311,8.45668881 243.295039,-5.1659454 272.160473,1.86457213 C301.025907,8.89508967 321.339194,34.7550042 321.333335,64.4642857 L321.238095,64.4285714 Z" id="Path" fill="#FAD7E1"></path>
            <path d="M266.190476,66.9166667 C260.380952,84.7738095 266.190476,91.9880952 266.190476,91.9880952 C266.186614,92.0197238 266.186614,92.0517048 266.190476,92.0833333 L265.928571,93.0714286 L265.928571,93.0714286 C265.202381,95.3214286 263.095238,100 257.345238,100 C252.650337,100.108608 248.500579,96.9654503 247.333333,92.4166667 C247.287385,92.2846649 247.251567,92.1493521 247.22619,92.0119048 C247.22619,92.0119048 251.880952,85.8452381 247.22619,71.0595238 C245.77381,66.4047619 267.678571,62.297619 266.190476,66.9166667 Z" id="Path" fill="#DEA26D"></path>
            <path d="M270.738095,63.7619048 C270.5,67.3333333 271.928571,70.3452381 273.833333,70.4880952 C275.738095,70.6309524 277.571429,67.8571429 277.809524,64.2857143 C278.047619,60.7142857 276.619048,57.702381 274.72619,57.5714286 C272.833333,57.4404762 270.988095,60.1904762 270.738095,63.7619048 Z" id="Path" fill="#DEA26D"></path>
            <path d="M244.047619,63.7619048 C244.297619,67.3333333 242.916667,70.3452381 240.964286,70.4880952 C239.011905,70.6309524 237.22619,67.8571429 236.97619,64.2857143 C236.72619,60.7142857 238.166667,57.702381 240.059524,57.5714286 C241.952381,57.4404762 243.797619,60.1904762 244.047619,63.7619048 Z" id="Path" fill="#DEA26D"></path>
            <path d="M276.833333,46.7261905 C276.833333,50.6547619 275.869048,57.7738095 274.119048,60.5357143 C270.880952,65.6309524 264.928571,68.547619 257.345238,68.547619 C249.333333,68.547619 242.738095,65.8690476 239.369048,59.5119048 C237.821429,56.5833333 236.988095,50.7619048 236.988095,46.1785714 C236.988095,35.0833333 243.02381,36.1785714 243.02381,36.1785714 C245.404762,31.8452381 252.916667,31.3214286 258.285714,31.3214286 C269.928571,31.3214286 276.833333,35.5357143 276.833333,46.7261905 Z" id="Path" fill="#000000"></path>
            <path d="M273.964286,62.297619 C273.861241,68.463813 272.119085,74.4915078 268.916667,79.7619048 C265.75,85.2857143 261.77381,88.0952381 256.666667,88.0952381 C251.166667,88.0952381 247.25,84.75 244.071429,78.5714286 C241.690476,73.9642857 239.309524,68.6785714 239.309524,62.3452381 C239.309524,47.452381 247.059524,35.3690476 256.619048,35.3690476 C266.178571,35.3690476 273.964286,47.4047619 273.964286,62.297619 Z" id="Path" fill="#FFBA80"></path>
            <path d="M256.75,34.4047619 C255.714286,34.2857143 238.892857,32.8333333 239.345238,58.3571429 L239.452381,63.202381 C239.452381,63.202381 241.535714,63.5119048 241.833333,60.8214286 C242.130952,58.1309524 242.607143,51.3928571 242.607143,51.3928571 C242.607143,51.3928571 243.285714,46.297619 246.178571,45.6904762 C249.608444,46.4543309 253.117871,46.8020759 256.630952,46.7261905 L256.738095,46.7261905 C260.549126,46.7674161 264.352147,46.3679391 268.071429,45.5357143 C269.211058,46.7401877 269.965449,48.2572608 270.238095,49.8928571 C270.238095,49.8928571 271.285714,58.1190476 271.595238,60.8571429 C271.904762,63.5952381 273.97619,63.2380952 273.97619,63.2380952 L274.166667,58.3333333 C274.666667,32.8333333 257.797619,34.2857143 256.75,34.4047619 Z" id="Path" fill="#000000"></path>
            <path d="M242.97619,44.5952381 C242.97619,44.5952381 249.297619,57.3214286 273.416667,53.452381 C273.416667,53.452381 275.214286,40.8571429 261.714286,38.5833333 C248.214286,36.3095238 242.97619,44.5952381 242.97619,44.5952381 Z" id="Path" fill="#000000"></path>
            <path d="M300.380952,111.904762 C299.595238,112.630952 298.785714,113.333333 298,114.02381 C297.214286,114.714286 296.142857,115.52381 295.178571,116.22619 L295.178571,116.22619 L293.595238,117.416667 C291.787183,118.680888 289.911368,119.845324 287.97619,120.904762 C286.785714,121.547619 285.595238,122.095238 284.404762,122.714286 C277.550843,125.979325 270.16926,127.995049 262.607143,128.666667 L262.095238,128.666667 C261.571429,128.666667 261.047619,128.761905 260.511905,128.785714 L260.511905,128.785714 L258.464286,128.857143 L256.642857,128.857143 C254.988095,128.857143 253.345238,128.785714 251.714286,128.642857 L251.404762,128.642857 C244.124739,128.035336 237.002231,126.187268 230.345238,123.178571 C228.833333,122.488095 227.333333,121.738095 225.880952,120.928571 C224.246032,120.039683 222.65873,119.079365 221.119048,118.047619 L219.928571,117.202381 C218.539683,116.22619 217.190476,115.194444 215.880952,114.107143 L214.619048,113.035714 C215.261905,107.678571 216.47619,103.511905 219.285714,102.559524 L219.285714,102.559524 L241.071429,95.2380952 L241.071429,95.2380952 L246.035714,93.5833333 C246.035714,93.5833333 246.035714,93.75 246.154762,94.047619 C247.050406,97.3000277 249.252541,100.036535 252.238095,101.607143 C252.802739,101.888264 253.392657,102.115462 254,102.285714 C255.195683,102.628805 256.434691,102.797214 257.678571,102.785714 C258.349128,102.783719 259.018268,102.723974 259.678571,102.607143 C260.192969,102.509329 260.698593,102.369984 261.190476,102.190476 C265.190476,100.738095 266.880952,96.9047619 267.511905,94.8690476 C267.635263,94.4777459 267.738572,94.0804037 267.821429,93.6785714 C267.818991,93.6428987 267.818991,93.6071013 267.821429,93.5714286 L272.190476,94.952381 L272.190476,94.952381 L295.630952,102.380952 C298.416667,103.095238 299.690476,106.892857 300.380952,111.904762 Z" id="Path" fill="#C4D1F2"></path>
            <path d="M260.571429,104.083333 L259.440476,107.488095 L261.059524,120.440476 L262.083333,128.630952 C261.559524,128.630952 261.035714,128.72619 260.5,128.75 L260.5,128.75 L258.452381,128.821429 L256.630952,128.821429 C254.97619,128.821429 253.333333,128.75 251.702381,128.607143 L252.77381,119.845238 L254.238095,107.690476 L253.047619,103.952381 L252.297619,101.571429 L251.178571,98 L251.083333,97.7142857 L262.72619,97.7142857 L262.559524,98.2142857 L261.25,102.154762 L260.571429,104.083333 Z" id="Path" fill="#FF3D3D"></path>
            <polygon id="Path" fill="#FFFFFF" points="241.047619 95.2142857 247.892857 88.4642857 256.75 97.7619048 251.119048 107.095238"></polygon>
            <polygon id="Path" fill="#FFFFFF" points="272.464286 95.2142857 265.619048 88.4642857 256.75 97.7619048 262.392857 107.095238"></polygon>
            <path d="M261.904762,55.3095238 C261.72619,55.1309524 256.285714,48.7857143 256.285714,48.7857143 C256.285714,48.7857143 260.97619,53.047619 270.809524,53.8095238 L261.904762,55.3095238 Z" id="Path" fill="#FFBA80"></path>
        </g>
    </g>
</svg>