<?xml version="1.0" encoding="UTF-8"?>
<svg width="170px" height="73px" viewBox="0 0 170 73" version="1.1" xmlns="http://www.w3.org/2000/svg" xmlns:xlink="http://www.w3.org/1999/xlink">
    <!-- Generator: sketchtool 63.1 (101010) - https://sketch.com -->
    <title>75F49B10-E068-454C-BEA0-A25E75B8423B</title>
    <desc>Created with sketchtool.</desc>
    <g id="Services" stroke="none" stroke-width="1" fill="none" fill-rule="evenodd">
        <g transform="translate(-62.000000, -60.000000)" fill="#1F1F20" fill-rule="nonzero" id="wvelabs-logo-grey">
            <path d="M81.4014962,100.326353 L81.4014962,129.618392 L99.6638403,129.618392 L99.6638403,133 L77.9600997,133 L77.9600997,100.326353 L81.4014962,100.326353 Z M135.357273,100.326353 L149.765253,133 L146.048545,133 L141.597672,122.900873 L140.083458,119.519264 L134.072485,105.855739 L128.015628,119.519264 L126.501413,122.900873 L122.05054,133 L118.333832,133 L132.741812,100.326353 L135.357273,100.326353 Z M179.318038,100.326353 C180.572236,100.326353 181.749958,100.562456 182.851205,101.034662 C183.952452,101.506869 184.908396,102.154249 185.719036,102.976802 C186.529676,103.799356 187.17207,104.759001 187.646218,105.855739 C188.120366,106.952477 188.35744,108.110145 188.35744,109.328742 C188.35744,110.669199 188.089776,111.918262 187.554447,113.07593 C187.019119,114.233597 186.277307,115.23894 185.329011,116.091959 C186.73616,116.884047 187.867997,117.973169 188.724522,119.359323 C189.581047,120.745478 190.00931,122.291574 190.00931,123.99761 C190.00931,125.246673 189.772236,126.419573 189.298088,127.516311 C188.82394,128.613049 188.173899,129.565078 187.347963,130.372399 C186.522028,131.17972 185.558437,131.819484 184.45719,132.29169 C183.478304,132.711429 182.451078,132.944618 181.375512,132.991255 L180.969909,133 L167.112552,133 L167.204323,131.674775 L167.204323,100.326353 L179.318038,100.326353 Z M220.391022,100.326353 C221.798171,100.326353 223.128845,100.547223 224.383042,100.988965 C225.63724,101.430707 226.746135,102.032389 227.709726,102.794013 C228.673317,103.555636 229.445719,104.461968 230.026933,105.513008 C230.550025,106.458945 230.862504,107.460404 230.964369,108.517385 L230.990524,108.871768 L231.082294,110.24269 L227.503242,110.24269 L227.411471,109.00886 C227.350291,108.277702 227.128512,107.592241 226.746135,106.952477 C226.363757,106.312713 225.851372,105.756728 225.208978,105.284521 C224.566584,104.812315 223.832419,104.439119 223.006484,104.164935 C222.298539,103.92992 221.556883,103.795625 220.781516,103.762052 L220.391022,103.753658 L219.565087,103.753658 C218.586201,103.753658 217.676143,103.898367 216.834913,104.187784 C215.993682,104.477201 215.259518,104.873245 214.632419,105.375916 C214.00532,105.878588 213.508229,106.472654 213.141147,107.158115 C212.774065,107.843576 212.590524,108.567119 212.590524,109.328742 C212.590524,110.090366 212.75877,110.806292 213.095262,111.47652 C213.431754,112.146749 213.898254,112.733199 214.494763,113.235871 C215.091272,113.738542 215.794846,114.142203 216.605486,114.446852 C217.300321,114.70798 218.034485,114.868387 218.80798,114.928074 L219.198005,114.949523 L220.895761,114.949523 L220.895761,114.995221 C222.340297,115.023993 223.129978,115.066353 223.264801,115.122299 L223.281796,115.132313 L223.419451,115.132313 C224.673649,115.284638 225.828429,115.627368 226.883791,116.160505 C227.939152,116.693641 228.841563,117.36387 229.591022,118.171191 C230.340482,118.978512 230.929343,119.877227 231.357606,120.867338 C231.785869,121.857448 232,122.900873 232,123.99761 C232,125.246673 231.724688,126.419573 231.174065,127.516311 C230.623441,128.613049 229.866334,129.565078 228.902743,130.372399 C227.939152,131.17972 226.814963,131.819484 225.530175,132.29169 C224.373865,132.716676 223.143222,132.950418 221.838244,132.992917 L221.400499,133 L218.601496,133 C217.133167,133 215.756609,132.763897 214.47182,132.29169 C213.187032,131.819484 212.062843,131.17972 211.099252,130.372399 C210.135661,129.565078 209.378554,128.613049 208.82793,127.516311 C208.332369,126.529247 208.059811,125.480491 208.010254,124.370044 L208.001995,123.99761 L208.001995,123.814821 L208.04788,122.535293 L211.626933,122.535293 L211.581047,123.99761 C211.550457,124.759234 211.718703,125.482776 212.085786,126.168237 C212.452868,126.853698 212.957606,127.447765 213.6,127.950436 C214.242394,128.453108 214.991854,128.849152 215.848379,129.138569 C216.597839,129.391809 217.39414,129.534256 218.237282,129.565911 L218.601496,129.572694 L221.400499,129.572694 C222.348795,129.572694 223.251205,129.427986 224.107731,129.138569 C224.964256,128.849152 225.713716,128.453108 226.35611,127.950436 C226.998504,127.447765 227.503242,126.853698 227.870324,126.168237 C228.237406,125.482776 228.420948,124.759234 228.420948,123.99761 C228.420948,123.235987 228.237406,122.512445 227.870324,121.826983 C227.503242,121.141522 226.998504,120.53984 226.35611,120.021936 C225.713716,119.504032 224.964256,119.100371 224.107731,118.810954 C223.358271,118.557715 222.57368,118.415267 221.753959,118.383612 L221.400499,118.376829 L220.115711,118.376829 C219.167415,118.315899 218.142643,118.216888 217.041397,118.079796 C215.94015,117.942704 215.037739,117.660903 214.334165,117.234394 C210.755112,115.162778 208.965586,112.527561 208.965586,109.328742 C208.965586,108.110145 209.240898,106.952477 209.791521,105.855739 C210.342145,104.759001 211.099252,103.799356 212.062843,102.976802 C213.026434,102.154249 214.150623,101.506869 215.435412,101.034662 C216.591721,100.609676 217.822364,100.375934 219.127342,100.333436 L219.565087,100.326353 L220.391022,100.326353 Z M180.969909,118.376829 L170.599834,118.376829 L170.599834,129.572694 L180.969909,129.572694 C181.734663,129.572694 182.46118,129.427986 183.14946,129.138569 C183.837739,128.849152 184.434248,128.453108 184.938986,127.950436 C185.443724,127.447765 185.841396,126.853698 186.132003,126.168237 C186.42261,125.482776 186.567914,124.759234 186.567914,123.99761 C186.567914,123.235987 186.42261,122.512445 186.132003,121.826983 C185.841396,121.141522 185.443724,120.53984 184.938986,120.021936 C184.434248,119.504032 183.837739,119.100371 183.14946,118.810954 C182.46118,118.521538 181.734663,118.376829 180.969909,118.376829 Z M179.318038,103.753658 L170.599834,103.753658 L170.599834,114.949523 L179.318038,114.949523 C180.082793,114.949523 180.80931,114.804815 181.497589,114.515398 C182.185869,114.225981 182.790025,113.822321 183.310058,113.304417 C183.830091,112.786513 184.235411,112.192446 184.526018,111.522218 C184.816625,110.851989 184.961928,110.120831 184.961928,109.328742 C184.961928,108.567119 184.816625,107.843576 184.526018,107.158115 C184.235411,106.472654 183.830091,105.878588 183.310058,105.375916 C182.790025,104.873245 182.185869,104.477201 181.497589,104.187784 C180.80931,103.898367 180.082793,103.753658 179.318038,103.753658 Z M65.5331671,60 L72.6453865,85.1792724 L79.9411471,60 L82.6942643,60 L90.2653366,85.1792724 L97.1481296,60 L100.635411,60 L91.7336658,92.6736475 L88.9805486,92.6736475 L81.363591,67.3572829 L74.0219451,92.6736475 L71.2688279,92.6736475 L62,60 L65.5331671,60 Z M122.930341,60 L133.988695,86.8700765 L144.863508,60 L148.488445,60 L135.273483,92.6736475 L132.703907,92.6736475 L119.305403,60 L122.930341,60 Z M188.770407,60 L188.770407,63.4273057 L170.599834,63.4273057 L170.599834,74.6231709 L183.860682,74.6231709 L183.860682,78.0504766 L170.599834,78.0504766 L170.599834,89.2463418 L188.770407,89.2463418 L188.770407,92.6736475 L167.158437,92.6736475 L167.158437,60 L188.770407,60 Z"></path>
        </g>
    </g>
</svg>