<?xml version="1.0" encoding="UTF-8"?>
<svg width="170px" height="73px" viewBox="0 0 170 73" version="1.1" xmlns="http://www.w3.org/2000/svg" xmlns:xlink="http://www.w3.org/1999/xlink">
    <!-- Generator: sketchtool 63.1 (101010) - https://sketch.com -->
    <title>708F3175-8C4C-4A2C-9AF4-9CF80E20CC4A</title>
    <desc>Created with sketchtool.</desc>
    <g id="Home" stroke="none" stroke-width="1" fill="none" fill-rule="evenodd">
        <g id="WveLabs_Home" transform="translate(-62.000000, -60.000000)" fill="#FFFFFF" fill-rule="nonzero">
            <g id="HEADER">
                <g id="TopNavigation" transform="translate(60.000000, 57.000000)">
                    <g id="Group-13">
                        <path d="M21.4014962,43.3263525 L21.4014962,72.6183917 L39.6638403,72.6183917 L39.6638403,76 L17.9600997,76 L17.9600997,43.3263525 L21.4014962,43.3263525 Z M75.3572734,43.3263525 L89.7652535,76 L86.0485452,76 L81.5976724,65.9008726 L80.083458,62.5192643 L74.0724854,48.855739 L68.0156276,62.5192643 L66.5014131,65.9008726 L62.0505403,76 L58.3338321,76 L72.7418121,43.3263525 L75.3572734,43.3263525 Z M119.318038,43.3263525 C120.572236,43.3263525 121.749958,43.5624558 122.851205,44.0346624 C123.952452,44.5068689 124.908396,45.1542489 125.719036,45.9768023 C126.529676,46.7993556 127.17207,47.7590012 127.646218,48.855739 C128.120366,49.9524768 128.35744,51.1101445 128.35744,52.3287421 C128.35744,53.6691994 128.089776,54.918262 127.554447,56.0759297 C127.019119,57.2335974 126.277307,58.2389403 125.329011,59.0919587 C126.73616,59.8840471 127.867997,60.9731687 128.724522,62.3593234 C129.581047,63.7454781 130.00931,65.2915738 130.00931,66.9976104 C130.00931,68.2466729 129.772236,69.4195731 129.298088,70.5163109 C128.82394,71.6130487 128.173899,72.5650781 127.347963,73.372399 C126.522028,74.1797199 125.558437,74.8194836 124.45719,75.2916902 C123.478304,75.7114293 122.451078,75.9446177 121.375512,75.9912554 L120.969909,76 L107.112552,76 L107.204323,74.6747751 L107.204323,43.3263525 L119.318038,43.3263525 Z M160.391022,43.3263525 C161.798171,43.3263525 163.128845,43.5472233 164.383042,43.988965 C165.63724,44.4307066 166.746135,45.0323891 167.709726,45.7940126 C168.673317,46.5556361 169.445719,47.461968 170.026933,48.5130085 C170.550025,49.4589448 170.862504,50.4604035 170.964369,51.5173846 L170.990524,51.871768 L171.082294,53.2426903 L167.503242,53.2426903 L167.411471,52.0088602 C167.350291,51.2777017 167.128512,50.5922406 166.746135,49.9524768 C166.363757,49.3127131 165.851372,48.756728 165.208978,48.2845214 C164.566584,47.8123149 163.832419,47.4391193 163.006484,47.1649349 C162.298539,46.9299196 161.556883,46.7956252 160.781516,46.7620516 L160.391022,46.7536582 L159.565087,46.7536582 C158.586201,46.7536582 157.676143,46.8983667 156.834913,47.1877836 C155.993682,47.4772005 155.259518,47.8732447 154.632419,48.3759162 C154.00532,48.8785877 153.508229,49.472654 153.141147,50.1581152 C152.774065,50.8435763 152.590524,51.5671186 152.590524,52.3287421 C152.590524,53.0903656 152.75877,53.8062917 153.095262,54.4765203 C153.431754,55.146749 153.898254,55.7331991 154.494763,56.2358706 C155.091272,56.7385421 155.794846,57.1422025 156.605486,57.4468519 C157.300321,57.70798 158.034485,57.8683872 158.80798,57.9280736 L159.198005,57.9495234 L160.895761,57.9495234 L160.895761,57.9952208 C162.340297,58.0239933 163.129978,58.0663527 163.264801,58.1222991 L163.281796,58.1323131 L163.419451,58.1323131 C164.673649,58.2846378 165.828429,58.6273683 166.883791,59.1605048 C167.939152,59.6936412 168.841563,60.3638699 169.591022,61.1711908 C170.340482,61.9785117 170.929343,62.8772274 171.357606,63.8673379 C171.785869,64.8574484 172,65.9008726 172,66.9976104 C172,68.2466729 171.724688,69.4195731 171.174065,70.5163109 C170.623441,71.6130487 169.866334,72.5650781 168.902743,73.372399 C167.939152,74.1797199 166.814963,74.8194836 165.530175,75.2916902 C164.373865,75.7166761 163.143222,75.9504183 161.838244,75.9929169 L161.400499,76 L158.601496,76 C157.133167,76 155.756609,75.7638967 154.47182,75.2916902 C153.187032,74.8194836 152.062843,74.1797199 151.099252,73.372399 C150.135661,72.5650781 149.378554,71.6130487 148.82793,70.5163109 C148.332369,69.5292469 148.059811,68.4804913 148.010254,67.3700443 L148.001995,66.9976104 L148.001995,66.8148208 L148.04788,65.5352933 L151.626933,65.5352933 L151.581047,66.9976104 C151.550457,67.7592339 151.718703,68.4827762 152.085786,69.1682373 C152.452868,69.8536985 152.957606,70.4477648 153.6,70.9504363 C154.242394,71.4531078 154.991854,71.849152 155.848379,72.1385689 C156.597839,72.3918087 157.39414,72.5342561 158.237282,72.5659111 L158.601496,72.5726943 L161.400499,72.5726943 C162.348795,72.5726943 163.251205,72.4279859 164.107731,72.1385689 C164.964256,71.849152 165.713716,71.4531078 166.35611,70.9504363 C166.998504,70.4477648 167.503242,69.8536985 167.870324,69.1682373 C168.237406,68.4827762 168.420948,67.7592339 168.420948,66.9976104 C168.420948,66.2359869 168.237406,65.5124446 167.870324,64.8269835 C167.503242,64.1415224 166.998504,63.5398398 166.35611,63.0219358 C165.713716,62.5040319 164.964256,62.1003714 164.107731,61.8109545 C163.358271,61.5577147 162.57368,61.4152673 161.753959,61.3836123 L161.400499,61.3768291 L160.115711,61.3768291 C159.167415,61.3158992 158.142643,61.2168882 157.041397,61.0797959 C155.94015,60.9427037 155.037739,60.660903 154.334165,60.2343939 C150.755112,58.162778 148.965586,55.5275607 148.965586,52.3287421 C148.965586,51.1101445 149.240898,49.9524768 149.791521,48.855739 C150.342145,47.7590012 151.099252,46.7993556 152.062843,45.9768023 C153.026434,45.1542489 154.150623,44.5068689 155.435412,44.0346624 C156.591721,43.6096765 157.822364,43.3759342 159.127342,43.3334356 L159.565087,43.3263525 L160.391022,43.3263525 Z M120.969909,61.3768291 L110.599834,61.3768291 L110.599834,72.5726943 L120.969909,72.5726943 C121.734663,72.5726943 122.46118,72.4279859 123.14946,72.1385689 C123.837739,71.849152 124.434248,71.4531078 124.938986,70.9504363 C125.443724,70.4477648 125.841396,69.8536985 126.132003,69.1682373 C126.42261,68.4827762 126.567914,67.7592339 126.567914,66.9976104 C126.567914,66.2359869 126.42261,65.5124446 126.132003,64.8269835 C125.841396,64.1415224 125.443724,63.5398398 124.938986,63.0219358 C124.434248,62.5040319 123.837739,62.1003714 123.14946,61.8109545 C122.46118,61.5215376 121.734663,61.3768291 120.969909,61.3768291 Z M119.318038,46.7536582 L110.599834,46.7536582 L110.599834,57.9495234 L119.318038,57.9495234 C120.082793,57.9495234 120.80931,57.804815 121.497589,57.515398 C122.185869,57.2259811 122.790025,56.8223207 123.310058,56.3044167 C123.830091,55.7865127 124.235411,55.1924464 124.526018,54.5222177 C124.816625,53.8519891 124.961928,53.1208305 124.961928,52.3287421 C124.961928,51.5671186 124.816625,50.8435763 124.526018,50.1581152 C124.235411,49.472654 123.830091,48.8785877 123.310058,48.3759162 C122.790025,47.8732447 122.185869,47.4772005 121.497589,47.1877836 C120.80931,46.8983667 120.082793,46.7536582 119.318038,46.7536582 Z M5.53316707,3 L12.6453865,28.1792724 L19.9411471,3 L22.6942643,3 L30.2653366,28.1792724 L37.1481296,3 L40.6354114,3 L31.7336658,35.6736475 L28.9805486,35.6736475 L21.363591,10.3572829 L14.0219451,35.6736475 L11.2688279,35.6736475 L2,3 L5.53316707,3 Z M62.9303408,3 L73.9886949,29.8700765 L84.8635078,3 L88.4884455,3 L75.2734829,35.6736475 L72.7039069,35.6736475 L59.3054032,3 L62.9303408,3 Z M128.770407,3 L128.770407,6.42730568 L110.599834,6.42730568 L110.599834,17.6231709 L123.860682,17.6231709 L123.860682,21.0504766 L110.599834,21.0504766 L110.599834,32.2463418 L128.770407,32.2463418 L128.770407,35.6736475 L107.158437,35.6736475 L107.158437,3 L128.770407,3 Z" id="wvelabs-logo-white"></path>
                    </g>
                </g>
            </g>
        </g>
    </g>
</svg>