<?xml version="1.0" encoding="UTF-8"?>
<svg width="545px" height="526px" viewBox="0 0 545 526" version="1.1" xmlns="http://www.w3.org/2000/svg" xmlns:xlink="http://www.w3.org/1999/xlink">
    <!-- Generator: Sketch 64 (93537) - https://sketch.com -->
    <title>benefits-of-hyperledger-fabric</title>
    <desc>Created with Sketch.</desc>
    <g id="Page-1" stroke="none" stroke-width="1" fill="none" fill-rule="evenodd">
        <g id="benefits-of-hyperledger-fabric" fill-rule="nonzero">
            <path d="M377.98337,0.939088 L378.027157,0.99941 C378.045472,1.023147 378.063375,1.047206 378.080855,1.071579 C378.083403,1.077347 378.086862,1.082512 378.090303,1.087693 L521.81713,204.622161 C525.76391,202.77615 530.385579,202.606412 534.56125,204.336036 C540.466852,206.782223 544.315413,212.545594 544.315413,218.937774 C544.305878,227.655673 537.243084,234.72165 528.525189,234.735117 C527.030402,234.736128 525.569907,234.526512 524.178091,234.129216 L420.38258,459.941944 C420.296394,460.128461 420.189336,460.301487 420.064806,460.458618 C420.057885,460.466523 420.051212,460.47487 420.044486,460.483177 C420.017702,460.51686 419.990007,460.549223 419.961562,460.580837 C419.942252,460.602083 419.922089,460.623829 419.90153,460.645242 C419.88182,460.665727 419.862192,460.685425 419.842261,460.704787 C419.819066,460.727608 419.795042,460.750161 419.77055,460.772277 C419.752083,460.788437 419.733778,460.804433 419.715254,460.820162 C419.685027,460.846557 419.653578,460.872113 419.621456,460.89697 C419.610855,460.904254 419.60055,460.912074 419.590188,460.919816 C419.565098,460.9396 419.539254,460.958242 419.513008,460.976437 C419.451833,461.018666 419.389013,461.058018 419.32475,461.094451 C419.29772,461.109011 419.270872,461.123669 419.243756,461.137849 C419.218918,461.151338 419.1937,461.16391 419.168295,461.176049 C418.898368,461.30575 418.603899,461.389273 418.296371,461.418171 L172.710971,484.12959 C172.22202,492.414344 165.354913,498.984502 156.94859,498.996767 C150.554983,499.00252 144.787725,495.155542 142.337001,489.250273 C140.068517,483.784131 141.055354,477.551272 144.798588,473.067364 L0.469523,268.676081 L0.4255,268.61167 C0.266208,268.371916 0.147463,268.105208 0.076313,267.822124 C0.073652,267.807003 0.070116,267.792337 0.066711,267.777644 C0.054552,267.730334 0.044757,267.681926 0.036356,267.63312 C0.035408,267.620481 0.033495,267.608836 0.031662,267.597179 C0.02508,267.56328 0.020275,267.52813 0.016195,267.492802 C-0.022551,267.157266 0.006126,266.822474 0.095611,266.506126 C0.099354,266.495337 0.102434,266.484673 0.105585,266.474022 C0.118642,266.42782 0.133725,266.381864 0.150099,266.336376 C0.157619,266.316751 0.164938,266.2971 0.172508,266.277513 C0.185245,266.243674 0.199019,266.210302 0.213498,266.177228 C0.22054,266.161597 0.227642,266.145741 0.234915,266.129936 L104.184106,39.996161 C101.662229,38.29913 99.628394,35.875432 98.411657,32.944505 C95.960549,27.040174 97.308281,20.240665 101.826191,15.717663 C106.344102,11.194661 113.142089,9.839273 119.049177,12.28373 C123.696588,14.206911 127.07219,18.184013 128.300884,22.906002 L375.665268,0.02544 C375.752226,0.01368 375.839697,0.006441 375.927317,-8.57177156e-08 L375.76897,0.017776 C376.621869,-0.085713 377.461179,0.268024 377.98337,0.939088 Z M279.603,412.706 L170.788732,475.586973 C171.385442,476.673586 171.855809,477.832716 172.184968,479.042117 L406.208,457.4 L279.603,412.706 Z M218.612,391.175 L167.480215,471.420026 C168.174664,472.042348 168.810437,472.723052 169.381322,473.452844 L276.452,411.594 L218.612,391.175 Z M11.174,274.974 L148.684419,469.711026 C149.415436,469.263637 150.177894,468.878949 150.963462,468.558622 L126.201,339.631 L11.174,274.974 Z M129.101,341.261 L153.416533,467.784272 C156.544726,467.070249 159.884269,467.308365 162.979149,468.589487 L163.169,468.671 L213.958,388.96 L129.101,341.261 Z M418.587,317.986 L384.527367,348.262536 C386.537726,350.942702 387.689832,354.251017 387.689832,357.747688 C387.684834,366.46858 380.620492,373.539173 371.899608,373.551891 C366.683585,373.556611 361.884425,370.997113 358.962822,366.847729 L285.396,409.359 L415.583138,455.29162 L418.587,317.986 Z M517.392983,230.15897 L423.755,313.393 L420.88,446.622 L519.553512,231.948429 C518.783381,231.418186 518.060013,230.81957 517.392983,230.15897 Z M289.407,329.748 L222.525,387.176 L282.245,408.247 L357.676498,364.668223 C357.539025,364.385796 357.409375,364.098091 357.287878,363.805327 C355.854984,360.352602 355.720925,356.593972 356.759956,353.163437 L289.407,329.748 Z M202.765,299.627 L219.207326,383.294318 L283.827,327.808 L202.765,299.627 Z M117.862955,282.782699 L127.843,334.718 L213.971,383.147 L197.176,297.684 L127.710557,273.535023 C125.984522,277.908221 122.365522,281.327472 117.862955,282.782699 Z M355.223,273.235 L290.529,328.784 L357.178989,351.95762 C357.957436,349.979015 359.141407,348.141621 360.70485,346.576794 C362.846519,344.43323 365.500283,343.001279 368.328551,342.348207 L355.223,273.235 Z M420.799,216.929 L356.343,272.274 L369.586111,342.1109 C372.352216,341.703904 375.234137,342.028439 377.930353,343.144584 C379.793901,343.916032 381.4529,345.017699 382.850958,346.365186 L418.663,314.522 L420.799,216.929 Z M111.867,170.432 L6.880879,266.700447 L124.944,333.087 L115.394738,283.365216 C114.62107,283.48301 113.828965,283.544757 113.022691,283.546183 C106.63019,283.551936 100.864,279.705426 98.414042,273.801037 C95.964083,267.896649 97.31309,261.097769 101.831752,256.576066 C104.591049,253.814913 108.200269,252.235111 111.937318,251.980441 L111.867,170.432 Z M248.535,151.426 L184.518,206.775 L202.479,298.172 L284.949,326.844 L354.126,267.446 L338.207,183.488 L248.535,151.426 Z M425.9,214 L423.83,309.929 L515.727931,228.218446 C515.010374,227.230113 514.4006,226.148592 513.919058,224.98753 C513.294303,223.481159 512.916796,221.916614 512.776083,220.346551 L425.9,214 Z M180.067,210.623 L125.376076,257.9109 C127.554181,260.650902 128.810217,264.097276 128.809383,267.748863 C128.807641,269.339694 128.571034,270.875528 128.132359,272.323544 L196.89,296.228 L180.067,210.623 Z M339.602,183.987 L355.245,266.485 L418.478643,212.19067 L339.602,183.987 Z M162.962,123.581 L114.407,168.104 L114.470526,252.011386 C116.021299,252.155321 117.566178,252.530415 119.054421,253.146771 C121.176439,254.025606 123.033086,255.332725 124.541048,256.943418 L179.784,209.179 L162.962,123.581 Z M108.827436,42.126417 L10.167,256.761 L111.861,163.574 L111.758581,42.639152 C110.757612,42.560145 109.776964,42.386832 108.827436,42.126417 Z M411.546,147.283 L425.552,208.853 L513.148425,215.252558 C513.468114,213.91783 513.961738,212.623215 514.622208,211.404413 L411.546,147.283 Z M381.357,14.569 L410.75,143.783 L516.013951,209.268754 C516.419794,208.744175 516.861731,208.241265 517.339022,207.763759 L517.597223,207.511243 L517.597223,207.511243 L381.357,14.569 Z M324.342505,103.516009 L338.498,178.164 L420.038,207.319 L405.502,143.523 L332.828781,98.31557 C330.668623,100.871026 327.712456,102.732055 324.342505,103.516009 Z M167.981833,122.623705 L184.234,205.33 L247.152,150.931 L167.981833,122.623705 Z M309.237292,98.941686 L252.975,147.586 L337.103,177.666 L323.088471,103.754572 C322.33304,103.866801 321.560167,103.925625 320.773811,103.927078 C316.321961,103.931496 312.173645,102.067756 309.237292,98.941686 Z M114.312302,42.634029 L114.402,161.246 L161.388,118.192 L118.431846,41.728328 C117.130255,42.204945 115.748518,42.515411 114.312302,42.634029 Z M257.353,70.663 L170.814,118.21 L251.592,147.092 L308.400627,97.975356 C307.495423,96.839983 306.737971,95.568177 306.162997,94.183098 C304.899045,91.138312 304.645321,87.855485 305.315608,84.769568 L257.353,70.663 Z M374.263867,6.429235 L260.468,68.951 L306.041535,82.365874 C306.819491,80.376397 308.007029,78.528801 309.57773,76.956361 C314.095665,72.433424 320.893628,71.078092 326.800678,73.522567 C332.707728,75.967043 336.56009,81.729727 336.560812,88.12259 C336.558614,91.08825 335.74021,93.863044 334.317992,96.234346 L404.704,140.022 L374.263867,6.429235 Z M122.882699,39.215814 L165.633,115.31 L250.501,68.648 L127.75964,32.54988 C126.746051,35.184282 125.047789,37.478957 122.882699,39.215814 Z M364.016,6.236 L128.770347,27.991795 C128.720152,28.709305 128.622101,29.413627 128.479364,30.101588 L253.616,66.935 L364.016,6.236 Z" id="Combined-Shape" fill="#7A7A7A" opacity="0.400000006"></path>
            <g id="hyperledger" transform="translate(31.000000, 72.000000)">
                <g id="Smartphone">
                    <path d="M278.389995,99.8899983 C279.33954,99.8993043 280.250453,99.5145474 280.905806,98.8273549 C281.56116,98.1401624 281.902303,97.2120344 281.847995,96.2639984 L280.825995,75.5999987 C280.694968,73.5839297 279.038061,72.0062133 277.017995,71.9739988 L274.217995,71.9739988 L271.669995,20.5239997 C270.997688,9.13297146 261.659343,0.185250239 250.249996,-0.000870614176 L89.1239985,-0.000870614176 C83.7755148,-0.036067287 78.6507077,2.14352775 74.9667193,6.02113112 C71.2827308,9.89873448 69.3682618,15.1283703 69.6779988,20.4679997 L72.2399988,72.1559988 C70.7333925,72.6929989 69.7593572,74.1568999 69.8459988,75.7539987 L72.2959988,125.369998 C72.4118173,127.026751 73.5184514,128.448776 75.0959987,128.967998 L85.9039985,347.857994 C86.6065223,359.245739 95.9715497,368.165103 107.379998,368.313061 L268.449995,368.313061 C273.797195,368.351959 278.922156,366.175542 282.606604,362.300108 C286.291051,358.424674 288.205911,353.196355 287.895995,347.857994 L277.479995,136.877998 L280.279995,136.877998 C281.228397,136.879535 282.135457,136.489906 282.787275,135.800993 C283.439092,135.11208 283.777971,134.184863 283.723995,133.237998 L282.701995,112.531998 C282.584224,110.509757 280.919576,108.92467 278.893995,108.905998 L276.093995,108.905998 L275.645995,99.8899983 L278.389995,99.8899983 Z" id="Path" fill="#C06A88"></path>
                    <path d="M110.739998,368.313061 L271.865995,368.313061 C277.213195,368.351959 282.338156,366.175542 286.022604,362.300108 C289.707051,358.424674 291.621911,353.196355 291.311995,347.857994 L275.141995,20.4679997 C274.439871,9.07782583 265.076748,0.154171435 253.665996,-0.000870614176 L92.5399984,-0.000870614176 C87.1915147,-0.036067287 82.0667076,2.14352775 78.3827192,6.02113112 C74.6987308,9.89873448 72.7842618,15.1283703 73.0939988,20.4679997 L89.2639985,347.857994 C89.9665223,359.245739 99.3315496,368.165103 110.739998,368.313061 Z" id="Path" fill="#DE87A8"></path>
                    <path d="M110.739998,368.313061 L271.865995,368.313061 C277.213195,368.351959 282.338156,366.175542 286.022604,362.300108 C289.707051,358.424674 291.621911,353.196355 291.311995,347.857994 L275.141995,20.4679997 C274.439871,9.07782583 265.076748,0.154171435 253.665996,-0.000870614176 L92.5399984,-0.000870614176 C87.1915147,-0.036067287 82.0667076,2.14352775 78.3827192,6.02113112 C74.6987308,9.89873448 72.7842618,15.1283703 73.0939988,20.4679997 L89.2639985,347.857994 C89.9665223,359.245739 99.3315496,368.165103 110.739998,368.313061 Z" id="Path" fill="#E36F93" opacity="0.4"></path>
                    <path d="M97.5099983,339.780382 L282.309995,339.780382 C283.14459,339.789586 283.945354,339.450591 284.51938,338.844675 C285.093407,338.238759 285.388654,337.420853 285.333995,336.587994 L270.269995,32.4239994 C270.167061,30.6459053 268.704964,29.2511019 266.923995,29.231633 L82.1799986,29.231633 C81.3442883,29.2226926 80.5423314,29.5612708 79.9661427,30.1666673 C79.3899539,30.7720637 79.0914124,31.5897696 79.1419987,32.4239994 L94.1639984,336.587994 C94.2735869,338.363002 95.7317995,339.7541 97.5099983,339.780382 Z" id="Path" fill="#FFFFFF"></path>
                    <path d="M193.003997,9.46399984 L154.139997,9.46399984 C153.481332,9.45898352 152.850042,9.72716138 152.396373,10.2047071 C151.942705,10.6822528 151.707232,11.3264572 151.745997,11.9839998 L151.745997,11.9839998 C151.833694,13.3865087 152.986881,14.4847818 154.391997,14.5039998 L193.199997,14.5039998 C193.859798,14.5087738 194.492317,14.2410188 194.948158,13.7639759 C195.403999,13.2869331 195.642741,12.6429032 195.607997,11.9839998 L195.607997,11.9839998 C195.521754,10.5972367 194.392842,9.50474078 193.003997,9.46399984 L193.003997,9.46399984 Z" id="Path" fill="#B4637F" opacity="0.7"></path>
                    <polygon id="Path" fill="#E38870" opacity="0.6" points="335.089994 276.457995 173.557997 276.457995 161.979997 42.1539993 323.525994 42.1539993"></polygon>
                    <path d="M316.021995,212.407996 C315.947927,212.421377 315.872062,212.421377 315.797995,212.407996 C315.727152,212.383027 315.664303,212.339515 315.615995,212.281996 C315.561698,212.230835 315.518769,212.168827 315.489995,212.099996 C315.477192,212.025879 315.477192,211.950114 315.489995,211.875996 C315.489995,211.551253 315.753251,211.287996 316.077995,211.287996 C316.402738,211.287996 316.665995,211.551253 316.665995,211.875996 C316.678797,211.950114 316.678797,212.025879 316.665995,212.099996 C316.63722,212.168827 316.594291,212.230835 316.539995,212.281996 C316.491687,212.339515 316.428837,212.383027 316.357995,212.407996 C316.248502,212.441511 316.131487,212.441511 316.021995,212.407996 L316.021995,212.407996 Z" id="Path" fill="#FFFFFF"></path>
                    <path d="M317.631995,256.199996 C317.624385,256.047715 317.677674,255.898663 317.780106,255.785725 C317.882539,255.672787 318.025696,255.605243 318.177995,255.597996 L318.177995,255.597996 C318.497724,255.581962 318.77153,255.824653 318.793995,256.143996 L318.793995,256.143996 C318.8016,256.299989 318.746834,256.452599 318.641777,256.568161 C318.53672,256.683724 318.390004,256.752744 318.233995,256.759996 L318.233995,256.759996 C317.914481,256.767963 317.647115,256.519251 317.631995,256.199996 L317.631995,256.199996 Z M317.407995,251.775996 C317.400389,251.620003 317.455155,251.467393 317.560212,251.35183 C317.665269,251.236267 317.811985,251.167247 317.967995,251.159996 L317.967995,251.159996 C318.122618,251.152402 318.273753,251.207588 318.387103,251.31303 C318.500452,251.418471 318.566405,251.565228 318.569995,251.719996 L318.569995,251.719996 C318.577605,251.872277 318.524315,252.021328 318.421883,252.134266 C318.31945,252.247204 318.176293,252.314748 318.023995,252.321996 L318.023995,252.321996 C317.868002,252.329601 317.715391,252.274835 317.599829,252.169778 C317.484266,252.064721 317.415246,251.918006 317.407995,251.761996 L317.407995,251.775996 Z M317.197995,247.337996 C317.190385,247.185715 317.243674,247.036663 317.346106,246.923725 C317.448539,246.810787 317.591696,246.743243 317.743995,246.735996 L317.743995,246.735996 C317.897244,246.724432 318.048511,246.776358 318.162349,246.879606 C318.276186,246.982853 318.342588,247.128348 318.345995,247.281996 L318.345995,247.281996 C318.357504,247.436615 318.305973,247.589314 318.203129,247.705342 C318.100286,247.821371 317.954877,247.89086 317.799995,247.897996 L317.799995,247.897996 C317.644035,247.901753 317.492974,247.843379 317.380068,247.735724 C317.267161,247.628069 317.201664,247.479958 317.197995,247.323996 L317.197995,247.337996 Z M316.973995,242.899996 C316.965711,242.585602 317.206287,242.320351 317.519995,242.297996 L317.519995,242.297996 C317.839724,242.281962 318.11353,242.524654 318.135995,242.843996 L318.135995,242.843996 C318.152028,243.163726 317.909337,243.437531 317.589995,243.459996 L317.589995,243.459996 C317.431657,243.467585 317.276963,243.410922 317.160989,243.302856 C317.045015,243.194789 316.977587,243.044474 316.973995,242.885996 L316.973995,242.899996 Z M316.749995,238.475996 C316.742389,238.320003 316.797155,238.167393 316.902212,238.05183 C317.007269,237.936268 317.153985,237.867248 317.309995,237.859996 L317.309995,237.859996 C317.464618,237.852403 317.615753,237.907588 317.729103,238.01303 C317.842452,238.118471 317.908405,238.265228 317.911995,238.419996 L317.911995,238.419996 C317.919605,238.572277 317.866315,238.721328 317.763883,238.834267 C317.66145,238.947205 317.518293,239.014748 317.365995,239.021996 L317.365995,239.021996 C317.210002,239.029601 317.057391,238.974835 316.941829,238.869778 C316.826266,238.764721 316.757246,238.618006 316.749995,238.461996 L316.749995,238.475996 Z M316.539995,234.037996 C316.532385,233.885715 316.585674,233.736664 316.688106,233.623725 C316.790539,233.510787 316.933696,233.443244 317.085995,233.435996 L317.085995,233.435996 C317.240614,233.424487 317.393312,233.476018 317.509341,233.578861 C317.62537,233.681705 317.694859,233.827113 317.701995,233.981996 L317.701995,233.981996 C317.710266,234.304109 317.463436,234.575622 317.141995,234.597996 L317.141995,234.597996 C316.986035,234.601754 316.834974,234.54338 316.722068,234.435724 C316.609161,234.328069 316.543664,234.179958 316.539995,234.023996 L316.539995,234.037996 Z M316.315995,229.599996 C316.308027,229.280482 316.55674,229.013116 316.875995,228.997996 L316.875995,228.997996 C317.028276,228.990386 317.177327,229.043676 317.290265,229.146108 C317.403203,229.24854 317.470747,229.391698 317.477995,229.543996 L317.477995,229.543996 C317.494028,229.863726 317.251337,230.137531 316.931995,230.159996 L316.931995,230.159996 C316.776002,230.167602 316.623391,230.112835 316.507829,230.007778 C316.392266,229.902722 316.323246,229.756006 316.315995,229.599996 L316.315995,229.599996 Z M316.105995,225.175996 C316.094485,225.021377 316.146016,224.868678 316.24886,224.752649 C316.351704,224.636621 316.497112,224.567132 316.651995,224.559996 L316.651995,224.559996 C316.806618,224.552403 316.957753,224.607589 317.071103,224.71303 C317.184452,224.818472 317.250405,224.965228 317.253995,225.119996 L317.253995,225.119996 C317.261605,225.272277 317.208315,225.421329 317.105883,225.534267 C317.00345,225.647205 316.860293,225.714749 316.707995,225.721996 L316.707995,225.721996 C316.553371,225.729589 316.402236,225.674404 316.288887,225.568962 C316.175537,225.463521 316.109584,225.316764 316.105995,225.161996 L316.105995,225.175996 Z M315.881995,220.737996 C315.874385,220.585715 315.927674,220.436664 316.030107,220.323726 C316.132539,220.210788 316.275696,220.143244 316.427995,220.135996 L316.427995,220.135996 C316.747724,220.119963 317.02153,220.362654 317.043995,220.681996 L317.043995,220.681996 C317.052266,221.004109 316.805436,221.275622 316.483995,221.297996 L316.483995,221.297996 C316.328035,221.301754 316.176974,221.24338 316.064068,221.135724 C315.951161,221.028069 315.885664,220.879958 315.881995,220.723996 L315.881995,220.737996 Z M315.657995,216.313996 C315.650389,216.158003 315.705155,216.005393 315.810212,215.889831 C315.915269,215.774268 316.061985,215.705248 316.217995,215.697996 L316.217995,215.697996 C316.370276,215.690386 316.519327,215.743676 316.632265,215.846108 C316.745203,215.94854 316.812747,216.091698 316.819995,216.243996 L316.819995,216.243996 C316.836028,216.563726 316.593337,216.837532 316.273995,216.859996 L316.273995,216.859996 C316.118002,216.867602 315.965391,216.812836 315.849829,216.707779 C315.734266,216.602722 315.665246,216.456006 315.657995,216.299996 L315.657995,216.313996 Z" id="Shape" fill="#FFFFFF"></path>
                    <path d="M318.429995,261.183996 C318.27496,261.183722 318.127351,261.117552 318.023995,261.001996 C317.912113,260.897189 317.850882,260.749213 317.855995,260.595996 C317.842614,260.521928 317.842614,260.446063 317.855995,260.371996 C317.880964,260.301153 317.924476,260.238304 317.981995,260.189996 C318.033156,260.135699 318.095164,260.09277 318.163995,260.063996 C318.308035,260.007768 318.467954,260.007768 318.611995,260.063996 C318.685079,260.092501 318.75172,260.135342 318.807995,260.189996 C318.856391,260.243116 318.894383,260.304853 318.919995,260.371996 C318.938962,260.445458 318.938962,260.522534 318.919995,260.595996 C318.917147,260.747662 318.857147,260.892662 318.751995,261.001996 C318.69572,261.056649 318.629079,261.09949 318.555995,261.127996 C318.517495,261.15371 318.47488,261.17265 318.429995,261.183996 L318.429995,261.183996 Z" id="Path" fill="#FFFFFF"></path>
                    <path d="M313.151995,260.595996 C313.151949,260.441304 313.214341,260.293143 313.325035,260.185085 C313.435728,260.077028 313.585349,260.018223 313.739995,260.021996 L313.739995,260.021996 C314.057006,260.021996 314.313995,260.278984 314.313995,260.595996 L314.313995,260.595996 C314.314085,260.915349 314.059258,261.176392 313.739995,261.183996 L313.739995,261.183996 C313.415251,261.183996 313.151995,260.920739 313.151995,260.595996 L313.151995,260.595996 Z M308.447995,260.595996 C308.447949,260.441304 308.510342,260.293143 308.621035,260.185085 C308.731728,260.077028 308.881349,260.018223 309.035995,260.021996 L309.035995,260.021996 C309.353006,260.021996 309.609995,260.278984 309.609995,260.595996 L309.609995,260.595996 C309.613768,260.750641 309.554963,260.900263 309.446905,261.010956 C309.338848,261.121649 309.190686,261.184042 309.035995,261.183996 L309.035995,261.183996 C308.711251,261.183996 308.447995,260.920739 308.447995,260.595996 Z M303.757995,260.595996 C303.757995,260.278984 304.014983,260.021996 304.331995,260.021996 L304.331995,260.021996 C304.48664,260.018223 304.636262,260.077028 304.746955,260.185085 C304.857648,260.293143 304.920041,260.441304 304.919995,260.595996 L304.919995,260.595996 C304.919995,260.920739 304.656738,261.183996 304.331995,261.183996 L304.331995,261.183996 C304.026021,261.16166 303.791698,260.902671 303.799995,260.595996 L303.757995,260.595996 Z M299.053995,260.595996 C299.053949,260.441304 299.116342,260.293143 299.227035,260.185085 C299.337728,260.077028 299.48735,260.018223 299.641995,260.021996 L299.641995,260.021996 C299.959006,260.021996 300.215995,260.278984 300.215995,260.595996 L300.215995,260.595996 C300.219768,260.750641 300.160963,260.900263 300.052905,261.010956 C299.944848,261.121649 299.796686,261.184042 299.641995,261.183996 L299.641995,261.183996 C299.317251,261.183996 299.053995,260.920739 299.053995,260.595996 L299.053995,260.595996 Z M294.363995,260.595996 C294.363995,260.278984 294.620984,260.021996 294.937995,260.021996 L294.937995,260.021996 C295.09264,260.018223 295.242262,260.077028 295.352955,260.185085 C295.463648,260.293143 295.526041,260.441304 295.525995,260.595996 L295.525995,260.595996 C295.525995,260.920739 295.262738,261.183996 294.937995,261.183996 L294.937995,261.183996 C294.783304,261.184042 294.635142,261.121649 294.527085,261.010956 C294.419027,260.900263 294.360222,260.750641 294.363995,260.595996 L294.363995,260.595996 Z M289.659995,260.595996 C289.659949,260.441304 289.722342,260.293143 289.833035,260.185085 C289.943728,260.077028 290.09335,260.018223 290.247995,260.021996 L290.247995,260.021996 C290.565006,260.021996 290.821995,260.278984 290.821995,260.595996 L290.821995,260.595996 C290.825768,260.750641 290.766963,260.900263 290.658905,261.010956 C290.550848,261.121649 290.402686,261.184042 290.247995,261.183996 L290.247995,261.183996 C289.923252,261.183996 289.659995,260.920739 289.659995,260.595996 L289.659995,260.595996 Z M284.955995,260.595996 C284.955949,260.441304 285.018342,260.293143 285.129035,260.185085 C285.239728,260.077028 285.38935,260.018223 285.543995,260.021996 L285.543995,260.021996 C285.861007,260.021996 286.117995,260.278984 286.117995,260.595996 L286.117995,260.595996 C286.121768,260.750641 286.062963,260.900263 285.954905,261.010956 C285.846848,261.121649 285.698686,261.184042 285.543995,261.183996 L285.543995,261.183996 C285.219252,261.183996 284.955995,260.920739 284.955995,260.595996 L284.955995,260.595996 Z M280.265995,260.595996 C280.265995,260.278984 280.522984,260.021996 280.839995,260.021996 L280.839995,260.021996 C280.99464,260.018223 281.144262,260.077028 281.254955,260.185085 C281.365648,260.293143 281.428041,260.441304 281.427995,260.595996 L281.427995,260.595996 C281.427995,260.920739 281.164739,261.183996 280.839995,261.183996 L280.839995,261.183996 C280.520732,261.176392 280.265905,260.915349 280.265995,260.595996 L280.265995,260.595996 Z M275.561995,260.595996 C275.561949,260.441304 275.624342,260.293143 275.735035,260.185085 C275.845728,260.077028 275.99535,260.018223 276.149995,260.021996 L276.149995,260.021996 C276.467007,260.021996 276.723995,260.278984 276.723995,260.595996 L276.723995,260.595996 C276.727768,260.750641 276.668963,260.900263 276.560906,261.010956 C276.452848,261.121649 276.304687,261.184042 276.149995,261.183996 L276.149995,261.183996 C275.825252,261.183996 275.561995,260.920739 275.561995,260.595996 L275.561995,260.595996 Z M270.871995,260.595996 C270.871995,260.278984 271.128984,260.021996 271.445995,260.021996 L271.445995,260.021996 C271.600641,260.018223 271.750262,260.077028 271.860955,260.185085 C271.971649,260.293143 272.034041,260.441304 272.033995,260.595996 L272.033995,260.595996 C272.033995,260.920739 271.770739,261.183996 271.445995,261.183996 L271.445995,261.183996 C271.291304,261.184042 271.143143,261.121649 271.035085,261.010956 C270.927028,260.900263 270.868222,260.750641 270.871995,260.595996 L270.871995,260.595996 Z M266.167995,260.595996 C266.167949,260.441304 266.230342,260.293143 266.341035,260.185085 C266.451728,260.077028 266.60135,260.018223 266.755995,260.021996 L266.755995,260.021996 C267.073007,260.021996 267.329995,260.278984 267.329995,260.595996 L267.329995,260.595996 C267.333768,260.750641 267.274963,260.900263 267.166906,261.010956 C267.058848,261.121649 266.910687,261.184042 266.755995,261.183996 L266.755995,261.183996 C266.431252,261.183996 266.167995,260.920739 266.167995,260.595996 L266.167995,260.595996 Z" id="Shape" fill="#FFFFFF"></path>
                    <path d="M262.051996,261.183996 C261.897697,261.18038 261.751356,261.114779 261.645996,261.001996 C261.588476,260.953687 261.544965,260.890838 261.519996,260.819996 C261.506615,260.745928 261.506615,260.670063 261.519996,260.595996 C261.514883,260.442778 261.576114,260.294802 261.687996,260.189996 C261.848447,260.015812 262.102893,259.964923 262.317996,260.063996 C262.388838,260.088965 262.451687,260.132477 262.499996,260.189996 C262.615552,260.293352 262.681721,260.440961 262.681996,260.595996 C262.694798,260.670113 262.694798,260.745878 262.681996,260.819996 C262.620264,260.956746 262.510746,261.066264 262.373996,261.127996 C262.274111,261.176717 262.162464,261.196133 262.051996,261.183996 Z" id="Path" fill="#FFFFFF"></path>
                    <polygon id="Path" fill="#E38870" opacity="0.5" points="326.605994 104.607998 165.073997 104.607998 161.979997 42.1539993 323.525994 42.1539993"></polygon>
                    <path d="M319.003995,204.665997 L318.611995,200.577997 C328.764261,200.188319 338.365563,195.859698 345.379994,188.509997 C349.503175,184.181465 352.561323,178.951936 354.311994,173.235997 L358.231994,174.635997 C356.312416,180.920231 352.957338,186.671793 348.431994,191.435997 C340.713858,199.501537 330.159555,204.246454 319.003995,204.665997 Z" id="Path" fill="#E38870"></path>
                    <path d="M342.495994,130.115998 C337.498092,125.320115 331.433188,121.779056 324.799994,119.783998 L325.793994,115.877998 C333.087728,118.062291 339.757743,121.949135 345.253994,127.217998 C358.195471,139.294145 363.222187,157.63516 358.245994,174.621997 L354.325994,173.221997 C358.842744,157.77227 354.266103,141.095963 342.495994,130.115998 L342.495994,130.115998 Z" id="Path" fill="#E07B9E" opacity="0.5" style="mix-blend-mode: multiply;"></path>
                    <path d="M284.199995,191.407997 C275.444167,183.157858 270.137024,171.898313 269.345995,159.893997 L273.433995,159.893997 C275.099075,183.396435 295.034613,201.384781 318.583995,200.633997 L318.975995,204.721997 C306.054555,205.205151 293.495107,200.396763 284.199995,191.407997 Z" id="Path" fill="#E07B9E"></path>
                    <path d="M269.373995,159.893997 C268.532317,147.849425 272.765835,136.001667 281.049995,127.217998 C292.61634,115.284302 309.925199,110.89614 325.779994,115.877998 L324.799994,119.783998 C310.371519,115.261375 294.62597,119.258697 284.101995,130.115998 C276.551497,138.096556 272.696505,148.879361 273.475995,159.837997 L269.373995,159.893997 Z" id="Path" fill="#FFFFFF" opacity="0.7"></path>
                    <ellipse id="Oval" fill="#FFFFFF" opacity="0.6" transform="translate(314.737299, 159.296420) rotate(-45.710000) translate(-314.737299, -159.296420) " cx="314.737299" cy="159.29642" rx="33.7679994" ry="35.4759994"></ellipse>
                    <path d="M230.285996,227.023996 L229.599996,229.823996 C222.546154,227.734238 214.962509,228.394555 208.375996,231.671996 C204.560153,233.58997 201.243263,236.370023 198.687997,239.791996 L196.307997,237.957996 C199.11656,234.201821 202.75885,231.149007 206.947996,229.039996 C214.193411,225.444215 222.531285,224.723966 230.285996,227.023996 L230.285996,227.023996 Z" id="Path" fill="#E38870"></path>
                    <path d="M196.839997,271.263995 C199.200007,275.641058 202.55721,279.401126 206.639996,282.239995 L205.043997,284.619995 C200.558977,281.498587 196.867111,277.370409 194.263997,272.565995 C188.165045,261.626986 188.962339,248.143982 196.307997,237.999996 L198.687997,239.833996 C191.993907,249.053264 191.272434,261.323775 196.839997,271.263995 L196.839997,271.263995 Z" id="Path" fill="#E07D9F" opacity="0.5" style="mix-blend-mode: multiply;"></path>
                    <path d="M251.187996,243.879996 C255.294783,251.335669 256.343939,260.095367 254.113996,268.309995 L251.313996,267.399995 C253.342232,259.927795 252.383235,251.959583 248.639996,245.181996 C244.636551,237.696656 237.781468,232.143939 229.627996,229.781996 L230.313996,226.981996 C239.253998,229.592311 246.773413,235.679457 251.187996,243.879996 L251.187996,243.879996 Z" id="Path" fill="#FFFFFF" opacity="0.7"></path>
                    <path d="M254.113996,268.309995 C251.855781,276.598398 246.180484,283.536002 238.503996,287.391995 C227.683508,292.652411 214.853226,291.578298 205.057997,284.591995 L206.653996,282.211995 C215.574323,288.55683 227.247631,289.523341 237.089996,284.731995 C244.065575,281.229008 249.225732,274.928935 251.285996,267.399995 L254.113996,268.309995 Z" id="Path" fill="#E07D9F"></path>
                    <ellipse id="Oval" fill="#FFFFFF" opacity="0.6" transform="translate(222.730225, 258.216989) rotate(-45.710000) translate(-222.730225, -258.216989) " cx="222.730225" cy="258.216989" rx="24.1779996" ry="25.3959996"></ellipse>
                    <polygon id="Path" fill="#FFFFFF" points="265.075995 50.0359991 259.531996 50.0359991 245.587996 70.7979988 261.575996 91.5739984 267.133995 91.5739984 251.131996 70.7979988"></polygon>
                    <polygon id="Path" fill="#FFFFFF" points="281.651995 50.0359991 287.209995 50.0359991 303.197995 70.7979988 289.253995 91.5739984 283.709995 91.5739984 297.639995 70.7979988"></polygon>
                    <g id="Group" opacity="0.6" transform="translate(102.199998, 44.799999)">
                        <path d="M37.9959994,24.0378719 L2.57599996,24.0378719 C1.88766573,24.0330443 1.22794,24.3130291 0.753280656,24.811554 C0.278621314,25.3100789 0.0313106984,25.9827356 0.0699999988,26.6699995 L1.27399998,51.0299991 C1.35584936,52.5159481 2.58580014,53.6782516 4.07399993,53.6761257 L39.4799993,53.6761257 C40.1720424,53.6809471 40.8353229,53.3994865 41.3126062,52.898339 C41.7898895,52.3971916 42.0386796,51.7209781 41.9999993,51.0299991 L40.7959993,26.6699995 C40.7070158,25.1895727 39.4790956,24.0353278 37.9959994,24.0378719 L37.9959994,24.0378719 Z M24.6119996,46.6899992 L18.1999997,46.6899992 L18.6479997,38.9339993 C17.4028908,38.1537495 16.6145203,36.8171744 16.5339997,35.3499994 C16.464028,34.221664 16.8660493,33.1149865 17.6439147,32.2946438 C18.4217802,31.4743011 19.5055404,31.0140622 20.6359996,31.0239995 C23.0581596,31.0416108 25.0528159,32.9322513 25.1999996,35.3499994 C25.2836375,36.7751922 24.6073793,38.1383583 23.4219996,38.9339993 L24.6119996,46.6899992 Z" id="Shape" fill="#E07D9F"></path>
                        <path d="M16.5339997,35.3499994 C16.6145203,36.8171744 17.4028908,38.1537495 18.6479997,38.9339993 L18.1999997,46.6899992 L21.4059996,46.6899992 L21.7559996,53.6900057 L4.04599993,53.6900057 C2.55780014,53.6922516 1.32784936,52.5299481 1.24599998,51.0439991 L0.0419999993,26.6839995 C0.0033106989,25.9967356 0.250621314,25.3240789 0.725280656,24.825554 C1.19994,24.3270291 1.85966573,24.0470443 2.54799996,24.0518719 L20.2859997,24.0518719 L20.6359996,31.0519995 C19.5107002,31.0425607 18.4316169,31.4990058 17.6546606,32.3130863 C16.8777044,33.1271667 16.4720858,34.2263648 16.5339997,35.3499994 L16.5339997,35.3499994 Z" id="Path" fill="#C06A88" opacity="0.2"></path>
                        <path d="M34.7479994,22.2879996 L34.7479994,22.2879996 C33.4353962,22.2753203 32.3576834,21.2465944 32.2839995,19.9359997 L32.1999995,17.5559997 C31.9071218,10.8711453 26.6642633,5.45993808 19.9919997,4.95599992 C16.6989061,4.75859019 13.478568,5.97878647 11.1431454,8.30885875 C8.80772278,10.638931 7.58014362,13.8564621 7.76999987,17.1499997 L7.90999987,19.9499997 C7.94193417,20.5744041 7.70980487,21.1834532 7.27037843,21.628206 C6.83095198,22.0729588 6.22474374,22.3124089 5.5999999,22.2879996 L5.5999999,22.2879996 C4.28739673,22.2753203 3.2096839,21.2465944 3.13599995,19.9359997 L3.02399995,17.6119997 C2.71762353,13.263639 4.17987227,8.97577017 7.07919822,5.72061785 C9.97852416,2.46546554 14.0693036,0.518798163 18.4239997,0.321999995 C28.1157319,0.0482557621 36.2702066,7.52680827 36.8339994,17.2059997 L36.9739994,20.0059997 C36.9890989,20.6060136 36.7612574,21.1866992 36.3421537,21.6163465 C35.9230499,22.0459937 35.3482033,22.2881896 34.7479994,22.2879996 Z" id="Path" fill="#E07D9F"></path>
                    </g>
                    <polygon id="Path" fill="#E38870" opacity="0.4" points="152.403997 327.949994 36.7639994 327.949994 26.7959995 126.097998 142.421998 126.097998"></polygon>
                    <polygon id="Path" fill="#E07D9F" opacity="0.3" points="142.911998 135.771998 27.2719995 135.771998 26.7959995 126.097998 142.421998 126.097998"></polygon>
                    <polygon id="Path" fill="#E07D9F" opacity="0.3" points="152.403997 327.949994 36.7639994 327.949994 36.2879994 318.275995 151.927997 318.275995"></polygon>
                    <path d="M62.6919989,183.217997 L58.491999,181.075997 C57.8632197,179.271571 57.0614915,177.532149 56.097999,175.881997 L56.097999,175.881997 L57.217999,171.499997 L48.1319992,162.847997 L43.8199993,164.247997 L43.8199993,164.247997 C42.1325518,163.354137 40.3596714,162.631852 38.5279993,162.091997 L38.5279993,162.091997 L36.1759994,158.045997 L23.9819996,158.045997 L22.0359996,162.091997 C20.2691046,162.625012 18.5651613,163.347897 16.9539997,164.247997 L16.9539997,164.247997 L12.5019998,162.847997 L4.26999993,171.499997 L5.8239999,175.881997 L5.8239999,175.881997 C5.0242415,177.54676 4.39115786,179.286568 3.93399993,181.075997 L0,183.217997 L0.60199999,195.453997 L4.80199992,197.609997 L4.80199992,197.609997 C5.43352735,199.408837 6.2351558,201.143354 7.19599988,202.789997 L7.19599988,202.789997 L6.0339999,207.199996 L15.1199997,215.851996 L19.4319997,214.521996 C21.1236868,215.403055 22.8957528,216.12032 24.7239996,216.663996 L27.0759995,220.709996 L39.3119993,220.709996 L41.2579993,216.663996 L41.2579993,216.663996 C43.0177736,216.129696 44.7164555,215.411745 46.3259992,214.521996 L50.7779991,215.851996 L59.023999,207.199996 L57.469999,202.831997 L57.469999,202.831997 C58.2736499,201.173729 58.9068958,199.438167 59.359999,197.651997 L59.359999,197.651997 L63.2939989,195.495997 L62.6919989,183.217997 Z M32.7459994,211.525996 C20.3587308,211.399766 10.1846968,201.702927 9.46399984,189.335997 C9.10995331,183.543428 11.1801116,177.864412 15.1788599,173.658557 C19.1776082,169.452702 24.7449451,167.098656 30.5479995,167.159997 C42.9301844,167.285744 53.1022362,176.974578 53.8299991,189.335997 C54.1838446,195.129827 52.1140728,200.810142 48.1157914,205.018161 C44.1175101,209.226179 38.5503407,211.583415 32.7459994,211.525996 Z" id="Shape" fill="#E38870"></path>
                    <path d="M30.7019995,170.253265 C25.7185659,170.222061 20.944466,172.255558 17.5146386,175.871068 C14.0848112,179.486579 12.3056094,184.361164 12.5999998,189.335997 C13.2312714,199.965024 21.9729294,208.297107 32.6199994,208.417996 C37.6095797,208.461881 42.3936026,206.433077 45.8305154,202.815693 C49.2674283,199.198309 51.0489577,194.316806 50.7499991,189.335997 C50.1179377,178.696325 41.3598992,170.360287 30.7019995,170.253265 Z" id="Path" fill="#FFFFFF" opacity="0.6"></path>
                    <path d="M153.607997,202.145451 L87.9619985,202.145451 C86.6507846,202.13177 85.392799,202.663883 84.4897876,203.614701 C83.5867762,204.565519 83.1202089,205.849259 83.2019986,207.157996 L84.8679986,240.799996 C85.0299989,243.58801 87.325392,245.773224 90.1179985,245.797996 L129.583998,245.797996 L130.297998,260.413996 L144.199998,245.853996 L155.777997,245.853996 C157.086625,245.867957 158.342259,245.337738 159.244812,244.390057 C160.147365,243.442377 160.61574,242.162387 160.537997,240.855996 L158.857997,207.199996 C158.717675,204.39306 156.41824,202.179471 153.607997,202.145451 L153.607997,202.145451 Z" id="Path" fill="#E38870"></path>
                    <path d="M64.9599989,258.229643 L109.759998,258.229643 C111.69155,258.21218 113.295263,259.717203 113.399998,261.645996 L114.533998,284.675995 C114.588463,285.568303 114.269522,286.443092 113.653523,287.090953 C113.037523,287.738814 112.179917,288.101429 111.285998,288.091995 L84.3219986,288.091995 L84.8259986,298.073995 L74.3399987,288.091995 L66.4439989,288.091995 C64.5342201,288.073572 62.9634404,286.582248 62.8459989,284.675995 L61.7119989,261.645996 C61.6575337,260.753688 61.9764751,259.878899 62.5924744,259.231038 C63.2084737,258.583177 64.0660803,258.220561 64.9599989,258.229643 Z" id="Path" fill="#FFFFFF"></path>
                </g>
                <g id="Character" transform="translate(363.999994, 28.000000)">
                    <path d="M88.9279985,147.937997 L82.3059986,147.629997 L85.2879985,160.229997 C87.6523051,158.634908 89.8106311,156.754014 91.7139984,154.629997 C92.8513016,153.29266 92.7015212,151.289348 91.3779984,150.135997 L88.9279985,147.937997 Z" id="Path" fill="#FF8B7B"></path>
                    <polygon id="Path" fill="#FF8B7B" points="74.6059987 154.419997 77.5879987 164.681997 85.2879985 160.201997 82.3059986 147.629997"></polygon>
                    <path d="M38.6539993,83.7059986 L35.4479994,87.3879985 C34.3699994,88.6479985 33.2919994,89.9219985 32.2419995,91.2239984 C30.1419995,93.8279984 28.0419995,96.4319984 26.1099996,99.0919983 C22.187992,104.241095 18.7215789,109.721775 15.7499997,115.471998 C15.4139997,116.157998 15.1199997,116.871998 14.7979997,117.543998 L14.3359998,118.565998 C14.3359998,118.565998 14.3359998,118.565998 14.3359998,118.565998 C14.1607966,119.253873 14.1850766,119.977415 14.4059998,120.651998 C15.1756199,123.404376 16.3203588,126.037747 17.8079997,128.477998 C21.233781,134.177081 25.0313394,139.644255 29.1759995,144.843998 L23.8979996,150.443997 C17.9387141,146.077629 12.5612445,140.968327 7.89599987,135.239998 C5.24724534,132.058516 3.12934536,128.470377 1.62399997,124.613998 C0.598726446,122.003859 0.228602231,119.182263 0.545999991,116.395998 C0.65462189,115.52097 0.846833471,114.658362 1.11999998,113.819998 L1.62399997,112.419998 C1.95999997,111.495998 2.28199996,110.557998 2.64599995,109.619998 C5.55745186,102.71213 9.20946929,96.140376 13.5379998,90.0199985 C15.6239997,87.0239985 17.7379997,84.0839986 20.0899997,81.2699986 C21.2379996,79.8699988 22.4139996,78.4699987 23.6039996,77.0699987 C24.7939996,75.6699987 25.9699996,74.3819987 27.3559995,72.8699988 L38.6539993,83.7059986 Z" id="Path" fill="#FF8B7B"></path>
                    <polygon id="Path" fill="#FF8B7B" points="37.6179994 149.253997 31.6399995 161.055997 25.8159996 156.029997 30.6039995 147.629997"></polygon>
                    <path d="M96.2079984,72.4079988 C99.8759983,78.9039987 103.305998,85.4559985 106.609998,92.1339984 C109.913998,98.8119983 113.035998,105.545998 115.975998,112.489998 L116.213998,113.077998 L116.479998,113.861998 C116.660471,114.35757 116.796343,114.868264 116.885998,115.387998 C116.955998,115.877998 117.025998,116.367998 117.067998,116.787998 C117.098733,117.254159 117.098733,117.721837 117.067998,118.187998 C117.058917,118.991427 116.979278,119.792506 116.829998,120.581998 C116.704346,121.276427 116.540768,121.963455 116.339998,122.639998 C115.618945,124.882128 114.641829,127.033663 113.427998,129.051998 C112.384977,130.843662 111.225136,132.564717 109.955998,134.203998 C108.737998,135.799998 107.491998,137.339998 106.203998,138.795998 C101.094907,144.516575 95.4712955,149.755906 89.4039986,154.447997 L84.0559986,148.847997 C88.5219985,143.247998 92.9739984,137.423998 96.8379984,131.613998 C98.7181312,128.851921 100.384321,125.95013 101.821998,122.933998 C102.40009,121.729688 102.832477,120.460725 103.109998,119.153998 C103.134386,118.935343 103.134386,118.714653 103.109998,118.495998 C103.109998,118.327998 103.109998,118.159998 103.109998,118.145998 C103.109998,118.131998 103.109998,118.047998 103.109998,118.145998 C103.109998,118.145998 103.109998,118.271998 103.109998,118.355998 L103.109998,118.481998 C103.109998,118.481998 103.179998,118.593998 103.109998,118.481998 C99.7499983,112.069998 96.2359984,105.657998 92.7639984,99.2319983 C89.2919985,92.8059984 85.7639985,86.3379985 82.4039986,79.8979986 L96.2079984,72.4079988 Z" id="Path" fill="#FF8B7B"></path>
                    <path d="M43.2459993,32.6199994 C43.4139993,33.4319994 43.1339993,34.2019994 42.6019993,34.3279994 C42.0699993,34.4539994 41.5099993,33.9219994 41.3419993,33.1099994 C41.1739993,32.2979994 41.4539993,31.5279995 41.9859993,31.3879995 C42.5179993,31.2479995 43.0779993,31.8079995 43.2459993,32.6199994 Z" id="Path" fill="#263238"></path>
                    <path d="M43.2039993,34.1879994 C42.7657851,36.9170508 41.9702871,39.5765558 40.8379993,42.0979993 C42.1291123,42.6070068 43.5791036,42.5199049 44.7999992,41.8599993 L43.2039993,34.1879994 Z" id="Path" fill="#FF5652"></path>
                    <path d="M42.3359993,40.4599993 C41.2719993,40.4599993 40.2359993,39.6339993 39.4099993,38.1079994 C37.6847587,34.4665918 37.3850963,30.3112732 38.5699993,26.4599995 C39.1999993,24.7519996 40.1519993,23.7719996 41.2719993,23.6599996 C42.3919993,23.5479996 43.4839993,24.4159996 44.3379992,26.0119996 C45.2334087,27.8010097 45.7527555,29.754516 45.8639992,31.7519995 C46.1999992,36.4559994 44.7159992,40.2639993 42.4899993,40.4319993 L42.3359993,40.4599993 Z M41.4119993,24.3879996 L41.3279993,24.3879996 C40.5159993,24.3879996 39.7459993,25.2839996 39.2279993,26.6979995 C38.1078158,30.3601507 38.3923217,34.3082933 40.0259993,37.7719994 C40.7399993,39.0879993 41.6359993,39.8159993 42.4339993,39.7599993 C44.2119992,39.6199993 45.4579992,35.9939994 45.1639992,31.8359995 C45.0806545,29.9386603 44.6039077,28.079348 43.7639993,26.3759996 C43.0359993,25.1019996 42.1959993,24.3879996 41.4119993,24.3879996 Z" id="Shape" fill="#263238"></path>
                    <path d="M41.0899993,27.6919995 C41.1895816,27.6922763 41.2870141,27.6630465 41.3699993,27.6079995 C42.4248784,26.968777 43.7240301,26.8800799 44.8559992,27.3699995 C45.0900785,27.4232165 45.3282452,27.2990173 45.4185954,27.0766168 C45.5089456,26.8542162 45.4248729,26.5991072 45.2199992,26.4739995 C43.783642,25.8572535 42.1363387,25.9827624 40.8099993,26.8099995 C40.5975825,26.9671607 40.5480357,27.2644417 40.6979993,27.4819995 C40.7822478,27.6164893 40.9313607,27.6963712 41.0899993,27.6919995 L41.0899993,27.6919995 Z" id="Path" fill="#263238"></path>
                    <path d="M71.2039988,38.3319993 C70.9239988,46.7319992 67.7879988,57.021999 72.8559988,62.0479989 C72.8559988,62.0479989 70.5039988,69.6779988 56.531999,69.6779988 C41.1319993,69.6779988 49.5319992,62.0479989 49.5319992,62.0479989 C58.001999,60.045999 58.015999,53.8159991 56.783999,48.0479992 L71.2039988,38.3319993 Z" id="Path" fill="#FF8B7B"></path>
                    <path d="M76.4679987,64.6659989 C77.6579987,62.2439989 78.8899987,58.533999 76.4679987,57.665999 C73.7379987,56.713999 59.877999,54.3059991 49.3499992,57.665999 C50.469206,60.0367678 50.5201638,62.7732046 49.4899992,65.1839989 L76.4679987,64.6659989 Z" id="Path" fill="#263238"></path>
                    <path d="M94.9059984,415.939993 C94.0322979,416.053054 93.1497529,415.810985 92.4559984,415.267993 C92.2119539,414.913976 92.2119539,414.44601 92.4559984,414.091993 C92.6315191,413.795349 92.9283439,413.590643 93.2679984,413.531993 C94.7659984,413.209993 97.4679983,415.127993 97.6359983,415.211993 C97.7213953,415.264583 97.7614289,415.367526 97.7339983,415.463993 C97.7177206,415.556938 97.644943,415.629715 97.5519983,415.645993 C96.6822978,415.833759 95.7957038,415.93227 94.9059984,415.939993 Z M93.6879984,413.979993 L93.4079984,413.979993 C93.2021208,414.011784 93.0218429,414.135403 92.9179984,414.315993 C92.6799984,414.721993 92.8059984,414.889993 92.8479984,414.945993 C93.2679984,415.519993 95.3819984,415.519993 96.9219983,415.267993 C95.9559812,414.598297 94.8499239,414.157789 93.6879984,413.979993 L93.6879984,413.979993 Z" id="Shape" fill="#FFFFFF"></path>
                    <path d="M97.5379983,415.659993 C97.5019882,415.67405 97.4620085,415.67405 97.4259983,415.659993 C96.4039984,415.099993 94.4299984,412.859993 94.6259984,411.711993 C94.7138293,411.338205 95.0403229,411.068991 95.4239984,411.053993 C95.8000611,411.001581 96.1799031,411.11964 96.4599984,411.375993 C97.6219983,412.355993 97.7479983,415.323993 97.7619983,415.449993 C97.7653689,415.538788 97.7159334,415.621181 97.6359983,415.659993 C97.6038587,415.668291 97.570138,415.668291 97.5379983,415.659993 L97.5379983,415.659993 Z M95.6339984,411.459993 L95.5219984,411.459993 C95.1859984,411.459993 95.1579984,411.669993 95.1439984,411.725993 C95.0039984,412.411993 96.2499984,414.105993 97.2579983,414.903993 C97.2434795,413.74016 96.866683,412.609771 96.1799984,411.669993 C96.0251083,411.546924 95.8317517,411.482472 95.6339984,411.487993 L95.6339984,411.459993 Z" id="Shape" fill="#FFFFFF"></path>
                    <path d="M33.1519994,415.939993 C31.8359995,415.939993 30.5619995,415.757993 30.1559995,415.169993 C29.9202632,414.849323 29.9202632,414.412663 30.1559995,414.091993 C31.2619995,412.285993 35.8259994,414.903993 36.3439994,415.197993 C36.4311521,415.249603 36.4760923,415.350718 36.4559994,415.449993 C36.4452771,415.548351 36.3712949,415.628024 36.2739994,415.645993 C35.2444402,415.83874 34.1994418,415.937148 33.1519994,415.939993 Z M31.5699995,413.951993 C31.2059845,413.907442 30.8451015,414.056041 30.6179995,414.343993 C30.4079995,414.693993 30.5199995,414.833993 30.5479995,414.889993 C30.9959995,415.519993 33.5999994,415.561993 35.5319994,415.281993 C34.3097103,414.586745 32.9642161,414.135078 31.5699995,413.951993 L31.5699995,413.951993 Z" id="Shape" fill="#FFFFFF"></path>
                    <path d="M36.2599994,415.659993 L36.1619994,415.659993 C34.9299994,415.099993 32.5919994,412.929993 32.7879994,411.739993 C32.7879994,411.459993 33.0399994,411.109993 33.7259994,411.039993 C34.2320234,410.963157 34.7458339,411.117301 35.1259994,411.459993 C36.3859994,412.537993 36.5259994,415.309993 36.5259994,415.421993 C36.5239247,415.509622 36.482858,415.591756 36.4139994,415.645993 C36.3656553,415.667671 36.3114601,415.672598 36.2599994,415.659993 Z M33.9219994,411.459993 L33.7679994,411.459993 C33.3199994,411.459993 33.2779994,411.697993 33.2779994,411.753993 C33.1519994,412.481993 34.6779994,414.203993 35.9799994,414.959993 C35.9151293,413.797162 35.483867,412.684701 34.7479994,411.781993 C34.5201184,411.582439 34.2247158,411.477295 33.9219994,411.487993 L33.9219994,411.459993 Z" id="Shape" fill="#FFFFFF"></path>
                    <polygon id="Path" fill="#FF8B7B" points="47.5719992 415.407993 37.2819994 415.407993 37.1839994 391.593993 47.4739992 391.593993"></polygon>
                    <polygon id="Path" fill="#FF8B7B" points="109.325998 415.407993 99.0359983 415.407993 94.7939984 391.593993 105.069998 391.593993"></polygon>
                    <path d="M98.3499983,414.217829 L109.913998,414.217829 C110.328325,414.212204 110.684977,414.509414 110.753998,414.917993 L112.433998,424.059993 C112.513166,424.519609 112.383624,424.990612 112.080552,425.3451 C111.777479,425.699587 111.332333,425.900761 110.865998,425.893993 C106.833998,425.893993 104.873998,425.585993 99.7919983,425.585993 C96.6699984,425.585993 90.2159985,425.907993 85.9039985,425.907993 C81.5919986,425.907993 81.1859986,421.637993 82.9639986,421.259993 C90.9579985,419.523993 94.0379984,417.129993 96.6559984,414.847993 C97.1279759,414.44356 97.7284491,414.220244 98.3499983,414.217829 L98.3499983,414.217829 Z" id="Path" fill="#263238"></path>
                    <path d="M37.4079994,414.217987 L48.6079992,414.217987 C49.0235201,414.216838 49.3815771,414.510327 49.4619992,414.917993 L51.1279991,424.059993 C51.2114647,424.515574 51.0873646,424.984642 50.7895245,425.339342 C50.4916844,425.694043 50.0511509,425.897403 49.5879992,425.893993 C45.5279992,425.893993 39.6899993,425.585993 34.5939994,425.585993 C28.6439995,425.585993 23.4919996,425.907993 16.5059997,425.907993 C12.3059998,425.907993 11.2699998,421.637993 13.0619998,421.259993 C21.1679996,419.495993 27.7479995,419.313993 34.8599994,415.015993 C35.6212512,414.523851 36.5020153,414.248007 37.4079994,414.217987 Z" id="Path" fill="#263238"></path>
                    <path d="M92.4839984,64.3999989 C102.031998,66.6119989 112.083998,92.8899984 112.083998,92.8899984 L92.2179984,106.161998 C87.6585448,99.2479505 83.6648977,91.9769845 80.2759986,84.4199986 C75.0119987,72.3659988 82.7119986,62.1179989 92.4839984,64.3999989 Z" id="Path" fill="#E07D9F"></path>
                    <path d="M92.4839984,64.3999989 C102.031998,66.6119989 112.083998,92.8899984 112.083998,92.8899984 L92.2179984,106.161998 C87.6585448,99.2479505 83.6648977,91.9769845 80.2759986,84.4199986 C75.0119987,72.3659988 82.7119986,62.1179989 92.4839984,64.3999989 Z" id="Path" fill="#E07D9F" opacity="0.3"></path>
                    <path d="M84.9239986,81.1999986 L93.1419984,105.573998 L92.2039984,106.203998 C92.2039984,106.203998 88.4659985,100.603998 84.4619986,93.1419984 L84.9239986,81.1999986 Z" id="Path" fill="#000000" opacity="0.2"></path>
                    <path d="M28.3219995,110.319998 C28.3219995,121.799998 29.0919995,136.079998 30.7999995,153.803997 L85.8199985,153.803997 C86.5199985,145.403998 82.8099986,104.159998 92.4699984,64.3719989 C86.4371181,63.2002212 80.334117,62.4239008 74.1999987,62.0479989 C66.4131132,61.599674 58.6068847,61.599674 50.8199991,62.0479989 C45.4453228,62.5709184 40.1189044,63.50702 34.8879994,64.8479989 C34.8879994,64.8479989 30.1839995,69.9439988 28.7559995,93.8419984 C28.4339995,98.6159983 28.2799995,104.047998 28.3219995,110.319998 Z" id="Path" fill="#E07D9F"></path>
                    <path d="M28.3219995,110.319998 C28.3219995,121.799998 29.0919995,136.079998 30.7999995,153.803997 L85.8199985,153.803997 C86.5199985,145.403998 82.8099986,104.159998 92.4699984,64.3719989 C86.4371181,63.2002212 80.334117,62.4239008 74.1999987,62.0479989 C66.4131132,61.599674 58.6068847,61.599674 50.8199991,62.0479989 C45.4453228,62.5709184 40.1189044,63.50702 34.8879994,64.8479989 C34.8879994,64.8479989 30.1839995,69.9439988 28.7559995,93.8419984 C28.4339995,98.6159983 28.2799995,104.047998 28.3219995,110.319998 Z" id="Path" fill="#E38870" opacity="0.3"></path>
                    <path d="M28.3219995,110.319998 C31.6399995,104.243998 37.6879994,92.1199986 36.8339994,85.1199986 L28.7139995,93.9119984 C28.4339995,98.6159983 28.2799995,104.047998 28.3219995,110.319998 Z" id="Path" fill="#000000" opacity="0.2"></path>
                    <path d="M45.6399992,74.1999987 C46.5079992,83.9999986 24.2899996,107.575998 24.2899996,107.575998 L6.48199989,93.0719984 C11.1443353,85.2085197 16.7329061,77.9325671 23.1279996,71.3999988 C33.5999994,61.291999 44.6599992,63.2099989 45.6399992,74.1999987 Z" id="Path" fill="#E07D9F"></path>
                    <path d="M45.6399992,74.1999987 C46.5079992,83.9999986 24.2899996,107.575998 24.2899996,107.575998 L6.48199989,93.0719984 C11.1443353,85.2085197 16.7329061,77.9325671 23.1279996,71.3999988 C33.5999994,61.291999 44.6599992,63.2099989 45.6399992,74.1999987 Z" id="Path" fill="#E38870" opacity="0.3"></path>
                    <polygon id="Path" fill="#000000" opacity="0.2" points="37.1839994 391.593993 37.2399994 403.871993 47.5299992 403.871993 47.4739992 391.593993"></polygon>
                    <polygon id="Path" fill="#000000" opacity="0.2" points="105.083998 391.593993 94.7939984 391.593993 96.9919983 403.871993 107.281998 403.871993"></polygon>
                    <path d="M69.7059988,24.1219996 C71.2179988,34.2579994 72.6039988,40.0819993 68.6979988,46.5219992 C66.1739479,50.7716951 61.4994142,53.2689249 56.5637529,53.004357 C51.6280916,52.7397891 47.2472965,49.7571635 45.1919992,45.2619992 C41.1739993,36.8619994 39.3959993,21.6999996 48.2159992,15.2879997 C52.0099283,12.3585321 57.0788377,11.6764742 61.5121687,13.4989054 C65.9454997,15.3213366 69.0692401,19.3711873 69.7059988,24.1219996 Z" id="Path" fill="#FF8B7B"></path>
                    <path d="M52.4999991,21.3499996 C20.1459997,20.5799996 46.6199992,0.993999983 46.6199992,0.993999983 C41.3139993,10.3179998 56.559999,9.46399984 60.395999,5.26399991 C65.0859989,0.139999998 73.5279987,7.29399988 72.8559988,12.8939998 C77.7839987,12.2639998 81.7039986,15.9179997 79.8559986,27.6919995 C78.0079987,39.4659993 74.2559987,42.7559993 72.1559988,45.6399992 C70.0559988,48.5239992 70.3079988,45.7659992 63.6019989,47.0399992 C58.981999,47.8939992 51.2259991,37.9399994 50.3859991,32.1159995 C49.7737302,28.3898914 50.5242085,24.5679191 52.4999991,21.3499996 Z" id="Path" fill="#263238"></path>
                    <path d="M69.1459988,14.6019998 C69.1459988,14.6019998 77.5459987,11.1019998 71.9459988,2.30999996 C79.7999986,6.35599989 78.5679987,13.7479998 69.1459988,14.6019998 Z" id="Path" fill="#263238"></path>
                    <path d="M56.993999,30.3939995 C56.9430264,32.9717333 56.075389,35.4668036 54.5159991,37.5199994 C52.4439991,40.2079993 50.0359991,38.9199993 49.4759992,35.8959994 C48.9579992,33.2079994 49.4759992,28.5599995 52.0659991,26.9359995 C54.6559991,25.3119996 56.993999,27.3139995 56.993999,30.3939995 Z" id="Path" fill="#FF8B7B"></path>
                    <path d="M50.3159991,153.803997 C50.3159991,153.803997 58.953999,232.399996 64.2179989,261.799996 C69.9999988,293.999995 92.2879984,401.463993 92.2879984,401.463993 L111.117998,401.463993 C111.117998,401.463993 97.7339983,296.645995 94.9619984,264.725995 C91.9519984,230.075996 85.8059985,153.761997 85.8059985,153.761997 L50.3159991,153.803997 Z" id="Path" fill="#263238"></path>
                    <path d="M89.5999985,394.561993 C89.5159985,394.561993 91.2659984,401.799993 91.2659984,401.799993 L112.461998,401.799993 L112.321998,395.331993 L89.5999985,394.561993 Z" id="Path" fill="#E38870"></path>
                    <path d="M56.615999,181.803997 C69.9999988,184.449997 66.6399989,234.779996 64.0079989,260.665996 C60.829999,242.367996 56.489999,207.157996 53.5639991,182.167997 C54.5109355,181.705149 55.5867684,181.576839 56.615999,181.803997 L56.615999,181.803997 Z" id="Path" fill="#000000" opacity="0.2"></path>
                    <path d="M30.7999995,153.803997 C30.7999995,153.803997 26.4179996,230.691996 26.3199996,262.065996 C26.2219996,294.685995 33.5019994,401.505993 33.5019994,401.505993 L50.9179991,401.505993 C50.9179991,401.505993 55.6079991,296.589995 57.623999,264.543995 C59.821999,229.543996 66.9619989,153.803997 66.9619989,153.803997 L30.7999995,153.803997 Z" id="Path" fill="#263238"></path>
                    <path d="M26.5999995,143.919998 L31.4859996,144.311998 C32.294333,144.374555 33.0306323,144.800473 33.4878645,145.469992 C33.9450968,146.139511 34.0738787,146.980319 33.8379994,147.755997 L31.8219995,154.531997 C31.4855459,155.658528 30.6160062,156.547178 29.4970558,156.90804 C28.3781053,157.268902 27.1532191,157.055703 26.2219996,156.337997 C23.6901718,153.987366 21.8749502,150.968468 20.9859996,147.629997 L26.5999995,143.919998 Z" id="Path" fill="#FF8B7B"></path>
                    <path d="M37.6179994,388.989994 C37.5227064,388.989994 37.4433292,388.917004 37.4359994,388.821993 C35.5179994,359.253994 31.0379995,287.727995 31.1079995,262.051996 C31.1919995,235.801996 34.2999994,177.071997 35.3079994,159.697997 C35.322413,159.602959 35.4082493,159.535516 35.5039994,159.54267 C35.548616,159.547559 35.5899666,159.568778 35.6188781,159.602946 C35.6477895,159.637114 35.6618712,159.681407 35.6579994,159.725997 C34.7059994,177.099997 31.5979995,235.815996 31.4579995,262.065996 C31.3879995,287.713995 35.8679994,359.239994 37.7859994,388.793993 C37.794029,388.84081 37.7818651,388.888837 37.7525187,388.926187 C37.7231722,388.963537 37.6793862,388.986719 37.6319994,388.989994 L37.6179994,388.989994 Z" id="Path" fill="#FAFAFA" opacity="0.2"></path>
                    <path d="M30.4079995,394.561993 C30.3379995,394.561993 31.1219995,401.799993 31.1219995,401.799993 L52.3039991,401.799993 L53.1299991,395.331993 L30.4079995,394.561993 Z" id="Path" fill="#E38870"></path>
                </g>
            </g>
        </g>
    </g>
</svg>