<?xml version="1.0" encoding="UTF-8"?>
<svg width="80px" height="80px" viewBox="0 0 80 80" version="1.1" xmlns="http://www.w3.org/2000/svg" xmlns:xlink="http://www.w3.org/1999/xlink">
    <!-- Generator: sketchtool 64 (101010) - https://sketch.com -->
    <title>FCFF5466-83E8-4553-8C37-F2CFF1B14AF4</title>
    <desc>Created with sketchtool.</desc>
    <defs>
        <linearGradient x1="0%" y1="50.0007883%" x2="99.9987174%" y2="50.0007883%" id="linearGradient-1">
            <stop stop-color="#E29A64" offset="0%"></stop>
            <stop stop-color="#E85E8C" offset="100%"></stop>
        </linearGradient>
    </defs>
    <g id="Careers" stroke="none" stroke-width="1" fill="none" fill-rule="evenodd">
        <g id="Career" transform="translate(-1032.000000, -1173.000000)" fill="url(#linearGradient-1)" fill-rule="nonzero">
            <g id="Group-9" transform="translate(211.000000, 1032.000000)">
                <g id="Group-4-Copy" transform="translate(821.000000, 141.000000)">
                    <g id="bt">
                        <path d="M56.6301301,41.5 L63.0248434,45.2980899 L63.4306806,45.0434804 C66.892,42.9440837 71.081878,42.4101359 74.9943039,43.5826333 L74.9943039,43.5826333 L75.3720259,43.7014326 L78.113849,44.6505354 L77.6674044,47.1712738 C76.8874033,51.5753559 74.0934091,55.3615848 70.1148417,57.4057234 L70.1148417,57.4057234 L69.9238434,57.5020899 L70.1658257,64.862077 L62.4286201,69.3291548 L60.3418434,62.4250899 L54.7757222,65.2867728 C52.7100081,66.3481111 50.5754657,67.2664654 48.3871943,68.0359595 L48.3871943,68.0359595 L48.2348434,68.0870899 L48.4945935,71.3117909 L42.2503858,74.916886 L40.5968434,70.1230899 L29.5,72.4899222 L37.2068434,64.3180899 L34.0002973,60.6275179 L40.2633988,57.0115146 L42.8338434,58.8240899 L43.0379824,58.6510507 C44.4270906,57.4882961 45.8776403,56.3999802 47.3835727,55.3908968 L47.3835727,55.3908968 L48.141126,54.8929801 L53.8948434,51.1830899 L48.8915107,45.967894 L56.6301301,41.5 Z M56.6085538,44.9765587 L53.7058518,46.6524345 L58.5803333,51.7328388 L49.7665644,57.4144776 C47.3743146,58.9565594 45.1256901,60.7072446 43.0465671,62.6450199 L43.0465671,62.6450199 L40.1021641,60.5687051 L38.6508131,61.406643 L41.2553512,64.4050896 L40.8551263,64.8234345 L38.2835638,67.5498029 L41.4776953,66.8688005 C41.8410084,66.7913406 42.2032821,66.7096931 42.5644458,66.6238831 L42.5644458,66.6238831 L43.9008131,70.4999097 L45.3521641,69.6619718 L45.0544195,65.9611995 C47.9337513,65.1115103 50.7296453,63.992794 53.4047294,62.618369 L53.4047294,62.618369 L62.1732834,58.1120108 L64.2058518,64.838968 L67.1085538,63.1630922 L66.8641392,55.7028114 L68.7441632,54.7371582 C71.8885305,53.1216212 74.0968726,50.1290277 74.7133769,46.6480899 L74.7133769,46.6480899 L74.3906848,46.5363876 C71.1528573,45.4699399 67.5988634,45.9194979 64.7234314,47.7730465 L64.7234314,47.7730465 L63.0889974,48.8260742 L56.6085538,44.9765587 Z M47.5,6 C50.4634791,6 52.8795391,8.34378001 52.9956328,11.2787929 L53,11.5 L53,15 L67.5,15 C71.5609173,15 74.8680175,18.2274744 74.9961464,22.2572689 L75,22.5 L75,37.1054688 L72,37.1054688 L72,31.07 L7,31.07 L7,60.5 C7,62.9142733 8.90123652,64.8844891 11.2881643,64.995102 L11.5,65 L28.4960938,65 L28.4960938,68 L11.5,68 C7.43908272,68 4.13198248,64.7725256 4.00385357,60.7427311 L4,60.5 L4,22.5 C4,18.4390827 7.22747441,15.1319825 11.2572689,15.0038536 L11.5,15 L26,15 L26,11.5 C26,8.53652085 28.34378,6.12046086 31.2787929,6.0043672 L31.5,6 L47.5,6 Z M48,34 L48,45 L31,45 L31,34 L48,34 Z M45,37 L34,37 L34,42 L45,42 L45,37 Z M67.5,18 L11.5,18 C9.08572667,18 7.11551091,19.9012365 7.00489799,22.2881643 L7,22.5 L7,28.07 L72,28.07 L72,22.5 C72,20.0857267 70.0987635,18.1155109 67.7118357,18.004898 L67.5,18 Z M47.5,9 L31.5,9 C30.1745166,9 29.0899613,10.0315359 29.0053177,11.3356243 L29,11.5 L29,15 L50,15 L50,11.5 C50,10.2297451 49.0526345,9.18075921 47.8259123,9.02105111 L47.6643757,9.00531768 L47.5,9 Z" id="Combined-Shape"></path>
                    </g>
                </g>
            </g>
        </g>
    </g>
</svg>