<?xml version="1.0" encoding="UTF-8"?>
<svg width="80px" height="80px" viewBox="0 0 80 80" version="1.1" xmlns="http://www.w3.org/2000/svg" xmlns:xlink="http://www.w3.org/1999/xlink">
    <!-- Generator: sketchtool 64 (101010) - https://sketch.com -->
    <title>9E61BB55-BCB0-4DCB-AF87-6D7C2F2E72BF</title>
    <desc>Created with sketchtool.</desc>
    <defs>
        <linearGradient x1="0%" y1="50.0007883%" x2="99.9987174%" y2="50.0007883%" id="linearGradient-1">
            <stop stop-color="#E29A64" offset="0%"></stop>
            <stop stop-color="#E85E8C" offset="100%"></stop>
        </linearGradient>
    </defs>
    <g id="Careers" stroke="none" stroke-width="1" fill="none" fill-rule="evenodd">
        <g id="Career" transform="translate(-211.000000, -1615.000000)" fill="url(#linearGradient-1)" fill-rule="nonzero">
            <g id="Group-9" transform="translate(211.000000, 1032.000000)">
                <g id="Group-4-Copy-4" transform="translate(0.000000, 583.000000)">
                    <g id="cp">
                        <g id="career" transform="translate(9.000000, 9.000000)">
                            <path d="M15.5,49.3615392 C16.117243,49.3615392 16.6250823,49.8308008 16.6861511,50.431957 L16.6923079,50.5538469 L16.6923079,59.853847 C16.6923079,60.4710898 16.2230464,60.9789291 15.6218899,61.0399979 L15.5,61.0461548 L1.19230771,61.0461548 C0.575064912,61.0461548 0.0672256621,60.5768932 0.00615686044,59.9757369 L-1.24344979e-13,59.853847 L-1.24344979e-13,50.5538469 C-1.24344979e-13,49.9366041 0.469261576,49.4287649 1.07041783,49.3676961 L1.19230771,49.3615392 L15.5,49.3615392 Z M37.6769234,45.307693 C38.2941664,45.307693 38.8020057,45.7769546 38.8630745,46.3781108 L38.8692313,46.5000007 L38.8692313,59.853847 C38.8692313,60.4710898 38.3999698,60.9789291 37.7988133,61.0399979 L37.6769234,61.0461548 L23.3692311,61.0461548 C22.7519883,61.0461548 22.2441491,60.5768932 22.1830803,59.9757369 L22.1769234,59.853847 L22.1769234,46.5000007 C22.1769234,45.8827579 22.646185,45.3749186 23.2473412,45.3138498 L23.3692311,45.307693 L37.6769234,45.307693 Z M34.3890159,-5.11317484e-13 C37.0324562,-5.11317484e-13 39.1960501,2.0939166 39.3080928,4.71037532 L39.3126506,4.92363469 L39.3126506,5.98967701 C39.3126506,6.8758001 39.076216,7.70707704 38.6648698,8.42615782 C41.7691622,8.05983121 44.6514942,6.71554339 46.9473069,4.54314767 L47.2434046,4.25510776 L47.324243,4.17426929 C48.0509546,3.44755774 49.0172007,3.04730005 50.0448507,3.04730005 C51.07262,3.04730005 52.0387469,3.44755774 52.7654585,4.17438852 C54.2137752,5.62259014 54.2637172,7.94809658 52.9152843,9.45701661 L52.7654585,9.61548476 L52.68462,9.69644245 C49.3914003,12.989547 45.3056831,15.1124672 40.7909508,15.8917788 L40.3056044,15.9701272 L40.3056044,24.123485 L40.304278,24.1613407 L40.304278,24.1613407 L40.3017891,24.1988388 L44.064593,26.3898235 C44.7760755,26.8040962 45.350689,27.4317033 45.7027951,28.1740175 L45.8016661,28.4000543 L49.65282,37.9946736 C50.0596354,39.0081352 50.0474738,40.1194852 49.6184815,41.1238852 L49.5330676,41.3109136 L49.5330676,41.3109136 L49.4391584,41.4923083 L59.853847,41.4923083 C60.4710898,41.4923083 60.9792435,41.9615699 61.0403516,42.5627261 L61.0465124,42.684616 L61.0465124,59.853847 C61.0465124,60.4710898 60.5772509,60.9789291 59.9760946,61.0399979 L59.8542047,61.0461548 L45.5465122,61.0461548 C44.9292694,61.0461548 44.4214302,60.5768932 44.3603614,59.9757369 L44.3542045,59.853847 L44.3542045,43.3233353 C43.3975127,42.9469794 42.6056519,42.2166575 42.1553419,41.2514108 L42.0641391,41.0410198 L38.7618044,32.8138582 L34.1093005,30.7010889 L31.7358928,33.995912 C31.3510159,34.5303044 30.6059428,34.6514428 30.0715504,34.2665659 C29.5727843,33.9072361 29.4340081,33.2341355 29.7306406,32.7116989 L29.8008966,32.6022236 L32.7453005,28.5148735 C33.0518153,28.0893847 33.5958547,27.9178787 34.0848307,28.0788477 L34.2057582,28.126062 L40.1830352,30.8403505 C40.4225869,30.9491911 40.6182519,31.1334538 40.741273,31.36333 L40.7965968,31.4819312 L44.2770622,40.1529891 C44.5379391,40.8031545 45.1591314,41.2232045 45.859493,41.2232045 C46.0760161,41.2230852 46.2895584,41.1815929 46.4932045,41.0998006 C46.9158776,40.9302545 47.2468622,40.6063045 47.4257084,40.187566 C47.5821988,39.8213785 47.6055941,39.4209587 47.4954151,39.0435772 L47.4400161,38.8834198 L43.5888622,29.2888004 C43.468371,28.9885433 43.2622088,28.7270921 43.0003342,28.5388354 L42.8648929,28.4509658 L37.4812659,25.3162696 L29.2780697,25.3162696 L25.3075658,33.377462 C25.2086042,33.5783659 25.0554092,33.7465641 24.8665416,33.8637028 L24.7490888,33.927712 L15.6442695,38.2479198 C15.2329233,38.4431006 14.9222079,38.7867237 14.7693541,39.2154775 C14.6166194,39.6443506 14.6398694,40.106966 14.8350502,40.5181929 C15.1159579,41.1101737 15.7210541,41.492666 16.3768233,41.492666 C16.5787526,41.492666 16.7759507,41.4571066 16.9650603,41.3867204 L17.1053233,41.3274122 L22.2733811,38.8751929 C22.8685811,38.592616 23.579435,38.846339 23.8616542,39.4411814 C24.1251701,39.9964788 23.9219246,40.6529391 23.4100251,40.9674538 L23.2956657,41.0294545 L18.127608,43.4816737 C17.5746156,43.7441007 16.9854964,43.8771622 16.3767041,43.8771622 C14.8047656,43.8771622 13.3539656,42.9598006 12.6805502,41.5402391 C12.2124502,40.5536045 12.1564117,39.4436852 12.5231656,38.4148429 C12.8637227,37.4594893 13.5306893,36.6804482 14.4142831,36.1990529 L14.6219848,36.0933005 L23.3518234,31.9511043 L26.8580427,24.8324311 C26.7403381,24.6738065 26.6604058,24.4854219 26.633141,24.2803412 L26.6228004,24.1236042 L26.6228004,16.6148079 C24.1402651,17.1982229 21.8761382,18.4192061 19.9949566,20.1960466 L19.6850003,20.4973195 L19.6041618,20.578158 C18.1040003,22.0783196 15.6629887,22.0783196 14.1628271,20.578158 C12.7145104,19.1298413 12.6645684,16.8043309 14.0130013,15.2954107 L14.1628271,15.1369425 L14.2436656,15.0559848 C18.3451735,10.9547092 23.763363,8.64881576 29.5448669,8.53326124 L30.0020389,8.52869628 L30.1721812,8.52869628 C29.7687043,7.86102781 29.5189778,7.09040834 29.4730673,6.2662949 L29.4653812,5.98967701 L29.4653812,4.92363469 C29.4653812,2.2086308 31.6741312,-5.11317484e-13 34.3890159,-5.11317484e-13 Z M14.3076925,51.7461546 L2.38461542,51.7461546 L2.38461542,58.6615393 L14.3076925,58.6615393 L14.3076925,51.7461546 Z M36.4846159,47.6923084 L24.5615388,47.6923084 L24.5615388,58.6615393 L36.4846159,58.6615393 L36.4846159,47.6923084 Z M58.6615393,43.8769237 L46.7384622,43.8769237 L46.7384622,58.6615393 L58.6615393,58.6615393 L58.6615393,43.8769237 Z M27.6329235,36.4595775 C27.9465004,36.4595775 28.2529235,36.5871544 28.475885,36.8089236 C28.697535,37.0306929 28.8240389,37.3383082 28.8240389,37.6518852 C28.8240389,37.9654621 28.697535,38.2730775 28.475885,38.4947275 C28.2529235,38.716616 27.9465004,38.8441929 27.6329235,38.8441929 C27.3181543,38.8441929 27.0117312,38.7164967 26.7887696,38.4947275 C26.5670004,38.2730775 26.4406158,37.9654621 26.4406158,37.6518852 C26.4406158,37.3383082 26.5670004,37.0306929 26.7887696,36.8089236 C27.0117312,36.5870352 27.3193466,36.4595775 27.6329235,36.4595775 Z M50.0446123,5.43191547 C49.7026286,5.43191547 49.3786283,5.54857905 49.1179007,5.76281602 L49.0101661,5.86055009 L48.9293277,5.94138855 C45.8234033,9.04731288 41.7257511,10.8015422 37.3502839,10.9081484 L36.9260082,10.9133117 L30.0018004,10.9133117 C24.8380111,10.9133117 19.9744116,12.8669082 16.2549088,16.4242312 L15.9297079,16.7422656 L15.8488695,16.8231041 C15.2784695,17.3936233 15.2784695,18.3217157 15.8488695,18.8919964 C16.3836195,19.4268582 17.2328523,19.4602871 17.8068144,18.992283 L17.9177618,18.8919964 L17.9986003,18.811158 C20.6392042,16.1704349 23.977308,14.5070464 27.6521196,14.0007925 C27.9940735,13.9538156 28.3386504,14.0567117 28.5984543,14.283131 C28.8256783,14.4812478 28.9682802,14.7568665 29.0003803,15.0535951 L29.0072966,15.1818925 L29.0072966,22.9311773 L37.9208698,22.9311773 L37.9208698,14.9192271 C37.9208698,14.3076925 38.383366,13.7953579 38.9916814,13.7331194 C43.4184496,13.2800465 47.4456854,11.4157971 50.6677877,8.33347858 L50.99822,8.01028089 L51.0790585,7.92944243 C51.6138085,7.39458064 51.6472303,6.54544564 51.1793241,5.97149618 L51.0790585,5.86055009 L50.9712897,5.76266768 C50.710505,5.54839648 50.3865959,5.43191547 50.0446123,5.43191547 Z M34.3890159,2.38461542 C33.0450085,2.38461542 31.9415351,3.43432847 31.8554077,4.75694274 L31.8499966,4.92363469 L31.8499966,5.98967701 C31.8499966,7.38980396 32.9890082,8.52869628 34.3890159,8.52869628 C35.7330233,8.52869628 36.8364966,7.47898323 36.9226241,6.15636896 L36.9280352,5.98967701 L36.9280352,4.92363469 C36.9280352,3.52362698 35.7890236,2.38461542 34.3890159,2.38461542 Z" id="Combined-Shape"></path>
                        </g>
                    </g>
                </g>
            </g>
        </g>
    </g>
</svg>