<?xml version="1.0" encoding="UTF-8"?>
<svg width="80px" height="80px" viewBox="0 0 80 80" version="1.1" xmlns="http://www.w3.org/2000/svg" xmlns:xlink="http://www.w3.org/1999/xlink">
    <!-- Generator: sketchtool 64 (101010) - https://sketch.com -->
    <title>5F36BF0A-5440-4445-A23D-31A0732E9F04</title>
    <desc>Created with sketchtool.</desc>
    <defs>
        <linearGradient x1="0%" y1="50.0007883%" x2="99.9987174%" y2="50.0007883%" id="linearGradient-1">
            <stop stop-color="#E29A64" offset="0%"></stop>
            <stop stop-color="#E85E8C" offset="100%"></stop>
        </linearGradient>
    </defs>
    <g id="Careers" stroke="none" stroke-width="1" fill="none" fill-rule="evenodd">
        <g id="Career" transform="translate(-1032.000000, -1394.000000)" fill="url(#linearGradient-1)" fill-rule="nonzero">
            <g id="Group-9" transform="translate(211.000000, 1032.000000)">
                <g id="Group-4-Copy-3" transform="translate(821.000000, 362.000000)">
                    <g id="hwh">
                        <path d="M58.5,45 C66.5081289,45 73,51.4918711 73,59.5 C73,67.5081289 66.5081289,74 58.5,74 C50.4918711,74 44,67.5081289 44,59.5 C44,51.4918711 50.4918711,45 58.5,45 Z M58.5,48 C52.1487254,48 47,53.1487254 47,59.5 C47,65.8512746 52.1487254,71 58.5,71 C64.8512746,71 70,65.8512746 70,59.5 C70,53.1487254 64.8512746,48 58.5,48 Z M12.5,40 C12.5,40.6693205 12.5239117,41.3330561 12.5709276,41.9903992 L12.6213769,42.6017962 L12.6852661,43.2105053 C12.7389715,43.6726676 12.8042722,44.1325194 12.8810627,44.5897563 C12.9523139,45.0140106 13.033457,45.4360136 13.1244076,45.8555222 C13.5331042,47.7386957 14.1344414,49.5500941 14.9069793,51.2678443 L15.1535616,51.8007609 L15.394,52.294 L15.561,52.621 L15.696,52.879 L15.992,53.421 L16.218,53.817 L16.525,54.331 L16.8445344,54.8411562 C17.6850081,56.1497657 18.6333804,57.3824738 19.6770885,58.5267178 L20.1126926,58.9933674 L20.602,59.493 L21.0705065,59.9481249 L21.305,60.166 L21.6417602,60.475324 L22.19,60.953 L22.539,61.246 L22.7539772,61.4214183 C24.3262736,62.6888516 26.0409856,63.7867213 27.8703318,64.6872459 L28.5706171,65.0201425 L29.0037752,65.2134088 L29.45,65.403 L29.6944351,65.5038413 L30.2220986,65.7113545 L30.4830488,65.8091292 L31.042,66.007 L31.611825,66.1972418 C32.9087235,66.6121572 34.2474948,66.9334379 35.6201861,67.1531315 L36.275,67.249 L36.7961763,67.3155058 L37.1010548,67.349137 L37.6991371,67.4051718 L38.205,67.441 L38.7138132,67.4704221 L39.362,67.492 L39.83085,67.4994667 L40.0045758,67.5 C40.3128587,67.4999495 40.6205146,67.4948325 40.9274664,67.4846703 L41.0267326,70.4830275 L40.5163752,70.4957122 L40,70.5 L39.6727522,70.4982807 L39.2430798,70.4907167 C38.8052286,70.4801283 38.3695393,70.4602296 37.9363263,70.4312853 L37.1285036,70.3664854 L36.8228381,70.336497 L36.3819993,70.2875025 L36.0874593,70.2513692 L35.5807782,70.1821822 C33.4546335,69.8735934 31.3995469,69.3456735 29.4392078,68.622112 L29.0520941,68.4761607 L28.739015,68.3533439 C28.3496913,68.1990222 27.9639854,68.03634 27.5824198,67.8660508 L26.9586093,67.5790923 L26.3039901,67.2590109 C24.5844079,66.3936529 22.958074,65.3701606 21.4439322,64.2077819 L20.933,63.806 L20.5883922,63.5263791 L20.1728734,63.1768792 L19.7600454,62.8169614 L19.329252,62.4272068 L18.8097441,61.936835 L18.3307743,61.4638018 L17.921282,61.0424248 L17.4585783,60.546193 C16.4305563,59.4189665 15.4861322,58.2146213 14.6348643,56.9427067 L14.251,56.355 L13.994,55.943 L13.8841035,55.763 C13.6768559,55.4206606 13.4762004,55.0738004 13.2822812,54.7226709 L12.9462102,54.0963792 L12.6436871,53.5009731 L12.3827933,52.9606269 L12.0799607,52.2949579 C11.3713582,50.6889342 10.7976311,49.0104591 10.3726886,47.273643 L10.189,46.48 L10.0743307,45.9195064 C10.001525,45.5508221 9.93560398,45.1794551 9.87646711,44.8058309 L9.83870855,44.5594561 L9.76996866,44.074686 L9.75718039,43.9775887 C9.67684644,43.3617972 9.61496299,42.7400099 9.57204961,42.11296 L9.53187894,41.4064 C9.51825384,41.1068345 9.50897876,40.8061366 9.50408613,40.5043733 L9.5,40 L12.5,40 Z M53.6261755,62.7823719 C54.5734001,64.7510771 56.44087,66 58.5,66 C60.3184718,66 61.9919784,65.0275927 63.0147488,63.4267277 L63.1444217,63.2143834 L64.8720287,64.2220411 C63.5156946,66.5474462 61.1290417,68 58.5,68 C55.7413485,68 53.2603698,66.4002896 51.9509373,63.9022746 L51.8239323,63.6495048 L53.6261755,62.7823719 Z M54,54 C55.6568542,54 57,55.3431458 57,57 C57,58.6568542 55.6568542,60 54,60 C52.3431458,60 51,58.6568542 51,57 C51,55.3431458 52.3431458,54 54,54 Z M63,54 C64.6568542,54 66,55.3431458 66,57 C66,58.6568542 64.6568542,60 63,60 C61.3431458,60 60,58.6568542 60,57 C60,55.3431458 61.3431458,54 63,54 Z M41.5,18.2675781 L41.5,38.5 L54.6933594,38.5 L54.6933594,41.5 L38.5,41.5 L38.5,18.2675781 L41.5,18.2675781 Z M69.9865769,34.399059 C70.3050819,36.1145295 70.4768514,37.8631116 70.4978156,39.6313478 L67.4980264,39.6669134 C67.4791017,38.0706961 67.3241613,36.4934309 67.0369853,34.9466987 L69.9865769,34.399059 Z M10.8083455,31.1362977 L13.6792356,32.0069239 C13.2217061,33.5156275 12.894407,35.0659232 12.7024534,36.6449383 L9.72437791,36.2829074 C9.93732222,34.5312221 10.3005444,32.8107717 10.8083455,31.1362977 Z M66.2646351,24.4855855 C67.1587877,25.996213 67.9212988,27.5821065 68.5424279,29.2269446 L65.7358682,30.2867667 C65.1761772,28.8046253 64.4889821,27.3753763 63.6829858,26.0136845 L66.2646351,24.4855855 Z M15.5453615,21.7701275 L17.9492714,23.5649025 C17.0020544,24.8335987 16.1656234,26.1815531 15.4503726,27.593979 L12.7739763,26.2386552 C13.5673898,24.6718791 14.4950355,23.1769273 15.5453615,21.7701275 Z M59.4862577,16.5355269 C60.8360796,17.6576755 62.0876159,18.8942063 63.2260011,20.2303863 L60.9424046,22.1759419 C59.9153699,20.9704598 58.7862056,19.8548337 57.5684322,18.8424611 L59.4862577,16.5355269 Z M23.1532828,14.571077 L24.8123611,17.0705688 C23.4931047,17.9462467 22.2510691,18.9345307 21.1006397,20.0233138 L19.0385013,17.8444184 C20.3137162,16.6375365 21.6905822,15.5419683 23.1532828,14.571077 Z M50.3621984,11.3058083 C52.0158862,11.9030994 53.6123686,12.6425497 55.1353684,13.5146721 L53.6445852,16.1180479 C52.2718285,15.3319599 50.833123,14.6655878 49.3430748,14.1274013 L50.3621984,11.3058083 Z M32.8171848,10.3509693 L33.5212786,13.2671744 C31.978985,13.6395485 30.4766899,14.1445643 29.0283554,14.7754556 L27.8302917,12.0250659 C29.4377642,11.3248545 31.1053109,10.7642872 32.8171848,10.3509693 Z M40,9.5 C41.7686063,9.5 43.5187675,9.65069192 45.2371858,9.94817203 L44.7254587,12.9042058 C43.175865,12.6359513 41.5969034,12.5 40,12.5 L40,9.5 Z M39.9899612,9.50000162 L39.9909285,12.5000016 C39.3732552,12.5002006 38.7581435,12.5207404 38.1462248,12.5614378 L37.9471408,9.56805087 C38.6249943,9.52296823 39.3061809,9.50022209 39.9899612,9.50000162 Z" id="Combined-Shape"></path>
                    </g>
                </g>
            </g>
        </g>
    </g>
</svg>