<?xml version="1.0" encoding="UTF-8"?>
<svg width="80px" height="80px" viewBox="0 0 80 80" version="1.1" xmlns="http://www.w3.org/2000/svg" xmlns:xlink="http://www.w3.org/1999/xlink">
    <!-- Generator: sketchtool 64 (101010) - https://sketch.com -->
    <title>ACFF8161-B69E-461E-9461-AA8CEFE888F8</title>
    <desc>Created with sketchtool.</desc>
    <defs>
        <linearGradient x1="0%" y1="50.0007883%" x2="99.9987174%" y2="50.0007883%" id="linearGradient-1">
            <stop stop-color="#E29A64" offset="0%"></stop>
            <stop stop-color="#E85E8C" offset="100%"></stop>
        </linearGradient>
    </defs>
    <g id="Careers" stroke="none" stroke-width="1" fill="none" fill-rule="evenodd">
        <g id="Career" transform="translate(-1032.000000, -1615.000000)" fill="url(#linearGradient-1)" fill-rule="nonzero">
            <g id="Group-9" transform="translate(211.000000, 1032.000000)">
                <g id="Group-4-Copy-5" transform="translate(821.000000, 583.000000)">
                    <g id="ib">
                        <path d="M40,8 C57.673112,8 72,22.326888 72,40 C72,48.4546204 68.7212067,56.1434376 63.3658067,61.8642651 L63.3650794,68.952381 L60.3174603,68.952381 L60.3180164,64.7232076 C54.7919165,69.2699366 47.7147785,72 40,72 C22.326888,72 8,57.673112 8,40 C8,32.3796332 10.6636525,25.3813957 15.1106849,19.8855601 L15.1111111,12.5714286 L18.1587302,12.5714286 L18.1576685,16.6136799 C23.8762076,11.2704217 31.5561798,8 40,8 Z M40,11.047619 C32.1863399,11.047619 25.0956222,14.1429032 19.8871164,19.174202 L24.7619048,19.1746032 L24.7619048,22.2222222 L17.1464533,22.2227012 C13.3243305,27.1291796 11.047619,33.2987126 11.047619,40 C11.047619,55.9899585 24.0100415,68.952381 40,68.952381 C46.9906245,68.952381 53.4025847,66.4748252 58.4057075,62.349887 L53.7142857,62.3492063 L53.7142857,59.3015873 L61.5801047,59.3016966 C66.1646751,54.1794621 68.952381,47.4152829 68.952381,40 C68.952381,24.0100415 55.9899585,11.047619 40,11.047619 Z M41.6297428,19.6825397 L41.6297428,24.8247855 C44.9978779,25.2719373 47.2251931,26.9487566 48.5833121,29.4639855 L48.5833121,29.4639855 L46.0843731,31.1408048 C45.0522027,29.3521976 43.9113827,28.1784241 41.6297428,27.7871662 L41.6297428,27.7871662 L41.6297428,37.5127181 L42.2273152,37.6804 C47.6054664,39.4131133 50.1587302,41.8724482 50.1587302,46.2880723 C50.1587302,50.9831663 46.9535693,53.8337591 41.6297428,54.2250169 L41.6297428,54.2250169 L41.6297428,60.3174603 L38.9678296,60.3174603 L38.9678296,54.2250169 C34.3502249,53.7778651 31.2537136,51.2067422 29.8412698,47.9648916 L29.8412698,47.9648916 L32.6118326,46.2880723 C33.8069773,49.0268771 35.7083439,50.8154844 38.9678296,51.2067422 L38.9678296,51.2067422 L38.9678296,40.1956289 L38.8048553,40.1397349 C33.8069773,38.5188096 31.3623631,36.3389446 31.3623631,31.9233205 C31.3623631,27.7871662 34.5131992,25.0483614 38.9678296,24.7688915 L38.9678296,24.7688915 L38.9678296,19.6825397 L41.6297428,19.6825397 Z M41.6297428,41.0340386 L41.6297428,51.2067422 C45.0522027,50.8713784 46.8992445,49.1386651 46.8992445,46.3998603 C46.8992445,43.4374795 45.4868008,42.263706 41.6297428,41.0340386 L41.6297428,41.0340386 Z M38.9678296,27.7312722 C36.3602411,27.9548481 34.6218487,29.2963036 34.6218487,31.7556385 C34.6218487,34.3826554 35.7626687,35.6123229 38.9678296,36.6743084 L38.9678296,36.6743084 Z" id="Combined-Shape"></path>
                    </g>
                </g>
            </g>
        </g>
    </g>
</svg>