<?xml version="1.0" encoding="UTF-8"?>
<svg width="80px" height="80px" viewBox="0 0 80 80" version="1.1" xmlns="http://www.w3.org/2000/svg" xmlns:xlink="http://www.w3.org/1999/xlink">
    <!-- Generator: sketchtool 64 (101010) - https://sketch.com -->
    <title>3B2DE8BE-9F63-47ED-9160-6F63DE26F9D4</title>
    <desc>Created with sketchtool.</desc>
    <defs>
        <linearGradient x1="0%" y1="50.0007883%" x2="99.9987174%" y2="50.0007883%" id="linearGradient-1">
            <stop stop-color="#E29A64" offset="0%"></stop>
            <stop stop-color="#E85E8C" offset="100%"></stop>
        </linearGradient>
    </defs>
    <g id="Careers" stroke="none" stroke-width="1" fill="none" fill-rule="evenodd">
        <g id="Career" transform="translate(-211.000000, -1394.000000)" fill="url(#linearGradient-1)" fill-rule="nonzero">
            <g id="Group-9" transform="translate(211.000000, 1032.000000)">
                <g id="Group-4-Copy-2" transform="translate(0.000000, 362.000000)">
                    <g id="owc">
                        <path d="M62.8716032,36.2320865 L63.1485892,36.4225252 C69.2128242,40.6720205 71.9649848,47.9337486 70.744125,54.8111243 L70.744125,54.8111243 L70.81412,54.8577792 C74.248106,57.174032 75.1542078,61.8355217 72.837955,65.2695077 C70.5217021,68.7034938 65.8602125,69.6095956 62.4262264,67.2933428 L62.4262264,67.2933428 L62.3581942,67.2460029 C56.3488245,71.0101714 48.4389467,71.1272009 42.1814658,66.9064767 L42.1814658,66.9064767 L43.8590445,64.419364 L44.1230388,64.5936151 C49.1410164,67.8340865 55.3607707,67.8108589 60.2382945,65.0188236 C58.7382394,62.5878951 58.7012295,59.4036905 60.4023914,56.8816142 C62.1035534,54.3595379 65.0697606,53.2010289 67.8854473,53.6814985 C68.6604582,48.0145019 66.2563458,42.1337781 61.1940245,38.7191992 L61.1940245,38.7191992 L62.8716032,36.2320865 Z M17.2493299,36.2320865 L18.9269086,38.7191992 C13.8646082,42.133764 11.4604947,48.0144536 12.2354763,53.6814286 C15.0511725,53.2010289 18.0173798,54.3595379 19.7185417,56.8816142 C21.4197036,59.4036905 21.3826937,62.5878951 19.8826386,65.0188236 C24.7602888,67.8108594 30.9799677,67.8340536 35.9978943,64.5936151 L36.2618886,64.419364 L37.9394673,66.9064767 C31.6820828,71.1271358 23.7723525,71.010175 17.7630169,67.246177 L17.6947067,67.2933428 C14.2607206,69.6095956 9.59923095,68.7034938 7.28297811,65.2695077 C4.96672526,61.8355217 5.87282706,57.174032 9.30681313,54.8577792 L9.37625929,54.8114857 L9.37625929,54.8114857 C8.15606673,47.9334361 10.9082394,40.671929 16.9723439,36.4225252 L17.2493299,36.2320865 Z M13.5790467,56.5758577 L13.5411362,56.5753244 C13.4943593,56.5748617 13.4474192,56.5751292 13.4004639,56.5761316 C13.3746392,56.5766839 13.348965,56.5774525 13.3232893,56.5784413 C13.2860808,56.5798742 13.2488646,56.5817699 13.211654,56.5841299 C13.1190333,56.5900085 13.0266516,56.5987383 12.9344414,56.610359 C12.2578498,56.6954524 11.589372,56.9368276 10.9843918,57.3448919 C10.544281,57.6417504 10.1733744,58.002813 9.87573321,58.4071872 C9.68041512,58.6727796 9.51651861,58.9569954 9.38537459,59.2539804 C9.34145436,59.3532199 9.30110639,59.4543826 9.26449425,59.5567606 L9.22440594,59.6740775 L9.22440594,59.6740775 C9.17342038,59.8297757 9.13091105,59.988579 9.0971394,60.1491937 C9.092318,60.1722783 9.08765093,60.195364 9.08316426,60.2184847 C9.07441384,60.2634197 9.06634575,60.308668 9.05896776,60.3540325 C9.05555614,60.3751682 9.0523012,60.3961106 9.04919333,60.4170762 C9.0427249,60.4605475 9.03688411,60.5043541 9.03168532,60.5482458 C9.02895828,60.5714395 9.02641608,60.5944132 9.02404985,60.6174079 C9.01930266,60.6633554 9.01525797,60.7096333 9.01192672,60.7559788 C9.01015249,60.7808712 9.00858087,60.8055807 9.00721227,60.8303067 C9.00503013,60.8694857 9.0033655,60.9088782 9.00221711,60.948302 C9.00139474,60.9769114 9.00083496,61.0054032 9.00054532,61.0339072 L9.00083048,61.1485562 L9.00083048,61.1485562 C9.00135418,61.1825313 9.0022689,61.2168857 9.00357797,61.251243 L9.00793377,61.3417442 L9.00793377,61.3417442 C9.01021341,61.3808268 9.01303497,61.4203235 9.01638143,61.4598053 C9.01896142,61.4902927 9.02186168,61.5208009 9.02507648,61.5512954 C9.02855203,61.5842269 9.03237986,61.6170552 9.0365738,61.6498613 C9.04041195,61.6799126 9.04458349,61.7101035 9.04906639,61.7402707 C9.05546132,61.7832842 9.06246709,61.8261374 9.07010527,61.8689291 C9.07435818,61.8927647 9.07881603,61.9166178 9.08347114,61.9404494 C9.09152348,61.981656 9.10011504,62.0225785 9.10929252,62.0634249 C9.11526422,62.0900214 9.12160914,62.1170936 9.12821276,62.1441287 C9.1375847,62.1824857 9.1474107,62.2205257 9.15775282,62.258482 C9.16608367,62.2890515 9.17467924,62.3193282 9.18360536,62.3495463 C9.19372019,62.3837934 9.20431883,62.4181503 9.21534813,62.4524238 C9.22975433,62.4971956 9.24493795,62.5419437 9.26086367,62.5865316 C9.26696812,62.6036198 9.27310715,62.6204839 9.27935281,62.6373241 C9.29681843,62.6844252 9.31521544,62.7315766 9.33445905,62.7785186 C9.34287913,62.7990536 9.35132185,62.8192223 9.35992178,62.8393506 C9.37938072,62.8849026 9.39976731,62.93051 9.42097215,62.9758886 C9.42947785,62.9940923 9.43817133,63.0123751 9.44699842,63.0306194 C9.47395463,63.0863274 9.50206017,63.1414958 9.53141027,63.1962713 C9.53510376,63.2031655 9.53894688,63.2102928 9.54281114,63.2174134 C9.611907,63.3447158 9.68759239,63.4696201 9.77009083,63.591929 C9.85258926,63.714238 9.94004625,63.8312022 10.0320134,63.9427346 C10.0373498,63.9492055 10.0425185,63.9554387 10.0477013,63.9616549 C10.0873192,64.009178 10.1279419,64.0559034 10.1693595,64.1016152 C10.1831049,64.1167844 10.1967998,64.1316937 10.2105792,64.1464934 L10.3144206,64.2543561 L10.3144206,64.2543561 L10.3608286,64.3003022 L10.3608286,64.3003022 C10.3973964,64.3359759 10.4342228,64.3706965 10.47154,64.4047067 L10.511361,64.4405639 L10.511361,64.4405639 C10.5468946,64.4721737 10.5826964,64.5030147 10.6189079,64.5332243 L10.7024608,64.601236 L10.7024608,64.601236 L10.7768578,64.6590472 L10.7768578,64.6590472 C10.8083768,64.6830075 10.8399662,64.7063683 10.8718165,64.7292799 C10.894609,64.7456739 10.917333,64.7616982 10.9401847,64.7774959 C10.9741944,64.801013 11.0089189,64.8243091 11.0439212,64.847088 C11.0644562,64.8604505 11.0849025,64.8735193 11.1054403,64.8864127 C11.1422299,64.9095093 11.1793389,64.9320585 11.216728,64.9540417 C11.2431093,64.969552 11.2695391,64.9847295 11.2961026,64.9996262 L11.3829794,65.0470936 L11.3829794,65.0470936 L11.4646421,65.0894812 L11.4646421,65.0894812 C11.4999815,65.1073673 11.5355458,65.1247797 11.5713099,65.1417089 C11.5980475,65.1543686 11.6252931,65.1669362 11.6526491,65.1792249 C11.6845761,65.1935617 11.7160868,65.2072798 11.7477356,65.2206298 C11.7826289,65.2353519 11.8180522,65.2497688 11.8536371,65.2637271 C11.8801262,65.2741179 11.9067536,65.2842726 11.9334668,65.2941715 C11.9705518,65.3079129 12.0076995,65.3211262 12.045001,65.3338471 L12.1153618,65.3571996 L12.1153618,65.3571996 C12.1597435,65.3715248 12.2041668,65.3851107 12.2487771,65.3980063 C12.2707824,65.4043685 12.2930362,65.4106181 12.3153342,65.4166963 C12.3581764,65.4283724 12.4009811,65.4393671 12.4439324,65.4497318 C12.464348,65.4546593 12.4849855,65.4594872 12.5056551,65.4641698 C12.5506499,65.4743613 12.5956257,65.483831 12.6407352,65.492614 C12.6637262,65.4970911 12.68688,65.5014127 12.7100667,65.5055535 C12.8716178,65.5344049 13.034782,65.5544797 13.1987643,65.5656238 C13.2393953,65.5683892 13.2805355,65.570625 13.3217149,65.5722978 C13.4306724,65.576716 13.5395835,65.5772022 13.6485432,65.5737259 C13.9726438,65.5634147 14.2975841,65.5179436 14.6170405,65.436175 C14.7218376,65.4093552 14.8262092,65.3785744 14.929779,65.3438342 C14.9606118,65.3334909 14.9912304,65.3228481 15.0217731,65.3118567 C15.0534605,65.300456 15.0853747,65.288561 15.1171993,65.2762821 L15.1495782,65.2636446 C15.4480165,65.145904 15.7392694,64.993648 16.017128,64.80623 C16.8626572,64.2359134 17.4527598,63.4286255 17.7586392,62.5325121 C17.7644721,62.5123623 17.7711,62.4925355 17.777589,62.4726672 C17.9502991,61.9457493 18.0243461,61.3893905 17.9949245,60.8334476 C17.9891028,60.7266712 17.9796086,60.6194003 17.9662163,60.5123587 C17.9627252,60.4833921 17.9587774,60.4542056 17.9545388,60.4250404 L17.9401199,60.3332443 L17.9401199,60.3332443 C17.9337246,60.2942166 17.9266668,60.2550597 17.9190782,60.2159604 C17.9130693,60.1854381 17.9069307,60.1554528 17.9004781,60.1255063 C17.8921946,60.0867169 17.8831504,60.0473332 17.8735596,60.0080277 C17.8670497,59.9815858 17.8604404,59.9555191 17.8535892,59.9294902 C17.8429174,59.8887709 17.8315972,59.8481211 17.8196823,59.807576 C17.8114091,59.7795432 17.8028629,59.7514751 17.7940298,59.7234615 C17.7786917,59.6747195 17.7623649,59.6258907 17.7451565,59.5772504 C17.7406218,59.5644979 17.7363141,59.5524906 17.7319526,59.5404951 C17.712641,59.4873079 17.6919496,59.4336146 17.6701631,59.3801909 L17.6502688,59.3322286 L17.6502688,59.3322286 C17.6283965,59.2803136 17.6056313,59.229005 17.5818323,59.1779849 C17.5750581,59.1634707 17.5681104,59.1487822 17.5610767,59.1341183 C17.5395633,59.0892632 17.5172872,59.0447292 17.4942053,59.0004436 C17.4825954,58.9781706 17.4707353,58.9558714 17.4586692,58.933638 C17.4308642,58.8824079 17.4020703,58.831705 17.3721848,58.7813778 C17.365643,58.7703623 17.3590974,58.7594446 17.3525003,58.7485449 L17.3458254,58.7375516 L17.231429,58.5591929 L17.124,58.407 L17.115,58.395 L17.0782073,58.3455286 L17.0782073,58.3455286 C17.0426835,58.2988922 17.006459,58.2532013 16.9695064,58.2083874 C16.9532814,58.1887124 16.9370489,58.1693622 16.9206807,58.1501789 C16.8883319,58.1122646 16.8553854,58.0749279 16.8219254,58.038249 C16.8108964,58.0261595 16.7998802,58.0142151 16.7888096,58.0023414 C16.7505687,57.9613225 16.7115241,57.9209945 16.6718521,57.8815222 L16.6263732,57.8369119 L16.6263732,57.8369119 C16.5944438,57.8060331 16.5620186,57.7756011 16.5292145,57.7457179 C16.5029745,57.7218103 16.4762052,57.6980051 16.4491954,57.6745601 C16.4219315,57.6508989 16.3947484,57.627874 16.3673335,57.605209 C16.3432666,57.5853099 16.3188439,57.5655479 16.2942448,57.5460682 C16.2611825,57.5198856 16.2277333,57.494162 16.1939765,57.4689529 C16.1724335,57.4528647 16.1507421,57.4369694 16.1289284,57.4212847 C16.0957885,57.3974601 16.0626605,57.3743212 16.0292662,57.351662 L15.9533354,57.3012629 L15.9533354,57.3012629 C15.9194894,57.2792967 15.8858276,57.2580845 15.8519242,57.2373448 C15.8256907,57.2212955 15.79915,57.2054344 15.7724678,57.1898606 C15.7468733,57.174923 15.7212909,57.1603291 15.6955842,57.1459977 C15.6008939,57.0932011 15.5042879,57.043859 15.4062047,56.9981365 C15.3706019,56.9815345 15.3342965,56.9651888 15.2978019,56.9493357 C15.2094006,56.9109387 15.1200493,56.87549 15.0297452,56.8429514 C14.8321854,56.7719871 14.6345267,56.7158811 14.4340262,56.6733967 L14.3443671,56.6553428 L14.3443671,56.6553428 L14.2209535,56.6335519 L14.2209535,56.6335519 L14.1683527,56.6253303 L14.1683527,56.6253303 C14.1224616,56.6184284 14.0759659,56.6121727 14.0293741,56.6066404 C13.9995273,56.6031022 13.9705104,56.5999467 13.9414607,56.597072 L13.8705528,56.5906181 L13.7861435,56.5844 C13.7659971,56.5831054 13.7458388,56.5819456 13.72567,56.5809208 L13.6170271,56.5767114 L13.6170271,56.5767114 L13.5790467,56.5758577 L13.5790467,56.5758577 Z M69.4550838,57.5804601 L69.4126952,57.5465764 L69.4126952,57.5465764 L69.3343098,57.4860611 L69.1365413,57.3448919 C68.9739298,57.2352091 68.8067308,57.137569 68.6359994,57.0517792 L68.6359994,57.0517792 L68.396067,56.9399522 C68.2347305,56.870482 68.0707715,56.8111482 67.9050344,56.7617968 L67.938,56.772 L67.872,56.752 L67.855,56.747 L67.863,56.749 L67.872,56.752 L67.9050344,56.7617968 L67.9050344,56.7617968 L67.863,56.749 L67.844,56.744 L67.7886579,56.7288577 L67.7886579,56.7288577 L67.764,56.722 L67.811,56.735 L67.762,56.722 L67.6717642,56.6991722 L67.5113992,56.6638143 C67.4047366,56.6422927 67.2990991,56.6248976 67.1976678,56.6117817 C65.5634663,56.4016614 63.8736592,57.100123 62.8895041,58.5591929 C61.8104769,60.1589165 61.8969569,62.202621 62.9539188,63.6869894 L62.949,63.68 L62.9921934,63.739918 L63.022,63.779 L63.092,63.87 L63.117,63.901 L63.1017659,63.8829874 C63.1097914,63.8930395 63.1178644,63.9030618 63.1259846,63.913054 L63.1504871,63.9429398 C63.3195343,64.1473169 63.5085857,64.3387956 63.7170536,64.5143532 L63.7170536,64.5143532 L63.9054638,64.6646284 L63.9054638,64.6646284 L64.1038051,64.80623 C64.1991473,64.8705392 64.2960665,64.9307083 64.3943504,64.9867788 L64.3943504,64.9867788 L64.3087803,64.9367149 C64.3682588,64.9723901 64.4282685,65.0065346 64.4887612,65.0391578 L64.4887612,65.0391578 L64.399,64.989 L64.492109,65.0409615 L64.492109,65.0409615 L64.549,65.07 L64.6114916,65.1029369 L64.6114916,65.1029369 L64.5907137,65.0924739 C64.6385293,65.1167072 64.6866249,65.1400095 64.7354454,65.1626019 C66.7042946,66.0734442 69.0987032,65.4483015 70.3508423,63.591929 C71.594417,61.7482537 71.2899098,59.3148617 69.7358652,57.8276311 L69.7358652,57.8276311 L69.687,57.782 L69.686,57.781 L69.6610869,57.7576847 L69.6610869,57.7576847 L69.601,57.704 L69.545,57.656 L69.568,57.675 L69.4996469,57.6169934 L69.4996469,57.6169934 L69.479,57.6 L69.4550838,57.5804601 L69.4550838,57.5804601 Z M40.0604666,10 C44.2026022,10 47.5604666,13.3578644 47.5604666,17.5 L47.5600117,17.5834604 L47.5600117,17.5834604 C53.9443035,20.4177585 58.4255603,26.7601099 58.5574743,34.1638763 L58.5604666,34.5 L55.5604666,34.5 C55.5604666,28.3937372 52.0294881,23.1121786 46.8979544,20.5857475 C45.7217698,23.1887327 43.1026403,25 40.0604666,25 C37.0182928,25 34.3991633,23.1887327 33.2226524,20.5857727 C28.1804735,23.0681369 24.6831745,28.2115582 24.5636297,34.1836988 L24.5604666,34.5 L21.5604666,34.5 C21.5604666,26.9521141 26.0806359,20.4599704 32.56167,17.5828734 L32.5604666,17.5 C32.5604666,13.3578644 35.9183309,10 40.0604666,10 Z M40.0604666,13 C37.8212768,13 35.9640737,14.6354794 35.6182296,16.7770659 L35.61,16.834 L35.598,16.913 L35.5954355,16.936269 L35.586,17.016 L35.5830021,17.0468214 L35.5830021,17.0468214 L35.578,17.104 L35.5826253,17.0506054 L35.573,17.153 L35.5669103,17.2571016 L35.5669103,17.2571016 L35.57,17.207 L35.563683,17.3282697 C35.5615451,17.3852485 35.5604666,17.4424983 35.5604666,17.5 C35.5604666,17.6634645 35.5691824,17.8248933 35.5861748,17.983847 C35.6151448,18.2548454 35.6681716,18.5186495 35.7430779,18.7730822 L35.754,18.81 L35.773,18.869 L35.798,18.946 L35.799,18.95 L35.8039049,18.9638003 L35.8039049,18.9638003 L35.814,18.993 L35.816,18.998 L35.833,19.047 L35.844,19.075 L35.8453508,19.0791704 C36.4849024,20.7854798 38.1308513,22 40.0604666,22 C41.8204229,22 43.3444019,20.9896612 44.0840382,19.517349 C44.1528073,19.3802119 44.2188864,19.2298448 44.2766995,19.0754371 C44.2839111,19.0569043 44.2909918,19.0375661 44.297943,19.0181662 L44.297,19.017 L44.316,18.963 L44.32,18.95 L44.345,18.875 L44.363,18.818 L44.4258441,18.596525 C44.4681889,18.4275713 44.5009636,18.2548166 44.5235685,18.0788746 L44.526,18.051 L44.5294283,18.0313152 C44.5312969,18.0154406 44.5330811,17.9995438 44.5347824,17.9836222 L44.528,18.031 L44.5439564,17.8881545 C44.5548891,17.7602238 44.5604666,17.6307633 44.5604666,17.5 L44.5540228,17.2571016 C44.5522655,17.2240644 44.5501519,17.1911218 44.5476858,17.1582775 L44.547,17.153 L44.5432984,17.1041882 C44.5417316,17.0862071 44.5400602,17.0682703 44.5382839,17.0503644 L44.542,17.104 L44.5379303,17.0468146 L44.5379303,17.0468146 L44.534,17.016 L44.5254821,16.9361451 L44.5254821,16.9361451 L44.522,16.913 L44.514,16.856 L44.511568,16.8343011 L44.511568,16.8343011 L44.5027857,16.7775751 L44.485,16.68 L44.4540966,16.522923 C44.0078777,14.5074303 42.2102117,13 40.0604666,13 Z" id="Combined-Shape"></path>
                    </g>
                </g>
            </g>
        </g>
    </g>
</svg>