<?xml version="1.0" encoding="UTF-8"?>
<svg width="80px" height="80px" viewBox="0 0 80 80" version="1.1" xmlns="http://www.w3.org/2000/svg" xmlns:xlink="http://www.w3.org/1999/xlink">
    <!-- Generator: Sketch 64 (93537) - https://sketch.com -->
    <title>expertise</title>
    <desc>Created with Sketch.</desc>
    <defs>
        <linearGradient x1="0%" y1="50.0007883%" x2="99.9987174%" y2="50.0007883%" id="linearGradient-1">
            <stop stop-color="#E29A64" offset="0%"></stop>
            <stop stop-color="#E85E8C" offset="100%"></stop>
        </linearGradient>
    </defs>
    <g id="expertise" stroke="none" stroke-width="1" fill="none" fill-rule="evenodd">
        <path d="M56.3230395,39.4311607 L56.3908425,39.5456877 L60.71,48.014 L70.3806271,49.374488 C71.1319312,49.4801372 71.4707847,50.3296673 71.0767374,50.9166917 L71.0083821,51.0070516 L70.9275653,51.0921681 L63.949,57.674 L65.5953266,66.9607439 C65.7259174,67.6975854 65.0418924,68.2821966 64.364823,68.1057088 L64.2580949,68.0714286 L64.1572141,68.0265329 L55.5,63.622 L46.8427859,68.0265329 C46.1758209,68.365866 45.4174782,67.8815347 45.3893292,67.1824077 L45.3910725,67.070323 L45.4046734,66.9607439 L47.05,57.674 L40.0724347,51.0921681 C39.5220706,50.5730012 39.7340975,49.6874317 40.3907209,49.4335058 L40.5042202,49.3972045 L40.6193729,49.374488 L50.289,48.014 L54.6091575,39.5456877 C54.9595969,38.8585254 55.9063437,38.8203497 56.3230395,39.4311607 Z M55.5,42.2 L51.8355068,49.3866848 C51.7058708,49.6408827 51.4749054,49.8257992 51.2028504,49.8984784 L51.0839154,49.9226296 L42.958,51.065 L48.8155013,56.5902044 C48.9993008,56.7635853 49.1083587,56.9976365 49.1265972,57.243773 L49.1280738,57.3676234 L49.1139672,57.4921384 L47.723,65.333 L55.0465427,61.608722 C55.2500617,61.5051772 55.4801801,61.475593 55.6988988,61.5199693 L55.828458,61.5554704 L55.9534573,61.608722 L63.276,65.333 L61.8860328,57.4921384 C61.8419387,57.2433435 61.8940232,56.9904388 62.0262086,56.7820093 L62.0989019,56.6817258 L62.1844987,56.5902044 L68.041,51.065 L59.9160846,49.9226296 C59.6738857,49.8885714 59.4555524,49.7675445 59.2990201,49.5866 L59.2260797,49.4912598 L59.1644932,49.3866848 L55.5,42.2 Z M29.1725406,40.4067704 L29.2025937,40.5380161 L29.21821,40.6798744 L30.0973211,57.3829859 C30.1120301,57.6604952 30.0419898,57.9349264 29.8853718,58.1876614 L29.7998395,58.3121347 L29.6948721,58.4311358 L27.0575094,61.0684984 C26.7958032,61.3302047 26.4452742,61.4725275 26.0824176,61.4725275 C25.8321635,61.4725275 25.5866127,61.4046937 25.3568043,61.2628109 L25.2208966,61.1687456 L25.1073257,61.0676193 L22.4699631,58.4302567 C22.2736392,58.2339328 22.1418292,57.9834216 22.0889284,57.6909274 L22.0691205,57.5412382 L22.0675043,57.382292 L22.9466762,40.6780425 C22.9789845,40.085723 23.3707256,39.58657 23.9495751,39.4218243 L24.0863988,39.3898521 L24.1962493,39.3765784 L24.2591049,39.372976 L24.3979522,39.3743658 C25.0470912,39.4097092 25.5744595,39.890642 25.6841533,40.5405836 L25.7011583,40.6823429 L25.7017259,40.8247523 L24.8547912,56.915 L26.0817912,58.142 L27.3097912,56.914 L26.4631062,40.8255726 C26.4278273,40.1540573 26.8781045,39.5695089 27.4996911,39.4142837 L27.6261995,39.3890644 L27.7567174,39.3759024 C28.4024444,39.3275333 28.9941836,39.7638969 29.1725406,40.4067704 Z M17.274829,59.0149936 L17.3850721,59.1109952 L17.3983327,59.1244032 C17.6479783,59.3865311 17.7912088,59.7302842 17.7912088,60.0934066 C17.7912088,60.4491424 17.6462101,60.8007641 17.3801361,61.0805588 C17.1194455,61.3275288 16.7678237,61.4725275 16.4120879,61.4725275 C16.0489655,61.4725275 15.7052124,61.329297 15.4258884,61.0624576 C15.1777736,60.8020056 15.032967,60.4499695 15.032967,60.0934066 C15.032967,59.7363818 15.1781684,59.3830221 15.4391037,59.1109952 C15.9320846,58.6309875 16.7398737,58.598987 17.274829,59.0149936 Z M26.0824176,13 C29.1273763,13 32.2337381,14.2212693 33.7687144,16.517508 C34.840718,18.1247852 35.0941777,20.3708212 34.8943216,22.6859455 L34.8807912,22.823 L34.9682447,22.9462471 C35.4306663,23.6527584 35.5637973,24.6522606 35.4500175,25.6142685 L35.4164762,25.8537981 L35.3763689,26.0738165 C35.1762881,27.0819702 34.7076248,27.9866666 34.1485105,28.7250851 L34.0407912,28.861 L33.9595097,29.1356685 C33.2777004,31.318118 32.3551655,32.8211857 31.3345248,33.7697356 L31.1534224,33.9313959 L31.0957912,33.978 L31.0957912,35.431 L40.6736017,39.5969534 C40.9324265,39.7093069 41.1859343,39.847819 41.4313999,40.0105379 L41.6740837,40.1812533 L41.9108003,40.3676729 C42.4974142,40.8535272 42.5785148,41.7238644 42.0906147,42.3112753 C41.8243256,42.6297516 41.4356119,42.8079121 41.0292308,42.8079121 C40.7101231,42.8079121 40.3998879,42.6983962 40.1489906,42.490433 C40.0392303,42.3993192 39.929908,42.3208271 39.8293088,42.2590473 L39.7319241,42.2029899 L39.57357,42.1264323 L29.1667085,37.6007926 C28.7658372,37.4266436 28.4749813,37.0754594 28.3724329,36.6342516 L28.3453319,36.4839675 L28.3367033,36.336044 L28.3367033,33.26 C28.3367033,32.761349 28.6066135,32.3041461 29.0344413,32.0612562 L29.1295977,32.0114672 L29.1648547,31.9881452 L29.2074862,31.9576433 C29.3038791,31.8863515 29.4146732,31.7902653 29.5369206,31.6659951 C29.9024474,31.29442 30.2744052,30.7717442 30.6267486,30.0710747 C30.9438812,29.4404251 31.227565,28.6974898 31.4672884,27.8352545 C31.5137689,27.6648262 31.5935095,27.5048493 31.6831482,27.3857755 L31.7518681,27.3046154 C31.8949274,27.142712 32.0702774,26.9119297 32.2497549,26.6008182 C32.4518446,26.2505099 32.5988546,25.8902256 32.6693818,25.5330463 C32.7295557,25.2373343 32.7287893,24.888471 32.7049863,24.6713629 L32.6867912,24.557 L32.652321,24.5367773 C32.289893,24.2925763 32.0635619,23.8884897 32.0449694,23.4514516 L32.0465642,23.3047259 L32.0618634,23.1700999 C32.3406168,21.4553899 32.2125747,19.1607025 31.4713127,18.0491261 C30.4761935,16.5574391 28.1776354,15.7582418 26.0824176,15.7582418 C23.9867629,15.7582418 21.6891793,16.5577224 20.6952932,18.0508656 C19.9501784,19.1679042 19.8223925,21.4649273 20.1045212,23.169705 C20.1864808,23.6657764 19.9922541,24.1537968 19.6202246,24.4598268 L19.5144277,24.5386467 L19.4787912,24.559 L19.4752737,24.5762788 C19.4493723,24.7190977 19.4354768,24.9795131 19.4570183,25.2437989 L19.4743832,25.401925 L19.496889,25.5340632 C19.5672743,25.890264 19.7146848,26.2518968 19.9170822,26.6029882 C20.0661646,26.8615961 20.2124431,27.0644277 20.3225501,27.1976522 L20.3840067,27.2691234 C20.5308038,27.4282679 20.6392834,27.6230382 20.699518,27.8345942 C21.127669,29.3740137 21.6808548,30.4997197 22.2920111,31.2778698 C22.6021247,31.6727196 22.8645879,31.9039721 23.0065438,31.994219 L23.0539862,32.0214961 C23.4187674,32.2055104 23.6906534,32.5449489 23.7922066,32.9594178 L23.8221535,33.1182036 L23.8307692,33.2617582 L23.8307692,36.3378022 C23.8307692,36.7741757 23.6240752,37.1806609 23.2603553,37.4506202 L23.1333677,37.5354038 L23.0009213,37.6024825 L12.5925097,42.1284136 C11.7373232,42.4991707 10.9303919,43.6250969 10.7830558,44.6022981 L10.7640268,44.7730175 L10.7582418,44.9259341 L10.7577912,58.714 L12.8956044,58.7142857 C13.5682187,58.7142857 14.1275766,59.1945125 14.2498807,59.8311687 L14.2684182,59.9604898 L14.2747253,60.0934066 C14.2747253,60.7448441 13.8220465,61.2975921 13.1778074,61.4404958 L13.0369193,61.4647315 L12.8956044,61.4725275 L9.37912088,61.4725275 C8.72768334,61.4725275 8.17493538,61.0198487 8.03203171,60.3756096 L8.00779602,60.2347215 L8,60.0934066 L8,44.9259341 C8,42.9322703 9.30798572,40.7853903 11.0918924,39.7972817 L11.2920205,39.6923271 L11.4935577,39.5988477 L21.0707912,35.433 L21.0707912,33.981 L20.9349228,33.8657769 C19.938429,32.9855637 19.0216399,31.5702154 18.32627,29.5025769 L18.205885,29.1309045 L18.1247912,28.861 L18.0188305,28.7267649 C17.571023,28.1355539 17.1814518,27.4378409 16.9412329,26.6658411 L16.8583297,26.372922 L16.7904959,26.0734159 C16.5860363,25.057933 16.6519439,23.939737 17.0913811,23.1293121 L17.1994674,22.9479412 L17.2857912,22.825 L17.2730421,22.6888183 C17.0929282,20.6157583 17.2790263,18.5903696 18.0936583,17.0347502 L18.2439949,16.7651915 L18.3987464,16.5192838 C19.9309608,14.2217923 23.0365646,13 26.0824176,13 Z M55.317437,22.4231901 L55.3856256,22.5356 L57.644,26.843 L62.71948,27.5370867 C63.4802922,27.641136 63.8188707,28.506417 63.4100592,29.0936501 L63.3392516,29.1839089 L63.2600067,29.2647415 L59.624,32.6 L60.4799726,37.2928555 C60.61366,38.0264623 59.9372737,38.613915 59.2604646,38.4450825 L59.1537146,38.4120509 L59.0526893,38.3684176 L54.499,36.115 L49.9473107,38.3684176 C49.2789638,38.6991195 48.5278425,38.210841 48.5035976,37.5137132 L48.5059281,37.4019938 L48.5200274,37.2928555 L49.375,32.6 L45.7399933,29.2647415 C45.1741494,28.7456249 45.3891078,27.8416671 46.0597118,27.5921479 L46.1693357,27.5583402 L46.28052,27.5370867 L51.355,26.843 L53.6143744,22.5356 C53.9680441,21.8611407 54.899562,21.8236708 55.317437,22.4231901 Z M54.5,25.153 L52.8875382,28.228332 C52.7561099,28.47897 52.5257131,28.6604453 52.2554888,28.7312576 L52.1374123,28.7547094 L48.661,29.229 L51.1340362,31.4991905 C51.323899,31.6733745 51.436734,31.9115083 51.4553014,32.1622735 L51.4566497,32.2884711 L51.4418078,32.4153485 L50.844,35.692 L54.0565147,34.1037184 C54.2561474,34.004939 54.4805318,33.9767163 54.6943083,34.0190503 L54.8210184,34.0529175 L54.9434853,34.1037184 L58.155,35.692 L57.5581922,32.4153485 C57.511999,32.1618644 57.5658201,31.9039056 57.7024155,31.6927905 L57.7775312,31.5913741 L57.8659638,31.4991905 L60.338,29.229 L56.8625877,28.7547094 C56.6222477,28.7218403 56.4049615,28.603312 56.2479724,28.4252588 L56.1746751,28.3313929 L56.1124618,28.228332 L54.5,25.153 Z M44.3332609,12.4462563 L44.3967361,12.5574343 L46.074,15.957 L49.8256657,16.5017825 C50.5657141,16.6093179 50.9046642,17.440384 50.5279195,18.0267525 L50.458448,18.1220489 L50.379879,18.2074759 L47.665,20.853 L48.3062125,24.5895654 C48.4335855,25.3322073 47.736543,25.9145641 47.0575703,25.7245345 L46.9559652,25.6901606 L46.855263,25.6437419 L43.5,23.88 L40.144737,25.6437419 C39.4794703,25.9934933 38.7123964,25.5138108 38.6796976,24.8122166 L38.6807594,24.699683 L38.6937875,24.5895654 L39.334,20.853 L36.620121,18.2074759 C36.0846169,17.6854884 36.2988889,16.8139119 36.9483406,16.5609748 L37.060558,16.5247128 L37.1743343,16.5017825 L40.925,15.957 L42.6032639,12.5574343 C42.9507716,11.8533068 43.9202795,11.8162474 44.3332609,12.4462563 Z M43.5,15.259 L42.486434,17.3132605 C42.3589797,17.571511 42.1274743,17.7604158 41.8533891,17.8353132 L41.7334962,17.8603018 L39.467,18.189 L41.107078,19.7882189 C41.2838426,19.9605217 41.3885297,20.1897851 41.4063533,20.4305015 L41.407958,20.5516035 L41.3946746,20.6733503 L41.007,22.93 L43.0346589,21.8648686 C43.2531519,21.75 43.5035444,21.7212829 43.7379871,21.7787171 L43.8536579,21.8146136 L43.9653411,21.8648686 L45.992,22.93 L45.6053254,20.6733503 C45.5635969,20.4300547 45.6136608,20.1830432 45.7407309,19.9778231 L45.8106146,19.8789063 L45.892922,19.7882189 L47.532,18.189 L45.2665038,17.8603018 C45.0222211,17.8248054 44.8027698,17.7008611 44.6468607,17.5165938 L44.5743805,17.4195634 L44.513566,17.3132605 L43.5,15.259 Z" id="Combined-Shape" fill="url(#linearGradient-1)" fill-rule="nonzero"></path>
    </g>
</svg>