<?xml version="1.0" encoding="UTF-8"?>
<svg width="80px" height="80px" viewBox="0 0 80 80" version="1.1" xmlns="http://www.w3.org/2000/svg" xmlns:xlink="http://www.w3.org/1999/xlink">
    <!-- Generator: Sketch 64 (93537) - https://sketch.com -->
    <title>personalization</title>
    <desc>Created with Sketch.</desc>
    <defs>
        <linearGradient x1="0%" y1="50.0007883%" x2="99.9987174%" y2="50.0007883%" id="linearGradient-1">
            <stop stop-color="#E29A64" offset="0%"></stop>
            <stop stop-color="#E85E8C" offset="100%"></stop>
        </linearGradient>
    </defs>
    <g id="personalization" stroke="none" stroke-width="1" fill="none" fill-rule="evenodd">
        <g id="noun_Marketing-Personalize_1772272" transform="translate(13.000000, 13.000000)" fill="url(#linearGradient-1)" fill-rule="nonzero">
            <path d="M46.8,33.75 L50.625,33.75 C52.425,33.75 54,32.175 54,30.375 L54,23.625 C54,21.825 52.425,20.25 50.625,20.25 L46.8,20.25 C46.35,20.25 45.9,20.025 45.9,19.575 C45.9,19.35 45.675,19.125 45.675,18.9 C45.45,18.45 45.675,18 45.9,17.775 L48.6,15.075 C49.05,14.4 49.5,13.5 49.5,12.6 C49.5,11.7 49.05,10.8 48.6,10.35 L43.65,5.4 C42.975,4.725 42.075,4.5 41.4,4.5 C41.4,4.5 41.4,4.5 41.4,4.5 C40.5,4.5 39.6,4.95 39.15,5.4 L36.45,8.1 C36.225,8.325 35.775,8.55 35.325,8.325 C35.1,8.325 34.875,8.1 34.65,8.1 C33.975,7.875 33.75,7.65 33.75,7.2 L33.75,3.375 C33.75,1.575 32.175,0 30.375,0 L23.625,0 C21.825,0 20.25,1.575 20.25,3.375 L20.25,7.2 C20.25,7.65 20.025,8.1 19.575,8.1 C19.35,8.1 19.125,8.325 18.9,8.325 C18.45,8.55 18,8.55 17.775,8.1 L15.075,5.4 C14.4,4.95 13.5,4.5 12.6,4.5 C12.6,4.5 12.6,4.5 12.6,4.5 C11.7,4.5 10.8,4.95 10.35,5.4 L5.4,10.35 C4.95,11.025 4.5,11.7 4.5,12.6 C4.5,13.5 4.95,14.4 5.4,14.85 L8.1,17.55 C8.55,18 8.55,18.45 8.325,18.9 C8.325,19.125 8.1,19.35 8.1,19.575 C7.875,20.025 7.65,20.25 7.2,20.25 L3.375,20.25 C1.575,20.25 0,21.825 0,23.625 L0,30.375 C0,32.175 1.575,33.75 3.375,33.75 L7.2,33.75 C7.65,33.75 8.1,33.975 8.1,34.425 C8.1,34.65 8.325,34.875 8.325,35.1 C8.55,35.55 8.325,36 8.1,36.225 L5.4,38.925 C4.95,39.6 4.5,40.5 4.5,41.4 C4.5,42.3 4.95,43.2 5.4,43.65 L10.35,48.6 C11.025,49.275 11.925,49.5 12.6,49.5 C12.6,49.5 12.6,49.5 12.6,49.5 C13.5,49.5 14.4,49.05 14.85,48.6 L17.55,45.9 C17.775,45.675 18.225,45.45 18.675,45.675 C18.9,45.675 19.125,45.9 19.35,45.9 C20.025,46.125 20.25,46.35 20.25,46.8 L20.25,50.625 C20.25,52.425 21.825,54 23.625,54 L30.375,54 C32.175,54 33.75,52.425 33.75,50.625 L33.75,46.8 C33.75,46.35 33.975,45.9 34.425,45.675 C35.55,45.225 36.675,44.55 37.8,43.875 L46.8,52.875 C47.475,53.55 48.375,53.775 49.275,53.775 C50.175,53.775 51.075,53.55 51.75,52.875 L53.1,51.525 C54.45,50.175 54.45,48.15 53.1,46.8 L44.1,37.8 C44.775,36.675 45.45,35.55 45.9,34.425 C45.9,33.975 46.35,33.75 46.8,33.75 Z M51.525,50.175 L50.175,51.525 C49.725,51.975 49.05,51.975 48.6,51.525 L39.375,42.3 C38.925,41.85 38.925,41.175 39.375,40.725 L40.725,39.375 C40.95,39.15 41.175,39.15 41.625,39.15 C42.075,39.15 42.3,39.15 42.525,39.375 L51.75,48.6 C51.75,49.05 51.75,49.725 51.525,50.175 Z M43.65,33.75 C43.2,34.875 42.525,36 41.85,36.9 C40.95,36.675 39.825,36.9 39.15,37.575 L37.35,35.775 C39.375,33.525 40.5,30.375 40.5,27 C40.5,19.575 34.425,13.5 27,13.5 C19.575,13.5 13.5,19.575 13.5,27 C13.5,34.425 19.575,40.5 27,40.5 C30.375,40.5 33.3,39.375 35.775,37.35 L37.575,39.15 C36.9,40.05 36.675,40.95 36.9,41.85 C36,42.525 34.875,43.2 33.75,43.65 C32.4,44.1 31.5,45.45 31.5,46.8 L31.5,50.625 C31.5,51.3 31.05,51.75 30.375,51.75 L23.625,51.75 C22.95,51.75 22.5,51.3 22.5,50.625 L22.5,46.8 C22.5,45.45 21.6,44.325 20.475,43.65 C20.25,43.65 20.025,43.425 19.8,43.425 C18.675,42.975 17.1,43.2 16.2,44.1 L13.5,47.025 C13.275,47.025 13.05,47.25 12.6,47.25 C12.375,47.25 12.15,47.25 11.925,47.025 L6.975,42.075 C6.975,41.85 6.75,41.625 6.75,41.4 C6.75,41.175 6.975,40.95 6.975,40.725 L9.675,38.025 C10.575,37.125 11.025,35.55 10.35,34.425 C10.35,34.2 10.125,33.975 10.125,33.75 C9.675,32.4 8.55,31.5 7.2,31.5 L3.375,31.5 C2.7,31.5 2.25,31.05 2.25,30.375 L2.25,23.625 C2.25,22.95 2.7,22.5 3.375,22.5 L7.2,22.5 C8.55,22.5 9.675,21.6 10.35,20.475 L10.575,19.8 C11.025,18.675 10.8,17.1 9.9,16.2 L6.975,13.5 C6.975,13.275 6.75,13.05 6.75,12.6 C6.75,12.375 6.75,12.15 6.975,11.925 L11.925,6.975 C12.15,6.975 12.375,6.75 12.6,6.75 C12.6,6.75 12.6,6.75 12.6,6.75 C13.05,6.75 13.275,6.975 13.5,6.975 L16.2,9.675 C17.1,10.575 18.675,11.025 19.8,10.35 L20.475,10.125 C21.6,9.675 22.5,8.55 22.5,7.2 L22.5,3.375 C22.5,2.7 22.95,2.25 23.625,2.25 L30.375,2.25 C31.05,2.25 31.5,2.7 31.5,3.375 L31.5,7.2 C31.5,8.55 32.4,9.675 33.525,10.35 C33.75,10.35 33.975,10.575 34.2,10.575 C35.325,11.025 36.9,10.8 37.8,9.9 L40.5,6.975 C40.725,6.975 40.95,6.75 41.4,6.75 C41.4,6.75 41.4,6.75 41.4,6.75 C41.625,6.75 41.85,6.75 42.075,6.975 L47.025,11.925 C47.025,12.15 47.25,12.375 47.25,12.6 C47.25,12.825 47.25,13.05 47.025,13.275 L44.325,15.975 C43.425,16.875 42.975,18.45 43.65,19.575 C43.65,19.8 43.875,20.025 43.875,20.25 C44.325,21.6 45.675,22.275 47.025,22.275 L50.85,22.275 C51.525,22.275 51.975,22.725 51.975,23.4 L51.975,30.15 C51.975,30.825 51.525,31.275 50.85,31.275 L47.025,31.275 C45.45,31.5 44.325,32.4 43.65,33.75 Z M27,38.25 C20.7,38.25 15.75,33.3 15.75,27 C15.75,20.7 20.7,15.75 27,15.75 C33.3,15.75 38.25,20.7 38.25,27 C38.25,33.3 33.3,38.25 27,38.25 Z" id="Shape"></path>
        </g>
    </g>
</svg>