<?xml version="1.0" encoding="UTF-8"?>
<svg width="80px" height="80px" viewBox="0 0 80 80" version="1.1" xmlns="http://www.w3.org/2000/svg" xmlns:xlink="http://www.w3.org/1999/xlink">
    <!-- Generator: Sketch 64 (93537) - https://sketch.com -->
    <title>2</title>
    <desc>Created with Sketch.</desc>
    <defs>
        <linearGradient x1="0%" y1="50.0007883%" x2="99.9987174%" y2="50.0007883%" id="linearGradient-1">
            <stop stop-color="#E29A64" offset="0%"></stop>
            <stop stop-color="#E85E8C" offset="100%"></stop>
        </linearGradient>
        <linearGradient x1="0%" y1="50.0007883%" x2="99.9987174%" y2="50.0007883%" id="linearGradient-2">
            <stop stop-color="#E29A64" offset="0%"></stop>
            <stop stop-color="#E85E8C" offset="100%"></stop>
        </linearGradient>
        <linearGradient x1="0%" y1="50.0007883%" x2="99.9987174%" y2="50.0007883%" id="linearGradient-3">
            <stop stop-color="#E29A64" offset="0%"></stop>
            <stop stop-color="#E85E8C" offset="100%"></stop>
        </linearGradient>
        <linearGradient x1="0%" y1="50.0007883%" x2="99.9987174%" y2="50.0007883%" id="linearGradient-4">
            <stop stop-color="#E29A64" offset="0%"></stop>
            <stop stop-color="#E85E8C" offset="100%"></stop>
        </linearGradient>
        <linearGradient x1="0%" y1="50.0007883%" x2="99.9987174%" y2="50.0007883%" id="linearGradient-5">
            <stop stop-color="#E29A64" offset="0%"></stop>
            <stop stop-color="#E85E8C" offset="100%"></stop>
        </linearGradient>
        <linearGradient x1="0%" y1="50.0007883%" x2="99.9987174%" y2="50.0007883%" id="linearGradient-6">
            <stop stop-color="#E29A64" offset="0%"></stop>
            <stop stop-color="#E85E8C" offset="100%"></stop>
        </linearGradient>
    </defs>
    <g id="2" stroke="none" stroke-width="1" fill="none" fill-rule="evenodd">
        <g id="Group" transform="translate(3.000000, 5.000000)">
            <path d="M24.1818182,22 L3.81818182,22 C1.71206916,22.0064249 0.00629007485,23.7487538 0,25.8999944 L0,38.8999756 C0.00629007485,41.0512162 1.71206916,42.7935452 3.81818182,42.79997 L8.64181818,42.79997 L7.78909091,46.3879648 C7.68887003,46.7766877 7.77375153,47.1909223 8.01818182,47.5059632 C8.26104633,47.8199024 8.63191592,48.0021178 9.02363636,47.9999814 L18.9763636,47.9999814 C19.3680841,48.0021178 19.7389537,47.8199024 19.9818182,47.5059632 C20.2262485,47.1909223 20.31113,46.7766877 20.2109091,46.3879648 L19.3581818,42.79997 L24.1818182,42.79997 C26.2879308,42.7935452 27.9937099,41.0512162 28,38.8999756 L28,25.8999944 C27.9937099,23.7487538 26.2879308,22.0064249 24.1818182,22 L24.1818182,22 Z M10.64,45.3999663 L11.2636364,42.79997 L16.7363636,42.79997 L17.36,45.3999663 L10.64,45.3999663 Z M25.4545455,38.8999756 C25.4545455,39.6179448 24.884726,40.1999738 24.1818182,40.1999738 L3.81818182,40.1999738 C3.11527395,40.1999738 2.54545455,39.6179448 2.54545455,38.8999756 L2.54545455,37.5999775 L25.4545455,37.5999775 L25.4545455,38.8999756 Z M25.4545455,34.9999813 L2.54545455,34.9999813 L2.54545455,25.8999944 C2.54545455,25.1820252 3.11527395,24.5999963 3.81818182,24.5999963 L24.1818182,24.5999963 C24.884726,24.5999963 25.4545455,25.1820252 25.4545455,25.8999944 L25.4545455,34.9999813 Z" id="Shape" fill="url(#linearGradient-1)" fill-rule="nonzero"></path>
            <path d="M68.6818182,27 L56.3181818,27 C55.0394706,27.0039538 54.003819,28.0761562 54,29.3999965 L54,37.399985 C54.003819,38.7238253 55.0394706,39.7960278 56.3181818,39.7999815 L59.2468182,39.7999815 L58.7290909,42.0079784 C58.6682425,42.2471924 58.7197777,42.502106 58.8681818,42.6959774 C59.0156353,42.8891707 59.2408061,43.0013033 59.4786364,42.9999886 L65.5213636,42.9999886 C65.7591939,43.0013033 65.9843647,42.8891707 66.1318182,42.6959774 C66.2802223,42.502106 66.3317575,42.2471924 66.2709091,42.0079784 L65.7531818,39.7999815 L68.6818182,39.7999815 C69.9605294,39.7960278 70.996181,38.7238253 71,37.399985 L71,29.3999965 C70.996181,28.0761562 69.9605294,27.0039538 68.6818182,27 L68.6818182,27 Z M60.46,41.3999792 L60.8386364,39.7999815 L64.1613636,39.7999815 L64.54,41.3999792 L60.46,41.3999792 Z M69.4545455,37.399985 C69.4545455,37.8418122 69.1085837,38.1999839 68.6818182,38.1999839 L56.3181818,38.1999839 C55.8914163,38.1999839 55.5454545,37.8418122 55.5454545,37.399985 L55.5454545,36.5999862 L69.4545455,36.5999862 L69.4545455,37.399985 Z M69.4545455,34.9999885 L55.5454545,34.9999885 L55.5454545,29.3999965 C55.5454545,28.9581694 55.8914163,28.5999977 56.3181818,28.5999977 L68.6818182,28.5999977 C69.1085837,28.5999977 69.4545455,28.9581694 69.4545455,29.3999965 L69.4545455,34.9999885 Z" id="Shape-Copy" fill="url(#linearGradient-2)" fill-rule="nonzero"></path>
            <path d="M68.6818182,54 L56.3181818,54 C55.0394706,54.0039538 54.003819,55.0761562 54,56.3999965 L54,64.399985 C54.003819,65.7238253 55.0394706,66.7960278 56.3181818,66.7999815 L59.2468182,66.7999815 L58.7290909,69.0079784 C58.6682425,69.2471924 58.7197777,69.502106 58.8681818,69.6959774 C59.0156353,69.8891707 59.2408061,70.0013033 59.4786364,69.9999886 L65.5213636,69.9999886 C65.7591939,70.0013033 65.9843647,69.8891707 66.1318182,69.6959774 C66.2802223,69.502106 66.3317575,69.2471924 66.2709091,69.0079784 L65.7531818,66.7999815 L68.6818182,66.7999815 C69.9605294,66.7960278 70.996181,65.7238253 71,64.399985 L71,56.3999965 C70.996181,55.0761562 69.9605294,54.0039538 68.6818182,54 L68.6818182,54 Z M60.46,68.3999792 L60.8386364,66.7999815 L64.1613636,66.7999815 L64.54,68.3999792 L60.46,68.3999792 Z M69.4545455,64.399985 C69.4545455,64.8418122 69.1085837,65.1999839 68.6818182,65.1999839 L56.3181818,65.1999839 C55.8914163,65.1999839 55.5454545,64.8418122 55.5454545,64.399985 L55.5454545,63.5999862 L69.4545455,63.5999862 L69.4545455,64.399985 Z M69.4545455,61.9999885 L55.5454545,61.9999885 L55.5454545,56.3999965 C55.5454545,55.9581694 55.8914163,55.5999977 56.3181818,55.5999977 L68.6818182,55.5999977 C69.1085837,55.5999977 69.4545455,55.9581694 69.4545455,56.3999965 L69.4545455,61.9999885 Z" id="Shape-Copy-2" fill="url(#linearGradient-2)" fill-rule="nonzero"></path>
            <path d="M66.2142857,0 L58.7857143,0 C57.2491117,0.00449291061 56.0045892,1.22290655 56,2.72727273 L56,17.2727273 C56.0045892,18.7770935 57.2491117,19.9955071 58.7857143,20 L66.2142857,20 C67.7508883,19.9955071 68.9954108,18.7770935 69,17.2727273 L69,2.72727273 C68.9954108,1.22290655 67.7508883,0.00449291061 66.2142857,0 L66.2142857,0 Z M64.3571429,1.81818182 C64.3571429,2.32025886 63.9414073,2.72727273 63.4285714,2.72727273 L61.5714286,2.72727273 C61.0585927,2.72727273 60.6428571,2.32025886 60.6428571,1.81818182 L64.3571429,1.81818182 Z M67.1428571,17.2727273 C67.1428571,17.7748043 66.7271216,18.1818182 66.2142857,18.1818182 L58.7857143,18.1818182 C58.2728784,18.1818182 57.8571429,17.7748043 57.8571429,17.2727273 L57.8571429,2.72727273 C57.8571429,2.22519568 58.2728784,1.81818182 58.7857143,1.81818182 C58.7903035,3.322548 60.034826,4.54096163 61.5714286,4.54545455 L63.4285714,4.54545455 C64.965174,4.54096163 66.2096965,3.322548 66.2142857,1.81818182 C66.7271216,1.81818182 67.1428571,2.22519568 67.1428571,2.72727273 L67.1428571,17.2727273 Z" id="Shape" fill="url(#linearGradient-3)" fill-rule="nonzero"></path>
            <path d="M50,61 L42,61 C38.6862915,61 36,58.3137085 36,55 L36,16 C36,12.6862915 38.6862915,10 42,10 L50,10 L50,10" id="Path" stroke="url(#linearGradient-4)" stroke-linecap="round" stroke-linejoin="round"></path>
            <line x1="33" y1="35" x2="50.279541" y2="35" id="Path-2" stroke="url(#linearGradient-5)" stroke-linecap="round" stroke-linejoin="round"></line>
        </g>
        <polyline id="Path" stroke="url(#linearGradient-6)" stroke-linecap="round" stroke-linejoin="round" transform="translate(51.000000, 15.000000) rotate(-45.000000) translate(-51.000000, -15.000000) " points="53 13 53 17 49 17"></polyline>
        <polyline id="Path" stroke="url(#linearGradient-6)" stroke-linecap="round" stroke-linejoin="round" transform="translate(51.000000, 40.000000) rotate(-45.000000) translate(-51.000000, -40.000000) " points="53 38 53 42 49 42"></polyline>
        <polyline id="Path" stroke="url(#linearGradient-6)" stroke-linecap="round" stroke-linejoin="round" transform="translate(51.000000, 66.000000) rotate(-45.000000) translate(-51.000000, -66.000000) " points="53 64 53 68 49 68"></polyline>
    </g>
</svg>