<?xml version="1.0" encoding="UTF-8"?>
<svg width="80px" height="80px" viewBox="0 0 80 80" version="1.1" xmlns="http://www.w3.org/2000/svg" xmlns:xlink="http://www.w3.org/1999/xlink">
    <!-- Generator: Sketch 64 (93537) - https://sketch.com -->
    <title>4</title>
    <desc>Created with Sketch.</desc>
    <defs>
        <linearGradient x1="0%" y1="50.0007883%" x2="99.9987174%" y2="50.0007883%" id="linearGradient-1">
            <stop stop-color="#E29A64" offset="0%"></stop>
            <stop stop-color="#E85E8C" offset="100%"></stop>
        </linearGradient>
        <linearGradient x1="0%" y1="50.0007883%" x2="99.9987174%" y2="50.0007883%" id="linearGradient-2">
            <stop stop-color="#E29A64" offset="0%"></stop>
            <stop stop-color="#E85E8C" offset="100%"></stop>
        </linearGradient>
    </defs>
    <g id="4" stroke="none" stroke-width="1" fill="none" fill-rule="evenodd">
        <g id="Group" transform="translate(40.000000, 40.000000) scale(-1, 1) translate(-40.000000, -40.000000) translate(5.000000, 5.000000)" fill-rule="nonzero">
            <g id="donation" transform="translate(26.500000, 57.000000) scale(-1, 1) translate(-26.500000, -57.000000) translate(0.000000, 44.000000)" fill="url(#linearGradient-1)">
                <path d="M51.8958353,3.29521423 L46.8270291,3.29521423 C42.2398777,-1.09840474 35.0518397,-1.09840474 30.4646883,3.29521423 L19.8750585,3.29521423 C17.7186912,3.2979453 15.8784589,4.87101229 15.5188527,7.01898518 L5.89591916,3.77780134 C4.52992874,3.31792651 3.0283925,3.54941814 1.86034952,4.39996453 C0.692306541,5.25051091 4.65077549e-05,6.61642332 4.65077549e-05,8.07102786 L4.65077549e-05,8.14423163 C-0.00695262557,9.6980269 0.77645056,11.1465699 2.0745431,11.9799695 L21.2414624,24.3016272 C23.7733465,25.9255443 26.8599323,26.4118668 29.7610593,25.6439751 L46.517863,21.1888637 L51.8958353,21.1888637 C52.5056486,21.1888637 53,20.6894436 53,20.0733777 L53,4.41070017 C53,3.7946343 52.5056486,3.29521423 51.8958353,3.29521423 Z M50.7916706,18.9578918 L46.3750117,18.9578918 C46.2801648,18.9579074 46.185716,18.9702798 46.0940018,18.9947028 L29.1983493,23.4866253 C26.892272,24.0961515 24.4391597,23.7095998 22.4263691,22.4195235 L3.26013996,10.0978658 C2.60062047,9.67243894 2.2034855,8.93473427 2.20837756,8.14423163 L2.20837756,8.07102786 C2.20992036,6.80706592 3.22084593,5.78122914 4.47196074,5.77410287 C4.71855795,5.77442572 4.96348242,5.81501366 5.19725894,5.89429648 L15.7930996,9.4638515 C16.475462,11.1329974 18.0874911,12.2210886 19.8750585,12.2191018 L30.9167057,12.2191018 C31.526519,12.2191018 32.0208704,11.7196817 32.0208704,11.1036158 C32.0208704,10.48755 31.526519,9.98812989 30.9167057,9.98812989 L19.8750585,9.98812989 C18.8653715,9.98965898 17.9836549,9.29816914 17.7347732,8.30960242 L17.7347732,8.3068137 C17.5674898,7.63955023 17.714239,6.93163668 18.1324872,6.38825472 C18.5507354,5.84487276 19.1937127,5.52678505 19.8750585,5.52618612 L30.9167057,5.52618612 C31.2095525,5.5261969 31.4904089,5.40867989 31.6974882,5.19948817 L31.8092848,5.08654522 C35.5873429,1.2780285 41.7040984,1.2780285 45.4821565,5.08654522 L45.5939532,5.19948817 C45.8011001,5.40874824 46.0820693,5.52627087 46.3750117,5.52618612 L50.7916706,5.52618612 L50.7916706,18.9578918 Z" id="Shape"></path>
            </g>
            <g id="donation-copy" transform="translate(43.500000, 13.000000) scale(1, -1) translate(-43.500000, -13.000000) translate(17.000000, 0.000000)" fill="url(#linearGradient-1)">
                <path d="M51.8958353,3.29521423 L46.8270291,3.29521423 C42.2398777,-1.09840474 35.0518397,-1.09840474 30.4646883,3.29521423 L19.8750585,3.29521423 C17.7186912,3.2979453 15.8784589,4.87101229 15.5188527,7.01898518 L5.89591916,3.77780134 C4.52992874,3.31792651 3.0283925,3.54941814 1.86034952,4.39996453 C0.692306541,5.25051091 4.65077549e-05,6.61642332 4.65077549e-05,8.07102786 L4.65077549e-05,8.14423163 C-0.00695262557,9.6980269 0.77645056,11.1465699 2.0745431,11.9799695 L21.2414624,24.3016272 C23.7733465,25.9255443 26.8599323,26.4118668 29.7610593,25.6439751 L46.517863,21.1888637 L51.8958353,21.1888637 C52.5056486,21.1888637 53,20.6894436 53,20.0733777 L53,4.41070017 C53,3.7946343 52.5056486,3.29521423 51.8958353,3.29521423 Z M50.7916706,18.9578918 L46.3750117,18.9578918 C46.2801648,18.9579074 46.185716,18.9702798 46.0940018,18.9947028 L29.1983493,23.4866253 C26.892272,24.0961515 24.4391597,23.7095998 22.4263691,22.4195235 L3.26013996,10.0978658 C2.60062047,9.67243894 2.2034855,8.93473427 2.20837756,8.14423163 L2.20837756,8.07102786 C2.20992036,6.80706592 3.22084593,5.78122914 4.47196074,5.77410287 C4.71855795,5.77442572 4.96348242,5.81501366 5.19725894,5.89429648 L15.7930996,9.4638515 C16.475462,11.1329974 18.0874911,12.2210886 19.8750585,12.2191018 L30.9167057,12.2191018 C31.526519,12.2191018 32.0208704,11.7196817 32.0208704,11.1036158 C32.0208704,10.48755 31.526519,9.98812989 30.9167057,9.98812989 L19.8750585,9.98812989 C18.8653715,9.98965898 17.9836549,9.29816914 17.7347732,8.30960242 L17.7347732,8.3068137 C17.5674898,7.63955023 17.714239,6.93163668 18.1324872,6.38825472 C18.5507354,5.84487276 19.1937127,5.52678505 19.8750585,5.52618612 L30.9167057,5.52618612 C31.2095525,5.5261969 31.4904089,5.40867989 31.6974882,5.19948817 L31.8092848,5.08654522 C35.5873429,1.2780285 41.7040984,1.2780285 45.4821565,5.08654522 L45.5939532,5.19948817 C45.8011001,5.40874824 46.0820693,5.52627087 46.3750117,5.52618612 L50.7916706,5.52618612 L50.7916706,18.9578918 Z" id="Shape"></path>
            </g>
            <circle id="Oval" fill="url(#linearGradient-2)" cx="32" cy="29" r="3"></circle>
            <circle id="Oval-Copy" fill="url(#linearGradient-2)" cx="43" cy="32" r="3"></circle>
            <circle id="Oval-Copy-2" fill="url(#linearGradient-2)" cx="35" cy="38" r="3"></circle>
        </g>
    </g>
</svg>