<?xml version="1.0" encoding="UTF-8"?>
<svg width="98px" height="98px" viewBox="0 0 98 98" version="1.1" xmlns="http://www.w3.org/2000/svg" xmlns:xlink="http://www.w3.org/1999/xlink">
    <!-- Generator: Sketch 64 (93537) - https://sketch.com -->
    <title>digitalidentity</title>
    <desc>Created with Sketch.</desc>
    <defs>
        <linearGradient x1="0%" y1="50.0007883%" x2="99.9987174%" y2="50.0007883%" id="linearGradient-1">
            <stop stop-color="#E29A64" offset="0%"></stop>
            <stop stop-color="#E85E8C" offset="100%"></stop>
        </linearGradient>
        <linearGradient x1="0%" y1="50.0007883%" x2="99.9987174%" y2="50.0007883%" id="linearGradient-2">
            <stop stop-color="#E29A64" offset="0%"></stop>
            <stop stop-color="#E85E8C" offset="100%"></stop>
        </linearGradient>
        <linearGradient x1="0%" y1="50.0007883%" x2="99.9987174%" y2="50.0007883%" id="linearGradient-3">
            <stop stop-color="#E29A64" offset="0%"></stop>
            <stop stop-color="#E85E8C" offset="100%"></stop>
        </linearGradient>
        <linearGradient x1="0%" y1="50.0007883%" x2="99.9987174%" y2="50.0007883%" id="linearGradient-4">
            <stop stop-color="#E29A64" offset="0%"></stop>
            <stop stop-color="#E85E8C" offset="100%"></stop>
        </linearGradient>
    </defs>
    <g id="digitalidentity" stroke="none" stroke-width="1" fill="none" fill-rule="evenodd">
        <g id="biometric" transform="translate(24.000000, 24.000000)">
            <path d="M24.9549805,30.0045898 C25.7639648,30.0045898 26.4198242,29.3487305 26.4198242,28.5397461 L26.4198242,21.4603516 C26.4198242,20.6513672 25.7639648,19.9955078 24.9549805,19.9955078 C24.1459961,19.9955078 23.4901367,20.6513672 23.4901367,21.4603516 L23.4901367,28.5397461 C23.4901367,29.3487305 24.1459961,30.0045898 24.9549805,30.0045898 Z" id="Path" fill="url(#linearGradient-1)"></path>
            <path d="M36.5849609,27.5170898 C35.7759766,27.5170898 35.1201172,28.1729492 35.1201172,28.9819336 C35.1201172,35.3621094 30.5600586,40.5527344 24.9549805,40.5527344 C19.3499023,40.5527344 14.7898437,35.3621094 14.7898437,28.9819336 L14.7898437,21.0179688 C14.7898437,20.2089844 14.1339844,19.553125 13.325,19.553125 C12.5160156,19.553125 11.8601562,20.2089844 11.8601562,21.0179688 L11.8601562,28.9819336 C11.8601562,36.9775391 17.7344727,43.4824219 24.9549805,43.4824219 C32.1754883,43.4824219 38.0498047,36.9775391 38.0498047,28.9819336 C38.0498047,28.1729492 37.3939453,27.5170898 36.5849609,27.5170898 Z" id="Path" fill="url(#linearGradient-2)"></path>
            <path d="M24.9549805,36.9649414 C28.9691406,36.9649414 32.2350586,33.3837891 32.2350586,28.9820312 L32.2350586,21.0170898 C32.2350586,20.2081055 31.5791992,19.5525391 30.7702148,19.5525391 C29.9612305,19.5525391 29.3053711,20.2085937 29.3053711,21.0175781 L29.3053711,28.9820312 C29.3053711,31.7683594 27.3538086,34.0352539 24.9549805,34.0352539 C24.1459961,34.0352539 23.4901367,34.6911133 23.4901367,35.5000977 C23.4901367,36.309082 24.1459961,36.9649414 24.9549805,36.9649414 Z" id="Path" fill="url(#linearGradient-3)"></path>
            <path d="M48.5351562,13.0162109 L42.4518555,13.0162109 C41.5231445,10.5057617 40.1516602,8.19833984 38.3822266,6.21542969 C34.8057617,2.20732422 30.037207,0 24.9549805,0 C19.872168,0 15.1032227,2.2078125 11.5266602,6.21669922 C9.75771484,8.19941406 8.38662109,10.5063477 7.45810547,13.0162109 L1.46484375,13.0162109 C0.655859375,13.0162109 -2.77555756e-15,13.6720703 -2.77555756e-15,14.4810547 C-2.77555756e-15,15.2900391 0.655859375,15.9458984 1.46484375,15.9458984 L6.59697266,15.9458984 C6.23310547,17.5859375 6.04541016,19.2862305 6.04541016,21.0180664 L6.04541016,28.9820313 C6.04541016,34.5650391 7.99199219,39.821582 11.5266602,43.7833984 C15.1032227,47.7921875 19.872168,50 24.9550781,50 C30.0378906,50 34.8068359,47.7921875 38.3833984,43.7833984 C41.9179687,39.821582 43.8646484,34.5650391 43.8646484,28.9820312 L43.8646484,21.0146484 C43.8643555,19.284082 43.6766602,17.5849609 43.3129883,15.9459961 L48.5351562,15.9459961 C49.3441406,15.9459961 50,15.2901367 50,14.4811523 C50,13.6720703 49.3441406,13.0162109 48.5351562,13.0162109 Z M24.9550781,2.9296875 C31.2292969,2.9296875 36.6700195,7.04521484 39.2832031,13.0162109 L35.8697266,13.0162109 C33.5220703,9.10283203 29.5061523,6.51757812 24.9549805,6.51757812 C24.1459961,6.51757812 23.4901367,7.1734375 23.4901367,7.98242187 C23.4901367,8.79140625 24.1459961,9.44726562 24.9549805,9.44726562 C27.8349609,9.44726562 30.4389648,10.8180664 32.2904297,13.0162109 L10.6265625,13.0162109 C13.2396484,7.04521484 18.6802734,2.9296875 24.9550781,2.9296875 Z M40.9350586,28.9819336 C40.9350586,38.955957 33.7664062,47.0703125 24.9549805,47.0703125 C16.1436523,47.0703125 8.97509766,38.955957 8.97509766,28.9819336 L8.97509766,21.0179687 C8.97509766,19.2577148 9.19931641,17.5558594 9.61552734,15.9458008 L19.334375,15.9458008 C18.2953125,17.3053711 17.675,19.0679687 17.675,21.0179687 L17.675,28.9819336 C17.675,29.790918 18.3308594,30.4467773 19.1398437,30.4467773 C19.9488281,30.4467773 20.6046875,29.790918 20.6046875,28.9819336 L20.6046875,21.0179687 C20.6046875,18.2316406 22.55625,15.9647461 24.9550781,15.9647461 C24.9920898,15.9647461 34.0899414,15.9458008 34.0899414,15.9458008 C34.7491211,17.4779297 35.1200195,19.1987305 35.1202148,21.0164062 L35.1202148,21.0166016 C35.1202148,21.8255859 35.7760742,22.4811523 36.5850586,22.4811523 C37.394043,22.4811523 38.0499023,21.8250977 38.0499023,21.0160156 L38.0499023,21.015625 C38.0496094,19.2329102 37.7566406,17.524707 37.2225586,15.9458008 L40.2945312,15.9458008 C40.7105469,17.5549805 40.9350586,19.255957 40.9350586,21.0152344 L40.9350586,28.9819336 L40.9350586,28.9819336 Z" id="Shape" fill="url(#linearGradient-4)"></path>
        </g>
    </g>
</svg>