<?xml version="1.0" encoding="UTF-8"?>
<svg width="98px" height="98px" viewBox="0 0 98 98" version="1.1" xmlns="http://www.w3.org/2000/svg" xmlns:xlink="http://www.w3.org/1999/xlink">
    <!-- Generator: Sketch 64 (93537) - https://sketch.com -->
    <title>financialservices</title>
    <desc>Created with Sketch.</desc>
    <defs>
        <linearGradient x1="0%" y1="50.0007883%" x2="99.9987174%" y2="50.0007883%" id="linearGradient-1">
            <stop stop-color="#E29A64" offset="0%"></stop>
            <stop stop-color="#E85E8C" offset="100%"></stop>
        </linearGradient>
    </defs>
    <g id="financialservices" stroke="none" stroke-width="1" fill="none" fill-rule="evenodd">
        <path d="M73.1935484,46.5806452 C73.6046785,46.5806452 73.9439532,46.8882945 73.9937166,47.2859372 L74,47.3870968 L74,73.1935484 C74,73.6046785 73.6923507,73.9439532 73.294708,73.9937166 L73.1935484,74 L24.8064516,74 C24.3953215,74 24.0560468,73.6923507 24.0062834,73.294708 L24,73.1935484 L24,47.3870968 C24,46.9759667 24.3076493,46.636692 24.705292,46.5869286 L24.8064516,46.5806452 L73.1935484,46.5806452 Z M72.3870968,48.1935484 L25.6129032,48.1935484 L25.6129032,72.3870968 L72.3870968,72.3870968 L72.3870968,48.1935484 Z M49,49.8064516 C54.7900821,49.8064516 59.483871,54.5002405 59.483871,60.2903226 C59.483871,66.0804046 54.7900821,70.7741935 49,70.7741935 C43.2099179,70.7741935 38.516129,66.0804046 38.516129,60.2903226 C38.516129,54.5002405 43.2099179,49.8064516 49,49.8064516 Z M49,51.4193548 C44.1006998,51.4193548 40.1290323,55.3910224 40.1290323,60.2903226 C40.1290323,65.1896228 44.1006998,69.1612903 49,69.1612903 C53.8993002,69.1612903 57.8709677,65.1896228 57.8709677,60.2903226 C57.8709677,55.3910224 53.8993002,51.4193548 49,51.4193548 Z M49.8064516,53.0322581 L49.8064516,54.7580645 C51.1651776,55.1088782 52.1337927,56.2944058 52.2196207,57.6807374 L52.2258065,57.8709677 L50.6129032,57.8709677 C50.6129032,56.9801859 49.8907819,56.2580645 49,56.2580645 C48.1092181,56.2580645 47.3870968,56.9801859 47.3870968,57.8709677 C47.3870968,58.7617496 48.1092181,59.483871 49,59.483871 C50.6093315,59.5031609 51.9582222,60.7057421 52.1613491,62.3023195 C52.3566634,63.8374901 51.4351885,65.2852482 49.9831993,65.76919 L49.8064516,65.8225806 L49.8064516,67.5483871 L48.1935484,67.5483871 L48.1935484,65.8225806 C46.8348224,65.471767 45.8662073,64.2862394 45.7803793,62.8999078 L45.7741935,62.7096774 L47.3870968,62.7096774 C47.3870968,63.6004593 48.1092181,64.3225806 49,64.3225806 C49.8907819,64.3225806 50.6129032,63.6004593 50.6129032,62.7096774 C50.6129032,61.8188956 49.8907819,61.0967742 49,61.0967742 C47.3906685,61.0774843 46.0417778,59.874903 45.8386509,58.2783256 C45.6433366,56.743155 46.5648115,55.295397 48.0168007,54.8114551 L48.1935484,54.7580645 L48.1935484,53.0322581 L49.8064516,53.0322581 Z M65.9354839,53.0374434 C66.1571627,53.0374434 66.3673139,53.1285733 66.5183426,53.2865319 L66.5887097,53.3709677 L70.6209677,59.016129 C70.7956669,59.2614891 70.8190751,59.5837541 70.6816671,59.8517846 C70.561435,60.0863113 70.3356138,60.2451091 70.0792589,60.282074 L69.9677419,60.2903226 L68.3548387,60.2903226 L68.3548387,66.7419355 C68.3548387,67.1530656 68.0471894,67.4923403 67.6495467,67.5421037 L67.5483871,67.5483871 L64.3225806,67.5483871 C63.9114506,67.5483871 63.5721758,67.2407378 63.5224124,66.8430951 L63.516129,66.7419355 L63.516129,60.2903226 L61.9032258,60.2903226 C61.6020292,60.2889344 61.3267087,60.1198152 61.1893007,59.8517846 C61.0690686,59.6172579 61.0719616,59.3412079 61.1915982,59.1114878 L61.25,59.016129 L65.2822581,53.3709677 C65.4339237,53.1614813 65.6768586,53.0374434 65.9354839,53.0374434 Z M33.6774194,53.0322581 C34.0885494,53.0322581 34.4278242,53.3399074 34.4775876,53.7375501 L34.483871,53.8387097 L34.483871,60.2903226 L36.0967742,60.2903226 C36.3979708,60.2917108 36.6732913,60.46083 36.8106993,60.7288605 C36.9309314,60.9633873 36.9280384,61.2394372 36.8084018,61.4691573 L36.75,61.5645161 L32.7177419,67.2096774 C32.5660763,67.4191639 32.3231414,67.5432017 32.0645161,67.5432017 C31.8428373,67.5432017 31.6326861,67.4520719 31.4816574,67.2941133 L31.4112903,67.2096774 L27.3790323,61.5645161 C27.2043331,61.319156 27.1809249,60.9968911 27.3183329,60.7288605 C27.438565,60.4943338 27.6643862,60.3355361 27.9207411,60.2985711 L28.0322581,60.2903226 L29.6451613,60.2903226 L29.6451613,53.8387097 C29.6451613,53.4275796 29.9528106,53.0883049 30.3504533,53.0385415 L30.4516129,53.0322581 L33.6774194,53.0322581 Z M65.9354839,55.2258065 L63.4677419,58.6774194 L64.3225806,58.6774194 C64.7337107,58.6774194 65.0729855,58.9850687 65.1227489,59.3827114 L65.1290323,59.483871 L65.1290323,65.9354839 L66.7419355,65.9354839 L66.7419355,59.483871 C66.7419355,59.0727409 67.0495848,58.7334661 67.4472275,58.6837028 L67.5483871,58.6774194 L68.4032258,58.6774194 L65.9354839,55.2258065 Z M32.8709677,54.6451613 L31.2580645,54.6451613 L31.2580645,61.0967742 C31.2580645,61.5079043 30.9504152,61.847179 30.5527725,61.8969424 L30.4516129,61.9032258 L29.5967742,61.9032258 L32.0645161,65.3548387 L34.5322581,61.9032258 L33.6774194,61.9032258 C33.2662893,61.9032258 32.9270145,61.5955765 32.8772511,61.1979338 L32.8709677,61.0967742 L32.8709677,54.6451613 Z M40.9354839,36.9032258 C41.346614,36.9032258 41.6858887,37.2108751 41.7356521,37.6085178 L41.7419355,37.7096774 L41.7419355,44.1612903 C41.7419355,44.5724204 41.4342861,44.9116951 41.0366434,44.9614585 L40.9354839,44.9677419 L37.7096774,44.9677419 C37.2985473,44.9677419 36.9592726,44.6600926 36.9095092,44.2624499 L36.9032258,44.1612903 L36.9032258,37.7096774 C36.9032258,37.2985473 37.2108751,36.9592726 37.6085178,36.9095092 L37.7096774,36.9032258 L40.9354839,36.9032258 Z M47.3870968,35.2903226 C47.7982269,35.2903226 48.1375016,35.5979719 48.187265,35.9956146 L48.1935484,36.0967742 L48.1935484,44.1612903 C48.1935484,44.5724204 47.885899,44.9116951 47.4882564,44.9614585 L47.3870968,44.9677419 L44.1612903,44.9677419 C43.7501602,44.9677419 43.4108855,44.6600926 43.3611221,44.2624499 L43.3548387,44.1612903 L43.3548387,36.0967742 C43.3548387,35.6856441 43.6624881,35.3463694 44.0601307,35.296606 L44.1612903,35.2903226 L47.3870968,35.2903226 Z M53.8387097,33.6774194 C54.2841006,33.6774194 54.6451613,34.03848 54.6451613,34.483871 L54.6451613,34.483871 L54.6451613,44.1612903 C54.6451613,44.6066812 54.2841006,44.9677419 53.8387097,44.9677419 L53.8387097,44.9677419 L50.6129032,44.9677419 C50.1675123,44.9677419 49.8064516,44.6066812 49.8064516,44.1612903 L49.8064516,44.1612903 L49.8064516,34.483871 C49.8064516,34.03848 50.1675123,33.6774194 50.6129032,33.6774194 L50.6129032,33.6774194 Z M60.2903226,32.0645161 C60.7357135,32.0645161 61.0967742,32.4255768 61.0967742,32.8709677 L61.0967742,32.8709677 L61.0967742,44.1612903 C61.0967742,44.6066812 60.7357135,44.9677419 60.2903226,44.9677419 L60.2903226,44.9677419 L57.0645161,44.9677419 C56.6191252,44.9677419 56.2580645,44.6066812 56.2580645,44.1612903 L56.2580645,44.1612903 L56.2580645,32.8709677 C56.2580645,32.4255768 56.6191252,32.0645161 57.0645161,32.0645161 L57.0645161,32.0645161 Z M40.1290323,38.516129 L38.516129,38.516129 L38.516129,43.3548387 L40.1290323,43.3548387 L40.1290323,38.516129 Z M46.5806452,36.9032258 L44.9677419,36.9032258 L44.9677419,43.3548387 L46.5806452,43.3548387 L46.5806452,36.9032258 Z M53.0322581,35.2903226 L51.4193548,35.2903226 L51.4193548,43.3548387 L53.0322581,43.3548387 L53.0322581,35.2903226 Z M59.483871,33.6774194 L57.8709677,33.6774194 L57.8709677,43.3548387 L59.483871,43.3548387 L59.483871,33.6774194 Z M59.483871,24 C59.9292619,24 60.2903226,24.3610607 60.2903226,24.8064516 L60.2903226,24.8064516 L60.2903226,28.0322581 L58.6774194,28.0322581 L58.6774194,26.75 L54.4112903,31.0241935 C54.2590977,31.1751504 54.0530669,31.2593038 53.8387097,31.2580645 L53.8387097,31.2580645 L44.4596774,31.2580645 L39.0403226,35.9032258 L37.9919355,34.6774194 L43.6370968,29.8387097 C43.7831789,29.7137858 43.969077,29.6451465 44.1612903,29.6451613 L44.1612903,29.6451613 L53.5080645,29.6451613 L57.5403226,25.6129032 L56.2580645,25.6129032 L56.2580645,24 Z" id="Combined-Shape" fill="url(#linearGradient-1)"></path>
    </g>
</svg>