<?xml version="1.0" encoding="UTF-8"?>
<svg width="98px" height="98px" viewBox="0 0 98 98" version="1.1" xmlns="http://www.w3.org/2000/svg" xmlns:xlink="http://www.w3.org/1999/xlink">
    <!-- Generator: Sketch 64 (93537) - https://sketch.com -->
    <title>Healthcare</title>
    <desc>Created with Sketch.</desc>
    <defs>
        <linearGradient x1="0%" y1="50.0007883%" x2="99.9987174%" y2="50.0007883%" id="linearGradient-1">
            <stop stop-color="#E29A64" offset="0%"></stop>
            <stop stop-color="#E85E8C" offset="100%"></stop>
        </linearGradient>
    </defs>
    <g id="Healthcare" stroke="none" stroke-width="1" fill="none" fill-rule="evenodd">
        <path d="M51.5599488,53.7038126 C52.5839728,54.7701565 53.4298569,55.9938341 54.0652843,57.3280951 L65.5787748,52.5999702 C67.2513401,51.9156993 69.1693155,52.2599637 70.4986202,53.4830513 C71.827925,54.706139 72.3283386,56.5870239 71.7822435,58.3077552 C71.3722587,59.5961878 70.4205823,60.6423275 69.1755892,61.173146 L43.8228832,72 L43.2610249,71.7332381 C31.8442478,66.3198111 30.3152562,65.501128 29.9698515,65.2343661 L31.9593827,63.2152544 C33.5160066,64.0247388 39.6780267,66.9775172 43.8873588,68.9736322 L68.0933211,58.6343086 C68.6012672,58.4190818 68.9895332,57.9927352 69.1560285,57.4673723 C69.3225238,56.9420094 69.2505879,56.3702012 68.9591356,55.9022987 C68.4744935,55.1118751 67.4855784,54.7917784 66.6288051,55.1480064 L48.2072204,62.7231247 L39.3832813,58.2433644 L40.6359491,55.7873151 L48.3177499,59.6967569 L51.5092895,58.3813447 C51.0082907,57.3677606 50.354376,56.4370404 49.5704177,55.6217387 C44.3248714,50.185315 34.4370858,49.7989702 28.6112596,54.7386648 L26,53.4508487 C26.1381704,53.2450656 26.3075201,53.0619739 26.5019882,52.9081262 C33.3410015,46.8047978 45.2643722,47.1865433 51.5599488,53.7038126 Z M33.6035093,29.0329357 C37.6527454,24.9890215 44.2178543,24.9890214 48.2670905,29.0329355 L48.2670905,29.0329355 L48.9993485,29.7642311 L49.7316065,29.0329355 C53.7845917,24.9980702 60.3422028,24.9980702 64.395188,29.0329355 C68.437895,33.0795485 68.437895,39.6306314 64.395188,43.6772444 L64.395188,43.6772444 L54.8067531,53.253077 C54.4155496,52.739387 53.9957991,52.2480185 53.54948,51.7812871 C53.3560533,51.5835154 53.1580213,51.3857436 52.9553839,51.2017699 L52.9553839,51.2017699 L62.4425,41.7271228 C65.4158399,38.760231 65.4179018,33.9478897 62.4471054,30.9784577 C59.476309,28.0090257 54.6576344,28.0069665 51.6842945,30.9738584 L51.6842945,30.9738584 L50.9520365,31.7051539 L54.6363535,35.3846285 L52.6836655,37.3347501 L46.3144026,30.983057 C43.3064814,28.2817639 38.7078649,28.4035005 35.8474634,31.2601425 C32.9870619,34.1167845 32.8651651,38.709357 35.5700133,41.7133248 L35.5700133,41.7133248 L39.6734213,45.8113396 L39.3280166,45.8113396 C38.1848473,45.7786022 37.0408524,45.8339584 35.9062072,45.976916 L35.9062072,45.976916 L33.6035091,43.6772444 C29.554273,39.6333301 29.5542731,33.0768498 33.6035093,29.0329357 Z" id="Combined-Shape" fill="url(#linearGradient-1)"></path>
    </g>
</svg>