<?xml version="1.0" encoding="UTF-8"?>
<svg width="98px" height="98px" viewBox="0 0 98 98" version="1.1" xmlns="http://www.w3.org/2000/svg" xmlns:xlink="http://www.w3.org/1999/xlink">
    <!-- Generator: Sketch 64 (93537) - https://sketch.com -->
    <title>iot</title>
    <desc>Created with Sketch.</desc>
    <defs>
        <linearGradient x1="0%" y1="50.0007883%" x2="99.9987174%" y2="50.0007883%" id="linearGradient-1">
            <stop stop-color="#E29A64" offset="0%"></stop>
            <stop stop-color="#E85E8C" offset="100%"></stop>
        </linearGradient>
    </defs>
    <g id="iot" stroke="none" stroke-width="1" fill="none" fill-rule="evenodd">
        <g id="smart-home" transform="translate(25.000000, 25.000000)" fill="url(#linearGradient-1)">
            <path d="M22.9783943,0.288838861 C23.5034118,-0.0960932125 24.2171672,-0.0960932125 24.7421847,0.288838861 L24.7421847,0.288838861 L47.1111188,16.6927238 C47.7752897,17.1797142 47.9188237,18.1129647 47.4317402,18.7772289 C47.139546,19.1755823 46.6868547,19.3866891 46.2280119,19.3866891 C45.9219303,19.3866891 45.6131458,19.2927396 45.3473283,19.0978503 L45.3473283,19.0978503 L44.7379613,18.6509376 L44.7379613,43.4330136 C44.7379613,45.7970371 42.8146058,47.7203926 40.4505823,47.7203926 L40.4505823,47.7203926 L7.26999677,47.7203926 C4.90597325,47.7203926 2.98261774,45.7970371 2.98261774,43.4330136 L2.98261774,43.4330136 L2.98261774,18.6508444 L2.3732507,19.097757 C1.70926617,19.5849338 0.776015603,19.4413066 0.288838861,18.7771357 C-0.198244678,18.1129647 -0.0547106845,17.1798074 0.609460249,16.6927238 L0.609460249,16.6927238 Z M23.8602895,3.34061389 L5.96514228,16.4637219 L5.96514228,43.4331068 C5.96514228,44.1526408 6.55046272,44.7379613 7.26999677,44.7379613 L7.26999677,44.7379613 L40.4505823,44.7379613 C41.1701163,44.7379613 41.7554367,44.1526408 41.7554367,43.4331068 L41.7554367,43.4331068 L41.7554367,16.4637219 L23.8602895,3.34061389 Z M23.8602895,31.3166009 C25.0936566,31.3166009 26.0971829,32.3201272 26.0971829,33.5534943 C26.0971829,34.7868614 25.0936566,35.7903877 23.8602895,35.7903877 C22.6269224,35.7903877 21.6233961,34.7868614 21.6233961,33.5534943 C21.6233961,32.3201272 22.6269224,31.3166009 23.8602895,31.3166009 Z M23.8603827,24.6059206 C25.8526159,24.6059206 27.7252685,25.381377 29.1332065,26.7894082 C29.7156376,27.3717461 29.7156376,28.3159948 29.1332065,28.8983327 C28.8419443,29.1895016 28.4603676,29.3350861 28.0786977,29.3350861 C27.6970277,29.3350861 27.315451,29.1895016 27.024282,28.8983327 C26.1795752,28.0536258 25.0560022,27.5884452 23.8603827,27.5884452 C22.6647632,27.5884452 21.5411903,28.0536258 20.6964834,28.8983327 C20.1141455,29.4806706 19.1698969,29.4806706 18.5875589,28.8983327 C18.0051278,28.3159016 18.0051278,27.3717461 18.5875589,26.7894082 C19.9954969,25.381377 21.8681495,24.6059206 23.8603827,24.6059206 Z M23.8603827,19.3865027 C27.2469461,19.3865027 30.4300454,20.7051514 32.8234282,23.0996526 C33.4056729,23.6821769 33.4053933,24.6263323 32.8229622,25.208577 C32.5317,25.4995596 32.1500301,25.645144 31.7686397,25.645144 C31.3867834,25.645144 31.0052067,25.4994664 30.7139445,25.208111 C28.8839793,23.3773069 26.4499596,22.3690272 23.8603827,22.3690272 C21.2708058,22.3690272 18.8367862,23.3773069 17.0068209,25.208111 C16.4245762,25.7906353 15.4802344,25.7908217 14.8978033,25.208577 C14.3153722,24.6263323 14.3150925,23.6820837 14.8973373,23.0996526 C17.29072,20.7052446 20.4738193,19.3865027 23.8603827,19.3865027 Z" id="Combined-Shape"></path>
        </g>
    </g>
</svg>