<?xml version="1.0" encoding="UTF-8"?>
<svg width="98px" height="98px" viewBox="0 0 98 98" version="1.1" xmlns="http://www.w3.org/2000/svg" xmlns:xlink="http://www.w3.org/1999/xlink">
    <!-- Generator: Sketch 64 (93537) - https://sketch.com -->
    <title>smartcontracts</title>
    <desc>Created with Sketch.</desc>
    <defs>
        <linearGradient x1="0%" y1="50.0007883%" x2="99.9987174%" y2="50.0007883%" id="linearGradient-1">
            <stop stop-color="#E29A64" offset="0%"></stop>
            <stop stop-color="#E85E8C" offset="100%"></stop>
        </linearGradient>
    </defs>
    <g id="smartcontracts" stroke="none" stroke-width="1" fill="none" fill-rule="evenodd">
        <g id="deal" transform="translate(18.000000, 28.000000)" fill="url(#linearGradient-1)">
            <path d="M62.3181754,2.85666158 C61.9689123,2.61104754 61.5211579,2.55087211 61.1195789,2.69934579 L50.4405263,6.58311772 C49.1165439,7.06415281 48.0623684,8.03383702 47.4726491,9.31299491 C47.3621228,9.55283702 47.2895439,9.80201246 47.2168421,10.0508195 C45.3830877,9.52950369 41.975193,8.44069667 38.5884211,6.69573176 C33.4706842,4.05869667 29.5608772,5.3611879 26.2075088,7.91901246 C24.5083509,7.95241597 22.1664211,8.15332825 19.8642807,8.35620544 C18.3957544,8.48576684 17.0079123,8.60501246 15.8825088,8.67366158 C15.8548772,7.99773176 15.6967018,7.32695983 15.4049123,6.69327562 C14.815193,5.41399491 13.7611404,4.4443107 12.4370351,3.96339842 L1.75773684,0.0793808782 C1.35738596,-0.0677419288 0.907052632,-0.0075664902 0.559140351,0.236696668 C0.208526316,0.48243351 0,0.882784387 0,1.31003 L0,27.5088195 C0,28.2328897 0.585912281,28.8188019 1.30998246,28.8188019 L5.13615789,28.8188019 C6.76347368,28.8188019 8.2774386,28.0512581 9.25608772,26.8118897 C9.77740351,27.2083107 10.3948772,27.6725212 11.0424386,28.1587142 C12.5711404,29.3088019 14.244386,30.563644 14.9786491,31.17903 C19.8564211,35.2623633 25.7204561,39.6718721 26.8883509,40.439416 C27.9794912,41.1557493 29.9444035,41.9182581 31.4385965,41.9182581 C32.0231579,41.9182581 33.495614,41.9182581 34.5292807,41.0444861 C35.5948772,41.4627668 36.743614,41.4423809 37.8117895,40.9715388 C38.877386,40.5020475 39.739614,39.6168546 40.2410351,38.5409423 C41.264386,38.7506967 42.4400175,38.5971879 43.505614,38.0624861 C44.5046491,37.5622932 45.2402632,36.8049423 45.6342281,35.9197493 C46.5808246,36.0066967 47.5915263,35.6984511 48.4958772,35.0063107 C49.7880526,34.0185739 50.3797368,32.5598721 50.2123509,31.1208195 L53.5351404,29.2825212 C54.5082632,30.6015914 56.0548947,31.4385212 57.7409123,31.4385212 L61.5670877,31.4385212 C62.2911579,31.4385212 62.8770702,30.8526089 62.8770702,30.1285388 L62.8770702,3.92999491 C62.8770702,3.50262649 62.6686667,3.10227562 62.3181754,2.85666158 Z M7.5897193,24.4988195 C7.20852632,25.5157844 6.22226316,26.1989598 5.13615789,26.1989598 L2.61984211,26.1989598 L2.61984211,3.18025807 L11.5412807,6.42445105 C12.2039474,6.66625807 12.7310351,7.15110018 13.0251579,7.79067912 C13.3206316,8.43025807 13.3462982,9.14671421 13.0993333,9.80545105 L7.5897193,24.4988195 Z M46.9058947,32.925223 C46.4619474,33.2655212 45.8402982,33.4548897 45.5639825,33.1785739 C45.5498596,33.1644511 45.528,33.1658019 45.5135088,33.1522932 C45.4884561,33.1290826 45.4760526,33.0977668 45.4489123,33.0761528 C44.5125088,32.3367318 40.3165614,28.043644 37.723614,25.3393107 C37.2234211,24.8161528 36.3932456,24.7968721 35.8725439,25.299644 C35.349386,25.799837 35.3314561,26.6287844 35.8328772,27.1507142 C36.4415088,27.7859949 41.3272632,32.8745037 43.2827193,34.6541002 C43.1367018,35.2293282 42.6034737,35.5844861 42.3326842,35.7203107 C41.4935439,36.1411704 40.6185439,36.0708019 40.2910175,35.7663633 C40.2813158,35.7572756 40.2668246,35.7577668 40.2567544,35.7489247 C40.2407895,35.7346791 40.2336667,35.7146616 40.2167193,35.7011528 C38.6457719,34.4461879 34.7045263,30.2579774 33.8128246,29.2882932 C33.3228246,28.7548195 32.4952281,28.7215388 31.9617544,29.2103107 C31.4296316,29.7003107 31.3937719,30.5292581 31.8837719,31.0613809 C31.9267544,31.1079247 35.7892807,35.2743984 37.9586667,37.2097142 C37.7454737,37.8222756 37.3111053,38.3295914 36.753807,38.5755739 C36.3425263,38.7583107 35.6992632,38.8520125 34.9642632,38.308837 C33.0831053,36.7138195 29.3078947,32.6952054 28.5654035,31.9005212 C28.0729474,31.3708546 27.2414211,31.3440826 26.7143333,31.8378897 C26.1860175,32.3316967 26.1578947,33.160644 26.6517018,33.6889598 C27.5319825,34.6311353 30.1338947,37.3888897 32.1118246,39.2561704 C31.8908947,39.2830651 31.6589123,39.298416 31.4385965,39.298416 C30.5712105,39.298416 29.0809474,38.7445563 28.3275263,38.2493984 C27.4090526,37.6455563 21.6421579,33.3422756 16.6620877,29.1718721 C15.9086667,28.5399072 14.1893684,27.2466265 12.6158421,26.0646089 C11.7725263,25.4315388 10.9955263,24.847837 10.4228772,24.4073282 L15.3275439,11.326416 C16.6006842,11.2707844 18.298,11.12403 20.0942982,10.9656089 C21.1102807,10.8760826 22.1273684,10.7887668 23.0992632,10.7131177 C21.6054386,12.2466089 19.3844737,14.9931879 19.6772456,17.5677142 C19.8115965,18.7395388 20.4525263,19.7156089 21.5334737,20.3910475 C23.6736316,21.7303809 27.6355088,20.6071879 29.5440526,18.2598546 C30.7759298,18.08203 31.608807,17.7673984 32.5169649,17.3170651 C34.0520526,18.7600475 36.1102982,20.4563809 38.2723158,22.2383107 C42.0358596,25.3391879 46.3020526,28.8545388 47.4304035,30.825837 C48.0584386,31.9222581 47.1873684,32.7103107 46.9058947,32.925223 Z M49.1531404,28.7124511 C47.407807,26.377644 43.6243684,23.2538019 39.9378246,20.2159247 C37.4804561,18.190837 35.1598947,16.2783633 33.6746667,14.7932581 C33.2653509,14.3863984 32.637193,14.2942932 32.130614,14.564223 C30.7963158,15.2793282 30.1951754,15.5748019 28.6882105,15.7257318 C28.2865088,15.7666265 27.9258246,15.9892756 27.7109123,16.3308019 C26.6836316,17.9605739 23.8283684,18.7357318 22.9226667,18.1703282 C22.4083509,17.8479598 22.3086316,17.5204335 22.2805088,17.2710125 C22.1538947,16.1567844 23.2821228,14.2277318 25.1537018,12.3549247 C29.7884386,7.7201879 33.1016491,6.81325807 37.3883509,9.02378439 C41.4611228,11.1236616 45.4807193,12.3109598 47.1680877,12.7594511 C47.2168421,12.9556967 47.2522105,13.1539072 47.3241754,13.3463458 L52.4104737,26.9105037 L49.1531404,28.7124511 Z M60.2573509,28.8188019 L57.7410351,28.8188019 C56.6549298,28.8188019 55.6686667,28.1356265 55.2874737,27.1186616 L49.7777368,12.426644 C49.5308947,11.7665563 49.5564386,11.050223 49.8519123,10.4105212 C50.1461579,9.77094228 50.6732456,9.28610018 51.3357895,9.04429316 L60.2572281,5.80010018 L60.2572281,28.8188019 L60.2573509,28.8188019 Z" id="Shape"></path>
        </g>
    </g>
</svg>