<?xml version="1.0" encoding="UTF-8"?>
<svg width="80px" height="80px" viewBox="0 0 80 80" version="1.1" xmlns="http://www.w3.org/2000/svg" xmlns:xlink="http://www.w3.org/1999/xlink">
    <!-- Generator: Sketch 64 (93537) - https://sketch.com -->
    <title>ac</title>
    <desc>Created with Sketch.</desc>
    <defs>
        <linearGradient x1="0%" y1="50.0007883%" x2="99.9987174%" y2="50.0007883%" id="linearGradient-1">
            <stop stop-color="#E29A64" offset="0%"></stop>
            <stop stop-color="#E85E8C" offset="100%"></stop>
        </linearGradient>
    </defs>
    <g id="ac" stroke="none" stroke-width="1" fill="none" fill-rule="evenodd">
        <path d="M14,61.7071294 C16.206,61.7071294 18,63.5011294 18,65.7071294 C18,67.9131294 16.206,69.7071294 14,69.7071294 C11.794,69.7071294 10,67.9131294 10,65.7071294 C10,63.5011294 11.794,61.7071294 14,61.7071294 Z M40,61.7071294 C42.206,61.7071294 44,63.5011294 44,65.7071294 C44,67.9131294 42.206,69.7071294 40,69.7071294 C37.794,69.7071294 36,67.9131294 36,65.7071294 C36,63.5011294 37.794,61.7071294 40,61.7071294 Z M66,61.7071294 C68.206,61.7071294 70,63.5011294 70,65.7071294 C70,67.9131294 68.206,69.7071294 66,69.7071294 C63.794,69.7071294 62,67.9131294 62,65.7071294 C62,63.5011294 63.794,61.7071294 66,61.7071294 Z M14,63.7071294 C12.897,63.7071294 12,64.6041294 12,65.7071294 C12,66.8101294 12.897,67.7071294 14,67.7071294 C15.103,67.7071294 16,66.8101294 16,65.7071294 C16,64.6041294 15.103,63.7071294 14,63.7071294 Z M40,63.7071294 C38.897,63.7071294 38,64.6041294 38,65.7071294 C38,66.8101294 38.897,67.7071294 40,67.7071294 C41.103,67.7071294 42,66.8101294 42,65.7071294 C42,64.6041294 41.103,63.7071294 40,63.7071294 Z M66,63.7071294 C64.897,63.7071294 64,64.6041294 64,65.7071294 C64,66.8101294 64.897,67.7071294 66,67.7071294 C67.103,67.7071294 68,66.8101294 68,65.7071294 C68,64.6041294 67.103,63.7071294 66,63.7071294 Z M52.406,47.3801294 C52.668,47.2401294 52.979,47.2221294 53.254,47.3311294 L53.254,47.3311294 L58.254,49.3311294 L57.511,51.1881294 L54.92,50.1511294 C55.739,51.5341294 56.679,52.8411294 57.747,54.0431294 C59.419,55.9251294 61.36,57.5431294 63.518,58.8521294 L63.518,58.8521294 L62.481,60.5621294 C60.152,59.1491294 58.057,57.4031294 56.252,55.3711294 C55.138,54.1161294 54.155,52.7541294 53.291,51.3171294 L53.291,51.3171294 L52.863,53.4561294 L50.902,53.0631294 L51.902,48.0631294 C51.96,47.7721294 52.145,47.5221294 52.406,47.3801294 Z M26.746,47.3301294 C27.021,47.2201294 27.332,47.2371294 27.594,47.3791294 C27.855,47.5201294 28.04,47.7711294 28.098,48.0621294 L28.098,48.0621294 L29.098,53.0621294 L27.137,53.4551294 L26.709,51.3171294 C25.845,52.7551294 24.862,54.1171294 23.748,55.3711294 C21.943,57.4031294 19.847,59.1491294 17.519,60.5611294 L17.519,60.5611294 L16.482,58.8511294 C18.64,57.5421294 20.581,55.9241294 22.253,54.0421294 C23.321,52.8401294 24.261,51.5331294 25.08,50.1501294 L25.08,50.1501294 L22.489,51.1871294 L21.746,49.3301294 Z M39.2,47.1071294 C39.577,46.6031294 40.423,46.6031294 40.8,47.1071294 L40.8,47.1071294 L43.8,51.1071294 L42.2,52.3071294 L41,50.7071294 L41,59.7071294 L39,59.7071294 L39,50.7071294 L37.8,52.3071294 L36.2,51.1071294 Z M41,40.7071294 L41,44.7071294 L39,44.7071294 L39,40.7071294 L41,40.7071294 Z M27.9786484,35.4579894 L29.3926484,36.8723894 L26.5638484,39.7003894 L25.1498484,38.2859894 L27.9786484,35.4579894 Z M52.01936,35.4529778 L54.84816,38.2809778 L53.43416,39.6953778 L50.60536,36.8673778 L52.01936,35.4529778 Z M40,10.8491294 C47.72,10.8491294 54,17.1291294 54,24.8491294 C54,32.5691294 47.72,38.8491294 40,38.8491294 C32.28,38.8491294 26,32.5691294 26,24.8491294 C26,17.1291294 32.28,10.8491294 40,10.8491294 Z M40,12.8491294 C33.383,12.8491294 28,18.2321294 28,24.8491294 C28,31.4661294 33.383,36.8491294 40,36.8491294 C46.617,36.8491294 52,31.4661294 52,24.8491294 C52,18.2321294 46.617,12.8491294 40,12.8491294 Z M41,13.8491294 L41,15.9501294 C43.279,16.4151294 45,18.4351294 45,20.8491294 L45,20.8491294 L43,20.8491294 C43,19.1951294 41.654,17.8491294 40,17.8491294 C38.346,17.8491294 37,19.1951294 37,20.8491294 C37,22.5031294 38.346,23.8491294 40,23.8491294 C42.757,23.8491294 45,26.0921294 45,28.8491294 C45,31.2641294 43.279,33.2831294 41,33.7481294 L41,33.7481294 L41,35.8491294 L39,35.8491294 L39,33.7481294 C36.721,33.2831294 35,31.2631294 35,28.8491294 L35,28.8491294 L37,28.8491294 C37,30.5031294 38.346,31.8491294 40,31.8491294 C41.654,31.8491294 43,30.5031294 43,28.8491294 C43,27.1951294 41.654,25.8491294 40,25.8491294 C37.243,25.8491294 35,23.6061294 35,20.8491294 C35,18.4341294 36.721,16.4151294 39,15.9501294 L39,15.9501294 L39,13.8491294 L41,13.8491294 Z M60,23.8491294 L60,25.8491294 L56,25.8491294 L56,23.8491294 L60,23.8491294 Z M24,23.8491294 L24,25.8491294 L20,25.8491294 L20,23.8491294 L24,23.8491294 Z M26.5645706,10.0001376 L29.3929706,12.8285376 L27.9787706,14.2427376 L25.1503706,11.4143376 L26.5645706,10.0001376 Z M53.4345082,10 L54.8487082,11.4142 L52.0203082,14.2426 L50.6061082,12.8284 L53.4345082,10 Z" id="Combined-Shape" fill="url(#linearGradient-1)" fill-rule="nonzero"></path>
    </g>
</svg>