<?xml version="1.0" encoding="UTF-8"?>
<svg width="80px" height="80px" viewBox="0 0 80 80" version="1.1" xmlns="http://www.w3.org/2000/svg" xmlns:xlink="http://www.w3.org/1999/xlink">
    <!-- Generator: Sketch 64 (93537) - https://sketch.com -->
    <title>ee</title>
    <desc>Created with Sketch.</desc>
    <defs>
        <linearGradient x1="0%" y1="50.0007883%" x2="99.9987174%" y2="50.0007883%" id="linearGradient-1">
            <stop stop-color="#E29A64" offset="0%"></stop>
            <stop stop-color="#E85E8C" offset="100%"></stop>
        </linearGradient>
    </defs>
    <g id="ee" stroke="none" stroke-width="1" fill="none" fill-rule="evenodd">
        <path d="M68.113871,16.0294 C70.2269317,16.0316052 71.9518757,17.690585 72.0596907,19.777327 L72.0650349,19.9805639 L72.0650349,56.8597693 C72.0630685,58.9729291 70.4039608,60.6980115 68.3171176,60.805611 L68.113871,60.8109332 L41.5999994,60.8109332 L41.5999994,66.3699271 L54.9369172,66.3699271 C55.7101158,66.3699271 56.3369172,66.9967285 56.3369172,67.7699271 C56.3369172,68.4976435 55.7816883,69.0956792 55.0717465,69.1635183 L54.9369172,69.1699271 L25.9580097,69.1699271 C25.1848111,69.1699271 24.5580097,68.5431258 24.5580097,67.7699271 C24.5580097,67.0422108 25.1132386,66.444175 25.8231804,66.3763359 L25.9580097,66.3699271 L38.7999995,66.3699271 L38.7999995,60.8109332 L12.2861279,60.8109332 C10.1729681,60.8089668 8.4478857,59.1498591 8.34028621,57.0630159 L8.33496399,56.8597693 L8.33496399,19.9805639 C8.33716924,17.8675032 9.99614898,16.1425592 12.082891,16.0347442 L12.2861279,16.0294 L68.113871,16.0294 Z M68.113927,18.8294 L12.2861279,18.8294 C11.6930318,18.8300984 11.2049086,19.2787285 11.1418531,19.8551953 L11.1349639,19.9805639 L11.1349639,56.8597693 C11.1358921,57.4527701 11.5844121,57.9407615 12.1607801,58.004 L12.2861279,58.0109333 L68.113871,58.0109333 C68.7068717,58.0100051 69.1948632,57.5614852 69.2581472,56.9851171 L69.265091,56.8597693 L69.265091,19.9805639 C69.2643426,19.3451038 68.7493871,18.8301483 68.113927,18.8294 Z M51.0085138,38.3294024 C51.4746782,37.8798074 52.2174814,37.8919601 52.6686382,38.356563 C53.1197949,38.8211659 53.1088943,39.5627292 52.6442759,40.0139163 L52.6442759,40.0139163 L44.228073,48.157094 C43.779593,48.5905347 43.0700065,48.5985761 42.6117861,48.1754106 L42.6117861,48.1754106 L38.5441818,44.416458 L29.9914284,52.6701331 C29.6898022,52.9614299 29.2554191,53.0699564 28.8519071,52.9548319 C28.4483951,52.8397073 28.1370571,52.5184217 28.0351713,52.1120003 C27.9332854,51.7055789 28.0563306,51.2757668 28.3579567,50.9844699 L28.3579567,50.9844699 L37.7102435,41.9589546 C38.1585825,41.525863 38.8678813,41.5183237 39.3253558,41.9417873 L39.3253558,41.9417873 L43.391809,45.6996024 Z M40.0078232,23 C40.2012637,23 40.3856103,23.0736101 40.523837,23.2029119 L40.6009425,23.2870327 L42.6933354,27.5174995 L47.4465271,28.1995709 C47.6914516,28.236088 47.8941062,28.406495 47.9692851,28.6391446 C48.0337242,28.8385586 47.9949288,29.0540591 47.8701978,29.2182496 L47.8007511,29.2957571 L44.3738399,32.5924356 L45.1976166,37.2370171 C45.2430403,37.4807896 45.1400324,37.7282787 44.9340081,37.8703691 C44.7651955,37.9983454 44.5447315,38.0329503 44.3469373,37.9680053 L44.2502734,37.9272084 L40.0078232,35.734836 L36.4820588,37.5455732 L35.7736109,37.9272084 C35.5481666,38.0407239 35.2769672,38.0187094 35.0734006,37.8703691 C34.8996096,37.7463861 34.7997495,37.5483986 34.8007576,37.3411269 L34.8097921,37.2370171 L35.6335688,32.5924356 L32.2066576,29.3363566 C32.0207167,29.1709629 31.9526703,28.9122537 32.0336645,28.6786448 C32.0885247,28.4495171 32.2681244,28.2731415 32.4942843,28.2163793 L32.5938327,28.1995709 L37.2975978,27.5174995 L39.414704,23.2870327 C39.5566613,23.1059985 39.7756947,23 40.0078232,23 Z M40.0078232,25.016571 L38.3273187,28.3863285 C38.2489984,28.5470781 38.1072075,28.6669264 37.9377562,28.7199883 L37.8330527,28.743604 L34.068393,29.303877 L36.5973876,31.7398463 L36.7868562,31.9103642 C36.9177488,32.034363 36.9889519,32.2053056 36.9866425,32.3811317 L36.9763249,32.4868769 L36.333779,36.1733105 L39.6947881,34.4356524 C39.8566228,34.3548647 40.0429211,34.3414001 40.2129103,34.3952586 L40.3126206,34.4356524 L43.6818675,36.1814304 L43.0475594,32.4868769 C43.0102081,32.3171337 43.0494481,32.1415947 43.1517281,32.004149 L43.2205525,31.926604 L45.9472535,29.2876372 L42.1825938,28.743604 C42.0053943,28.7185805 41.8477722,28.6239263 41.743916,28.4837928 L41.6883278,28.3944484 L40.4691382,25.9584791 L40.0078232,25.016571 Z M57.5053785,24 C57.6330492,24 57.754958,24.045226 57.8485837,24.1251095 L57.913148,24.1913552 L59.3516681,27.0116663 L62.6194874,27.4663806 C62.787873,27.4907253 62.927198,27.60433 62.9788835,27.7594297 C63.0219548,27.8886795 62.9979406,28.0280661 62.91777,28.1362998 L62.8630164,28.1971714 L60.5070149,30.394957 L61.0733614,33.4913447 C61.1045902,33.6538597 61.0337723,33.8188525 60.8921306,33.9135794 C60.7792958,33.996527 60.632896,34.0206372 60.4998863,33.9821247 L60.422063,33.9514723 L57.5053785,32.4898907 L55.0814155,33.6970488 L54.5943575,33.9514723 C54.4393645,34.0271493 54.252915,34.012473 54.1129629,33.9135794 C53.9968006,33.8332201 53.9286811,33.7062272 53.9256232,33.5722511 L53.9317321,33.4913447 L54.4980786,30.394957 L52.1420771,28.2242377 C52.0142427,28.1139753 51.9674608,27.9415025 52.0231443,27.7857632 C52.060091,27.6361288 52.1793315,27.5202416 52.3303414,27.4800023 L52.40826,27.4663806 L55.6420985,27.0116663 L57.097609,24.1913552 C57.1952047,24.0706657 57.3457901,24 57.5053785,24 Z M22.5053785,24 C22.6330492,24 22.754958,24.045226 22.8485837,24.1251095 L22.913148,24.1913552 L24.3516681,27.0116663 L27.6194874,27.4663806 C27.787873,27.4907253 27.927198,27.60433 27.9788835,27.7594297 C28.0219548,27.8886795 27.9979406,28.0280661 27.91777,28.1362998 L27.8630164,28.1971714 L25.5070149,30.394957 L26.0733614,33.4913447 C26.1045902,33.6538597 26.0337723,33.8188525 25.8921306,33.9135794 C25.7792958,33.996527 25.632896,34.0206372 25.4998863,33.9821247 L25.422063,33.9514723 L22.5053785,32.4898907 L20.0814155,33.6970488 L19.5943575,33.9514723 C19.4393645,34.0271493 19.252915,34.012473 19.1129629,33.9135794 C18.9968006,33.8332201 18.9286811,33.7062272 18.9256232,33.5722511 L18.9317321,33.4913447 L19.4980786,30.394957 L17.1420771,28.2242377 C17.0142427,28.1139753 16.9674608,27.9415025 17.0231443,27.7857632 C17.060091,27.6361288 17.1793315,27.5202416 17.3303414,27.4800023 L17.40826,27.4663806 L20.6420985,27.0116663 L22.097609,24.1913552 C22.1952047,24.0706657 22.3457901,24 22.5053785,24 Z M57.5053785,25.3443806 L56.3500316,27.5908857 C56.2983402,27.6937654 56.2064338,27.7715154 56.0960943,27.808868 L56.0102237,27.8290694 L53.4220202,28.2025847 L55.160704,29.8265642 L55.2909637,29.9402428 C55.3773528,30.019602 55.4259226,30.1278035 55.4282653,30.2400391 L55.4212234,30.3245846 L54.9794731,32.782207 L57.2901668,31.6237682 C57.3969777,31.5720642 57.5192888,31.5617233 57.6322997,31.5927458 L57.7149267,31.6237682 L60.0312839,32.7876203 L59.5951971,30.3245846 C59.5705452,30.2159489 59.5944216,30.1037524 59.6585836,30.0138817 L59.7141298,29.9510693 L61.5887368,28.1917581 L59.0005332,27.8290694 C58.8835816,27.8130543 58.7790342,27.7542581 58.7076863,27.666926 L58.6607253,27.596299 L57.8225325,25.9723194 L57.5053785,25.3443806 Z M22.5053785,25.3443806 L21.3500316,27.5908857 C21.2983402,27.6937654 21.2064338,27.7715154 21.0960943,27.808868 L21.0102237,27.8290694 L18.4220202,28.2025847 L20.160704,29.8265642 L20.2909637,29.9402428 C20.3773528,30.019602 20.4259226,30.1278035 20.4282653,30.2400391 L20.4212234,30.3245846 L19.9794731,32.782207 L22.2901668,31.6237682 C22.3969777,31.5720642 22.5192888,31.5617233 22.6322997,31.5927458 L22.7149267,31.6237682 L25.0312839,32.7876203 L24.5951971,30.3245846 C24.5705452,30.2159489 24.5944216,30.1037524 24.6585836,30.0138817 L24.7141298,29.9510693 L26.5887368,28.1917581 L24.0005332,27.8290694 C23.8835816,27.8130543 23.7790342,27.7542581 23.7076863,27.666926 L23.6607253,27.596299 L22.8225325,25.9723194 L22.5053785,25.3443806 Z" id="Combined-Shape" fill="url(#linearGradient-1)" fill-rule="nonzero"></path>
    </g>
</svg>