<?xml version="1.0" encoding="UTF-8"?>
<svg width="80px" height="80px" viewBox="0 0 80 80" version="1.1" xmlns="http://www.w3.org/2000/svg" xmlns:xlink="http://www.w3.org/1999/xlink">
    <!-- Generator: Sketch 64 (93537) - https://sketch.com -->
    <title>ga</title>
    <desc>Created with Sketch.</desc>
    <defs>
        <linearGradient x1="0%" y1="50.0007883%" x2="99.9987174%" y2="50.0007883%" id="linearGradient-1">
            <stop stop-color="#E29A64" offset="0%"></stop>
            <stop stop-color="#E85E8C" offset="100%"></stop>
        </linearGradient>
    </defs>
    <g id="ga" stroke="none" stroke-width="1" fill="none" fill-rule="evenodd">
        <path d="M67,14.0274841 L65.3384615,22.3303863 C65.2553846,22.6625024 65.0892308,22.9115895 64.7569231,22.9946185 C64.4254462,23.0776475 64.1753846,22.9946185 63.9261538,22.7455314 L61.1846154,20.0055737 L48.4738462,32.709014 C48.1415385,33.0411301 47.6430769,33.0411301 47.3107692,32.709014 L43.7384615,29.1387661 L31.8584615,41.0119162 C31.5261538,41.343202 31.0276923,41.343202 30.6953846,41.0119162 L27.1230769,37.4416683 L20.2276923,44.3330771 C19.8978769,44.6627023 19.4068923,44.6751566 19.0646154,44.3330771 C18.7323077,44.000961 18.7323077,43.5027869 19.0646154,43.1706708 L26.5415385,35.6980588 C26.8738462,35.3659427 27.3723077,35.3659427 27.7046154,35.6980588 L31.2769231,39.2683067 L43.1569231,27.3951566 C43.4892308,27.0630406 43.9876923,27.0630406 44.32,27.3951566 L47.8923077,30.9654046 L60.0215385,18.8431674 L57.28,16.1032097 C57.0307692,15.8541226 56.9485231,15.6050356 57.0307692,15.2729195 C57.1138462,14.9408034 57.3630769,14.7747453 57.6953846,14.6917163 L66.0030769,13.0311359 C66.2523077,12.9481069 66.5846154,13.0311359 66.7507692,13.2802229 C66.9169231,13.52931 67,13.7783971 67,14.0274841 Z M65.3384615,65.3394196 L14.6615385,65.3394196 L14.6615385,14.6917163 C14.6615385,14.1935422 14.3292308,13.8614261 13.8307692,13.8614261 C13.3323077,13.8614261 13,14.1935422 13,14.6917163 L13,66.1697098 C13,66.6678839 13.3323077,67 13.8307692,67 L65.3384615,67 C65.8369231,67 66.1692308,66.6678839 66.1692308,66.1697098 C66.1692308,65.6715357 65.8369231,65.3394196 65.3384615,65.3394196 Z M19.6461538,61.1879685 L59.5230769,61.1879685 C60.0215385,61.1879685 60.3538462,60.8558524 60.3538462,60.3576783 L60.3538462,25.4854891 C60.3538462,24.987315 60.0215385,24.6551989 59.5230769,24.6551989 C59.0246154,24.6551989 58.6923077,24.987315 58.6923077,25.4854891 L58.6923077,59.527388 L50.3846154,59.527388 L50.3846154,35.4489717 C50.3846154,34.9507976 50.0523077,34.6186815 49.5538462,34.6186815 C49.0553846,34.6186815 48.7230769,34.9507976 48.7230769,35.4489717 L48.7230769,59.527388 L40.4153846,59.527388 L40.4153846,37.1095522 C40.4153846,36.6113781 40.0830769,36.279262 39.5846154,36.279262 C39.0861538,36.279262 38.7538462,36.6113781 38.7538462,37.1095522 L38.7538462,59.527388 L30.4461538,59.527388 L30.4461538,43.7518739 C30.4461538,43.2536998 30.1138462,42.9215837 29.6153846,42.9215837 C29.1169231,42.9215837 28.7846154,43.2536998 28.7846154,43.7518739 L28.7846154,59.527388 L20.4769231,59.527388 L20.4769231,47.0730348 C20.4769231,46.5748607 20.1446154,46.2427446 19.6461538,46.2427446 C19.1476923,46.2427446 18.8153846,46.5748607 18.8153846,47.0730348 L18.8153846,60.3576783 C18.8153846,60.8558524 19.1476923,61.1879685 19.6461538,61.1879685 Z" id="Shape" fill="url(#linearGradient-1)" fill-rule="nonzero"></path>
    </g>
</svg>