<?xml version="1.0" encoding="UTF-8"?>
<svg width="80px" height="80px" viewBox="0 0 80 80" version="1.1" xmlns="http://www.w3.org/2000/svg" xmlns:xlink="http://www.w3.org/1999/xlink">
    <!-- Generator: Sketch 64 (93537) - https://sketch.com -->
    <title>sa</title>
    <desc>Created with Sketch.</desc>
    <defs>
        <linearGradient x1="0%" y1="50.0007883%" x2="99.9987174%" y2="50.0007883%" id="linearGradient-1">
            <stop stop-color="#E29A64" offset="0%"></stop>
            <stop stop-color="#E85E8C" offset="100%"></stop>
        </linearGradient>
    </defs>
    <g id="sa" stroke="none" stroke-width="1" fill="none" fill-rule="evenodd">
        <path d="M43.22,17 C43.5554702,17.0167649 43.8601153,17.2008292 44.031,17.49 L44.031,17.49 L57.276,39.865 C57.4467565,40.1541525 57.4609813,40.5097061 57.3138702,40.8115757 C57.1667591,41.1134453 56.8779553,41.3213231 56.545,41.365 L56.545,41.365 L41.645,43.306 L39.481,44.588 L42.553,47.696 C43.6785036,48.8378674 43.7184139,50.6592784 42.6440071,51.8493497 C41.5696003,53.039421 39.7536021,53.1853016 38.503,52.182 L38.503,52.182 L37.356,51.259 C37.367,51.45 37.38,51.65 37.38,51.85 L37.38,51.85 L37.38,61.991 L38.434,64.091 C38.5534995,64.3292529 38.5729381,64.6053538 38.488,64.858 L38.488,64.858 L37.328,68.318 C37.1913524,68.7254034 36.8097093,69.0000077 36.38,69.0000077 L36.38,69.0000077 L12.15,69.0000077 C11.7176553,69.0016887 11.3331863,68.725339 11.197,68.315 L11.197,68.315 L10.047,64.855 C9.96341776,64.6042953 9.98247247,64.3306984 10.1,64.094 L10.1,64.094 L11.15,62 L11.15,51.85 C11.1702236,48.1153801 13.2104339,44.6842912 16.482,42.883 L16.482,42.883 L16.459,42.872 C15.9774077,42.6013805 15.8063806,41.9915923 16.0770001,41.51 C16.3476196,41.0284078 16.9574077,40.8573805 17.439,41.128 C17.8224444,41.3414878 18.2166335,41.5350777 18.62,41.708 L18.62,41.708 L17.573,38.293 C17.4800821,37.9897919 17.5364911,37.660483 17.7250268,37.4054865 C17.9135624,37.1504901 18.211874,37.0000357 18.529,37 L18.529,37 L23.029,37 C23.7132867,35.7660595 24.7143736,34.7370113 25.929,34.019 L25.929,34.019 L30.229,31.472 L33.494,29.539 L42.363,17.409 C42.5582307,17.1330612 42.8826829,16.9782175 43.22,17 Z M19.006,43.981 C15.5412262,45.0391429 13.1670161,48.2273101 13.146,51.85 L13.146,51.85 L13.146,62.23 C13.147056,62.3846619 13.1128571,62.5375312 13.046,62.677 L13.046,62.677 L12.079,64.616 L12.872,67 L35.66,67 L36.461,64.617 L35.487,62.68 C35.417002,62.5403389 35.3806986,62.3862205 35.381,62.23 L35.381,62.23 L35.381,51.848 C35.3815964,50.9990818 35.2482918,50.1553819 34.986,49.348 L34.986,49.348 L33.441,48.106 C32.3737929,48.6261958 31.2032211,48.899614 30.016,48.906 C29.3413174,48.9055739 28.6693707,48.8202367 28.016,48.652 C25.9571182,48.1317781 24.1923782,46.8085833 23.116,44.978 C23.073,44.905 23.04,44.83 23,44.757 C21.8013416,44.7025639 20.614322,44.4972798 19.467,44.146 C19.306,44.1 19.16,44.033 19.006,43.981 Z M24.692,49 L24.692,50.479 C26.0617806,50.9107233 26.9950491,52.1788038 27,53.615 L27,53.615 L25,53.615 C25,53.0859634 24.681316,52.6090191 24.1925499,52.4065656 C23.7037838,52.204112 23.1411897,52.316019 22.7671043,52.6901043 C22.393019,53.0641897 22.281112,53.6267838 22.4835656,54.1155499 C22.6860191,54.604316 23.1629634,54.923 23.692,54.923 C25.3181564,54.9242937 26.700976,56.1100285 26.9503433,57.7169517 C27.1997107,59.3238749 26.2412845,60.8729315 24.692,61.367 L24.692,61.367 L24.692,62.846 L22.692,62.846 L22.692,61.367 C21.3222644,60.9348103 20.3893782,59.6662953 20.385,58.23 L20.385,58.23 L22.385,58.23 C22.3860997,58.9515423 22.9704588,59.5363484 23.692,59.538 C24.1677464,59.5511582 24.6130952,59.304868 24.8548481,58.8949127 C25.0966011,58.4849575 25.0966011,57.9760425 24.8548481,57.5660873 C24.6130952,57.156132 24.1677464,56.9098418 23.692,56.923 C22.0658436,56.9217063 20.683024,55.7359715 20.4336567,54.1290483 C20.1842893,52.5221251 21.1427155,50.9730685 22.692,50.479 L22.692,50.479 L22.692,49 L24.692,49 Z M37.712,45.638 L35.323,47.052 L36.467,47.972 L39.757,50.618 C40.091025,50.8841054 40.5542811,50.9174789 40.923,50.702 C41.1956825,50.5416524 41.3785362,50.2638626 41.418,49.95 L41.418,49.95 C41.4607425,49.6406674 41.3542139,49.3244105 41.13,49.1 L41.13,49.1 L37.712,45.638 Z M30.387,33.7 L26.942,35.731 C25.5694079,36.538537 24.5767163,37.8614056 24.185,39.405 L24.185,39.405 C23.5852282,41.7619412 24.4581132,44.2444831 26.3995702,45.7008495 C28.3410273,47.1572158 30.9686495,47.3005478 33.057,46.064 L33.057,46.064 L36.499,44.026 L36.036,43.243 L30.387,33.7 Z M27.2607717,40.2009492 L29.2986197,43.6429219 L27.5776334,44.6618459 L25.5397854,41.2198732 L27.2607717,40.2009492 Z M33.825,31.66 L32.105,32.679 L32.569,33.462 L38.218,43.005 L39.938,41.986 L33.825,31.66 Z M22.238,39 L19.882,39 L20.936,42.434 L20.919,42.439 C21.3421559,42.5363622 21.7700596,42.6117961 22.201,42.665 C21.9300172,41.4568815 21.9426818,40.2024014 22.238,39 L22.238,39 Z M30.7033854,38.1636465 L32.7416539,41.6053702 L31.020792,42.6245044 L28.9825236,39.1827808 L30.7033854,38.1636465 Z M43.08,19.805 L35.376,30.353 L38.606,35.809 L41.836,41.265 L54.78,39.569 L43.08,19.805 Z M67,12 C68.6568542,12 70,13.3431458 70,15 L70,15 L70,23 C70,24.6568542 68.6568542,26 67,26 L67,26 L64.3,26 L58.555,29.832 C58.2481413,30.0367322 57.8534915,30.0559019 57.528235,29.881874 C57.2029784,29.707846 56.9999448,29.3688869 57,29 L57,29 L57,26 L53,26 C51.3431458,26 50,24.6568542 50,23 L50,23 L50,15 C50,13.3431458 51.3431458,12 53,12 L53,12 Z M67,14 L53,14 C52.4477153,14 52,14.4477153 52,15 L52,15 L52,23 C52,23.5522847 52.4477153,24 53,24 L53,24 L58,24 C58.5522847,24 59,24.4477153 59,25 L59,25 L59,27.132 L63.445,24.168 C63.6095007,24.0587401 63.8025206,24.0003124 64,24 L64,24 L67,24 C67.5522847,24 68,23.5522847 68,23 L68,23 L68,15 C68,14.4477153 67.5522847,14 67,14 L67,14 Z M60,18 C60.5522847,18 61,18.4477153 61,19 C61,19.5522847 60.5522847,20 60,20 C59.4477153,20 59,19.5522847 59,19 C59,18.4477153 59.4477153,18 60,18 Z M56,18 C56.5522847,18 57,18.4477153 57,19 C57,19.5522847 56.5522847,20 56,20 C55.4477153,20 55,19.5522847 55,19 C55,18.4477153 55.4477153,18 56,18 Z M64,18 C64.5522847,18 65,18.4477153 65,19 C65,19.5522847 64.5522847,20 64,20 C63.4477153,20 63,19.5522847 63,19 C63,18.4477153 63.4477153,18 64,18 Z" id="Combined-Shape" fill="url(#linearGradient-1)" fill-rule="nonzero"></path>
    </g>
</svg>