<?xml version="1.0" encoding="UTF-8"?>
<svg width="80px" height="80px" viewBox="0 0 80 80" version="1.1" xmlns="http://www.w3.org/2000/svg" xmlns:xlink="http://www.w3.org/1999/xlink">
    <!-- Generator: Sketch 64 (93537) - https://sketch.com -->
    <title>sb</title>
    <desc>Created with Sketch.</desc>
    <defs>
        <linearGradient x1="0%" y1="50.0007883%" x2="99.9987174%" y2="50.0007883%" id="linearGradient-1">
            <stop stop-color="#E29A64" offset="0%"></stop>
            <stop stop-color="#E85E8C" offset="100%"></stop>
        </linearGradient>
    </defs>
    <g id="sb" stroke="none" stroke-width="1" fill="none" fill-rule="evenodd">
        <g id="noun_bookmark_3248673" transform="translate(13.000000, 13.000000)" fill="url(#linearGradient-1)" fill-rule="nonzero">
            <g id="Group">
                <path d="M43.2,0 C49.1619817,0.00649786226 53.9935021,4.83801828 54,10.8 L54,10.8 L54,29.7 C54,30.6941125 53.1941125,31.5 52.2,31.5 L52.2,31.5 L36,31.5 L36,52.2 C35.9998404,52.8092686 35.6914853,53.3771022 35.1805546,53.7090028 C34.6696238,54.0409034 34.0254765,54.0918154 33.46875,53.8443 L33.46875,53.8443 L18,46.96947 L2.53125,53.84439 C1.97450893,54.0919119 1.33034352,54.0409904 0.819407682,53.7090683 C0.308471847,53.3771462 0,52.8092846 0,52.2 L0,52.2 L0,10.8 C0.00649786226,4.83801828 4.83801828,0.00649786226 10.8,0 L10.8,0 Z M35.15715,3.6 L10.8,3.6 C6.82544134,3.60456288 3.60456288,6.82544134 3.6,10.8 L3.6,10.8 L3.6,49.43034 L17.26875,43.35534 C17.7341858,43.1479147 18.2658142,43.1479147 18.73125,43.35534 L18.73125,43.35534 L32.4,49.43034 L32.4,10.8 C32.4,10.44 32.41944,10.0854 32.45391,9.7353 C32.46552,9.61749 32.48811,9.50355 32.5035,9.38655 C32.53383,9.15624 32.56353,8.92584 32.60853,8.70021 C32.63571,8.56242 32.67324,8.42877 32.70573,8.29296 C32.75352,8.0937 32.80023,7.89453 32.85873,7.69977 C32.90148,7.55757 32.9526,7.41951 33.00102,7.27983 C33.06411,7.09758 33.12729,6.91542 33.19983,6.73758 C33.25716,6.597 33.32106,6.46038 33.38406,6.32277 C33.46173,6.15312 33.54048,5.98482 33.62652,5.82012 C33.69798,5.6835 33.77403,5.55039 33.85098,5.41728 C33.94215,5.25951 34.03548,5.10417 34.13448,4.95117 C34.21881,4.82085 34.30602,4.69296 34.39602,4.56696 C34.50006,4.42026 34.6077,4.27626 34.71894,4.13496 C34.81506,4.01283 34.91262,3.89268 35.01378,3.77496 C35.06292,3.71781 35.10684,3.65616 35.15715,3.6 L35.15715,3.6 Z M18.0008012,12.600112 C19.0022364,12.600112 19.9267563,13.1371866 20.42325,14.00688 L20.42325,14.00688 L22.99725,18.51219 L28.08,19.56951 C29.0600099,19.7732938 29.8557522,20.486457 30.165266,21.4383753 C30.4747799,22.3902936 30.2506282,23.4350728 29.57787,24.17625 L29.57787,24.17625 L26.08686,28.01925 L26.65287,33.17931 C26.7620398,34.1746741 26.329428,35.152208 25.5193011,35.7407334 C24.7091742,36.3292588 23.6457882,36.4385087 22.73292,36.027 L22.73292,36.027 L18,33.89481 L13.26708,36.027 C12.3542918,36.438373 11.2910614,36.3291109 10.4810162,35.7406921 C9.67097089,35.1522733 9.23832077,34.1749244 9.34731,33.17967 L9.34731,33.17967 L9.91332,28.01961 L6.42231,24.17661 C5.74901466,23.4354553 5.52460665,22.3902899 5.83431741,21.4380735 C6.14402816,20.4858571 6.94034031,19.7726835 7.92081,19.56942 L7.92081,19.56942 L13.00266,18.5121 L15.57783,14.00598 C16.0746467,13.1364711 16.999366,12.600112 18.0008012,12.600112 Z M18,17.02251 L15.94692,20.61585 C15.5501034,21.3113907 14.8731916,21.8025575 14.08887,21.96405 L14.08887,21.96405 L10.04067,22.806 L12.82311,25.8687 C13.3598898,26.4602866 13.6177402,27.2533627 13.5315,28.04751 L13.5315,28.04751 L13.0806,32.16258 L16.85376,30.46275 C17.5833771,30.1333891 18.4194014,30.1337169 19.14876,30.46365 L19.14876,30.46365 L22.91931,32.16258 L22.46841,28.04841 C22.3820223,27.2539746 22.6398752,26.4605634 23.1768,25.8687 L23.1768,25.8687 L25.95942,22.80573 L21.90762,21.96288 C21.1246398,21.8009449 20.4491075,21.3101226 20.05317,20.61549 L20.05317,20.61549 L18,17.02251 Z M43.2,3.6 C39.2235498,3.6 36,6.8235498 36,10.8 L36,10.8 L36,27.9 L50.4,27.9 L50.4,10.8 C50.4,6.8235498 47.1764502,3.6 43.2,3.6 Z" id="Combined-Shape"></path>
            </g>
        </g>
    </g>
</svg>