<?xml version="1.0" encoding="UTF-8"?>
<svg width="80px" height="80px" viewBox="0 0 80 80" version="1.1" xmlns="http://www.w3.org/2000/svg" xmlns:xlink="http://www.w3.org/1999/xlink">
    <!-- Generator: Sketch 64 (93537) - https://sketch.com -->
    <title>seo</title>
    <desc>Created with Sketch.</desc>
    <defs>
        <linearGradient x1="0%" y1="50.0007883%" x2="99.9987174%" y2="50.0007883%" id="linearGradient-1">
            <stop stop-color="#E29A64" offset="0%"></stop>
            <stop stop-color="#E85E8C" offset="100%"></stop>
        </linearGradient>
    </defs>
    <g id="seo" stroke="none" stroke-width="1" fill="none" fill-rule="evenodd">
        <g id="Group" transform="translate(19.000000, 11.000000)" fill="url(#linearGradient-1)" fill-rule="nonzero">
            <path d="M25.0517928,0.19123506 C29.3545817,0.143426295 33.4183267,1.7689243 36.4780876,4.78087649 C39.5378486,7.84063745 41.2111554,11.8565737 41.2589641,16.1593625 C41.2589641,20.4621514 39.5856574,24.4780876 36.5737052,27.5378486 C35.8087649,28.3505976 34.9482072,29.0199203 34.0398406,29.498008 C32.8446215,30.2629482 31.6015936,30.8844622 30.310757,31.314741 C28.6374502,31.8884462 26.8685259,32.1752988 25.0517928,32.1752988 L25.0517928,32.1752988 L18.2629482,32.1752988 C14.6294821,32.1752988 11.4741036,34.0876494 9.70517928,36.9083665 C11.0438247,37.1952191 12.3346614,37.625498 13.0039841,38.9641434 C13.8167331,40.4940239 13.8167331,42.3585657 14.0557769,44.0318725 C14.2948207,45.9920319 14.4860558,47.9521912 14.4860558,49.9601594 C14.4860558,53.9282869 11.3306773,56.749004 7.45816733,56.9880478 C3.58565737,56.749004 0.430278884,53.9282869 0.430278884,49.9601594 C0.430278884,48 0.573705179,45.9920319 0.860557769,44.0318725 C1.09960159,42.3585657 1.14741036,40.4940239 1.9123506,38.9641434 C2.19920319,38.438247 2.62948207,37.9601594 3.15537849,37.625498 C3.77689243,37.2430279 4.54183267,37.0517928 5.30677291,36.9083665 C5.49800797,36.9083665 5.68924303,36.8605578 5.88047809,36.812749 C6.11952191,36.812749 6.31075697,36.7649402 6.5498008,36.7171315 C8.65338645,32.3665339 13.0996016,29.4023904 18.2151394,29.4023904 L18.2151394,29.4023904 L25.0039841,29.4023904 C28.6374502,29.4023904 32.0318725,28.0159363 34.5657371,25.4342629 C37.0517928,22.9482072 38.3904382,19.6015936 38.3904382,16.1115538 C38.3426295,12.5737052 36.9561753,9.2749004 34.4223108,6.78884462 C31.8884462,4.30278884 28.5418327,2.96414343 25.0039841,3.01195219 C17.8326693,3.05976096 11.9521912,8.94023904 11.9043825,16.1115538 C11.9043825,19.314741 13.0039841,22.374502 15.059761,24.812749 C15.5856574,25.4342629 15.5378486,26.2948207 14.9163347,26.8207171 C14.2948207,27.3466135 13.4342629,27.2988048 12.9083665,26.6772908 C10.4223108,23.7131474 9.03585657,19.9840637 9.08366534,16.1115538 C9.1314741,11.9043825 10.8047809,7.93625498 13.8167331,4.92430279 C16.8286853,1.9123506 20.7968127,0.239043825 25.0517928,0.19123506 Z M34.8047809,31.1713147 L35.2828685,32.1752988 C35.8565737,31.936255 36.5258964,32.1752988 36.812749,32.749004 L36.812749,32.749004 L42.1673307,43.1713147 C42.501992,43.8406375 42.6454183,44.5577689 42.6454183,45.2270916 C42.6454183,46.9960159 41.5458167,48.6693227 39.7768924,49.3864542 C37.2908367,50.3426295 34.5179283,48.9561753 33.8007968,46.4223108 L33.8007968,46.4223108 L30.5976096,35.2350598 C30.4063745,34.6135458 30.7410359,33.9920319 31.314741,33.752988 L31.314741,33.752988 L31.4103586,33.7051793 L31.0756972,32.9880478 C32.4143426,32.5577689 33.6573705,31.936255 34.8047809,31.1713147 L34.8047809,31.1713147 Z M7.69721116,39.3466135 C6.83665339,39.2988048 6.07171315,39.7290837 6.02390438,40.4940239 C5.97609562,41.2111554 5.92828685,41.9760956 5.92828685,42.6932271 L5.92828685,42.6932271 L5.92828685,44.940239 C5.97609562,45.7051793 6.59760956,46.0876494 7.41035857,46.0398406 C7.64940239,46.0398406 7.93625498,45.9920319 8.12749004,45.8964143 C8.70119522,45.7051793 9.03585657,45.3227092 9.03585657,44.749004 L9.03585657,44.749004 L9.03585657,40.685259 C8.98804781,40.2071713 8.84462151,39.87251 8.50996016,39.5856574 C8.3187251,39.4422311 8.03187251,39.3944223 7.69721116,39.3466135 Z" id="Combined-Shape"></path>
        </g>
    </g>
</svg>