<?xml version="1.0" encoding="UTF-8"?>
<svg width="50px" height="50px" viewBox="0 0 50 50" version="1.1" xmlns="http://www.w3.org/2000/svg" xmlns:xlink="http://www.w3.org/1999/xlink">
    <!-- Generator: Sketch 64 (93537) - https://sketch.com -->
    <title>android-h@1x</title>
    <desc>Created with Sketch.</desc>
    <defs>
        <path d="M28.287444,11.4767117 C28.4369222,11.4767117 28.5602674,11.5821136 28.5924583,11.7217751 L28.6006565,11.7941314 L28.6016446,11.7941314 L28.6016446,28.3069564 C28.6016446,28.3539445 28.5932461,28.3949342 28.5769433,28.4339243 C28.5952223,28.5453961 28.6016446,28.6578677 28.6016446,28.771339 C28.6016446,29.8543985 27.798656,30.7615388 26.7175917,31.0013604 L26.5534121,31.0322674 L26.5534121,31.0657589 L25.5959894,31.0657589 L25.5959894,37.8795361 C25.493726,39.066736 24.4300877,40 23.1352451,40 C21.895755,40 20.8723214,39.1461252 20.7022269,38.0328924 L20.6843813,37.8795361 L20.6749948,37.8795361 L20.6749948,31.0657589 L14.4107431,31.0657589 L14.4107431,37.8790363 C14.3084797,39.0652363 13.2463235,39.9990003 11.9514809,39.9990003 C10.7115182,39.9990003 9.68716007,39.1446681 9.51655372,38.0322704 L9.498641,37.8790363 L9.49024255,37.8790363 L9.49024255,31.0647591 L8.52442141,31.0647591 L8.52442141,31.0302679 C7.36444798,30.8468142 6.48261128,29.9055522 6.48261128,28.7703392 C6.48261128,28.6568679 6.49150376,28.5443964 6.50780662,28.4334244 L6.48884836,28.3720649 L6.48884836,28.3720649 L6.48211726,28.3054568 L6.48211726,11.7941314 C6.48211726,11.6450263 6.58447141,11.5183236 6.72353618,11.4851658 L6.79582387,11.4767117 L28.287444,11.4767117 Z M2.45975626,13.0198215 C3.81734015,13.0198215 4.91852446,14.0470618 4.91852446,15.3147413 L4.91809219,15.3776629 L4.91809219,15.3776629 L4.91506628,15.4417092 L4.91654835,15.4417092 L4.91654835,26.5034124 C4.81428494,27.6896125 3.75509285,28.6243762 2.45778015,28.6243762 C1.21876254,28.6243762 0.19399352,27.7691293 0.0237819979,26.6566521 L0.00592831393,26.5034124 L4.26325641e-14,26.5034124 L4.26325641e-14,15.3147413 L4.26325641e-14,15.3147413 C4.26325641e-14,14.0480616 1.10167834,13.0198215 2.45975626,13.0198215 Z M32.6427786,13.0153227 C33.9442699,13.0153227 35.0098295,13.958743 35.0963666,15.1517718 L35.1020408,15.3087428 L35.1020408,26.4974139 C34.9997774,27.6831141 33.9371271,28.6178778 32.6427786,28.6178778 C31.403761,28.6178778 30.377636,27.7626309 30.2086036,26.6505912 L30.1909267,26.4974139 L30.1830223,26.4974139 L30.1830223,15.4362106 C30.1859865,15.3932214 30.1830223,15.3502323 30.1830223,15.3087428 C30.1830223,14.0425629 31.2847007,13.0153227 32.6427786,13.0153227 Z M27.9776895,0.0685960471 C28.1911089,0.194342032 28.2835222,0.454375052 28.2032311,0.684039893 L28.1649255,0.768419108 L26.2179684,4.21354806 C27.5663387,5.84760991 28.3970671,7.87461117 28.476769,10.0785479 L28.4830783,10.4279768 L6.60117756,10.4279768 C6.60117756,8.20838802 7.36092063,6.15391497 8.65210488,4.48013297 L8.8603592,4.21904667 L6.91093197,0.769418855 C6.77062854,0.522481289 6.85560104,0.21006028 7.10014399,0.0690959208 C7.31356329,-0.0566500641 7.58397247,-0.00308336068 7.7385803,0.184155993 L7.79079256,0.260547515 L9.58311947,3.42874648 C11.576515,1.45724495 14.4053088,0.226556109 17.5413869,0.226556109 C20.5535214,0.226556109 23.2829246,1.36208632 25.262301,3.19987055 L25.4961961,3.42374775 L27.2845708,0.259547768 C27.4219101,0.0121103287 27.7326526,-0.0733680594 27.9776895,0.0685960471 Z M22.6189323,5.12359065 C22.0258539,5.12359065 21.5465498,5.60979272 21.5465498,6.20927865 C21.5465498,6.80815223 22.0264591,7.29496665 22.6189323,7.29496665 C23.2126159,7.29496665 23.6925253,6.80876458 23.6925253,6.20927865 C23.6925253,5.60918037 23.2126159,5.12359065 22.6189323,5.12359065 Z M12.3695692,5.12359065 C11.7777012,5.12359065 11.2971866,5.60979272 11.2971866,6.20927865 C11.2971866,6.80815223 11.777096,7.29496665 12.3695692,7.29496665 C12.963858,7.29496665 13.4437673,6.80876458 13.4437673,6.20927865 C13.4437673,5.60918037 12.9632528,5.12359065 12.3695692,5.12359065 Z" id="path-1"></path>
    </defs>
    <g id="android-h" stroke="none" stroke-width="1" fill="none" fill-rule="evenodd">
        <g id="grey_grad" transform="translate(7.000000, 5.000000)">
            <mask id="mask-2" fill="white">
                <use xlink:href="#path-1"></use>
            </mask>
            <use id="Combined-Shape" fill="#FFFFFF" fill-rule="nonzero" xlink:href="#path-1"></use>
        </g>
    </g>
</svg>