<?xml version="1.0" encoding="UTF-8"?>
<svg width="50px" height="50px" viewBox="0 0 50 50" version="1.1" xmlns="http://www.w3.org/2000/svg" xmlns:xlink="http://www.w3.org/1999/xlink">
    <!-- Generator: Sketch 64 (93537) - https://sketch.com -->
    <title>augumentedreality</title>
    <desc>Created with Sketch.</desc>
    <g id="augumentedreality" stroke="none" stroke-width="1" fill="none" fill-rule="evenodd">
        <g id="Group-3" transform="translate(3.750000, 7.500000)">
            <path d="M36.0015153,15.000299 C39.3152239,15.000299 42.0015155,17.6865906 42.0015155,21.0002993 L42.0015155,30.0002988 C42.0015155,33.3140074 39.3152239,36.000299 36.0015153,36.000299 L24.0015155,36.000299 L24.0015163,34.5002997 C24.0015163,32.9026188 22.7525963,31.5966388 21.177789,31.5053924 L21.0015163,31.5002997 C19.344662,31.5002997 18.0015163,32.8434454 18.0015163,34.5002997 L18.0015163,34.5002997 L18.0015155,36.000299 L6.00151578,36.000299 C2.68780715,36.000299 0.00151553852,33.3140074 0.00151553852,30.0002988 L0.00151553852,21.0002993 C0.00151553852,17.6865906 2.68780715,15.000299 6.00151578,15.000299 L36.0015153,15.000299 Z" id="Combined-Shape" fill="#FFFFFF"></path>
            <g id="Group-2">
                <path d="M39.0015154,0.00029843344 C40.6583697,0.00029843344 42.0015155,1.34344424 42.0015155,3.00029855 L42.0024217,13.2365274 C40.9584559,12.5127276 39.7069419,12.0671957 38.3551889,12.0072412 L38.0415153,12.0002989 L3.9615155,12.0002989 C2.4901318,12.0002989 1.12538846,12.4568805 0.00123733691,13.2360919 L0.00151553853,3.00029855 C0.00151553853,1.34344424 1.34466134,0.00029843344 3.00151566,0.00029843344 L9.24203037,0.00102313454 C10.3547752,1.7123423 15.1968365,3.00029825 21.0015159,3.00029825 C26.8061962,3.00029825 31.6482568,1.7123423 32.7610015,0.00102313454 L39.0015154,0.00029843344 Z" id="Combined-Shape" fill="#FFFFFF"></path>
                <g id="Group" transform="translate(11.824739, 26.427076) rotate(-315.000000) translate(-11.824739, -26.427076) translate(8.824739, 17.927076)" fill="#000000">
                    <rect id="Rectangle" x="0" y="0" width="1.50000006" height="16.5000007"></rect>
                    <rect id="Rectangle-Copy" x="4.50000018" y="3.00000012" width="1.50000006" height="10.5000004"></rect>
                </g>
            </g>
        </g>
    </g>
</svg>