<?xml version="1.0" encoding="UTF-8"?>
<svg width="50px" height="50px" viewBox="0 0 50 50" version="1.1" xmlns="http://www.w3.org/2000/svg" xmlns:xlink="http://www.w3.org/1999/xlink">
    <!-- Generator: Sketch 64 (93537) - https://sketch.com -->
    <title>blockchaindevelopment</title>
    <desc>Created with Sketch.</desc>
    <g id="blockchaindevelopment" stroke="none" stroke-width="1" fill="none" fill-rule="evenodd">
        <path d="M45,29.588348 L45,40.0316239 L35.2865657,46.25 L25.5728371,40.0316239 L25.5728371,29.588348 L35.2865657,35.8061307 L45,29.588348 Z M24.4270157,29.588348 L24.4270157,40.0316239 L14.7135814,46.25 L5,40.0316239 L5,29.588348 L14.7135814,35.8061307 L24.4270157,29.588348 Z M35.2865657,22.3314002 L45,28.5499246 L35.2865657,34.7677073 L25.5728371,28.5499246 L35.2865657,22.3314002 Z M14.7134343,22.3314002 L24.4270157,28.5499246 L14.7135814,34.7677073 L5,28.5499246 L14.7134343,22.3314002 Z M34.7196887,11.0069478 L34.7196887,21.4503721 L25.0064017,27.6684515 L15.2928202,21.4503721 L15.2928202,11.0069478 L25.0064017,17.2250272 L34.7196887,11.0069478 Z M25.0061073,3.75 L34.7196887,9.96837607 L25.0064017,16.1866038 L15.2928202,9.96837607 L25.0061073,3.75 Z" id="Combined-Shape" fill="#FFFFFF" fill-rule="nonzero"></path>
    </g>
</svg>