<?xml version="1.0" encoding="UTF-8"?>
<svg width="50px" height="50px" viewBox="0 0 50 50" version="1.1" xmlns="http://www.w3.org/2000/svg" xmlns:xlink="http://www.w3.org/1999/xlink">
    <!-- Generator: Sketch 64 (93537) - https://sketch.com -->
    <title>designconsulations</title>
    <desc>Created with Sketch.</desc>
    <g id="designconsulations" stroke="none" stroke-width="1" fill="none" fill-rule="evenodd">
        <path d="M37.5,6.25 C38.8807119,6.25 40,7.36928813 40,8.75 L40,41.25 C40,42.6307119 38.8807119,43.75 37.5,43.75 L12.5,43.75 C11.1192881,43.75 10,42.6307119 10,41.25 L10,8.75 C10,7.36928813 11.1192881,6.25 12.5,6.25 L37.5,6.25 Z M25.2127125,11.25 C19.344687,11.25 14.5877125,16.0069745 14.5877125,21.875 C14.5877125,25.3728349 16.2779411,28.4758957 18.8861989,30.411983 L18.8861989,30.411983 L13.75,40 L36.675425,40 L31.5392262,30.411983 C34.1474839,28.4758957 35.8377125,25.3728349 35.8377125,21.875 C35.8377125,16.0069745 31.080738,11.25 25.2127125,11.25 Z M29.3689363,31.656341 L32.4989625,37.5 L17.9252125,37.5 L21.0561557,31.6561993 C22.3328686,32.1994309 23.7376897,32.5 25.2127125,32.5 C26.687607,32.5 28.0923121,32.1994832 29.3689363,31.656341 L29.3689363,31.656341 Z M25.2127125,23.89625 L28.1822387,29.4402432 C27.2624206,29.8015748 26.2607389,30 25.2127125,30 C24.1646861,30 23.1630044,29.8015748 22.2431863,29.4402432 L22.2431863,29.4402432 L25.2127125,23.89625 Z M25.2127125,13.75 C29.7000261,13.75 33.3377125,17.3876864 33.3377125,21.875 C33.3377125,24.4171611 32.170208,26.6866369 30.3421337,28.1764929 L30.3421337,28.1764929 L25.2127125,18.6029366 L20.0832913,28.1764929 C18.255217,26.6866369 17.0877125,24.4171611 17.0877125,21.875 C17.0877125,17.3876864 20.7253989,13.75 25.2127125,13.75 Z" id="Combined-Shape" fill="#FFFFFF"></path>
    </g>
</svg>