<?xml version="1.0" encoding="UTF-8"?>
<svg width="50px" height="50px" viewBox="0 0 50 50" version="1.1" xmlns="http://www.w3.org/2000/svg" xmlns:xlink="http://www.w3.org/1999/xlink">
    <!-- Generator: Sketch 64 (93537) - https://sketch.com -->
    <title>devopss</title>
    <desc>Created with Sketch.</desc>
    <g id="devopss" stroke="none" stroke-width="1" fill="none" fill-rule="evenodd">
        <path d="M34.9885339,13.1621135 L34.9885339,9.68482771 C34.9885339,8.85366385 33.972893,8.43738221 33.3789995,9.02513979 L27.1694568,15.1693523 C26.8012729,15.5336687 26.8012729,16.1243185 27.1694568,16.4887282 L33.3789995,22.6329407 C33.972893,23.2206983 34.9885339,22.8044167 34.9885339,21.9732528 L34.9885339,18.5047367 C38.9176837,18.5523171 42.0998114,21.7259281 42.0998114,25.6249067 C42.0998114,29.553553 38.8702582,32.7496482 34.9,32.7496482 C30.9296475,32.7496482 27.7000943,29.553553 27.7000943,25.6249067 C27.7000943,18.7499156 22.0475983,13.1577287 15.1000943,13.1577287 C8.15249594,13.1577287 2.5,18.7499156 2.5,25.6249067 C2.5,32.4508248 8.07357917,38.0056004 14.952915,38.0848077 L14.952915,41.5651723 C14.952915,42.3963362 15.9684616,42.8126178 16.5623645,42.2248602 L22.7719072,36.0806477 C23.1400817,35.716238 23.1400817,35.1255882 22.7719072,34.7612718 L16.5623645,28.6170593 C15.9684616,28.0293017 14.952915,28.4455833 14.952915,29.2767472 L14.952915,32.7421846 C11.0509193,32.6636303 7.90018857,29.5043866 7.90018857,25.6249067 C7.90018857,21.6963537 11.1297418,18.5002585 15.1000943,18.5002585 C19.0703525,18.5002585 22.2999057,21.6963537 22.2999057,25.6249067 C22.2999057,32.4999911 27.9524017,38.092178 34.9,38.092178 C41.8475041,38.092178 47.5,32.4999911 47.5,25.6249067 C47.5,18.77949 41.8950238,13.2098805 34.9885339,13.1621135 Z" id="Path" fill="#FFFFFF" fill-rule="nonzero"></path>
    </g>
</svg>