<?xml version="1.0" encoding="UTF-8"?>
<svg width="50px" height="50px" viewBox="0 0 50 50" version="1.1" xmlns="http://www.w3.org/2000/svg" xmlns:xlink="http://www.w3.org/1999/xlink">
    <!-- Generator: Sketch 64 (93537) - https://sketch.com -->
    <title>graphicdesign</title>
    <desc>Created with Sketch.</desc>
    <g id="graphicdesign" stroke="none" stroke-width="1" fill="none" fill-rule="evenodd">
        <path d="M32.3629379,13.929056 L38.75,33.9267152 L27.265,48.751056 L27.2658651,34.7174492 C28.2465006,34.1528045 28.90625,33.0975781 28.90625,31.8890012 C28.90625,30.085546 27.4371843,28.6235566 25.625,28.6235566 C23.8128157,28.6235566 22.34375,30.085546 22.34375,31.8890012 C22.34375,33.0975781 23.0034994,34.1528045 23.9841349,34.7174492 L23.984,48.750056 L12.5,33.9267152 L19.3476868,13.929056 L32.3629379,13.929056 Z M37.1250001,2.5 C38.0224627,2.5 38.75,3.22753725 38.75,4.12499994 L38.75,10.6713338 C38.75,11.5687965 38.0224627,12.2963337 37.1250001,12.2963337 L14.1249999,12.2963337 C13.2275373,12.2963337 12.5,11.5687965 12.5,10.6713338 L12.5,4.12499994 C12.5,3.22753725 13.2275373,2.5 14.1249999,2.5 L37.1250001,2.5 Z" id="Combined-Shape" fill="#FFFFFF"></path>
    </g>
</svg>