<?xml version="1.0" encoding="UTF-8"?>
<svg width="50px" height="50px" viewBox="0 0 50 50" version="1.1" xmlns="http://www.w3.org/2000/svg" xmlns:xlink="http://www.w3.org/1999/xlink">
    <!-- Generator: sketchtool 63.1 (101010) - https://sketch.com -->
    <title>25676B6C-69AB-4455-9303-5747208C2F93</title>
    <desc>Created with sketchtool.</desc>
    <defs>
        <path d="M24,29.647 L24,30.3529412 C24,33.0818776 21.7877599,35.2941176 19.0588235,35.2941176 L4.94117647,35.2941176 C2.21224006,35.2941176 1.22237674e-15,33.0818776 0,30.3529412 L0,29.647 L24,29.647 Z M19.0588235,0 C21.7877599,-5.01297486e-16 24,2.21224006 24,4.94117647 L24,7.76470588 C19.3218233,7.76470588 15.5294118,11.5571174 15.5294118,16.2352941 C15.5294118,20.9134708 19.3218233,24.7058824 24,24.7058824 L24,28.235 L0,28.235 L0,4.94117647 C5.53980096e-16,2.21224006 2.21224006,1.38947591e-15 4.94117647,0 L19.0588235,0 Z M24.9927197,10.5882353 C25.1782874,10.5882353 25.3287197,10.7386676 25.3287197,10.9242353 L25.3279412,13.0272353 L26.815939,11.5402617 C26.9471551,11.4090455 27.1598986,11.4090455 27.2911147,11.5402617 L28.6950324,12.9441794 C28.8262486,13.0753955 28.8262486,13.288139 28.6950324,13.4193551 L27.2079412,14.9062353 L29.3110588,14.9065744 C29.4966265,14.9065744 29.6470588,15.0570067 29.6470588,15.2425744 L29.6470588,17.2280138 C29.6470588,17.4135815 29.4966265,17.5640138 29.3110588,17.5640138 L27.2079412,17.5632353 L28.6950324,19.0512331 C28.8262486,19.1824493 28.8262486,19.3951927 28.6950324,19.5264089 L27.2911147,20.9303266 C27.1598986,21.0615427 26.9471551,21.0615427 26.815939,20.9303266 L25.3279412,19.4432353 L25.3287197,21.5463529 C25.3287197,21.7319206 25.1782874,21.8823529 24.9927197,21.8823529 L23.0072803,21.8823529 C22.8217126,21.8823529 22.6712803,21.7319206 22.6712803,21.5463529 L22.6709412,19.4432353 L21.184061,20.9303266 C21.0528449,21.0615427 20.8401014,21.0615427 20.7088853,20.9303266 L19.3049676,19.5264089 C19.1737514,19.3951927 19.1737514,19.1824493 19.3049676,19.0512331 L20.7919412,17.5632353 L18.6889412,17.5640138 C18.5033735,17.5640138 18.3529412,17.4135815 18.3529412,17.2280138 L18.3529412,15.2425744 C18.3529412,15.0570067 18.5033735,14.9065744 18.6889412,14.9065744 L20.7919412,14.9062353 L19.3049676,13.4193551 C19.1737514,13.288139 19.1737514,13.0753955 19.3049676,12.9441794 L20.7088853,11.5402617 C20.8401014,11.4090455 21.0528449,11.4090455 21.184061,11.5402617 L22.6709412,13.0272353 L22.6712803,10.9242353 C22.6712803,10.7386676 22.8217126,10.5882353 23.0072803,10.5882353 L24.9927197,10.5882353 Z M24,13.9100346 C22.7157946,13.9100346 21.6747405,14.9510887 21.6747405,16.2352941 C21.6747405,17.5194995 22.7157946,18.5605536 24,18.5605536 C25.2842054,18.5605536 26.3252595,17.5194995 26.3252595,16.2352941 C26.3252595,14.9510887 25.2842054,13.9100346 24,13.9100346 Z" id="path-1"></path>
    </defs>
    <g id="Home" stroke="none" stroke-width="1" fill="none" fill-rule="evenodd">
        <g id="WveLabs_Home" transform="translate(-1028.000000, -2171.000000)">
            <g id="Group-28" transform="translate(211.000000, 1994.000000)">
                <g id="Group-18-Copy-2" transform="translate(817.000000, 177.000000)">
                    <g id="hybrid" transform="translate(10.000000, 7.000000)">
                        <mask id="mask-2" fill="white">
                            <use xlink:href="#path-1"></use>
                        </mask>
                        <use id="Mask" fill="#FFFFFF" xlink:href="#path-1"></use>
                    </g>
                </g>
            </g>
        </g>
    </g>
</svg>