<?xml version="1.0" encoding="UTF-8"?>
<svg width="50px" height="50px" viewBox="0 0 50 50" version="1.1" xmlns="http://www.w3.org/2000/svg" xmlns:xlink="http://www.w3.org/1999/xlink">
    <!-- Generator: Sketch 64 (93537) - https://sketch.com -->
    <title>internetofthings</title>
    <desc>Created with Sketch.</desc>
    <g id="internetofthings" stroke="none" stroke-width="1" fill="none" fill-rule="evenodd">
        <path d="M10.8578644,39.1421356 C14.4771525,42.7614237 19.4771525,45 25,45 C30.5223429,45 35.5219338,42.7618328 39.1411435,39.1431277 L40.9089094,40.9108956 C36.8372888,44.9820112 31.2126983,47.5 25,47.5 C18.7867966,47.5 13.1617966,44.9816017 9.09009742,40.9099026 L10.8578644,39.1421356 Z M14.3933983,35.6066017 C17.1078644,38.3210678 20.8578644,40 25,40 C29.1418823,40 32.891677,38.3212731 35.6061037,35.6070997 L37.3733782,37.3753591 C34.2065793,40.5416542 29.8319878,42.5 25,42.5 C20.1675084,42.5 15.7925084,40.5412458 12.6256313,37.3743687 L14.3933983,35.6066017 Z M18.8128157,31.1871843 C20.3962542,32.7706229 22.5837542,33.75 25,33.75 C27.4157441,33.75 29.6028373,32.7710296 31.1861979,31.1881706 L32.9539623,32.9559401 C30.9181909,34.9912086 28.1060987,36.25 25,36.25 C21.8938987,36.25 19.0818044,34.9912065 17.0460326,32.955935 L18.8128157,31.1871843 Z M25,20 C27.7614237,20 30,22.2385763 30,25 C30,27.7614237 27.7614237,30 25,30 C22.2385763,30 20,27.7614237 20,25 C20,22.2385763 22.2385763,20 25,20 Z M25,13.75 C28.1066017,13.75 30.9191017,15.0091991 32.9549513,17.0450487 L31.1871843,18.8128157 C29.6037458,17.2293771 27.4162458,16.25 25,16.25 C22.5837542,16.25 20.3962542,17.2293771 18.8128157,18.8128157 L17.0450487,17.0450487 C19.0808983,15.0091991 21.8933983,13.75 25,13.75 Z M25,7.5 C29.8324916,7.5 34.2074916,9.45875422 37.3743687,12.6256313 L35.6070997,14.3938963 C32.8925943,11.6791375 29.1423889,10 25,10 C20.8578644,10 17.1078644,11.6789322 14.3933983,14.3933983 L12.6256313,12.6256313 C15.7925084,9.45875422 20.1675084,7.5 25,7.5 Z M25,2.5 C31.2132034,2.5 36.8382034,5.01839828 40.9099026,9.09009742 L39.1421356,10.8578644 C35.5228475,7.23857625 30.5228475,5 25,5 C19.4771525,5 14.4771525,7.23857625 10.8578644,10.8578644 L9.09009742,9.09009742 C13.1617966,5.01839828 18.7867966,2.5 25,2.5 Z" id="Combined-Shape" fill="#FFFFFF" fill-rule="nonzero" transform="translate(25.000000, 25.000000) rotate(-45.000000) translate(-25.000000, -25.000000) "></path>
    </g>
</svg>