<?xml version="1.0" encoding="UTF-8"?>
<svg width="50px" height="50px" viewBox="0 0 50 50" version="1.1" xmlns="http://www.w3.org/2000/svg" xmlns:xlink="http://www.w3.org/1999/xlink">
    <!-- Generator: Sketch 64 (93537) - https://sketch.com -->
    <title>logodesigner</title>
    <desc>Created with Sketch.</desc>
    <g id="logodesigner" stroke="none" stroke-width="1" fill="none" fill-rule="evenodd">
        <path d="M20.9391688,42.0681561 C22.2597155,42.3810795 23.6195822,42.5403224 25.0088635,42.5403204 L25.4488958,42.534698 C26.116772,42.5179425 26.6717757,43.0457802 26.6885312,43.7136564 C26.7052867,44.3815326 26.177449,44.9365363 25.5095728,44.9532918 C25.3433114,44.9574629 25.1767983,44.9595926 25.0094627,44.9596751 C23.4315417,44.9596751 21.8844671,44.7785122 20.3813148,44.4223177 C19.731231,44.2682705 19.3291139,43.6163936 19.483161,42.9663098 C19.6372082,42.3162261 20.2890851,41.9141089 20.9391688,42.0681561 Z M35.8078,40.3712321 C36.1566271,40.9410207 35.9775024,41.6857059 35.4077138,42.034533 C33.9388927,42.9337517 32.3584796,43.6400215 30.7022554,44.1329429 C30.0619263,44.3235161 29.388347,43.9589169 29.1977738,43.3185878 C29.0072006,42.6782588 29.3717998,42.0046795 30.0121289,41.8141063 C31.4662941,41.3813212 32.8541505,40.7611029 34.1444991,39.9711458 C34.7142877,39.6223187 35.4589729,39.8014434 35.8078,40.3712321 Z M13.0305737,37.8217847 C14.1381966,38.8562472 15.3749245,39.7443 16.7093266,40.4614343 C17.297813,40.7776986 17.5184926,41.511144 17.2022283,42.0996305 C16.8859639,42.6881169 16.1525185,42.9087965 15.5640321,42.5925322 C14.0456148,41.7765045 12.6388631,40.7663633 11.3792227,39.5899244 C10.8909644,39.1339164 10.8648204,38.3684374 11.3208284,37.8801791 C11.7768363,37.3919208 12.5423154,37.3657768 13.0305737,37.8217847 Z M42.0001722,33.0118812 C42.5846296,33.3355307 42.7960562,34.0716967 42.4724068,34.6561541 C41.6373839,36.1640673 40.6097241,37.5580944 39.4176609,38.8029303 C38.9555911,39.2854559 38.1898453,39.3020386 37.7073197,38.8399688 C37.2247941,38.377899 37.2082114,37.6121532 37.6702811,37.1296276 C38.7185176,36.0349857 39.6220232,34.8093745 40.3558993,33.4841157 C40.6795488,32.8996583 41.4157148,32.6882317 42.0001722,33.0118812 Z M8.25033909,30.2237349 C8.7014982,31.6720021 9.3393099,33.0520626 10.1456458,34.3325959 C10.5016346,34.8979378 10.3319204,35.6448238 9.76657853,36.0008126 C9.20123666,36.3568013 8.45435061,36.1870871 8.09836185,35.6217453 C7.18055998,34.1641941 6.45430102,32.5927565 5.94046749,30.943298 C5.74176563,30.3054446 6.09776831,29.6272825 6.73562174,29.4285807 C7.37347517,29.2298788 8.05163723,29.5858815 8.25033909,30.2237349 Z M34.5752352,29.5407525 C35.7065769,29.816896 36.8685452,29.9802596 38.0491642,30.026595 C38.7167366,30.0527951 39.2366717,30.6152088 39.2104717,31.2827813 C39.1842716,31.9503537 38.6218579,32.4702888 37.9542854,32.4440888 C36.6119288,32.3914057 35.2895676,32.2054921 34.0015492,31.8911062 C33.352517,31.7326872 32.9547964,31.0781186 33.1132154,30.4290864 C33.2716344,29.7800541 33.9262029,29.3823335 34.5752352,29.5407525 Z M26.4707579,25.0253077 C27.3081781,25.8463849 28.2256121,26.5822879 29.2087285,27.2208886 C29.7689919,27.5848176 29.9281524,28.3340236 29.5642234,28.8942871 C29.2002944,29.4545505 28.4510884,29.6137109 27.890825,29.2497819 C26.7725355,28.5233772 25.7292018,27.686486 24.7769557,26.7528238 C24.2999153,26.2850932 24.2923682,25.519205 24.7600988,25.0421646 C25.2278293,24.5651242 25.9937175,24.5575771 26.4707579,25.0253077 Z M6.96567713,19.7101013 C7.61766367,19.8558853 8.02802187,20.5026061 7.88223783,21.1545927 C7.60194001,22.408162 7.45967778,23.6952705 7.45968196,25.0127673 C7.45983881,25.2332772 7.46405903,25.4532757 7.47232276,25.6726936 C7.49746645,26.3403067 6.97664211,26.901897 6.30902903,26.9270407 C5.64141596,26.9521844 5.07982564,26.4313601 5.05468194,25.763747 C5.0452973,25.5145669 5.04050577,25.2647859 5.04032743,25.0136319 C5.04032743,23.5176173 5.20215302,22.0534644 5.52118573,20.6266619 C5.66696977,19.9746754 6.3136906,19.5643172 6.96567713,19.7101013 Z M26.907895,10 C33.4481097,10 38.7500013,15.4565301 38.7500013,22.187501 C38.7500013,23.5044621 38.5470362,24.7726356 38.1715425,25.9606972 C37.3403616,26.1499813 36.4775834,26.2500013 35.5921063,26.2500013 C29.0518916,26.2500013 23.75,20.7934713 23.75,14.0625003 C23.75,12.7455392 23.9529651,11.4773658 24.3284588,10.2893042 C25.1596397,10.1000201 26.0224179,10 26.907895,10 Z M42.5133274,25.9623226 L42.5065355,26.0965149 C42.5290217,25.7315496 42.5403222,25.3645121 42.5403221,24.9956866 L42.538919,24.7756363 C42.5305565,24.1076022 43.0653259,23.5592744 43.7333599,23.5509119 C44.401394,23.5425493 44.9497218,24.0773187 44.9580843,24.7453528 L44.9596769,24.9953955 C44.9596769,25.2438822 44.9551551,25.4917091 44.9461381,25.7388034 C44.9455503,25.7521175 44.9452552,25.7655341 44.9447381,25.7789936 L44.9433274,25.7963226 L44.9413274,25.8383226 L44.9393274,25.8863226 L44.9367149,25.9629882 L44.9306681,26.0826096 L44.9306681,26.0826096 L44.9263274,26.1453226 L44.9263274,26.1463226 L44.9031914,26.5122548 L44.9031914,26.5122548 C44.8968789,26.5949544 44.8901667,26.6776453 44.8829475,26.7602414 L44.8543687,27.0619729 L44.8543687,27.0619729 L44.8284759,27.2993853 L44.8284759,27.2993853 C44.817653,27.3943617 44.80606,27.4893423 44.7937918,27.5841869 L44.7514753,27.892127 L44.7514753,27.892127 C44.7373925,27.9894059 44.722523,28.0867245 44.7069397,28.1838867 L44.6645751,28.4374354 L44.6645751,28.4374354 C44.6508695,28.5164648 44.6366586,28.5954574 44.6219741,28.6743391 C44.6059169,28.7605476 44.5893221,28.8465353 44.5721637,28.9323875 C44.5510035,29.0382802 44.5289552,29.1440888 44.5060507,29.249682 C44.4861714,29.3413182 44.4657455,29.4323711 44.4446814,29.523261 L44.3949548,29.7326553 L44.3949548,29.7326553 L44.390685,29.7501765 C44.3815048,29.7877721 44.3722151,29.825339 44.3628158,29.8628769 C44.200541,30.5109559 43.5436195,30.904778 42.8955406,30.7425032 C42.2474616,30.5802284 41.8536396,29.9233069 42.0159144,29.2752279 L42.1253274,28.8023226 L42.1469943,28.7122289 C42.1681148,28.614173 42.1883949,28.5159044 42.2078322,28.417429 C42.3050235,27.9250806 42.3811412,27.427709 42.4358825,26.9261185 C42.4474392,26.8194673 42.4581371,26.7123063 42.4678611,26.6049525 L42.4716644,26.5633651 L42.4716644,26.5633651 L42.4723274,26.5503226 L42.4703274,26.5633226 L42.4723274,26.5403226 L42.4723274,26.5503226 L42.4752838,26.5219275 L42.4752838,26.5219275 L42.4753274,26.5113226 L42.4803274,26.4403226 L42.4803274,26.4513226 L42.4813274,26.4313226 L42.4973274,26.2193226 L42.4973274,26.2303226 L42.498598,26.2200972 L42.498598,26.2200972 L42.4993274,26.2013226 L42.4983274,26.2073226 L42.5023274,26.1463226 L42.5043274,26.1203226 L42.5093274,26.0333226 L42.5073274,26.0823226 L42.5113274,26.0063226 L42.5093274,26.0323226 L42.5133274,25.9623226 Z M21.7971347,17.0194996 C22.0988351,18.1543226 22.5138132,19.2525412 23.0347771,20.3000047 C23.3322893,20.8981902 23.0885454,21.6242967 22.4903598,21.9218089 C21.8921743,22.219321 21.1660679,21.9755771 20.8685557,21.3773916 C20.2753113,20.1845992 19.8026483,18.9337202 19.4589987,17.6411089 C19.287346,16.9954505 19.6716036,16.332889 20.317262,16.1612363 C20.9629204,15.9895836 21.625482,16.3738412 21.7971347,17.0194996 Z M11.9469984,11.4856865 C12.4409795,11.9354888 12.4767934,12.7005765 12.0269911,13.1945575 C11.0068053,14.3149441 10.1346546,15.5624932 9.43463601,16.9056938 C9.12587301,17.4981504 8.39529016,17.7281296 7.80283355,17.4193665 C7.21037694,17.1106035 6.98039784,16.3800207 7.28916084,15.7875641 C8.08576687,14.2590309 9.07788013,12.8398839 10.2381274,11.5656793 C10.6879297,11.0716982 11.4530173,11.0358842 11.9469984,11.4856865 Z M20.0556798,6.32024875 L20.1353357,6.27088537 C20.4060448,6.12069044 20.7340513,6.07376753 21.0551902,6.16571671 C21.697468,6.34961507 22.069058,7.0193632 21.8851596,7.66164104 C21.5642709,8.7823674 21.3555145,9.93713398 21.2636127,11.1134971 C21.211578,11.779554 20.6294496,12.2773173 19.9633927,12.2252825 C19.2973358,12.1732477 18.7995725,11.5911194 18.8516073,10.9250625 C18.9007546,10.2959662 18.9793129,9.67209363 19.0867251,9.05498282 L19.2033274,8.44132258 L19.0877688,8.4806885 C17.8199534,8.93449335 16.6103019,9.53352327 15.4808918,10.2647385 C14.9200817,10.6278245 14.1711159,10.4675373 13.80803,9.90672716 C13.444944,9.345917 13.6052312,8.59695124 14.1660413,8.2338653 C15.6121731,7.2975946 17.1744917,6.55144814 18.8170536,6.01679412 C19.2686492,5.86979969 19.7441707,6.00282959 20.0556798,6.32024875 Z M33.6775222,9.75280845 C33.0972125,9.42177972 32.8951303,8.68299391 33.226159,8.10268416 C33.5571877,7.52237441 34.2959735,7.32029221 34.8762833,7.65132094 L35.1470956,7.80911483 C35.1566773,7.81446164 35.1662158,7.8199526 35.1757085,7.82558834 L35.1833274,7.83032258 L35.2533274,7.87332258 L35.3709222,7.94299803 L35.4369131,7.98337794 L35.4369131,7.98337794 L35.4493274,7.99132258 L35.4773274,8.00832258 L35.4823274,8.01132258 L35.7765543,8.19683918 L35.7765543,8.19683918 C35.8477848,8.24261055 35.918926,8.28896751 35.9897631,8.33577184 C36.0680186,8.38747702 36.1459136,8.43973611 36.2234329,8.4925376 C36.2898368,8.53777145 36.3554581,8.58304851 36.4208035,8.628714 C36.5193564,8.6975858 36.6172668,8.76733069 36.71454,8.83795067 L36.8115336,8.90881273 L36.8115336,8.90881273 L36.9083171,8.98041719 C36.9967249,9.04624214 37.0839828,9.11232947 37.1706965,9.17912976 C37.2293767,9.224332 37.288097,9.2700893 37.346562,9.31617339 C37.4447936,9.39360632 37.542051,9.47175356 37.6385802,9.55080955 C37.6925942,9.59504516 37.7463516,9.63954251 37.7998781,9.68432161 C37.8847846,9.7553543 37.9690804,9.82706858 38.0527882,9.89948523 C38.1230242,9.96024609 38.1927968,10.0214591 38.2621493,10.0831603 C38.3037992,10.1202159 38.3454398,10.1575747 38.3869271,10.1951104 L38.4144384,10.2200464 C38.6075995,10.3954604 38.7974101,10.5747043 38.9837477,10.7576786 C39.4604386,11.2257653 39.4674137,11.991659 38.999327,12.4683499 C38.5312402,12.9450408 37.7653466,12.9520159 37.2886557,12.4839291 C36.9600504,12.1612551 36.6191808,11.8517868 36.266922,11.5562335 L36.2563274,11.5473226 L36.1729885,11.4779757 L36.1729885,11.4779757 L36.1073274,11.4243226 L36.0853274,11.4063226 L36.0793274,11.4013226 L36.078722,11.4005382 L36.0683274,11.3923226 L36.0213274,11.3543226 L35.9843274,11.3243226 L35.9573274,11.3023226 L35.9383274,11.2873226 L35.9213274,11.2733226 L35.8703302,11.2331685 L35.8703302,11.2331685 L35.7963274,11.1753226 L35.7883274,11.1693226 L35.7903274,11.1703226 L35.7173274,11.1133226 L35.7053274,11.1043226 L35.5143274,10.9593226 L35.5138911,10.9586354 L35.4615662,10.91954 L35.4615662,10.91954 L35.2993274,10.8003226 L35.2616027,10.7728874 L35.2616027,10.7728874 L35.0839973,10.6462151 L35.0839973,10.6462151 L35.0773274,10.6413226 L35.0323274,10.6103226 L34.8927481,10.5134755 L34.8927481,10.5134755 L34.8643274,10.4943226 L34.8513274,10.4853226 L34.8093274,10.4573226 L34.8073274,10.4563226 L34.7913274,10.4453226 L34.7883274,10.4433226 L34.6746678,10.3666256 L34.6746678,10.3666256 L34.6193274,10.3303226 L34.6173274,10.3293226 L34.5693274,10.2973226 L34.5233274,10.2673226 L34.5683274,10.2973226 L34.5183274,10.2643226 L34.4493274,10.2193226 L34.4463274,10.2173226 L34.4083274,10.1933226 L34.2763274,10.1103226 L34.2413274,10.0883226 L34.2313274,10.0823226 L34.0913274,9.99632258 L34.1183274,10.0133226 L33.9639883,9.91983145 C33.8690491,9.86326722 33.7735563,9.80758961 33.6775222,9.75280845 Z M24.9903274,5.04032258 L24.8763175,5.04656801 L24.9949514,5.04033289 L25,5.04032258 C25.54271,5.04032258 26.0826625,5.06201186 26.6189297,5.10509007 C26.6538844,5.10789875 26.6887939,5.11079514 26.7236879,5.11378221 C26.7754395,5.11821108 26.8272345,5.12284757 26.8789936,5.12768377 C27.2094957,5.15856554 27.5386753,5.19760718 27.8662171,5.24473601 C27.8691195,5.24514788 27.8727856,5.24567627 27.8764515,5.24620566 C28.0602735,5.27276558 28.2427965,5.30173199 28.4247698,5.33321288 C28.9914387,5.43122815 29.5529187,5.55368918 30.107756,5.70016269 C30.7537122,5.87069106 31.1391227,6.53258263 30.9685943,7.1785389 C30.798066,7.82449517 30.1361744,8.20990564 29.4902181,8.03937728 C28.9067365,7.88534181 28.3147743,7.76152306 27.7159862,7.66849784 C27.4821962,7.63218099 27.2472619,7.60054057 27.0114069,7.57363471 L26.5223271,7.5247479 C26.2169286,7.49851823 25.9100788,7.48017794 25.6019885,7.46980046 C25.4019969,7.46306089 25.2012265,7.45967742 25,7.45967742 L24.9953274,7.45932258 L24.8763175,7.45343199 L24.9913274,7.45932258 L24.983962,7.45968458 C24.6897552,7.45994746 24.3964651,7.46744377 24.104257,7.48212551 C23.4370123,7.51565063 22.8689261,7.0019194 22.835401,6.3346747 C22.8018758,5.66743 23.3156071,5.09934382 23.9828518,5.0658187 C24.3147717,5.04914167 24.6478217,5.04062913 24.9818003,5.04033022 L24.9903274,5.04032258 Z M41.3283325,18.5793626 L41.3098004,18.5324737 L41.2933274,18.4933226 L41.2783274,18.4563226 L41.2323274,18.3423226 L41.2213274,18.3163226 L41.2003274,18.2663226 L41.2193274,18.3103226 L41.2017773,18.2667123 L41.2017773,18.2667123 L41.1353274,18.1103226 L41.1143274,18.0613226 L41.0573274,17.9303226 L40.9895207,17.7778124 L40.9895207,17.7778124 L40.9263274,17.6413226 L40.9263274,17.6403226 L40.8673274,17.5143226 L40.8513274,17.4803226 L40.8483274,17.4733226 L40.8283274,17.4313226 L40.8373274,17.4513226 L40.8225568,17.4196354 L40.8123274,17.3993226 L40.8123274,17.3983226 L40.7983274,17.3703226 L40.7893274,17.3513226 L40.7213274,17.2153226 L40.7513274,17.2743226 L40.7123648,17.1942415 L40.7123648,17.1942415 L40.6613009,17.092506 L40.6293274,17.0303226 L40.6233274,17.0193226 L40.6083274,16.9903226 L40.5763898,16.9268844 L40.5763898,16.9268844 L40.5523274,16.8813226 L40.5753274,16.9263226 L40.3493409,16.5040484 C40.2637781,16.3498192 40.1758609,16.1968407 40.0856168,16.0451622 C39.7440153,15.4710125 39.9325328,14.7286495 40.5066824,14.387048 C41.0808321,14.0454464 41.8231951,14.2339639 42.1647966,14.8081136 C42.2783307,14.9989369 42.3886337,15.1915773 42.4956629,15.3859585 C42.4999376,15.3939234 42.5044158,15.401872 42.5088164,15.4098902 L42.5223274,15.4353226 L42.5893274,15.5603226 L42.7203274,15.8073226 L42.7352056,15.8344618 L42.7352056,15.8344618 L42.8616435,16.0829053 L42.8616435,16.0829053 C42.9123131,16.1842085 42.962052,16.2858171 43.0109207,16.3878449 C43.0334138,16.4348149 43.0556601,16.4817323 43.0777223,16.5287367 C43.1316801,16.643682 43.184708,16.7595384 43.2366209,16.8759058 C43.2827355,16.9792813 43.3279901,17.0831003 43.3723578,17.1873115 C43.4023991,17.2578673 43.4320707,17.3286972 43.4613331,17.3997048 C43.4942852,17.4796685 43.5267427,17.5599145 43.5586778,17.640381 C43.5968789,17.7366252 43.6345513,17.8337645 43.6714633,17.931216 C43.7044936,18.0184283 43.7366884,18.1052654 43.7682795,18.1923427 C43.8045327,18.2922652 43.8401223,18.3928842 43.8749067,18.4938144 C43.90283,18.5748304 43.9303451,18.6563835 43.9573343,18.7381337 L44.0454697,19.0117484 L44.0454697,19.0117484 C44.0532204,19.0364204 44.0609558,19.0612155 44.0686431,19.086028 L44.079521,19.1212555 C44.1223591,19.26044 44.1636849,19.4001695 44.2034864,19.5404227 C44.3858763,20.1831305 44.0127148,20.8520044 43.370007,21.0343942 C42.7272992,21.2167841 42.0584253,20.8436227 41.8760354,20.2009148 L41.7333274,19.7263226 L41.6742018,19.5399835 C41.6442573,19.4484757 41.6135631,19.3572472 41.5821235,19.2663061 L41.5334667,19.1274638 L41.5334667,19.1274638 L41.5303274,19.1203226 L41.4996594,19.0331529 L41.4996594,19.0331529 L41.4913274,19.0113226 L41.4835091,18.9886905 L41.4835091,18.9886905 L41.4603274,18.9263226 L41.3973274,18.7593226 L41.3893274,18.7383226 L41.3893274,18.7373226 L41.3643274,18.6733226 L41.3283325,18.5793626 L41.3283325,18.5793626 Z" id="Combined-Shape" fill="#FFFFFF" fill-rule="nonzero"></path>
    </g>
</svg>