<?xml version="1.0" encoding="utf-8"?>
<!-- Generator: Adobe Illustrator 23.0.0, SVG Export Plug-In . SVG Version: 6.00 Build 0)  -->
<svg version="1.1" id="Layer_1" xmlns="http://www.w3.org/2000/svg" xmlns:xlink="http://www.w3.org/1999/xlink" x="0px" y="0px"
	 viewBox="0 0 1713.5 1080" style="enable-background:new 0 0 1713.5 1080;" xml:space="preserve">
<style type="text/css">
	.st0{opacity:0.1;}
	.st1{fill-rule:evenodd;clip-rule:evenodd;fill:#FFFFFF;}
</style>
<title>Artboard</title>
<desc>Created with Sketch.</desc>
<g id="Artboard" class="st0">
	<path id="Combined-Shape" class="st1" d="M959.6,853.5c17.2,0,27.1,9.7,27.1,26.8c0,55.6,0,111.3-0.1,166.9
		c0,16.1-10.2,26.2-26.2,26.2c-47.1,0-94.2,0-141.3,0c-46.8,0-93.7,0-140.5,0c-17.4,0-26.7-9.4-26.7-26.9
		c0-55.4-0.1-110.8-0.1-166.1c0-17.6,9.2-26.9,26.7-26.9C772.2,853.5,865.9,853.5,959.6,853.5z M409.9,849.8
		c16.2,34.1,32.1,68.4,48.1,102.6c3.2,6.8,6.3,13.6,9.5,20.4c1.5,3.1,2.4,6.3,2.2,9.3c0.2,8.4-3.2,14.5-10.1,18.4
		c-5.2,2.9-10.7,5.2-16,7.9c-5.7,2.9-11.9,5.2-16.2,10.4c-0.8,1-2,1.7-3.1,2.3c-12.4,5.7-25.7,9.3-38.8,12.4
		c-9.3,2.2-16.3-5-20.4-13.7c-12.5-26.4-25-52.9-37.4-79.3c-6.9-14.8-14-29.5-20.4-44.4c-5.6-12.8-1.8-22.6,10.9-28.8
		c20.7-10,41.5-19.8,62.5-29.4C393,832.3,403.6,836.6,409.9,849.8z M1593.3,872.5c10,0.2,14.1,4.4,14.3,14.3
		c0.2,9.3,0.2,18.6,0,27.9c-0.2,9.5-4.4,13.7-13.8,14.1c-5.9,0.2-11.9,0-17.8,0c-5.2,0-10.3-0.1-15.5,0c-6.5,0.1-10.3-3.1-14.7-8
		c-5-5.7-9.3-8.2-1.2-15.3c3-2.6,0.7-11.3,0.8-17.3c0.2-11.8,4.1-15.7,16.1-15.8C1572.1,872.4,1582.7,872.3,1593.3,872.5z
		 M1553.7,903c0,0.3,0,0.5,0,0.8c-0.1,3.9,1.9,5.6,5.7,5.6c5.7,0,11.3,0,17,0c24.1,0.1,24.1,0.1,22.9-21.5c0-0.3,0-0.5,0-0.8
		c0.2-4.6-2.3-6.4-6.7-6.4c-6.2,0.1-12.4-0.1-18.5,0C1551.3,881.1,1553.7,876.4,1553.7,903z M552.6,678c2.7,3.7,5.3,4.6,9.8,3.6
		c20.9-4.8,34.1,1.1,44.3,20.1c2.4,4.4,5.8,4.3,9.7,4.7c15.2,1.5,27.5,7.7,33.5,22.5c8.4,20.8-4.1,42.2-26.3,46.1
		c-9.2,1.6-18.4,1.1-30.1,1.8c14.9,14.8,28.1,27.9,41.3,41c5.3,5.3,10.6,10.6,15.8,16l0.3,0.3c2.1,2.2,4.3,4.8,1.4,7.7
		c-3,3-6.3,1.5-8.9-1c-6.3-6.1-12.5-12.4-18.7-18.6c-13.4-13.3-26.8-26.6-40-40.1c-3.9-4-8-5.9-13.7-5.8c-14,0.3-27.9,0.3-41.9,0
		c-5.6-0.1-9.8,1.6-13.6,5.8c-25,27.9-50.2,55.6-75.4,83.4c-0.3,0.4-0.7,0.7-1.1,1.1c-2.6,2.9-5.7,6.8-9.6,3.3
		c-4.6-4-0.1-7.5,2.5-10.4c9.2-10.5,18.6-20.8,28-31.2c13.8-15.4,27.7-30.7,41.5-46.1c1.3-1.4,4.1-2.8,2.8-4.9
		c-0.8-1.3-3.6-1.8-5.6-2c-12-1.5-22.7-6-30.3-15.5c-18.2-22.6-6.8-53.6,22.9-62.2c5.4-1.5,7.6-4.1,8.9-9.1
		c3.1-11.6,11-18.8,22.7-20.7C534.1,666,545.1,667.8,552.6,678z M1516.3,810.1c8.7,6.8,13.4,17,18.1,26.3
		c4.9,9.6-4.1,20.4-15.6,21.1c-5.3,0.4-11.4-2.1-15,4.7c-1.1,2-4.1,1.4-5.2-0.6c-2.5-4.7-6.6-4.1-10.7-4.1
		c-12.7-0.1-20.2-5.3-22.8-15.6c-2.5-9.6,1.5-17.5,12.5-23.8c2.1-1.2,3.6-2.8,5.1-4.6c5.1-5.7,11.5-8.5,19.5-8.1
		C1507.3,805.1,1512.1,806.8,1516.3,810.1z M1603.7,820.5c3.2,0.2,4.2,2.9,4,5.7c-0.3,5.6,2.2,8,7.8,7.8c3.3-0.1,6,1.2,6.9,4.8
		c-0.4,4.5-3.4,5.9-7,5.8c-5.6-0.1-8,2.2-7.7,7.8c0.1,2.7-0.8,5.5-4,5.7c-3.5,0.2-5.4-2.3-5.3-5.4c0.1-6-2.6-8.2-8.4-8.3
		c-3-0.1-5.6-1.9-5.4-5.4c0.2-3,2.5-4.7,5.3-4.8c5.6-0.1,8.6-2.1,8.5-8.2C1598.3,822.9,1600.3,820.3,1603.7,820.5z M256,760.8
		c7.4,0,10.1,3.2,10,10.4c-0.2,22.8-0.2,45.5,0,68.3c0.1,7.4-3.3,10.2-10.4,10.1c-14.2-0.2-28.5-0.1-42.7-0.1
		c-13.7,0-27.4,0.1-41.1,0c-9-0.1-10.5-1.6-10.5-10.3c-0.1-22.8,0.2-45.5-0.1-68.3c-0.1-7.6,3.2-10.1,10.2-10
		C199.6,760.9,227.8,760.9,256,760.8z M1488.2,819.6c-2.5,2.8-5,4.9-8.4,6.5c-6,2.7-8.2,7.9-6.8,14c1.3,6,5.5,9.1,11.8,9.1
		c5.4,0,10.8,0,16.2,0c5.9,0,11.9,0,17.8,0c3.7,0,6.4-1.6,7.8-5.2c1.5-3.9,0.6-7.4-2.5-9.7c-3.3-2.5-4.9-5.6-6.3-9.3
		C1512.9,812.3,1497.1,809.4,1488.2,819.6z M1364.3,747c2.5,0.3,4.1,2,5.8,3.7c27.6,27.6,55.1,55.1,82.7,82.7
		c2.5,2.5,5.9,5.4,2.3,9.1c-4,4.2-7,0.4-9.7-2.3c-27.4-27.4-54.8-54.7-82.1-82.1c-2.3-2.3-5.3-4.6-3.4-8.6
		C1360.6,747.7,1362.3,747,1364.3,747z M872.6,759.9c8.1,8.3,16.2,16.6,24.1,25.1c3.9,4.2,1.8,6.3-3.1,7c-12.9,1.8-12.9,1.9-12.9,15
		c0,7.5-0.1,15,0,22.5c0,6.9-3,10.7-10.2,10.5c-2.8-0.1-5.7,0-8.5-0.1c-5.9-0.1-9.1-3.2-9.2-9.2c-0.1-5.4,0-10.8,0-16.3h-0.1
		c0-4.4-0.3-8.8,0.1-13.2c0.5-6.7-1.6-10.5-9-9.7c-1.8,0.2-3.6-0.1-5.4-0.5c-3.8-0.9-4.8-3.5-2.2-6.2c8.9-8.9,18-17.7,27.3-26.3
		C866.4,756.1,870,757.3,872.6,759.9z M177.4,790.4c-5.8-0.1-7.6,2.3-7.5,7.9c0.3,11.1,0.4,22.2,0,33.3c-0.3,6.7,2.5,8.4,8.7,8.2
		c11.4-0.3,22.7-0.1,34.1-0.1c11.9,0,23.8-0.3,35.6,0.1c6.2,0.2,8.1-2.3,8-8.2c-0.3-11.1-0.3-22.2,0-33.3c0.1-5.5-1.6-7.9-7.5-7.9
		C224.9,790.6,201.1,790.6,177.4,790.4z M806.4,774.8c0,2.6,0,5.2,0,7.8c0,5.2,0.1,10.3,0,15.5c-0.2,5.2,1.9,7.8,7.3,7.5
		c1.8-0.1,3.6,0,5.4,0.1c2.1,0.1,4.4,0.1,5.2,2.5c0.7,2-0.8,3.4-2.1,4.7c-8.3,8.2-16.5,16.4-24.8,24.5c-3.4,3.3-7.2,2.9-10.3-0.3
		c-8.4-8.4-16.7-17-24.7-25.7c-3.7-4-1.1-5.8,3.1-6.7c4.2-0.9,9.5,1.6,12.5-2.4c3.2-4.4,1.2-10,1.4-15.1c0.3-7.2,0.1-14.5,0.1-21.7
		c0-5.4,2.5-7.9,7.9-8.2C805.1,756,806.4,757.1,806.4,774.8z M177.6,770.5c-4.9,0-7.7,1.2-7.8,6.9c-0.1,6.2,3.5,6.5,8,6.4
		c11.6-0.1,23.3,0,34.9,0c12.1,0,24.3-0.1,36.5,0.1c4.9,0.1,6.9-1.7,6.9-6.8c0-5.3-2.5-6.6-7.2-6.5
		C225.2,770.6,201.4,770.6,177.6,770.5z M365.2,677.1c2.1,2.3,1.5,4.8-0.3,7c-1.1,1.4-2.4,2.7-3.7,4c-25.6,25.6-51.1,51.2-76.7,76.7
		c-2,2-3.7,4.4-7,4.9c-3.8-0.7-6-2.8-4.4-7c0.7-1.8,2.4-3.3,3.9-4.7c25.9-26,51.9-51.9,77.8-77.8c1.1-1.1,2.2-2.2,3.4-3.1
		C360.6,675.3,363,674.7,365.2,677.1z M527.1,677.5c-9.5,0.9-16.5,6.9-17.9,17.4c-1.1,8.2-4.5,11.3-12.7,12.2
		c-12.2,1.3-24,12.8-26.4,24.3c-2.6,12,3.1,20.6,12.1,27.3c6.4,4.8,13.8,6.8,21.8,6.8c18.3,0,36.7,0,55,0l0,0
		c19.1,0,38.2,0.3,57.4-0.1c15.3-0.3,24.9-9.3,25.2-22.7c0.4-16.4-14.5-28.8-32-25.9c-6.5,1.1-9.2-0.7-11.1-7
		c-5.4-18.3-23-25.1-39.3-15.2c-5.7,3.4-8.6,2.7-11.2-3.4C543.6,680.6,536.9,676.5,527.1,677.5z M1300.8,644.7
		c4.5,0,7.4,2.3,7.2,7.2c-0.2,5.4,3,6.4,7.5,6.3c6.5-0.1,12.9,0.2,19.4-0.1c6.3-0.2,8.8,2.7,8.7,8.9c-0.2,12.7-0.1,25.3-0.1,38
		c0,12.1-0.2,24.3,0.1,36.4c0.1,7-3.1,9.9-9.8,9.9c-4.9,0-9.8,0-14.7,0.1c-4.6,0-8.8,2.2-12.9,3.2c-15.8,3.7-32.2,3.7-48,0
		c-4.2-1-8.3-3.2-12.9-3.2c-28.5,0.1-24.2,1-24.4-24.7c-0.2-19.4-0.1-38.8,0-58.1c0-9.3,1-10.3,10.2-10.4c4.6-0.1,9.3-0.1,14,0h0.5
		c6,0.2,11.7,0.5,11.3-8.6c-0.1-3.8,3.6-4.8,6.8-4.8C1276,644.6,1288.4,644.6,1300.8,644.7z M1272.8,655.1c-4.9-0.1-7,2.2-6.9,7.1
		c0.1,25.8,0.1,51.7,0,77.5c0,5.4,2.4,7.4,7.5,7.3c5.7-0.2,11.4-0.3,17.1,0c6.1,0.3,8.3-2.3,8.2-8.2c-0.3-12.4-0.1-24.8-0.1-37.2
		c0-7.5,0.1-15,0-22.5C1297.8,650.6,1304,655.6,1272.8,655.1z M1265.7,137c16.4,4.8,26.3,16.4,29,33.1c2.6,16-3.5,29.1-16.4,38.6
		c-13.5,10-28.4,11.1-43,2.8c-5.8-3.3-8.9-2.1-13.2,2.2c-27.3,27.6-54.8,55-82.3,82.4c-4,4-5.6,8.1-5.6,13.7
		c0.2,29.2,1,58.5-0.2,87.7c-1.4,35.4-32.3,63.6-67.8,63.7c-50.5,0.1-100.9,0-151.4,0.1c-28.6,0-50.5,16.7-58.8,44.1
		c-1.7,5.6-1.6,11.2-1.6,16.9c0,68.6,0,137.1-0.1,205.7c0,3.1-0.1,6.2-0.6,9.3c-0.4,2.5-2.1,4.3-4.8,4.3s-4.4-1.8-4.8-4.3
		c-0.5-3-0.6-6.2-0.6-9.2c0-49.2-0.1-98.3,0.1-147.5c0-6.2-1.8-10.6-6.3-14.9c-19.8-19.3-39.3-39.1-58.8-58.6
		c-0.4-0.4-0.8-0.7-1.1-1.1c-2.5-3.1-7.1-6.2-2.8-10.4c4.2-4.1,7.7,0.2,10.5,2.9c18,17.8,35.9,35.8,53.9,53.7c1,1,1.7,2.7,3.8,2.4
		c1.5-2.9,0.7-6,0.7-9c0-102,0-203.9,0-305.9c0-3.1-0.1-6.2,0.2-9.3c0.2-3.2,1-6.5,5-6.7c4.5-0.1,5.3,3.5,5.5,7
		c0.2,2.8,0.1,5.7,0.1,8.5c0,52,0,104,0,156c0,3-0.8,6.2,1.6,10.2c6.6-6.6,12.9-12.9,19.2-19.1c1.5-1.5,2.8-3.1,4.4-4.4
		c9.7-7.5,14.3-14.6,7.8-28.2c-7.9-16.5,2.6-37.6,19.5-46.5c17.3-9.1,38-5.2,49.9,9.5c12.7,15.6,13,36.9,0.8,51.4
		c-13.1,15.6-32.1,19.8-50.3,10.6c-5-2.5-8.2-2.3-12.1,1.8c-11.8,12.3-24.1,24.3-36.1,36.3c-2.4,2.4-4.6,4.9-4.6,8.6
		c0,15.3,0,30.5-0.1,45.8c0,2.8,0,5.6,0,9.5c4.2-1.9,6-5.1,8.3-7.6c14.2-15.4,31.9-22.3,52.7-22.2c47.6,0.1,95.2,0.3,142.8,0.2
		c21.3-0.1,40.4-5.5,54.1-23.6c5.9-7.8,9.4-16.6,11.6-26c1-4.2-0.9-6.9-3.6-9.5c-11.6-11.5-23.1-23-34.6-34.6
		c-1.6-1.6-3.3-3.3-4.8-5.1c-1.9-2.4-3.1-5-0.5-7.6c2.6-2.5,5.3-1.5,7.5,0.7c7.4,7.3,14.7,14.5,22,21.9c4.1,4.2,8,8.7,12.4,13.4
		c3.1-3.9,2.1-7.1,2.1-10c0.1-68.8,0-137.7,0.1-206.5c0-3.3,0.2-6.7,0.8-10c0.4-2.1,2.3-3.6,4.6-3.4c2.4,0.1,3.8,1.8,4,4
		c0.3,2.6,0.3,5.2,0.3,7.7c0,37.8,0,75.6,0,113.3v8.3c0.9,0.5,1.8,0.9,2.6,1.4c6.7-7.1,13.3-14.4,20.2-21.4
		c19.3-19.5,38.7-38.9,58.2-58.1c4.3-4.2,5.5-7.5,2.6-13.3c-7.5-15.5-5.2-30.3,5.8-43.4C1234.8,136.8,1249.3,132.2,1265.7,137z
		 M706.2,592.9c44.3,0.1,73.8,28.3,75,72.5c0.6,22.2,0.1,44.5,0.1,66.7c0,1,0,2.1-0.2,3.1c-0.5,3.3-1.6,6.4-5.5,6.2
		c-3.4-0.1-4.7-2.9-5-5.9c-0.3-2.3-0.2-4.6-0.2-7c0-20.4,0.1-40.9,0-61.3c-0.2-39.6-24.8-64.5-64.5-64.6
		c-73.7-0.2-147.4-0.1-221.1-0.1c-2.6,0-5.2,0-7.8,0h-0.4c-3.3-0.1-7-0.5-6.8-5s4.2-4.6,7.6-4.7c2.3-0.1,4.7,0,7,0h112.5l0,0
		C633.2,592.9,669.7,592.9,706.2,592.9z M1249.5,418.8c2.4,2,2.2,4.7,0.5,7s-3.7,4.3-5.7,6.3c-27.6,27.7-55.3,55.3-82.9,82.9
		c-2,2-4.5,3.5-5.8,7.9h8.4c60.6,0,121.1-0.1,181.7,0.1c6.9,0,10.4-1.4,12.3-9c6-23.1,29.3-36.6,54.6-32.8
		c20.7,3.2,38,23.8,38.1,45.7c0.2,24-16.4,44.2-39.2,47.8c-25,3.9-47.4-10.1-54.1-34.5c-1.7-6.1-4.7-7.5-10.4-7.5
		c-61.3,0.1-122.7,0.1-184,0.1c-2.5,0-6-1.2-7.1,1.4c-1.3,3.1,2.5,4.7,4.3,6.6c28.3,28.4,56.7,56.7,85,85.2c2.9,3,9.4,6.2,4.5,11.2
		c-5.3,5.5-8.6-1.3-11.7-4.3c-31.4-31.2-62.7-62.5-93.9-93.9c-4.4-4.4-8.8-6.3-15-6.3c-56.2,0.2-112.3,0-168.5,0.2
		c-17.9,0.1-34.9,2.7-48.9,15.7c-14.1,13.1-19.8,29.4-19.9,48c-0.2,44.3,0,88.5-0.1,132.8c0,4.5,1.8,11.8-5.1,11.7
		c-7.1-0.1-4.5-7.5-4.6-11.9c-0.2-45.3-0.3-90.6,0-135.9c0.2-40.1,30.2-70.1,70.5-70.3c58.8-0.2,117.5-0.2,176.3,0.1
		c7.3,0,12.5-2.1,17.7-7.4c29.7-30.3,59.7-60.3,89.7-90.4c2.2-2.2,4.6-4.2,7-6.2C1245.1,417.6,1247.4,417,1249.5,418.8z
		 M1314.7,667.7c-5.1,0-6.8,2.3-6.7,7.1c0.2,9.6,0.1,19.1,0,28.7c0,7-0.1,14,0,20.9c0.2,17.7-2.3,16.1,16.9,16.5
		c7.3,0.2,9.4-2.7,9.2-9.6c-0.4-15.2,0-30.5-0.1-45.8C1333.7,665.7,1337.7,667.8,1314.7,667.7z M1230.2,675.5
		c0.2,15.8-0.1,31.5,0.1,47.3c0.2,19.5-3.8,17.9,19.2,17.9c5.1,0,6.8-2.4,6.7-7.2c-0.1-9.8,0-19.6,0-29.5c0-6.2,0.1-12.4,0-18.6
		c-0.3-19.8,3.4-17.6-18.4-17.9C1232,667.5,1230.2,670,1230.2,675.5z M1282.3,717.5c5.9,0.1,11.4,5.6,11.4,11.5
		c0,5.8-5.5,11.4-11.4,11.5s-11.5-5.3-11.8-11.1C1270.4,723.3,1276.1,717.4,1282.3,717.5z M585.2,438.3c6.5,6.3,12.9,12.7,19.2,19.2
		c2.3,2.4,3.5,5.5,0.3,8.1c-2.8,2.4-5.5,0.9-7.5-1.4c-2.9-3.3-5.4-6.9-8.1-10.4c-0.6,0.6-1.1,1.1-1.7,1.7c-0.4,0.3-1.1,0.6-1.1,0.8
		c0,17.5-2.8,35.2,2.5,52.4c8.1,26.1,29.4,42.1,56.7,42.2c32.6,0.2,65.2-0.1,97.8,0.1c27.8,0.1,49.3,11.8,63.8,35.7
		c8.1,13.4,9.4,28.4,9.5,43.4c0.4,33.1,0.1,66.2,0.1,99.3c0,2.1-0.1,4.2-0.6,6.2c-0.6,2.7-2.3,4.8-5.4,4.6c-3.2-0.1-4.5-2.3-4.8-5.2
		c-0.2-2.6-0.2-5.2-0.2-7.8c0-35.2,0.1-70.4-0.1-105.5c-0.2-28.3-16.7-50-43.7-58.2c-4.5-1.4-9.1-1.6-13.8-1.6
		c-33.9,0-67.8,0.1-101.7-0.2c-34.5-0.3-62.5-23.3-69.5-56.5c-2.2-10.7-0.8-21.7-1.1-32.5c-0.2-5.6,0-11.3,0-16.9
		c-0.9-0.5-1.8-1-2.7-1.4c-2.8,3.4-5.4,6.9-8.5,10c-2.1,2.1-4.9,3.5-7.5,0.8c-2.4-2.5-1.8-5.5,0.3-7.7c6.2-6.6,12.6-13,19.1-19.3
		C579.5,435.8,582.6,435.8,585.2,438.3z M1252.9,727.4c-0.5,5.9-4.1,9.3-10,9.8c-5.1,0.4-9.6-4.5-9.6-10.5c0.6-5.3,3.7-8.9,9.8-9.2
		C1248,717.3,1253.3,722.5,1252.9,727.4z M1321.4,717.5c5.3,0.1,9.9,4.8,9.5,10.2c-0.4,5.7-3.9,9-9.4,9.5
		c-4.9,0.5-10.2-4.9-10.2-9.8C1311.3,722.4,1316.4,717.4,1321.4,717.5z M1556.4,624c6,0,8.1,3.1,8,8.8c-0.1,15,0,30,0,45
		c0,14.5-0.2,28.9,0.1,43.4c0.1,6.7-2.6,9.2-9.2,9.2c-20.4-0.2-40.8-0.2-61.2,0c-6.3,0.1-9.1-2.6-9.1-8.7c0-29.7,0-59.4,0-89.1
		c0-5.8,3-8.4,8.7-8.4C1514.6,624.1,1535.5,624.1,1556.4,624z M1495.5,640.7c0.3,11.9,0.1,23.8,0.1,35.7l0,0
		c0,11.9,0.2,23.8-0.1,35.7c-0.1,5.8,1.8,8.5,8,8.4c14.5-0.3,29-0.2,43.5,0c5.7,0.1,7.7-2.3,7.7-7.9c-0.2-23.8-0.1-47.6,0-71.4
		c0-5.1-1.6-7.6-7.1-7.5c-15.3,0.2-30.5,0.3-45.8,0C1496.3,633.6,1495.3,635.9,1495.5,640.7z M656.9,651.6c2.7,1.7,5.5,2,8.5,2.7
		c14.1,2.8,25.9,10.9,35.1,21.1c7.4,8.2,1.2,21-9.9,24.4c-9.9,3.1-20.1,1.5-30.1,2c-9-0.3-18.1,0.6-27.1-1.3
		c-9.9-2.1-16-7.6-17.6-16.3c-1.5-8.1,2.1-14.9,11.2-20.3c3.2-1.9,5.6-4.3,7.6-7.4C639.9,648.4,648.6,646.5,656.9,651.6z
		 M642.3,664.4c-1.3,3.9-3.2,5.9-7.2,7c-5.3,1.5-9.6,4.6-8.9,11c0.8,6.6,6.2,7.8,11.5,8.1c7.5,0.4,15,0.1,22.5,0.1v0.1
		c7.5,0,15,0.1,22.5,0c4.6-0.1,9.4-0.8,9.6-6.7c0.1-5.8-4-8.1-9.2-8.2c-4.4-0.1-7.3-1.5-9.1-5.7c-2.3-5.4-6.6-6.3-11.5-4
		c-4.3,2-7,1-9.7-3C649,657.3,644.5,657.9,642.3,664.4z M1443.6,672.2c1.8,0,3.6,0,5.4,0.3c2.8,0.4,5,1.8,5.1,4.9
		c0.1,3.1-2.1,4.9-4.8,5.1c-5.9,0.5-11.9,0.5-17.8,0.6c-7.8,0.1-15.5,0-23.3,0c-11.1,0-22.2,0-33.3,0c-2.6,0-5.2-0.3-7.7-0.8
		c-2.4-0.5-4.4-1.9-4.5-4.6c0-3.1,2.2-4.6,4.9-5.1c2-0.3,4.1-0.4,6.2-0.4C1397.1,672.2,1420.3,672.2,1443.6,672.2z M73.7,564.8
		c2.9-0.1,2.4,2.8,2.6,4.7c0.4,3.8,1,7.7,1,11.6c0,7.1,1.8,10.1,10,12.9c9.7,3.2,3.3,15,4.3,22.9c0.7,5.1-3.6,6.1-7.9,6.1
		c-7.5,0-15,0-22.5,0c-4.1,0-8.3,0-12.4,0c-11.4,0-22.8-0.2-34.1,0.1c-6.5,0.2-9-2.5-8.5-8.8c0.3-3.6,0.2-7.3,0-10.9
		c-0.4-6.5,0.6-11.4,8.9-10.7c4.2,0.3,4.9-2.6,5.1-6.1c0.3-5.9,1-11.8,1.6-17.7c0.1-1.5-0.1-3.6,1.9-3.8c2.5-0.3,2.5,2.1,2.7,3.8
		c0.6,5.6,1.5,11.3,1.6,17c0.1,5.5,2.7,7.1,7.7,7c9.1-0.2,18.1-0.2,27.2,0c4.8,0.1,7-1.6,7.1-6.7c0.1-5.7,1-11.3,1.5-16.9
		C71.6,567.4,71.4,564.9,73.7,564.8z M332.9,600.4c6.3,0.3,9.3,3.6,9.3,9.8s-4,10.3-10,10.1c-5.8-0.1-10.1-4.7-9.9-10.5
		C322.4,603.9,326.6,600.2,332.9,600.4z M359.1,613.8c0.1,2.2,0.8,5.3-2.4,5.6c-2.8,0.3-2.7-2.6-3-4.5
		c-2.7-14.6-10.9-23.5-26.1-25.2c-2-0.2-4.6-0.6-4.4-3.3c0.1-2.8,2.7-2.6,4.7-2.7C342.2,583.4,358.6,599.1,359.1,613.8z
		 M373.3,614.1c-0.3,1.9,0.7,5-2.5,5.4c-2.8,0.3-2.6-2.5-2.9-4.5c-4.3-23.9-15.6-35.4-39.6-39.9c-2.1-0.4-5.4,0.4-5-3.2
		c0.3-2.7,3.1-2.2,5.1-2.3C349.8,569.1,373.4,592.3,373.3,614.1z M12.8,607.9c0,5,0.7,8.5,7,8.4c19.1-0.2,38.1-0.2,57.2,0
		c6.4,0.1,6.9-3.5,7-8.5c0-5-0.8-8.5-7.1-8.3c-9.3,0.3-18.5,0.1-27.8,0.1c-9.8,0-19.6,0.2-29.4-0.1C13.3,599.3,12.8,603,12.8,607.9z
		 M251.1,593c1,0,2.1,0,3.1,0.1c3,0.4,5.8,1.3,5.8,5c-0.1,3.7-3,4.5-6,4.5c-9.8,0.1-19.6,0.1-29.4,0.1c-7,0-14,0-20.9,0
		c-15.8,0-31.5,0-47.3,0c-3.6,0-8.1,0.2-8-4.9c0.1-5.1,4.7-4.7,8.2-4.7C188,592.9,219.6,592.9,251.1,593z M1402.9,490.7
		c-20.7,0.1-36.2,16.1-36.2,37.3c0,21.5,15.5,37.1,36.9,37.1c20.3,0,37.4-16.8,37.5-36.6C1441.1,507.7,1423.8,490.6,1402.9,490.7z
		 M1396.6,510.6c8,4.7,15.9,9.5,23.7,14.5c4.3,2.7,3.8,5.8-0.3,8.3c-7.7,4.7-15.4,9.3-23.1,14c-5.3,3.2-7,0.7-7-4.4
		c0-4.6,0-9.3,0-13.9h0.1c0-4.9-0.1-9.8,0-14.7C1390.1,509.8,1392.6,508.2,1396.6,510.6z M152.3,489.8c4,0.2,5.1,3.4,4.8,6.7
		c-0.8,7.5,2.4,10.3,9.7,9.8c3.5-0.2,6.6,1.4,7,5.7c-0.8,4.3-4.2,5.2-7.6,4.9c-7.2-0.6-9.8,2.6-9.2,9.5c0.3,3.4-0.4,7.3-5.1,7.1
		c-4.1-0.2-4.8-3.7-4.4-6.9c0.8-7.5-2.5-10.2-9.8-9.7c-3.5,0.2-7.1-1-7-5.4s3.9-5.4,7.3-5.2c7.6,0.6,10.1-2.9,9.5-10
		C147.3,493.1,148.1,489.6,152.3,489.8z M273.1,412c2.5,0.3,4.1,2.1,5.7,3.7c28.4,28.3,56.7,56.7,85,85c2.4,2.4,5.5,5.1,2.2,8.5
		c-3.4,3.5-6.7,1.2-9.4-1.5c-28.6-28.5-57.1-57-85.6-85.6c-2.1-2.1-3.8-4.4-2.4-7.6C269.4,412.8,271.1,412,273.1,412z M418.2,407.2
		c21.6,0.2,40,18.4,39.9,39.4c-0.1,21.5-18,39.5-39.4,39.6c-22.4,0.1-39.7-16.8-39.8-38.7C378.7,425.2,396.6,407,418.2,407.2z
		 M418.4,417.7c-15.9-0.1-29.4,13-29.6,28.6c-0.1,16.4,12.8,29.7,29.2,30c15.4,0.3,29.2-13.3,29.3-28.9
		C447.5,430.4,435.3,417.9,418.4,417.7z M772.8,370.8c19.5,4.6,32.2,20.6,32,43.6c-0.4,9.1-4.3,20.4-14.6,27.1
		c-9.3,6.1-15.4,14-20.9,23.2c-4.1,6.8-6.1,6.8-10.1-0.2c-5.2-9-11.2-16.6-20.3-22.6c-14.9-9.9-19.3-31.7-11.6-48.1
		C735.6,376.1,754.7,366.5,772.8,370.8z M414.3,424.5c1,1.8,2.1,3.6,2.6,5.5c1.8,7.2,5,12.1,13.7,11.1c3-0.4,5.6,1.3,5.8,4.8
		c0.2,3.6-2.3,5-5.3,5.4c-2.3,0.4-4.6,0.3-6.9,0.5c-7.3,0.8-11.7-2.3-13.7-9.4c-1.4-4.9-3.5-9.6-5-14.6c-0.8-2.6-0.1-5.3,3-6.2
		C411.3,420.7,413,422.4,414.3,424.5z M764.5,380.4c-17.2-0.1-30.9,13.4-30.8,30.3c0.1,16.2,14,30,30.4,30
		c17.1,0.1,30.5-13.2,30.7-30.4C795,393.9,781.4,380.5,764.5,380.4z M757.8,396.2c4.5,5.5,8.5,5.9,12.9,0c1.1-1.4,2.5-2.6,4-3.6
		c2.2-1.6,4.4-1.4,6.3,0.6c1.9,2,1.8,4.2,0.4,6.4c-0.1,0.2-0.3,0.5-0.5,0.6c-8.7,6.3-9.3,12.5-0.2,19c1.7,1.2,2.3,3.4,1.3,5.6
		c-0.8,1.8-2.2,2.8-4.2,2.9c-3.7-0.4-5.9-3.1-8.1-5.5c-3.4-3.8-6.2-4.7-10.2-0.5c-3.1,3.2-6.8,9.5-11.8,4.2c-4.7-5,1.8-8.2,4.8-11.1
		c4-3.9,3.8-6.9-0.3-10.1c-0.4-0.3-0.8-0.7-1.1-1.1c-2.4-3-7.6-5.7-3.2-10.2C752,388.8,755.3,393.2,757.8,396.2z M1483.2,357.7
		c2.9,2.2,5.3,3.4,9.1,2.8c8.4-1.4,15.4,1.7,20.4,8.3c2.9,3.7,6.2,5.7,10.7,6.8c10.7,2.6,17.4,11.1,17.4,21
		c-0.1,10-6.7,17.6-18.1,20.1c-11.5,2.4-23.2,0.4-32.6,1h-4.7c-8.8,0-16.3,0-23.8,0c-5.8,0-11.3-1-16.5-3.6
		c-8.2-4.2-13-10.7-13.3-20.2c-0.3-10.7,5.6-17.4,14.4-21.9c3.8-1.9,6.5-4,8.6-8.1C1460.5,353,1473.4,350.3,1483.2,357.7z
		 M582.2,279c36.6,0,67.1,30,67.3,66.3c0.2,36.6-31.3,68.1-67.9,67.9c-36.3-0.2-66.3-30.7-66.3-67.3
		C515.3,308.2,544.6,279,582.2,279z M1464.3,368.9c-1.7,8-6.9,9.8-13,12.2c-5.8,2.3-10.2,6.6-9.3,13.6c0.9,7.2,6.2,10.4,12.7,11.7
		c2.5,0.5,5.1,0.4,7.7,0.4c8.5,0,17.1,0,25.6,0v-0.1c10.3,0,20.7,0.2,31-0.1c6-0.2,10.6-2.8,10.7-9.7c0.1-6.9-4.1-10.2-10.4-11.4
		c-1.3-0.3-2.6-0.3-3.9-0.2c-4.8,0.3-7.4-1.9-9.2-6.5c-2.8-7.2-8.5-9.9-15.6-6.6c-6.1,2.8-9.1,1.5-12.5-4
		C1474.7,362,1465.7,362.4,1464.3,368.9z M1359.3,296.1c10.7,0,15.8,5,15.6,15.8c-0.3,14,0.4,28.1-0.4,42c-0.6,10.5,1,20.8,0.6,31.2
		c-0.5,12.4-5,17.2-17.6,17.2c-12.7,0.1-25.3,0-38,0c-12.4,0-24.8,0.1-37.2,0c-12.1-0.1-17-4.8-16.7-17.1
		c0.3-13.3-0.5-26.6,0.3-39.7c0.7-11.3-1-22.4-0.4-33.6c0.5-10.9,4.9-15.8,15.6-15.9C1307.1,296,1333.2,296,1359.3,296.1z
		 M562.7,383.7c-2.3,3.3,2.3,6.7,4.1,10c0.6,1.1,1.5,2.1,2.4,3c2,1.9,3.9,5.1,6.9,3.7c2.7-1.2,0.9-4.7,1.5-7.2
		c-0.8-3.3,1.9-8.4-4-9.2C569.8,383.5,565,380.4,562.7,383.7z M251.7,299.4c9.2,0,11,1.8,11.1,10.8c0.1,26.4,0.1,52.8,0,79.2
		c0,8.9-2,11-11,11.1c-35.7,0.1-71.4,0-107.1,0.1c-7.2,0-10.1-3-10-10.3c0.3-26.9,0.1-53.8,0.1-80.7c0-8.9,1.2-10.1,10.6-10.1
		c17.9-0.1,35.7,0,53.6,0C216.5,299.4,234.1,299.3,251.7,299.4z M532.8,373.1c2.9,9,11.2,17.6,23,23.4
		C552.3,383.8,545.8,375.1,532.8,373.1z M1275.2,381c0.2,6.2-0.6,11.8,8.9,11.6c24-0.5,48-0.4,72,0c8.4,0.1,9.1-4.3,9-10.7
		c-0.2-11-0.6-11.8-9.3-11.9c-11.9-0.1-23.7,0-35.6,0s-23.8,0.4-35.6-0.1C1275.7,369.4,1275,374.2,1275.2,381z M251.4,316.8
		c-3.6,3.4-5.7,5.3-7.6,7.2c-12.8,12.8-25.8,25.5-38.4,38.5c-4.9,5.1-8.4,5.2-13.4,0c-12.7-13.3-25.9-26.1-38.9-39
		c-1.8-1.7-3.1-4.6-7-4.2c0,21.1,0,41.8,0,62.4c0,4.6,2.3,6.5,6.7,6.5c30.8,0,61.6,0,92.4,0c4.1,0,6.2-1.7,6.2-6v-4.3
		C251.4,358.3,251.4,338.6,251.4,316.8z M554.5,356.7c0.2,13.7,3.2,16.8,16.7,17c9.2,0.2,6-6.7,6.1-11c0.4-11.9,0.1-11.9-12.4-11.9
		C561.8,352.5,554.3,346.9,554.5,356.7z M598.5,351c-11.3-0.4-11.3-0.1-11.3,12.4c1.2,3.4-2.8,10.1,5.7,10.3
		c12.2,0.3,17.3-4.8,17.1-16.9C609.8,347.7,602.8,351.1,598.5,351z M1622.8,284c2.4,3.1,4.5,3.3,7.9,2.5c18.4-4.5,31.4,1,40.2,17.5
		c2.3,4.4,5.6,4.5,9.5,4.9c21.8,1.7,36.6,21.1,31.2,40.9c-3.6,13.3-16.5,22.8-32.4,23c-17.1,0.3-34.1,0.1-51.2,0.1
		c-16.8,0-33.6,0.1-50.4,0c-9.6-0.1-18.5-2.9-26-8.8c-21.7-17.2-18.1-47.3,7.1-59.7c2.3-1.1,4.7-2.3,7.2-2.9c4.4-1.1,6.8-3.3,8.1-8
		c3.3-11.1,11.3-18,22.8-19.6C1607.1,272.3,1616.3,275.5,1622.8,284z M925.6,312.6c-16.3,0.1-30.6,13.9-30.3,30.2
		c0.3,16.6,13.1,31.3,30.7,29.9c17.1,1.5,30.1-14.3,30.4-29.5C956.7,326.9,942,312.5,925.6,312.6z M1600.1,284.1
		c-6.9,0.1-13.8,2.9-14.6,9.2c-1.6,12.9-9.8,16.1-20.3,19.5c-12,3.9-18.8,15.4-17.8,25.5c1,10.8,9.6,19.7,22.3,22.9
		c5,1.3,10.1,1.9,15.3,1.9c14.5-0.1,29,0,43.4,0c15.3,0,30.5,0,45.8,0c5.5,0,10.9-0.8,15.9-3.1c7-3.2,11.8-8.2,12.2-16.5
		c0.7-14.9-12.3-26.5-28-24.2c-6.4,0.9-9.5-0.7-11.3-7.1c-4.2-14.7-19.3-21.5-32.5-14.2c-7.2,4-10.8,3.7-13.9-4.4
		C1613.7,286.7,1607.6,283.9,1600.1,284.1z M925.3,326.2c3.6,0,4.9,2.6,5,5.7c0.1,4.5,2.2,6.4,6.6,6.7c3,0.2,5.4,1.7,5.7,4.9
		c-0.4,3.2-2.3,5.1-5.1,5.3c-5.1,0.3-7.2,2.8-7.5,7.7c-0.2,2.4-1.8,4.4-4.5,4.6c-3.2,0.3-4.8-2-5.2-4.7c-0.7-4.7-2.8-7.4-7.8-7.7
		c-2.7-0.2-4.9-2.1-4.9-5.1s2.2-4.8,5-5c4.5-0.4,7.1-2.1,7.4-7C920.2,328.8,921.9,326.2,925.3,326.2z M1275.3,348.9v0.5
		c0,5.8-0.1,11,8.5,10.7c12.1-0.4,24.3-0.1,36.4-0.1s24.3-0.3,36.4,0.1c8.8,0.3,8.5-5.1,8.5-11.1c0-5.7,0.4-10.8-8-10.7
		c-24.5,0.3-49.1,0.3-73.6,0C1275,338.2,1275.2,343.1,1275.3,348.9z M243.3,311.3H153c0.2,1,0.1,1.6,0.4,1.9
		c13.8,13.9,27.7,27.8,41.4,41.8c3.6,3.7,5.8,1.3,8.2-1.2c11.9-11.9,23.8-23.7,35.6-35.6C240.4,316.3,243.4,315,243.3,311.3z
		 M554.5,333.6c-0.4,9.8,6.4,7.4,11.6,7.4c11.3,0.2,11.3,0.1,11.4-12c-2.3-3,4.5-10.8-5.1-10.9C557.5,317.8,555,320.5,554.5,333.6z
		 M618.8,328c-1.6,7.8,2.7,13.1,11,13.1c2.1-0.4,5.7,1.3,6.8-1.4c1.4-3.4-1.9-5.6-4.2-7.4c-3-2.4-6.3-4.3-9.7-6.2
		C620.9,325.1,619.4,325.4,618.8,328z M587.3,328.2c-0.3,12.9-0.1,12.9,12.1,12.9c3.5-1.3,10.7,3.3,10.7-6c0-13.5-3.2-16.5-16.8-17
		C584.3,317.8,587.4,324.2,587.3,328.2z M1282.7,306c-8.8-0.1-7.2,6.1-7.4,11.4c-0.2,5.4-0.5,10.5,7.6,10.3
		c12.4-0.3,24.8-0.1,37.2-0.1c12.4,0,24.8-0.1,37.2,0.1c5.6,0.1,8.2-2,7.8-7.8c-0.2-2.3-0.1-4.7,0-7c0.2-5-2.3-6.9-7.1-6.9
		C1332.8,306.1,1307.8,306.1,1282.7,306z M609.4,295.5c1.7,14.2,10.7,20.4,23.8,24.1C627.3,308.8,620.1,300.9,609.4,295.5z
		 M555,295.4c-10.5,5.7-17.8,12.9-23.2,23.3C545.4,316.1,552.6,308.9,555,295.4z M703.7,220.3c1.6,1.9,1.2,3.8-0.1,5.7
		c-0.6,0.8-1.3,1.6-2,2.3c-17.5,17.5-35.1,35.1-52.7,52.6c-1.5,1.5-3,2.9-5.8,3c-3.3-0.4-5.3-2.4-4-6.2c0.6-1.8,2.2-3.5,3.6-4.9
		c16.8-16.9,33.6-33.7,50.5-50.5c1.3-1.3,2.7-2.5,4.3-3.3C699.7,217.9,702,218.3,703.7,220.3z M463.7,219c1.2,0.9,2.4,2,3.4,3.1
		c16.2,16.2,32.5,32.4,48.7,48.7c2,2,4.3,3.8,4.4,7.3c-0.7,3.5-2.9,5.1-6.6,3.7c-1.6-0.6-3-2-4.3-3.2
		c-16.4-16.4-32.9-32.8-49.2-49.2c-1.3-1.3-2.5-2.7-3.3-4.2c-1.2-2.3-0.8-4.5,1.2-6.3C459.9,217.3,461.9,217.7,463.7,219z
		 M583.3,113.3c6.8,0,5.4,7,5.4,11.7c0.2,19.1,0.1,38.3,0.1,57.4c0,18.9,0,37.8,0,56.6c0,2.6-0.1,5.2-0.5,7.7
		c-0.4,2.4-1.8,4.4-4.6,4.6c-3.2,0.2-4.8-1.8-5.3-4.6c-0.5-2.3-0.5-4.6-0.5-6.9c0-38.3-0.1-76.6,0-114.9
		C577.9,120.3,576.5,113.3,583.3,113.3z M904,100.6c8.9,0,10.9,2,10.9,11.1c0.1,25.4,0.1,50.7,0,76.1c0,9.1-1.9,11-10.9,11
		c-14.2,0.1-28.5,0-42.7,0.1c-1.9,0-5.1-0.7-5.3,1.8c-0.1,3.5,3.4,2.2,5.4,2.3c5.9,0.2,11.9,0.1,17.8,0.2c2.4,0.1,5.1,0.4,5.2,3.4
		c0.1,3.3-2.7,3.3-5,3.3c-20.4,0.1-40.9,0-61.3,0c-2.1,0-4.6-0.2-4.9-2.7c-0.3-3,2.1-3.9,4.6-4c6.2-0.2,12.4-0.1,18.6-0.2
		c1.9-0.1,5.2,0.8,5.2-1.8c0.1-3.3-3.5-2.3-5.5-2.3c-13.7-0.1-27.4,0-41.1-0.1c-10.2-0.1-12.2-2-12.2-12.4
		c-0.1-24.6-0.1-49.1,0-73.7c0-10.3,2-12,12.4-12.1c18.1,0,36.2,0,54.3,0C867.7,100.5,885.9,100.5,904,100.6z M400.8,143.3
		c12.7,2.6,21.1,10.7,24.7,23.1c1.1,3.8,3.1,6.2,6,8.5c6.9,5.4,9.2,13.4,6.6,21.5c-2.3,7.4-9.1,12.8-17.5,13.2
		c-8.8,0.4-17.6,0.1-26.4,0.1v0.1c-8,0-16,0.2-24,0c-12.8-0.4-22.5-8.3-25.2-20.1c-2.5-11.2,3.3-22.5,14.8-27.8
		c3.9-1.8,6.9-4.2,9.7-7.4C377.7,144.7,388.3,140.7,400.8,143.3z M1253.9,145.9c-16.6,0.1-29.8,13.6-29.8,30.3
		c0,16.5,13.6,30,30.1,30.1c17,0.1,30.4-13.4,30.3-30.4C1284.4,158.4,1271.5,145.7,1253.9,145.9z M373.8,163.1
		c-2,3.4-4.7,5.1-8.4,6.2c-8.6,2.7-12.8,9.2-11.7,17.5c1.2,8.1,7.1,13.2,16.2,13.4c8,0.2,16,0,24,0c8.5,0,17,0,25.5,0
		c5.2,0,9.2-2,10.4-7.4c1.2-5.4-0.4-9.9-5.7-12.2c-4-1.7-5.8-4.4-6.6-8.7c-2.1-11.6-8.9-18.8-20.3-20.3
		C387.3,150.3,379,154.2,373.8,163.1z M1254.9,153.5c11.9,0.1,22.2,10.6,22,22.5c-0.2,12.4-10.1,22.5-22.1,22.5
		c-12.6,0-23-10.2-22.9-22.6C1232,163.6,1242.4,153.4,1254.9,153.5z M408.4,168c1.1,0.4,1.6,1.2,1.4,2.9c-0.3,0.4-0.6,1.5-1.3,2.2
		c-6.1,6.3-12.3,12.5-18.6,18.6c-2.3,2.3-4.6,1.9-6.8-0.3c-0.9-0.9-2-1.7-2.7-2.7c-2.1-3-8.3-5.5-5.6-8.8c3.5-4.2,6.2,1.9,8.9,4
		c3.3,2.5,5.2,0.7,7.3-1.4c4.4-4.4,8.8-8.7,13.2-13.1C405.4,168.4,406.7,167.4,408.4,168z M1242.7,174.9
		c-0.5,6.9,3.9,12.3,10.5,12.8c7.5,0.6,12.7-3.7,13.1-10.9c0.3-6.9-3.6-11.6-10.1-12.2C1248.4,163.8,1243.2,167.7,1242.7,174.9z
		 M895.3,112c-15.2,0.4-30.5,0.1-45.7,0.1s-30.5,0.2-45.7-0.1c-6.2-0.1-8.9,1.7-8.8,8.3c0.3,19.6,0.2,39.3,0,58.9
		c-0.1,6,2.1,8.2,8.1,8.1c30.7-0.2,61.5-0.3,92.2,0c6.7,0.1,8.3-2.6,8.2-8.7c-0.3-19.4-0.3-38.8,0-58.1
		C903.8,114.3,901.9,111.9,895.3,112z M1168.2,24.4c6.9,0,11.5,3.2,12.6,10.1c4.1,26.8,11.2,53.2,10.6,80.6
		c-0.3,15.2-3.4,18.5-19,18.5c-13.5,0-26.9,0-40.4,0c-14.5,0-29,0.1-43.5,0c-11.3-0.1-15.1-4.2-15.7-15.5
		c-1.1-21.2,3.2-41.7,6.7-62.3c1.2-6.9,2.2-13.8,3.4-20.7c1.2-7.2,5.7-10.7,13-10.7C1120.1,24.4,1144.1,24.4,1168.2,24.4z
		 M1098,99.2h-1.3c-13.9,0-13.7,0.5-13.8,15.1c0,6.6,2.4,8.6,8.7,8.4c13.4-0.3,26.9-0.1,40.3-0.1c13.7,0,27.4-0.1,41.1,0.1
		c5.3,0.1,7.7-2.1,7.3-7.4c-0.1-1,0-2.1,0-3.1c0.1-12.9,0.1-13-12.5-13C1144.5,99.2,1121.3,99.2,1098,99.2z M1163.7,101.6
		c5.8,0,8.7,3.7,9.4,9.4c-0.8,5.4-3.4,9.2-9.3,9.5c-5,0.3-10.2-5.1-9.8-9.9C1154.5,104.8,1158.1,101.6,1163.7,101.6z M624.9,5v108.3
		h-93.8V5H624.9z M451.6,54.8c3.4,0.1,5.1,2.8,5,5.8c-0.1,5.7,2.6,7.7,8,7.8c3.1,0,5.3,1.9,5.7,5.3c-0.6,3.8-3.4,5.1-6.7,5.2
		c-4.9,0.1-6.9,2.3-6.9,7.1c0,3.3-1.4,6.4-5.3,6.4s-5-3.5-5.2-6.6c-0.3-4.8-2.6-6.7-7.3-7.1c-3.1-0.2-6.5-1.4-6.3-5.4
		c0.2-3.9,3.3-5.1,6.6-5.1c5.1,0,6.7-2.6,6.9-7.2C446.3,57.8,447.7,54.7,451.6,54.8z M1091.2,81.1c-2.9,0-5.3,0.8-5.2,4.2
		c0.1,3.7,3.2,2.7,5.3,2.8c13.4,0.1,26.9,0.1,40.3,0c13.7,0,27.4,0,41.1,0c2.2,0,5.2,0.3,5.4-3c0.2-3.6-2.7-4-5.4-4
		C1145.5,81.1,1118.3,81.1,1091.2,81.1z M1163.6,35.4c-20.9,0.2-41.8,0.2-62.8,0c-5.5,0-7.9,2.4-8.6,7.7c-1.1,7.9-2.2,15.9-3.9,23.7
		c-1.3,5.8,0.8,7.5,6.2,7.4c12.4-0.2,24.8-0.1,37.2-0.1c12.9,0,25.8-0.1,38.7,0c4.7,0,6.5-1.3,5.5-6.4c-1.7-8.1-2.7-16.3-3.9-24.4
		C1171.3,38.4,1169.4,35.4,1163.6,35.4z"/>
</g>
</svg>
