<?xml version="1.0" encoding="UTF-8"?>
<svg width="50px" height="50px" viewBox="0 0 50 50" version="1.1" xmlns="http://www.w3.org/2000/svg" xmlns:xlink="http://www.w3.org/1999/xlink">
    <!-- Generator: Sketch 64 (93537) - https://sketch.com -->
    <title>uiuxdesign</title>
    <desc>Created with Sketch.</desc>
    <g id="uiuxdesign" stroke="none" stroke-width="1" fill="none" fill-rule="evenodd">
        <path d="M4.74975795,45.2502421 C3.41674735,43.9172315 3.41674735,41.7559942 4.74975795,40.4229836 L14.316298,30.8564436 L16.1265681,32.6668683 L17.1755647,31.6176207 C19.2346541,29.5585313 22.5630866,29.5350764 24.6805506,31.5381822 L24.7908645,31.64548 L33.8152607,40.6698762 C35.2279621,42.0825776 37.4911552,42.1214557 38.9309789,40.7803868 L41.7969231,37.9177437 C42.2030677,37.5115991 42.2201052,36.8628224 41.8497165,36.4308647 L41.7912527,36.3677547 L38.3911004,39.7679069 C37.5120923,40.646915 36.0869387,40.646915 35.2079306,39.7679069 L20.256467,24.8178481 C19.4544422,25.2940954 18.4201904,25.2289385 17.6817089,24.6223774 L17.4817783,24.4377885 C16.7388585,23.6948687 16.6238395,22.5618214 17.1367212,21.6981023 L15.0765642,19.6377773 L14.6717427,20.041939 C13.844441,20.8692407 12.5333563,20.9179055 11.649139,20.1879334 L11.4535705,20.0069365 C10.5745624,19.1279285 10.5745624,17.7027748 11.4535705,16.8237667 L11.858227,16.41944 L10.2320931,14.7920694 C9.35308499,13.9130613 9.35308499,12.4879077 10.2320931,11.6088996 L17.4317366,4.40925605 C18.3107447,3.53024798 19.7358983,3.53024798 20.6149064,4.40925605 L22.2407055,6.03696162 L23.4452817,4.8320555 C24.2725834,4.00475378 25.5836681,3.95608897 26.4678854,4.68606108 L26.663454,4.86705795 C27.542462,5.74606602 27.542462,7.17121969 26.663454,8.05022776 L25.4590427,9.25529883 L33.9073034,17.7035596 L33.9131392,17.6959469 C34.7921473,16.8169388 36.217301,16.8169388 37.0963091,17.6959469 L37.1313115,17.7309493 C37.9586132,18.5582511 38.007278,19.8693357 37.2773059,20.7535531 L37.1246359,20.920892 L40.7458932,24.5421494 L41.9497722,23.336546 C42.777074,22.5092443 44.0881586,22.4605795 44.972376,23.1905516 L45.1679445,23.3715485 C46.0469526,24.2505566 46.0469526,25.6757102 45.1679445,26.5547183 L43.9632256,27.7594818 L45.5907439,29.3850936 C46.469752,30.2641017 46.469752,31.6892553 45.5907439,32.5682634 L42.9892696,35.1697377 C44.056514,36.2369821 44.0907405,37.9437359 43.0873662,39.0372625 L40.2325436,41.8957524 C38.1734541,43.9548419 34.8450216,43.9782968 32.7275577,41.9751909 L23.5928476,32.843497 C22.1801461,31.4307955 19.916953,31.3919174 18.4771293,32.7329863 L17.333319,33.8736191 L19.1435564,35.683702 L9.57701635,45.2502421 C8.24400575,46.5832526 6.08276855,46.5832526 4.74975795,45.2502421 Z" id="Path" fill="#FFFFFF"></path>
    </g>
</svg>