<?xml version="1.0" encoding="UTF-8"?>
<svg width="50px" height="50px" viewBox="0 0 50 50" version="1.1" xmlns="http://www.w3.org/2000/svg" xmlns:xlink="http://www.w3.org/1999/xlink">
    <!-- Generator: sketchtool 63.1 (101010) - https://sketch.com -->
    <title>353A0CA7-0903-4F13-9F77-5AE89F8ECAC2</title>
    <desc>Created with sketchtool.</desc>
    <defs>
        <path d="M47.9166667,31.6666667 C49.0672599,31.6666667 50,32.5994068 50,33.75 C50,34.9005932 49.0672599,35.8333333 47.9166667,35.8333333 L2.08333333,35.8333333 C0.932740105,35.8333333 1.40907031e-16,34.9005932 0,33.75 C-1.40907031e-16,32.5994068 0.932740105,31.6666667 2.08333333,31.6666667 L47.9166667,31.6666667 Z M41.6666667,0 C43.5076158,-4.05244873e-15 45,1.49238417 45,3.33333333 L45,26.6666667 C45,27.126904 44.626904,27.5 44.1666667,27.5 L5.83333333,27.5 C5.37309604,27.5 5,27.126904 5,26.6666667 L5,3.33333333 C5,1.49238417 6.49238417,1.2263553e-15 8.33333333,0 L41.6666667,0 Z M20.4187826,5.80064131 C19.9746538,6.05705922 19.8016298,6.60271546 20.000273,7.06230592 L20.0527572,7.16666664 L28.5439676,21.8738745 L28.6035299,21.9653036 C28.9010629,22.3720615 29.4635865,22.4976328 29.909993,22.2398999 C30.3541218,21.983482 30.5271458,21.4378258 30.3285025,20.9782353 L30.2760183,20.8738746 L21.7848079,6.1666667 L21.7252457,6.07523762 C21.4277126,5.66847972 20.865189,5.54290845 20.4187826,5.80064131 Z M17.6373574,7.82825274 L17.5355079,7.90119001 L17.4595595,7.9698369 L12.2741102,13.1552863 L12.1897318,13.2510269 C11.9323061,13.5834292 11.9132375,14.0407876 12.1325261,14.3917019 L12.2054633,14.4935515 L12.2741102,14.5694998 L17.4595596,19.7549492 L17.5537669,19.8381378 C17.9460581,20.1431626 18.5132891,20.1154331 18.8737731,19.7549492 C19.2093799,19.4193424 19.2565746,18.9045393 19.0153572,18.5185335 L18.9424199,18.416684 L18.8737731,18.3407357 L14.3955056,13.8612904 L18.8737731,9.38405046 L18.9581515,9.28830984 C19.2155772,8.95590749 19.2346457,8.49854903 19.0153572,8.1476347 L18.9424199,8.04578512 L18.8737731,7.9698369 L18.7780325,7.88545848 C18.4456302,7.62803278 17.9882718,7.60896421 17.6373574,7.82825274 Z M31.5507431,7.88545848 L31.4550024,7.9698369 L31.3863556,8.04578512 C31.0926997,8.40582778 31.0874558,8.92266726 31.370624,9.28830984 L31.4550024,9.38405046 L35.9335461,13.8615665 L31.4550025,18.3407357 L31.3863556,18.416684 C31.0660037,18.8094578 31.088886,19.3888327 31.4550025,19.7549492 C31.8154864,20.1154331 32.3827174,20.1431626 32.7750086,19.8381378 L32.869216,19.7549492 L38.0546653,14.5694998 L38.1233122,14.4935515 C38.4169682,14.1335088 38.422212,13.6166694 38.1390438,13.2510269 L38.0546654,13.1552863 L32.869216,7.9698369 L32.7932677,7.90119001 C32.433225,7.60753407 31.9163856,7.60229021 31.5507431,7.88545848 Z" id="path-1"></path>
    </defs>
    <g id="Home" stroke="none" stroke-width="1" fill="none" fill-rule="evenodd">
        <g id="WveLabs_Home" transform="translate(-1027.000000, -2511.000000)">
            <g id="Group-28" transform="translate(211.000000, 1994.000000)">
                <g id="Group-18-Copy-3" transform="translate(816.000000, 517.000000)">
                    <g id="hybrid-copy">
                        <g id="grey_grad" transform="translate(0.000000, 7.000000)">
                            <mask id="mask-2" fill="white">
                                <use xlink:href="#path-1"></use>
                            </mask>
                            <use id="Mask" fill="#FFFFFF" xlink:href="#path-1"></use>
                        </g>
                    </g>
                </g>
            </g>
        </g>
    </g>
</svg>