<?xml version="1.0" encoding="UTF-8"?>
<svg width="80px" height="80px" viewBox="0 0 80 80" version="1.1" xmlns="http://www.w3.org/2000/svg" xmlns:xlink="http://www.w3.org/1999/xlink">
    <!-- Generator: Sketch 64 (93537) - https://sketch.com -->
    <title>dts</title>
    <desc>Created with Sketch.</desc>
    <defs>
        <linearGradient x1="0%" y1="50.0007883%" x2="99.9987174%" y2="50.0007883%" id="linearGradient-1">
            <stop stop-color="#E29A64" offset="0%"></stop>
            <stop stop-color="#E85E8C" offset="100%"></stop>
        </linearGradient>
    </defs>
    <g id="dts" stroke="none" stroke-width="1" fill="none" fill-rule="evenodd">
        <path d="M15.628125,21.353125 C15.628125,16.459375 19.93125,12.578125 24.909375,13.253125 C28.790625,13.675 31.828125,16.796875 32.165625,20.678125 C32.41875,23.209375 31.490625,25.65625 29.634375,27.428125 C28.790625,28.1875 28.36875,29.284375 28.36875,30.55 L28.36875,30.55 L28.36875,32.490625 C28.36875,32.996875 28.03125,33.334375 27.525,33.334375 L27.525,33.334375 L27.103125,33.334375 L27.103125,35.78125 C27.103125,36.2875 26.765625,36.625 26.259375,36.625 L26.259375,36.625 L24.825,36.625 L24.825,38.65 L31.74375,38.65 C33.346875,38.65 34.6125,39.915625 34.6125,41.51875 C34.6125,42.953125 33.515625,44.134375 32.165625,44.3875 L32.165625,44.3875 L32.25,48.859375 L35.2875,54.934375 C35.540625,55.525 35.11875,56.2 34.528125,56.2 L34.528125,56.2 L31.996875,56.2 L31.996875,59.40625 C31.996875,60.671875 30.984375,61.76875 29.634375,61.76875 L29.634375,61.76875 L28.03125,61.76875 L28.03125,66.071875 C28.03125,66.578125 27.69375,66.915625 27.1875,66.915625 L27.1875,66.915625 L13.265625,66.915625 C12.759375,66.915625 12.421875,66.578125 12.421875,66.071875 L12.421875,66.071875 L12.421875,44.89375 C12.421875,41.434375 15.20625,38.65 18.665625,38.65 L18.665625,38.65 L23.053125,38.65 L23.053125,36.625 L21.61875,36.625 C21.1125,36.625 20.775,36.2875 20.775,35.78125 L20.775,35.78125 L20.775,33.334375 L20.353125,33.334375 C19.846875,33.334375 19.509375,32.996875 19.509375,32.490625 L19.509375,32.490625 L19.509375,30.55 C19.509375,29.36875 19.003125,28.1875 18.075,27.259375 C16.471875,25.65625 15.628125,23.546875 15.628125,21.353125 Z M56.71875,13.253125 C60.6,13.675 63.6375,16.796875 63.975,20.678125 C64.228125,23.209375 63.3,25.65625 61.44375,27.428125 C60.65625,28.136875 60.23625,29.139625 60.18375,30.299175 L60.178125,30.55 L60.178125,32.490625 C60.178125,32.9579327 59.890551,33.2814534 59.4481296,33.3284607 L59.334375,33.334375 L58.9125,33.334375 L58.9125,35.78125 C58.9125,36.2485577 58.624926,36.5720784 58.1825046,36.6190857 L58.06875,36.625 L56.634375,36.625 L56.634375,38.65 L61.021875,38.65 C64.404375,38.65 67.1415417,41.312 67.2615231,44.6641481 L67.265625,44.89375 L67.265625,66.071875 C67.265625,66.5391827 66.978051,66.8627034 66.5356296,66.9097107 L66.421875,66.915625 L52.5,66.915625 C52.0326923,66.915625 51.7091716,66.628051 51.6621643,66.1856296 L51.65625,66.071875 L51.65625,61.76875 L49.96875,61.76875 C48.7558594,61.76875 47.6979492,60.8388672 47.6118958,59.5731934 L47.60625,59.40625 L47.60625,56.2 L45.075,56.2 C44.4397059,56.2 44.1033737,55.6020761 44.2770354,55.0393242 L44.315625,54.934375 L47.4375,48.859375 L47.60625,44.471875 C46.25625,44.21875 45.159375,43.0375 45.159375,41.603125 C45.159375,40.0572545 46.3362125,38.8252073 47.8576953,38.7391757 L48.028125,38.734375 L54.946875,38.734375 L54.946875,36.709375 L53.5125,36.709375 C53.0451923,36.709375 52.7216716,36.421801 52.6746643,35.9793796 L52.66875,35.865625 L52.66875,33.41875 L52.246875,33.41875 C51.7795673,33.41875 51.4560466,33.131176 51.4090393,32.6887546 L51.403125,32.575 L51.403125,30.634375 C51.403125,29.453125 50.896875,28.271875 49.96875,27.34375 C48.365625,25.740625 47.521875,23.63125 47.521875,21.4375 C47.521875,16.54375 51.740625,12.6625 56.71875,13.253125 Z M31.659375,40.3375 L18.665625,40.3375 C16.134375,40.3375 14.109375,42.3625 14.109375,44.89375 L14.109375,44.89375 L14.109375,65.228125 L26.34375,65.228125 L26.34375,60.925 C26.34375,60.41875 26.68125,60.08125 27.1875,60.08125 L27.1875,60.08125 L29.634375,60.08125 C29.971875,60.08125 30.309375,59.828125 30.309375,59.40625 L30.309375,59.40625 L30.309375,55.35625 C30.309375,54.85 30.646875,54.5125 31.153125,54.5125 L31.153125,54.5125 L31.153125,54.428125 L33.09375,54.428125 L30.5625,49.365625 C30.478125,49.28125 30.478125,49.196875 30.478125,49.028125 L30.478125,49.028125 L30.39375,44.3875 L24.909375,44.3875 C24.571875,44.3875 24.403125,44.640625 24.403125,44.89375 L24.403125,44.89375 L24.403125,46.496875 C24.403125,47.003125 24.065625,47.340625 23.559375,47.340625 C23.053125,47.340625 22.715625,47.003125 22.715625,46.496875 L22.715625,46.496875 L22.715625,44.89375 C22.715625,43.628125 23.728125,42.7 24.909375,42.7 L24.909375,42.7 L31.659375,42.7 C32.334375,42.7 32.840625,42.19375 32.840625,41.51875 C32.840625,40.84375 32.334375,40.3375 31.659375,40.3375 L31.659375,40.3375 Z M60.9375,40.421875 L47.94375,40.421875 C47.26875,40.421875 46.7625,40.928125 46.7625,41.603125 C46.7625,42.2359375 47.2074463,42.7204346 47.8192474,42.7785248 L47.94375,42.784375 L54.69375,42.784375 C55.9043478,42.784375 56.8061555,43.7107455 56.8822851,44.8250753 L56.8875,44.978125 L56.8875,46.58125 C56.8875,47.0875 56.55,47.425 56.04375,47.425 C55.5764423,47.425 55.2529216,47.137426 55.2059143,46.6950046 L55.2,46.58125 L55.2,44.978125 C55.2,44.678125 55,44.5114583 54.7777778,44.478125 L54.69375,44.471875 L49.209375,44.471875 L49.125,49.1125 C49.125,49.18 49.125,49.3015 49.0818,49.3906 L49.040625,49.45 L46.509375,54.5125 L48.534375,54.5125 C49.0016827,54.5125 49.3252034,54.800074 49.3722107,55.2424954 L49.378125,55.35625 L49.378125,59.40625 C49.378125,59.7130682 49.5873192,60.0198864 49.9423155,60.0731358 L50.053125,60.08125 L52.5,60.08125 C52.9673077,60.08125 53.2908284,60.368824 53.3378357,60.8112454 L53.34375,60.925 L53.34375,65.228125 L65.49375,65.228125 L65.49375,44.978125 C65.49375,42.446875 63.46875,40.421875 60.9375,40.421875 Z M29.04375,47.509375 L29.04375,49.45 L27.103125,49.45 L27.103125,47.509375 L29.04375,47.509375 Z M52.584375,47.509375 L52.584375,49.45 L50.64375,49.45 L50.64375,47.509375 L52.584375,47.509375 Z M49.63125,36.203125 C50.053125,36.034375 50.559375,36.371875 50.64375,36.79375 C50.8125,37.215625 50.475,37.721875 50.053125,37.80625 C49.63125,37.975 49.125,37.6375 49.040625,37.215625 C48.95625,36.709375 49.209375,36.2875 49.63125,36.203125 Z M29.04375,36.79375 C29.128125,36.371875 29.55,36.034375 30.05625,36.203125 C30.478125,36.2875 30.73125,36.79375 30.646875,37.215625 C30.5625,37.6375 30.05625,37.890625 29.634375,37.80625 C29.2125,37.721875 28.959375,37.215625 29.04375,36.79375 Z M48.61875,33.925 C48.95625,33.671875 49.4625,33.840625 49.8,34.2625 C50.053125,34.684375 49.884375,35.190625 49.4625,35.44375 C48.95625,35.696875 48.45,35.528125 48.28125,35.10625 C48.028125,34.684375 48.196875,34.178125 48.61875,33.925 Z M29.8875,34.2625 C30.140625,33.840625 30.646875,33.671875 31.06875,33.925 C31.9125,34.346875 31.575,35.528125 30.646875,35.528125 C30.05625,35.528125 29.55,34.853125 29.8875,34.2625 Z M25.33125,33.334375 L22.4625,33.334375 L22.4625,34.9375 L25.33125,34.9375 L25.33125,33.334375 Z M57.225,33.334375 L54.35625,33.334375 L54.35625,34.9375 L57.225,34.9375 L57.225,33.334375 Z M31.490625,32.06875 C31.828125,31.73125 32.334375,31.646875 32.75625,31.984375 C33.2625,32.490625 32.925,33.503125 32.165625,33.503125 C31.40625,33.503125 30.984375,32.659375 31.490625,32.06875 Z M47.015625,31.984375 C47.353125,31.73125 47.859375,31.73125 48.196875,32.06875 C48.45,32.40625 48.45,32.9125 48.1125,33.25 C47.775,33.5875 47.26875,33.503125 46.93125,33.165625 C46.59375,32.828125 46.678125,32.321875 47.015625,31.984375 Z M46.171875,30.296875 C46.59375,30.55 46.678125,31.05625 46.425,31.478125 C46.0875,31.9 45.58125,31.9 45.24375,31.73125 C44.821875,31.478125 44.7375,30.971875 44.990625,30.55 C45.24375,30.128125 45.834375,30.04375 46.171875,30.296875 Z M34.696875,30.465625 C35.11875,31.05625 34.696875,31.815625 34.021875,31.815625 C33.178125,31.815625 32.840625,30.71875 33.515625,30.2125 C33.9375,29.959375 34.44375,30.128125 34.696875,30.465625 Z M24.65625,14.85625 C20.60625,14.35 17.315625,17.55625 17.315625,21.353125 C17.315625,23.125 18.075,24.8125 19.340625,25.99375 C20.521875,27.259375 21.196875,28.8625 21.196875,30.55 L21.196875,30.55 L21.196875,31.646875 L26.596875,31.646875 L26.596875,30.55 C26.596875,28.8625 27.1875,27.259375 28.36875,26.1625 C29.803125,24.728125 30.5625,22.7875 30.39375,20.7625 C30.140625,17.725 27.69375,15.19375 24.65625,14.85625 Z M49.209375,21.353125 C49.209375,23.125 49.884375,24.728125 51.15,25.99375 C52.3411765,27.1849265 53.0091696,28.6750649 53.0836353,30.2531333 L53.090625,30.55 L53.090625,31.646875 L58.490625,31.646875 L58.490625,30.55 C58.490625,28.8625 59.08125,27.259375 60.2625,26.1625 C61.696875,24.728125 62.45625,22.7875 62.2875,20.7625 C62.034375,17.725 59.5875,15.19375 56.55,14.85625 C52.5,14.35 49.209375,17.55625 49.209375,21.353125 Z M42.7125,29.5375 C42.88125,29.115625 43.3875,28.8625 43.809375,29.03125 C44.23125,29.2 44.484375,29.70625 44.23125,30.2125 C44.146875,30.465625 43.809375,30.71875 43.471875,30.71875 C42.965625,30.71875 42.459375,30.128125 42.7125,29.5375 Z M35.878125,29.03125 C36.3,28.8625 36.80625,29.115625 36.890625,29.453125 C37.14375,30.04375 36.721875,30.634375 36.13125,30.634375 C35.79375,30.634375 35.540625,30.465625 35.371875,30.128125 C35.203125,29.70625 35.45625,29.2 35.878125,29.03125 Z M41.0965478,28.3441525 L41.19375,28.35625 C41.615625,28.440625 41.953125,28.8625 41.953125,29.284375 C41.86875,29.70625 41.53125,30.04375 41.109375,30.04375 C40.51875,30.04375 40.18125,29.5375 40.265625,29.115625 C40.35,28.609375 40.771875,28.271875 41.19375,28.35625 Z M38.49375,28.35625 C39,28.35625 39.3375,28.69375 39.421875,29.115625 C39.421875,29.5375 39.084375,29.959375 38.6625,30.04375 C38.071875,30.04375 37.81875,29.70625 37.734375,29.284375 C37.734375,28.8625 37.9875,28.440625 38.49375,28.35625 Z" id="Combined-Shape" fill="url(#linearGradient-1)" fill-rule="nonzero"></path>
    </g>
</svg>