<?xml version="1.0" encoding="UTF-8"?>
<svg width="80px" height="80px" viewBox="0 0 80 80" version="1.1" xmlns="http://www.w3.org/2000/svg" xmlns:xlink="http://www.w3.org/1999/xlink">
    <!-- Generator: Sketch 64 (93537) - https://sketch.com -->
    <title>its</title>
    <desc>Created with Sketch.</desc>
    <defs>
        <linearGradient x1="0%" y1="50.0007883%" x2="99.9987174%" y2="50.0007883%" id="linearGradient-1">
            <stop stop-color="#E29A64" offset="0%"></stop>
            <stop stop-color="#E85E8C" offset="100%"></stop>
        </linearGradient>
    </defs>
    <g id="its" stroke="none" stroke-width="1" fill="none" fill-rule="evenodd">
        <path d="M37.2543829,22.3861909 C50.7971514,21.308999 58.4628238,37.2375102 49.8834012,47.1991081 C47.9482564,49.4821328 46.6020687,52.3570528 45.9289748,55.4856423 L45.9289748,55.4856423 L48.1165298,55.4856423 C48.6213502,55.4856423 48.9578972,55.8238682 48.9578972,56.331207 C48.9578972,56.8385458 48.6213502,57.1767717 48.1165298,57.1767717 L48.1165298,57.1767717 L45.5924279,57.1767717 C45.5082911,57.768667 45.4241544,58.4451188 45.4241544,59.1215705 L45.4241544,59.1215705 L48.1165298,59.1215705 C48.6213502,59.1215705 48.9578972,59.4597964 48.9578972,59.9671352 C48.9578972,60.4744741 48.6213502,60.8127 48.1165298,60.8127 L48.1165298,60.8127 L45.4241544,60.8127 L45.4241544,63.6030635 C45.4241544,64.1104023 45.0876075,64.4486282 44.5827871,64.4486282 L44.5827871,64.4486282 L43.1524626,64.4486282 C42.5635055,66.4779835 40.7124974,68 38.5249423,68 C36.2532506,68 34.4022424,66.56254 33.8974221,64.4486282 L33.8974221,64.4486282 L32.4670976,64.4486282 C31.9622772,64.4486282 31.6257303,64.1104023 31.6257303,63.6030635 L31.6257303,63.6030635 L31.6257303,60.8127 L28.9333548,60.8127 C28.4285344,60.8127 28.0919875,60.4744741 28.0919875,59.9671352 C28.0919875,59.4597964 28.4285344,59.1215705 28.9333548,59.1215705 L28.9333548,59.1215705 L31.5415935,59.1215705 C31.4574568,58.5296752 31.3733201,57.8532235 31.2891833,57.1767717 L31.2891833,57.1767717 L28.8492181,57.1767717 C28.3443977,57.1767717 28.0078508,56.8385458 28.0078508,56.331207 C28.0078508,55.8238682 28.3443977,55.4856423 28.8492181,55.4856423 L28.8492181,55.4856423 L30.9526364,55.4856423 C30.1954058,52.3570528 28.7650814,49.2284634 26.8299365,46.9454387 C19.2576306,37.6442269 25.0630651,23.6924091 36.8422077,22.4240621 L36.8422077,22.4240621 Z M41.3014545,64.6177412 L35.5801567,64.6177412 C36.0849771,65.7169753 37.1787546,66.4779835 38.4408056,66.4779835 C39.7028566,66.4779835 40.8807709,65.7169753 41.3014545,64.6177412 L41.3014545,64.6177412 Z M43.5731463,60.9818129 L33.1401915,60.9818129 L33.1401915,62.9266117 L43.5731463,62.9266117 L43.5731463,60.9818129 Z M43.9096932,57.2613282 L32.971918,57.2613282 C33.0560547,57.9377799 33.1401915,58.5296752 33.1401915,59.206127 L33.1401915,59.206127 L43.7414198,59.206127 C43.7414198,58.6142317 43.8255565,57.9377799 43.9096932,57.2613282 L43.9096932,57.2613282 Z M48.5372135,46.1844305 C56.3619296,37.136888 49.1261706,22.8468444 36.9263444,24.1151915 C26.5775263,25.2144256 21.3610489,37.6442269 28.0919875,45.930761 C30.2795426,48.5520116 31.8781405,52.018827 32.6353711,55.5701987 L32.6353711,55.5701987 L44.1621034,55.5701987 C44.8351973,52.018827 46.3496585,48.8056811 48.5372135,46.1844305 Z M18.0797163,27.6665633 C18.2479898,27.2437809 18.7528102,27.074668 19.1734939,27.2437809 C19.5941775,27.4128939 19.762451,27.9202327 19.5941775,28.3430151 C16.1445715,35.868541 17.4066225,44.662414 22.7072366,50.8350364 L22.7072366,50.8350364 L23.2961938,47.2836646 C23.3803305,46.8608822 23.8851509,46.5226563 24.3058345,46.6072128 C24.8106549,46.6917693 25.0630651,47.1145516 25.0630651,47.6218905 L25.0630651,47.6218905 L24.1375611,52.8643917 C24.0534243,53.287174 23.6327407,53.6253999 23.1279203,53.5408434 L23.1279203,53.5408434 L17.9114429,52.6107223 C17.4907592,52.5261658 17.1542123,52.018827 17.238349,51.5960446 C17.3224857,51.1732622 17.8273061,50.8350364 18.2479898,50.9195928 L18.2479898,50.9195928 L21.024502,51.4269317 C15.6397511,44.7469704 14.4618368,35.5303151 18.0797163,27.6665633 Z M57.203297,26.1445468 C57.4557072,26.1445468 57.7081174,26.1445468 57.8763908,26.2291033 L57.8763908,26.2291033 L62.5880478,28.5966845 C63.0087315,28.7657974 63.177005,29.2731362 62.7563213,29.7804751 C62.5880478,30.1187009 62.0832274,30.2878139 61.6625438,30.1187009 L61.6625438,30.1187009 L59.0543051,28.8503539 C62.4197744,37.136888 60.652903,46.6072128 54.2585113,53.1180611 C53.9219644,53.456287 53.417144,53.456287 53.0805971,53.1180611 C52.7440501,52.7798352 52.7440501,52.2724964 53.0805971,51.9342705 C59.1384418,45.7616481 60.8211765,36.6295492 57.3715704,28.8503539 L57.3715704,28.8503539 L55.7729725,32.0634998 C55.604699,32.4862821 55.0998786,32.5708386 54.679195,32.4017257 C54.3426481,32.2326127 54.1743746,31.7252739 54.3426481,31.3024915 L54.3426481,31.3024915 L56.6984766,26.5673292 C56.7826133,26.3982162 56.9508868,26.2291033 57.203297,26.1445468 Z M39.9552668,27.074668 C40.3759505,27.074668 40.7966341,27.4974503 40.7966341,27.9202327 L40.7966341,27.9202327 L40.8807709,29.1885798 C41.5538647,29.3576927 42.1428218,29.6113621 42.731779,29.949588 L42.731779,29.949588 L43.657283,29.1040233 C43.99383,28.7657974 44.4986504,28.7657974 44.8351973,29.1040233 L44.8351973,29.1040233 L46.9386156,31.2179351 C47.1910258,31.556161 47.2751625,32.0634998 46.9386156,32.4017257 L46.9386156,32.4017257 L46.0972483,33.3318468 C46.4337952,33.9237421 46.6862054,34.5156374 46.8544789,35.1920892 L46.8544789,35.1920892 L48.1165298,35.2766457 C48.5372135,35.3612022 48.9578972,35.699428 49.0420339,36.2067669 L49.0420339,36.2067669 L49.0420339,39.1662434 C49.0420339,39.5890257 48.6213502,40.0118081 48.2006666,40.0118081 L48.2006666,40.0118081 L46.9386156,40.0963645 C46.7703421,40.7728163 46.5179319,41.3647116 46.181385,41.9566069 L46.181385,41.9566069 L47.0227523,42.8867281 C47.3592993,43.224954 47.3592993,43.7322928 47.0227523,44.0705187 L47.0227523,44.0705187 L44.919334,46.1844305 C44.5827871,46.4380999 44.0779667,46.5226563 43.7414198,46.1844305 L43.7414198,46.1844305 L42.8159157,45.3388657 C42.2269586,45.6770916 41.6380014,45.930761 40.9649076,46.099874 L40.9649076,46.099874 L40.8807709,47.368221 C40.8807709,47.8755599 40.4600872,48.2137858 40.0394035,48.2137858 L40.0394035,48.2137858 L37.0104812,48.2137858 C36.5897975,48.2137858 36.1691138,47.7910034 36.1691138,47.368221 L36.1691138,47.368221 L36.0849771,46.099874 C35.4118832,45.930761 34.8229261,45.6770916 34.233969,45.3388657 L34.233969,45.3388657 L33.3084649,46.1844305 C32.971918,46.5226563 32.4670976,46.5226563 32.1305507,46.1844305 L32.1305507,46.1844305 L30.0271324,44.0705187 C29.7747222,43.7322928 29.6905854,43.224954 30.0271324,42.8867281 L30.0271324,42.8867281 L30.8684997,41.9566069 C30.5319528,41.3647116 30.2795426,40.7728163 30.1112691,40.0963645 L30.1112691,40.0963645 L28.8492181,40.0118081 C28.3443977,40.0118081 28.0078508,39.5890257 28.0078508,39.1662434 L28.0078508,39.1662434 L28.0078508,36.2067669 C28.0078508,35.7839845 28.4285344,35.3612022 28.8492181,35.3612022 L28.8492181,35.3612022 L30.1112691,35.2766457 C30.2795426,34.6001939 30.5319528,34.0082986 30.8684997,33.4164033 L30.8684997,33.4164033 L30.0271324,32.4862821 C29.6905854,32.1480563 29.6905854,31.6407174 30.0271324,31.3024915 L30.0271324,31.3024915 L32.1305507,29.1885798 C32.4670976,28.9349103 32.971918,28.8503539 33.3084649,29.1885798 L33.3084649,29.1885798 L34.233969,30.0341445 C34.8229261,29.6959186 35.4118832,29.4422492 36.0849771,29.2731362 L36.0849771,29.2731362 L36.0849771,27.9202327 C36.0849771,27.4128939 36.5056608,27.074668 36.9263444,27.074668 L36.9263444,27.074668 Z M39.1138995,28.8503539 L37.7677117,28.8503539 L37.683575,29.949588 C37.683575,30.2878139 37.3470281,30.6260398 37.0104812,30.7105962 C36.1691138,30.8797092 35.3277465,31.2179351 34.5705159,31.7252739 C34.233969,31.9789433 33.8132853,31.8943868 33.5608751,31.6407174 L33.5608751,31.6407174 L32.7195078,30.8797092 L31.709867,31.8943868 L32.4670976,32.7399515 C32.7195078,32.993621 32.8036445,33.4164033 32.5512343,33.7546292 C32.0464139,34.5156374 31.709867,35.3612022 31.5415935,36.2067669 C31.4574568,36.6295492 31.2050466,36.8832186 30.7843629,36.8832186 L30.7843629,36.8832186 L29.6905854,36.9677751 L29.6905854,38.3206786 L30.7843629,38.4052351 C31.1209099,38.4052351 31.4574568,38.743461 31.5415935,39.0816869 C31.709867,39.9272516 32.0464139,40.7728163 32.5512343,41.5338245 C32.8036445,41.8720504 32.7195078,42.2948328 32.4670976,42.5485022 L32.4670976,42.5485022 L31.709867,43.3940669 L32.7195078,44.4087446 L33.5608751,43.6477363 C33.8132853,43.3940669 34.233969,43.3095104 34.5705159,43.5631798 C35.3277465,44.0705187 36.1691138,44.4087446 37.0104812,44.5778575 C37.4311648,44.662414 37.683575,44.9160834 37.683575,45.3388657 L37.683575,45.3388657 L37.8518485,46.4380999 L39.1980362,46.4380999 L39.2821729,45.3388657 C39.2821729,45.0006399 39.5345831,44.662414 39.9552668,44.5778575 C40.7966341,44.4087446 41.6380014,44.0705187 42.395232,43.5631798 C42.731779,43.3940669 43.1524626,43.3940669 43.4048728,43.6477363 L43.4048728,43.6477363 L44.2462402,44.4087446 L45.2558809,43.3940669 L44.4986504,42.5485022 C44.2462402,42.2948328 44.1621034,41.8720504 44.4145136,41.5338245 C44.919334,40.7728163 45.2558809,39.9272516 45.4241544,39.0816869 C45.5082911,38.6589045 45.7607013,38.4052351 46.181385,38.4052351 L46.181385,38.4052351 L47.2751625,38.3206786 L47.1910258,38.3206786 L47.1910258,36.9677751 L46.0972483,36.8832186 C45.7607013,36.8832186 45.4241544,36.5449927 45.3400177,36.2067669 C45.1717442,35.3612022 44.8351973,34.5156374 44.3303769,33.7546292 C44.0779667,33.4164033 44.1621034,32.993621 44.4145136,32.7399515 L44.4145136,32.7399515 L45.1717442,31.8943868 L44.1621034,30.8797092 L43.3207361,31.6407174 C43.0683259,31.8943868 42.6476422,31.9789433 42.3110953,31.7252739 C41.5538647,31.2179351 40.7124974,30.8797092 39.8711301,30.7105962 C39.4504464,30.6260398 39.1980362,30.3723704 39.1980362,29.949588 L39.1980362,29.949588 L39.1138995,28.8503539 Z M38.4408056,32.9090645 C41.0490443,32.9090645 43.2365994,35.0229763 43.2365994,37.7287833 C43.2365994,40.4345904 41.0490443,42.5485022 38.4408056,42.5485022 C35.7484302,42.5485022 33.6450119,40.3500339 33.6450119,37.7287833 C33.6450119,35.0229763 35.8325669,32.9090645 38.4408056,32.9090645 Z M38.4408056,34.5156374 C36.6739342,34.5156374 35.3277465,35.9530975 35.3277465,37.6442269 C35.3277465,39.4199128 36.758071,40.7728163 38.4408056,40.7728163 C40.1235403,40.7728163 41.5538647,39.3353563 41.5538647,37.6442269 C41.5538647,35.868541 40.1235403,34.5156374 38.4408056,34.5156374 Z M26.1568427,14.5603103 C26.3251161,14.1375279 26.8299365,13.8838585 27.2506202,14.0529714 C27.6713038,14.2220844 27.923714,14.7294232 27.7554406,15.1522056 L27.7554406,15.1522056 L26.9140733,17.8580126 C34.1498322,13.4610761 43.4890096,13.5456326 50.7247686,18.280795 C51.1454522,18.5344644 51.229589,19.0418032 50.9771788,19.4645856 C50.7247686,19.8873679 50.2199482,19.9719244 49.7992645,19.718255 C42.9000524,15.236762 34.0656955,15.236762 27.2506202,19.5491421 L27.2506202,19.5491421 L30.6160895,20.6483762 C31.1209099,20.8174891 31.3733201,21.3248279 31.2050466,21.7476103 C31.0367731,22.2549491 30.5319528,22.5086185 30.1112691,22.3395056 L30.1112691,22.3395056 L25.0630651,20.7329327 C24.8947917,20.6483762 24.7265182,20.5638197 24.6423815,20.3101503 C24.474108,20.0564809 24.474108,19.8873679 24.5582447,19.6336985 L24.5582447,19.6336985 Z" id="Combined-Shape" fill="url(#linearGradient-1)" fill-rule="nonzero"></path>
    </g>
</svg>