<?xml version="1.0" encoding="UTF-8"?>
<svg width="80px" height="80px" viewBox="0 0 80 80" version="1.1" xmlns="http://www.w3.org/2000/svg" xmlns:xlink="http://www.w3.org/1999/xlink">
    <!-- Generator: Sketch 64 (93537) - https://sketch.com -->
    <title>ktc</title>
    <desc>Created with Sketch.</desc>
    <defs>
        <linearGradient x1="0%" y1="50.0007883%" x2="99.9987174%" y2="50.0007883%" id="linearGradient-1">
            <stop stop-color="#E29A64" offset="0%"></stop>
            <stop stop-color="#E85E8C" offset="100%"></stop>
        </linearGradient>
    </defs>
    <g id="ktc" stroke="none" stroke-width="1" fill="none" fill-rule="evenodd">
        <path d="M59.7916667,52.4600603 L59.228125,52.4600603 C60.2229167,51.3449838 60.8333333,49.8763977 60.8333333,48.2641 C60.8333333,45.1517465 58.5760417,42.5670349 55.625,42.0645687 L55.625,37.0252204 L61.6708333,27.2842986 L55.625,27.2842986 L55.625,23.0883384 L43.4239583,23.0883384 L33.75,17 L33.75,23.0883384 L24.375,23.0883384 L24.375,28.0322285 L18.3291667,37.7741993 L24.375,37.7741993 L24.375,42.0645687 C21.4239583,42.5670349 19.1666667,45.1517465 19.1666667,48.2641 C19.1666667,49.8763977 19.7770833,51.3449838 20.7708333,52.4600603 L20.2083333,52.4600603 C17.3364583,52.4600603 15,54.812945 15,57.7050106 L15,63.998951 L35.8333333,63.998951 L35.8333333,57.7050106 C35.8333333,54.812945 33.496875,52.4600603 30.625,52.4600603 L30.0614583,52.4600603 C31.05625,51.3449838 31.6666667,49.8763977 31.6666667,48.2641 C31.6666667,45.1517465 29.409375,42.5670349 26.4583333,42.0645687 L26.4583333,37.7741993 L32.5041667,37.7741993 L26.4583333,28.0322285 L26.4583333,25.1863185 L33.75,25.1863185 L33.75,31.2746568 L43.4239583,25.1863185 L53.5416667,25.1863185 L53.5416667,27.2842986 L47.4958333,27.2842986 L53.5416667,37.0262694 L53.5416667,42.0656177 C50.590625,42.5670349 48.3333333,45.1527954 48.3333333,48.265149 C48.3333333,49.8774467 48.94375,51.3460328 49.9375,52.4611093 L49.375,52.4611093 C46.503125,52.4611093 44.1666667,54.813994 44.1666667,57.7060596 L44.1666667,64 L65,64 L65,57.7060596 C65,54.812945 62.6635417,52.4600603 59.7916667,52.4600603 Z M33.75,57.7050106 L33.75,61.9009709 L17.0833333,61.9009709 L17.0833333,57.7050106 C17.0833333,55.969981 18.4854167,54.5580404 20.2083333,54.5580404 L30.625,54.5580404 C32.3479167,54.5580404 33.75,55.969981 33.75,57.7050106 Z M29.5833333,48.2641 C29.5833333,50.5781721 27.7145833,52.4600603 25.4166667,52.4600603 C23.11875,52.4600603 21.25,50.5781721 21.25,48.2641 C21.25,45.9500279 23.11875,44.0681397 25.4166667,44.0681397 C27.7145833,44.0681397 29.5833333,45.9500279 29.5833333,48.2641 Z M22.0875,35.6762192 L25.4166667,30.312733 L28.7458333,35.6762192 L22.0875,35.6762192 Z M35.8333333,27.4899007 L35.8333333,20.7847562 L41.159375,24.1373284 L35.8333333,27.4899007 Z M57.9125,29.3822788 L54.5833333,34.745765 L51.2541667,29.3822788 L57.9125,29.3822788 Z M50.4166667,48.2641 C50.4166667,45.9500279 52.2854167,44.0681397 54.5833333,44.0681397 C56.88125,44.0681397 58.75,45.9500279 58.75,48.2641 C58.75,50.5781721 56.88125,52.4600603 54.5833333,52.4600603 C52.2854167,52.4600603 50.4166667,50.5781721 50.4166667,48.2641 Z M62.9166667,61.9009709 L46.25,61.9009709 L46.25,57.7050106 C46.25,55.969981 47.6520833,54.5580404 49.375,54.5580404 L59.7916667,54.5580404 C61.5145833,54.5580404 62.9166667,55.969981 62.9166667,57.7050106 L62.9166667,61.9009709 Z" id="Shape" fill="url(#linearGradient-1)" fill-rule="nonzero"></path>
    </g>
</svg>