<?xml version="1.0" encoding="UTF-8"?>
<svg width="40px" height="40px" viewBox="0 0 40 40" version="1.1" xmlns="http://www.w3.org/2000/svg" xmlns:xlink="http://www.w3.org/1999/xlink">
    <!-- Generator: sketchtool 63.1 (101010) - https://sketch.com -->
    <title>6D6C3E45-D0CB-4625-9508-9E945C043DA9</title>
    <desc>Created with sketchtool.</desc>
    <g id="Services" stroke="none" stroke-width="1" fill="none" fill-rule="evenodd">
        <g transform="translate(-989.000000, -4441.000000)" fill="#1F1F20" fill-rule="nonzero" id="Group-18-Copy-3">
            <g transform="translate(969.000000, 3952.000000)">
                <g id="list-copy-5" transform="translate(0.000000, 471.000000)">
                    <g id="Group-14" transform="translate(20.000000, 18.000000)">
                        <g id="iOS">
                            <g id="grey_grad">
                                <g id="ai-&amp;-ml">
                                    <path d="M32.3905,4 C34.381,4 36,5.619 36,7.609 L36,7.609 L36,32.3905 C36,34.381 34.381,36 32.3905,36 L32.3905,36 L7.609,36 C5.619,36 4,34.381 4,32.3905 L4,32.3905 L4,7.6095 C4,5.6195 5.619,4 7.609,4 L7.609,4 Z M20,8.1255 C18.75,8.1255 17.7115,9.031 17.495,10.2195 L17.495,10.2195 L12.066,13.3925 C10.7755,13.518 9.76,14.596 9.76,15.919 C9.76,17.063 10.522,18.022 11.5615,18.3445 L11.5615,18.3445 L11.5615,21.6545 C10.522,21.978 9.76,22.9365 9.76,24.0815 C9.76,25.408 10.781,26.488 12.077,26.609 L12.077,26.609 L17.471,29.5445 C17.585,30.846 18.669,31.8745 20,31.8745 C21.25,31.8745 22.288,30.969 22.505,29.7805 L22.505,29.7805 L27.9345,26.6065 C29.224,26.481 30.2395,25.4035 30.2395,24.0805 C30.2395,22.9365 29.478,21.9775 28.438,21.6555 L28.438,21.6555 L28.438,18.345 C29.478,18.0225 30.24,17.0635 30.24,15.9195 C30.24,14.5965 29.2245,13.5185 27.9345,13.393 L27.9345,13.393 L22.505,10.2195 C22.288,9.0315 21.25,8.1255 20,8.1255 Z M20,28.271 C20.5807274,28.271 21.0515,28.7417726 21.0515,29.3225 C21.0515,29.9032274 20.5807274,30.374 20,30.374 C19.4192726,30.374 18.9485,29.9032274 18.9485,29.3225 C18.9485,28.7417726 19.4192726,28.271 20,28.271 Z M22.269,11.8185 L26.0155,14.008 C25.481,14.476 25.1365,15.1545 25.1365,15.9185 C25.1365,17.0625 25.8985,18.0215 26.9385,18.344 L26.9385,18.344 L26.9385,21.654 C25.8985,21.9775 25.1365,22.936 25.1365,24.081 C25.1365,24.8445 25.4815,25.5235 26.0145,25.991 L26.0145,25.991 L22.269,28.1805 C21.8475,27.3485 20.994,26.7715 20,26.7715 C19.0695,26.7715 18.262,27.2775 17.8165,28.024 L17.8165,28.024 L14.023,25.9595 C14.535,25.492 14.8625,24.827 14.8625,24.081 C14.8625,22.936 14.101,21.977 13.0615,21.654 L13.0615,21.654 L13.0615,18.344 C14.101,18.0215 14.8625,17.0625 14.8625,15.9185 C14.8625,15.1545 14.518,14.476 13.9845,14.008 L13.9845,14.008 L17.731,11.8185 C18.152,12.6505 19.006,13.2275 20,13.2275 C20.994,13.2275 21.8475,12.6505 22.269,11.8185 L22.269,11.8185 Z M12.312,23.0295 C12.892,23.0295 13.363,23.5005 13.363,24.0815 C13.363,24.661 12.8915,25.1325 12.312,25.1325 C11.7325,25.1325 11.2605,24.6605 11.2605,24.0815 C11.2605,23.501 11.732,23.0295 12.312,23.0295 Z M27.6885,23.029 C28.2692274,23.029 28.74,23.4997726 28.74,24.0805 C28.74,24.6612274 28.2692274,25.132 27.6885,25.132 C27.1077726,25.132 26.637,24.6612274 26.637,24.0805 C26.637,23.4997726 27.1077726,23.029 27.6885,23.029 Z M12.3115,14.8675 C12.8922274,14.8675 13.363,15.3382726 13.363,15.919 C13.363,16.4997274 12.8922274,16.9705 12.3115,16.9705 C11.7307726,16.9705 11.26,16.4997274 11.26,15.919 C11.26,15.3382726 11.7307726,14.8675 12.3115,14.8675 Z M27.688,14.867 C28.2687274,14.867 28.7395,15.3377726 28.7395,15.9185 C28.7395,16.4992274 28.2687274,16.97 27.688,16.97 C27.1072726,16.97 26.6365,16.4992274 26.6365,15.9185 C26.6365,15.3377726 27.1072726,14.867 27.688,14.867 Z M20,9.6255 C20.5807274,9.6255 21.0515,10.0962726 21.0515,10.677 C21.0515,11.2577274 20.5807274,11.7285 20,11.7285 C19.4192726,11.7285 18.9485,11.2577274 18.9485,10.677 C18.9485,10.0962726 19.4192726,9.6255 20,9.6255 Z" id="Combined-Shape"></path>
                                </g>
                            </g>
                        </g>
                    </g>
                </g>
            </g>
        </g>
    </g>
</svg>