<?xml version="1.0" encoding="UTF-8"?>
<svg width="40px" height="40px" viewBox="0 0 40 40" version="1.1" xmlns="http://www.w3.org/2000/svg" xmlns:xlink="http://www.w3.org/1999/xlink">
    <!-- Generator: sketchtool 63.1 (101010) - https://sketch.com -->
    <title>B1669156-8C91-4EEA-9DE0-31EAA2317C26</title>
    <desc>Created with sketchtool.</desc>
    <g id="Services" stroke="none" stroke-width="1" fill="none" fill-rule="evenodd">
        <g transform="translate(-231.000000, -5264.000000)" fill="#FFFFFF" fill-rule="nonzero" id="list">
            <g transform="translate(211.000000, 5246.000000)">
                <g id="Group-14" transform="translate(20.000000, 18.000000)">
                    <g id="iOS">
                        <g id="grey_grad">
                            <g id="am">
                                <path d="M14.6805226,11.9219435 L14.6805226,26.3929863 C14.6805226,26.8052667 14.347981,27.135091 13.932304,27.135091 L12.0617577,27.135091 C11.6460808,27.135091 11.3551069,27.4649154 11.3551069,27.8359677 L11.3551069,31.2578952 C11.3551069,31.6701757 11.0225653,32 10.6068884,32 L9.1935867,32 C8.77790974,32 8.44536817,31.6701757 8.44536817,31.2578952 L8.44536817,24.6614085 C7.03206651,24.4552683 5.78503563,23.7956196 4.82897862,22.8473746 C3.70665083,21.6929895 3,20.0850958 3,18.31229 C3,14.8079064 5.86817102,11.9219435 9.44299287,11.9219435 L14.6805226,11.9219435 Z M32.0973872,8.00527948 C32.3467933,7.96405144 32.5961995,8.17019165 32.5961995,8.4175599 L32.5961995,8.4175599 L32.5961995,29.6912296 C32.5961995,29.9385979 32.3467933,30.1447381 32.0973872,30.1035101 L32.0973872,30.1035101 L15.8444181,26.5578984 L15.8444181,11.7982594 Z M33.5522565,14.6017662 C36.0047506,14.6017662 38,16.6219403 38,19.0543948 C38,21.4868493 36.0047506,23.4657953 33.5522565,23.4657953 L33.5522565,23.4657953 Z" id="Combined-Shape" transform="translate(20.500000, 20.000000) rotate(-15.000000) translate(-20.500000, -20.000000) "></path>
                            </g>
                        </g>
                    </g>
                </g>
            </g>
        </g>
    </g>
</svg>