<?xml version="1.0" encoding="UTF-8"?>
<svg width="40px" height="40px" viewBox="0 0 40 40" version="1.1" xmlns="http://www.w3.org/2000/svg" xmlns:xlink="http://www.w3.org/1999/xlink">
    <!-- Generator: sketchtool 63.1 (101010) - https://sketch.com -->
    <title>305E7849-1D9F-47E2-818C-0A95EBD5E31A</title>
    <desc>Created with sketchtool.</desc>
    <g id="Services" stroke="none" stroke-width="1" fill="none" fill-rule="evenodd">
        <g transform="translate(-211.000000, -1423.000000)" fill="#FFFFFF" id="Group-18">
            <g transform="translate(191.000000, 1029.000000)">
                <g id="list" transform="translate(0.000000, 376.000000)">
                    <g id="Group-14" transform="translate(20.000000, 18.000000)">
                        <g id="iOS">
                            <g id="grey_grad">
                                <g id="android">
                                    <g id="Group" transform="translate(3.000000, 5.000000)">
                                        <path d="M32.1377644,0.39823298 C32.3511616,0.0185812897 32.8339918,-0.112571112 33.2147292,0.105249251 C33.5877904,0.322302642 33.7228908,0.80012689 33.5056555,1.17901161 L33.5056555,1.17901161 L30.4804822,6.46499029 C32.685842,9.10414476 34,12.4113328 34,16 L34,16 L2.82796009e-12,16 C2.82796009e-12,12.4151677 1.30801707,9.11104752 3.51030637,6.47342699 L3.51030637,6.47342699 L0.481295013,1.18054555 C0.263292168,0.801660836 0.39532206,0.322302642 0.775291807,0.106016224 C1.14835301,-0.111037166 1.6334861,0.020115236 1.84841849,0.399766926 L1.84841849,0.399766926 L4.63332807,5.2608425 C7.73065721,2.23590055 12.1260244,0.347612754 16.9988486,0.347612754 C21.8662994,0.347612754 26.2585962,2.23206569 29.3589958,5.25317277 L29.3589958,5.25317277 Z M24.8883161,7.86129962 C23.9667935,7.86129962 23.2220528,8.60729602 23.2220528,9.5271077 C23.2220528,10.4459798 23.9677338,11.1929158 24.8883161,11.1929158 C25.810779,11.1929158 26.55646,10.4469194 26.55646,9.5271077 C26.55646,8.60635648 25.810779,7.86129962 24.8883161,7.86129962 Z M8.96290125,7.86129962 C8.04325932,7.86129962 7.29663795,8.60729602 7.29663795,9.5271077 C7.29663795,10.4459798 8.04231899,11.1929158 8.96290125,11.1929158 C9.88630449,11.1929158 10.6319855,10.4469194 10.6319855,9.5271077 C10.6319855,8.60635648 9.88536416,7.86129962 8.96290125,7.86129962 Z" id="Combined-Shape" fill-rule="nonzero"></path>
                                        <rect id="Rectangle" x="0" y="18" width="34" height="13"></rect>
                                    </g>
                                </g>
                            </g>
                        </g>
                    </g>
                </g>
            </g>
        </g>
    </g>
</svg>