<?xml version="1.0" encoding="UTF-8"?>
<svg width="40px" height="40px" viewBox="0 0 40 40" version="1.1" xmlns="http://www.w3.org/2000/svg" xmlns:xlink="http://www.w3.org/1999/xlink">
    <!-- Generator: sketchtool 63.1 (101010) - https://sketch.com -->
    <title>2F7AD233-619D-478E-BF33-C8119B395E1F</title>
    <desc>Created with sketchtool.</desc>
    <g id="Services" stroke="none" stroke-width="1" fill="none" fill-rule="evenodd">
        <g transform="translate(-231.000000, -3528.000000)" fill="#FFFFFF" id="Group-18-Copy-2">
            <g transform="translate(211.000000, 3029.000000)">
                <g id="list" transform="translate(0.000000, 481.000000)">
                    <g id="Group-14" transform="translate(20.000000, 18.000000)">
                        <g id="iOS">
                            <g id="grey_grad">
                                <g id="api">
                                    <path d="M30,6 C33.8659932,6 37,9.13400675 37,13 L37,27 C37,30.8659932 33.8659932,34 30,34 L10,34 C6.13400675,34 3,30.8659932 3,27 L3,13 C3,9.13400675 6.13400675,6 10,6 L30,6 Z M23.9718739,13 L21.3749991,13 L16.2656244,26.7062492 L18.8624992,26.7062492 L23.9718739,13 Z M15.3093744,14.7062499 L6,19.3562496 L6,20.6968745 L15.3093744,24.8031243 L15.3093744,22.5624994 L8.89687483,19.9281246 L15.3093744,16.9562498 L15.3093744,14.7062499 Z M24.8906239,14.7062499 L24.8906239,16.9562498 L31.3031235,19.9281246 L24.8906239,22.5624994 L24.8906239,24.8031243 L34.1999983,20.6968745 L34.1999983,19.3562496 L24.8906239,14.7062499 Z" id="Combined-Shape"></path>
                                </g>
                            </g>
                        </g>
                    </g>
                </g>
            </g>
        </g>
    </g>
</svg>