<?xml version="1.0" encoding="UTF-8"?>
<svg width="40px" height="40px" viewBox="0 0 40 40" version="1.1" xmlns="http://www.w3.org/2000/svg" xmlns:xlink="http://www.w3.org/1999/xlink">
    <!-- Generator: sketchtool 63.1 (101010) - https://sketch.com -->
    <title>C0175C11-34DD-4CED-A30A-D39EADE4EB58</title>
    <desc>Created with sketchtool.</desc>
    <g id="Services" stroke="none" stroke-width="1" fill="none" fill-rule="evenodd">
        <g transform="translate(-211.000000, -1318.000000)" fill="#FFFFFF" fill-rule="nonzero" id="Group-18">
            <g transform="translate(191.000000, 1029.000000)">
                <g id="list" transform="translate(0.000000, 271.000000)">
                    <g id="Group-14" transform="translate(20.000000, 18.000000)">
                        <g id="iOS">
                            <g id="grey_grad">
                                <g id="apple">
                                    <path d="M27.1517862,2 C23.1456507,3.35338062 20.023622,4.70676553 20.4687491,10.5714235 C24.4748863,9.66916544 28.0420404,7.41352678 27.1517862,2 Z M14.4285709,10.1428523 C10.5714283,10.1428523 5,13.5714045 5,19.9999679 C5,29.0000054 11,38 14.4285709,38 C17,38 19.1428563,36.2857153 20.857142,36.2857153 C22.5714276,36.2857153 24.2857149,38 26.8571433,38 C30.2857146,38 34.1428572,32.8571459 35,28.142863 C32,26.0000071 29.8571432,24.7142936 29.8571432,20.8571102 C29.8571432,18.2856874 32,15.7142604 34.5714286,13.5714045 C33.2857144,11.857137 30.714286,10.1428523 28.1428575,10.1428523 C25.5714291,10.1428523 22.8062521,12.1773268 20.857142,12.2857082 C19.1428563,12.2857082 17,10.1428523 14.4285709,10.1428523 Z" id="Mask"></path>
                                </g>
                            </g>
                        </g>
                    </g>
                </g>
            </g>
        </g>
    </g>
</svg>