<?xml version="1.0" encoding="UTF-8"?>
<svg width="40px" height="40px" viewBox="0 0 40 40" version="1.1" xmlns="http://www.w3.org/2000/svg" xmlns:xlink="http://www.w3.org/1999/xlink">
    <!-- Generator: sketchtool 63.1 (101010) - https://sketch.com -->
    <title>585D7E1E-7C74-4179-A7D4-B52BE90C205D</title>
    <desc>Created with sketchtool.</desc>
    <g id="Services" stroke="none" stroke-width="1" fill="none" fill-rule="evenodd">
        <g transform="translate(-211.000000, -1633.000000)" id="Group-18">
            <g transform="translate(191.000000, 1029.000000)">
                <g id="list" transform="translate(0.000000, 586.000000)">
                    <g id="Group-14" transform="translate(20.000000, 18.000000)">
                        <g id="iOS">
                            <g id="grey_grad">
                                <g id="ar">
                                    <g id="Group-3" transform="translate(3.000000, 6.000000)">
                                        <path d="M28.8012136,12.0002392 C31.4521805,12.0002392 33.6012138,14.1492725 33.6012138,16.8002394 L33.6012138,24.0002397 C33.6012138,26.6512066 31.4521805,28.8002399 28.8012136,28.8002399 L19.2012124,28.8002392 L19.2012132,27.6002398 C19.2012132,26.3299849 18.2143741,25.2902185 16.9655318,25.2057766 L16.8012131,25.2002397 C15.4757296,25.2002397 14.401213,26.2747564 14.401213,27.6002398 L14.401213,27.6002398 L14.4012124,28.8002392 L4.80121262,28.8002399 C2.15024572,28.8002399 0.00121243082,26.6512066 0.00121243082,24.0002397 L0.00121243082,16.8002394 C0.00121243082,14.1492725 2.15024572,12.0002392 4.80121262,12.0002392 L28.8012136,12.0002392 Z" id="Combined-Shape" fill="#FFFFFF"></path>
                                        <g id="Group-2">
                                            <path d="M31.2012137,0.000238746752 C32.5266971,0.000238746752 33.6012138,1.07475539 33.6012138,2.40023884 L33.6016696,10.5890352 C32.7772514,10.0175232 31.7910659,9.66291984 30.7256763,9.60778811 L30.4332138,9.60023913 L3.1692124,9.60023913 C1.99241265,9.60023913 0.90088065,9.96531379 0.00169403134,10.5883855 L0.00121243082,2.40023884 C0.00121243082,1.07475539 1.07572907,0.000238746752 2.40121253,0.000238746752 L7.39304921,-6.66999782e-05 C8.28215066,1.36942972 12.1564685,2.4002386 16.8012131,2.4002386 C21.4459577,2.4002386 25.3202755,1.36942972 26.209377,-6.66999782e-05 L31.2012137,0.000238746752 Z" id="Combined-Shape" fill="#FFFFFF"></path>
                                            <g id="Group" transform="translate(9.389081, 21.353793) rotate(-315.000000) translate(-9.389081, -21.353793) translate(6.889081, 14.353793)" fill="#000000">
                                                <rect id="Rectangle" x="0" y="0" width="1.20000005" height="13.2000005"></rect>
                                                <rect id="Rectangle-Copy" x="3.60000014" y="2.4000001" width="1.20000005" height="8.40000033"></rect>
                                            </g>
                                        </g>
                                    </g>
                                </g>
                            </g>
                        </g>
                    </g>
                </g>
            </g>
        </g>
    </g>
</svg>