<?xml version="1.0" encoding="UTF-8"?>
<svg width="40px" height="40px" viewBox="0 0 40 40" version="1.1" xmlns="http://www.w3.org/2000/svg" xmlns:xlink="http://www.w3.org/1999/xlink">
    <!-- Generator: sketchtool 63.1 (101010) - https://sketch.com -->
    <title>3E5332B3-C171-46C5-ACBF-1531D671AA80</title>
    <desc>Created with sketchtool.</desc>
    <g id="Services" stroke="none" stroke-width="1" fill="none" fill-rule="evenodd">
        <g transform="translate(-989.000000, -4541.000000)" fill="#1F1F20" fill-rule="nonzero" id="Group-18-Copy-3">
            <g transform="translate(969.000000, 3952.000000)">
                <g id="list-copy-5" transform="translate(0.000000, 571.000000)">
                    <g id="Group-14" transform="translate(20.000000, 18.000000)">
                        <g id="iOS">
                            <g id="grey_grad">
                                <g id="bd">
                                    <path d="M36,23.6706784 L36,32.0252991 L28.2292526,37 L20.4582697,32.0252991 L20.4582697,23.6706784 L28.2292526,28.6449046 L36,23.6706784 Z M19.5416126,23.6706784 L19.5416126,32.0252991 L11.7708651,37 L4,32.0252991 L4,23.6706784 L11.7708651,28.6449046 L19.5416126,23.6706784 Z M28.2292526,17.8651201 L36,22.8399397 L28.2292526,27.8141658 L20.4582697,22.8399397 L28.2292526,17.8651201 Z M11.7707474,17.8651201 L19.5416126,22.8399397 L11.7708651,27.8141658 L4,22.8399397 L11.7707474,17.8651201 Z M27.775751,8.80555828 L27.775751,17.1602977 L20.0051213,22.1347612 L12.2342562,17.1602977 L12.2342562,8.80555828 L20.0051213,13.7800218 L27.775751,8.80555828 Z M20.0048859,3 L27.775751,7.97470085 L20.0051213,12.9492831 L12.2342562,7.97470085 L20.0048859,3 Z" id="Combined-Shape"></path>
                                </g>
                            </g>
                        </g>
                    </g>
                </g>
            </g>
        </g>
    </g>
</svg>