<?xml version="1.0" encoding="UTF-8"?>
<svg width="40px" height="40px" viewBox="0 0 40 40" version="1.1" xmlns="http://www.w3.org/2000/svg" xmlns:xlink="http://www.w3.org/1999/xlink">
    <!-- Generator: sketchtool 63.1 (101010) - https://sketch.com -->
    <title>E41F2217-C936-4C47-819F-F7D480BDE37E</title>
    <desc>Created with sketchtool.</desc>
    <g id="Services" stroke="none" stroke-width="1" fill="none" fill-rule="evenodd">
        <g transform="translate(-961.000000, -2495.000000)" fill="#1F1F20" id="Group-18-Copy">
            <g transform="translate(941.000000, 2006.000000)">
                <g id="list-copy-5" transform="translate(0.000000, 471.000000)">
                    <g id="Group-14" transform="translate(20.000000, 18.000000)">
                        <g id="iOS">
                            <g id="grey_grad">
                                <g id="branding">
                                    <path d="M30,5 C31.1045695,5 32,5.8954305 32,7 L32,33 C32,34.1045695 31.1045695,35 30,35 L10,35 C8.8954305,35 8,34.1045695 8,33 L8,7 C8,5.8954305 8.8954305,5 10,5 L30,5 Z M20.17017,9 C15.4757496,9 11.67017,12.8055796 11.67017,17.5 C11.67017,20.2982339 13.0223201,22.7806563 15.1088831,24.32953 L15.1088831,24.32953 L11,32 L29.34034,32 L25.2316749,24.3293682 C27.3181141,22.7804834 28.67017,20.2981365 28.67017,17.5 C28.67017,12.8055796 24.8645904,9 20.17017,9 Z M23.49541,25.3249618 L25.99917,30 L14.34017,30 L16.8441063,25.3246112 C17.8656946,25.7594163 18.9898366,26 20.17017,26 C21.3501862,26 22.4740412,25.7595456 23.49541,25.3249618 L23.49541,25.3249618 Z M20.17017,19.117 L22.5456414,23.5522534 C21.8098279,23.8412813 21.0085343,24 20.17017,24 C19.3317087,24 18.5303268,23.8412446 17.7944433,23.5521531 L17.7944433,23.5521531 L20.17017,19.117 Z M20.17017,11 C23.7600209,11 26.67017,13.9101491 26.67017,17.5 C26.67017,19.5336367 25.7362511,21.349145 24.2739057,22.5410323 L24.2739057,22.5410323 L20.17017,14.8823493 L16.0674247,22.5418393 C14.6045107,21.3499647 13.67017,19.5340958 13.67017,17.5 C13.67017,13.9101491 16.5803191,11 20.17017,11 Z" id="Combined-Shape"></path>
                                </g>
                            </g>
                        </g>
                    </g>
                </g>
            </g>
        </g>
    </g>
</svg>