<?xml version="1.0" encoding="UTF-8"?>
<svg width="40px" height="40px" viewBox="0 0 40 40" version="1.1" xmlns="http://www.w3.org/2000/svg" xmlns:xlink="http://www.w3.org/1999/xlink">
    <!-- Generator: sketchtool 63.1 (101010) - https://sketch.com -->
    <title>6D7B327B-B41E-4305-A73A-FE3450630E1B</title>
    <desc>Created with sketchtool.</desc>
    <g id="Services" stroke="none" stroke-width="1" fill="none" fill-rule="evenodd">
        <g transform="translate(-231.000000, -3633.000000)" fill="#FFFFFF" id="Group-18-Copy-2">
            <g transform="translate(211.000000, 3029.000000)">
                <g id="list" transform="translate(0.000000, 586.000000)">
                    <g id="Group-14" transform="translate(20.000000, 18.000000)">
                        <g id="iOS">
                            <g id="grey_grad">
                                <g id="cms">
                                    <path d="M20,2 C29.9411255,2 38,10.0588745 38,20 C38,29.9411255 29.9411255,38 20,38 C10.0588745,38 2,29.9411255 2,20 C2,10.0588745 10.0588745,2 20,2 Z M9.84667969,15 C8.8577474,15 7.99755859,15.2107747 7.26611328,15.6323242 C6.53466797,16.0538737 5.97412109,16.6565755 5.58447266,17.4404297 C5.19482422,18.2242839 5,19.1334635 5,20.1679688 C5,21.8222656 5.40218099,23.0869141 6.20654297,23.9619141 C7.01090495,24.8369141 8.16731771,25.2744141 9.67578125,25.2744141 C10.6115451,25.2744141 11.4608893,25.1285807 12.2238137,24.8369141 L12.5058594,24.7207031 L12.5058594,22.4375 C12.0865885,22.6106771 11.6695964,22.7587891 11.2548828,22.8818359 C10.8401693,23.0048828 10.4117839,23.0664062 9.96972656,23.0664062 C8.50683594,23.0664062 7.77539062,22.1048177 7.77539062,20.1816406 C7.77539062,19.2565104 7.95540365,18.5307617 8.31542969,18.0043945 C8.67545573,17.4780273 9.17675781,17.2148438 9.81933594,17.2148438 C10.2431641,17.2148438 10.6396484,17.2740885 11.0087891,17.3925781 C11.2548828,17.4715712 11.5009766,17.562717 11.7470703,17.6660156 L12.1162109,17.8300781 L12.9433594,15.7041016 C11.9589844,15.2347005 10.9267578,15 9.84667969,15 Z M31.359375,15 C30.188151,15 29.2675781,15.257487 28.5976562,15.7724609 C27.9277344,16.2874349 27.5927734,17.0052083 27.5927734,17.9257812 C27.5927734,18.4179688 27.6713867,18.8440755 27.8286133,19.2041016 C27.9858398,19.5641276 28.2273763,19.883138 28.5532227,20.1611328 C28.879069,20.4391276 29.3678385,20.726237 30.0195312,21.0224609 C30.7395833,21.3460286 31.1827799,21.5602214 31.3491211,21.6650391 C31.5154622,21.7698568 31.6362305,21.8735352 31.7114258,21.9760742 C31.7866211,22.0786133 31.8242188,22.1982422 31.8242188,22.3349609 C31.8242188,22.5537109 31.7307943,22.7325846 31.5439453,22.871582 C31.3570964,23.0105794 31.063151,23.0800781 30.6621094,23.0800781 C30.1972656,23.0800781 29.686849,23.0060221 29.1308594,22.8579102 C28.6860677,22.7394206 28.254401,22.5837435 27.8358594,22.3908789 L27.5244141,22.2392578 L27.5244141,24.6455078 C28.0120443,24.8779297 28.4814453,25.0408529 28.9326172,25.1342773 C29.3837891,25.2277018 29.9420573,25.2744141 30.6074219,25.2744141 C31.4049479,25.2744141 32.0999349,25.1411133 32.6923828,24.8745117 C33.2848307,24.6079102 33.7382812,24.2342122 34.0527344,23.753418 C34.3671875,23.2726237 34.5244141,22.7223307 34.5244141,22.1025391 C34.5244141,21.4280599 34.3569336,20.8686523 34.0219727,20.4243164 C33.6870117,19.9799805 33.0888672,19.5641276 32.2275391,19.1767578 C31.3297526,18.7666016 30.7794596,18.4840495 30.5766602,18.3291016 C30.3738607,18.1741536 30.2724609,17.9986979 30.2724609,17.8027344 C30.2724609,17.6204427 30.3522135,17.4677734 30.5117188,17.3447266 C30.671224,17.2216797 30.9264323,17.1601562 31.2773438,17.1601562 C31.8809317,17.1601562 32.5853427,17.3293949 33.3905768,17.6678723 L33.6972656,17.8027344 L34.5244141,15.7177734 C33.4488932,15.2392578 32.3938802,15 31.359375,15 Z M18.0498047,15.1435547 L14.4541016,15.1435547 L14.4541016,25.1376953 L16.8466797,25.1376953 L16.8466797,20.796875 C16.8466797,20.1857422 16.8079199,19.353125 16.7304004,18.2990234 L16.703125,17.9394531 L16.7646484,17.9394531 L18.8085938,25.1376953 L21.3789062,25.1376953 L23.3955078,17.953125 L23.4570312,17.953125 C23.4023438,19.0377604 23.371582,19.7190755 23.3647461,19.9970703 C23.3601888,20.1824002 23.3571506,20.35659 23.3556315,20.5196398 L23.3544922,20.7558594 L23.3544922,25.1376953 L25.8359375,25.1376953 L25.8359375,15.1435547 L22.2333984,15.1435547 L20.1894531,22.2392578 L20.1347656,22.2392578 L18.0498047,15.1435547 Z" id="Combined-Shape"></path>
                                </g>
                            </g>
                        </g>
                    </g>
                </g>
            </g>
        </g>
    </g>
</svg>