<?xml version="1.0" encoding="utf-8"?>
<!-- Generator: Adobe Illustrator 23.0.0, SVG Export Plug-In . SVG Version: 6.00 Build 0)  -->
<svg version="1.1" id="Layer_1" xmlns="http://www.w3.org/2000/svg" xmlns:xlink="http://www.w3.org/1999/xlink" x="0px" y="0px"
	 viewBox="0 0 940 740" style="enable-background:new 0 0 940 740;" xml:space="preserve">
<style type="text/css">
	.st0{fill-rule:evenodd;clip-rule:evenodd;fill:#E4E4E5;}
	.st1{fill-rule:evenodd;clip-rule:evenodd;fill:#929292;}
	.st2{fill-rule:evenodd;clip-rule:evenodd;fill:#D9D9D9;}
	.st3{fill-rule:evenodd;clip-rule:evenodd;fill:#919191;}
	.st4{fill-rule:evenodd;clip-rule:evenodd;fill:#FFBAC5;}
	.st5{fill-rule:evenodd;clip-rule:evenodd;fill:url(#Fill-22_1_);}
	.st6{fill-rule:evenodd;clip-rule:evenodd;fill:#FFACC4;}
	.st7{fill-rule:evenodd;clip-rule:evenodd;fill:#FBFAFE;}
	.st8{fill-rule:evenodd;clip-rule:evenodd;fill:#EDB1A1;}
	.st9{fill-rule:evenodd;clip-rule:evenodd;fill:#E38870;}
	.st10{fill-rule:evenodd;clip-rule:evenodd;fill:#FFFFFF;}
	.st11{fill-rule:evenodd;clip-rule:evenodd;fill:#E39369;}
	.st12{fill-rule:evenodd;clip-rule:evenodd;fill:#E76986;}
	.st13{fill-rule:evenodd;clip-rule:evenodd;fill:#FF95B6;}
	.st14{fill-rule:evenodd;clip-rule:evenodd;fill:#E76388;}
	.st15{fill-rule:evenodd;clip-rule:evenodd;fill:#EBD9FF;}
	.st16{fill-rule:evenodd;clip-rule:evenodd;fill:#F5BCA1;}
	.st17{fill-rule:evenodd;clip-rule:evenodd;fill:#F9859F;}
	.st18{opacity:0.1;fill-rule:evenodd;clip-rule:evenodd;fill:#222223;enable-background:new    ;}
	.st19{fill-rule:evenodd;clip-rule:evenodd;}
	.st20{fill-rule:evenodd;clip-rule:evenodd;fill:#E76885;}
	.st21{fill-rule:evenodd;clip-rule:evenodd;fill:#F9D0B2;}
	.st22{fill-rule:evenodd;clip-rule:evenodd;fill:#3D3D3D;}
</style>
<title>ddb</title>
<desc>Created with Sketch.</desc>
<g id="ddb">
	<g id="mad-" transform="translate(174.000000, 17.000000)">
		<g id="Group-130" transform="translate(0.000000, 0.384800)">
			<g id="Group-3" transform="translate(25.000000, 305.000000)">
				<path id="Fill-1" class="st0" d="M-131.8,2l-22.7,13.1c-8,4.6-14.4,15.8-14.4,24.9l0.1,26.1c0,9.2,6.5,12.9,14.5,8.3l22.7-13.1
					c0.5-0.3,1-0.6,1.5-1l0-6.3l1.8-1.1l0,5.9c6.3-5.4,11-14.7,11-22.5l-0.1-26.1C-117.3,1.1-123.8-2.6-131.8,2 M-130.2,9.6l0-6.2
					l0-0.1l1.8-1v0.1l0,6.2L-130.2,9.6 M-130.2,22.3l0-6.4l1.8-1.1l0,6.4L-130.2,22.3 M-130.2,35l0-6.4l1.8-1.1l0,6.4L-130.2,35
					 M-130.1,47.7l0-6.4l1.8-1.1l0,6.4L-130.1,47.7"/>
			</g>
			<g id="Group-6" transform="translate(450.000000, 0.000000)">
				<path id="Fill-4" class="st1" d="M-131.8,2.2l-22.7,13.1c-8,4.6-14.4,15.8-14.4,25l0.1,26.1c0,9.2,6.5,12.9,14.5,8.3l9.5-5.5
					c0-0.1,0-0.1,0-0.2l-0.1-26.1c0-10,7.1-22.3,15.8-27.3l11.7-6.8C-118.2,0.8-124.4-2.1-131.8,2.2 M-153.1,62.2l0-2.1l5.5-3.2
					l0,2.1L-153.1,62.2 M-164.2,68.6l0-2.1l5.5-3.2l0,2.1L-164.2,68.6 M-117.3,11.8l-11.8,6.8c-7.2,4.2-13.1,14.3-13,22.6l0.1,26.1
					c0,0.1,0,0.1,0,0.2l10.4-6c6.5-3.7,12-11.8,13.8-19.6l-2.1,1.2l0-2.1l2.5-1.5c0.1-1,0.2-2,0.2-3L-117.3,11.8 M-131,49.5l0-2.1
					l5.5-3.2l0,2.1L-131,49.5 M-142.1,55.9l0-2.1l5.5-3.2l0,2.1L-142.1,55.9"/>
				<path id="Fill-10" class="st0" d="M-106.4,2.4l-11,6.3l-11.7,6.8c-8.7,5-15.8,17.3-15.8,27.3l0.1,26.1c0,0.1,0,0.1,0,0.2
					c0.1,9.9,7.2,13.9,15.9,8.9l22.7-13.1c8.7-5,15.8-17.3,15.8-27.3l-0.1-26.1C-90.6,1.4-97.7-2.7-106.4,2.4 M-117.3,11.8l10.9-6.3
					c7.2-4.2,13.1-0.8,13.1,7.5l0,12.5l0.9-0.5l0,2.1l-0.9,0.5l0,11.5c0,8.3-5.8,18.4-13,22.6L-129,74.8c-7.2,4.1-13,0.9-13.1-7.3
					c0-0.1,0-0.1,0-0.2l-0.1-26.1c0-8.3,5.8-18.4,13-22.6L-117.3,11.8"/>
			</g>
			<g id="Group-9" transform="translate(76.000000, 539.000000)">
				<path id="Fill-7" class="st2" d="M-129.9,2.8l-22.7,13.1c-8.7,5-15.8,17.3-15.8,27.3l0.1,26.1c0,10,7.2,14.1,15.9,9.1l22.7-13.1
					C-121,60.3-114,48-114,38l-0.1-26.1C-114.1,1.8-121.2-2.2-129.9,2.8 M-152.5,75.3c-7.2,4.2-13.1,0.8-13.1-7.5l-0.1-26.1
					c0-8.3,5.8-18.4,13-22.6L-129.9,6c7.2-4.2,13.1-0.8,13.1,7.5l0.1,26.1c0,8.3-5.8,18.4-13,22.6L-152.5,75.3"/>
			</g>
			<g id="Group-12" transform="translate(474.000000, 0.000000)">
			</g>
			<g id="Group-15" transform="translate(392.000000, 3.000000)">
				<path id="Fill-13" class="st3" d="M-1.2,2.9l-0.1,0.1l-5.4,3.1l0,2.1l5.4-3.1L-1.2,5L-1.2,2.9 M-12.3,9.3l-5.5,3.2l0,2.1
					l5.5-3.2L-12.3,9.3 M-23.3,15.7l-5.5,3.2l0,2.1l5.5-3.2L-23.3,15.7 M-34.4,22l-0.9,0.5l-4.6,2.7l0,2.1l4.6-2.7l0.9-0.5L-34.4,22
					 M-45.4,28.4l-5.5,3.2l0,2.1l5.5-3.2L-45.4,28.4 M-56.5,34.8l-3,1.7L-62,38l0,2.1l2.1-1.2l3.4-2L-56.5,34.8 M-67.5,41.2
					l-5.5,3.2l0,2.1l5.5-3.2L-67.5,41.2 M-78.6,47.6l-5.5,3.2l0,2.1l5.5-3.2L-78.6,47.6 M-89.6,53.9l-5.5,3.2l0,2.1l5.5-3.2
					L-89.6,53.9 M-100.7,60.3l-5.5,3.2l0,2.1l5.5-3.2L-100.7,60.3 M-111.7,66.7l-5.5,3.2l0,2.1l5.5-3.2L-111.7,66.7 M-122.8,73.1
					l-5.5,3.2l0,2.1l5.5-3.2L-122.8,73.1 M-133.8,79.5l-5.5,3.2l0,2.1l5.5-3.2L-133.8,79.5 M-144.9,85.8l-5.5,3.2l0,0l0,2.1l0,0
					l5.5-3.2L-144.9,85.8 M-156.1,93.4c-1.9,1.8-3.6,3.8-5.2,6l1.1,1.1c1.4-2,3-3.8,4.6-5.4L-156.1,93.4 M4.5,0.7L4,3
					c1.7-0.3,3.3-0.3,4.6,0.1l1.1-2.3C8.1,0.3,6.4,0.3,4.5,0.7 M-165.4,106.4c-1.1,2.4-2,5-2.6,7.4l1.8-0.3c0.6-2.2,1.4-4.5,2.4-6.7
					L-165.4,106.4 M13.8,3.1l-1.5,2.1c1,1,1.8,2.4,2.4,4l1.7-1.7C15.8,5.7,14.9,4.2,13.8,3.1 M17.4,13.5l-1.8,1.1v0.1l0,6.3l1.8-1.1
					L17.4,13.5L17.4,13.5 M17.4,26.2l-1.8,1.1l0,6.4l1.8-1.1L17.4,26.2 M17.4,38.9L15.6,40l0,6.4l1.8-1.1L17.4,38.9 M17.5,51.6
					l-1.8,1.1l0,6.4l1.8-1.1L17.5,51.6 M17.5,64.3l-1.8,1.1l0,6.4l1.8-1.1L17.5,64.3 M17.5,77l-1.8,1.1l0,6.3l1.8-1.1L17.5,77
					 M17.6,89.7l-1.8,1.1l0,6.4l1.8-1.1L17.6,89.7 M17.6,102.4l-1.8,1.1l0,6.4l1.8-1.1L17.6,102.4 M17.7,115.1l-1.8,1.1l0,6.3
					l1.8-1.1L17.7,115.1 M17.7,127.8l-1.8,1.1l0,6.4l1.8-1.1L17.7,127.8 M17.7,140.5l-1.8,1.1l0,6.4l1.8-1.1L17.7,140.5 M17.8,153.2
					l-1.8,1.1l0,6.4l1.8-1.1L17.8,153.2 M17.8,165.9L16,167l0,6.4l1.8-1.1L17.8,165.9 M17.8,178.6l-1.8,1.1l0,6.3l0,0.1l1.8-1.1
					v-0.1L17.8,178.6 M15.2,192.4c-0.5,2.2-1.4,4.5-2.4,6.7l1.5,0.4c1.1-2.4,2-4.9,2.6-7.4L15.2,192.4 M9.2,205.5
					c-1.4,2-3,3.8-4.6,5.4l0.6,1.7c1.9-1.8,3.6-3.8,5.1-6L9.2,205.5 M-123.2,285.6l-4.6,2.7l0,2.1l4.6-2.7L-123.2,285.6
					 M-133.3,291.5l-5.5,3.2l0,2.1l5.5-3.2L-133.3,291.5"/>
			</g>
			<g id="Group-18" transform="translate(63.000000, 187.000000)">
				<path id="Fill-16" class="st3" d="M-0.5,3.1l-0.1,0.1l-5.4,3.1l0,2.1l5.4-3.1l0.1-0.1L-0.5,3.1 M-11.6,9.5l-5.5,3.2l0,2.1
					l5.5-3.2L-11.6,9.5 M-22.6,15.9l-5.5,3.2l0,2.1l5.5-3.2L-22.6,15.9 M-33.7,22.3l-5.5,3.2l0,2.1l5.5-3.2L-33.7,22.3 M-44.7,28.7
					l-5.5,3.2l0,2.1l5.5-3.2L-44.7,28.7 M-55.8,35.1l-5.5,3.2l0,2.1l5.5-3.2L-55.8,35.1 M-66.8,41.4l-5.5,3.2l0,2.1l5.5-3.2
					L-66.8,41.4 M-77.9,47.8l-5.5,3.2l0,2.1l5.5-3.2L-77.9,47.8 M-88.9,54.2l-5.5,3.2l0,2.1l5.5-3.2L-88.9,54.2 M-100,60.6l-5.5,3.2
					l0,2.1l5.5-3.2L-100,60.6 M-111.1,67l-5.5,3.2l0,2.1l5.5-3.2L-111.1,67 M-122.1,73.3l-5.5,3.2l0,2.1l5.5-3.2L-122.1,73.3
					 M-133.2,79.7l-5.5,3.2l0,2.1l5.5-3.2L-133.2,79.7 M-144.2,86.1l-5.5,3.2l0,0l0,2.1l0,0l5.5-3.2L-144.2,86.1 M-155.5,93.6
					c-1.9,1.8-3.6,3.8-5.1,6l1.1,1.1c1.4-2,3-3.8,4.6-5.4L-155.5,93.6 M5.2,0.9L4.6,3.2C6.3,2.9,7.9,3,9.3,3.3L10.4,1
					C8.8,0.6,7.1,0.5,5.2,0.9 M-164.7,106.7c-1.1,2.4-2,4.9-2.6,7.4l1.8-0.3v0c0.5-2.2,1.4-4.5,2.4-6.7L-164.7,106.7 M14.5,3.3
					L13,5.4c1,1,1.8,2.4,2.4,4l1.8-1.7C16.5,5.9,15.6,4.5,14.5,3.3 M-168.3,121.2l0,0.1l0,6.2l1.8-1.1l0-6.2v-0.1L-168.3,121.2
					 M18,13.8l-1.9,1.1v0.1l0,4.5c0.6-0.5,1.2-0.9,1.8-1.4L18,13.8L18,13.8 M-166.4,132.9l-1.8,1.1l0,6.4l1.8-1.1L-166.4,132.9
					 M-166.3,145.6l-1.8,1.1l0,6.4l1.8-1.1L-166.3,145.6 M-166.3,158.3l-1.8,1.1l0,6.4l1.8-1.1L-166.3,158.3 M-166.3,171l-1.8,1.1
					l0,6.3v0.1l1.8-1.1l0-0.4L-166.3,171 M-166.2,183.7l-1.8,1.1l0,6.4l1.8-1.1L-166.2,183.7 M-166.2,196.4l-1.8,1.1l0,6.4l1.8-1.1
					L-166.2,196.4 M-166.2,209.1l-1.8,1.1l0,6.4l1.8-1.1L-166.2,209.1 M-166.1,221.8l-1.8,1.1l0,6.3l1.8-1.1L-166.1,221.8
					 M-166.1,234.5l-1.8,1.1l0,6.4l1.8-1.1L-166.1,234.5 M-166.1,247.2l-1.8,1.1l0,6.4l1.8-1.1L-166.1,247.2 M-166,259.9l-1.8,1.1
					l0,6.3l1.8-1.1L-166,259.9 M-166,272.6l-1.8,1.1l0,6.4l1.8-1.1L-166,272.6 M-165.9,285.3l-1.8,1.1l0,6.3v0l1.8-1.1l0,0
					L-165.9,285.3 M-165.1,297.1l-1.7,1.7c0.6,1.8,1.5,3.3,2.6,4.4l1.5-2.1C-163.7,300.1-164.5,298.7-165.1,297.1 M-159,303.2
					l-1.1,2.3c1.5,0.4,3.3,0.4,5.1,0.1l0.6-2.3C-156.1,303.6-157.6,303.6-159,303.2 M-1.7,216.1l-3.8,2.2l0,2.1l3.8-2.2L-1.7,216.1
					 M-11.1,221.5l-5.5,3.2l0,2.1l5.5-3.2L-11.1,221.5 M-22.1,227.9l-5.5,3.2l0,2.1l5.5-3.2L-22.1,227.9 M-33.2,234.3l-5.5,3.2
					l0,2.1l5.5-3.2L-33.2,234.3 M-44.2,240.7l-5.5,3.2l0,2.1l5.5-3.2L-44.2,240.7 M-55.3,247l-5.5,3.2l0,2.1l5.5-3.2L-55.3,247
					 M-66.3,253.4l-5.5,3.2l0,2.1l5.5-3.2L-66.3,253.4 M-77.4,259.8l-5.5,3.2l0,2.1l5.5-3.2L-77.4,259.8 M-88.4,266.2l-5.5,3.2
					l0,2.1l5.5-3.2L-88.4,266.2 M-99.5,272.6l-5.5,3.2l0,2.1l5.5-3.2L-99.5,272.6 M-110.6,279l-5.5,3.2l0,2.1l5.5-3.2L-110.6,279
					 M-121.6,285.3l-5.5,3.2l0,2.1l5.5-3.2L-121.6,285.3 M-132.7,291.7l-5.5,3.2l0,2.1l5.5-3.2L-132.7,291.7 M-143.7,298.1l-5.4,3.1
					l-0.1,0.1l0,2.1l0.1-0.1l5.4-3.1L-143.7,298.1"/>
			</g>
			<g id="Group-21" transform="translate(230.000000, 120.000000)">
				<path id="Fill-19" class="st4" d="M-7.3,3.1l-139.5,80.5c-0.7,0.4-1.5,0.9-2.2,1.4c-0.6,0.4-1.2,0.9-1.8,1.4c0,0,0,0,0,0
					c0.2,0.1,0.3,0.3,0.4,0.4c2.6,0,4.9,0.9,6.6,2.7c0.9-0.6,1.7-1.2,2.6-1.7L-1.7,7.3c5.3-3.1,10.2-3.8,14-2.5
					C8.4-0.7,1.1-1.7-7.3,3.1 M-163.3,230.1l-5.5,3.2l0.1,49.8l0,2.1l0.4,156.5c0,8.2,3.4,13.6,8.5,15.3c-1.9-2.7-3-6.4-3-11.1
					L-163.3,230.1"/>
			</g>
			<g id="Group-24" transform="translate(235.000000, 124.000000)">
				
					<linearGradient id="Fill-22_1_" gradientUnits="userSpaceOnUse" x1="-340.2915" y1="528.2682" x2="-339.2915" y2="528.2682" gradientTransform="matrix(185.0552 0 0 -457.6092 62804.4102 241969.3906)">
					<stop  offset="0" style="stop-color:#E29A64"/>
					<stop  offset="1" style="stop-color:#E85E8C"/>
				</linearGradient>
				<path id="Fill-22" class="st5" d="M-6.7,3.3l-139.5,80.5c-0.9,0.5-1.8,1.1-2.6,1.7c2,2.1,3.2,5.5,3.2,9.8l0.3,97.1
					c0,11.2-7.9,24.9-17.6,30.5l-5.4,3.1l0.6,215.8c0,4.7,1.1,8.4,3,11.1c3.9,5.6,11.2,6.6,19.6,1.8l139.5-80.5
					c12.4-7.2,22.4-24.5,22.4-38.8L15.8,16.2c0-8.2-3.4-13.6-8.5-15.3C3.4-0.5-1.4,0.3-6.7,3.3 M-4.4,37c-3.6,2.1-6.5,0.4-6.5-3.7
					c0-4.1,2.9-9.1,6.4-11.1c3.6-2.1,6.5-0.4,6.5,3.7C2,30-0.9,35-4.4,37 M-99.4,82.3c-1.3,0.7-2.3,0.1-2.3-1.3c0-1.5,1-3.3,2.3-4
					l46.1-26.6c1.3-0.7,2.3-0.1,2.3,1.3c0,1.5-1,3.3-2.3,4L-99.4,82.3 M-93.3,179.4c-2.6,1.5-4.9,0.1-4.4-3.4l2.5-18.2
					c0.2-1.8-0.2-3.2-1.3-3.8l-10.6-5.7c-2.6-1.4-1.2-7.4,2.4-10.1l14.6-10.9c1.4-1.1,2.7-2.8,3.3-4.7l6.5-19c0.8-2.4,2.4-4.2,4-5.1
					c1.6-0.9,3.2-0.9,4,0.5l6.6,11.5c0.6,1.1,1.9,1.4,3.3,0.9l14.6-6c3.6-1.5,5.1,2.8,2.5,7.3l-10.6,18c-1,1.8-1.5,3.7-1.3,5.2
					l2.5,15.3c0.5,3-1.8,7-4.3,8.5c-0.7,0.4-1.4,0.6-2.1,0.6l-13.1-0.4c-0.6,0-1.4,0.2-2.1,0.6c-0.7,0.4-1.4,1-2.1,1.8l-13.1,15.5
					C-91.9,178.5-92.6,179-93.3,179.4 M-114,227.6c-2.4,1.4-4.4,0.3-4.5-2.5l0-6.7c0-2.8,2-6.3,4.4-7.7l76.9-44.4
					c2.4-1.4,4.4-0.3,4.5,2.5l0,6.7c0,2.8-2,6.3-4.4,7.7L-114,227.6 M-12.3,200.2l0-5.8l12-6.9l0,13.8l-5.1,2.9l0.1,45.6l5.1-2.9
					l0,13.8l-12,6.9l0-6.9l-127.3,73.5l0,6.9l-12,6.9l0-13.8l5.1-2.9l-0.1-45.6l-5.1,2.9l0-13.8l12-6.9l0,5.8L-12.3,200.2
					 M-121,387.7c-3.4,2-6.2,0.4-6.2-3.5l0-13.3c0-3.9,2.8-8.8,6.2-10.7l90.9-52.5c3.4-2,6.2-0.4,6.2,3.6l0,13.3
					c0,3.9-2.8,8.7-6.2,10.7L-121,387.7 M-12.3,201.3l-127.3,73.5l0,6.9l-6,3.5l0.1,45.6l6-3.5l0,5.8l127.3-73.5l0-5.8l6-3.5
					l-0.1-45.6l-6,3.5L-12.3,201.3 M-92.3,294.4l9.8-37l6.3-3.6l-9.8,37L-92.3,294.4 M-28.7,236.3l4.6-12.1l8.2-4.7l-8.3,20.4
					l9.1,9.7l-8.3,4.8l-5.2-6.5l-5.1,12.5l-8.1,4.7l8.7-20.7l-8.3-10.1l7.9-4.6L-28.7,236.3 M-59,268.4c1.5-0.8,2.5-1.9,3.2-3.3
					c0.7-1.3,1-3.1,1-5.3l-0.1-17.8l7.2-4.1l0.1,18.3c0,4-1,7.6-2.9,11c-2,3.3-4.8,6.1-8.5,8.2c-3.6,2.1-6.4,2.6-8.3,1.6
					c-1.9-1-2.9-3.5-2.9-7.5l-0.1-18.5l7.2-4.2l0.1,17.9c0,2.2,0.4,3.5,1.1,4.1C-61.4,269.3-60.4,269.2-59,268.4 M-105.5,301.7
					l-0.1-30.5l7.2-4.2l0.1,30.5L-105.5,301.7 M-125.4,306.7c1.5-0.8,2.5-1.9,3.2-3.3c0.7-1.3,1-3.1,1-5.3l-0.1-17.8l7.2-4.1
					l0.1,18.3c0,4-1,7.6-2.9,11c-2,3.3-4.8,6.1-8.5,8.2c-3.6,2.1-6.4,2.6-8.3,1.6c-1.9-1-2.9-3.5-2.9-7.5l-0.1-18.5l7.2-4.2
					l0.1,17.9c0,2.2,0.4,3.5,1.1,4.1C-127.8,307.6-126.7,307.5-125.4,306.7"/>
			</g>
			<g id="Group-27" transform="translate(302.000000, 174.000000)">
				<path id="Fill-25" class="st6" d="M-120.3,0.4L-166.5,27c-1.3,0.7-2.3,2.5-2.3,4c0,1.5,1,2.1,2.3,1.3l46.1-26.6
					c1.3-0.7,2.3-2.5,2.3-4C-118,0.3-119.1-0.3-120.3,0.4"/>
			</g>
			<g id="Group-30" transform="translate(393.000000, 145.000000)">
				<path id="Fill-28" class="st6" d="M-162.5,1.2c-3.6,2.1-6.4,7-6.4,11.1c0,4.1,2.9,5.8,6.5,3.7C-158.9,14-156,9-156,4.9
					C-156,0.8-158.9-0.9-162.5,1.2"/>
			</g>
			<g id="Group-33" transform="translate(285.000000, 289.000000)">
				<path id="Fill-31" class="st7" d="M-87.1,1.3L-164,45.7c-2.4,1.4-4.4,4.9-4.4,7.7l0,6.7c0,2.8,2,4,4.5,2.5l76.9-44.4
					c2.4-1.4,4.4-4.9,4.4-7.7l0-6.7C-82.7,1-84.7-0.1-87.1,1.3"/>
			</g>
			<g id="Group-36" transform="translate(276.000000, 430.000000)">
				<path id="Fill-34" class="st7" d="M-71.2,1.7l-90.9,52.5c-3.4,2-6.2,6.8-6.2,10.7l0,13.3c0,3.9,2.8,5.5,6.2,3.6l90.9-52.5
					c3.4-2,6.2-6.8,6.2-10.7l0-13.3C-65,1.3-67.8-0.3-71.2,1.7"/>
			</g>
			<g id="Group-39" transform="translate(437.000000, 161.000000)">
				<path id="Fill-37" class="st8" d="M-66.2,2.9l-84.5,48.8c-9.8,5.6-17.7,19.3-17.6,30.5l0.1,45.4l0,2.1l0.1,49.6
					c0,7,3.1,11.4,7.8,12.3c-2-2.1-3.1-5.4-3.1-9.7l-0.3-97.1c0-11.2,7.9-24.9,17.6-30.5l84.5-48.8c3.7-2.1,7.2-2.8,10-2.2
					C-54.7-0.2-60.1-0.6-66.2,2.9"/>
			</g>
			<g id="Group-42" transform="translate(442.000000, 164.000000)">
				<path id="Fill-40" class="st9" d="M-66.5,2.5l-84.5,48.8c-9.8,5.6-17.7,19.3-17.6,30.5l0.3,97.1c0,4.3,1.2,7.6,3.1,9.7
					c3.2,3.5,8.6,3.9,14.6,0.4l84.5-48.8c9.8-5.6,17.7-19.3,17.6-30.5l-0.3-97.1c0-7-3.1-11.3-7.7-12.3C-59.4-0.3-62.8,0.4-66.5,2.5
					 M-118.8,75.7l0-14.8l20.3-11.7l0,14.8L-118.8,75.7 M-109.4,139.2l-13.9-24.8l4.5-34.5l20.3-11.7l4.7,29.1l-13.7,40.8l-0.1-30.8
					c1.6-1.4,2.8-3.7,2.8-5.7c0-2.3-1.7-3.3-3.7-2.1c-2,1.2-3.7,4-3.7,6.4c0,2,1.2,2.9,2.8,2.5L-109.4,139.2"/>
			</g>
			<g id="Group-45" transform="translate(295.000000, 221.000000)">
				<path id="Fill-43" class="st10" d="M-136.3,1.5c-1.6,0.9-3.2,2.8-4,5.1l-6.5,19c-0.6,1.9-1.9,3.6-3.3,4.7l-14.6,10.9
					c-3.6,2.7-5.1,8.7-2.4,10.1l10.6,5.7c1,0.6,1.5,2,1.3,3.8l-2.5,18.2c-0.5,3.6,1.8,4.9,4.4,3.4c0.7-0.4,1.4-1,2.1-1.8l13.1-15.5
					c0.6-0.8,1.3-1.4,2.1-1.8c0.7-0.4,1.4-0.6,2.1-0.6l13.1,0.4c0.7,0,1.4-0.2,2.1-0.6c2.6-1.5,4.8-5.5,4.3-8.5l-2.5-15.3
					c-0.3-1.5,0.2-3.5,1.3-5.2l10.6-18c2.6-4.5,1.2-8.7-2.5-7.3l-14.6,6c-1.4,0.6-2.7,0.3-3.3-0.9L-132.3,2
					C-133.1,0.6-134.7,0.5-136.3,1.5"/>
			</g>
			<g id="Group-48" transform="translate(267.000000, 400.000000)">
				<path id="Fill-46" class="st7" d="M-146.1,0.1l-7.2,4.1l0.1,17.8c0,2.2-0.3,4-1,5.3c-0.7,1.3-1.7,2.4-3.2,3.3
					c-1.4,0.8-2.4,0.9-3.1,0.3c-0.7-0.6-1.1-1.9-1.1-4.1l-0.1-17.9l-7.2,4.2l0.1,18.5c0,4,1,6.5,2.9,7.5c1.9,1,4.7,0.5,8.3-1.6
					c3.7-2.1,6.5-4.9,8.5-8.2c2-3.3,2.9-7,2.9-11L-146.1,0.1"/>
			</g>
			<g id="Group-51" transform="translate(298.000000, 391.000000)">
				<polygon id="Fill-49" class="st7" points="-161.4,0 -168.6,4.2 -168.5,34.7 -161.3,30.5 				"/>
			</g>
			<g id="Group-54" transform="translate(311.000000, 377.000000)">
				<polygon id="Fill-52" class="st7" points="-152.2,0.8 -158.5,4.4 -168.3,41.4 -162,37.8 				"/>
			</g>
			<g id="Group-57" transform="translate(333.000000, 361.000000)">
				<path id="Fill-55" class="st7" d="M-145.7,0.8l-7.2,4.1l0.1,17.8c0,2.2-0.3,4-1,5.3c-0.7,1.3-1.7,2.4-3.2,3.3
					c-1.4,0.8-2.4,0.9-3.1,0.3c-0.7-0.6-1.1-1.9-1.1-4.1l-0.1-17.9l-7.2,4.2l0.1,18.5c0,4,1,6.5,2.9,7.5c1.9,1,4.7,0.5,8.3-1.6
					c3.7-2.1,6.5-4.9,8.5-8.2c2-3.3,2.9-7,2.9-11L-145.7,0.8"/>
			</g>
			<g id="Group-60" transform="translate(362.000000, 343.000000)">
				<polygon id="Fill-58" class="st7" points="-142.9,0.5 -151.1,5.2 -155.7,17.3 -160.5,10.6 -168.5,15.2 -160.2,25.3 -168.9,46 
					-160.8,41.3 -155.7,28.8 -150.5,35.3 -142.2,30.6 -151.3,20.8 				"/>
			</g>
			<g id="Group-63" transform="translate(257.000000, 324.000000)">
				<path id="Fill-61" class="st10" d="M-34.3,0.2l-127.3,73.5l0,1.1L-34.3,1.3L-34.3,0.2L-34.3,0.2z M-27.3,4.2l-0.9,0.5l0.1,45.6
					l0.9-0.5L-27.3,4.2L-27.3,4.2z M-167.5,85.1l-0.9,0.5l0.1,45.6l0.9-0.5L-167.5,85.1L-167.5,85.1z M-34.1,59.6l-127.3,73.5l0,1.1
					l127.3-73.5L-34.1,59.6z"/>
			</g>
			<g id="Group-66" transform="translate(253.000000, 393.000000)">
				<polygon id="Fill-64" class="st11" points="-158.5,0.5 -168.6,6.3 -168.6,18 -158.5,12.1 				"/>
			</g>
			<g id="Group-69" transform="translate(252.000000, 391.000000)">
				<path id="Fill-67" class="st10" d="M-156.6,0.9l-12,6.9l0,13.8l5.1-2.9l0.9-0.5l6-3.5l0-6.9l0-1.1L-156.6,0.9L-156.6,0.9z
					 M-167.6,20l0-11.7l10.1-5.9l0,11.7L-167.6,20z"/>
			</g>
			<g id="Group-72" transform="translate(392.000000, 313.000000)">
				<polygon id="Fill-70" class="st12" points="-158.2,0.1 -168.4,5.9 -168.3,17.6 -158.2,11.7 				"/>
			</g>
			<g id="Group-75" transform="translate(391.000000, 311.000000)">
				<path id="Fill-73" class="st10" d="M-156.3,0.5l-12,6.9l0,5.8l0,1.1l0,6.9l6-3.5l0.9-0.5l5.1-2.9L-156.3,0.5L-156.3,0.5z
					 M-167.3,19.6l0-11.7l10.1-5.9l0,11.7L-167.3,19.6z"/>
			</g>
			<g id="Group-78" transform="translate(253.000000, 452.000000)">
				<polygon id="Fill-76" class="st11" points="-158.3,0.8 -168.5,6.7 -168.4,18.3 -158.3,12.5 				"/>
			</g>
			<g id="Group-81" transform="translate(252.000000, 451.000000)">
				<path id="Fill-79" class="st10" d="M-156.4,0.2l-6,3.5l-0.9,0.5l-5.1,2.9l0,13.8l12-6.9l0-6.9l0-1.1L-156.4,0.2L-156.4,0.2z
					 M-167.4,19.3l0-11.7l10.1-5.9l0,11.7L-167.4,19.3z"/>
			</g>
			<g id="Group-84" transform="translate(392.000000, 372.000000)">
				<polygon id="Fill-82" class="st12" points="-158.1,0.4 -168.2,6.3 -168.2,17.9 -158,12.1 				"/>
			</g>
			<g id="Group-87" transform="translate(391.000000, 370.000000)">
				<path id="Fill-85" class="st10" d="M-156.1,0.8l-5.1,2.9l-0.9,0.5l-6,3.5l0,5.8l0,1.1l0,6.9l12-6.9L-156.1,0.8L-156.1,0.8z
					 M-167.2,19.9l0-11.7l10.1-5.9l0,11.7L-167.2,19.9z"/>
			</g>
			<g id="Group-90" transform="translate(132.000000, 204.000000)">
				<path id="Fill-88" class="st13" d="M-66.8,2.6l-84.5,48.8c-9.8,5.6-17.7,19.3-17.6,30.5l0.3,97.1c0,7.9,4,12.5,9.8,12.5
					c-2.1-2.1-3.3-5.5-3.3-9.9l-0.3-97.1c0-11.2,7.9-24.9,17.6-30.5l84.5-48.8c2.9-1.6,5.6-2.4,7.9-2.4c-0.1-0.1-0.3-0.3-0.4-0.4
					C-56.1-0.5-61.1-0.7-66.8,2.6"/>
			</g>
			<g id="Group-93" transform="translate(138.000000, 206.000000)">
				<path id="Fill-91" class="st14" d="M-66.3,3.2L-150.9,52c-9.8,5.6-17.7,19.3-17.6,30.5l0.3,97.1c0,4.4,1.2,7.8,3.3,9.9
					c3.2,3.3,8.5,3.6,14.4,0.2l73.6-42.5l5.5-3.2l5.4-3.1c9.8-5.6,17.7-19.3,17.6-30.5l-0.3-97.1c0-4.3-1.2-7.7-3.2-9.8
					c-1.7-1.8-3.9-2.7-6.6-2.7C-60.8,0.8-63.5,1.6-66.3,3.2 M-151,91.3c-1.7,1-3.1,0.2-3.1-1.8l0-7.7c0-2,1.4-4.4,3.1-5.4l6.7-3.9
					c1.7-1,3.1-0.2,3.1,1.8l0,7.7c0,2-1.4,4.4-3.1,5.4L-151,91.3 M-129,73.5c-1.1,0.7-2.1,0.1-2.1-1.2c0-1.3,0.9-2.9,2.1-3.6
					l64.1-37c1.2-0.7,2.1-0.1,2.1,1.2c0,1.3-0.9,2.9-2.1,3.6L-129,73.5 M-152,104.9c-1.1,0.7-2.1,0.1-2.1-1.2c0-1.3,0.9-2.9,2.1-3.6
					l48.4-28c1.1-0.7,2.1-0.1,2.1,1.2c0,1.3-0.9,2.9-2.1,3.6L-152,104.9 M-152,117.6c-1.1,0.7-2.1,0.1-2.1-1.2
					c0-1.3,0.9-2.9,2.1-3.6l48.4-28c1.1-0.7,2.1-0.1,2.1,1.2c0,1.3-0.9,2.9-2.1,3.6L-152,117.6 M-150.9,140c-1.7,1-3.1,0.2-3.1-1.8
					l0-7.7c0-2,1.4-4.4,3.1-5.4l6.7-3.9c1.7-1,3.1-0.2,3.1,1.8l0,7.7c0,2-1.4,4.4-3.1,5.4L-150.9,140 M-128.9,122.3
					c-1.1,0.7-2.1,0.1-2.1-1.2c0-1.3,0.9-2.9,2.1-3.6l64.1-37c1.2-0.7,2.1-0.1,2.1,1.2c0,1.3-0.9,2.9-2.1,3.6L-128.9,122.3
					 M-151.9,153.6c-1.1,0.7-2.1,0.1-2.1-1.2c0-1.3,0.9-2.9,2.1-3.6l48.4-28c1.1-0.7,2.1-0.1,2.1,1.2c0,1.3-0.9,2.9-2.1,3.6
					L-151.9,153.6 M-151.9,166.3c-1.1,0.7-2.1,0.1-2.1-1.2c0-1.3,0.9-2.9,2.1-3.6l48.4-28c1.1-0.7,2.1-0.1,2.1,1.2
					c0,1.3-0.9,2.9-2.1,3.6L-151.9,166.3"/>
			</g>
			<g id="Group-96" transform="translate(175.000000, 237.000000)">
				<path id="Fill-94" class="st15" d="M-101.9,0.8l-64.1,37c-1.1,0.7-2.1,2.3-2.1,3.6c0,1.3,0.9,1.8,2.1,1.2l64.1-37
					c1.2-0.7,2.1-2.3,2.1-3.6C-99.9,0.6-100.8,0.1-101.9,0.8"/>
			</g>
			<g id="Group-99" transform="translate(152.000000, 277.000000)">
				<path id="Fill-97" class="st15" d="M-117.6,1.1l-48.4,28c-1.1,0.7-2.1,2.3-2.1,3.6c0,1.3,0.9,1.8,2.1,1.2l48.4-28
					c1.1-0.7,2.1-2.3,2.1-3.6C-115.5,1-116.5,0.5-117.6,1.1"/>
			</g>
			<g id="Group-102" transform="translate(152.000000, 290.000000)">
				<path id="Fill-100" class="st15" d="M-117.6,0.9l-48.4,28c-1.1,0.7-2.1,2.3-2.1,3.6c0,1.3,0.9,1.8,2.1,1.2l48.4-28
					c1.1-0.7,2.1-2.3,2.1-3.6C-115.5,0.7-116.4,0.2-117.6,0.9"/>
			</g>
			<g id="Group-105" transform="translate(152.000000, 278.000000)">
				<path id="Fill-103" class="st15" d="M-158.4,0.6l-6.7,3.9c-1.7,1-3.1,3.4-3.1,5.4l0,7.7c0,2,1.4,2.8,3.1,1.8l6.7-3.9
					c1.7-1,3.1-3.4,3.1-5.4l0-7.7C-155.3,0.4-156.7-0.4-158.4,0.6"/>
			</g>
			<g id="Group-108" transform="translate(176.000000, 286.000000)">
				<path id="Fill-106" class="st15" d="M-102.8,0.5l-64.1,37c-1.1,0.7-2.1,2.3-2.1,3.6c0,1.3,0.9,1.8,2.1,1.2l64.1-37
					c1.2-0.7,2.1-2.3,2.1-3.6C-100.7,0.4-101.6-0.2-102.8,0.5"/>
			</g>
			<g id="Group-111" transform="translate(153.000000, 326.000000)">
				<path id="Fill-109" class="st15" d="M-118.5,0.9l-48.4,28c-1.1,0.7-2.1,2.3-2.1,3.6c0,1.3,0.9,1.8,2.1,1.2l48.4-28
					c1.1-0.7,2.1-2.3,2.1-3.6C-116.4,0.8-117.3,0.2-118.5,0.9"/>
			</g>
			<g id="Group-114" transform="translate(153.000000, 339.000000)">
				<path id="Fill-112" class="st15" d="M-118.4,0.6l-48.4,28c-1.1,0.7-2.1,2.3-2.1,3.6c0,1.3,0.9,1.8,2.1,1.2l48.4-28
					c1.1-0.7,2.1-2.3,2.1-3.6C-116.4,0.5-117.3-0.1-118.4,0.6"/>
			</g>
			<g id="Group-117" transform="translate(152.000000, 326.000000)">
				<path id="Fill-115" class="st15" d="M-158.2,1.3l-6.7,3.9c-1.7,1-3.1,3.4-3.1,5.4l0,7.7c0,2,1.4,2.8,3.1,1.8l6.7-3.9
					c1.7-1,3.1-3.4,3.1-5.4l0-7.7C-155.1,1.1-156.5,0.3-158.2,1.3"/>
			</g>
			<g id="Group-120" transform="translate(492.000000, 213.000000)">
				<polygon id="Fill-118" class="st10" points="-148.6,0.2 -168.9,11.9 -168.8,26.7 -148.5,15 				"/>
			</g>
			<g id="Group-123" transform="translate(487.000000, 232.000000)">
				<path id="Fill-121" class="st10" d="M-143.5,0.3L-163.8,12l-4.5,34.5l13.9,24.8l-0.1-30.8c-1.6,0.4-2.8-0.5-2.8-2.5
					c0-2.3,1.6-5.2,3.7-6.4c2-1.2,3.7-0.2,3.7,2.1c0,2-1.2,4.3-2.8,5.7l0.1,30.8l13.7-40.8L-143.5,0.3"/>
			</g>
			<g id="Group-126" transform="translate(0.000000, 497.000000)">
				<path id="Fill-124" class="st1" d="M-150,2.6c-10.2,5.9-18.4,20.1-18.4,31.8c0,11.7,8.3,16.4,18.5,10.6
					c10.2-5.9,18.4-20.1,18.4-31.9C-131.5,1.5-139.8-3.3-150,2.6"/>
			</g>
			<g id="Group-129" transform="translate(552.000000, 312.000000)">
				<path id="Fill-127" class="st1" d="M-148.3,3.3C-159.2,9.6-168,24.9-168,37.5c0,12.6,9,17.7,19.9,11.3
					c10.9-6.3,19.8-21.7,19.8-34.2C-128.4,2-137.3-3.1-148.3,3.3 M-148.1,45.6c-9.4,5.4-17.1,1.1-17.1-9.8c0-10.8,7.6-24,17-29.5
					c9.4-5.4,17.1-1.1,17.1,9.8C-131.1,27-138.7,40.2-148.1,45.6"/>
			</g>
		</g>
		<path id="Fill-131" class="st16" d="M307.2,460.4c0,0-0.4,29.5-2,35.2s-7.2,14.2-7.2,14.2l-0.7-47.2L307.2,460.4z"/>
		<path id="Fill-133" class="st17" d="M292,419.4c0,0,13.8,2.6,15.7,11.9c1.9,9.3,1,28.2,0.6,30s-3.3,3.2-6.6,3.3
			C298.5,464.8,292,419.4,292,419.4"/>
		<path id="Fill-135" class="st18" d="M256.3,648.1c33.2-3.7,66.3,6,73.9,21.7c7.6,15.6-13.1,31.3-46.3,34.9
			c-33.2,3.7-66.3-6-73.9-21.7C202.4,667.4,223.2,651.7,256.3,648.1"/>
		<path id="Fill-137" class="st19" d="M285.2,663.1c0,0,7.9,1.8,11.9,3.9c2.3,1.2,1.5,4.6,1.3,6.6c-0.3,3-3.8,7.3-13.9,2.7
			c-10.5-4.8-14.6-6.3-15-9.3c-0.4-3.3,0.6-7,3.5-7.5C276.6,658.9,285.2,663.1,285.2,663.1"/>
		<path id="Fill-139" class="st16" d="M274,542c0,0,1.1,26.2,4.4,51.4c3.3,25.2,8.8,76.1,8.8,76.1s1.7,4.3,7.5,1.7
			c3.9-1.8,2.4-6,2.8-8.6c0.7-5,2.5-38.9,1.2-44.5c-1.8-7.5-4.1-13.5-2.8-18.2c1.3-4.7,0.7-56.3,0.7-56.3L274,542z"/>
		<path id="Fill-141" class="st19" d="M261.6,673c0,0,7.9,1.8,11.9,3.9c2.3,1.2,1.5,4.6,1.3,6.6c-0.3,3-3.8,7.3-13.9,2.7
			c-10.5-4.8-14.6-6.3-15-9.3c-0.4-3.3,0.6-7,3.5-7.5C253,668.8,261.6,673,261.6,673"/>
		<path id="Fill-143" class="st16" d="M250.4,551.9c0,0,1.1,26.2,4.4,51.4c3.3,25.2,8.8,76.1,8.8,76.1s1.7,4.3,7.5,1.7
			c3.9-1.8,2.4-6,2.8-8.6c0.7-5,2.5-38.9,1.2-44.5c-1.8-7.5-4.1-13.5-2.8-18.2c1.3-4.7,0.7-56.3,0.7-56.3L250.4,551.9z"/>
		<path id="Fill-145" class="st20" d="M280.6,415.3c8.8-0.2,21.5,6.4,24.4,14.4c3,8-3.3,58.1-2.6,66.5c0.7,8.4,11.7,55.1,12.2,70.5
			c0.6,15.4,0.4,18.4,0.4,18.4s-5.6,12.4-28.8,14.3c-31.8,2.6-44.8-8.7-47.7-15c-2.9-6.4,4.4-55.9,7.5-69.4
			c3.1-13.5,5.7-38.7,2.8-49.5c-2.9-10.8-5.2-30.9,4.7-39.9C265.7,414.3,271.8,415.5,280.6,415.3"/>
		<path id="Fill-147" class="st21" d="M251.7,477.2c0,0-18.3-5.4-33.1-11.3c-8.5-3.4-18.3-7.8-20.4-8.8c-5.3-2.6-16.2-8.1-16.2-8.1
			s-5.8-1.7-8-2c-6.6-0.7-18.5-3.5-16.8-14.3c1.4-9.1,14.2-1.9,23.6,4.8c1.6,1.1,12.4,3.5,20.8,6.2c9.9,3.2,11.9,4.8,22.9,8.3
			c13.8,4.4,31.6,6.7,31.6,6.7L251.7,477.2z"/>
		<path id="Fill-149" class="st17" d="M267.7,431.9c-3.1-6-12.7-9.6-18.7-0.4c-6,9.2-6.6,41.9-2.7,44.5c2.5,1.7,6.2,2.6,11.4,2.9
			c6.3,0.4,10.1-3,11.9-4.9C272.3,471,273,442,267.7,431.9"/>
		<path id="Fill-151" class="st21" d="M250.9,379.2c0,0-2.7,27.4,7.6,29.7c12.8,2.9,21.6-4.7,21.6-4.7s5.8-32.6-6.4-36.1
			C261.4,364.6,252.7,369.9,250.9,379.2"/>
		<path id="Fill-153" class="st22" d="M255.6,358.8c0,0-7,6.4-7,16.9c0,10.5,5.2,12.8,10.5,12.2s2.9,8.7,2.9,12.2
			c0,2.2-5.4,6.4-8.5,14.6c-1.9,4.9-2.4,9.1-2.5,11.3c-0.4,6.1,2.7-2.5,9.1,1.6c6.4,4.1,8.7,11.6,18.6,8.7c9.9-2.9,8.2-1.2,12.2-0.6
			c4.1,0.6,12.8,3.5,12.2-5.8c-0.6-9.3-0.3-7.4-0.3-15.5c0-8.2,13.4-48.6-5.2-57.9C281.3,348.4,261.4,347.7,255.6,358.8"/>
	</g>
</g>
</svg>
