<?xml version="1.0" encoding="UTF-8"?>
<svg width="40px" height="40px" viewBox="0 0 40 40" version="1.1" xmlns="http://www.w3.org/2000/svg" xmlns:xlink="http://www.w3.org/1999/xlink">
    <!-- Generator: sketchtool 63.1 (101010) - https://sketch.com -->
    <title>0ADD6F24-DF25-4CFE-997B-CEBA43227BFD</title>
    <desc>Created with sketchtool.</desc>
    <g id="Services" stroke="none" stroke-width="1" fill="none" fill-rule="evenodd">
        <g transform="translate(-961.000000, -2295.000000)" fill="#1F1F20" id="Group-18-Copy">
            <g transform="translate(941.000000, 2006.000000)">
                <g id="list-copy-5" transform="translate(0.000000, 271.000000)">
                    <g id="Group-14" transform="translate(20.000000, 18.000000)">
                        <g id="iOS">
                            <g id="grey_grad">
                                <g id="designer">
                                    <path d="M3.79980636,36.2001936 C2.73339788,35.1337852 2.73339788,33.4047954 3.79980636,32.3383869 L11.4530384,24.6851549 L12.9012545,26.1334946 L13.7404517,25.2940966 C15.3877233,23.646825 18.0504693,23.6280611 19.7444405,25.2305458 L19.8326916,25.316384 L27.0522085,32.535901 C28.1823697,33.6660621 29.9929242,33.6971646 31.1447831,32.6243095 L33.4375385,30.334195 C33.7624541,30.0092793 33.7760842,29.4902579 33.4797732,29.1446918 L33.4330022,29.0942037 L30.7128803,31.8143256 C30.0096739,32.517532 28.8695509,32.517532 28.1663445,31.8143256 L16.2051736,19.8542785 C15.5635537,20.2352763 14.7361523,20.1831508 14.1453671,19.6979019 L13.9854227,19.5502308 C13.3910868,18.955895 13.2990716,18.0494571 13.709377,17.3584818 L12.0612514,15.7102218 L11.7373942,16.0335512 C11.0755528,16.6953926 10.0266851,16.7343244 9.31931119,16.1503467 L9.16285636,16.0055492 C8.45964991,15.3023428 8.45964991,14.1622198 9.16285636,13.4590134 L9.48658163,13.135552 L8.18567445,11.8336555 C7.48246799,11.1304491 7.48246799,9.99032613 8.18567445,9.28711968 L13.9453893,3.52740484 C14.6485957,2.82419839 15.7887187,2.82419839 16.4919251,3.52740484 L17.7925644,4.82956929 L18.7562254,3.8656444 C19.4180667,3.20380303 20.4669345,3.16487118 21.1743083,3.74884886 L21.3307632,3.89364636 C22.0339696,4.59685282 22.0339696,5.73697575 21.3307632,6.44018221 L20.3672341,7.40423906 L27.1258428,14.1628477 L27.1305114,14.1567575 C27.8337179,13.4535511 28.9738408,13.4535511 29.6770472,14.1567575 L29.7050492,14.1847595 C30.3668906,14.8466009 30.4058224,15.8954686 29.8218447,16.6028425 L29.6997087,16.7367136 L32.5967146,19.6337195 L33.5598178,18.6692368 C34.2216592,18.0073955 35.2705269,17.9684636 35.9779008,18.5524413 L36.1343556,18.6972388 C36.8375621,19.4004453 36.8375621,20.5405682 36.1343556,21.2437746 L35.1705805,22.2075854 L36.4725952,23.5080749 C37.1758016,24.2112813 37.1758016,25.3514043 36.4725952,26.0546107 L34.3914157,28.1357902 C35.2452112,28.9895857 35.2725924,30.3549887 34.469893,31.22981 L32.1860349,33.5166019 C30.5387633,35.1638735 27.8760173,35.1826374 26.1820461,33.5801528 L18.8742781,26.2747976 C17.7441169,25.1446364 15.9335624,25.113534 14.7817035,26.186389 L13.8666552,27.0988953 L15.3148451,28.5469616 L7.66161308,36.2001936 C6.5952046,37.2666021 4.86621484,37.2666021 3.79980636,36.2001936 Z" id="Path"></path>
                                </g>
                            </g>
                        </g>
                    </g>
                </g>
            </g>
        </g>
    </g>
</svg>