<?xml version="1.0" encoding="UTF-8"?>
<svg width="40px" height="40px" viewBox="0 0 40 40" version="1.1" xmlns="http://www.w3.org/2000/svg" xmlns:xlink="http://www.w3.org/1999/xlink">
    <!-- Generator: sketchtool 63.1 (101010) - https://sketch.com -->
    <title>88361939-EF68-4DB9-B537-D8BF1660F9F4</title>
    <desc>Created with sketchtool.</desc>
    <g id="Services" stroke="none" stroke-width="1" fill="none" fill-rule="evenodd">
        <g transform="translate(-989.000000, -4341.000000)" fill="#1F1F20" fill-rule="nonzero" id="Group-18-Copy-3">
            <g transform="translate(969.000000, 3952.000000)">
                <g id="list-copy-5" transform="translate(0.000000, 371.000000)">
                    <g id="Group-14" transform="translate(20.000000, 18.000000)">
                        <g id="iOS">
                            <g id="grey_grad">
                                <g id="devops">
                                    <path d="M27.9908271,10.5296908 L27.9908271,7.74786217 C27.9908271,7.08293108 27.1783144,6.74990577 26.7031996,7.22011183 L21.7355654,12.1354819 C21.4410183,12.426935 21.4410183,12.8994548 21.7355654,13.1909825 L26.7031996,18.1063526 C27.1783144,18.5765586 27.9908271,18.2435333 27.9908271,17.5786022 L27.9908271,14.8037893 C31.134147,14.8418537 33.6798491,17.3807425 33.6798491,20.4999254 C33.6798491,23.6428424 31.0962066,26.1997185 27.92,26.1997185 C24.743718,26.1997185 22.1600754,23.6428424 22.1600754,20.4999254 C22.1600754,14.9999325 17.6380787,10.5261829 12.0800754,10.5261829 C6.52199675,10.5261829 2,14.9999325 2,20.4999254 C2,25.9606598 6.45886334,30.4044803 11.962332,30.4678462 L11.962332,33.2521378 C11.962332,33.9170689 12.7747693,34.2500942 13.2498916,33.7798882 L18.2175257,28.8645181 C18.5120654,28.5729904 18.5120654,28.1004706 18.2175257,27.8090175 L13.2498916,22.8936474 C12.7747693,22.4234414 11.962332,22.7564667 11.962332,23.4213978 L11.962332,26.1937477 C8.84073543,26.1309043 6.32015086,23.6035093 6.32015086,20.4999254 C6.32015086,17.3570829 8.90379341,14.8002068 12.0800754,14.8002068 C15.256282,14.8002068 17.8399246,17.3570829 17.8399246,20.4999254 C17.8399246,26 22.3619213,30.4737424 27.92,30.4737424 C33.4780032,30.4737424 38,26 38,20.4999254 C38,15.023592 33.5160191,10.5679044 27.9908271,10.5296908 Z" id="Path"></path>
                                </g>
                            </g>
                        </g>
                    </g>
                </g>
            </g>
        </g>
    </g>
</svg>