<?xml version="1.0" encoding="utf-8"?>
<!-- Generator: Adobe Illustrator 23.0.0, SVG Export Plug-In . SVG Version: 6.00 Build 0)  -->
<svg version="1.1" id="Layer_1" xmlns="http://www.w3.org/2000/svg" xmlns:xlink="http://www.w3.org/1999/xlink" x="0px" y="0px"
	 viewBox="0 0 940 740" style="enable-background:new 0 0 940 740;" xml:space="preserve">
<style type="text/css">
	.st0{fill:url(#Path_1_);}
	.st1{fill:#FCFCFC;}
	.st2{fill:#CDCDCD;}
	.st3{fill:#C6C6C6;}
	.st4{fill:#E0E0E0;}
	.st5{fill:url(#SVGID_1_);}
	.st6{fill:#EBEBEB;}
	.st7{fill:#8E8E8E;}
	.st8{fill-rule:evenodd;clip-rule:evenodd;fill:url(#SVGID_2_);}
	.st9{fill:#127171;}
	.st10{fill:#1BAFAF;}
	.st11{fill-rule:evenodd;clip-rule:evenodd;fill:url(#SVGID_3_);}
	.st12{fill:#DD495B;}
	.st13{fill:none;}
	.st14{fill:#E76B83;}
	.st15{fill:#E96575;}
	.st16{fill:#BC4452;}
	.st17{fill:#FE98A4;}
	.st18{fill-rule:evenodd;clip-rule:evenodd;fill:url(#SVGID_4_);}
	.st19{fill-rule:evenodd;clip-rule:evenodd;fill:url(#SVGID_5_);}
	.st20{fill:#B3B3B3;}
	.st21{fill:#FFFFFF;}
	.st22{fill:#FBFBFB;}
	.st23{fill:#E8E8E8;}
	.st24{fill:#E1E1E1;}
	.st25{fill:url(#SVGID_6_);}
	.st26{fill:url(#Oval_1_);}
	.st27{fill:url(#SVGID_7_);}
	.st28{fill:url(#SVGID_8_);}
	.st29{fill:url(#SVGID_9_);}
	.st30{fill:url(#SVGID_10_);}
	.st31{fill:url(#SVGID_11_);}
	.st32{fill:url(#SVGID_12_);}
	.st33{fill:url(#SVGID_13_);}
	.st34{fill-rule:evenodd;clip-rule:evenodd;fill:url(#SVGID_14_);}
	.st35{fill:url(#SVGID_15_);}
	.st36{fill:url(#SVGID_16_);}
	.st37{fill-rule:evenodd;clip-rule:evenodd;fill:url(#SVGID_17_);}
	.st38{fill:url(#SVGID_18_);}
	.st39{fill:url(#SVGID_19_);}
	.st40{fill:url(#SVGID_20_);}
	.st41{opacity:0.53;fill:#0031BA;enable-background:new    ;}
	.st42{fill-rule:evenodd;clip-rule:evenodd;fill:url(#SVGID_21_);}
	.st43{fill-rule:evenodd;clip-rule:evenodd;fill:url(#SVGID_22_);}
	.st44{fill-rule:evenodd;clip-rule:evenodd;fill:url(#SVGID_23_);}
	.st45{fill-rule:evenodd;clip-rule:evenodd;fill:#BC4452;}
	.st46{fill:#E6757D;}
	.st47{fill-rule:evenodd;clip-rule:evenodd;fill:url(#SVGID_24_);}
	.st48{opacity:0.53;fill:#FE98A4;enable-background:new    ;}
	.st49{fill-rule:evenodd;clip-rule:evenodd;fill:url(#SVGID_25_);}
	.st50{fill-rule:evenodd;clip-rule:evenodd;fill:url(#SVGID_26_);}
	.st51{opacity:0.53;}
	.st52{opacity:0.4;}
	.st53{fill:#0031BA;}
	.st54{opacity:0.4;fill:#0031BA;enable-background:new    ;}
</style>
<title>dm</title>
<desc>Created with Sketch.</desc>
<g id="dm">
	<g transform="translate(216.000000, 58.000000)">
		
			<linearGradient id="Path_1_" gradientUnits="userSpaceOnUse" x1="-145.2365" y1="611.3066" x2="-144.9863" y2="611.9528" gradientTransform="matrix(353.0215 0 0 -465.7282 51746.6797 285095.6563)">
			<stop  offset="0" style="stop-color:#FFFFFF;stop-opacity:0"/>
			<stop  offset="1" style="stop-color:#FFFFFF"/>
		</linearGradient>
		<polygon id="Path" class="st0" points="698.6,203.4 697.8,465.7 345.5,262.3 346.3,0 		"/>
		<g id="Group" transform="translate(118.808214, 229.561633)">
			<polygon class="st1" points="283.4,21.7 283.5,179.9 247.6,200.3 247.5,42.1 			"/>
			<polygon class="st2" points="247.6,200.3 210.6,178.8 210.4,20.6 247.5,42.1 			"/>
			<polygon class="st3" points="247.5,42.1 210.4,20.6 246.3,0.1 283.4,21.7 			"/>
		</g>
		<g transform="translate(65.397257, 315.095876)">
			<polygon class="st1" points="283.4,21.5 283.5,125.2 247.7,145.6 247.5,42 			"/>
			<polygon class="st2" points="247.7,145.6 210.6,124.1 210.5,20.4 247.5,42 			"/>
			<polygon class="st3" points="247.5,42 210.5,20.4 246.4,0 283.4,21.5 			"/>
		</g>
		<g transform="translate(10.068493, 395.643818)">
			<polygon class="st1" points="283.3,22.5 283.5,76.7 247.6,97.1 247.4,42.9 			"/>
			<polygon class="st2" points="247.6,97.1 210.5,75.6 210.4,21.4 247.4,42.9 			"/>
			<polygon class="st3" points="247.4,42.9 210.4,21.4 246.3,1 283.3,22.5 			"/>
		</g>
		<path id="Shape" class="st4" d="M641.8,191.9c0,31.2-22.2,43.8-49.4,28.2s-49.1-53.7-49-84.9c0.1-31.2,22.2-43.8,49.3-28.2
			S641.8,160.7,641.8,191.9z M592.4,208c21.4,12.4,38.9,2.5,38.9-22.2c0.1-24.6-17.2-54.6-38.8-66.9s-38.8-2.4-38.9,22.2
			C553.6,165.6,570.9,195.7,592.4,208"/>
		
			<linearGradient id="SVGID_1_" gradientUnits="userSpaceOnUse" x1="-153.8391" y1="626.5266" x2="-154.65" y2="627.5632" gradientTransform="matrix(53.4442 0 0 -68.7646 8228.6953 42283.0469)">
			<stop  offset="4.000000e-02" style="stop-color:#FFFDF5"/>
			<stop  offset="1" style="stop-color:#EFEBDA"/>
		</linearGradient>
		<path class="st5" d="M619.3,178.9c0,17-12.1,23.8-26.8,15.3c-14.7-8.5-26.7-29.1-26.6-46.1c0-17.1,12.1-23.8,26.8-15.3
			S619.3,162,619.3,178.9z M592.6,182.1c8.9,5.1,16.1,1.1,16.1-9.3s-7.2-22.8-16.1-28s-16.3-1-16.3,9.3c0,10.3,7.2,22.8,16.1,28"/>
		<path class="st2" d="M592.4,208.1c21.4,12.4,38.9,2.5,38.9-22.2c0.1-24.6-17.2-54.6-38.8-67s-38.8-2.4-38.9,22.2
			C553.6,165.6,571,195.7,592.4,208.1z M592.4,194.2c-14.8-8.5-26.7-29.2-26.6-46.1c0-17,12.1-23.8,26.8-15.3s26.7,29.2,26.6,46.1
			C619.2,195.9,607.2,202.7,592.4,194.2"/>
		<path class="st6" d="M530.7,127.8c-0.1,39.2,27.5,87,61.6,106.7s61.9,3.9,62-35.3c0.1-39.2-27.6-87-61.6-106.7
			S530.9,88.6,530.7,127.8z M592.4,220c-27.2-15.7-49.1-53.7-49-84.9c0.1-31.2,22.2-43.8,49.3-28.2s49.1,53.7,49,84.9
			C641.7,223,619.6,235.6,592.4,220"/>
		<path class="st7" d="M576.4,154.1c0-10.3,7.3-14.4,16.3-9.3c9,5.2,16.2,17.7,16.1,28c-0.1,10.3-7.2,14.4-16.1,9.3
			S576.3,164.4,576.4,154.1z"/>
		<path class="st2" d="M587.7,89.8c-1-0.5-2-0.9-2.9-1.3l-1-0.5l-2.7-1l-0.7-0.3c-1.1-0.4-2.2-0.7-3.3-1l-2-0.5l-0.9-0.2
			c-0.9-0.2-1.9-0.4-2.8-0.5c-1.4-0.2-2.8-0.3-4.1-0.4h-0.8c-1.2-0.1-2.4-0.1-3.6,0h-0.6c-0.9,0-1.9,0.2-2.8,0.3l-0.9,0.1
			c-1,0.2-2.1,0.4-3.1,0.7h-0.1c-0.9,0.3-1.9,0.6-2.8,1l-0.8,0.3c-0.8,0.3-1.5,0.7-2.3,1.1l-0.7,0.4l16.4-9.5
			c0.1-0.1,0.2-0.1,0.3-0.2l0.4-0.2c0.7-0.4,1.5-0.8,2.3-1.1l0.4-0.2l0.4-0.1c0.9-0.4,1.8-0.7,2.8-1h0.1l0,0c1-0.3,2-0.5,3.1-0.7
			h0.4h0.5c0.9-0.1,1.9-0.2,2.8-0.3h0.4h0.2c1.2,0,2.4,0,3.6,0h0.3h0.5c1.3,0,2.7,0.2,4.1,0.4l0,0c0.9,0.1,1.9,0.3,2.8,0.5l0.9,0.2
			l1.7,0.4h0.2c1.1,0.3,2.2,0.6,3.3,1l0.7,0.2c0.9,0.3,1.8,0.7,2.7,1l0.4,0.1c0.2,0.1,0.5,0.2,0.7,0.3c1,0.4,2,0.9,2.9,1.3l1.1,0.5
			c1.3,0.7,2.6,1.3,4,2c1.6,0.9,3.3,2,4.9,3.1l0.8,0.6c1.5,1,3,2.2,4.6,3.3l0.9,0.7c1.5,1.2,3,2.4,4.5,3.7l0.4,0.3
			c1.4,1.3,2.8,2.6,4.2,4l0.4,0.4l0.3,0.3c1.1,1,2.1,2.1,3.1,3.2l0.2,0.2c1,1,1.9,2,2.9,3.2l0.3,0.3l0.3,0.4
			c1.6,1.8,3.1,3.6,4.6,5.5l0.1,0.2l0.3,0.4c1.2,1.5,2.3,3.1,3.4,4.7c0.1,0.1,0.2,0.3,0.3,0.5c0.1,0.1,0.1,0.1,0.1,0.2
			c1.1,1.5,2,3.1,3.1,4.7l0.3,0.4l0.4,0.7c0.8,1.3,1.6,2.6,2.4,4l0.4,0.6l0.1,0.2c0.9,1.5,1.7,3.1,2.6,4.6l0.2,0.4l0.4,0.8
			c0.6,1.2,1.3,2.5,1.9,3.7c0.1,0.3,0.3,0.5,0.4,0.8c0.1,0.3,0.1,0.3,0.2,0.5c0.8,1.6,1.5,3.2,2.2,4.8v0.2l0.2,0.5
			c0.6,1.4,1.2,2.9,1.8,4.3l0.3,0.7c0,0.2,0.1,0.4,0.2,0.6c0.6,1.7,1.3,3.4,1.8,5.2c0,0,0,0.2,0,0.3c0.6,1.8,1.1,3.5,1.6,5.3
			c0,0.2,0.1,0.4,0.2,0.7c0.1,0.2,0,0.2,0,0.4c0.6,2,1.1,4,1.5,6.2c0,0.2,0,0.4,0.1,0.5c0.1,0.2,0.1,0.5,0.2,0.8
			c0.2,0.8,0.3,1.6,0.5,2.4l0.3,1.7c0.1,0.8,0.3,1.6,0.4,2.5c0,0.4,0.1,0.8,0.2,1.2c0,0,0,0.2,0,0.3c0.2,1.8,0.4,3.5,0.5,5.3v1.1
			c0.1,1.8,0.2,3.6,0.2,5.4c0,19.5-6.9,33.2-18,39.7l-16.4,9.5c11.1-6.4,18-20.1,18.1-39.6c0-1.8-0.1-3.6-0.2-5.4v-1.1
			c-0.1-1.8-0.3-3.5-0.5-5.3c0-0.5-0.1-1-0.2-1.5c-0.1-0.8-0.2-1.7-0.4-2.5l-0.3-1.7c-0.1-0.8-0.3-1.6-0.5-2.4
			c0-0.4-0.2-0.9-0.3-1.3c-0.4-2-0.9-4-1.5-6.2c0-0.3-0.2-0.7-0.3-1c-0.5-1.8-1-3.5-1.6-5.3l-0.1-0.4c-0.6-1.7-1.2-3.4-1.9-5.1
			c-0.2-0.4-0.3-0.9-0.5-1.3c-0.6-1.4-1.1-2.9-1.8-4.3c-0.1-0.2-0.2-0.4-0.3-0.7c-0.7-1.6-1.4-3.2-2.2-4.8l-0.6-1.2L639,144
			c-0.2-0.4-0.4-0.7-0.6-1.1c-0.8-1.6-1.7-3.1-2.6-4.6l-0.5-0.8c-0.8-1.3-1.6-2.6-2.4-4l-0.7-1.1c-1-1.6-2-3.1-3.1-4.7l-0.5-0.7
			c-1.1-1.6-2.3-3.1-3.4-4.7l-0.5-0.6c-1.5-1.9-3-3.7-4.5-5.5l-0.6-0.7c-0.9-1.1-1.9-2.1-2.9-3.2l-0.2-0.2c-1-1.1-2-2.2-3.2-3.2
			l-0.7-0.7c-1.3-1.3-2.8-2.7-4.2-3.9c-0.1-0.1-0.2-0.2-0.4-0.3c-1.5-1.3-3-2.5-4.5-3.7l-0.9-0.7c-1.5-1.1-3-2.3-4.6-3.3l-0.8-0.5
			c-1.6-1.1-3.2-2-4.9-3.1c-1.3-0.8-2.6-1.4-4-2C588.2,90.2,588,90,587.7,89.8z"/>
		
			<linearGradient id="SVGID_2_" gradientUnits="userSpaceOnUse" x1="-145.0078" y1="611.9421" x2="-144.0078" y2="611.9421" gradientTransform="matrix(141.0999 0 0 -158.3371 20679.8418 97130.6016)">
			<stop  offset="0" style="stop-color:#E29A64"/>
			<stop  offset="1" style="stop-color:#E85E8C"/>
		</linearGradient>
		<polygon class="st8" points="329.5,183.3 360.4,158.3 354.2,197.3 345.1,192.2 327.7,222.3 314.3,214.6 275.1,282.6 252.3,269.6 
			225.1,316.6 219.3,313.3 252.2,256.1 275,269.2 314.3,201.2 327.7,208.9 339.3,188.8 		"/>
		<path class="st9" d="M271,168.3c0-0.6,0-1.2,0-1.8C271,167.1,271,167.7,271,168.3z"/>
		<path class="st10" d="M265.8,189.3c0.4-1,0.8-2,1.2-2.9c0.9-2.3,1.6-4.6,2.2-6.9c-0.6,2.3-1.4,4.6-2.2,6.9
			C266.6,187.4,266.2,188.3,265.8,189.3z"/>
		<g transform="translate(0.000000, 143.931500)">
			<path class="st10" d="M262,2.9c1.9,1.1,3.6,2.6,4.9,4.5C265.6,5.6,263.9,4.1,262,2.9L262,2.9z"/>
			<path class="st10" d="M255.7,1.1c2.2,0.2,4.4,0.9,6.3,2C260.1,1.9,257.9,1.3,255.7,1.1z"/>
			<path class="st10" d="M254.8,1.1c-2.2-0.1-4.4,0.2-6.5,0.8c-0.6,0.2-1.3,0.4-1.9,0.6c0.6-0.2,1.3-0.4,1.9-0.6
				C250.4,1.3,252.6,1,254.8,1.1z"/>
			
				<linearGradient id="SVGID_3_" gradientUnits="userSpaceOnUse" x1="-143.4691" y1="468.5101" x2="-142.4691" y2="468.5101" gradientTransform="matrix(55.3174 0 0 -74.3446 8146.3433 34873.4453)">
				<stop  offset="0" style="stop-color:#E29A64"/>
				<stop  offset="1" style="stop-color:#E85E8C"/>
			</linearGradient>
			<path class="st11" d="M240.4,5.1l0.1,33.8l24.8,7.5c-0.9,2-2,4-3.2,6c-1.9,3.2-4,6.3-6.3,9.2c-2.2,2.8-4.7,5.5-7.4,7.9
				c-2.4,2.2-5.1,4.1-7.9,5.7c-2.5,1.5-5.1,2.6-7.9,3.4c-2.4,0.7-4.9,0.9-7.4,0.7c-4.5-0.3-8.6-2.7-11.2-6.4c-1.4-2-2.4-4.3-3.1-6.7
				c-0.7-2.8-1.1-5.6-1.1-8.5c0-3.2,0.4-6.5,1-9.7c0.7-3.5,1.7-6.9,3-10.2c1.4-3.5,3-6.8,4.8-10.1c1.9-3.2,4-6.3,6.3-9.2
				c2.2-2.8,4.7-5.4,7.4-7.8C234.9,8.7,237.6,6.7,240.4,5.1z"/>
		</g>
		<path class="st10" d="M266.9,151.3c0.8,1.2,1.5,2.4,2,3.7C268.4,153.7,267.7,152.5,266.9,151.3L266.9,151.3z"/>
		<path class="st12" d="M240.4,149c1.9-1.1,3.9-2,6-2.8c0.6-0.2,1.3-0.4,1.9-0.6c2.2-0.6,4.6-0.8,6.9-0.7h0.4
			c4.5,0.3,8.6,2.7,11.2,6.4c0.8,1.2,1.5,2.4,2,3.7c0.4,1,0.7,2,1,3c0.7,2.8,1.1,5.6,1,8.5c0,0.6,0,1.2,0,1.8
			c-0.1,2.7-0.4,5.3-1,7.9c-0.2,1.1-0.5,2.2-0.8,3.3c-0.6,2.3-1.4,4.6-2.2,6.9c-0.4,1-0.8,2-1.2,2.9c-0.1,0.3-0.3,0.7-0.4,1
			l-24.8-7.5L240.4,149z"/>
		<path class="st13" d="M623.7,356.3l-14.3,8.2c0.4-0.2,0.9-0.2,1.4,0l14.2-8.3C624.6,356,624.1,356,623.7,356.3L623.7,356.3z"/>
		<path class="st13" d="M648,353.6l14.2-8.3c-3.7-1.3-7.6-1.7-11.4-1.2l-14.3,8.3C640.4,351.9,644.3,352.3,648,353.6z"/>
		<path class="st13" d="M629,340.9l14.2-8.3c-0.4-0.6-0.8-1-1.4-1.4c-0.6-0.4-1.4-0.5-2-0.2l-14.2,8.3c0.7-0.3,1.4-0.2,2,0.2
			C628.1,339.8,628.6,340.3,629,340.9L629,340.9z"/>
		<path class="st14" d="M655.7,411.1c6,3.5,11,0.7,11.1-6.3c-0.4-7.7-4.5-14.8-11-19c-6-3.5-11-0.7-11.1,6.3
			C645.1,399.9,649.2,406.9,655.7,411.1L655.7,411.1z"/>
		<path class="st15" d="M662.5,454.1c0,0.5-0.3,0.9-0.7,1.2l14.3-8.3c0.4-0.3,0.6-0.7,0.6-1.2l0.9-10.7l-14.2,8.3L662.5,454.1z"/>
		<polygon class="st15" points="625,356.3 625,356.3 624.8,356.3 624.6,356.3 624.2,356.3 624,356.3 623.9,356.3 623.8,356.3 
			623.8,356.3 609.4,364.5 609.4,364.5 609.6,364.5 609.7,364.5 609.8,364.5 610.3,364.5 610.4,364.5 610.7,364.6 610.7,364.6 
			620.5,369.2 634.7,360.9 		"/>
		<path class="st16" d="M717,411.9L717,411.9L717,411.9c0-0.1,0-0.3,0-0.4c0-0.1,0-0.1,0-0.2v-0.2c0,0,0-0.2,0-0.3v-0.2l0,0v-0.2
			l-0.1-0.2l0,0c0,0,0-0.1,0-0.1c0-0.1-0.1-0.1-0.1-0.2c0-0.1,0-0.1,0-0.2l0,0l-0.1-0.2l-0.1-0.2l0,0l0,0l0,0l-0.2-0.2l0,0
			c-0.2-0.1-0.3-0.3-0.5-0.4L706,402c-0.1-0.8-0.3-1.6-0.4-2.3v-0.3c0-0.2-0.1-0.4-0.1-0.7l-0.2-1l-0.2-1l-0.3-1.1
			c0-0.1,0-0.2,0-0.3s0-0.2,0-0.3c-0.3-1.1-0.6-2.2-1-3.2c0,0,0-0.1,0-0.1l-0.1-0.3c-0.3-1-0.7-2-1-3v-0.2l0,0
			c-0.3-0.7-0.5-1.4-0.8-2l6.3-5.1c0.1-0.1,0.2-0.2,0.3-0.3c0,0,0,0,0-0.1l0.1-0.3c0,0,0-0.1,0-0.2c0-0.1,0-0.2,0-0.3v-0.2
			c0-0.1,0-0.2,0-0.3l0,0V379l0,0v-0.3v-0.3l0,0c0,0,0-0.2-0.1-0.3c0-0.1-0.1-0.2-0.1-0.3l0,0l0,0v-0.1l-0.1-0.3l-0.1-0.2l-6-10.4
			l0,0l-0.2-0.3l-0.2-0.3v-0.1l0,0l0,0l-0.2-0.3c0,0,0,0,0-0.1l-0.1-0.1c0,0,0,0-0.1,0l-0.2-0.2l-0.2-0.1l-0.5-0.3l-0.3-0.2h-0.1
			h-0.2h-0.6l0,0l0,0l-9.7,1.7l-0.4-0.5l-0.4-0.5l-0.8-1l-0.6-0.7c-0.3-0.3-0.5-0.6-0.8-0.9c-0.1-0.1-0.2-0.2-0.3-0.3l-0.3-0.3
			l-1.4-1.5l-0.4-0.4c-0.6-0.6-1.2-1.2-1.8-1.8l-0.1-0.1l-0.3-0.3l-1.5-1.4l-0.5-0.5l-1.9-1.7l-14.3,8.3c0.6,0.5,1.3,1.1,2,1.7
			l0.5,0.5c0.5,0.5,1,0.9,1.5,1.4l0.4,0.4c0.6,0.6,1.2,1.2,1.8,1.8l0.4,0.4l1.3,1.5l0.6,0.6l0.8,0.9l0.6,0.7l0.8,1l0.8,1l7.6-2.8
			c0.1,0,0.2,0,0.3,0l0,0c0.1,0,0.2,0,0.3,0l0,0h0.3l0,0l0.4,0.2l0.5,0.3l0.2,0.1l0.4,0.3v0.1c0.2,0.2,0.3,0.3,0.4,0.5l0,0l0.4,0.7
			l6,10.4c0.1,0.2,0.2,0.4,0.3,0.6l0,0c0.1,0.2,0.2,0.4,0.2,0.6l0,0c0,0.2,0.1,0.4,0.2,0.6l0,0c0,0.2,0,0.3,0,0.5c0,0.1,0,0.2,0,0.3
			v0.2c0,0.1,0,0.2,0,0.3c0,0.1,0,0.1,0,0.2c0,0.1,0,0.2,0,0.3v0.1c-0.1,0.1-0.2,0.2-0.3,0.3l-6.3,5.1c0.3,0.7,0.6,1.3,0.8,2
			c0,0,0,0.2,0,0.2c0.4,1,0.7,2,1.1,3c0,0.1,0.1,0.3,0.1,0.4c0.4,1.1,0.7,2.2,1,3.2l0.2,0.6c0,0.4,0.2,0.7,0.3,1.1l0.2,1l0.2,1.1
			c0,0.3,0.1,0.6,0.2,0.9c0.2,0.8,0.3,1.6,0.5,2.3l9.7,6.7c0.2,0.1,0.3,0.2,0.5,0.4c0.1,0.1,0.3,0.2,0.4,0.4l0,0l0.3,0.5l0,0
			c0.1,0.2,0.2,0.4,0.3,0.5l0,0c0.1,0.2,0.2,0.4,0.2,0.6l0,0l0.2,0.6l0,0c0,0.2,0.1,0.4,0.1,0.5l0,0c0,0.2,0,0.4,0,0.6l0,0l-12,7
			c-0.8,3.8-2.4,7.3-4.8,10.4L692,450l0.2,0.6l0,0c0,0.2,0.1,0.4,0.2,0.6l0,0v0.4c0,0.2,0,0.4,0,0.5v0.1c0,0.2-0.1,0.4-0.1,0.6v0.1
			c0,0.1-0.1,0.3-0.2,0.4l-0.1,0.1c-0.1,0.1-0.2,0.3-0.4,0.3l14.2-8.3c0.1-0.1,0.3-0.2,0.4-0.3V445c0.1-0.1,0.1-0.2,0.2-0.4v-0.1
			c0.1-0.2,0.1-0.4,0.1-0.6l0,0c0-0.2,0-0.4,0-0.5l0,0c0-0.1,0-0.2,0-0.3l0,0l0,0v-0.3v-0.2v-0.1l0,0c0-0.1,0-0.1,0-0.2
			c0-0.1,0-0.1,0-0.2l0,0l-6.2-12.3c1-1.2,1.8-2.5,2.5-3.9v4.5c0.1,0.7-0.2,1.4-0.8,1.9l14.3-8.3c0.1-0.1,0.2-0.2,0.3-0.3
			c0.3-0.5,0.5-1,0.5-1.6v-9.8C717,412.3,717,412.1,717,411.9z"/>
		<path class="st17" d="M677,342.6c0-0.1,0-0.1,0-0.2v-0.3V342v-0.1v-0.2v-0.2l0,0c0-0.1,0-0.1,0-0.2c0-0.1-0.1-0.1-0.1-0.2V341l0,0
			l-0.1-0.2l-0.1-0.2l0,0l0,0c0,0,0-0.1,0-0.1l-0.2-0.2l0,0v-0.1l-0.3-0.3l0,0l-0.3-0.3l-0.2-0.1c-0.2-0.1-0.3-0.3-0.5-0.4l-8.5-4.9
			l-0.4-0.2h-0.1H666h-0.1h-0.3h-0.2c-0.1,0-0.1,0-0.2,0h-0.3h-0.1h-0.1l0,0l-14.2,8.3c0.1-0.1,0.3-0.1,0.4-0.1l0,0
			c0.2,0,0.3,0,0.5,0l0,0l0.5,0.1h0.1c0.2,0.1,0.4,0.1,0.5,0.2l3.5,2h-0.1c-0.8-0.1-1.6-0.1-2.4,0c-0.6,0-1.2,0-1.8,0.2L644,333
			v-0.1l-1-0.6c0-0.1-0.1-0.2-0.2-0.2l-0.2-0.2c-0.2-0.2-0.5-0.4-0.8-0.6l-0.4-0.2l-0.3-0.1h-0.2h-0.6h-0.2h-0.2h-0.2l0,0l-6,3.4
			l-14.3,8.3l6-3.5l0,0h0.2h0.2h0.2h0.2c0.1,0,0.1,0,0.2,0h0.2h0.3l0.3,0.1l0.4,0.2c0.3,0.2,0.5,0.4,0.8,0.6
			c0.1,0.1,0.2,0.2,0.2,0.3l0.2,0.2l0.1,0.2c0,0.1,0.1,0.1,0.1,0.2l7.6,11.5c0.6,0,1.2-0.1,1.8-0.2c0.8,0,1.6,0,2.4,0
			c0.9,0,1.8,0.1,2.7,0.3c1,0.2,2,0.4,3.2,0.7l1.5,0.4l11.8-6.9l0.3,0.2l0.5,0.3l0.2,0.1l0.3,0.3c0.1,0.1,0.3,0.3,0.4,0.4l0,0
			c0.1,0.2,0.2,0.3,0.3,0.5l0,0l0.3,0.5l0,0l0.2,0.5l0,0c0.1,0.2,0.1,0.4,0.2,0.5l0,0c0,0.2,0,0.4,0,0.5l0.9,11.8l14.3-8.3
			L677,342.6z"/>
		<path class="st15" d="M675.6,429.8c-4.2,0.9-9.4-0.1-14.9-3.3c-14.6-8.4-26.4-28.8-26.3-45.6c0-7.6,2.5-13.1,6.5-16.1
			c-6.9,1.5-11.5,8.1-11.5,18.4c0,16.8,11.7,37.2,26.3,45.6C663.6,433.4,670.7,433.5,675.6,429.8z"/>
		
			<linearGradient id="SVGID_4_" gradientUnits="userSpaceOnUse" x1="-144.5141" y1="612.0887" x2="-143.5141" y2="612.0887" gradientTransform="matrix(94.2209 0 0 -118.8995 14224.8096 73175.5313)">
			<stop  offset="0" style="stop-color:#E29A64"/>
			<stop  offset="1" style="stop-color:#E85E8C"/>
		</linearGradient>
		<path class="st18" d="M608.7,376.2c0,1.7,0.7,3.3,2,4.4l9.8,6.7c1,5.5,2.5,10.8,4.7,15.9l-6.3,5.1c-0.8,0.6-0.6,2.4,0.4,4.1
			l6,10.4c0.5,0.9,1.2,1.6,2,2.2c0.4,0.3,0.9,0.4,1.4,0.2l7.6-2.8c3.4,4.4,7.2,8.5,11.4,12.1l0.9,11.7c0.2,1.7,1.2,3.2,2.7,4
			l8.5,4.9c1.4,0.8,2.6,0.4,2.7-0.9l0.9-10.7c3.7,1.3,7.6,1.7,11.4,1.2l7.5,11.6c0.4,0.6,0.9,1,1.4,1.4c0.6,0.4,1.4,0.5,2,0.2l6-3.4
			c1-0.6,1.1-2.2,0.4-3.7l-6.2-12.3c2.4-3,4-6.6,4.8-10.4l9.8,4.6c1.2,0.6,2.2-0.2,2.2-1.9v-9.8c0-1.7-0.8-3.3-2.2-4.3l-9.7-6.7
			c-1-5.4-2.5-10.8-4.7-15.9l6.3-5.1c0.8-0.6,0.6-2.4-0.3-4.1l-6-10.4c-0.5-0.9-1.2-1.6-2-2.2c-0.4-0.3-0.9-0.4-1.4-0.2l-7.5,2.7
			c-3.3-4.4-7.2-8.5-11.4-12.1l-0.9-11.8c-0.2-1.7-1.2-3.2-2.7-4l-8.5-4.9c-1.4-0.8-2.6-0.4-2.7,0.9l-0.9,10.7
			c-3.7-1.3-7.6-1.7-11.5-1.2l-7.5-11.5c-0.4-0.6-0.8-1.1-1.4-1.4c-0.6-0.4-1.4-0.5-2-0.2l-6,3.5c-1,0.5-1.1,2.2-0.4,3.7l6.2,12.3
			c-2.4,3-4,6.6-4.8,10.4l-9.9-4.6c-1.2-0.6-2.2,0.2-2.2,1.8L608.7,376.2z M629.4,383.2c0-16.8,11.9-23.5,26.5-15.1
			c14.6,8.4,26.4,28.8,26.3,45.5c-0.1,16.8-11.9,23.5-26.5,15.1c-14.6-8.4-26.5-28.8-26.4-45.6H629.4z"/>
		<path class="st13" d="M562.4,283.5l-8.7,5c0.3-0.1,0.6-0.1,0.8,0l8.7-5.1C563,283.4,562.7,283.4,562.4,283.5z"/>
		<path class="st13" d="M577.1,281.9l8.7-5c-2.2-0.8-4.6-1-7-0.7l-8.7,5C572.5,280.9,574.9,281.1,577.1,281.9L577.1,281.9z"/>
		<path class="st13" d="M565.6,274.1l8.7-5c-0.2-0.3-0.5-0.6-0.9-0.8c-0.4-0.2-0.8-0.3-1.2-0.1l-8.7,5.1c0.4-0.2,0.8-0.2,1.2,0
			C565.1,273.4,565.4,273.8,565.6,274.1z"/>
		<path class="st14" d="M581.8,316.9c3.7,2.2,6.7,0.4,6.7-3.8c-0.2-4.7-2.7-9-6.7-11.6c-3.7-2.2-6.7-0.4-6.7,3.8
			C575.4,310.1,577.9,314.4,581.8,316.9z"/>
		<path class="st16" d="M586,343.1c0,0.3-0.2,0.6-0.4,0.7l8.7-5c0.2-0.2,0.4-0.4,0.4-0.7l0.6-6.5l-8.7,5L586,343.1z"/>
		<polygon class="st16" points="563.2,283.5 563.2,283.5 563.1,283.5 562.9,283.5 562.6,283.5 562.6,283.5 562.6,283.5 553.9,288.6 
			553.9,288.6 553.9,288.6 554.3,288.6 554.5,288.6 554.5,288.6 560.4,291.4 569.1,286.3 		"/>
		<path class="st16" d="M619.2,316.4L619.2,316.4L619.2,316.4c0-0.1,0-0.1,0-0.2c0,0,0,0,0-0.1V316v-0.2c0,0,0,0,0-0.1l0,0l0,0v-0.1
			v-0.1l0,0l0,0l0,0v-0.1v-0.1l0,0V315v-0.1l0,0l0,0l-0.1-0.1l0,0c-0.1-0.1-0.2-0.2-0.3-0.2l-5.9-4c0-0.5-0.2-0.9-0.3-1.4
			c0,0,0,0,0-0.2c0-0.1-0.1-0.3-0.1-0.4c0-0.2,0-0.4-0.1-0.6c-0.1-0.2-0.1-0.4-0.1-0.6l-0.2-0.6c0,0,0-0.1,0-0.2v-0.2
			c-0.2-0.6-0.4-1.3-0.6-2l0,0v-0.2c-0.2-0.6-0.4-1.2-0.6-1.8v-0.1c-0.2-0.4-0.3-0.8-0.5-1.2l3.8-3.1c0.1,0,0.1-0.1,0.2-0.2l0,0
			v-0.2c0,0,0-0.1,0-0.1c0,0,0-0.1,0-0.2V297c0-0.1,0-0.1,0-0.2l0,0c0-0.1,0-0.1,0-0.2l0,0c0,0,0-0.1,0-0.2v-0.2l0,0v-0.1v-0.2l0,0
			l0,0l0,0c0-0.1,0-0.1,0-0.2c0,0,0-0.1,0-0.1l-3.6-6.3l0,0c-0.1-0.1-0.1-0.2-0.2-0.3l0,0l0,0l0,0l-0.1-0.2l0,0l0,0l0,0l-0.1-0.1
			l0,0l-0.3-0.2l-0.2-0.1l0,0h-0.1h-0.2h-0.2l-4.6,1.7c-0.1-0.1-0.2-0.2-0.2-0.3l-0.3-0.3l-0.5-0.6c-0.1-0.1-0.3-0.3-0.4-0.4
			l-0.5-0.6l-0.2-0.2l-0.2-0.2l-0.8-0.9l-0.2-0.3l-1.1-1.1l0,0L600,285l-0.9-0.9l-0.3-0.3l-1.2-1l-8.7,5l1.2,1l0.3,0.3l0.9,0.9
			l0.2,0.2l1.1,1.1l0.2,0.3l0.8,0.9l0.3,0.4l0.5,0.6l0.4,0.5l0.5,0.6l0.5,0.6l4.6-1.7h0.2h-2h0.2l0,0l0.2,0.1
			c0.1,0.1,0.2,0.1,0.3,0.2l0,0c0.1,0.1,0.1,0.1,0.2,0.2l0,0c0.1,0.1,0.2,0.2,0.3,0.3l0,0l0.3,0.4l3.6,6.3l0.2,0.4l0,0l0.1,0.4l0,0
			c0,0.1,0.1,0.2,0.1,0.4l0,0c0,0.1,0,0.2,0,0.3c0,0.1,0,0.1,0,0.2v0.1c0,0,0,0.1,0,0.2c0,0,0,0.1,0,0.1v0.2l0,0l-0.2,0.2l-3.8,3.1
			c0.2,0.4,0.3,0.8,0.5,1.2c0,0,0,0.1,0,0.1c0.2,0.6,0.4,1.2,0.7,1.8c0,0.1,0,0.2,0,0.3c0.2,0.7,0.4,1.3,0.6,2
			c0,0.1,0.1,0.3,0.1,0.4l0.2,0.6c0,0.2,0,0.4,0.1,0.6l0.2,0.6l0.1,0.5c0.1,0.5,0.2,1,0.3,1.4l5.9,4l0.3,0.2l0.2,0.2l0,0l0.2,0.3
			l0,0c0.1,0.1,0.1,0.2,0.2,0.3l0,0c0,0.1,0.1,0.2,0.2,0.3l0,0c0,0.1,0,0.2,0,0.3l0,0v0.3l0,0c0,0.1,0,0.2,0,0.4l0,0l-7.3,4.2
			c-0.5,2.3-1.5,4.5-2.9,6.3l3.8,7.5c0.1,0.1,0.1,0.2,0.1,0.3l0,0c0,0.1,0,0.2,0,0.3l0,0c0,0,0,0.2,0,0.2c0,0.1,0,0.2,0,0.3l0,0
			c0,0.1,0,0.2,0,0.4l-0.1,0.2l0,0c-0.1,0.1-0.1,0.2-0.2,0.2l8.7-5c0.1-0.1,0.2-0.1,0.2-0.2l0,0l0.1-0.2l0,0c0-0.1,0-0.2,0-0.3v-0.5
			c0,0,0,0,0-0.2l0,0c0,0,0,0,0-0.1s0-0.1,0-0.1l0,0l0,0l0,0c0,0,0-0.1,0-0.1v-0.1l0,0l-3.8-7.5c0.6-0.7,1.1-1.5,1.5-2.4v2.8
			c0,0.4-0.2,0.9-0.5,1.1l8.7-5.1c0.1,0,0.1-0.1,0.2-0.2c0.2-0.3,0.3-0.6,0.3-1v-6C619,317.3,619.2,316.9,619.2,316.4z"/>
		<path class="st16" d="M594.9,275.2c0,0,0-0.1,0-0.2l0,0l0,0l0,0c0,0,0-0.1,0-0.1c0,0,0,0,0-0.1l0,0v-0.1v-0.1l0,0l0,0l0,0v-0.1
			v-0.1l0,0l0,0l0,0c0-0.1-0.1-0.1-0.1-0.1l0,0l0,0l0,0l-0.2-0.2l0,0l-0.2-0.2h-0.1l-0.3-0.2l-5.9-3.7l-0.3-0.1h-0.2h-0.1h-0.5l0,0
			l0,0l-8.7,5.1h0.2h0.3h0.3l0,0c0.1,0,0.2,0.1,0.3,0.1l2.1,1.2h-0.1c-0.5,0-1,0-1.4,0c-0.4,0-0.7,0.1-1.1,0.1l-4.6-7l0,0v-0.1V269
			l-0.1-0.2c-0.2-0.1-0.3-0.3-0.5-0.4l-0.2-0.1h-0.2h-0.8l0,0l0,0l0,0l-3.7,2l-8.7,5.1l3.7-2l0,0l0,0h0.1h0.4h0.2h0.2l0.2,0.1
			c0.2,0.1,0.3,0.2,0.5,0.4l0.1,0.2v0.1v0.1l0,0l4.6,7l1.1-0.1h1.4c0.5,0,1.1,0.1,1.6,0.2c0.7,0.1,1.4,0.2,2,0.4l0.9,0.3l7.2-4.2
			h0.2l0.3,0.2h0.1l0.2,0.2l0.3,0.3l0,0c0.1,0.1,0.2,0.2,0.2,0.3l0,0l0.2,0.3l0,0c0.1,0.1,0.1,0.2,0.2,0.3l0,0
			c0,0.1,0.1,0.2,0.1,0.3l0,0c0,0.1,0,0.2,0,0.3l0.5,7.1l8.7-5L594.9,275.2z"/>
		<path class="st15" d="M594,328.3c-3.2,0.5-6.4-0.2-9.1-2c-8.9-5.1-16.1-17.6-16.1-27.7c0-4.6,1.5-8.1,4-9.8c-4.2,0.9-7,4.9-7,11.2
			c0,10.2,7.1,22.6,16.1,27.7C586.7,330.5,591,330.5,594,328.3z"/>
		
			<linearGradient id="SVGID_5_" gradientUnits="userSpaceOnUse" x1="-143.5657" y1="612.4703" x2="-142.5657" y2="612.4703" gradientTransform="matrix(57.5112 0 0 -72.1444 8809.7539 44495.6133)">
			<stop  offset="0" style="stop-color:#E29A64"/>
			<stop  offset="1" style="stop-color:#E85E8C"/>
		</linearGradient>
		<path class="st19" d="M553.2,295.7c0,1,0.5,2,1.3,2.6l5.9,4c0.6,3.3,1.5,6.6,2.9,9.7l-3.8,3.1c-0.5,0.4-0.4,1.5,0.2,2.5l3.7,6.3
			c0.3,0.5,0.7,1,1.2,1.3c0.2,0.2,0.6,0.2,0.9,0.2l4.6-1.7c2,2.7,4.4,5.2,6.9,7.3l0.5,7.1c0.1,1,0.7,1.9,1.6,2.5l5.2,3
			c0.8,0.5,1.6,0.2,1.6-0.6l0.6-6.5c2.2,0.8,4.6,1,7,0.7l4.6,7c0.2,0.3,0.5,0.6,0.9,0.8c0.4,0.2,0.8,0.3,1.2,0.1l3.7-2.1
			c0.6-0.3,0.7-1.3,0.2-2.3l-3.8-7.5c1.5-1.9,2.5-4,2.9-6.3l6,2.8c0.7,0.3,1.3-0.1,1.3-1.1v-6c0-1-0.5-2-1.3-2.6l-5.9-4
			c-0.6-3.3-1.5-6.6-2.9-9.7l3.8-3.1c0.5-0.4,0.4-1.5-0.2-2.5l-3.6-6.3c-0.3-0.5-0.7-1-1.2-1.3c-0.2-0.2-0.6-0.2-0.9-0.2l-4.6,1.7
			c-2-2.7-4.4-5.2-6.9-7.3l-0.5-7.1c-0.2-1-0.8-1.8-1.7-2.3l-5.2-3c-0.8-0.5-1.6-0.2-1.6,0.6l-0.6,6.5c-2.2-0.8-4.6-1-7-0.7l-4.6-7
			c-0.2-0.3-0.5-0.6-0.9-0.8c-0.4-0.2-0.8-0.2-1.2,0l-3.7,2c-0.6,0.3-0.7,1.3-0.2,2.3l3.8,7.5c-1.5,1.8-2.5,4-3,6.2l-5.9-2.8
			c-0.7-0.3-1.3,0.1-1.3,1.1L553.2,295.7z M565.8,300c0-10.2,7.2-14.3,16.1-9.2c8.9,5.1,16.1,17.6,16.1,27.7
			c0,10.2-7.2,14.3-16.1,9.2C573,322.6,565.8,310.1,565.8,300L565.8,300z"/>
		<polygon class="st20" points="356.2,34.3 356.2,37.5 478.3,108 478.3,104.8 		"/>
		<polygon class="st20" points="356.1,61.2 356.1,64.4 457.2,122.8 457.2,119.6 		"/>
		<polygon class="st20" points="356.1,74.7 356.1,77.9 433.2,122.4 433.2,119.2 		"/>
		<polygon class="st20" points="356.1,47.7 356.1,50.9 478.3,121.4 478.3,118.3 		"/>
		<g transform="translate(418.753406, 257.753413)">
			<polygon class="st21" points="250.5,0.2 250.3,48 265.1,56.6 265.2,8.7 			"/>
			<polygon class="st21" points="230.2,11.5 230.1,36.4 244.9,44.9 244.9,20 			"/>
			<polygon class="st21" points="210.1,8.3 210.1,24.6 224.8,33.1 224.9,16.8 			"/>
		</g>
		<path class="st22" d="M616.8,485.6c13.5,7.8,13.5,20.4,0.2,28.2l-121.2,70.5c-13.4,7.8-35.1,7.8-48.6,0l-122-70.5
			c-13.5-7.8-13.5-20.4-0.2-28.2l121.2-70.5c13.4-7.8,35.1-7.8,48.6,0L616.8,485.6z"/>
		<path class="st2" d="M626.9,500.4c0,0.2,0,0.3,0,0.5c0,0.2,0,0.3,0,0.5c0,0.2,0,0.3,0,0.5c0,0.2,0,0.3,0,0.5l-0.1,0.5l-0.1,0.4
			c0,0.2-0.1,0.3-0.2,0.5c0,0.1-0.1,0.3-0.2,0.4l-0.2,0.5l-0.2,0.4c0,0.2-0.2,0.3-0.3,0.5c-0.1,0.1-0.1,0.3-0.2,0.4
			c-0.1,0.2-0.2,0.4-0.4,0.6c-0.1,0.1-0.2,0.2-0.2,0.4c-0.1,0.2-0.3,0.5-0.5,0.7l-0.2,0.3c-0.3,0.4-0.6,0.7-0.9,1l-0.4,0.4
			c-0.2,0.3-0.5,0.5-0.8,0.8l-0.4,0.4l-0.5,0.4l-0.5,0.4l-0.5,0.4l-0.5,0.4l-0.6,0.4l-0.5,0.4l-0.6,0.4l-0.8,0.5l-121.2,70.5
			c-0.7,0.4-1.5,0.8-2.3,1.2l-0.6,0.3c-0.7,0.3-1.4,0.6-2.2,0.9l-0.3,0.1c-0.8,0.3-1.6,0.6-2.5,0.8l-1.8,0.5l-1.3,0.4l-1.9,0.4
			l-1.4,0.3H481c-0.8,0.1-1.6,0.2-2.4,0.3h-0.7c-0.9,0-1.9,0.2-2.8,0.2h-0.5h-1.9h-1.9h-1.6l-1.7-0.1l-1.6-0.1l-1.7-0.2l-1.5-0.2
			c-0.6,0-1.2-0.2-1.8-0.3l-1.9-0.4l-0.5-0.1c-0.9-0.2-1.7-0.4-2.6-0.7l-0.7-0.2l-2-0.7l-0.6-0.2c-0.6-0.2-1.2-0.5-1.8-0.8l-0.9-0.4
			c-0.9-0.4-1.7-0.8-2.5-1.3l-122-70.5c-6.8-3.9-10.1-9-10.1-14.1l-0.1,34.2c0,5.1,3.4,10.2,10.1,14.1l122,70.5
			c0.8,0.5,1.7,0.9,2.5,1.3l0.9,0.4l1.6,0.7h0.3l0.6,0.2l2,0.7l0.7,0.2l0.5,0.2l2,0.5l0.4,0.1l1,0.2l0.9,0.2
			c0.6,0.1,1.2,0.2,1.8,0.3l0.7,0.1h0.8l1.7,0.2h0.8h0.8l1.8,0.1h0.9h3.5h0.9h0.5l2.4-0.2h0.4h0.7c0.8-0.1,1.6-0.2,2.4-0.3h0.6h0.3
			l1.1-0.2l1.9-0.4l1.3-0.4c0.6-0.2,1.2-0.3,1.8-0.5l0.4-0.1c0.7-0.2,1.4-0.5,2-0.7l0.3-0.1l2.2-0.9l0.6-0.3
			c0.8-0.4,1.6-0.8,2.3-1.2l121.2-70.5l0.4-0.2l0.4-0.2l0.6-0.4l0.5-0.4l0.6-0.4l0.5-0.4l0.5-0.4l0.5-0.4l0.5-0.4l0.2-0.2l0.2-0.2
			c0.3-0.2,0.5-0.5,0.8-0.8l0.3-0.3c0.3-0.3,0.6-0.7,0.9-1l0,0l0.2-0.2l0.5-0.7l0.2-0.4l0.4-0.6c0-0.1,0-0.1,0-0.2
			c0.1-0.1,0.1-0.2,0.1-0.2l0.3-0.5l0.2-0.4l0.2-0.5c0-0.1,0.1-0.2,0.1-0.2V538c0.1-0.2,0.1-0.3,0.2-0.5c0.1-0.2,0.1-0.3,0.1-0.5
			l0.1-0.5v-0.3c0,0,0-0.1,0-0.2c0-0.1,0-0.3,0-0.5v-0.5c0-0.2,0-0.3,0-0.5s0-0.2,0-0.3V534l0.1-34.2C627,500,627,500.2,626.9,500.4
			z"/>
		<path class="st23" d="M582.1,467.3c9.9,5.7,10,15,0.1,20.8l-89.5,52c-9.9,5.7-25.9,5.7-35.8,0l-90.1-52c-9.9-5.7-10.1-15-0.1-20.8
			l89.5-52c9.9-5.7,25.9-5.7,35.8,0L582.1,467.3z"/>
		<path class="st24" d="M589.5,478.2c0,0.1,0,0.3,0,0.4c0,0.1,0,0.2,0,0.3v0.4c0,0.1,0,0.2,0,0.3c0,0.1,0,0.3,0,0.4
			c0,0.1-0.1,0.2-0.1,0.3l-0.1,0.4l-0.1,0.3c0,0.1,0,0.2-0.2,0.4c-0.2,0.1-0.1,0.2-0.1,0.3c-0.1,0.1-0.1,0.2-0.2,0.4l-0.2,0.3
			l-0.3,0.4c0,0.1-0.1,0.2-0.2,0.3l-0.4,0.5l-0.2,0.2l-0.7,0.8l-0.2,0.2l-0.6,0.6l-0.3,0.2l-0.4,0.3l-0.4,0.3l-0.4,0.3l-0.4,0.3
			l-0.4,0.3l-0.4,0.3l-0.5,0.3l-0.6,0.4l-89.8,52c-0.6,0.3-1.1,0.6-1.7,0.9l-0.5,0.2l-1.6,0.7h-0.2c-0.6,0.2-1.2,0.4-1.8,0.6
			l-1.3,0.4l-1,0.3c-0.5,0.1-0.9,0.2-1.4,0.3l-1,0.2h-0.4l-1.8,0.2h-0.5l-2,0.2H477h-1.4h-1.4h-1.1h-1.3h-1.2l-1.3-0.1l-1.1-0.2
			c-0.4,0-0.9-0.1-1.3-0.2c-0.5,0-0.9-0.2-1.4-0.3h-0.3l-2-0.5l-0.5-0.2l-1.6-0.5l-0.4-0.2l-1.3-0.6l-0.6-0.3
			c-0.6-0.3-1.3-0.6-1.9-1l-90-52c-5-2.9-7.5-6.7-7.5-10.5v25.2c0,3.8,2.5,7.6,7.5,10.5l90.1,52c0.6,0.3,1.2,0.7,1.9,1l0.6,0.3
			l1.1,0.5h0.2l0.4,0.2c0.5,0.2,1,0.4,1.6,0.5l0.5,0.2l0.4,0.1l1.6,0.4h0.3l0.8,0.2c0.2,0,0.4,0,0.6,0.1l1.3,0.2l0.5,0.1h0.6
			l1.3,0.1h0.6h0.6h1.3h3.2h0.7h0.4l1.7-0.1h0.3h0.5l1.8-0.3h0.4h0.2c0.3,0,0.5-0.1,0.8-0.2l1.4-0.3l1-0.3l1.3-0.4h0.3l1.5-0.5
			l0.2-0.1c0.5-0.2,1.1-0.4,1.6-0.7l0.5-0.2c0.6-0.3,1.2-0.6,1.7-0.9l89.5-52l0.3-0.2l0.3-0.2l0.4-0.3l0.4-0.3l0.4-0.3
			c0.1-0.1,0.2-0.2,0.4-0.3l0.4-0.3l0.4-0.3l0.4-0.3c0.1,0,0.1-0.1,0.1-0.1l0.1-0.1l0.6-0.6l0.2-0.2c0.2-0.2,0.5-0.5,0.7-0.8l0,0
			l0.1-0.2l0.3-0.5c0.1-0.1,0.1-0.2,0.2-0.3c0-0.2,0.2-0.3,0.3-0.5v-0.1v-0.2l0.2-0.4c0,0,0.1-0.2,0.2-0.3s0-0.2,0.2-0.4v-0.2v-0.2
			l0.1-0.4l0.1-0.3c0-0.1,0-0.2,0-0.4v-0.2c0,0,0-0.1,0-0.1v-0.4c0-0.1,0-0.2,0-0.3c0-0.1,0-0.3,0-0.4c0-0.1,0-0.2,0-0.2V503v-25.3
			C589.2,477.9,589.4,478,589.5,478.2L589.5,478.2z"/>
		
			<linearGradient id="SVGID_6_" gradientUnits="userSpaceOnUse" x1="-144.7647" y1="611.2594" x2="-144.7647" y2="612.0579" gradientTransform="matrix(190.3952 0 0 -474.4521 28036.8477 290492.5625)">
			<stop  offset="0" style="stop-color:#FFFFFF"/>
			<stop  offset="1" style="stop-color:#FFFFFF;stop-opacity:0"/>
		</linearGradient>
		<path class="st25" d="M379.2,57.8v419.6c0,3,2.2,6,6.2,8.3l74.5,43c9.3,4.7,20.3,4.7,29.6,0l74-43c4-2.3,6-5.3,6-8.2V57.8H379.2z"
			/>
		<path class="st3" d="M564.1,468.5c8.3,4.8,8.3,12.5,0,17.3l-74.5,43.3c-9.4,4.8-20.5,4.8-29.9,0l-75.1-43.3
			c-8.3-4.8-8.3-12.5-0.1-17.3l74.5-43.4c9.4-4.8,20.5-4.8,29.9,0L564.1,468.5z"/>
		
			<radialGradient id="Oval_1_" cx="-137.7579" cy="615.371" r="0.5" gradientTransform="matrix(18.083 0 0 -18.083 3023.512 11544.3369)" gradientUnits="userSpaceOnUse">
			<stop  offset="0" style="stop-color:#FFFFFF"/>
			<stop  offset="1" style="stop-color:#000000"/>
		</radialGradient>
		<circle id="Oval" class="st26" cx="532.4" cy="416.6" r="9"/>
		
			<radialGradient id="SVGID_7_" cx="-129.3298" cy="619.584" r="0.4977" gradientTransform="matrix(8.6591 0 0 -8.6591 1668.7714 5711.853)" gradientUnits="userSpaceOnUse">
			<stop  offset="0" style="stop-color:#FFFFFF"/>
			<stop  offset="1" style="stop-color:#000000"/>
		</radialGradient>
		<path class="st27" d="M553.2,346.8c0,1.8-1.1,3.3-2.7,4c-1.6,0.7-3.5,0.3-4.7-0.9c-1.2-1.2-1.6-3.1-0.9-4.7c0.7-1.6,2.3-2.7,4-2.7
			c1.1,0,2.2,0.5,3.1,1.3C552.7,344.6,553.2,345.7,553.2,346.8z"/>
		
			<radialGradient id="SVGID_8_" cx="-136.8108" cy="615.8452" r="0.5" gradientTransform="matrix(16.1096 0 0 -16.1096 2604.7432 10135.1504)" gradientUnits="userSpaceOnUse">
			<stop  offset="0" style="stop-color:#FFFFFF"/>
			<stop  offset="1" style="stop-color:#000000"/>
		</radialGradient>
		<path class="st28" d="M408.9,214.1c0,4.4-3.6,8.1-8.1,8.1c-4.4,0-8.1-3.6-8.1-8.1c0-4.4,3.6-8.1,8.1-8.1
			C405.2,206.1,408.9,209.7,408.9,214.1z"/>
		
			<radialGradient id="SVGID_9_" cx="-121.8527" cy="623.3236" r="0.5" gradientTransform="matrix(5.9203 0 0 -5.9203 1144.176 3852.0337)" gradientUnits="userSpaceOnUse">
			<stop  offset="0" style="stop-color:#FFFFFF"/>
			<stop  offset="1" style="stop-color:#000000"/>
		</radialGradient>
		<path class="st29" d="M425.7,161.7c0,1.6-1.3,3-3,3s-3-1.3-3-3s1.3-3,3-3c0.8,0,1.5,0.3,2.1,0.9
			C425.4,160.2,425.7,161,425.7,161.7L425.7,161.7z"/>
		
			<radialGradient id="SVGID_10_" cx="-129.1779" cy="619.6669" r="0.5" gradientTransform="matrix(8.5786 0 0 -8.5785 1619.413 5458.748)" gradientUnits="userSpaceOnUse">
			<stop  offset="0" style="stop-color:#FFFFFF"/>
			<stop  offset="1" style="stop-color:#000000"/>
		</radialGradient>
		<path class="st30" d="M515.5,143c0,1.7-1,3.3-2.7,4c-1.6,0.7-3.5,0.3-4.7-0.9c-1.2-1.2-1.6-3.1-0.9-4.7c0.7-1.6,2.2-2.6,4-2.6
			c1.1,0,2.2,0.5,3,1.3C515.1,140.7,515.5,141.8,515.5,143z"/>
		
			<radialGradient id="SVGID_11_" cx="-129.1799" cy="619.6601" r="0.5" gradientTransform="matrix(8.5784 0 0 -8.5784 1639.0154 5508.0117)" gradientUnits="userSpaceOnUse">
			<stop  offset="0" style="stop-color:#FFFFFF"/>
			<stop  offset="1" style="stop-color:#000000"/>
		</radialGradient>
		<path class="st31" d="M535.2,192.3c0,2.4-1.9,4.3-4.3,4.3s-4.3-1.9-4.3-4.3s1.9-4.3,4.3-4.3C533.2,188.1,535.1,190,535.2,192.3z"
			/>
		
			<radialGradient id="SVGID_12_" cx="-129.2542" cy="619.6218" r="0.5" gradientTransform="matrix(8.6189 0 0 -8.6188 1540.4169 5738.6685)" gradientUnits="userSpaceOnUse">
			<stop  offset="0" style="stop-color:#FFFFFF"/>
			<stop  offset="1" style="stop-color:#000000"/>
		</radialGradient>
		<path class="st32" d="M430.7,398.3c0,1.7-1.1,3.3-2.7,4s-3.5,0.3-4.7-0.9c-1.2-1.2-1.6-3.1-0.9-4.7s2.3-2.7,4-2.6
			c1.1,0,2.2,0.5,3,1.3S430.7,397.1,430.7,398.3L430.7,398.3z"/>
		
			<linearGradient id="SVGID_13_" gradientUnits="userSpaceOnUse" x1="-141.9905" y1="611.6684" x2="-141.9905" y2="612.4399" gradientTransform="matrix(39.8914 0 0 -125.9367 6137.1333 77481.7031)">
			<stop  offset="0" style="stop-color:#FFFB03"/>
			<stop  offset="1" style="stop-color:#FF7006"/>
		</linearGradient>
		<path class="st33" d="M492.9,373.8c0-19.5-8.9-35.3-19.9-35.3s-20,15.8-20,35.3c0,19.5,20,90.6,20,90.6S492.9,393.3,492.9,373.8z"
			/>
		<path class="st1" d="M441.6,326.7c0.9,7.7,3.1,15.3,6.3,22.4c13.8,7.4,35,7.4,48.9,0.1c3.3-7.1,5.4-14.7,6.4-22.5H441.6z"/>
		<path class="st2" d="M443,335.1c6.3,3.6,16.9,6,28.8,6c12.6,0,23.6-2.6,29.8-6.6c0.3-1.2,0.5-2.4,0.7-3.6
			c-17.7,7.8-42.5,7.8-60.2-0.1C442.4,332.3,442.7,333.7,443,335.1z"/>
		<g transform="translate(298.027384, 282.876700)">
			<path class="st16" d="M235.9,42.4c-0.6-7.4-3.3-11.3-6.7-13.3l-4.6-2.7c3.3,2,6,5.8,6.7,13.3c0,1,0.5,1.8,1.2,2.4l4.6,2.7
				C236.4,44.3,235.9,43.4,235.9,42.4z"/>
			
				<linearGradient id="SVGID_14_" gradientUnits="userSpaceOnUse" x1="-438.9606" y1="330.2714" x2="-437.9606" y2="330.2714" gradientTransform="matrix(27.6312 0 0 -42.4738 12344.1172 14051.6611)">
				<stop  offset="0" style="stop-color:#E29A64"/>
				<stop  offset="1" style="stop-color:#E85E8C"/>
			</linearGradient>
			<path class="st34" d="M215.1,2.7c28.2-3.3,27.6,38.1,27.6,40.3l-2.5,1.4c-2.2,1.3-4,0.4-4.3-2c-1.7-20.6-19.8-14-20.8-13.6
				L215.1,2.7z"/>
			
				<linearGradient id="SVGID_15_" gradientUnits="userSpaceOnUse" x1="-436.1416" y1="343.1074" x2="-435.1416" y2="343.1074" gradientTransform="matrix(17.7407 0 0 -4.8329 7947.9336 1660.9623)">
				<stop  offset="7.000000e-02" style="stop-color:#BFB89D"/>
				<stop  offset="1" style="stop-color:#EFEBDA"/>
			</linearGradient>
			<path class="st35" d="M223.6,2.4l-0.2-0.1h-0.1L222.6,2h-0.2l-0.9-0.4l0,0h-0.1l-0.7-0.3l-0.3-0.1L219.7,1h-0.2l0,0
				c-0.3-0.1-0.6-0.2-0.9-0.2h-0.2l-0.8-0.2h-0.1h-0.2l-0.8-0.1h-0.3l-1-0.1H215h-1h-1.5h-0.6h-0.4h-1l4.6,2.7h1h0.3h0.6h1.5h1h0.2
				h1h0.3c0.3,0,0.5,0,0.8,0.1h0.3l0.8,0.2h0.2l0.9,0.2h0.2l0.7,0.2l0.3,0.1l0.7,0.3h0.2l0.9,0.4l0.2,0.1L228,5l0.3,0.2L223.6,2.4z"
				/>
			
				<linearGradient id="SVGID_16_" gradientUnits="userSpaceOnUse" x1="-414.1888" y1="331.061" x2="-413.1888" y2="331.061" gradientTransform="matrix(4.6919 0 0 -28.7153 2153.823 9520.9551)">
				<stop  offset="4.000000e-02" style="stop-color:#FFFDF5"/>
				<stop  offset="1" style="stop-color:#EFEBDA"/>
			</linearGradient>
			<polygon class="st36" points="215.2,28.8 210.5,26.1 210.5,0.1 215.1,2.7 			"/>
		</g>
		<g transform="translate(187.273964, 282.876700)">
			<path class="st16" d="M217.3,42.4c0.6-7.4,3.4-11.3,6.7-13.3l4.6-2.7c-3.3,2-6,5.8-6.7,13.3c0,0.9-0.5,1.8-1.2,2.4l-4.7,2.7
				C216.8,44.3,217.3,43.4,217.3,42.4z"/>
			
				<linearGradient id="SVGID_17_" gradientUnits="userSpaceOnUse" x1="-328.2041" y1="330.2714" x2="-327.2041" y2="330.2714" gradientTransform="matrix(27.6142 0 0 -42.4738 9273.6709 14051.6611)">
				<stop  offset="0" style="stop-color:#E29A64"/>
				<stop  offset="1" style="stop-color:#E85E8C"/>
			</linearGradient>
			<path class="st37" d="M238.2,2.7C210-0.6,210.5,40.9,210.6,43l2.5,1.4c2.3,1.3,4,0.4,4.3-2c1.7-20.6,19.8-14,20.8-13.6L238.2,2.7
				z"/>
			
				<linearGradient id="SVGID_18_" gradientUnits="userSpaceOnUse" x1="-302.563" y1="331.061" x2="-303.5587" y2="331.061" gradientTransform="matrix(4.7121 0 0 -28.7153 1668.4965 9520.9551)">
				<stop  offset="4.000000e-02" style="stop-color:#FFFDF5"/>
				<stop  offset="1" style="stop-color:#EFEBDA"/>
			</linearGradient>
			<polygon class="st38" points="238.1,28.8 242.7,26.1 242.8,0.1 238.2,2.7 			"/>
		</g>
		<path class="st1" d="M524.1,283.3c-1.2,15.1-5,29.8-11.3,43.6c-23,12.1-58.4,12.1-81.4-0.2c-6.3-13.7-10.1-28.5-11.2-43.6
			c-2.7-30.5,3.5-62.1,12.4-87.2c2.4-6.8,5.2-13.5,8.3-20c12-24.5,25.3-41.8,29.7-45.4c0.9-0.7,2.1-0.7,3,0
			c4.4,3.6,17.8,20.9,29.7,45.4c3.2,6.6,6,13.3,8.4,20.1C520.7,221.1,526.9,252.8,524.1,283.3z"/>
		
			<linearGradient id="SVGID_19_" gradientUnits="userSpaceOnUse" x1="-144.0541" y1="612.6212" x2="-143.0246" y2="612.6212" gradientTransform="matrix(71.003 0 0 -62.4315 10663.2422 38408.1602)">
			<stop  offset="0" style="stop-color:#0031BA"/>
			<stop  offset="1" style="stop-color:#0089F9"/>
		</linearGradient>
		<path class="st39" d="M507.8,185.6c-1.4-3.4-2.9-6.6-4.3-9.6c-11.9-24.5-25.3-41.8-29.7-45.4c-0.9-0.7-2.1-0.7-3,0
			c-4.4,3.6-17.7,20.9-29.7,45.4c-1.4,3-2.9,6.2-4.3,9.5C457.7,194.8,486.9,194.8,507.8,185.6z"/>
		
			<linearGradient id="SVGID_20_" gradientUnits="userSpaceOnUse" x1="-141.3958" y1="612.3313" x2="-141.7204" y2="612.8364" gradientTransform="matrix(36.166 0 0 -60.8402 5577.0029 37434.2773)">
			<stop  offset="0" style="stop-color:#0031BA"/>
			<stop  offset="1" style="stop-color:#0089F9"/>
		</linearGradient>
		<path class="st40" d="M472.9,130.2c-7.7,19.7-13.8,40-18.3,60.7c-6.2-1.1-12.2-2.9-17.9-5.4c0.4-1.1,0.9-2.2,1.4-3.2
			c0.6-1.4,1.2-2.7,1.8-4l1.1-2.3c12-24.5,25.3-41.8,29.7-45.4c0.5-0.4,1.2-0.6,1.8-0.5C472.7,130.1,472.8,130.1,472.9,130.2
			L472.9,130.2z"/>
		<path class="st2" d="M472.9,130.2c-0.7-0.2-1.6-0.1-2.2,0.4c-4.4,3.6-17.7,20.9-29.7,45.4c-3.1,6.5-5.9,13.2-8.3,20
			c-8.9,25-15.1,56.7-12.4,87.2c1.1,15.1,4.9,29.8,11.2,43.6c7.2,3.7,14.9,6.2,22.8,7.6C430.7,245.6,463.9,152.7,472.9,130.2z"/>
		<path class="st41" d="M446,271.5c-9-1.6-17.7-4.3-26-8.1c0-0.8,0-1.6-0.1-2.5l0,0c0-1.2,0.1-2.5,0.2-3.7c8.2,4,16.9,6.9,25.9,8.6
			l0,0C446,267.6,446,269.6,446,271.5z"/>
		<path class="st41" d="M446.6,285.4c-9.2-1.6-18.1-4.4-26.6-8.2c-0.1-2-0.2-4-0.3-6.2v-0.2c8.4,4.2,17.3,7.1,26.5,8.8
			C446.3,281.5,446.4,283.5,446.6,285.4z"/>
		<path class="st16" d="M410.7,382.3c0-2.6-0.9-51.8,33-87.1l-5.9,0.2c0,0-31,28.3-30.8,84.7L410.7,382.3z"/>
		
			<linearGradient id="SVGID_21_" gradientUnits="userSpaceOnUse" x1="-142.0908" y1="612.3038" x2="-141.0908" y2="612.3038" gradientTransform="matrix(35.8126 0 0 -87.0925 5499.2139 53665.7969)">
			<stop  offset="0" style="stop-color:#E29A64"/>
			<stop  offset="1" style="stop-color:#E85E8C"/>
		</linearGradient>
		<path class="st42" d="M443.6,295.2c-34,35.3-33,84.6-33,87.1l3-1.7c2.9-1.9,4.8-5,5.2-8.5c2-27.2,26.5-46.4,27.6-47.3L443.6,295.2
			z"/>
		<path class="st16" d="M530.2,382.3c0-2.6,0.9-51.8-33-87.1l5.9,0.2c0,0,31,28.3,30.8,84.7L530.2,382.3z"/>
		
			<linearGradient id="SVGID_22_" gradientUnits="userSpaceOnUse" x1="-142.0908" y1="612.3038" x2="-141.0908" y2="612.3038" gradientTransform="matrix(35.8126 0 0 -87.0925 5582.9321 53665.7969)">
			<stop  offset="0" style="stop-color:#E29A64"/>
			<stop  offset="1" style="stop-color:#E85E8C"/>
		</linearGradient>
		<path class="st43" d="M497.1,295.2c34,35.3,33,84.6,33,87.1l-3-1.7c-2.9-1.9-4.8-5-5.1-8.5c-1.9-27.2-26.5-46.4-27.6-47.3
			L497.1,295.2z"/>
		
			<linearGradient id="SVGID_23_" gradientUnits="userSpaceOnUse" x1="-142.1008" y1="613.0164" x2="-141.1008" y2="613.0164" gradientTransform="matrix(35.9046 0 0 -46.1642 5534.686 28532.6582)">
			<stop  offset="0" style="stop-color:#E29A64"/>
			<stop  offset="1" style="stop-color:#E85E8C"/>
		</linearGradient>
		<path class="st44" d="M450.6,212.6c9.9,5.7,17.9,19.6,17.9,31c0,11.4-8.1,16-18,10.2c-10-5.7-17.9-19.6-17.9-31
			C432.7,211.5,440.7,206.9,450.6,212.6z"/>
		<path class="st45" d="M450.6,217.5c8.1,5.3,13.3,14.2,13.8,23.9c0,8.8-6.2,12.3-13.9,7.9c-8.2-5.3-13.3-14.2-13.8-23.9
			C436.7,216.5,443,212.9,450.6,217.5z"/>
		<path id="Combined-Shape" class="st46" d="M459.9,226.7c1.7,2.8,3,5.8,3.8,8.9L450.3,249c-2.6-1.6-4.8-3.6-6.7-6L459.9,226.7z
			 M451,217.6c2.6,1.6,4.8,3.7,6.7,6.1L441.4,240c-1.7-2.7-3.1-5.7-3.9-8.8L451,217.6z"/>
		<path class="st16" d="M472.5,240.5c0-0.3,0-0.6,0-0.9c0-0.1,0-0.3,0-0.4v-0.2c0-0.1,0-0.2,0-0.3c0-0.3,0-0.6-0.1-0.9l-0.1-0.9l0,0
			l0,0c0-0.3,0-0.6-0.1-0.8l-0.2-0.9c0-0.1,0-0.2,0-0.3v-0.2c0-0.1-0.1-0.3-0.1-0.4c0-0.3-0.2-0.6-0.3-1c-0.1-0.3-0.1-0.5-0.2-0.7
			v-0.1v-0.1l-0.3-0.9l-0.3-0.9v-0.2v-0.1c0-0.2-0.1-0.4-0.2-0.6l-0.4-0.9c0-0.2-0.2-0.4-0.3-0.6v-0.1v-0.1
			c-0.1-0.3-0.3-0.6-0.4-0.9c-0.1-0.3-0.3-0.6-0.4-0.9c0,0,0-0.1,0-0.1l-0.1-0.2c-0.1-0.3-0.2-0.5-0.4-0.7s-0.3-0.6-0.5-0.9
			c-0.1-0.2-0.2-0.3-0.3-0.5v-0.2l-0.5-0.8l-0.7-1.1l-0.1-0.2c-0.4-0.5-0.7-1.1-1.1-1.6l0,0c-0.2-0.4-0.5-0.7-0.8-1l-0.7-0.8l0,0
			l-0.7-0.8c-0.2-0.3-0.5-0.5-0.7-0.8v-0.1c0-0.1-0.1-0.1-0.1-0.1l-0.5-0.5l-0.8-0.7l-0.2-0.2l-0.2-0.2l-0.4-0.3l-0.8-0.7l-0.4-0.3
			l-0.2-0.1l-0.3-0.2l-0.8-0.6l-0.6-0.4h-0.1l0,0l-0.8-0.5l-0.8-0.5l-0.2-0.1l-0.6-0.3l-0.7-0.4l-0.5-0.2l0,0h-0.1l-0.7-0.3
			l-0.7-0.3H452l0,0l-0.5-0.2l-0.7-0.2h-0.4h-0.2h-0.2l-0.8-0.1h-0.5h-2c-0.3,0-0.7,0.1-1,0.2l0,0h-0.2c-0.3,0.1-0.7,0.2-1,0.3h-0.1
			h-0.2c-0.4,0.2-0.8,0.3-1.2,0.6l0,0l-4,2.3c0.4-0.2,0.8-0.4,1.2-0.5h0.2c0.4-0.1,0.7-0.2,1.1-0.3h0.2c0.4-0.1,0.9-0.1,1.3-0.2h0.3
			c0.4,0,0.9,0,1.4,0h0.2c0.5,0.1,1,0.1,1.5,0.2h0.2c0.5,0.1,1,0.3,1.6,0.4l0,0c0.6,0.2,1.1,0.4,1.7,0.7h0.1
			c0.6,0.3,1.2,0.6,1.8,0.9c0.6,0.3,1.2,0.7,1.8,1.1h0.1c0.5,0.4,1.1,0.8,1.6,1.2l0.2,0.1c0.5,0.4,1,0.9,1.5,1.3l0.2,0.2
			c0.5,0.5,1,1,1.5,1.5l0.1,0.1c0.5,0.5,1,1.1,1.5,1.7l0,0c0.5,0.6,1,1.2,1.5,1.9l0,0c0.4,0.6,0.8,1.2,1.2,1.8
			c0.4,0.6,0.5,0.8,0.7,1.2l0.6,1l0.3,0.5l0.9,1.7v0.2c0.4,0.7,0.7,1.4,1,2l0,0c0.3,0.7,0.6,1.4,0.8,2v0.1c0.3,0.7,0.5,1.4,0.7,2.1
			v0.1c0.2,0.7,0.4,1.4,0.5,2v0.2c0.2,0.7,0.3,1.4,0.4,2l0,0c0.1,0.7,0.2,1.4,0.3,2v0.3c0,0.7,0,1.4,0,2c0,0.6,0,1.3,0,2
			c0,0,0,0.1,0,0.2c0,0.6-0.1,1.1-0.2,1.7c0,0,0,0.2,0,0.2c-0.1,0.5-0.2,1-0.4,1.5c0,0,0,0.2,0,0.3c-0.1,0.4-0.3,0.9-0.5,1.3
			c0,0,0,0.1,0,0.1c-0.2,0.4-0.5,0.9-0.7,1.3l-0.1,0.2c-0.2,0.3-0.4,0.6-0.7,0.9l-0.3,0.3l-0.7,0.6l-0.3,0.3c-0.3,0.3-0.7,0.5-1,0.7
			l0,0l4-2.3c0.4-0.2,0.7-0.5,1-0.7l0.3-0.2c0.2-0.2,0.5-0.4,0.7-0.6l0.3-0.3c0.2-0.3,0.5-0.6,0.7-0.9c0,0,0.1-0.1,0.1-0.2l0,0
			c0.2-0.4,0.5-0.8,0.7-1.2l0,0v-0.1l0.4-0.8c0-0.2,0.1-0.3,0.1-0.4V247v-0.2l0.2-0.9v-0.3c0-0.1,0-0.1,0-0.2c0,0,0-0.2,0-0.3
			l0.1-0.9c0-0.1,0-0.3,0-0.5v-0.2c0-0.1,0-0.1,0-0.2c0-0.3,0-0.6,0-0.8s0-0.6,0-0.9v-0.9L472.5,240.5z"/>
		
			<linearGradient id="SVGID_24_" gradientUnits="userSpaceOnUse" x1="-144.0283" y1="612.6212" x2="-143.0283" y2="612.6212" gradientTransform="matrix(71.003 0 0 -62.4315 10663.2422 38408.1602)">
			<stop  offset="0" style="stop-color:#E29A64"/>
			<stop  offset="1" style="stop-color:#E85E8C"/>
		</linearGradient>
		<path class="st47" d="M507.8,185.6c-1.4-3.4-2.9-6.6-4.3-9.6c-11.9-24.5-25.3-41.8-29.7-45.4c-0.9-0.7-2.1-0.7-3,0
			c-4.4,3.6-17.7,20.9-29.7,45.4c-1.4,3-2.9,6.2-4.3,9.5C457.7,194.8,486.9,194.8,507.8,185.6z"/>
		<path class="st48" d="M472.9,130.2c-7.7,19.7-13.8,40-18.3,60.7c-6.2-1.1-12.2-2.9-17.9-5.4c0.4-1.1,0.9-2.2,1.4-3.2
			c0.6-1.4,1.2-2.7,1.8-4l1.1-2.3c12-24.5,25.3-41.8,29.7-45.4c0.5-0.4,1.2-0.6,1.8-0.5C472.7,130.1,472.8,130.1,472.9,130.2
			L472.9,130.2z"/>
		
			<linearGradient id="SVGID_25_" gradientUnits="userSpaceOnUse" x1="-144.6676" y1="615.4218" x2="-143.6676" y2="615.4218" gradientTransform="matrix(105.0748 0 0 -17.8488 15620.6455 11263.2334)">
			<stop  offset="0" style="stop-color:#E29A64"/>
			<stop  offset="1" style="stop-color:#E85E8C"/>
		</linearGradient>
		<path class="st49" d="M524.6,276.3c0.1-2.2,0.2-4.3,0.2-6.5c-14.4,7.9-33.3,12.2-53.4,12.2c-19.3,0-37.4-4-51.7-11.2
			c0,2.2,0.1,4.3,0.2,6.4C450.6,291.4,494.7,291.1,524.6,276.3z"/>
		
			<linearGradient id="SVGID_26_" gradientUnits="userSpaceOnUse" x1="-144.6676" y1="615.4213" x2="-143.6676" y2="615.4213" gradientTransform="matrix(105.0748 0 0 -17.8514 15620.6455 11251.0137)">
			<stop  offset="0" style="stop-color:#E29A64"/>
			<stop  offset="1" style="stop-color:#E85E8C"/>
		</linearGradient>
		<path class="st50" d="M524.6,262.4c0.1-2.2,0.2-4.3,0.2-6.5c-14.4,7.9-33.3,12.2-53.4,12.2c-19.3,0-37.4-4-51.7-11.2
			c0,2.2,0.1,4.3,0.2,6.4C450.6,277.6,494.7,277.3,524.6,262.4z"/>
		<g transform="translate(209.424648, 256.698619)" class="st51">
			<g transform="translate(0.000000, 13.136986)" class="st52">
				<path class="st53" d="M237.1,15.6C228,14,219,11.2,210.6,7.4c-0.1-2-0.2-4-0.3-6.2V0.9c8.4,4.2,17.3,7.1,26.5,8.8
					C236.9,11.7,237,13.6,237.1,15.6z"/>
			</g>
			<path class="st54" d="M236.6,14.8c-9-1.6-17.7-4.3-26-8.1c0-0.8,0-1.6-0.1-2.5l0,0c0-1.3-0.1-2.6-0.2-3.9l0.3,0.2
				c8.2,4,16.9,6.9,25.9,8.6l0,0C236.5,10.9,236.6,12.9,236.6,14.8z"/>
		</g>
	</g>
</g>
</svg>
