<?xml version="1.0" encoding="UTF-8"?>
<svg width="40px" height="40px" viewBox="0 0 40 40" version="1.1" xmlns="http://www.w3.org/2000/svg" xmlns:xlink="http://www.w3.org/1999/xlink">
    <!-- Generator: sketchtool 63.1 (101010) - https://sketch.com -->
    <title>B11161AE-B598-402D-8611-2494F102E7B1</title>
    <desc>Created with sketchtool.</desc>
    <g id="Services" stroke="none" stroke-width="1" fill="none" fill-rule="evenodd">
        <g transform="translate(-231.000000, -3423.000000)" fill="#FFFFFF" id="Group-18-Copy-2">
            <g transform="translate(211.000000, 3029.000000)">
                <g id="list" transform="translate(0.000000, 376.000000)">
                    <g id="Group-14" transform="translate(20.000000, 18.000000)">
                        <g id="iOS">
                            <g id="grey_grad">
                                <g id="ecommerce">
                                    <path d="M10.5,29 C12.4329966,29 14,30.5670034 14,32.5 C14,34.4329966 12.4329966,36 10.5,36 C8.56700338,36 7,34.4329966 7,32.5 C7,30.5670034 8.56700338,29 10.5,29 Z M25.5,29 C27.4329966,29 29,30.5670034 29,32.5 C29,34.4329966 27.4329966,36 25.5,36 C23.5670034,36 22,34.4329966 22,32.5 C22,30.5670034 23.5670034,29 25.5,29 Z M32.8927434,13 C33.3398649,13 33.7740914,13.1498261 34.1260764,13.425551 C34.9521434,14.0726445 35.1312791,15.23952 34.5631256,16.1001153 L34.4671924,16.233333 L26.6337661,26.233333 C26.2891321,26.673286 25.7779678,26.9469335 25.2260043,26.9930517 L25.0593171,27 L10,27 C8.9456382,27 8.08183488,26.1841222 8.00548574,25.1492623 L8,25 L8,15 C8,13.9456382 8.81587779,13.0818349 9.85073766,13.0054857 L10,13 L32.8927434,13 Z M10,4 L10,8 C10,8.55228475 10.4477153,9 11,9 L32,9 C32.5522847,9 33,9.44771525 33,10 C33,10.5522847 32.5522847,11 32,11 L9,11 C8.44771525,11 8,10.5522847 8,10 L8,6 L6,6 C5.44771525,6 5,5.55228475 5,5 C5,4.44771525 5.44771525,4 6,4 L10,4 Z" id="Combined-Shape"></path>
                                </g>
                            </g>
                        </g>
                    </g>
                </g>
            </g>
        </g>
    </g>
</svg>