<?xml version="1.0" encoding="UTF-8"?>
<svg width="40px" height="40px" viewBox="0 0 40 40" version="1.1" xmlns="http://www.w3.org/2000/svg" xmlns:xlink="http://www.w3.org/1999/xlink">
    <!-- Generator: sketchtool 63.1 (101010) - https://sketch.com -->
    <title>891AFCB5-49CE-4256-ABE2-6AB9AD96CDF9</title>
    <desc>Created with sketchtool.</desc>
    <g id="Services" stroke="none" stroke-width="1" fill="none" fill-rule="evenodd">
        <g transform="translate(-989.000000, -4241.000000)" fill="#1F1F20" id="Group-18-Copy-3">
            <g transform="translate(969.000000, 3952.000000)">
                <g id="list-copy-5" transform="translate(0.000000, 271.000000)">
                    <g id="Group-14" transform="translate(20.000000, 18.000000)">
                        <g id="iOS">
                            <g id="grey_grad">
                                <g id="erp">
                                    <path d="M21.5999996,2 C22.925483,2 24,3.07451662 24,4.40000005 L23.9998125,5.5143547 C23.9996266,6.61892419 24.8949065,7.51450534 25.9994759,7.51469121 C26.5299311,7.51478046 27.0386937,7.30413484 27.4138332,6.92909755 L28.202438,6.14070779 C29.1396963,5.20344947 30.6592923,5.20344947 31.5965506,6.14070779 L33.8592922,8.40344942 C34.7965505,9.34070774 34.7965505,10.8603037 33.8592922,11.797562 L33.0710513,12.5856427 C32.2899234,13.3666119 32.2897947,14.6329419 33.0707639,15.4140698 C33.4458483,15.7892305 33.9546178,16 34.4851212,16 L35.5999999,16 C36.9254834,16 38,17.074517 38,18.4000004 L38,21.6000003 C38,22.9254838 36.9254834,24 35.5999999,24 L34.4853081,24 C33.3807386,24 32.4853081,24.8954305 32.4853081,26 C32.4853081,26.5304209 32.6960122,27.0391182 33.0710699,27.4141889 L33.8592928,28.2024393 C34.7539484,29.097095 34.7946146,30.5223517 33.9812913,31.4652438 L33.8592928,31.5965519 L31.5965511,33.8592935 C30.7018955,34.7539492 29.2766387,34.7946154 28.3337466,33.981292 L28.2024385,33.8592935 L27.4140016,33.0708839 C26.6329396,32.2898487 25.3666096,32.2898706 24.5855745,33.0709326 C24.2104342,33.4460859 23.9997232,33.9549207 23.9998125,34.4854583 L24,35.5999999 C24,36.9254834 22.925483,38 21.5999996,38 L18.3999997,38 C17.0745162,38 16,36.9254834 16,35.5999999 L15.9998124,34.4849722 C15.9996265,33.3804027 15.1040454,32.4851229 13.9994759,32.4853088 C13.4690891,32.485398 12.9604571,32.6961607 12.5854551,33.071239 L11.7975607,33.8592935 C10.8603024,34.7965519 9.34070641,34.7965519 8.40344809,33.8592935 L6.14070646,31.5965519 C5.20344814,30.6592936 5.20344814,29.1396976 6.14070646,28.2024393 L6.92891006,27.4140207 C7.70985215,26.6328657 7.7096795,25.3665357 6.92852444,24.5855936 C6.55346737,24.2106388 6.04484219,24 5.5145037,24 L4.40000005,24 C3.07451662,24 2,22.9254838 2,21.6000003 L2,18.4000004 C2,17.074517 3.07451662,16 4.40000005,16 L5.51469065,16 C6.61926015,16 7.51469065,15.1045695 7.51469065,14 C7.51469065,13.469579 7.30398644,12.9608816 6.92892861,12.5858108 L6.14070701,11.797562 C5.24605134,10.9029064 5.20538517,9.47764965 6.01870851,8.53475752 L6.14070701,8.40344942 L8.40344864,6.14070779 C9.29810431,5.24605212 10.723361,5.20538596 11.6662532,6.01870929 L11.7975613,6.14070779 L12.5856235,6.92874255 C13.3666857,7.70977752 14.6330157,7.70975543 15.4140506,6.92869323 C15.7890258,6.55370495 15.9997231,6.04514517 15.9998124,5.51484092 L16,4.40000005 C16,3.07451662 17.0745162,2 18.3999997,2 L21.5999996,2 Z M14.9335938,15 L9,15 L9,24.9941406 L14.9335938,24.9941406 L14.9335938,22.7929688 L11.7001953,22.7929688 L11.7001953,20.90625 L14.6943359,20.90625 L14.6943359,18.7392578 L11.7001953,18.7392578 L11.7001953,17.1669922 L14.9335938,17.1669922 L14.9335938,15 Z M20.4580078,15 L17.1835938,15 L17.1835938,24.9941406 L19.8837891,24.9941406 L19.8837891,21.3574219 L20.5673828,21.3574219 L22.6865234,24.9941406 L25.7490234,24.9941406 L22.8369141,20.6396484 C23.9671224,20.0061849 24.5322266,19.1106771 24.5322266,17.953125 C24.5322266,15.984375 23.1741536,15 20.4580078,15 Z M29.6171875,15 L26.1582031,15 L26.1582031,24.9941406 L28.8583984,24.9941406 L28.8583984,21.6787109 L29.6171875,21.6787109 C30.8294271,21.6787109 31.7648112,21.3745117 32.4233398,20.7661133 C33.0818685,20.1577148 33.4111328,19.2952474 33.4111328,18.1787109 C33.4111328,17.1624349 33.094401,16.3785807 32.4609375,15.8271484 C31.8762019,15.318134 31.02353,15.0440493 29.9029216,15.0048944 L29.6171875,15 Z M29.5556641,17.1806641 C30.3030599,17.1806641 30.6767578,17.5179036 30.6767578,18.1923828 C30.6767578,18.5934245 30.5571289,18.9078776 30.3178711,19.1357422 C30.0786133,19.3636068 29.7561849,19.4775391 29.3505859,19.4775391 L28.8583984,19.4775391 L28.8583984,17.1806641 L29.5556641,17.1806641 Z M20.4169922,17.0439453 C21.3421224,17.0439453 21.8046875,17.3880208 21.8046875,18.0761719 C21.8046875,18.9101562 21.3330078,19.3271484 20.3896484,19.3271484 L19.8837891,19.3271484 L19.8837891,17.0439453 L20.4169922,17.0439453 Z" id="Combined-Shape"></path>
                                </g>
                            </g>
                        </g>
                    </g>
                </g>
            </g>
        </g>
    </g>
</svg>