<?xml version="1.0" encoding="utf-8"?>
<!-- Generator: Adobe Illustrator 23.0.0, SVG Export Plug-In . SVG Version: 6.00 Build 0)  -->
<svg version="1.1" xmlns="http://www.w3.org/2000/svg" xmlns:xlink="http://www.w3.org/1999/xlink" x="0px" y="0px"
	 viewBox="0 0 940 740" style="enable-background:new 0 0 940 740;" xml:space="preserve">
<style type="text/css">
	.st0{fill-rule:evenodd;clip-rule:evenodd;fill:#FFFFFF;}
	.st1{fill-rule:evenodd;clip-rule:evenodd;fill:#112B46;}
	.st2{fill-rule:evenodd;clip-rule:evenodd;fill:#21496D;}
	.st3{fill-rule:evenodd;clip-rule:evenodd;fill:#575757;}
	.st4{fill-rule:evenodd;clip-rule:evenodd;fill:#20318D;}
	.st5{fill-rule:evenodd;clip-rule:evenodd;fill:#FFC8AF;}
	.st6{fill-rule:evenodd;clip-rule:evenodd;fill:#F4AE92;}
	.st7{fill-rule:evenodd;clip-rule:evenodd;fill:#EC827D;}
	.st8{fill-rule:evenodd;clip-rule:evenodd;fill:#E38870;}
	.st9{fill-rule:evenodd;clip-rule:evenodd;fill:#83C9FF;}
	.st10{filter:url(#Adobe_OpacityMaskFilter);}
	.st11{mask:url(#mask-2_1_);fill-rule:evenodd;clip-rule:evenodd;fill:#112B46;}
	.st12{fill-rule:evenodd;clip-rule:evenodd;fill:#5E5E5E;}
	.st13{fill-rule:evenodd;clip-rule:evenodd;fill:#C7C7C7;}
	.st14{fill-rule:evenodd;clip-rule:evenodd;fill:#B4B4B4;}
	.st15{fill-rule:evenodd;clip-rule:evenodd;fill:#E4E4E5;}
	.st16{fill-rule:evenodd;clip-rule:evenodd;fill:#D86868;}
	.st17{fill-rule:evenodd;clip-rule:evenodd;fill:#FF95B6;}
	.st18{fill-rule:evenodd;clip-rule:evenodd;fill:#C94F71;}
	.st19{filter:url(#Adobe_OpacityMaskFilter_1_);}
	.st20{mask:url(#mask-4_1_);fill-rule:evenodd;clip-rule:evenodd;fill:#FF95B6;}
	.st21{fill-rule:evenodd;clip-rule:evenodd;fill:#E76388;}
	.st22{fill-rule:evenodd;clip-rule:evenodd;fill:#7181F4;}
	.st23{fill-rule:evenodd;clip-rule:evenodd;fill:#EDB1A1;}
	.st24{fill-rule:evenodd;clip-rule:evenodd;fill:#CD745D;}
	.st25{fill-rule:evenodd;clip-rule:evenodd;fill:#FFDC85;}
	.st26{fill-rule:evenodd;clip-rule:evenodd;fill:#F2AD91;}
	.st27{fill-rule:evenodd;clip-rule:evenodd;fill:#A5B7C6;}
	.st28{fill-rule:evenodd;clip-rule:evenodd;fill:#B6C7D3;}
	.st29{fill-rule:evenodd;clip-rule:evenodd;fill:url(#Fill-139_1_);}
	.st30{fill-rule:evenodd;clip-rule:evenodd;fill:#CA715C;}
	.st31{fill-rule:evenodd;clip-rule:evenodd;fill:#FBD15B;}
	.st32{fill-rule:evenodd;clip-rule:evenodd;fill:#CCD9E2;}
	.st33{fill-rule:evenodd;clip-rule:evenodd;fill:#E48473;}
	.st34{fill-rule:evenodd;clip-rule:evenodd;fill:#BEE1F4;}
	.st35{fill-rule:evenodd;clip-rule:evenodd;fill:#606BF1;}
	.st36{fill-rule:evenodd;clip-rule:evenodd;fill:#EEEEEE;}
	.st37{fill-rule:evenodd;clip-rule:evenodd;fill:url(#Fill-495_1_);}
	.st38{fill-rule:evenodd;clip-rule:evenodd;fill:#879FAF;}
	.st39{fill-rule:evenodd;clip-rule:evenodd;fill:#56548C;}
	.st40{fill-rule:evenodd;clip-rule:evenodd;fill:#D34C4C;}
	.st41{fill-rule:evenodd;clip-rule:evenodd;fill:#00C3B6;}
	.st42{fill-rule:evenodd;clip-rule:evenodd;fill:#CECCFF;}
	.st43{fill-rule:evenodd;clip-rule:evenodd;fill:#EAEEEF;}
	.st44{fill-rule:evenodd;clip-rule:evenodd;fill:#EFBC3F;}
	.st45{filter:url(#Adobe_OpacityMaskFilter_2_);}
	.st46{mask:url(#mask-8_1_);fill-rule:evenodd;clip-rule:evenodd;fill:#FFFFFF;}
	.st47{fill-rule:evenodd;clip-rule:evenodd;fill:#F49898;}
	.st48{fill:none;}
	.st49{fill-rule:evenodd;clip-rule:evenodd;fill:#8A8A8A;}
	.st50{fill-rule:evenodd;clip-rule:evenodd;}
	.st51{fill-rule:evenodd;clip-rule:evenodd;fill:#505050;}
	.st52{fill-rule:evenodd;clip-rule:evenodd;fill:#969696;}
	.st53{fill-rule:evenodd;clip-rule:evenodd;fill:#606060;}
	.st54{fill-rule:evenodd;clip-rule:evenodd;fill:#535353;}
</style>
<g id="Layer_2">
	<g>
		<polygon id="path-7" class="st0" points="2.9,661.3 3.8,661.3 3.8,662.2 2.9,662.2 		"/>
	</g>
	<g>
		<polygon id="path-3" class="st0" points="2.9,306.1 146.2,306.1 146.2,417.3 2.9,417.3 		"/>
	</g>
	<g>
		<polygon id="path-1" class="st0" points="406.9,77.9 426.6,77.9 426.6,99.2 406.9,99.2 		"/>
	</g>
</g>
<g id="Layer_1">
	<title>es</title>
	<desc>Created with Sketch.</desc>
	<g>
		<g transform="translate(140.000000, 77.000000)">
			<path id="Fill-1_2_" class="st1" d="M-49.3,345.3c0,0,16,18.7,20.2,19.9c4.3,1.3,0.4,5.6-2.9,6c-3.3,0.3-13.7-0.1-16.7-3.1
				c-3-3-11.6-6.2-11.6-6.2c0-9.7,2.3-15.8,2.3-15.8L-49.3,345.3z"/>
			<path id="Fill-3_2_" class="st1" d="M-43.7,213.4c0,0,2.1,41.3,1.3,54.9c-0.8,13.5-4.1,80.8-4.1,80.8c-8.7,1.9-14.3,0-14.3,0
				c-2.9-51.6-2.8-66.4-3.6-74.1c-0.8-7.7-1.8-29.9-1.8-29.9c-6.2-12.8,0.3-29.4,3.3-33.4C-59.8,207.7-43.7,213.4-43.7,213.4"/>
			<path id="Fill-5_2_" class="st1" d="M-75.4,363c0.5,7.6,3.3,16.5,4,21c0.7,4.5-0.9,7.1-2,8.5c-1,1.5-13.8-2.8-15.6-7.7
				c-1.7-4.9,1.8-9.2,2.1-18.5C-82.8,359-75.4,363-75.4,363"/>
			<path id="Fill-7_2_" class="st2" d="M-57,216.6c0,0-2.2,37.6-5.7,50.1c-3.5,12.5-6.6,49.3-8.1,55.7c-1.5,6.4-3.3,46-3.3,46
				c-8,2-14.2,0-14.2,0c0.2-37.1-0.7-67.2,0-77.4c0.7-10.2-0.3-40.3-0.3-40.3c-3.3-14-3.5-15.8,0-25.1C-85,216.3-70,208.9-57,216.6"
				/>
			<path id="Fill-9_2_" class="st3" d="M-49.7,127.3c13,3.7,19.9,36.3,23.6,43.6c3.6,7.3,33.9,9.2,33.9,9.2c1.8,6.4-3.3,13-3.3,13
				c-29.2-1.2-39.5-3.6-44.9-15.2C-45.8,166.4-64.8,131.3-49.7,127.3"/>
			<path id="Fill-11_2_" class="st0" d="M-49.7,127.3c-11.5-0.5-38.3,5.5-47.1,16.7c-8.8,11.2,4,31.1,7,43c3.1,12-1.4,42-1.4,44.8
				c13.7,9.1,46.6,10.2,50.2-3.3c1.5-14.7-1.8-32.2-2-40.8C-42.5,169.4-34.5,132.8-49.7,127.3"/>
			<path id="Fill-13_2_" class="st3" d="M-59.6,130.1c7.4,26.1,9.2,55.3,8.4,66.4c-0.7,11.1-1,46.8-1,46.8
				c8.6-4.5,12.4-12.9,12.4-16.7c0-3.8-3.3-36.1-3.1-38.8c0.1-2.6,4.4-32.3,3.1-45.6c-1.2-13.3-9.9-14.9-9.9-14.9h-11.1L-59.6,130.1
				z"/>
			<path id="Fill-15_2_" class="st4" d="M-52.5,98.6c5.1,1.6,0,13.1,0,13.1V98.6z"/>
			<path id="Fill-17_2_" class="st5" d="M-52.2,100.1c0,0,1.9,6.8,1.2,12s-1.2,15.7-5.9,19.1c-4.7,3.3-11.3-0.5-15.7-4.3
				c-4.4-3.8-9.1-10.7-9.2-19c-0.1-8.4,3.2-18.6,15.2-18.1C-54.5,90.3-52.2,100.1-52.2,100.1"/>
			<path id="Fill-19_2_" class="st5" d="M-75.6,119.5c0,0,0.9,10.8-1.9,14.8c-0.2,2.6,7.4,13.9,15,11.9c4.4-1.1,3.9-6.3,3.9-6.3
				c-0.5-3.9,0-13.4,0-13.4L-75.6,119.5z"/>
			<path id="Fill-21_2_" class="st1" d="M-49.2,91.1c1.7,6.2-0.2,8.4-5.5,10.2c-5.2,1.8-19.1-2.3-19.1-2.3
				c0.9,6.6-1.2,10.1-1.2,10.1c-2.3-6.5-4.4-3.2-4.6,2c-0.2,5.2,2.7,5.1,2.7,5.1c-0.2,4.4-1.6,5.9-1.6,5.9
				c-5.6-3.9-13.2-29.7-3.1-30.3C-81.5,82.8-52.9,77.8-49.2,91.1"/>
			<path id="Fill-23_2_" class="st3" d="M-78,132.5c9,18.9,13.7,36.2,13.4,51.8c-0.3,15.6-3.5,61.1-3.5,61.1
				c-15.6-3.8-26.2-8.2-29.2-13.5c6.7-17.6,9.1-29.4,7.7-34.4c-1.4-5-13.1-43.1-7-54.4C-90.8,136.8-78,132.5-78,132.5"/>
			<path id="Fill-25_2_" class="st3" d="M-91.6,142.7c10.7,5.3,19.3,34.9,27.4,42.9c4.6,4.5,27.5,10.4,33.9,10.5
				c2.5,5.6-2,11.9-2,11.9c-39.1-3.7-40.8-5.8-52.8-21.2C-100,167.8-105.9,139.1-91.6,142.7"/>
			<path id="Fill-27_2_" class="st6" d="M-58.9,132.2c-3.2,1.2-8-0.7-14.2-5.7c0,0,1.8,7.3,14.2,9.9V132.2z"/>
			<path id="Fill-29_2_" class="st0" d="M-76,130c-0.1,0.3-2,2.5-2,2.5s3.9,8.5,5.3,12.3c1.4,3.8,5.1,6.9,5.1,6.9l5-5.5
				C-69.5,142.5-76,130-76,130"/>
			<path id="Fill-31_2_" class="st0" d="M-59.3,132.7c-0.5-0.6-1.6,10.6-3.2,13.5c3.2,3,5.2,3.9,5.2,3.9S-55.5,137.5-59.3,132.7"/>
			<path id="Fill-33_2_" class="st1" d="M283.8,248.9c-0.4,5.6-0.9,11.2-0.9,11.2h-1.2c0,0,0-8.5-1.3-6.7
				C280.5,248.8,283.8,248.9,283.8,248.9"/>
			<path id="Fill-35_2_" class="st5" d="M266.5,258.4c-0.6,0-1.4-0.7-2.1-1.6c1.3-1.5,2.5-3,3.4-4.2c2.7-3.7,7-12,7.2-15.7
				c0.2-3.7-2.1-42.6-2.7-47.4c-0.6-4.8-2.4-22.8-2.2-23.8c0.2-1,16.7,6.4,16.7,6.4c-0.2,1.5-2.4,10.8-1.5,16.8
				c0.9,6,2.4,10,1.5,19.8c-0.8,9.8-5.6,25.6-3.9,33c0,0.1,0.1,0.3,0.1,0.4C278.1,248.7,276.4,261.7,266.5,258.4"/>
			<path id="Fill-37_2_" class="st1" d="M264.4,256.8c0.7,1,1.5,1.6,2.1,1.6c9.9,3.3,11.6-9.7,16.4-16.4c1.5,7.1,0.9,7.9-0.4,8.9
				c-1.3,1-5.9,6.6-6.7,10.6c-0.8,3.9-13.2,3.5-15.5,2.7C258.7,263.6,261.6,260.1,264.4,256.8"/>
			<path id="Fill-39_2_" class="st5" d="M300.7,205.6c0.5,4.4,3,37.9,2.6,43.5c-0.2,3.4-1.9,8.8-2.9,13.1c-0.6,2.7-1,5.1-0.6,6.2
				c1,2.9,1,11.4,5.7,9.5c4.6-1.9,7.7-7.9,6.8-14.4c-0.9-6.6,0.2-9.7-0.1-13.7c-0.3-3.9,2.4-28.4,2.8-37.1
				c0.4-8.7-2.5-12.9-2.7-18.6c-0.2-5.8,1.5-17.9,1.5-17.9s-20-10.5-18.3,2.2C297.1,190.9,300.3,201.2,300.7,205.6"/>
			<path id="Fill-41_2_" class="st1" d="M299,268.6c0.3,5.8,1.9,11.1,6.5,9.2c4.6-1.9,7.7-7.9,6.8-14.4c-2.5,7.3-12,6.9-11.8-1.2
				C299.8,264.9,299,267.5,299,268.6"/>
			<path id="Fill-43_2_" class="st7" d="M268.7,124c0,0,0,40.4,0,53.7c0,13.3,3.4,58,3.4,58c6.7,2.6,13.3-0.6,13.3-0.6
				c1-11.6,4.4-30.6,4.9-40.6c0.6-10-4-11.7-2.1-19c1.9-7.3,7-46.4,7-46.4L268.7,124z"/>
			<path id="Fill-45_2_" class="st7" d="M290.4,132.6c0,0,3.5,43.4,4.9,48.9c1.5,5.5,2.5,26.7,3.6,34c1.1,7.3,1.2,28.3,1.2,28.3
				c2.6,8.6,13.5,1.3,13.5,1.3c4.5-26.9,1.4-40.3,1.3-48.2c-0.1-7.9,3.7-28.5,2.9-37.1c-0.8-8.6-1.7-26.4-0.1-29.7
				c1.6-3.3,3.5-8.8,4.2-18.7c-12.8-4.9-33,0.6-33,0.6L290.4,132.6z"/>
			<path id="Fill-47_2_" class="st0" d="M270.7,38c11.4-0.6,30.7,12.9,39.4,23.9c8.7,11,3.3,23,0.4,34.8c-3,11.8,1.6,41.4,1.6,44.2
				c-13.4,9-38.5,10.1-42.3-3.2c-1.6-14.5,1.7-29.6,1.8-38.1C271.1,81.5,255.6,43.5,270.7,38"/>
			<path id="Fill-49_2_" class="st8" d="M280.6,40.7c-5.9,25.7-4.1,53.5-2.7,64.4c1.3,10.9,1.6,47.2,1.6,47.2
				c-8.8-4.4-13-12.6-13.2-16.4c-0.2-3.7,3.2-35.2,2.9-37.7c-0.2-2.6-4.7-26.9-4.2-40s5.4-15.1,5.4-15.1l11.3-5L280.6,40.7z"/>
			<path id="Fill-51_2_" class="st8" d="M297.1,43.4c-8.8,18.7-4.5,35.9-4.2,51.3c0.4,15.4,8.4,58.6,8.4,58.6
				c15.3-3.8,17.2-14.1,20.1-19.4c7.1-36-1.9-65.3-8.5-76.1C307.7,49.4,297.1,43.4,297.1,43.4"/>
			<path id="Fill-53_2_" class="st9" d="M235.4,101.6c2.1,1.2,5.6,1.2,7.7,0c2.1-1.2,2.2-3.2,0-4.5c-2.1-1.2-5.6-1.2-7.7,0
				C233.2,98.4,233.2,100.4,235.4,101.6"/>
			<path id="Fill-55_2_" class="st8" d="M306.7,58.1c-10.6,5.2-11.6,36.4-19.7,44.2c-4.6,4.4-23,0.9-29.3,1
				c-2.5,5.5,0.9,12.2,0.9,12.2c35.1,1.7,39.3,2.8,48.2-14.3C313.8,88,320.9,54.6,306.7,58.1"/>
			<path id="Fill-57_2_" class="st8" d="M270.4,43c-6.8,3.6-10,32-18.1,39.1c-4.6,4-6.6,7.7-16,12.4c-2.5,5.1,4.2,8.2,4.2,8.2
				c18.7-7.1,23-13.2,29.2-22.6C277.4,68.4,284.6,39.8,270.4,43"/>
			<path id="Fill-59_2_" class="st5" d="M240.1,101.7c-0.2,0.6-2.1,2.6-3.7,4.5c-1.6,1.8-4.2,5-5,4.2s0.7-3.9,0.7-3.9
				s-4.8,4.5-5.7,6.1c-0.9,1.5-0.4-2.9,0.9-4.9c-3.1,4.7-3.8,5.7-4.1,4.6c-0.2-1.2,2.3-7.5,1.9-6.9c-3.5,5.3-4.9,6.1-4.5,3.6
				c0.4-2.5,3.8-6.6,5.9-7.8c-6.1,4-6.6,3.6-5,1.8c1.5-1.8,7.2-6.1,14.8-7.2C241.2,100.2,240.1,101.7,240.1,101.7"/>
			<path id="Fill-61_2_" class="st5" d="M236,111.5c2-3.1,4.9-6.6,8.6-7.6c2.6-0.7,5.3-0.2,7.8,0.7c2,0.6,4.9,0.9,6.9,1.8
				c0.9,2.3,1.4,4.4,1.4,6.5c-0.4,0.1-0.8,0.2-1.4,0.3c-2.1,0.2-4.3,1-6.4,0.9c-1.4,0-3.7,0.4-5,0c0.5,0.2,1.2,0.4,1.3,1
				c0.1,0.5-0.3,0.9-0.8,1c-3.1,0.8-5.9-3-7.8-4.8C240.7,111.6,233.4,115.5,236,111.5"/>
			<path id="Fill-63_2_" class="st1" d="M268.9,11.8c-0.2,0.3-0.3,0.6-0.4,1c-0.6,1.7-0.2,3.7-0.6,5.5c-0.7,2.8-2.6,5-3.6,7.7
				c-3.4,9.9,6.4,15.5,15,14.8c1.5-0.1,3.1-0.5,4.3-1.4c4.2-3.2-0.5-8.3-2.5-11.2c-1.4-2.1-3.3-4.8-3.4-7.4c-0.2-2.4,1.1-4.4,0.6-7
				C277.5,8.8,271.2,7.7,268.9,11.8"/>
			<path id="Fill-65_2_" class="st5" d="M294.5,31.9c0,0-2.8,9.8,3.6,13.9c0.2,2.4-6.6,12.5-13.4,10.8c-4-1-6-6.7-6-6.7
				c0.4-3.5,2.4-11,2.4-11L294.5,31.9z"/>
			<path id="Fill-67_2_" class="st5" d="M271.6,12.1c0,0-1.8,6.2-1.1,11c0.7,4.8,1.1,14.4,5.4,17.5c4.3,3.1,10.4-0.5,14.4-3.9
				c4-3.4,8.3-9.8,8.4-17.4c0.1-7.7-2.9-17.1-14-16.6C273.7,3.1,271.6,12.1,271.6,12.1"/>
			<path id="Fill-69_2_" class="st1" d="M279.4,7.4c-2.9,3.5-1.5,7.8,2,10.4c2.4,1.8,4.6,2.9,6.2,5.7c1.5,2.5,2.3,5.5,2.5,8.4
				c0.1,2.4,0.1,4.9,0.3,7.3c0.1,1.1,0.1,2.7,1.3,3c1.4,0.4,4.2-0.7,5.5-1.4c2-1.2,3.8-2.8,5.3-4.6c3-3.5,4.8-8,5-12.6
				c0.3-8.6-4.6-14.1-10.8-19.1C290.4-0.6,284.4,1.2,279.4,7.4"/>
			<g id="Group-73_2_" transform="translate(404.699995, 0.048800)">
				<g id="Clip-72_2_">
				</g>
				<defs>
					<filter id="Adobe_OpacityMaskFilter" filterUnits="userSpaceOnUse" x="-137.8" y="0.9" width="19.7" height="21.3">
						<feColorMatrix  type="matrix" values="1 0 0 0 0  0 1 0 0 0  0 0 1 0 0  0 0 0 1 0"/>
					</filter>
				</defs>
				<mask maskUnits="userSpaceOnUse" x="-137.8" y="0.9" width="19.7" height="21.3" id="mask-2_1_">
					<g class="st10">
						<polygon id="path-1_1_" class="st0" points="-137.8,0.9 -118.1,0.9 -118.1,22.2 -137.8,22.2 						"/>
					</g>
				</mask>
				<path id="Fill-71_2_" class="st11" d="M-129.1,3.1C-129.1,3-129.1,3-129.1,3.1c2.2-1.5,11-4.2,11,0.3c0,4.5-6.5,8.9-10,10.9
					c-1.5,0.9-3.1,1.6-4.5,2.6c-1.8,1.4-2,4.1-3.6,5.3c-2.4-2.3-1.8-8.1-0.8-11C-135.7,7.4-132.3,5.2-129.1,3.1"/>
			</g>
			<path id="Fill-74_2_" class="st6" d="M280.5,41.7c4.5-0.4,9.5-4.8,9.5-4.8s-1,5.3-10,7.1L280.5,41.7z"/>
			<path id="Fill-76_2_" class="st12" d="M409.1,305.6c-4.4,6.8-3.4,11.6-2.1,12.2c25.9,11.5,42,8,46,6.7c-4.3-6-8.3-11.7-13.2-18.3
				C427.1,308.6,409.1,305.6,409.1,305.6"/>
			<polygon id="Fill-78_2_" class="st13" points="334,121.3 333.9,149.8 282,180 282.1,151.4 			"/>
			<polygon id="Fill-80_2_" class="st13" points="100.6,151.4 100.6,180 48.4,149.9 48.4,121.3 			"/>
			<path id="Fill-82_2_" class="st14" d="M235.4,191.1l0.1-28.6c0-4,2.7-8.1,8-11.1c10.6-6.2,28-6.2,38.7,0L282,180
				c-10.7-6.2-28.1-6.2-38.7,0C238,183.1,235.4,187.1,235.4,191.1"/>
			<path id="Fill-84_2_" class="st14" d="M147.4,162.7l-0.1,28.6c0-4.1-2.7-8.2-8.1-11.3c-10.7-6.2-28.1-6.2-38.7,0l0.1-28.6
				c10.7-6.2,28-6.2,38.7,0C144.8,154.5,147.4,158.6,147.4,162.7"/>
			<polygon id="Fill-86_2_" class="st13" points="191.7,204 191.6,232.5 139.4,202.4 139.5,173.8 			"/>
			<polygon id="Fill-88_2_" class="st13" points="243.5,173.8 243.5,202.4 191.6,232.5 191.7,204 			"/>
			<path id="Fill-90_2_" class="st15" d="M334,121.3l-51.9,30.1c-10.7-6.2-28.1-6.2-38.7,0c-10.7,6.2-10.6,16.2,0.1,22.4L191.7,204
				l-52.2-30.1c10.7-6.2,10.6-16.2-0.1-22.4c-10.7-6.2-28-6.2-38.7,0l-52.2-30.1l142.3-82.7L334,121.3z"/>
			<path id="Fill-92_2_" class="st16" d="M104.3,187.8l-0.1,28.6c0,4-2.7,8.1-8,11.1l0.1-28.6C101.6,195.9,104.3,191.8,104.3,187.8"
				/>
			<polygon id="Fill-94_2_" class="st17" points="148.5,229.1 148.4,257.6 96.6,287.8 96.7,259.2 			"/>
			<path id="Fill-96_2_" class="st18" d="M49.9,298.9l0.1-28.6c0-4,2.7-8.1,8-11.1c10.7-6.2,28-6.2,38.7,0l-0.1,28.6
				c-10.7-6.2-28.1-6.2-38.7,0C52.6,290.8,49.9,294.9,49.9,298.9"/>
			<polygon id="Fill-98_2_" class="st17" points="58.1,281.6 58,310.2 6.1,340.3 6.2,311.8 			"/>
			<g id="Group-102_2_" transform="translate(0.900000, 229.048797)">
				<g id="Clip-101_2_">
				</g>
				<defs>
					<filter id="Adobe_OpacityMaskFilter_1_" filterUnits="userSpaceOnUse" x="-138" y="0" width="143.3" height="111.3">
						<feColorMatrix  type="matrix" values="1 0 0 0 0  0 1 0 0 0  0 0 1 0 0  0 0 0 1 0"/>
					</filter>
				</defs>
				<mask maskUnits="userSpaceOnUse" x="-138" y="0" width="143.3" height="111.3" id="mask-4_1_">
					<g class="st19">
						<polygon id="path-3_1_" class="st0" points="-138,0 5.3,0 5.3,111.3 -138,111.3 						"/>
					</g>
				</mask>
				<polygon id="Fill-100_2_" class="st20" points="5.3,82.7 5.2,111.3 -138,28.6 -137.9,0 				"/>
			</g>
			<path id="Fill-103_2_" class="st21" d="M96.2,176.5c10.7,6.2,10.8,16.2,0.1,22.4l52.2,30.1l-51.8,30.1c-10.7-6.2-28.1-6.2-38.7,0
				c-10.7,6.2-10.6,16.2,0.1,22.4L6.2,311.8L-137,229.1L5.3,146.4l52.2,30.1C68.1,170.3,85.5,170.3,96.2,176.5"/>
			<path id="Fill-105_2_" class="st22" d="M278.8,216.2l0.1-28.6c0,4.1,2.7,8.2,8.1,11.3l-0.1,28.6
				C281.5,224.4,278.8,220.3,278.8,216.2"/>
			<polygon id="Fill-107_2_" class="st23" points="287.3,259.2 287.2,287.8 235,257.6 235.1,229.1 			"/>
			<path id="Fill-109_2_" class="st24" d="M334.1,270.5l-0.1,28.6c0-4.1-2.7-8.2-8.1-11.3c-10.7-6.2-28.1-6.2-38.7,0l0.1-28.6
				c10.7-6.2,28-6.2,38.7,0C331.4,262.3,334.1,266.4,334.1,270.5"/>
			<polygon id="Fill-111_2_" class="st23" points="378.4,311.8 378.3,340.3 326.1,310.2 326.2,281.6 			"/>
			<g id="Group-115_2_" transform="translate(515.799994, 229.048797)">
				<polygon id="Fill-113_2_" class="st24" points="4.9,0 4.8,28.6 -137.5,111.3 -137.4,82.7 				"/>
			</g>
			<g id="Group-118_2_" transform="translate(372.399995, 146.348798)">
				<path id="Fill-116_2_" class="st8" d="M148.3,82.7L6,165.4l-52.2-30.1c10.7-6.2,10.6-16.2-0.1-22.4c-10.7-6.2-28.1-6.2-38.7,0
					l-52.2-30.1l51.9-30.1c-10.7-6.2-10.8-16.2-0.1-22.4c10.6-6.2,28-6.2,38.7,0L5,0L148.3,82.7z"/>
			</g>
			<path id="Fill-119_2_" class="st13" d="M290.9,295.6l-0.1,28.6c0,4-2.7,8.1-8,11.1l0.1-28.6C288.3,303.6,290.9,299.6,290.9,295.6
				"/>
			<path id="Fill-121_2_" class="st25" d="M93.4,324l0.1-28.6c0,4.1,2.7,8.2,8.1,11.3l-0.1,28.6C96,332.2,93.3,328.1,93.4,324"/>
			<path id="Fill-123_2_" class="st26" d="M141.8,429.5c0,0,1.4,0.5,4.7,1.9c3.3,1.4,10.4,1.8,14.8,1.1c4.4-0.7,10.5-1.7,9.3-3.3
				c-1.2-1.6-23.5-7.2-24.4-6.7C145.3,422.9,141.8,429.5,141.8,429.5"/>
			<polygon id="Fill-125_2_" class="st13" points="192.9,419.5 192.8,448.1 49.6,365.4 49.7,336.8 			"/>
			<polygon id="Fill-127_2_" class="st14" points="335.2,336.8 335.1,365.4 192.8,448.1 192.9,419.5 			"/>
			<path id="Fill-129_2_" class="st15" d="M282.9,284.3c10.7,6.2,10.8,16.2,0.1,22.4l52.2,30.1l-142.3,82.7L49.7,336.8l51.9-30.1
				c-10.7-6.2-10.8-16.2-0.1-22.4c10.7-6.2,28-6.2,38.7,0l51.9-30.1l52.2,30.1C254.8,278.1,272.2,278.1,282.9,284.3"/>
			<path id="Fill-131_2_" class="st27" d="M193.2,330.8l0,3c0,2.3-1.5,4.7-4.6,6.5c-6.2,3.6-16.3,3.6-22.5,0
				c-3.1-1.8-4.7-4.2-4.7-6.6l0-3c0,2.4,1.6,4.8,4.7,6.6c6.2,3.6,16.3,3.6,22.5,0C191.7,335.5,193.2,333.1,193.2,330.8"/>
			<path id="Fill-133_2_" class="st28" d="M188.5,324.2c6.3,3.6,6.3,9.5,0.1,13.1c-6.2,3.6-16.3,3.6-22.5,0c-6.2-3.6-6.3-9.4-0.1-13
				C172.2,320.6,182.3,320.6,188.5,324.2"/>
			<path id="Fill-135_2_" class="st28" d="M214.8,234.1c-0.9-0.5-2.2-0.5-3.7,0.4l-79.5,45.9c-2.9,1.7-5.2,5.6-5.2,8.9l0.1,59.4
				c0,1.6,0.6,2.8,1.5,3.3l5.1,3c-0.9-0.5-1.5-1.7-1.5-3.3l-0.1-59.4c0-3.3,2.3-7.3,5.2-8.9l79.5-45.9c1.4-0.8,2.7-0.9,3.7-0.4
				L214.8,234.1z"/>
			<path id="Fill-137_2_" class="st27" d="M216.3,237.5c2.9-1.6,5.2-0.3,5.2,3l0.1,59.4c0,3.3-2.3,7.3-5.2,8.9L137,354.7
				c-2.9,1.7-5.2,0.3-5.2-2.9l-0.1-59.4c0-3.3,2.3-7.3,5.2-8.9L216.3,237.5z"/>
			
				<linearGradient id="Fill-139_1_" gradientUnits="userSpaceOnUse" x1="-72.5169" y1="593.178" x2="-71.5169" y2="593.178" gradientTransform="matrix(82.6424 0 0 -103.2517 6128.2915 61539.0586)">
				<stop  offset="0" style="stop-color:#E29A64"/>
				<stop  offset="1" style="stop-color:#E85E8C"/>
			</linearGradient>
			<polygon id="Fill-139_2_" class="st29" points="217.9,252.2 217.9,240.8 215.6,242.1 210.8,244.9 146.9,281.8 135.3,288.5 
				135.3,292.3 135.3,292.3 135.4,320.5 135.4,344.1 186.1,314.8 194,310.3 218,296.4 			"/>
			<polygon id="Fill-141_2_" class="st30" points="146.9,281.8 135.4,288.4 135.4,292 217.9,244.4 217.8,240.8 			"/>
			<path id="Fill-143_2_" class="st0" d="M145,296.6c0,1.7-1.2,3.7-2.6,4.5c-1.4,0.8-2.6,0.2-2.6-1.5c0-1.7,1.2-3.7,2.6-4.5
				C143.9,294.2,145,294.9,145,296.6"/>
			<path id="Fill-145_2_" class="st7" d="M145,305.7c0,1.7-1.2,3.7-2.6,4.5s-2.6,0.2-2.6-1.5c0-1.7,1.2-3.7,2.6-4.5
				C143.9,303.4,145,304.1,145,305.7"/>
			<path id="Fill-147_2_" class="st31" d="M145,314.8c0,1.7-1.2,3.7-2.6,4.5s-2.6,0.2-2.6-1.5c0-1.7,1.2-3.7,2.6-4.5
				C143.9,312.4,145,313.1,145,314.8"/>
			<path id="Fill-149_2_" class="st7" d="M144.7,345c0,1.2-0.8,2.6-1.9,3.2c-1,0.6-1.9,0.1-1.9-1.1c0-1.2,0.8-2.6,1.9-3.2
				C143.9,343.3,144.7,343.8,144.7,345"/>
			<polygon id="Fill-151_2_" class="st21" points="250.3,347.3 224.9,332.6 258.8,313 284.2,327.7 			"/>
			<polygon id="Fill-153_2_" class="st18" points="250.3,348.4 250.3,347.3 284.2,327.7 284.2,328.8 			"/>
			<polygon id="Fill-155_2_" class="st18" points="250.3,347.3 250.3,348.4 224.9,333.7 224.9,332.6 			"/>
			<polygon id="Fill-157_2_" class="st32" points="159.6,365.1 159.6,367.3 184.4,381.7 184.4,379.5 			"/>
			<polygon id="Fill-159_2_" class="st27" points="184.4,379.5 184.4,381.7 239.4,350 239.4,347.8 			"/>
			<polygon id="Fill-161_2_" class="st28" points="159.6,365.1 184.4,379.5 239.4,347.8 214.6,333.3 			"/>
			<polygon id="Fill-163_2_" class="st32" points="211.2,337 211.2,338.1 214.6,340.1 214.6,339 			"/>
			<polygon id="Fill-165_2_" class="st27" points="214.6,339 214.6,340.1 218,338.1 218,337 			"/>
			<polygon id="Fill-167_2_" class="st28" points="211.2,337 214.6,339 218,337 214.6,335 			"/>
			<polygon id="Fill-169_2_" class="st32" points="206.9,339.5 206.9,340.6 210.3,342.6 210.3,341.5 			"/>
			<polygon id="Fill-171_2_" class="st27" points="210.3,341.5 210.3,342.6 213.7,340.6 213.7,339.5 			"/>
			<polygon id="Fill-173_2_" class="st28" points="206.9,339.5 210.3,341.5 213.7,339.5 210.2,337.5 			"/>
			<polygon id="Fill-175_2_" class="st32" points="202.5,342 202.5,343.1 206,345.1 205.9,344 			"/>
			<polygon id="Fill-177_2_" class="st27" points="205.9,344 206,345.1 209.3,343.1 209.3,342 			"/>
			<polygon id="Fill-179_2_" class="st28" points="202.5,342 205.9,344 209.3,342 205.9,340 			"/>
			<polygon id="Fill-181_2_" class="st32" points="198.2,344.5 198.2,345.6 201.6,347.6 201.6,346.5 			"/>
			<polygon id="Fill-183_2_" class="st27" points="201.6,346.5 201.6,347.6 205,345.6 205,344.5 			"/>
			<polygon id="Fill-185_2_" class="st28" points="198.2,344.5 201.6,346.5 205,344.6 201.6,342.6 			"/>
			<polygon id="Fill-187_2_" class="st32" points="193.8,347 193.8,348.1 197.3,350.1 197.3,349 			"/>
			<polygon id="Fill-189_2_" class="st27" points="197.3,349 197.3,350.1 200.6,348.2 200.6,347.1 			"/>
			<polygon id="Fill-191_2_" class="st28" points="193.8,347 197.3,349 200.6,347.1 197.2,345.1 			"/>
			<polygon id="Fill-193_2_" class="st32" points="189.5,349.5 189.5,350.6 192.9,352.6 192.9,351.5 			"/>
			<polygon id="Fill-195_2_" class="st27" points="192.9,351.5 192.9,352.6 196.3,350.7 196.3,349.6 			"/>
			<polygon id="Fill-197_2_" class="st28" points="189.5,349.5 192.9,351.5 196.3,349.6 192.9,347.6 			"/>
			<polygon id="Fill-199_2_" class="st32" points="185.1,352 185.1,353.1 188.6,355.1 188.6,354 			"/>
			<polygon id="Fill-201_2_" class="st27" points="188.6,354 188.6,355.1 192,353.2 192,352.1 			"/>
			<polygon id="Fill-203_2_" class="st28" points="185.1,352 188.6,354 192,352.1 188.5,350.1 			"/>
			<polygon id="Fill-205_2_" class="st32" points="180.8,354.5 180.8,355.6 184.2,357.6 184.2,356.5 			"/>
			<polygon id="Fill-207_2_" class="st27" points="184.2,356.5 184.2,357.6 187.6,355.7 187.6,354.6 			"/>
			<polygon id="Fill-209_2_" class="st28" points="180.8,354.5 184.2,356.5 187.6,354.6 184.2,352.6 			"/>
			<polygon id="Fill-211_2_" class="st32" points="176.4,357.1 176.4,358.1 179.9,360.1 179.9,359.1 			"/>
			<polygon id="Fill-213_2_" class="st27" points="179.9,359.1 179.9,360.1 183.3,358.2 183.3,357.1 			"/>
			<polygon id="Fill-215_2_" class="st28" points="176.4,357.1 179.9,359.1 183.3,357.1 179.8,355.1 			"/>
			<polygon id="Fill-217_2_" class="st32" points="172.1,359.6 172.1,360.7 175.5,362.7 175.5,361.6 			"/>
			<polygon id="Fill-219_2_" class="st27" points="175.5,361.6 175.5,362.7 178.9,360.7 178.9,359.6 			"/>
			<polygon id="Fill-221_2_" class="st28" points="172.1,359.6 175.5,361.6 178.9,359.6 175.5,357.6 			"/>
			<polygon id="Fill-223_2_" class="st32" points="163.4,364.6 163.4,365.7 166.8,367.7 166.8,366.6 			"/>
			<polygon id="Fill-225_2_" class="st27" points="166.8,366.6 166.8,367.7 174.6,363.2 174.6,362.1 			"/>
			<polygon id="Fill-227_2_" class="st28" points="163.4,364.6 166.8,366.6 174.6,362.1 171.1,360.1 			"/>
			<polygon id="Fill-229_2_" class="st32" points="211.2,342 211.2,343.1 214.7,345.1 214.7,344 			"/>
			<polygon id="Fill-231_2_" class="st27" points="214.7,344 214.7,345.1 222.4,340.7 222.4,339.6 			"/>
			<polygon id="Fill-233_2_" class="st28" points="211.2,342 214.7,344 222.4,339.6 219,337.6 			"/>
			<polygon id="Fill-235_2_" class="st32" points="206.9,344.5 206.9,345.6 210.3,347.6 210.3,346.5 			"/>
			<polygon id="Fill-237_2_" class="st27" points="210.3,346.5 210.3,347.6 213.7,345.7 213.7,344.6 			"/>
			<polygon id="Fill-239_2_" class="st28" points="206.9,344.5 210.3,346.5 213.7,344.6 210.3,342.6 			"/>
			<polygon id="Fill-241_2_" class="st32" points="202.6,347.1 202.6,348.2 206,350.1 206,349.1 			"/>
			<polygon id="Fill-243_2_" class="st27" points="206,349.1 206,350.1 209.4,348.2 209.4,347.1 			"/>
			<polygon id="Fill-245_2_" class="st28" points="202.6,347.1 206,349.1 209.4,347.1 205.9,345.1 			"/>
			<polygon id="Fill-247_2_" class="st32" points="198.2,349.6 198.2,350.7 201.6,352.7 201.6,351.6 			"/>
			<polygon id="Fill-249_2_" class="st27" points="201.6,351.6 201.6,352.7 205,350.7 205,349.6 			"/>
			<polygon id="Fill-251_2_" class="st28" points="198.2,349.6 201.6,351.6 205,349.6 201.6,347.6 			"/>
			<polygon id="Fill-253_2_" class="st32" points="193.9,352.1 193.9,353.2 197.3,355.2 197.3,354.1 			"/>
			<polygon id="Fill-255_2_" class="st27" points="197.3,354.1 197.3,355.2 200.7,353.2 200.7,352.1 			"/>
			<polygon id="Fill-257_2_" class="st28" points="193.9,352.1 197.3,354.1 200.7,352.1 197.2,350.1 			"/>
			<polygon id="Fill-259_2_" class="st32" points="189.5,354.6 189.5,355.7 193,357.7 193,356.6 			"/>
			<polygon id="Fill-261_2_" class="st27" points="193,356.6 193,357.7 196.3,355.7 196.3,354.6 			"/>
			<polygon id="Fill-263_2_" class="st28" points="189.5,354.6 193,356.6 196.3,354.6 192.9,352.6 			"/>
			<polygon id="Fill-265_2_" class="st32" points="185.2,357.1 185.2,358.2 188.6,360.2 188.6,359.1 			"/>
			<polygon id="Fill-267_2_" class="st27" points="188.6,359.1 188.6,360.2 192,358.2 192,357.1 			"/>
			<polygon id="Fill-269_2_" class="st28" points="185.2,357.1 188.6,359.1 192,357.1 188.6,355.1 			"/>
			<polygon id="Fill-271_2_" class="st32" points="180.8,359.6 180.8,360.7 184.3,362.7 184.3,361.6 			"/>
			<polygon id="Fill-273_2_" class="st27" points="184.3,361.6 184.3,362.7 187.7,360.7 187.6,359.6 			"/>
			<polygon id="Fill-275_2_" class="st28" points="180.8,359.6 184.3,361.6 187.6,359.6 184.2,357.6 			"/>
			<polygon id="Fill-277_2_" class="st32" points="176.5,362.1 176.5,363.2 179.9,365.2 179.9,364.1 			"/>
			<polygon id="Fill-279_2_" class="st27" points="179.9,364.1 179.9,365.2 183.3,363.2 183.3,362.2 			"/>
			<polygon id="Fill-281_2_" class="st28" points="176.5,362.1 179.9,364.1 183.3,362.1 179.9,360.2 			"/>
			<polygon id="Fill-283_2_" class="st32" points="172.1,364.6 172.1,365.7 175.6,367.7 175.6,366.6 			"/>
			<polygon id="Fill-285_2_" class="st27" points="175.6,366.6 175.6,367.7 179,365.8 179,364.7 			"/>
			<polygon id="Fill-287_2_" class="st28" points="172.1,364.6 175.6,366.6 179,364.7 175.5,362.7 			"/>
			<polygon id="Fill-289_2_" class="st32" points="167.8,367.1 167.8,368.2 171.2,370.2 171.2,369.1 			"/>
			<polygon id="Fill-291_2_" class="st27" points="171.2,369.1 171.2,370.2 174.6,368.3 174.6,367.2 			"/>
			<polygon id="Fill-293_2_" class="st28" points="167.8,367.1 171.2,369.1 174.6,367.2 171.2,365.2 			"/>
			<polygon id="Fill-295_2_" class="st32" points="215.6,344.6 215.6,345.7 219.1,347.7 219.1,346.6 			"/>
			<polygon id="Fill-297_2_" class="st27" points="219.1,346.6 219.1,347.7 226.8,343.2 226.8,342.1 			"/>
			<polygon id="Fill-299_2_" class="st28" points="215.6,344.6 219.1,346.6 226.8,342.1 223.4,340.1 			"/>
			<polygon id="Fill-301_2_" class="st32" points="211.3,347.1 211.3,348.2 214.7,350.2 214.7,349.1 			"/>
			<polygon id="Fill-303_2_" class="st27" points="214.7,349.1 214.7,350.2 218.1,348.2 218.1,347.1 			"/>
			<polygon id="Fill-305_2_" class="st28" points="211.3,347.1 214.7,349.1 218.1,347.1 214.7,345.1 			"/>
			<polygon id="Fill-307_2_" class="st32" points="206.9,349.6 206.9,350.7 210.4,352.7 210.4,351.6 			"/>
			<polygon id="Fill-309_2_" class="st27" points="210.4,351.6 210.4,352.7 213.8,350.7 213.8,349.6 			"/>
			<polygon id="Fill-311_2_" class="st28" points="206.9,349.6 210.4,351.6 213.8,349.6 210.3,347.6 			"/>
			<polygon id="Fill-313_2_" class="st32" points="202.6,352.1 202.6,353.2 206,355.2 206,354.1 			"/>
			<polygon id="Fill-315_2_" class="st27" points="206,354.1 206,355.2 209.4,353.2 209.4,352.2 			"/>
			<polygon id="Fill-317_2_" class="st28" points="202.6,352.1 206,354.1 209.4,352.2 206,350.2 			"/>
			<polygon id="Fill-319_2_" class="st32" points="198.2,354.6 198.2,355.7 201.7,357.7 201.7,356.6 			"/>
			<polygon id="Fill-321_2_" class="st27" points="201.7,356.6 201.7,357.7 205.1,355.8 205.1,354.7 			"/>
			<polygon id="Fill-323_2_" class="st28" points="198.2,354.6 201.7,356.6 205.1,354.7 201.6,352.7 			"/>
			<polygon id="Fill-325_2_" class="st32" points="193.9,357.1 193.9,358.2 197.3,360.2 197.3,359.1 			"/>
			<polygon id="Fill-327_2_" class="st27" points="197.3,359.1 197.3,360.2 200.7,358.3 200.7,357.2 			"/>
			<polygon id="Fill-329_2_" class="st28" points="193.9,357.1 197.3,359.1 200.7,357.2 197.3,355.2 			"/>
			<polygon id="Fill-331_2_" class="st32" points="189.5,359.6 189.5,360.7 193,362.7 193,361.6 			"/>
			<polygon id="Fill-333_2_" class="st27" points="193,361.6 193,362.7 196.4,360.8 196.4,359.7 			"/>
			<polygon id="Fill-335_2_" class="st28" points="189.5,359.6 193,361.6 196.4,359.7 192.9,357.7 			"/>
			<polygon id="Fill-337_2_" class="st32" points="185.2,362.2 185.2,363.2 188.6,365.2 188.6,364.1 			"/>
			<polygon id="Fill-339_2_" class="st27" points="188.6,364.1 188.6,365.2 192,363.3 192,362.2 			"/>
			<polygon id="Fill-341_2_" class="st28" points="185.2,362.2 188.6,364.1 192,362.2 188.6,360.2 			"/>
			<polygon id="Fill-343_2_" class="st32" points="180.9,364.7 180.9,365.7 184.3,367.7 184.3,366.7 			"/>
			<polygon id="Fill-345_2_" class="st27" points="184.3,366.7 184.3,367.7 187.7,365.8 187.7,364.7 			"/>
			<polygon id="Fill-347_2_" class="st28" points="180.9,364.7 184.3,366.7 187.7,364.7 184.2,362.7 			"/>
			<polygon id="Fill-349_2_" class="st32" points="172.2,369.7 172.2,370.8 175.6,372.8 175.6,371.7 			"/>
			<polygon id="Fill-351_2_" class="st27" points="175.6,371.7 175.6,372.8 183.3,368.3 183.3,367.2 			"/>
			<polygon id="Fill-353_2_" class="st28" points="172.2,369.7 175.6,371.7 183.3,367.2 179.9,365.2 			"/>
			<polygon id="Fill-355_2_" class="st32" points="215.7,349.6 215.7,350.7 219.1,352.7 219.1,351.6 			"/>
			<polygon id="Fill-357_2_" class="st27" points="219.1,351.6 219.1,352.7 231.2,345.8 231.2,344.7 			"/>
			<polygon id="Fill-359_2_" class="st28" points="215.7,349.6 219.1,351.6 231.2,344.7 227.8,342.7 			"/>
			<polygon id="Fill-361_2_" class="st32" points="211.3,352.2 211.3,353.2 214.8,355.2 214.8,354.2 			"/>
			<polygon id="Fill-363_2_" class="st27" points="214.8,354.2 214.8,355.2 218.2,353.3 218.2,352.2 			"/>
			<polygon id="Fill-365_2_" class="st28" points="211.3,352.2 214.8,354.2 218.2,352.2 214.7,350.2 			"/>
			<polygon id="Fill-367_2_" class="st32" points="207,354.7 207,355.8 210.4,357.8 210.4,356.7 			"/>
			<polygon id="Fill-369_2_" class="st27" points="210.4,356.7 210.4,357.8 213.8,355.8 213.8,354.7 			"/>
			<polygon id="Fill-371_2_" class="st28" points="207,354.7 210.4,356.7 213.8,354.7 210.4,352.7 			"/>
			<polygon id="Fill-373_2_" class="st32" points="202.6,357.2 202.6,358.3 206.1,360.3 206.1,359.2 			"/>
			<polygon id="Fill-375_2_" class="st27" points="206.1,359.2 206.1,360.3 209.5,358.3 209.5,357.2 			"/>
			<polygon id="Fill-377_2_" class="st28" points="202.6,357.2 206.1,359.2 209.5,357.2 206,355.2 			"/>
			<polygon id="Fill-379_2_" class="st32" points="198.3,359.7 198.3,360.8 201.7,362.8 201.7,361.7 			"/>
			<polygon id="Fill-381_2_" class="st27" points="201.7,361.7 201.7,362.8 205.1,360.8 205.1,359.7 			"/>
			<polygon id="Fill-383_2_" class="st28" points="198.3,359.7 201.7,361.7 205.1,359.7 201.7,357.7 			"/>
			<polygon id="Fill-385_2_" class="st32" points="193.9,362.2 193.9,363.3 197.4,365.3 197.4,364.2 			"/>
			<polygon id="Fill-387_2_" class="st27" points="197.4,364.2 197.4,365.3 200.8,363.3 200.8,362.2 			"/>
			<polygon id="Fill-389_2_" class="st28" points="193.9,362.2 197.4,364.2 200.8,362.2 197.3,360.2 			"/>
			<polygon id="Fill-391_2_" class="st32" points="189.6,364.7 189.6,365.8 193,367.8 193,366.7 			"/>
			<polygon id="Fill-393_2_" class="st27" points="193,366.7 193,367.8 196.4,365.8 196.4,364.7 			"/>
			<polygon id="Fill-395_2_" class="st28" points="189.6,364.7 193,366.7 196.4,364.7 193,362.7 			"/>
			<polygon id="Fill-397_2_" class="st32" points="185.3,367.2 185.3,368.3 188.7,370.3 188.7,369.2 			"/>
			<polygon id="Fill-399_2_" class="st27" points="188.7,369.2 188.7,370.3 192.1,368.3 192.1,367.2 			"/>
			<polygon id="Fill-401_2_" class="st28" points="185.3,367.2 188.7,369.2 192.1,367.2 188.6,365.3 			"/>
			<polygon id="Fill-403_2_" class="st32" points="176.6,372.2 176.6,373.3 180,375.3 180,374.2 			"/>
			<polygon id="Fill-405_2_" class="st27" points="180,374.2 180,375.3 187.7,370.8 187.7,369.8 			"/>
			<polygon id="Fill-407_2_" class="st28" points="176.6,372.2 180,374.2 187.7,369.8 184.3,367.8 			"/>
			<polygon id="Fill-409_2_" class="st32" points="228.7,347.2 228.7,348.3 232.2,350.3 232.2,349.2 			"/>
			<polygon id="Fill-411_2_" class="st27" points="232.2,349.2 232.2,350.3 235.6,348.3 235.6,347.2 			"/>
			<polygon id="Fill-413_2_" class="st28" points="228.7,347.2 232.2,349.2 235.6,347.2 232.1,345.2 			"/>
			<polygon id="Fill-415_2_" class="st32" points="224.4,349.7 224.4,350.8 227.8,352.8 227.8,351.7 			"/>
			<polygon id="Fill-417_2_" class="st27" points="227.8,351.7 227.8,352.8 231.2,350.8 231.2,349.7 			"/>
			<polygon id="Fill-419_2_" class="st28" points="224.4,349.7 227.8,351.7 231.2,349.7 227.8,347.7 			"/>
			<polygon id="Fill-421_2_" class="st32" points="220,352.2 220.1,353.3 223.5,355.3 223.5,354.2 			"/>
			<polygon id="Fill-423_2_" class="st27" points="223.5,354.2 223.5,355.3 226.9,353.3 226.9,352.2 			"/>
			<polygon id="Fill-425_2_" class="st28" points="220,352.2 223.5,354.2 226.9,352.2 223.4,350.2 			"/>
			<polygon id="Fill-427_2_" class="st32" points="198.3,364.7 198.3,365.8 201.8,367.8 201.8,366.7 			"/>
			<polygon id="Fill-429_2_" class="st27" points="201.8,366.7 201.8,367.8 222.5,355.8 222.5,354.7 			"/>
			<polygon id="Fill-431_2_" class="st28" points="198.3,364.7 201.8,366.7 222.5,354.7 219.1,352.7 			"/>
			<polygon id="Fill-433_2_" class="st32" points="194,367.2 194,368.3 197.4,370.3 197.4,369.2 			"/>
			<polygon id="Fill-435_2_" class="st27" points="197.4,369.2 197.4,370.3 200.8,368.4 200.8,367.3 			"/>
			<polygon id="Fill-437_2_" class="st28" points="194,367.2 197.4,369.2 200.8,367.3 197.4,365.3 			"/>
			<polygon id="Fill-439_2_" class="st32" points="189.6,369.8 189.6,370.8 193.1,372.8 193.1,371.8 			"/>
			<polygon id="Fill-441_2_" class="st27" points="193.1,371.8 193.1,372.8 196.5,370.9 196.5,369.8 			"/>
			<polygon id="Fill-443_2_" class="st28" points="189.6,369.8 193.1,371.8 196.5,369.8 193,367.8 			"/>
			<polygon id="Fill-445_2_" class="st32" points="180.9,374.8 180.9,375.9 184.4,377.9 184.4,376.8 			"/>
			<polygon id="Fill-447_2_" class="st27" points="184.4,376.8 184.4,377.9 192.1,373.4 192.1,372.3 			"/>
			<polygon id="Fill-449_2_" class="st28" points="180.9,374.8 184.4,376.8 192.1,372.3 188.7,370.3 			"/>
			<polygon id="Fill-451_2_" class="st33" points="194.2,276.7 194.3,294 209.3,285.3 209.2,268 			"/>
			<polygon id="Fill-453_2_" class="st28" points="179.9,291.5 179.9,292.1 190.8,285.9 190.8,285.2 			"/>
			<polygon id="Fill-455_2_" class="st28" points="179.9,289.3 179.9,290 190.8,283.7 190.8,283 			"/>
			<polygon id="Fill-457_2_" class="st28" points="179.9,287.1 179.9,287.8 190.8,281.5 190.7,280.9 			"/>
			<polygon id="Fill-459_2_" class="st28" points="179.8,285 179.9,285.7 190.7,279.4 190.7,278.7 			"/>
			<polygon id="Fill-461_2_" class="st28" points="179.9,295.8 179.9,296.5 190.8,290.2 190.8,289.5 			"/>
			<polygon id="Fill-463_2_" class="st28" points="179.9,293.6 179.9,294.3 190.8,288 190.8,287.3 			"/>
			<polygon id="Fill-465_2_" class="st28" points="182.6,296.4 182.6,297 190.8,292.3 190.8,291.7 			"/>
			<path id="Fill-467_2_" class="st31" d="M207.1,262.2c-0.3,0.2-0.5,0.6-0.5,0.9c0,0.3,0.2,0.5,0.5,0.3c0.3-0.2,0.5-0.6,0.5-0.9
				C207.6,262.2,207.4,262.1,207.1,262.2"/>
			<path id="Fill-469_2_" class="st28" d="M211.3,261c0.3-0.2,0.5-0.6,0.5-0.9c0-0.3-0.2-0.5-0.5-0.3c-0.3,0.2-0.5,0.6-0.5,0.9
				C210.8,261,211,261.2,211.3,261L211.3,261z M207.1,263.4c0.3-0.2,0.5-0.6,0.5-0.9c0-0.3-0.2-0.5-0.5-0.3
				c-0.3,0.2-0.5,0.6-0.5,0.9C206.6,263.5,206.8,263.6,207.1,263.4L207.1,263.4z M209.2,262.2c0.3-0.2,0.5-0.6,0.5-0.9
				c0-0.3-0.2-0.5-0.5-0.3c-0.3,0.2-0.5,0.6-0.5,0.9C208.7,262.3,208.9,262.4,209.2,262.2L209.2,262.2z M211.8,258.6
				c0.6-0.3,1-0.1,1,0.6l0,4.7c0-0.6-0.4-0.8-0.9-0.5l-34.6,20c-0.5,0.3-0.9,1-0.9,1.6l0-4.7c0-0.6,0.4-1.4,1-1.7L211.8,258.6z"/>
			<path id="Fill-471_2_" class="st34" d="M182.6,297l8.1-4.7l0-0.7l-8.1,4.7L182.6,297L182.6,297z M179.9,292.1l10.9-6.3l0-0.7
				l-10.9,6.3L179.9,292.1L179.9,292.1z M179.9,296.5l10.9-6.3l0-0.7l-10.9,6.3L179.9,296.5L179.9,296.5z M179.9,285.7l10.9-6.3
				l0-0.7l-10.9,6.3L179.9,285.7L179.9,285.7z M179.9,290l10.9-6.3l0-0.7l-10.9,6.3L179.9,290L179.9,290z M179.9,287.8l10.9-6.3
				l0-0.7l-10.9,6.3L179.9,287.8L179.9,287.8z M179.9,294.3l10.9-6.3l0-0.7l-10.9,6.3L179.9,294.3L179.9,294.3z M194.3,294l15-8.7
				l-0.1-17.3l-15,8.7L194.3,294L194.3,294z M212,263.3c0.5-0.3,0.9-0.1,0.9,0.5l0.1,22.6c0,0.6-0.4,1.3-0.9,1.6l-34.6,20
				c-0.5,0.3-0.9,0.1-0.9-0.5l-0.1-22.6c0-0.6,0.4-1.3,0.9-1.6L212,263.3z"/>
			<path id="Fill-473_2_" class="st7" d="M211.3,259.8c-0.3,0.2-0.5,0.6-0.5,0.9c0,0.3,0.2,0.5,0.5,0.3c0.3-0.2,0.5-0.6,0.5-0.9
				C211.8,259.8,211.6,259.6,211.3,259.8"/>
			<path id="Fill-475_2_" class="st35" d="M209.2,261c-0.3,0.2-0.5,0.6-0.5,0.9c0,0.3,0.2,0.5,0.5,0.3c0.3-0.2,0.5-0.6,0.5-0.9
				C209.7,261,209.5,260.9,209.2,261"/>
			<path id="Fill-477_2_" class="st27" d="M267.3,332.4c0,0.2-0.1,0.3-0.2,0.4c-0.1,0.1-7,4-7,4l-1.2-0.8c1.9-1.1,6-3.3,8.3-4.6
				C267.2,331.8,267.3,332.1,267.3,332.4"/>
			<path id="Fill-479_2_" class="st36" d="M267.2,331.4c-2.3,1.3-6.4,3.5-8.3,4.6l-14.4-9.1c1.2-0.7,2.5-1.4,3.7-2.1
				c2.4-1.3,4.9-3,7.6-3.4c2-0.2,4.1,0.6,5.9,1.6C263.3,323.9,266.7,326,267.2,331.4"/>
			<path id="Fill-481_2_" class="st32" d="M259.6,336.8c0.3,0.2,0.7-0.1,0.7-0.5c-0.3-6-4.1-8.1-5.8-9c-1.7-0.9-6.7-3-10.4-0.2
				c-0.3,0.2-0.2,0.6,0,0.8C249.8,331.2,257.2,335.4,259.6,336.8"/>
			<path id="Fill-483_2_" class="st27" d="M59.7,229.4l-2.4,1.4c0.4-0.3,0.7-0.8,0.7-1.6l2.4-1.4C60.4,228.6,60.2,229.1,59.7,229.4"
				/>
			<path id="Fill-485_2_" class="st27" d="M-12.1,131.4l2.4-1.4c0.4-0.3,1.1-0.2,1.7,0.2l-2.4,1.4C-11,131.2-11.6,131.2-12.1,131.4"
				/>
			<polygon id="Fill-487_2_" class="st27" points="58.1,174 60.6,172.5 60.4,227.8 58,229.2 			"/>
			<polygon id="Fill-489_2_" class="st27" points="-10.3,131.6 -7.9,130.2 58.1,168.3 55.7,169.7 			"/>
			<path id="Fill-491_2_" class="st27" d="M55.7,169.7l2.4-1.4c1.3,0.8,2.4,2.7,2.4,4.2l-2.4,1.4C58.1,172.4,57,170.5,55.7,169.7"/>
			<path id="Fill-493_2_" class="st1" d="M55.7,169.7c1.3,0.8,2.4,2.7,2.4,4.2L58,229.2c0,1.6-1.1,2.2-2.5,1.4l-66-38.1
				c-1.4-0.8-2.4-2.7-2.4-4.2l0.1-55.3c0-1.6,1.1-2.2,2.5-1.4L55.7,169.7z"/>
			
				<linearGradient id="Fill-495_1_" gradientUnits="userSpaceOnUse" x1="-73.1457" y1="593.2964" x2="-72.1457" y2="593.2964" gradientTransform="matrix(66.1219 0 0 -87.8978 4826.0898 52330.5703)">
				<stop  offset="0" style="stop-color:#E29A64"/>
				<stop  offset="1" style="stop-color:#E85E8C"/>
			</linearGradient>
			<polygon id="Fill-495_2_" class="st37" points="-10.3,137.2 -10.4,187 55.6,225.1 55.7,175.3 			"/>
			<path id="Fill-497_2_" class="st38" d="M56.6,232.1l0,2.8c0,0.5-0.3,1-1,1.4l0-2.8C56.2,233.1,56.6,232.6,56.6,232.1"/>
			<path id="Fill-499_2_" class="st38" d="M8.2,260.9l0,2.8c-1.3,0.8-3.5,0.8-4.9,0l0-2.8C4.7,261.7,6.9,261.7,8.2,260.9"/>
			<path id="Fill-501_2_" class="st38" d="M-63.7,224.2l0-2.8c0,0.5,0.3,1,1,1.4l0,2.8C-63.3,225.2-63.7,224.7-63.7,224.2"/>
			<polygon id="Fill-503_2_" class="st38" points="55.6,233.5 55.6,236.3 8.2,263.7 8.2,260.9 			"/>
			<polygon id="Fill-505_2_" class="st38" points="3.4,260.9 3.4,263.7 -62.7,225.6 -62.6,222.8 			"/>
			<path id="Fill-507_2_" class="st27" d="M55.5,230.6c1.3,0.8,1.4,2.1,0,2.8L8.2,260.9c-1.3,0.8-3.5,0.8-4.9,0l-66-38.1
				c-1.4-0.8-1.4-2.1,0-2.8l47.3-27.4c1.3-0.8,3.5-0.8,4.9,0L55.5,230.6z"/>
			<path id="Fill-509_2_" class="st28" d="M2,237.8l-24.3-14c-0.7-0.4-1.8-0.4-2.4,0l-12.6,7.2c-0.7,0.4-0.7,1,0,1.4l24.3,14
				c0.7,0.4,1.8,0.4,2.4,0L2,239.2C2.7,238.8,2.7,238.2,2,237.8"/>
			<polygon id="Fill-511_2_" class="st1" points="-9.7,196.8 -9.7,197.5 -14.2,200.1 -14.2,199.4 			"/>
			<polygon id="Fill-513_2_" class="st1" points="-14.2,199.4 -14.2,200.1 -18.6,197.6 -18.6,196.9 			"/>
			<polygon id="Fill-515_2_" class="st39" points="-9.7,196.8 -14.2,199.4 -18.6,196.9 -14.1,194.3 			"/>
			<polygon id="Fill-517_2_" class="st1" points="-4.1,200.1 -4.1,200.8 -8.6,203.4 -8.6,202.7 			"/>
			<polygon id="Fill-519_2_" class="st1" points="-8.6,202.7 -8.6,203.4 -13,200.8 -13,200.1 			"/>
			<polygon id="Fill-521_2_" class="st39" points="-4.1,200.1 -8.6,202.7 -13,200.1 -8.5,197.5 			"/>
			<polygon id="Fill-523_2_" class="st1" points="1.5,203.3 1.5,204 -3,206.6 -3,205.9 			"/>
			<polygon id="Fill-525_2_" class="st1" points="-3,205.9 -3,206.6 -7.3,204.1 -7.3,203.4 			"/>
			<polygon id="Fill-527_2_" class="st39" points="1.5,203.3 -3,205.9 -7.3,203.4 -2.9,200.8 			"/>
			<polygon id="Fill-529_2_" class="st1" points="7.1,206.5 7.1,207.2 2.6,209.8 2.6,209.1 			"/>
			<polygon id="Fill-531_2_" class="st1" points="2.6,209.1 2.6,209.8 -1.7,207.3 -1.7,206.6 			"/>
			<polygon id="Fill-533_2_" class="st39" points="7.1,206.5 2.6,209.1 -1.7,206.6 2.7,204 			"/>
			<polygon id="Fill-535_2_" class="st1" points="12.7,209.8 12.7,210.5 8.2,213.1 8.2,212.4 			"/>
			<polygon id="Fill-537_2_" class="st1" points="8.2,212.4 8.2,213.1 3.9,210.5 3.9,209.8 			"/>
			<polygon id="Fill-539_2_" class="st39" points="12.7,209.8 8.2,212.4 3.9,209.8 8.3,207.2 			"/>
			<polygon id="Fill-541_2_" class="st1" points="18.3,213 18.3,213.7 13.8,216.3 13.8,215.6 			"/>
			<polygon id="Fill-543_2_" class="st1" points="13.8,215.6 13.8,216.3 9.5,213.8 9.5,213.1 			"/>
			<polygon id="Fill-545_2_" class="st39" points="18.3,213 13.8,215.6 9.5,213.1 13.9,210.5 			"/>
			<polygon id="Fill-547_2_" class="st1" points="23.9,216.2 23.9,216.9 19.4,219.5 19.4,218.8 			"/>
			<polygon id="Fill-549_2_" class="st1" points="19.4,218.8 19.4,219.5 15.1,217 15.1,216.3 			"/>
			<polygon id="Fill-551_2_" class="st39" points="23.9,216.2 19.4,218.8 15.1,216.3 19.5,213.7 			"/>
			<polygon id="Fill-553_2_" class="st1" points="29.5,219.5 29.5,220.2 25,222.8 25,222.1 			"/>
			<polygon id="Fill-555_2_" class="st1" points="25,222.1 25,222.8 20.7,220.2 20.7,219.5 			"/>
			<polygon id="Fill-557_2_" class="st39" points="29.5,219.5 25,222.1 20.7,219.5 25.1,217 			"/>
			<polygon id="Fill-559_2_" class="st1" points="35.1,222.7 35.1,223.4 30.6,226 30.6,225.3 			"/>
			<polygon id="Fill-561_2_" class="st1" points="30.6,225.3 30.6,226 26.3,223.5 26.3,222.8 			"/>
			<polygon id="Fill-563_2_" class="st39" points="35.1,222.7 30.6,225.3 26.3,222.8 30.7,220.2 			"/>
			<polygon id="Fill-565_2_" class="st1" points="40.7,225.9 40.7,226.7 36.2,229.2 36.2,228.5 			"/>
			<polygon id="Fill-567_2_" class="st1" points="36.2,228.5 36.2,229.2 31.9,226.7 31.9,226 			"/>
			<polygon id="Fill-569_2_" class="st39" points="40.7,225.9 36.2,228.5 31.9,226 36.3,223.4 			"/>
			<polygon id="Fill-571_2_" class="st1" points="51.9,232.4 51.9,233.1 47.4,235.7 47.5,235 			"/>
			<polygon id="Fill-573_2_" class="st1" points="47.5,235 47.5,235.7 37.5,229.9 37.5,229.2 			"/>
			<polygon id="Fill-575_2_" class="st39" points="51.9,232.4 47.5,235 37.5,229.2 41.9,226.7 			"/>
			<polygon id="Fill-577_2_" class="st1" points="-9.8,203.4 -9.8,204.1 -14.2,206.6 -14.2,205.9 			"/>
			<polygon id="Fill-579_2_" class="st1" points="-14.2,205.9 -14.2,206.6 -24.2,200.9 -24.2,200.2 			"/>
			<polygon id="Fill-581_2_" class="st39" points="-9.8,203.4 -14.2,205.9 -24.2,200.2 -19.8,197.6 			"/>
			<polygon id="Fill-583_2_" class="st1" points="-4.2,206.6 -4.2,207.3 -8.6,209.9 -8.6,209.2 			"/>
			<polygon id="Fill-585_2_" class="st1" points="-8.6,209.2 -8.6,209.9 -13,207.4 -13,206.6 			"/>
			<polygon id="Fill-587_2_" class="st39" points="-4.2,206.6 -8.6,209.2 -13,206.6 -8.6,204.1 			"/>
			<polygon id="Fill-589_2_" class="st1" points="1.4,209.8 1.4,210.5 -3,213.1 -3,212.4 			"/>
			<polygon id="Fill-591_2_" class="st1" points="-3,212.4 -3,213.1 -7.4,210.6 -7.4,209.9 			"/>
			<polygon id="Fill-593_2_" class="st39" points="1.4,209.8 -3,212.4 -7.4,209.9 -3,207.3 			"/>
			<polygon id="Fill-595_2_" class="st1" points="7,213.1 7,213.8 2.6,216.3 2.6,215.6 			"/>
			<polygon id="Fill-597_2_" class="st1" points="2.6,215.6 2.6,216.3 -1.8,213.8 -1.8,213.1 			"/>
			<polygon id="Fill-599_2_" class="st39" points="7,213.1 2.6,215.6 -1.8,213.1 2.6,210.5 			"/>
			<polygon id="Fill-601_2_" class="st1" points="12.6,216.3 12.6,217 8.2,219.6 8.2,218.9 			"/>
			<polygon id="Fill-603_2_" class="st1" points="8.2,218.9 8.2,219.6 3.8,217.1 3.8,216.4 			"/>
			<polygon id="Fill-605_2_" class="st39" points="12.6,216.3 8.2,218.9 3.8,216.4 8.2,213.8 			"/>
			<polygon id="Fill-607_2_" class="st1" points="18.2,219.5 18.2,220.2 13.8,222.8 13.8,222.1 			"/>
			<polygon id="Fill-609_2_" class="st1" points="13.8,222.1 13.8,222.8 9.4,220.3 9.4,219.6 			"/>
			<polygon id="Fill-611_2_" class="st39" points="18.2,219.5 13.8,222.1 9.4,219.6 13.8,217 			"/>
			<polygon id="Fill-613_2_" class="st1" points="23.8,222.8 23.8,223.5 19.4,226 19.4,225.3 			"/>
			<polygon id="Fill-615_2_" class="st1" points="19.4,225.3 19.4,226 15,223.5 15,222.8 			"/>
			<polygon id="Fill-617_2_" class="st39" points="23.8,222.8 19.4,225.3 15,222.8 19.4,220.2 			"/>
			<polygon id="Fill-619_2_" class="st1" points="29.4,226 29.4,226.7 25,229.3 25,228.6 			"/>
			<polygon id="Fill-621_2_" class="st1" points="25,228.6 25,229.3 20.6,226.8 20.6,226 			"/>
			<polygon id="Fill-623_2_" class="st39" points="29.4,226 25,228.6 20.6,226 25,223.5 			"/>
			<polygon id="Fill-625_2_" class="st1" points="35,229.2 35,229.9 30.6,232.5 30.6,231.8 			"/>
			<polygon id="Fill-627_2_" class="st1" points="30.6,231.8 30.6,232.5 26.2,230 26.2,229.3 			"/>
			<polygon id="Fill-629_2_" class="st39" points="35,229.2 30.6,231.8 26.2,229.3 30.7,226.7 			"/>
			<polygon id="Fill-631_2_" class="st1" points="40.6,232.5 40.6,233.2 36.2,235.8 36.2,235 			"/>
			<polygon id="Fill-633_2_" class="st1" points="36.2,235 36.2,235.8 31.8,233.2 31.8,232.5 			"/>
			<polygon id="Fill-635_2_" class="st39" points="40.6,232.5 36.2,235 31.8,232.5 36.2,229.9 			"/>
			<polygon id="Fill-637_2_" class="st1" points="46.2,235.7 46.2,236.4 41.8,239 41.8,238.3 			"/>
			<polygon id="Fill-639_2_" class="st1" points="41.8,238.3 41.8,239 37.4,236.5 37.4,235.8 			"/>
			<polygon id="Fill-641_2_" class="st39" points="46.2,235.7 41.8,238.3 37.4,235.8 41.8,233.2 			"/>
			<polygon id="Fill-643_2_" class="st1" points="-15.4,206.6 -15.4,207.4 -19.9,209.9 -19.9,209.2 			"/>
			<polygon id="Fill-645_2_" class="st1" points="-19.9,209.2 -19.9,209.9 -29.9,204.2 -29.9,203.5 			"/>
			<polygon id="Fill-647_2_" class="st39" points="-15.4,206.6 -19.9,209.2 -29.9,203.5 -25.4,200.9 			"/>
			<polygon id="Fill-649_2_" class="st1" points="-9.8,209.9 -9.8,210.6 -14.3,213.2 -14.3,212.5 			"/>
			<polygon id="Fill-651_2_" class="st1" points="-14.3,212.5 -14.3,213.2 -18.6,210.6 -18.6,209.9 			"/>
			<polygon id="Fill-653_2_" class="st39" points="-9.8,209.9 -14.3,212.5 -18.6,209.9 -14.2,207.4 			"/>
			<polygon id="Fill-655_2_" class="st1" points="-4.2,213.1 -4.2,213.8 -8.7,216.4 -8.7,215.7 			"/>
			<polygon id="Fill-657_2_" class="st1" points="-8.7,215.7 -8.7,216.4 -13,213.9 -13,213.2 			"/>
			<polygon id="Fill-659_2_" class="st39" points="-4.2,213.1 -8.7,215.7 -13,213.2 -8.6,210.6 			"/>
			<polygon id="Fill-661_2_" class="st1" points="1.4,216.3 1.4,217.1 -3.1,219.6 -3.1,218.9 			"/>
			<polygon id="Fill-663_2_" class="st1" points="-3.1,218.9 -3.1,219.6 -7.4,217.1 -7.4,216.4 			"/>
			<polygon id="Fill-665_2_" class="st39" points="1.4,216.3 -3.1,218.9 -7.4,216.4 -3,213.8 			"/>
			<polygon id="Fill-667_2_" class="st1" points="7,219.6 7,220.3 2.5,222.9 2.5,222.2 			"/>
			<polygon id="Fill-669_2_" class="st1" points="2.5,222.2 2.5,222.9 -1.8,220.3 -1.8,219.6 			"/>
			<polygon id="Fill-671_2_" class="st39" points="7,219.6 2.5,222.2 -1.8,219.6 2.6,217.1 			"/>
			<polygon id="Fill-673_2_" class="st1" points="12.6,222.8 12.6,223.5 8.1,226.1 8.1,225.4 			"/>
			<polygon id="Fill-675_2_" class="st1" points="8.1,225.4 8.1,226.1 3.8,223.6 3.8,222.9 			"/>
			<polygon id="Fill-677_2_" class="st39" points="12.6,222.8 8.1,225.4 3.8,222.9 8.2,220.3 			"/>
			<polygon id="Fill-679_2_" class="st1" points="18.2,226 18.2,226.8 13.7,229.3 13.7,228.6 			"/>
			<polygon id="Fill-681_2_" class="st1" points="13.7,228.6 13.7,229.3 9.4,226.8 9.4,226.1 			"/>
			<polygon id="Fill-683_2_" class="st39" points="18.2,226 13.7,228.6 9.4,226.1 13.8,223.5 			"/>
			<polygon id="Fill-685_2_" class="st1" points="23.8,229.3 23.8,230 19.3,232.6 19.3,231.9 			"/>
			<polygon id="Fill-687_2_" class="st1" points="19.3,231.9 19.3,232.6 15,230 15,229.3 			"/>
			<polygon id="Fill-689_2_" class="st39" points="23.8,229.3 19.3,231.9 15,229.3 19.4,226.8 			"/>
			<polygon id="Fill-691_2_" class="st1" points="29.4,232.5 29.4,233.2 24.9,235.8 24.9,235.1 			"/>
			<polygon id="Fill-693_2_" class="st1" points="24.9,235.1 24.9,235.8 20.6,233.3 20.6,232.6 			"/>
			<polygon id="Fill-695_2_" class="st39" points="29.4,232.5 24.9,235.1 20.6,232.6 25,230 			"/>
			<polygon id="Fill-697_2_" class="st1" points="40.6,239 40.6,239.7 36.1,242.3 36.2,241.6 			"/>
			<polygon id="Fill-699_2_" class="st1" points="36.2,241.6 36.1,242.3 26.2,236.5 26.2,235.8 			"/>
			<polygon id="Fill-701_2_" class="st39" points="40.6,239 36.2,241.6 26.2,235.8 30.6,233.2 			"/>
			<polygon id="Fill-703_2_" class="st1" points="-15.5,213.2 -15.5,213.9 -19.9,216.4 -19.9,215.7 			"/>
			<polygon id="Fill-705_2_" class="st1" points="-19.9,215.7 -19.9,216.4 -35.5,207.4 -35.5,206.7 			"/>
			<polygon id="Fill-707_2_" class="st39" points="-15.5,213.2 -19.9,215.7 -35.5,206.7 -31.1,204.2 			"/>
			<polygon id="Fill-709_2_" class="st1" points="-9.9,216.4 -9.9,217.1 -14.3,219.7 -14.3,219 			"/>
			<polygon id="Fill-711_2_" class="st1" points="-14.3,219 -14.3,219.7 -18.7,217.2 -18.7,216.4 			"/>
			<polygon id="Fill-713_2_" class="st39" points="-9.9,216.4 -14.3,219 -18.7,216.4 -14.3,213.9 			"/>
			<polygon id="Fill-715_2_" class="st1" points="-4.3,219.6 -4.3,220.3 -8.7,222.9 -8.7,222.2 			"/>
			<polygon id="Fill-717_2_" class="st1" points="-8.7,222.2 -8.7,222.9 -13.1,220.4 -13.1,219.7 			"/>
			<polygon id="Fill-719_2_" class="st39" points="-4.3,219.6 -8.7,222.2 -13.1,219.7 -8.7,217.1 			"/>
			<polygon id="Fill-721_2_" class="st1" points="1.3,222.9 1.3,223.6 -3.1,226.1 -3.1,225.4 			"/>
			<polygon id="Fill-723_2_" class="st1" points="-3.1,225.4 -3.1,226.1 -7.5,223.6 -7.5,222.9 			"/>
			<polygon id="Fill-725_2_" class="st39" points="1.3,222.9 -3.1,225.4 -7.5,222.9 -3.1,220.3 			"/>
			<polygon id="Fill-727_2_" class="st1" points="6.9,226.1 6.9,226.8 2.5,229.4 2.5,228.7 			"/>
			<polygon id="Fill-729_2_" class="st1" points="2.5,228.7 2.5,229.4 -1.9,226.9 -1.9,226.2 			"/>
			<polygon id="Fill-731_2_" class="st39" points="6.9,226.1 2.5,228.7 -1.9,226.1 2.5,223.6 			"/>
			<polygon id="Fill-733_2_" class="st1" points="12.5,229.3 12.5,230 8.1,232.6 8.1,231.9 			"/>
			<polygon id="Fill-735_2_" class="st1" points="8.1,231.9 8.1,232.6 3.7,230.1 3.7,229.4 			"/>
			<polygon id="Fill-737_2_" class="st39" points="12.5,229.3 8.1,231.9 3.7,229.4 8.1,226.8 			"/>
			<polygon id="Fill-739_2_" class="st1" points="18.1,232.6 18.1,233.3 13.7,235.9 13.7,235.1 			"/>
			<polygon id="Fill-741_2_" class="st1" points="13.7,235.1 13.7,235.9 9.3,233.3 9.3,232.6 			"/>
			<polygon id="Fill-743_2_" class="st39" points="18.1,232.6 13.7,235.1 9.3,232.6 13.7,230 			"/>
			<polygon id="Fill-745_2_" class="st1" points="23.7,235.8 23.7,236.5 19.3,239.1 19.3,238.4 			"/>
			<polygon id="Fill-747_2_" class="st1" points="19.3,238.4 19.3,239.1 14.9,236.6 14.9,235.9 			"/>
			<polygon id="Fill-749_2_" class="st39" points="23.7,235.8 19.3,238.4 14.9,235.9 19.4,233.3 			"/>
			<polygon id="Fill-751_2_" class="st1" points="34.9,242.3 34.9,243 30.5,245.6 30.5,244.9 			"/>
			<polygon id="Fill-753_2_" class="st1" points="30.5,244.9 30.5,245.6 20.5,239.8 20.5,239.1 			"/>
			<polygon id="Fill-755_2_" class="st39" points="34.9,242.3 30.5,244.9 20.5,239.1 25,236.5 			"/>
			<polygon id="Fill-757_2_" class="st1" points="-32.3,210 -32.3,210.7 -36.8,213.3 -36.8,212.6 			"/>
			<polygon id="Fill-759_2_" class="st1" points="-36.8,212.6 -36.8,213.3 -41.2,210.7 -41.2,210 			"/>
			<polygon id="Fill-761_2_" class="st39" points="-32.3,210 -36.8,212.6 -41.2,210 -36.7,207.5 			"/>
			<polygon id="Fill-763_2_" class="st1" points="-26.7,213.2 -26.7,213.9 -31.2,216.5 -31.2,215.8 			"/>
			<polygon id="Fill-765_2_" class="st1" points="-31.2,215.8 -31.2,216.5 -35.6,214 -35.6,213.3 			"/>
			<polygon id="Fill-767_2_" class="st39" points="-26.7,213.2 -31.2,215.8 -35.6,213.3 -31.1,210.7 			"/>
			<polygon id="Fill-769_2_" class="st1" points="-21.1,216.4 -21.1,217.2 -25.6,219.7 -25.6,219 			"/>
			<polygon id="Fill-771_2_" class="st1" points="-25.6,219 -25.6,219.7 -30,217.2 -30,216.5 			"/>
			<polygon id="Fill-773_2_" class="st39" points="-21.1,216.4 -25.6,219 -30,216.5 -25.5,213.9 			"/>
			<polygon id="Fill-775_2_" class="st1" points="6.9,232.6 6.9,233.3 2.4,235.9 2.4,235.2 			"/>
			<polygon id="Fill-777_2_" class="st1" points="2.4,235.2 2.4,235.9 -24.4,220.4 -24.4,219.7 			"/>
			<polygon id="Fill-779_2_" class="st39" points="6.9,232.6 2.4,235.2 -24.4,219.7 -19.9,217.2 			"/>
			<polygon id="Fill-781_2_" class="st1" points="12.5,235.9 12.5,236.6 8,239.1 8,238.4 			"/>
			<polygon id="Fill-783_2_" class="st1" points="8,238.4 8,239.1 3.6,236.6 3.6,235.9 			"/>
			<polygon id="Fill-785_2_" class="st39" points="12.5,235.9 8,238.4 3.6,235.9 8.1,233.3 			"/>
			<polygon id="Fill-787_2_" class="st1" points="18.1,239.1 18.1,239.8 13.6,242.4 13.6,241.7 			"/>
			<polygon id="Fill-789_2_" class="st1" points="13.6,241.7 13.6,242.4 9.3,239.8 9.3,239.1 			"/>
			<polygon id="Fill-791_2_" class="st39" points="18.1,239.1 13.6,241.7 9.3,239.1 13.7,236.6 			"/>
			<polygon id="Fill-793_2_" class="st1" points="29.3,245.6 29.3,246.3 24.8,248.8 24.8,248.1 			"/>
			<polygon id="Fill-795_2_" class="st1" points="24.8,248.1 24.8,248.8 14.9,243.1 14.9,242.4 			"/>
			<polygon id="Fill-797_2_" class="st39" points="29.3,245.6 24.8,248.1 14.9,242.4 19.3,239.8 			"/>
			<polygon id="Fill-799_2_" class="st0" points="-2.7,184.8 48.4,214.3 48.4,177.5 -2.7,148 			"/>
			<polygon id="Fill-801_2_" class="st7" points="45,181 26.7,170.4 26.7,196.1 45,206.6 			"/>
			<polygon id="Fill-803_2_" class="st39" points="2.4,157.9 22.8,169.7 22.8,168.2 2.4,156.4 			"/>
			<polygon id="Fill-805_2_" class="st39" points="2.4,161.4 22.8,173.2 22.8,171.7 2.4,159.9 			"/>
			<polygon id="Fill-807_2_" class="st39" points="2.4,164.9 22.8,176.7 22.8,175.2 2.4,163.3 			"/>
			<polygon id="Fill-809_2_" class="st39" points="2.4,168.3 22.8,180.1 22.8,178.6 2.4,166.8 			"/>
			<polygon id="Fill-811_2_" class="st39" points="2.4,171.8 22.8,183.6 22.8,182.1 2.4,170.3 			"/>
			<polygon id="Fill-813_2_" class="st39" points="2.4,175.3 22.8,187.1 22.8,185.6 2.4,173.8 			"/>
			<polygon id="Fill-815_2_" class="st39" points="2.4,182.2 16.6,190.4 16.6,188.9 2.4,180.7 			"/>
			<polygon id="Fill-817_2_" class="st39" points="2.4,178.7 22.8,190.6 22.8,189.1 2.4,177.2 			"/>
			<polygon id="Fill-819_2_" class="st31" points="34.3,177.1 28.9,184.8 39.7,191 			"/>
			<polygon id="Fill-821_2_" class="st21" points="38.6,181.9 33.2,189.6 44,195.8 			"/>
			<path id="Fill-823_2_" class="st7" d="M42.8,197.6c0,2.7-1.9,3.8-4.2,2.4s-4.2-4.6-4.2-7.3c0-2.7,1.9-3.8,4.2-2.4
				C40.9,191.7,42.8,194.9,42.8,197.6"/>
			<polygon id="Fill-825_2_" class="st0" points="231.3,95.8 236.8,102.1 239.5,97.4 			"/>
			<polygon id="Fill-827_2_" class="st35" points="231.3,95.8 232.8,97.5 233.5,96.2 			"/>
			<path id="Fill-829_2_" class="st21" d="M239.5,97.4c-0.4-0.2-0.8-0.2-1.4,0.1c-1.1,0.6-1.9,2.1-1.9,3.3c0,0.6,0.2,1,0.6,1.2
				l40.3,23.4c-0.3-0.2-0.6-0.6-0.6-1.2c0-1.2,0.9-2.7,1.9-3.3c0.5-0.3,1-0.3,1.4-0.1L239.5,97.4z"/>
			<path id="Fill-831_2_" class="st21" d="M278.4,120.9c1.1-0.6,1.9-0.1,1.9,1.1c0,1.2-0.9,2.7-1.9,3.3c-1.1,0.6-1.9,0.1-1.9-1.1
				C276.5,123.1,277.4,121.6,278.4,120.9"/>
			<polygon id="Fill-833_2_" class="st0" points="250.5,99.1 256,105.4 258.7,100.7 			"/>
			<polygon id="Fill-835_2_" class="st7" points="250.5,99.1 252,100.8 252.7,99.5 			"/>
			<path id="Fill-837_2_" class="st7" d="M258.7,100.7c-0.4-0.2-0.8-0.2-1.4,0.1c-1.1,0.6-1.9,2.1-1.9,3.3c0,0.6,0.2,1,0.6,1.2
				l26,15.1c-0.3-0.2-0.6-0.6-0.6-1.2c0-1.2,0.9-2.7,1.9-3.3c0.5-0.3,1-0.3,1.4-0.1L258.7,100.7z"/>
			<path id="Fill-839_2_" class="st40" d="M283.3,116c1.1-0.6,1.9-0.1,1.9,1.1c0,1.2-0.9,2.7-1.9,3.3c-1.1,0.6-1.9,0.1-1.9-1.1
				C281.4,118.1,282.3,116.6,283.3,116"/>
			<path id="Fill-841_2_" class="st7" d="M224.7,107.9c-0.3-0.2-0.4-0.4-0.4-0.6l0,5.1c0,0.2,0.1,0.4,0.4,0.6l5.7,3.3l0-5.1
				L224.7,107.9z"/>
			<polygon id="Fill-843_2_" class="st41" points="237.9,106.8 237.9,111.9 230.4,116.3 230.4,111.2 			"/>
			<path id="Fill-845_2_" class="st7" d="M237.9,106.8l-7.6,4.4l-5.7-3.3c-0.5-0.3-0.5-0.8,0-1.1l5.6-3.3c0.5-0.3,1.4-0.3,2,0
				L237.9,106.8z"/>
			<polygon id="Fill-847_2_" class="st36" points="241.9,109.1 241.9,114.2 234.3,118.6 234.3,113.5 			"/>
			<polygon id="Fill-849_2_" class="st42" points="234.3,113.5 234.3,118.6 230.4,116.3 230.4,111.2 			"/>
			<polygon id="Fill-851_2_" class="st0" points="241.9,109.1 234.3,113.5 230.4,111.2 237.9,106.8 			"/>
			<path id="Fill-853_2_" class="st40" d="M247.6,113.5l-5.6,3.3c-0.5,0.3-1.4,0.3-2,0l-5.7-3.3l0,5.1l5.7,3.3
				c0.5,0.3,1.4,0.3,1.9,0l5.6-3.3c0.3-0.2,0.4-0.4,0.4-0.6l0-5.1C248,113.2,247.9,113.4,247.6,113.5"/>
			<path id="Fill-855_2_" class="st7" d="M247.6,112.4c0.5,0.3,0.5,0.8,0,1.1l-5.6,3.3c-0.5,0.3-1.4,0.3-2,0l-5.7-3.3l7.6-4.4
				L247.6,112.4z"/>
			<path id="Fill-857_2_" class="st0" d="M171.4,65.1l-80.8,46.7c-1.9,1.1-1.6,3,0.5,4.2l46.8,27c2.2,1.2,5.4,1.4,7.3,0.3L226,96.6
				c1.9-1.1,1.6-3-0.5-4.2l-46.8-27C176.5,64.1,173.3,64,171.4,65.1"/>
			<polygon id="Fill-859_2_" class="st43" points="178.5,80.2 183.8,77.1 214.8,95 209.5,98 			"/>
			<polygon id="Fill-861_2_" class="st43" points="167.1,86.7 172.4,83.7 203.4,101.5 198.1,104.6 			"/>
			<polygon id="Fill-863_2_" class="st43" points="155.8,93.3 161.1,90.2 192,108.1 186.7,111.2 			"/>
			<polygon id="Fill-865_2_" class="st43" points="144.4,99.9 149.7,96.8 180.6,114.7 175.3,117.7 			"/>
			<polygon id="Fill-867_2_" class="st43" points="133,106.4 138.3,103.4 169.3,121.2 164,124.3 			"/>
			<polygon id="Fill-869_2_" class="st5" points="178.5,80.2 183.8,77.1 191.5,81.6 186.2,84.6 			"/>
			<polygon id="Fill-871_2_" class="st31" points="167.1,86.7 172.4,83.7 190.5,94.1 185.2,97.1 			"/>
			<polygon id="Fill-873_2_" class="st21" points="155.8,93.3 161.1,90.2 174.2,97.8 168.9,100.9 			"/>
			<polygon id="Fill-875_2_" class="st21" points="144.4,99.9 149.7,96.8 172,109.7 166.7,112.8 			"/>
			<polygon id="Fill-877_2_" class="st7" points="133,106.4 138.3,103.4 164.6,118.6 159.3,121.6 			"/>
			<polygon id="Fill-879_2_" class="st43" points="156.6,126 139.4,135.9 141.6,137.2 158.8,127.3 			"/>
			<polygon id="Fill-881_2_" class="st43" points="151.4,123 134.2,132.9 136.5,134.2 153.7,124.3 			"/>
			<polygon id="Fill-883_2_" class="st43" points="146.3,120 129.1,130 131.3,131.2 148.5,121.3 			"/>
			<polygon id="Fill-885_2_" class="st43" points="141.1,117.1 123.9,127 126.1,128.3 143.3,118.3 			"/>
			<polygon id="Fill-887_2_" class="st43" points="136,114.1 118.7,124 121,125.3 138.2,115.4 			"/>
			<polygon id="Fill-889_2_" class="st43" points="130.8,111.1 113.6,121 115.8,122.3 133,112.4 			"/>
			<polygon id="Fill-891_2_" class="st43" points="120.5,105.1 108.5,112.1 110.7,113.3 122.7,106.4 			"/>
			<polygon id="Fill-893_2_" class="st43" points="125.6,108.1 108.4,118 110.7,119.3 127.9,109.4 			"/>
			<polygon id="Fill-895_2_" class="st43" points="178.4,74 127.6,103.3 129.8,104.6 180.6,75.3 			"/>
			<polygon id="Fill-897_2_" class="st31" points="175.9,137.4 212,116.5 232.6,128.4 196.4,149.2 			"/>
			<polygon id="Fill-899_2_" class="st44" points="196.4,149.2 200.4,130.7 232.6,128.4 			"/>
			<polygon id="Fill-901_2_" class="st25" points="212,116.5 207.9,135 175.9,137.4 			"/>
			<polygon id="Fill-903_2_" class="st0" points="375.9,165 438.4,201.1 359.5,246.6 297,210.5 			"/>
			<g id="Group-907_2_" transform="translate(0.000000, 583.348793)">
				<g id="Clip-906_2_">
				</g>
				<defs>
					<filter id="Adobe_OpacityMaskFilter_2_" filterUnits="userSpaceOnUse" x="-138" y="0" width="0" height="0">
						<feColorMatrix  type="matrix" values="1 0 0 0 0  0 1 0 0 0  0 0 1 0 0  0 0 0 1 0"/>
					</filter>
				</defs>
				<mask maskUnits="userSpaceOnUse" x="-138" y="0" width="0" height="0" id="mask-8_1_">
					<g class="st45">
						<polygon id="path-7_1_" class="st0" points="-137.1,0.9 -136.1,0.9 -136.1,1.9 -137.1,1.9 						"/>
					</g>
				</mask>
				<path id="Fill-905_2_" class="st46" d="M-138,0"/>
			</g>
			<path id="Fill-908_2_" class="st7" d="M359,210.8l-8.6-13.7c-3.4,0.7-6.6,1.8-9.3,3.4L359,210.8z"/>
			<path id="Fill-910_2_" class="st7" d="M359,210.8l17.9-10.4c-7.1-4.1-17.6-5.2-26.6-3.4L359,210.8z"/>
			<path id="Fill-912_2_" class="st7" d="M341,221.2l17.9-10.4l-25.2-1.9C332.8,213.5,335.5,218,341,221.2"/>
			<path id="Fill-914_2_" class="st21" d="M367.6,224.6c3.4-0.7,6.6-1.8,9.3-3.4c9.8-5.7,9.8-15,0-20.7L359,210.8L367.6,224.6z"/>
			<path id="Fill-916_2_" class="st31" d="M367.6,224.6l-8.6-13.7L341,221.2C348.2,225.3,358.6,226.4,367.6,224.6"/>
			<path id="Fill-918_2_" class="st42" d="M409.9,209.3c-0.1,0-0.2,0-0.4-0.1l-47-27.2c-0.3-0.2-0.5-0.6-0.3-1
				c0.2-0.3,0.6-0.5,1-0.3l47,27.2c0.3,0.2,0.5,0.6,0.3,1C410.4,209.1,410.2,209.3,409.9,209.3"/>
			<path id="Fill-920_2_" class="st42" d="M415.5,206.1c-0.1,0-0.2,0-0.4-0.1l-47-27.2c-0.3-0.2-0.5-0.6-0.3-1
				c0.2-0.3,0.6-0.5,1-0.3l47,27.2c0.3,0.2,0.5,0.6,0.3,1C415.9,206,415.7,206.1,415.5,206.1"/>
			<path id="Fill-922_2_" class="st42" d="M421,202.9c-0.1,0-0.2,0-0.4-0.1l-47-27.2c-0.3-0.2-0.5-0.6-0.3-1c0.2-0.3,0.6-0.5,1-0.3
				l47,27.2c0.3,0.2,0.5,0.6,0.3,1C421.5,202.8,421.2,202.9,421,202.9"/>
			<path id="Fill-924_2_" class="st17" d="M425.7,249.6l0,8.8c0,1.2-0.8,2.3-2.3,3.2l0-8.8C425,251.9,425.7,250.8,425.7,249.6"/>
			<path id="Fill-926_2_" class="st17" d="M337.5,258.3l0-8.8c0,1.2,0.8,2.4,2.3,3.3l0,8.8C338.2,260.7,337.5,259.5,337.5,258.3"/>
			<polygon id="Fill-928_2_" class="st17" points="423.4,252.8 423.4,261.6 387.3,282.5 387.3,273.8 			"/>
			<polygon id="Fill-930_2_" class="st17" points="376.2,273.8 376.2,282.6 339.8,261.6 339.8,252.8 			"/>
			<path id="Fill-932_2_" class="st17" d="M387.3,273.8l0,8.8c-1.5,0.9-3.6,1.3-5.6,1.3c-2,0-4-0.4-5.6-1.3v-8.8
				c1.5,0.9,3.6,1.3,5.6,1.3C383.8,275.1,385.8,274.7,387.3,273.8"/>
			<path id="Fill-934_2_" class="st21" d="M423.4,246.3c3.1,1.8,3.1,4.7,0,6.5l-36.1,21c-3.1,1.8-8.1,1.8-11.2,0l-36.4-21
				c-3.1-1.8-3.1-4.7,0-6.5l36.1-21c3.1-1.8,8.1-1.8,11.2,0L423.4,246.3z"/>
			<path id="Fill-936_2_" class="st16" d="M498.5,224.7l0,8.8c0,1.2-0.8,2.3-2.3,3.2l0-8.8C497.7,227,498.5,225.9,498.5,224.7"/>
			<path id="Fill-938_2_" class="st47" d="M410.2,233.4l0-8.8c0,1.2,0.8,2.4,2.3,3.3l0,8.8C411,235.8,410.2,234.6,410.2,233.4"/>
			<polygon id="Fill-940_2_" class="st16" points="496.2,227.9 496.1,236.7 460,257.7 460.1,248.9 			"/>
			<polygon id="Fill-942_2_" class="st47" points="448.9,248.9 448.9,257.7 412.5,236.7 412.5,227.9 			"/>
			<path id="Fill-944_2_" class="st16" d="M460,248.9v8.8c-1.5,0.9-3.6,1.3-5.6,1.3c-2,0-4.1-0.4-5.6-1.3l0-8.8
				c1.5,0.9,3.6,1.3,5.6,1.3C456.5,250.2,458.5,249.8,460,248.9"/>
			<path id="Fill-946_2_" class="st7" d="M496.1,221.5c3.1,1.8,3.1,4.7,0,6.5l-36.1,21c-3.1,1.8-8.1,1.8-11.2,0l-36.4-21
				c-3.1-1.8-3.1-4.7,0-6.5l36.1-21c3.1-1.8,8.1-1.8,11.2,0L496.1,221.5z"/>
			<path class="st48" d=""/>
			<path id="Fill-949_2_" class="st47" d="M453.6,249.3v8.8c-2,0-4.1-0.4-5.6-1.3l0-8.8C449.5,248.9,451.6,249.3,453.6,249.3"/>
			<path id="Fill-951_2_" class="st5" d="M466.2,209.1c-7,3.1-13.4,26.4-9.6,34.6c3.8,8.2,9.9,8.8,17.6,6.8s16.3-12.1,19.2-21.4
				C497.2,216.4,486.1,200.3,466.2,209.1"/>
			<path id="Fill-952_2_" class="st49" d="M458,490v1.8c-3.7,2.2-11.9,1-14,0c-1.4-2.1-5.3-1.6-7.4-0.7c-8.2,0.7-11.2-0.5-14-2.5
				c-1.4-1-3.9-3.7-3.6-6.5C428.8,484.3,458,490,458,490"/>
			<path id="Fill-953_2_" class="st50" d="M444,475.7c0,0-9,2.5-14.3,3.3c-5.3,0.8-9.1-0.1-10.4,1.8c-1.3,1.9,1.5,6.8,6.2,8.5
				c4.7,1.6,14.3-0.3,17.8,0.5c3.5,0.8,12.5,2.4,14.7,0.2c2.2-2.2,0-13,0-13L444,475.7z"/>
			<path id="Fill-954_2_" class="st50" d="M493.8,463.9l-16.1-18c-6.4-1.8-13.2-2.2-12.3,3.7c0.8,5.2,9.1,7.5,14.9,12.7l5.3,4.7
				C489.4,470.3,494.3,467.4,493.8,463.9"/>
			<path id="Fill-955_2_" class="st5" d="M478.6,238.4c-0.6,0.7-1.3,1.3-2,1.8c-4.2,3.2-8.2,5.1-13.3,6.5c-0.8,0.2-1.7,0.4-2.6,0.6
				l0.4,4.7c5.4,1.5,10.7-0.8,14.4-1.8c2.8-0.8,7.1-1.5,7.1-4.4L478.6,238.4L478.6,238.4z"/>
			<path id="Fill-956_2_" class="st49" d="M485.6,466.9l-5.3-4.7c-5.7-5.1-14.1-7.4-14.9-12.7v0l0,0l0,0v0v0v0v0v0v0v0v0h0v0v0l0,0
				v0v0v0v0v0c-0.1,0.5-0.1,1.1,0,1.8c0.8,5.2,9.1,7.5,14.9,12.7l5.3,4.7c4.5,4,9.2,1.1,8.2-4.8
				C494.3,467.4,489.4,470.3,485.6,466.9"/>
			<path id="Fill-957_2_" class="st12" d="M493.7,338.8c5.6,7.9-8.3,29.6-4.5,56.7c2.6,18.4,7.6,49.2,6.4,66.6
				c-0.2,3.2-12.6,5.4-16-9.9c-5.7-26.1-12.9-42.4-15.4-62.6l1.3-58.7L493.7,338.8z"/>
			<path id="Fill-958_2_" class="st51" d="M476,335.9c1.5,24.4-15.9,54.2-14.8,73.9c1.2,20.3-1,45-1.1,67c0,0-18,8.5-18.8-4.6
				c-2.6-43.1-10.9-56.5,0.2-135.3L476,335.9z"/>
			<path id="Fill-959_2_" class="st52" d="M443.4,312.3c-0.6-23.5,3.8-46.7,3.8-46.7c2.1-3,4.7-5.7,7.7-7.8l5.7-7
				c4.1-1,8.1-2.1,12.1-3.4c6.4-2,13.3-2,19.8,0c8.5,3.6,10.1,9.3,6.3,20.2c0.1,0.5-7.4,30.6-8.4,39.8c-0.1,0.9,6.4,25.3,7.8,35.2
				c0,0-6.2,5.7-7.9,7.1c-12.6,15.6-53.8-3.3-55.3-11.6C434.4,335.1,439.5,325.4,443.4,312.3"/>
			<path id="Fill-960_2_" class="st1" d="M463.6,210.6c0,0-2.1,1.9-3.3,6c-1.3,4.1-0.9,6.8-1,8.9c-0.1,2.1-1,3.3-0.5,4.3
				c0.4,1,3-4.6,5.4-5.2c2.4-0.6,2.1,6.8-3.3,8.8c-2.3,3.5-0.5,12,0.8,13.9c1.3,1.9,9.2,4.2,15.8,1.9c6.7-2.3,11.1-9.1,16.6-17.9
				c5.5-8.8,0-15.2,0-15.2c2.7-6-17.9-13.8-26.5-14C462.3,202.1,463.6,210.6,463.6,210.6"/>
			<path id="Fill-961_2_" class="st52" d="M473.4,271.5c2.7-9.2-7.6-20.6-16.7-17.6c-3.3,1.1-6,2.2-7.7,5c-4.2,7.1-4.9,31.4-8.4,46
				c-0.5,0.1-1.1,0.2-1.6,0.3c5.6,7.5,8.2,11.4,13.2,18.3c0.5-0.2,0.9-0.3,1.1-0.4C454.6,322.4,473.3,271.6,473.4,271.5"/>
			<path id="Fill-962_2_" class="st1" d="M44.5,553.4l15.1-1.4c0,0,9.7,2.7,15.4,3.5c5.7,0.8,9.8-0.1,11.2,1.9
				c0.2,0.4,0.3,0.9,0.3,1.4v0v0.1c0.3,3-2.4,5.8-3.9,6.9c-3,2.2-6.2,3.5-15,2.7c-2.3-0.9-6.4-1.5-8,0.8c-2.3,1.1-11.2,2.3-15.1,0
				v-2C42.1,565,44.5,553.4,44.5,553.4"/>
			<path id="Fill-963_2_" class="st53" d="M37.8,414.5c-5,25.7,12.8,53.8,11.4,74.6c-2,28.4-3.1,40.9-6,64c0,0,11.6,6.9,20.1-1
				c8.7-45.4,12.6-53.5,11.4-136.5L37.8,414.5z"/>
			<path id="Fill-964_2_" class="st26" d="M108.1,296.2c5.1,6,0.8,30.4-6.3,36.3c-7.2,5.9-13.1,3.8-19.3-1.5
				c-6.2-5.3-9.8-18.4-8.4-28.3C76.1,289.3,93.5,279.3,108.1,296.2"/>
			<path id="Fill-965_2_" class="st54" d="M109.9,298.7c0,0,1.1,2.7,0.5,7c-0.6,4.3-2.1,6.7-2.9,8.7c-0.8,2-0.5,3.4-1.4,4.2
				c-0.9,0.8-0.7-5.6-2.7-7.2c-2-1.6-4.9,5.4-0.9,9.6c0.6,4.2-4.9,11.4-6.9,12.6c-2,1.2-10.4-0.1-15.6-5.2
				c-5.2-5.1-6.3-13.3-7.5-23.9c-1.2-10.6,6.7-14.1,6.7-14.1c0.1-6.8,22.7-4.9,30.8-1.4C114.9,291.4,109.9,298.7,109.9,298.7"/>
			<path id="Fill-966_2_" class="st1" d="M73.4,567.1l15.1-1.4c0,0,9.7,2.7,15.4,3.5c5.7,0.8,9.8-0.1,11.2,1.9
				c0.2,0.4,0.3,0.9,0.3,1.4v0v0.1c0.3,3-2.4,5.8-3.9,6.9c-3,2.2-6.2,3.5-15,2.7c-2.3-0.9-6.4-1.5-8,0.8c-2.3,1.1-11.2,2.3-15.1,0
				v-2C71,578.7,73.4,567.1,73.4,567.1"/>
			<path id="Fill-967_2_" class="st53" d="M49.3,421c-1.7,26.2,19.8,54.9,21.1,76c1.7,29,1.8,49.5,1.8,73.1c0,0,19.3,9.1,20.2-5
				c2.8-46.3,5.9-58.4-6.1-143.1L49.3,421z"/>
			<path id="Fill-968_2_" class="st21" d="M99.8,336.9c-10.8-5.4-28.2-20.1-42.5-0.8c-13.4,18-18.9,72.3-20.4,83.1
				c-2.1,14.6,38.7,22.5,47.8,22.1c2.1-0.1,3.3-1,3.9-3.1c0.8-2.7-1.4-4.6-0.8-7c0.3-1.4,1.3-2.6,2.1-3.7c0.9-1.1,1.8-2.4,2-3.8
				c0.4-2.3-1.1-4.5-1.4-6.8c-0.2-1.7,0.3-3.4,0.7-5.1c3.7-13.8,10.1-26.5,13.7-40.4c2.4-9.4,5.9-24.3-1.8-32.1
				C102.2,338.4,100.9,337.2,99.8,336.9"/>
			<path id="Fill-969_2_" class="st21" d="M106.4,344.2c8.6,27.4,9.4,40.9,17.9,51.7c0.6,0.8,23.9,25.8,23.9,25.8s-3.1,5.7-11.3,7.1
				c-13-5.6-27.8-26.1-31.7-30.5c-2.3-2.5-15.1-26.1-17.1-38.1C86.2,348.2,102.8,333.3,106.4,344.2"/>
			<path id="Fill-970_2_" class="st12" d="M438.9,325.1c9.3-0.6,14.2-1.9,14.2-1.9s11.4-24.4,14.5-36.2c0,0-4.1,25.1-6.9,33.2
				s-6.6,11.3-12.6,10.6c-6-0.7-10.5-1.9-10.5-1.9L438.9,325.1z"/>
		</g>
	</g>
</g>
</svg>
