<?xml version="1.0" encoding="UTF-8"?>
<svg width="40px" height="40px" viewBox="0 0 40 40" version="1.1" xmlns="http://www.w3.org/2000/svg" xmlns:xlink="http://www.w3.org/1999/xlink">
    <!-- Generator: sketchtool 63.1 (101010) - https://sketch.com -->
    <title>6A2319CE-5EF2-4A8D-98D4-5C047CA3357B</title>
    <desc>Created with sketchtool.</desc>
    <g id="Services" stroke="none" stroke-width="1" fill="none" fill-rule="evenodd">
        <g transform="translate(-961.000000, -2595.000000)" fill="#1F1F20" id="Group-18-Copy">
            <g transform="translate(941.000000, 2006.000000)">
                <g id="list-copy-5" transform="translate(0.000000, 571.000000)">
                    <g id="Group-14" transform="translate(20.000000, 18.000000)">
                        <g id="iOS">
                            <g id="grey_grad">
                                <g id="gd">
                                    <path d="M25.8903503,11.1432448 L31,27.1413721 L21.812,39.0012448 L21.8129018,27.7738386 C22.5972945,27.3220931 23.125,26.4779763 23.125,25.511201 C23.125,24.0684368 21.9497475,22.8988453 20.5,22.8988453 C19.0502525,22.8988453 17.875,24.0684368 17.875,25.511201 C17.875,26.4779763 18.4027055,27.3220931 19.1870982,27.7738386 L19.187,38.9992448 L10,27.1413721 L15.4781494,11.1432448 L25.8903503,11.1432448 Z M29.7,2 C30.4179702,2 31,2.5820298 31,3.29999995 L31,8.53706704 C31,9.25503719 30.4179702,9.83706699 29.7,9.83706699 L11.3,9.83706699 C10.5820298,9.83706699 10,9.25503719 10,8.53706704 L10,3.29999995 C10,2.5820298 10.5820298,2 11.3,2 L29.7,2 Z" id="Combined-Shape"></path>
                                </g>
                            </g>
                        </g>
                    </g>
                </g>
            </g>
        </g>
    </g>
</svg>