<?xml version="1.0" encoding="UTF-8"?>
<svg width="40px" height="40px" viewBox="0 0 40 40" version="1.1" xmlns="http://www.w3.org/2000/svg" xmlns:xlink="http://www.w3.org/1999/xlink">
    <!-- Generator: sketchtool 63.1 (101010) - https://sketch.com -->
    <title>D0204432-8BB4-46A4-8AA3-30E1201A7719</title>
    <desc>Created with sketchtool.</desc>
    <g id="Services" stroke="none" stroke-width="1" fill="none" fill-rule="evenodd">
        <g transform="translate(-209.000000, -1739.000000)" fill="#FFFFFF" fill-rule="nonzero" id="Group-18">
            <g transform="translate(191.000000, 1029.000000)">
                <g id="list" transform="translate(0.000000, 694.000000)">
                    <g id="Group-14" transform="translate(18.000000, 16.000000)">
                        <g id="iOS">
                            <g id="grey_grad">
                                <g id="IoT">
                                    <path d="M10.6862915,33.3137085 C13.581722,36.209139 17.581722,38 22,38 C26.4177747,38 30.4173666,36.209547 33.3127189,33.314698 L34.7269304,34.7289136 C31.4696495,37.9856902 26.9700584,40 22,40 C17.0294373,40 12.5294373,37.9852814 9.27207794,34.7279221 L10.6862915,33.3137085 Z M13.5147186,30.4852814 C15.6862915,32.6568542 18.6862915,34 22,34 C25.3131987,34 28.3127854,32.6572675 30.4842791,30.4862836 L31.8985073,31.9004825 C29.3650837,34.4334038 25.8654909,36 22,36 C18.1340068,36 14.6340068,34.4329966 12.1005051,31.8994949 L13.5147186,30.4852814 Z M17.0502525,26.9497475 C18.3170034,28.2164983 20.0670034,29 22,29 C23.9324964,29 25.6820908,28.2169038 26.9487639,26.9507309 L28.3629695,28.3649524 C26.7343682,29.9930495 24.4847771,31 22,31 C19.5152201,31 17.2656266,29.9930472 15.6370249,28.3649468 L17.0502525,26.9497475 Z M22,18 C24.209139,18 26,19.790861 26,22 C26,24.209139 24.209139,26 22,26 C19.790861,26 18,24.209139 18,22 C18,19.790861 19.790861,18 22,18 Z M22,13 C24.4852814,13 26.7352814,14.0073593 28.363961,15.636039 L26.9497475,17.0502525 C25.6829966,15.7835017 23.9329966,15 22,15 C20.0670034,15 18.3170034,15.7835017 17.0502525,17.0502525 L15.636039,15.636039 C17.2647186,14.0073593 19.5147186,13 22,13 Z M22,8 C25.8659932,8 29.3659932,9.56700338 31.8994949,12.1005051 L30.4852814,13.5147186 C28.3137085,11.3431458 25.3137085,10 22,10 C18.6862915,10 15.6862915,11.3431458 13.5147186,13.5147186 L12.1005051,12.1005051 C14.6340068,9.56700338 18.1340068,8 22,8 Z M22,4 C26.9705627,4 31.4705627,6.01471863 34.7279221,9.27207794 L33.3137085,10.6862915 C30.418278,7.790861 26.418278,6 22,6 C17.581722,6 13.581722,7.790861 10.6862915,10.6862915 L9.27207794,9.27207794 C12.5294373,6.01471863 17.0294373,4 22,4 Z" id="Combined-Shape" transform="translate(22.000000, 22.000000) rotate(-45.000000) translate(-22.000000, -22.000000) "></path>
                                </g>
                            </g>
                        </g>
                    </g>
                </g>
            </g>
        </g>
    </g>
</svg>