<?xml version="1.0" encoding="UTF-8"?>
<svg width="40px" height="40px" viewBox="0 0 40 40" version="1.1" xmlns="http://www.w3.org/2000/svg" xmlns:xlink="http://www.w3.org/1999/xlink">
    <!-- Generator: sketchtool 63.1 (101010) - https://sketch.com -->
    <title>8BC37AE7-DA37-440E-833D-3AD4C3A14DA4</title>
    <desc>Created with sketchtool.</desc>
    <g id="Services" stroke="none" stroke-width="1" fill="none" fill-rule="evenodd">
        <g transform="translate(-961.000000, -2395.000000)" id="Group-18-Copy">
            <g transform="translate(941.000000, 2006.000000)">
                <g id="list-copy-5" transform="translate(0.000000, 371.000000)">
                    <g id="Group-14" transform="translate(20.000000, 18.000000)">
                        <g id="iOS">
                            <g id="grey_grad">
                                <g id="logo">
                                    <path d="M20,35 C28.2842712,35 35,28.2842712 35,20 C35,11.7157288 28.2842712,5 20,5 C11.7157288,5 5,11.7157288 5,20 C5,28.2842712 11.7157288,35 20,35 Z" id="Oval" stroke="#1F1F20" stroke-width="1.93548387" stroke-linecap="round" stroke-linejoin="round" stroke-dasharray="3.870967741935484"></path>
                                    <path d="M20,5 C28.2842712,5 35,11.7157288 35,20 C35,21.6203926 34.7430639,23.1807746 34.2677102,24.6426277 C33.2149727,24.8768402 32.1218691,25 31,25 C22.7157288,25 16,18.2842712 16,10 C16,8.37960736 16.2569361,6.81922536 16.7322898,5.35737234 C17.7850273,5.12315978 18.8781309,5 20,5 Z" id="Combined-Shape" stroke="#1F1F20" stroke-width="1.93548387" stroke-linecap="round" stroke-linejoin="round" stroke-dasharray="3,5"></path>
                                    <path d="M21.526316,8 C26.7584878,8 31.000001,12.365224 31.000001,17.7500008 C31.000001,18.8034315 30.8376716,19.8178422 30.5373522,20.7681836 C29.872594,20.9199481 29.1822231,20.9999995 28.473685,20.9999995 C23.2415133,20.9999995 19,16.634777 19,11.2500003 C19,10.1965696 19.1623295,9.18215877 19.4626489,8.23181732 C20.127407,8.0800514 20.817778,8 21.526316,8 Z" id="Combined-Shape" fill="#1F1F20"></path>
                                </g>
                            </g>
                        </g>
                    </g>
                </g>
            </g>
        </g>
    </g>
</svg>