<?xml version="1.0" encoding="UTF-8"?>
<svg width="40px" height="40px" viewBox="0 0 40 40" version="1.1" xmlns="http://www.w3.org/2000/svg" xmlns:xlink="http://www.w3.org/1999/xlink">
    <!-- Generator: sketchtool 63.1 (101010) - https://sketch.com -->
    <title>7CF122B2-7D5F-4FCC-9832-138B44BAA2E8</title>
    <desc>Created with sketchtool.</desc>
    <g id="Services" stroke="none" stroke-width="1" fill="none" fill-rule="evenodd">
        <g transform="translate(-990.000000, -6387.000000)" fill="#1F1F20" fill-rule="nonzero" id="Group-18-Copy-5">
            <g transform="translate(970.000000, 5998.000000)">
                <g id="list-copy-5" transform="translate(0.000000, 371.000000)">
                    <g id="Group-14" transform="translate(20.000000, 18.000000)">
                        <g id="iOS">
                            <g id="grey_grad">
                                <g id="opm">
                                    <path d="M22.3576601,4 C22.9430102,4 23.4027679,4.44008024 23.4337793,5.01673711 L23.4354475,5.07903056 L23.4354475,7.57428872 C24.3370582,7.85442166 25.2386688,8.19201776 26.1137886,8.66664141 L26.3320013,8.7881981 L28.0834059,7.03477345 C28.5050404,6.61265269 29.1453001,6.59701859 29.583129,6.98787114 L29.6327254,7.03477345 L32.9671304,10.3730242 C33.3887648,10.7626742 33.4043809,11.4024697 33.0139786,11.8407591 L32.9671304,11.890411 L31.2157257,13.6438356 C31.6788375,14.4783983 32.0570455,15.3696288 32.3503496,16.2915545 L32.4282366,16.5437302 L34.8869393,16.5437302 C35.4722894,16.5437302 35.9634452,16.9838105 35.996622,17.5908177 L35.9984076,17.6564805 L35.9984076,22.3772392 C36.0309657,22.9313664 35.5599577,23.4224751 34.9808926,23.4546 L34.9206201,23.4562698 L32.4619175,23.4562698 C32.285093,24.0463646 32.0824816,24.6364594 31.8315197,25.2039647 L31.7209386,25.4457323 L27.6455548,21.3656481 C28.0834059,18.9378293 27.3424271,16.3751317 25.4899799,14.5205479 C22.4587026,11.4857745 17.5412974,11.4857745 14.5100201,14.5205479 C11.4787429,17.5553214 11.4787429,22.4783983 14.5100201,25.5131718 C16.3268433,27.3320905 18.8564203,28.0806455 21.2090548,27.6952138 L21.3472343,27.6712329 L25.3552564,31.7175975 C24.7953122,31.9831401 24.2353679,32.1970495 23.6528601,32.3819152 L23.4017667,32.459431 L23.4017667,34.9209694 C23.4343248,35.4750966 22.9633167,35.9662054 22.3842517,35.9983303 L22.3239792,36 L17.6086591,36 C17.023309,36 16.5635513,35.5599198 16.5325398,34.9832629 L16.5308716,34.9209694 L16.5308716,32.459431 C15.6355221,32.1812434 14.7118714,31.8180541 13.8636907,31.369863 L13.6343178,31.2455216 L11.8829132,32.9989463 C11.4619025,33.3880198 10.791773,33.4029841 10.3815414,33.0438394 L10.3335937,32.9989463 L6.99918878,29.6606955 C6.6105635,29.2391992 6.59561637,28.5682967 6.9543474,28.157592 L6.99918878,28.109589 L8.7505934,26.3561644 C8.25019208,25.5107632 7.86595535,24.6072127 7.59788322,23.6725109 L7.53808251,23.4562698 L5.07937987,23.4562698 C4.49402979,23.4562698 4.03427206,23.0161895 4.00326064,22.4395327 L4.00159241,22.3772392 L4.00159241,17.6564805 C3.96903425,17.1023534 4.44004234,16.6112446 5.01910735,16.5791197 L5.07937987,16.5774499 L7.53808251,16.5774499 C7.78680269,15.6436735 8.15031681,14.7386286 8.62862485,13.8623154 L8.7505934,13.6438356 L6.99918878,11.890411 C6.57755434,11.4682902 6.56193825,10.827292 6.95234051,10.3889581 L6.99918878,10.3393045 L10.3335937,7.00105374 C10.7552282,6.57893299 11.3954879,6.56329889 11.8333168,6.95415144 L11.8829132,7.00105374 L13.6343178,8.7544784 C14.5048385,8.25646429 15.4040576,7.87337652 16.3319752,7.60521508 L16.5645525,7.54056902 L16.5645525,5.07903056 C16.5645525,4.49300534 17.0041257,4.03271734 17.5801182,4.00167015 L17.6423399,4 L22.3576601,4 Z M19.0906168,15.4984194 C20.5052129,15.2286617 22.0208515,15.6670179 23.1323198,16.7797682 C24.3831044,18.0319954 24.7653717,19.7994932 24.2791217,21.3583942 L24.2437881,21.4668072 L31.4514917,28.682824 C32.2261515,29.4246575 32.2261515,30.6722866 31.4514917,31.4478398 C30.7300123,32.2029838 29.5295603,32.222856 28.7517806,31.5074565 L28.6896614,31.4478398 L21.4819578,24.231823 C19.8989574,24.7376185 18.0801911,24.4004215 16.8003185,23.1190727 C15.6888502,22.0400421 15.2846799,20.4889357 15.5204459,19.0727081 C15.5851131,18.716628 16.0222637,18.5780805 16.2955216,18.8062307 L16.3287865,18.8366702 L17.9117868,20.4214963 C18.6190848,21.1296101 19.7305531,21.1296101 20.4378512,20.4214963 C21.1249407,19.7336143 21.1445718,18.6638877 20.4967445,17.954186 L20.4378512,17.8925184 L18.8548508,16.3076923 C18.585404,16.0379347 18.7201274,15.5658588 19.0906168,15.4984194 Z" id="Shape"></path>
                                </g>
                            </g>
                        </g>
                    </g>
                </g>
            </g>
        </g>
    </g>
</svg>