<?xml version="1.0" encoding="UTF-8"?>
<svg width="40px" height="40px" viewBox="0 0 40 40" version="1.1" xmlns="http://www.w3.org/2000/svg" xmlns:xlink="http://www.w3.org/1999/xlink">
    <!-- Generator: sketchtool 63.1 (101010) - https://sketch.com -->
    <title>136ADFBF-2505-4ED4-AA11-C3601B706157</title>
    <desc>Created with sketchtool.</desc>
    <g id="Services" stroke="none" stroke-width="1" fill="none" fill-rule="evenodd">
        <g transform="translate(-990.000000, -6287.000000)" fill="#1F1F20" id="Group-18-Copy-5">
            <g transform="translate(970.000000, 5998.000000)">
                <g id="list-copy-5" transform="translate(0.000000, 271.000000)">
                    <g id="Group-14" transform="translate(20.000000, 18.000000)">
                        <g id="iOS">
                            <g id="grey_grad">
                                <g id="ous">
                                    <path d="M20.4640303,4.00112496 C20.8359444,4.03697373 21.1504433,4.38109563 21.1499778,4.75109914 L21.1499778,7.98536278 C24.4497654,8.5177132 26.7569256,10.0756533 28.2223327,12.1453758 C29.7534394,14.3078963 30.4332105,16.9281411 30.8360291,19.4224802 L33.910966,24.7308724 C34.150419,25.1396459 33.8806897,25.7443876 33.4142455,25.8441341 L28.5534798,26.8636115 L28.5534798,33.5548061 C28.5519659,33.9471176 28.1927565,34.3034303 27.7965722,34.3047803 L22.6992729,34.3047803 L22.6992729,36.2500258 C22.6977591,36.6422998 22.3385497,36.99865 21.9423653,37 L11.4284464,37 C11.032262,37 10.6729088,36.6422998 10.6715388,36.2500258 L10.6715388,29.652578 C7.91705382,27.5453005 6,24.0443086 6,20.1138439 C6,17.1157846 6.70413217,14.2591405 8.38898947,12.0281923 C10.0271721,9.85904951 12.6039427,8.35624376 16.1236385,7.90333435 L16.1236385,4.75109914 C16.1251523,4.35880265 16.4843617,4.00248241 16.8805461,4.00112496 L20.3812435,4.00112496 C20.4088328,3.99962501 20.4364448,3.99962501 20.4640303,4.00112496 Z M19.624336,5.50107332 L17.6374536,5.50107332 L17.6374536,14.2898332 C18.4923694,14.2821835 18.9608951,14.2942955 19.624336,14.3132699 C19.6216868,11.3657701 19.624336,8.43831718 19.624336,5.50107332 Z M18.7491616,15.6139989 C16.6788756,15.5521635 14.5833317,17.0363624 14.5270367,19.7271572 C14.7270041,21.7476252 16.4964193,23.5449008 18.4416679,23.5824745 C21.5562138,23.5749747 24.0326829,19.9393624 21.6821784,17.0319375 C20.9125548,16.1031695 19.8335982,15.6463977 18.7491616,15.6139989 Z" id="Shape"></path>
                                </g>
                            </g>
                        </g>
                    </g>
                </g>
            </g>
        </g>
    </g>
</svg>