<?xml version="1.0" encoding="UTF-8"?>
<svg width="40px" height="40px" viewBox="0 0 40 40" version="1.1" xmlns="http://www.w3.org/2000/svg" xmlns:xlink="http://www.w3.org/1999/xlink">
    <!-- Generator: sketchtool 63.1 (101010) - https://sketch.com -->
    <title>EA0155FD-B791-4C15-8C6A-8D19BAAD31AE</title>
    <desc>Created with sketchtool.</desc>
    <g id="Services" stroke="none" stroke-width="1" fill="none" fill-rule="evenodd">
        <g transform="translate(-990.000000, -6487.000000)" fill="#1F1F20" fill-rule="nonzero" id="Group-18-Copy-5">
            <g transform="translate(970.000000, 5998.000000)">
                <g id="list-copy-5" transform="translate(0.000000, 471.000000)">
                    <g id="Group-14" transform="translate(20.000000, 18.000000)">
                        <g id="iOS">
                            <g id="grey_grad">
                                <g id="pds">
                                    <path d="M30.5280031,22.3404455 L30.5280031,22.3535756 C33.6379885,22.5026652 36.0644925,25.1387218 35.9986929,28.2967134 C35.9328933,31.454705 33.3987567,33.9843764 30.2853394,34 L30.2853394,34 L9.74627803,34 C6.5726963,34 4,31.3899198 4,28.1702227 C4,24.9505257 6.5726963,22.3404455 9.74627803,22.3404455 L9.74627803,22.3404455 L30.5280031,22.3404455 Z M12.4991019,24.7296348 C11.1326211,24.1557623 9.55990233,24.4744333 8.51553455,25.5368022 C7.47116678,26.5991712 7.1612495,28.1955862 7.73053959,29.5803901 C8.29982968,30.965194 9.6359813,31.8651043 11.1149017,31.859789 L11.1149017,31.859789 L11.1019596,31.8630715 C13.1186604,31.8612617 14.7530743,30.2030981 14.7548596,28.1570926 C14.7561589,26.6566732 13.8655826,25.3035073 12.4991019,24.7296348 Z M21.412951,24.7296348 C20.0464702,24.1557623 18.4737514,24.4744333 17.4293836,25.5368022 C16.3850159,26.5991712 16.0750986,28.1955862 16.6443887,29.5803901 C17.2136788,30.965194 18.5498304,31.8651043 20.0287508,31.859789 L20.0287508,31.859789 L20.0158087,31.8630715 C22.0325095,31.8612617 23.6669234,30.2030981 23.6687087,28.1570926 C23.6700079,26.6566732 22.7794317,25.3035073 21.412951,24.7296348 Z M30.3268,24.7296348 C28.9603193,24.1557623 27.3876005,24.4744333 26.3432327,25.5368022 C25.2988649,26.5991712 24.9889477,28.1955862 25.5582377,29.5803901 C26.1275278,30.965194 27.4636795,31.8651043 28.9425998,31.859789 L28.9425998,31.859789 L28.9296578,31.8630715 C30.9463586,31.8612617 32.5807725,30.2030981 32.5825578,28.1570926 C32.583857,26.6566732 31.6932808,25.3035073 30.3268,24.7296348 Z M27.4186714,6 C28.133442,6 28.7128781,6.5878559 28.7128781,7.3130129 L28.7128781,7.3130129 L28.7128781,19.3369285 C28.7128781,20.0620855 28.133442,20.6499414 27.4186714,20.6499414 L27.4186714,20.6499414 L12.6161815,20.6499414 C11.9014109,20.6499414 11.3219748,20.0620855 11.3219748,19.3369285 L11.3219748,19.3369285 L11.3219748,7.3130129 C11.3219748,6.5878559 11.9014109,6 12.6161815,6 L12.6161815,6 Z M22.2806705,9.28253224 L17.7509469,9.28253224 C17.3042152,9.28253224 16.9420676,9.64994217 16.9420676,10.1031653 C16.9420676,10.5563884 17.3042152,10.9237984 17.7509469,10.9237984 L17.7509469,10.9237984 L22.2806705,10.9237984 C22.7274022,10.9237984 23.0895498,10.5563884 23.0895498,10.1031653 C23.0895498,9.64994217 22.7274022,9.28253224 22.2806705,9.28253224 L22.2806705,9.28253224 Z" id="Combined-Shape"></path>
                                </g>
                            </g>
                        </g>
                    </g>
                </g>
            </g>
        </g>
    </g>
</svg>