<?xml version="1.0" encoding="UTF-8"?>
<svg width="40px" height="40px" viewBox="0 0 40 40" version="1.1" xmlns="http://www.w3.org/2000/svg" xmlns:xlink="http://www.w3.org/1999/xlink">
    <!-- Generator: sketchtool 63.1 (101010) - https://sketch.com -->
    <title>6D402B5A-3A97-4039-9DF6-26FEF819CBE8</title>
    <desc>Created with sketchtool.</desc>
    <g id="Services" stroke="none" stroke-width="1" fill="none" fill-rule="evenodd">
        <g transform="translate(-989.000000, -4641.000000)" fill="#1F1F20" fill-rule="nonzero" id="Group-18-Copy-3">
            <g transform="translate(969.000000, 3952.000000)">
                <g id="list-copy-5" transform="translate(0.000000, 671.000000)">
                    <g id="Group-14" transform="translate(20.000000, 18.000000)">
                        <g id="iOS">
                            <g id="grey_grad">
                                <g id="pos">
                                    <path d="M12.020979,9.00377998 C12.1188881,9.00377998 12.1958042,9.08169769 12.1958042,9.1808818 L12.1958042,9.1808818 L12.1958042,11.4973452 C11.3496364,11.4973452 10.6713357,12.2695304 10.8181608,13.1550395 C10.9300769,13.8492645 11.5804196,14.3309743 12.2797203,14.3309743 L12.2797203,14.3309743 L24.7063007,14.3309743 C25.3986014,14.3309743 26.048951,13.8492574 26.1608182,13.1621307 C26.3076853,12.2695304 25.6363427,11.4973452 24.7832168,11.4973452 L24.7832168,11.4973452 L24.7832168,9.1808818 C24.7832168,9.08169769 24.8601329,9.00377998 24.958042,9.00377998 L24.958042,9.00377998 L27.5804196,9.00377998 C28.3566364,9.00377998 28.979021,9.64131819 28.979021,10.4205945 L28.979021,10.4205945 L28.979021,35.5831855 C28.979021,36.3695529 28.3496364,37 27.5804196,37 L27.5804196,37 L9.3986014,37 C8.62934266,37 8,36.3695529 8,35.5831925 L8,35.5831925 L8,10.4205945 C8,9.64131819 8.62934266,9.00377998 9.3986014,9.00377998 L9.3986014,9.00377998 Z M13.4685385,32.4308156 L10.8811189,32.4308156 C10.8251678,32.4308156 10.7762098,32.4733129 10.7762098,32.5370483 L10.7762098,32.5370483 L10.7762098,35.1581623 C10.7762098,35.214842 10.8251608,35.2644376 10.8811189,35.2644376 L10.8811189,35.2644376 L13.4685385,35.2644376 C13.5244476,35.2644376 13.5734056,35.2148491 13.5734056,35.1581623 L13.5734056,35.1581623 L13.5734056,32.5370483 C13.5734056,32.47332 13.5244545,32.4308156 13.4685385,32.4308156 L13.4685385,32.4308156 Z M19.9090699,32.4308156 L17.3216923,32.4308156 C17.2657413,32.4308156 17.2167832,32.4733129 17.2167832,32.5370483 L17.2167832,32.5370483 L17.2167832,35.1581623 C17.2167832,35.214842 17.2657343,35.2644376 17.3216923,35.2644376 L17.3216923,35.2644376 L19.9090699,35.2644376 C19.965021,35.2644376 20.013979,35.2148491 20.013979,35.1581623 L20.013979,35.1581623 L20.013979,32.5370483 C20.013979,32.47332 19.965028,32.4308156 19.9090699,32.4308156 L19.9090699,32.4308156 Z M26.055951,32.4308156 L23.4685315,32.4308156 C23.4125804,32.4308156 23.3636224,32.4733129 23.3636224,32.5370483 L23.3636224,32.5370483 L23.3636224,35.1581623 C23.3636224,35.214842 23.4125734,35.2644376 23.4685315,35.2644376 L23.4685315,35.2644376 L26.055951,35.2644376 C26.1118601,35.2644376 26.1608182,35.2148491 26.1608182,35.1581623 L26.1608182,35.1581623 L26.1608182,32.5370483 C26.1608182,32.47332 26.1118671,32.4308156 26.055951,32.4308156 L26.055951,32.4308156 Z M32.3006993,12.8751974 C32.6853077,12.8751974 33,13.1939877 33,13.5836047 L33,13.5836047 L33,32.4201753 C33,32.8097922 32.6853077,33.1285826 32.3006993,33.1285826 L32.3006993,33.1285826 L30.3776224,33.1285826 L30.3776224,12.8751974 Z M26.055951,28.7116774 L23.4685315,28.7116774 C23.4125804,28.7116774 23.3636224,28.7541748 23.3636224,28.8179102 L23.3636224,28.8179102 L23.3636224,31.4390242 C23.3636224,31.4957038 23.4125734,31.5452994 23.4685315,31.5452994 L23.4685315,31.5452994 L26.055951,31.5452994 C26.1118601,31.5452994 26.1608182,31.4957109 26.1608182,31.4390242 L26.1608182,31.4390242 L26.1608182,28.8179102 C26.1608182,28.7541818 26.1118671,28.7116774 26.055951,28.7116774 L26.055951,28.7116774 Z M19.9090699,28.4708048 L17.3216923,28.4708048 C17.2657413,28.4708048 17.2167832,28.5203933 17.2167832,28.57708 L17.2167832,28.57708 L17.2167832,31.198194 C17.2167832,31.2619223 17.2657343,31.3044268 17.3216923,31.3044268 L17.3216923,31.3044268 L19.9090699,31.3044268 C19.965028,31.3044268 20.013979,31.2619223 20.013979,31.198194 L20.013979,31.198194 L20.013979,28.57708 C20.013979,28.5204004 19.965028,28.4708048 19.9090699,28.4708048 L19.9090699,28.4708048 Z M13.4685315,28.4707977 L10.8811119,28.4707977 C10.8251608,28.4707977 10.7762028,28.5203862 10.7762028,28.5770729 L10.7762028,28.5770729 L10.7762028,31.1981869 C10.7762028,31.2619153 10.8251608,31.3044197 10.8811189,31.3044197 L10.8811189,31.3044197 L13.4685315,31.3044197 C13.5244406,31.3044197 13.5733986,31.2619223 13.5733986,31.1981869 L13.5733986,31.1981869 L13.5733986,28.5770729 C13.5733986,28.5203933 13.5244476,28.4707977 13.4685315,28.4707977 L13.4685315,28.4707977 Z M26.0559441,24.7516595 L23.4685245,24.7516595 C23.4125734,24.7516595 23.3636154,24.801248 23.3636154,24.8579348 L23.3636154,24.8579348 L23.3636154,27.4790488 C23.3636154,27.535693 23.4125734,27.5852815 23.4685315,27.5852815 L23.4685315,27.5852815 L26.0559441,27.5852815 C26.1118531,27.5852815 26.1608112,27.535693 26.1608112,27.4790488 L26.1608112,27.4790488 L26.1608112,24.8579348 C26.1608112,24.8012551 26.1118601,24.7516595 26.0559441,24.7516595 L26.0559441,24.7516595 Z M19.9090699,24.517878 L17.3216923,24.517878 C17.2657413,24.517878 17.2167832,24.5674665 17.2167832,24.6241533 L17.2167832,24.6241533 L17.2167832,27.2452673 C17.2167832,27.3019469 17.2657343,27.3515 17.3216923,27.3515 L17.3216923,27.3515 L19.9090699,27.3515 C19.965021,27.3515 20.013979,27.301954 20.013979,27.2452673 L20.013979,27.2452673 L20.013979,24.6241533 C20.013979,24.5674736 19.965028,24.517878 19.9090699,24.517878 L19.9090699,24.517878 Z M13.4685315,24.5178709 L10.8811119,24.5178709 C10.8251608,24.5178709 10.7762028,24.5674594 10.7762028,24.6241462 L10.7762028,24.6241462 L10.7762028,27.2452602 C10.7762028,27.3019398 10.8251608,27.3514929 10.8811189,27.3514929 L10.8811189,27.3514929 L13.4685315,27.3514929 C13.5244406,27.3514929 13.5733986,27.3019469 13.5733986,27.2452602 L13.5733986,27.2452602 L13.5733986,24.6241462 C13.5733986,24.5674665 13.5244476,24.5178709 13.4685315,24.5178709 L13.4685315,24.5178709 Z M25.4825175,16.031166 L11.4965035,16.031166 C11.1118951,16.031166 10.7972028,16.3499563 10.7972028,16.7395732 L10.7972028,16.7395732 L10.7972028,22.4068314 C10.7972028,22.7964483 11.1118951,23.1152387 11.4965035,23.1152387 L11.4965035,23.1152387 L25.4825175,23.1152387 C25.8671259,23.1152387 26.1818182,22.7964483 26.1818182,22.4068314 L26.1818182,22.4068314 L26.1818182,16.7395732 C26.1818182,16.3499563 25.8671259,16.031166 25.4825175,16.031166 L25.4825175,16.031166 Z M23.3846154,6.24451948 L23.3846154,12.2092946 C23.3846154,12.5989115 23.0699231,12.9177018 22.6853147,12.9177018 L22.6853147,12.9177018 L14.2937063,12.9177018 C13.9090979,12.9177018 13.5944056,12.5989115 13.5944056,12.2092946 L13.5944056,12.2092946 L13.5944056,6.24451948 L23.3846154,6.24451948 Z M22.6853147,3 C23.0699231,3 23.3846154,3.31879036 23.3846154,3.70840727 L23.3846154,3.70840727 L23.3846154,4.94812 L13.5944056,4.94812 L13.5944056,3.70840727 C13.5944056,3.31879036 13.9090979,3 14.2937063,3 L14.2937063,3 Z" id="Combined-Shape"></path>
                                </g>
                            </g>
                        </g>
                    </g>
                </g>
            </g>
        </g>
    </g>
</svg>