<?xml version="1.0" encoding="UTF-8"?>
<svg width="40px" height="40px" viewBox="0 0 40 40" version="1.1" xmlns="http://www.w3.org/2000/svg" xmlns:xlink="http://www.w3.org/1999/xlink">
    <!-- Generator: sketchtool 63.1 (101010) - https://sketch.com -->
    <title>B95EEA2A-9B3E-41CA-B08D-2F8236B04584</title>
    <desc>Created with sketchtool.</desc>
    <g id="Services" stroke="none" stroke-width="1" fill="none" fill-rule="evenodd">
        <g transform="translate(-961.000000, -2695.000000)" fill="#1F1F20" id="Group-18-Copy">
            <g transform="translate(941.000000, 2006.000000)">
                <g id="list-copy-5" transform="translate(0.000000, 671.000000)">
                    <g id="Group-14" transform="translate(20.000000, 18.000000)">
                        <g id="iOS">
                            <g id="grey_grad">
                                <g id="pw">
                                    <path d="M33,22 C33.5522847,22 34,22.4477153 34,23 L34,37 C34,37.5522847 33.5522847,38 33,38 L27,38 C26.4477153,38 26,37.5522847 26,37 L26,23 C26,22.4477153 26.4477153,22 27,22 L33,22 Z M24.9040527,5 C28.1959359,5 30.8783853,7.6092964 30.9959796,10.872468 L31,11.0959473 L31,20 C31,20.5522847 30.5522847,21 30,21 C29.4871642,21 29.0644928,20.6139598 29.0067277,20.1166211 L29,20 L29,11.0959473 C29,8.83381805 27.1661819,7 24.9040527,7 C22.7104729,7 20.9196393,8.72436151 20.8131182,10.8915182 L20.8081055,11.0959473 L20.8081055,32.0959473 C20.8081055,35.3566656 18.164771,38 14.9040527,38 C11.7174417,38 9.12047046,35.4754518 9.00407229,32.3172885 L9,32.0959473 L9,21 C9,20.4477153 9.44771525,20 10,20 C10.5128358,20 10.9355072,20.3860402 10.9932723,20.8833789 L11,21 L11,32.0959473 C11,34.2520961 12.7479039,36 14.9040527,36 C16.9928219,36 18.6984628,34.3596331 18.8030255,32.2968493 L18.8081055,32.0959473 L18.8081055,11.0959473 C18.8081055,7.72924856 21.537354,5 24.9040527,5 Z M13,3 C13.5522847,3 14,3.44771525 14,4 L14,18 C14,18.5522847 13.5522847,19 13,19 L7,19 C6.44771525,19 6,18.5522847 6,18 L6,4 C6,3.44771525 6.44771525,3 7,3 L13,3 Z" id="Combined-Shape"></path>
                                </g>
                            </g>
                        </g>
                    </g>
                </g>
            </g>
        </g>
    </g>
</svg>