<?xml version="1.0" encoding="UTF-8"?>
<svg width="40px" height="40px" viewBox="0 0 40 40" version="1.1" xmlns="http://www.w3.org/2000/svg" xmlns:xlink="http://www.w3.org/1999/xlink">
    <!-- Generator: sketchtool 63.1 (101010) - https://sketch.com -->
    <title>D4969172-F6EE-4766-B853-F9B432C4D65A</title>
    <desc>Created with sketchtool.</desc>
    <g id="Services" stroke="none" stroke-width="1" fill="none" fill-rule="evenodd">
        <g transform="translate(-231.000000, -3318.000000)" fill="#FFFFFF" id="Group-18-Copy-2">
            <g transform="translate(211.000000, 3029.000000)">
                <g id="list" transform="translate(0.000000, 271.000000)">
                    <g id="Group-14" transform="translate(20.000000, 18.000000)">
                        <g id="iOS">
                            <g id="grey_grad">
                                <g id="pwa">
                                    <path d="M36,16 L36,30 C36,31.1045695 35.1045695,32 34,32 L6,32 C4.8954305,32 4,31.1045695 4,30 L4,16 L36,16 Z M22,25 L8,25 C7.44771525,25 7,25.4477153 7,26 L7,26 L7,28 C7,28.5522847 7.44771525,29 8,29 L8,29 L22,29 C22.5522847,29 23,28.5522847 23,28 L23,28 L23,26 C23,25.4477153 22.5522847,25 22,25 L22,25 Z M31,20 L29,20 L29,22.5 L26.5,22.5 L26.5,24.5 L29,24.5 L29,27 L31,27 L31,24.5 L33.5,24.5 L33.5,22.5 L31,22.5 L31,20 Z M22,19 L8,19 C7.44771525,19 7,19.4477153 7,20 L7,20 L7,22 C7,22.5522847 7.44771525,23 8,23 L8,23 L22,23 C22.5522847,23 23,22.5522847 23,22 L23,22 L23,20 C23,19.4477153 22.5522847,19 22,19 L22,19 Z M34,8 C35.1045695,8 36,8.8954305 36,10 L36,14 L4,14 L4,10 C4,8.8954305 4.8954305,8 6,8 L34,8 Z M7,10 C6.44771525,10 6,10.4477153 6,11 C6,11.5522847 6.44771525,12 7,12 C7.55228475,12 8,11.5522847 8,11 C8,10.4477153 7.55228475,10 7,10 Z M11,10 C10.4477153,10 10,10.4477153 10,11 C10,11.5522847 10.4477153,12 11,12 C11.5522847,12 12,11.5522847 12,11 C12,10.4477153 11.5522847,10 11,10 Z M15,10 C14.4477153,10 14,10.4477153 14,11 C14,11.5522847 14.4477153,12 15,12 C15.5522847,12 16,11.5522847 16,11 C16,10.4477153 15.5522847,10 15,10 Z" id="Combined-Shape"></path>
                                </g>
                            </g>
                        </g>
                    </g>
                </g>
            </g>
        </g>
    </g>
</svg>