<?xml version="1.0" encoding="UTF-8"?>
<svg width="40px" height="40px" viewBox="0 0 40 40" version="1.1" xmlns="http://www.w3.org/2000/svg" xmlns:xlink="http://www.w3.org/1999/xlink">
    <!-- Generator: sketchtool 63.1 (101010) - https://sketch.com -->
    <title>11A88F8E-BCC5-4FE2-A424-69ED56DDCAB6</title>
    <desc>Created with sketchtool.</desc>
    <g id="Services" stroke="none" stroke-width="1" fill="none" fill-rule="evenodd">
        <g transform="translate(-231.000000, -5369.000000)" id="list">
            <g transform="translate(211.000000, 5351.000000)">
                <g id="Group-14" transform="translate(20.000000, 18.000000)">
                    <g id="iOS">
                        <g id="grey_grad">
                            <g id="seo">
                                <g id="noun_SEO_2469531" transform="translate(4.000000, 4.000000)">
                                    <g id="Group" transform="translate(0.815686, 0.000000)" fill="#FFFFFF" fill-rule="nonzero">
                                        <path d="M11.8996078,0.0878431373 C13.1105882,-0.0564705882 14.3121569,0.0156862745 15.5137255,0.203921569 C16.7215686,0.392156863 17.8698039,0.78745098 18.9803922,1.29254902 C19.347451,1.46196078 19.5827451,1.86352941 19.7019608,2.23058824 C19.8337255,2.63215686 19.7364706,3.0745098 19.545098,3.43843137 C19.3662745,3.7772549 18.9709804,4.05960784 18.6070588,4.16 C18.4,4.22588235 18.1898039,4.23529412 17.9827451,4.18823529 C17.772549,4.17882353 17.5780392,4.11921569 17.3992157,4.00313725 L17.3992157,4.00313725 L17.2393322,3.93245524 L17.0146413,3.84385983 C16.3162591,3.58112616 15.5929526,3.38447608 14.856155,3.25619619 L14.6443322,3.22245524 L14.3867558,3.19436575 C13.6473058,3.12553822 12.9032825,3.12553822 12.1638324,3.19436575 L11.9033322,3.22245524 L11.7001498,3.25466872 C10.9733676,3.38011319 10.2621346,3.57255588 9.57216715,3.83085348 L9.33333217,3.92445524 L9.13830218,4.01218316 C8.48455496,4.31639627 7.86099125,4.6802904 7.27447093,5.09814897 L7.09233217,5.23145524 L7.23733217,5.11545524 L7.0854902,5.23294118 C7.03294118,5.27372549 6.98039216,5.3145098 6.92705882,5.35529412 L7.09133217,5.23245524 L6.90727491,5.38154462 C6.35441377,5.84316927 5.84316927,6.35441377 5.38154462,6.90727491 L5.23733217,7.08545524 L5.09814897,7.27446178 C4.6802904,7.86093637 4.31639627,8.48422569 4.01218316,9.13632653 L3.92333217,9.33345524 L3.83184131,9.56668839 C3.57464129,10.2532716 3.38078088,10.9634071 3.25483336,11.686805 L3.21933217,11.9104552 L3.24333217,11.7074552 L3.21568627,11.9137255 L3.21568627,11.9137255 L3.18733217,12.1184552 L3.21933217,11.9134552 L3.19321329,12.1521797 C3.12278511,12.8983525 3.12278511,13.6490985 3.19321329,14.3952713 L3.21933217,14.6334552 L3.25483336,14.8604813 C3.38078088,15.5833762 3.57464129,16.292094 3.83184131,16.9797748 L3.92333217,17.2124552 L3.83686275,17.0164706 L3.83686275,17.0164706 C3.89019608,17.1419608 3.94352941,17.267451 3.99372549,17.3898039 L3.92333217,17.2134552 L4.01218316,17.4111244 C4.31639627,18.0632253 4.6802904,18.6865146 5.09814897,19.2729892 L5.22733217,19.4484552 L5.38154462,19.6401761 C5.84316927,20.1930372 6.35441377,20.7042817 6.90727491,21.1659064 L7.07733217,21.3034552 L7.27446178,21.449302 C7.86093637,21.8671606 8.48422569,22.2310547 9.13632653,22.5352678 L9.34333217,22.6274552 L9.56668839,22.7156097 C10.2532716,22.9728097 10.9634071,23.1666701 11.686805,23.2926176 L11.9013322,23.3254552 L12.1521797,23.3542377 C12.8983525,23.4246659 13.6490985,23.4246659 14.3952713,23.3542377 L14.6463322,23.3254552 L14.8604813,23.2926176 C15.5833762,23.1666701 16.292094,22.9728097 16.9797748,22.7156097 L17.2033322,22.6274552 L17.4111244,22.5352678 C18.0632253,22.2310547 18.6865146,21.8671606 19.2729892,21.449302 L19.4743322,21.2994552 L19.6425084,21.1645527 C20.1987081,20.7006414 20.7107757,20.1868816 21.1741382,19.6301332 L21.3223322,19.4444552 L21.4533631,19.2673458 C21.8623952,18.6926702 22.218149,18.0825519 22.5183376,17.4438507 L22.6213322,17.2134552 L22.534902,17.4305882 L22.534902,17.4305882 C22.5882353,17.305098 22.6415686,17.1796078 22.6917647,17.0572549 L22.6253322,17.2034552 L22.7004539,17.0161596 C22.9631876,16.3205671 23.1598376,15.6011936 23.2881175,14.8671857 L23.3233322,14.6334552 L23.3511004,14.3950975 C23.4215286,13.6483759 23.4215286,12.8959378 23.3511004,12.1492163 L23.3243322,11.9134552 L23.3543322,12.1044552 L23.3286275,11.9105882 L23.3286275,11.9105882 L23.3023322,11.7114552 L23.3013322,11.7124552 L23.3233322,11.9094552 L23.2943322,11.7194552 L19.9435294,15.0713725 C19.3817647,15.6331373 18.4505147,15.6682475 17.8425643,15.1767034 L17.7254902,15.0713725 C17.5466667,14.892549 17.3647059,14.7105882 17.1858824,14.5317647 L16.0141176,13.36 L16.0141176,13.36 L14.8423529,12.1882353 C14.6120415,11.9579239 14.6506004,11.7331705 14.7291691,11.5865567 L14.7333322,11.5784552 L13.1290196,13.1831373 L13.1290196,13.1831373 L9.30823529,17.0039216 C9.00705882,17.305098 8.61490196,17.4431373 8.19764706,17.4619608 C7.7772549,17.4807843 7.38509804,17.2768627 7.08705882,17.0039216 C6.79843137,16.7372549 6.62901961,16.2792157 6.62901961,15.8933333 C6.62901961,15.4886275 6.80156863,15.0682353 7.08705882,14.7827451 L7.08705882,14.7827451 L13.3709804,8.49882353 C13.9701961,7.89960784 14.9898039,7.89960784 15.5890196,8.49882353 C15.7678431,8.67764706 15.9498039,8.85960784 16.1286275,9.03843137 C16.9098039,9.81960784 17.6909804,10.6007843 18.4721569,11.3819608 C18.6819048,11.5917087 18.5764546,11.8890436 18.3879449,12.1598719 L18.3333322,12.2344552 L18.347451,12.2203922 L18.347451,12.2203922 L18.9584314,11.6141176 L18.9584314,11.6141176 L21.4713725,9.10117647 C22.4439216,8.12862745 23.4133333,7.15921569 24.3827451,6.18980392 L24.3827451,6.18980392 L27.7898039,2.7827451 C28.0909804,2.48470588 28.4831373,2.34352941 28.9003922,2.32470588 C29.3207843,2.30588235 29.7129412,2.50980392 30.0109804,2.7827451 C30.2996078,3.04941176 30.4690196,3.50745098 30.4690196,3.89333333 C30.4690196,4.29803922 30.2964706,4.71843137 30.0109804,5.00392157 L30.0109804,5.00392157 L29.9921569,5.0227451 C29.5937255,5.43372549 29.1796078,5.83529412 28.774902,6.24 C27.9372549,7.07764706 27.0996078,7.91529412 26.2619608,8.75294118 L26.2619608,8.75294118 L25.8843902,9.13051975 C25.9792228,9.41276231 26.0636033,9.69788317 26.1364706,9.98588235 C26.732549,12.345098 26.6854902,14.8894118 25.9545098,17.2141176 C25.4699708,18.7532416 24.7053469,20.2144173 23.7052202,21.4879047 L30.0298039,27.8117647 C30.3278431,28.1098039 30.4690196,28.5019608 30.4878431,28.9223529 C30.5066667,29.3427451 30.3027451,29.734902 30.0298039,30.0329412 C29.7631373,30.3215686 29.305098,30.4909804 28.9192157,30.4909804 C28.5145098,30.4909804 28.0941176,30.3184314 27.8086275,30.0329412 C27.5105882,29.734902 27.2094118,29.4337255 26.9082353,29.132549 C25.5843137,27.8086275 24.2603922,26.4847059 22.9364706,25.1607843 L21.4754494,23.7001877 C19.7758832,25.0195996 17.7849763,25.9648171 15.6517647,26.3247059 C14.5254902,26.5129412 13.3866667,26.5976471 12.2478431,26.4972549 C11.0996078,26.3968627 9.96392157,26.1835294 8.87843137,25.7913725 C6.6572549,24.9882353 4.63058824,23.6392157 3.12470588,21.8070588 C2.37490196,20.8972549 1.72235294,19.9215686 1.23921569,18.8423529 C0.765490196,17.7882353 0.398431373,16.7027451 0.213333333,15.5607843 C0.0282352941,14.425098 -0.0501960784,13.2831373 0.062745098,12.134902 C0.17254902,10.9929412 0.389019608,9.86666667 0.78745098,8.79058824 C1.61882353,6.55058824 2.99921569,4.51137255 4.87215686,3.01803922 C5.41490196,2.58509804 5.97019608,2.1772549 6.56627451,1.82588235 C7.14352941,1.48705882 7.74901961,1.21098039 8.36705882,0.956862745 C9.5027451,0.48627451 10.6823529,0.232156863 11.8996078,0.0878431373 Z" id="Combined-Shape"></path>
                                        <g transform="translate(22.619608, 2.290196)" id="Path">
                                            <path d="M1.59372549,3.15921569 C2.96470588,3.15921569 4.33882353,3.15921569 5.70980392,3.15921569 C5.90745098,3.15921569 6.10196078,3.15921569 6.29960784,3.15921569 C5.77568627,2.63529412 5.25490196,2.1145098 4.73098039,1.59058824 C4.73098039,2.96156863 4.73098039,4.33568627 4.73098039,5.70666667 C4.73098039,5.90431373 4.73098039,6.09882353 4.73098039,6.29647059 C4.73098039,6.69803922 4.90666667,7.12156863 5.18901961,7.40705882 C5.46196078,7.68 5.90745098,7.88392157 6.29960784,7.86509804 C6.70431373,7.84627451 7.12470588,7.7145098 7.41019608,7.40705882 C7.69254902,7.09960784 7.86823529,6.72313725 7.86823529,6.29647059 C7.86823529,4.9254902 7.86823529,3.55137255 7.86823529,2.18039216 C7.86823529,1.9827451 7.86823529,1.78823529 7.86823529,1.59058824 C7.86823529,0.743529412 7.14980392,0.0219607843 6.29960784,0.0219607843 C4.92862745,0.0219607843 3.5545098,0.0219607843 2.18352941,0.0219607843 C1.98588235,0.0219607843 1.79137255,0.0219607843 1.59372549,0.0219607843 C1.19215686,0.0219607843 0.768627451,0.197647059 0.483137255,0.48 C0.210196078,0.752941176 0.0062745098,1.19843137 0.0250980392,1.59058824 C0.0439215686,1.99529412 0.175686275,2.41568627 0.483137255,2.70117647 C0.790588235,2.98039216 1.17019608,3.15921569 1.59372549,3.15921569 L1.59372549,3.15921569 Z"></path>
                                        </g>
                                    </g>
                                    <text id="Created-by-shashank-singh" fill="#000000" font-family="Helvetica-Bold, Helvetica" font-size="0.156862745" font-weight="bold">
                                        <tspan x="0" y="31.6235294">Created by shashank singh</tspan>
                                    </text>
                                    <text id="from-the-Noun-Project" fill="#000000" font-family="Helvetica-Bold, Helvetica" font-size="0.156862745" font-weight="bold">
                                        <tspan x="0" y="31.7803922">from the Noun Project</tspan>
                                    </text>
                                </g>
                            </g>
                        </g>
                    </g>
                </g>
            </g>
        </g>
    </g>
</svg>