<?xml version="1.0" encoding="utf-8"?>
<!-- Generator: Adobe Illustrator 23.0.0, SVG Export Plug-In . SVG Version: 6.00 Build 0)  -->
<svg version="1.1" id="Layer_1" xmlns="http://www.w3.org/2000/svg" xmlns:xlink="http://www.w3.org/1999/xlink" x="0px" y="0px"
	 viewBox="0 0 940 740" style="enable-background:new 0 0 940 740;" xml:space="preserve">
<style type="text/css">
	.st0{fill-rule:evenodd;clip-rule:evenodd;fill:#CDCDCD;}
	.st1{filter:url(#Adobe_OpacityMaskFilter);}
	.st2{fill-rule:evenodd;clip-rule:evenodd;fill:#FFFFFF;}
	.st3{mask:url(#mask-2_1_);fill-rule:evenodd;clip-rule:evenodd;fill:#CDCDCD;}
	.st4{fill-rule:evenodd;clip-rule:evenodd;fill:#112B46;}
	.st5{fill-rule:evenodd;clip-rule:evenodd;fill:#173D7A;}
	.st6{fill-rule:evenodd;clip-rule:evenodd;fill:#242424;}
	.st7{fill-rule:evenodd;clip-rule:evenodd;fill:#505050;}
	.st8{fill-rule:evenodd;clip-rule:evenodd;fill:#FFC2B0;}
	.st9{fill-rule:evenodd;clip-rule:evenodd;fill:#FF95B6;}
	.st10{fill-rule:evenodd;clip-rule:evenodd;fill:#E76388;}
	.st11{fill-rule:evenodd;clip-rule:evenodd;fill:#EA9C92;}
	.st12{fill-rule:evenodd;clip-rule:evenodd;fill:#404040;}
	.st13{fill-rule:evenodd;clip-rule:evenodd;fill:#888888;}
	.st14{fill-rule:evenodd;clip-rule:evenodd;fill:#B4B4B4;}
	.st15{fill-rule:evenodd;clip-rule:evenodd;fill:#FAFDFF;}
	.st16{filter:url(#Adobe_OpacityMaskFilter_1_);}
	.st17{mask:url(#mask-4_1_);fill-rule:evenodd;clip-rule:evenodd;fill:#CDCDCD;}
	.st18{fill-rule:evenodd;clip-rule:evenodd;fill:#1F1F20;}
	.st19{fill-rule:evenodd;clip-rule:evenodd;fill:#CD745D;}
	.st20{fill-rule:evenodd;clip-rule:evenodd;fill:#EDB1A1;}
	.st21{fill-rule:evenodd;clip-rule:evenodd;fill:#B26652;}
	.st22{fill-rule:evenodd;clip-rule:evenodd;fill:#E38870;}
	.st23{fill-rule:evenodd;clip-rule:evenodd;fill:#9C5947;}
	.st24{fill-rule:evenodd;clip-rule:evenodd;fill:#CD496E;}
	.st25{fill-rule:evenodd;clip-rule:evenodd;fill:#E97389;}
	.st26{filter:url(#Adobe_OpacityMaskFilter_2_);}
	.st27{mask:url(#mask-6_1_);fill:none;}
	.st28{fill-rule:evenodd;clip-rule:evenodd;fill:#EAEAEA;}
	.st29{fill-rule:evenodd;clip-rule:evenodd;fill:#BEBEBE;}
	.st30{fill-rule:evenodd;clip-rule:evenodd;fill:#5793CE;}
	.st31{fill-rule:evenodd;clip-rule:evenodd;fill:#F0F0F0;}
	.st32{fill-rule:evenodd;clip-rule:evenodd;fill:#ACACAC;}
</style>
<title>sm</title>
<desc>Created with Sketch.</desc>
<g id="sm">
	
		<g transform="translate(470.000000, 370.500000) scale(-1, 1) translate(-470.000000, -370.500000) translate(151.000000, 72.000000)">
		<g id="Group-223" transform="translate(0.000000, 0.343420)">
			<path id="Fill-1" class="st0" d="M379.9,417.7c-18,10.4-47.1,10.4-65.1,0c-18-10.4-18-27.2,0-37.6c18-10.4,47.1-10.4,65.1,0
				C397.8,390.5,397.8,407.3,379.9,417.7"/>
			<g id="Group-5" transform="translate(507.980020, 500.940020)">
				<g id="Clip-4">
				</g>
				<defs>
					<filter id="Adobe_OpacityMaskFilter" filterUnits="userSpaceOnUse">
						<feColorMatrix  type="matrix" values="1 0 0 0 0  0 1 0 0 0  0 0 1 0 0  0 0 0 1 0"/>
					</filter>
				</defs>
				<mask maskUnits="userSpaceOnUse" id="mask-2_1_">
					<g class="st1">
						<polygon id="path-1_1_" class="st2" points="149.2,0.9 278.8,0.9 278.8,75.7 149.2,75.7 						"/>
					</g>
				</mask>
				<path id="Fill-3" class="st3" d="M259.8,64.7c-25.3,14.6-66.3,14.6-91.6,0c-25.3-14.6-25.3-38.3,0-52.9
					c25.3-14.6,66.3-14.6,91.6,0C285.1,26.4,285.1,50.1,259.8,64.7"/>
			</g>
			<path id="Fill-6" class="st4" d="M320.9,72.3c0,0,1.2,24.7,3.1,41.4c1.9,16.6,41.9-12.8,41.9-12.8V82L320.9,72.3z"/>
			<path id="Fill-8" class="st5" d="M342.3,380.2c0.6,1.5,11,14.1,21.4,17.3c4.5,1.4,7.5,1.6,9.5,1.3c2-0.2,3.2-2.3,2.6-4.2
				c-1.8-5-6.9-15.5-19.9-21.9C338.2,364,342.3,380.2,342.3,380.2"/>
			<path id="Fill-10" class="st6" d="M338.8,385.1c0,0,3.9,9.2,5.1,16.8c0.7,4.7-1.8,10.8-3.9,14.8c-1.3,2.5-4.6,3.1-6.7,1.2
				c-3.4-3.1-7.7-8.4-8.4-16.1c-1.2-12.9,0-15.2,0-15.2L338.8,385.1z"/>
			<path id="Fill-12" class="st7" d="M313.8,228.7c0,0-1.4,16.3,0,34.4c1.4,18,6.2,102.4,7.1,122.7c0,0-0.5,6.1,11.4,4.8
				c11.9-1.4,10.9-8.2,10.9-8.2s16.7-0.2,17.2-10.1c0.5-9.9,17.1-117.6,17.1-156.4L313.8,228.7z"/>
			<path id="Fill-14" class="st8" d="M383.8,144.4l8.2,12.7l28.1,34c0,0-1,3.2-4.5,4c-2.7,0.6-26.4-21.9-36.6-31.8
				c-2.7-2.6-3.2-6.8-1.1-10L383.8,144.4z"/>
			<path id="Fill-16" class="st9" d="M367.9,92.3c0,0,13-0.3,17.5,18.5c4.5,18.8,8.1,42.3,4.1,44.3c-11.8,5.9-19.3-1-19.3-1
				L367.9,92.3z"/>
			<path id="Fill-18" class="st10" d="M371.8,93.1c-2.2-0.9-4.7-1-7-0.4c-11.1,3.2-52.7,15.4-59.6,21.3
				c-7.9,6.8,11.9,44.9,11.6,57.4c-0.3,12.5-1.7,27.2-2.8,40.8c-1.1,13.6-2.6,21,8.5,26.8s30.1,6,44.3-4.8
				c14.2-10.8,11.6-18.2,11-26.1c-0.6-7.9-5.4-41.8-5-51.5c0,0,5-3.7,8.7-10c3.7-6.3-2.8-17.9-5.6-25.5c-2.7-7.6,1.5-16.2,0.7-22.4
				C376.2,95.7,374.1,94.1,371.8,93.1"/>
			<path id="Fill-20" class="st2" d="M358.4,106.1c0.9,6.9-5.4,13.3-14.1,14.4c-8.6,1.1-16.4-3.6-17.2-10.4
				c-0.9-6.9,5.4-13.3,14.1-14.4C349.8,94.6,357.6,99.3,358.4,106.1"/>
			<path id="Fill-22" class="st8" d="M354,106.7c0.6,4.9-3.9,9.5-10.1,10.3c-6.2,0.8-11.7-2.5-12.3-7.4c-0.6-4.9,3.9-9.5,10-10.3
				C347.8,98.5,353.3,101.8,354,106.7"/>
			<path id="Fill-24" class="st8" d="M347.8,90.6c0,0-7.5-6.2-9-3.1c-1.5,3.1-2.7,16.6-2.7,16.6l14.9,4l-2.3-13.6
				C348.8,94.5,351.8,92,347.8,90.6"/>
			<path id="Fill-26" class="st8" d="M371.2,75.9c-0.7,12.3-11.3,21.7-23.6,20.9c-12.3-0.7-21.7-11.3-20.9-23.6
				c0.7-12.3,11.3-21.7,23.6-20.9C362.5,53,371.9,63.6,371.2,75.9"/>
			<path id="Fill-28" class="st11" d="M337.8,91.4c-0.1,0.7-0.3,1.5-0.4,2.2c1.5,7.8,13.1,11.2,13.1,11.2l-1.7-10.3
				c0,0,1.4-1.2,1-2.4C345.2,90.7,339.4,89.4,337.8,91.4"/>
			<path id="Fill-30" class="st8" d="M371.2,75.9c-0.7,12.3-11.3,21.7-23.6,20.9c-12.3-0.7-21.7-11.3-20.9-23.6
				c0.7-12.3,11.3-21.7,23.6-20.9C362.5,53,371.9,63.6,371.2,75.9"/>
			<polygon id="Fill-32" class="st8" points="294,168.9 296.5,228.6 305.2,229.5 310.9,175.8 			"/>
			<path id="Fill-34" class="st9" d="M322.6,164c-2.9-12.7-8.6-40.9-8.6-40.9l-2.4,28c2.8,8.3,5.2,15.9,5.1,20.3
				c-0.2,7.3-0.7,15.4-1.4,23.6l0,0C315.4,195.1,325.5,176.7,322.6,164"/>
			<path id="Fill-36" class="st9" d="M306.8,112.8c0,0-7,2.7-10.9,24.1c-3.9,21.4-6.9,42.9,0.1,45.7c7,2.8,12.9,4.8,15-0.9
				c2.1-5.7,3.4-33.3,3.6-43.3C314.9,128.5,315.2,114.8,306.8,112.8"/>
			<path id="Fill-38" class="st8" d="M418.1,188.6c0,0,3.8,1.4,6.5,4.4c2.2,2.4,3.5,4.5,4.4,6c2.2,3.2,4,10.2,2.7,11.1
				c-1.3,0.9-8.9-11.7-10.1-8.8c-1.2,2.9,0,5.6-1.6,5.7c-1.6,0-7-12.7-11.3-16.6C404.5,186.4,418.1,188.6,418.1,188.6"/>
			<path id="Fill-40" class="st12" d="M343.3,382.5c0,0,2.1,0,4.8-0.5l3.3-131.2L343.3,382.5z"/>
			<path id="Fill-42" class="st8" d="M296.5,228.1c0,0-2.3,13.9-2,18.4c0.3,4.5,2.7,11.8,4.5,11.7c1.8-0.2,0.1-17.9,3.2-16.2
				c3.2,1.8,3.5,4.8,5,3.7c1.4-1.1-2.5-16.3-1.5-22.9C306.9,216.3,296.5,228.1,296.5,228.1"/>
			<path id="Fill-44" class="st11" d="M357.5,76.5c11.2,4,13.4,1.6,13.5,1.4c0.1-0.7,0.2-1.4,0.2-2.1c0.1-2.5-0.1-4.9-0.7-7.1
				l-29-3.9C341.4,64.8,346,72.4,357.5,76.5"/>
			<path id="Fill-46" class="st4" d="M372,53.6c-2.6-2.3-12.2-13.4-29.2-10.8c-10.7,1.6-19.6,8.9-21.6,25.5
				c-1.3,11.2,2.8,22.2,10.3,30.3c0.4-0.2,0.8-0.4,1.2-0.6c4.3-2.8,4.7-4.4,4.7-4.4l0.9-8.5c0-1.2-0.9-2.3-2.1-2.3
				c-0.9-0.1-2.1-0.5-3.1-1.9c-2.4-3.2-1.3-8.2,3.6-8.4c2.6-0.1,3.5-1.5,3.9-2.8c0.3-1.1,1.5-1.8,2.6-1.4c5.6,2,19.3,6.4,28.1,3.9
				C382.6,69.1,374.6,55.9,372,53.6"/>
			<path id="Fill-48" class="st2" d="M359.3,86.6l6.8-1.9c0,0-3.3,5.1-8,6.4c-4.8,1.3-5.5-2.7-5.5-2.7L359.3,86.6z"/>
			<path id="Fill-50" class="st0" d="M569,558.8l-154.4-88.1c-5.6-3.3-4.9-9,1.6-12.7l88.8-51.3c6.5-3.8,16.4-4.2,22-0.9l154.4,88.1
				c5.6,3.3,4.9,9-1.6,12.7L591,557.8C584.5,561.6,574.6,562,569,558.8"/>
			<path id="Fill-52" class="st13" d="M695.2,464.2L695.2,464.2V103.7L551.9,66.2l-26.4-15.2c-6.1-3.5-16.6-3.1-23.6,1l-24.6,14.2
				l-76.4,0l22.6,348c-0.2,2.4,1.1,4.7,4.1,6.3l143,107.9c6.1,3.5,16.6,3.1,23.6-1l95.3-55C693.5,470,695.4,467,695.2,464.2"/>
			<path id="Fill-54" class="st14" d="M514.5,48.6c-4.4,0.1-9,1.2-12.7,3.3l-24.6,14.2l-76.4,0v361.5c-0.2,2.4,1.1,4.7,4.1,6.3
				l165.7,94.5c2.9,1.7,6.9,2.4,11,2.3l1.7-363.7L514.5,48.6z"/>
			<path id="Fill-56" class="st15" d="M572,529.1c5.2,2.2,12.8,2.1,18.9-0.2V162.7H572V529.1z"/>
			<g id="Group-60" transform="translate(251.460010, 0.000000)">
				<g id="Clip-59">
				</g>
				<defs>
					<filter id="Adobe_OpacityMaskFilter_1_" filterUnits="userSpaceOnUse">
						<feColorMatrix  type="matrix" values="1 0 0 0 0  0 1 0 0 0  0 0 1 0 0  0 0 0 1 0"/>
					</filter>
				</defs>
				<mask maskUnits="userSpaceOnUse" id="mask-4_1_">
					<g class="st16">
						<polygon id="path-3_1_" class="st2" points="149.3,0.5 443.8,0.5 443.8,169.4 149.3,169.4 						"/>
					</g>
				</mask>
				<path id="Fill-58" class="st17" d="M319,167L153.4,72.6c-6.1-3.5-5.3-9.6,1.7-13.6l95.3-55c7-4,17.6-4.5,23.6-1l165.7,94.5
					c6.1,3.5,5.3,9.6-1.7,13.6l-95.3,55C335.7,170.1,325.1,170.5,319,167"/>
			</g>
			<path id="Fill-61" class="st15" d="M689.4,104.3l-95.3,55c-7,4-17.6,4.5-23.6,1L404.8,65.9c-1.4-0.8-2.3-1.7-3-2.7
				c-2.1,3.3-1.1,7,3,9.4L570.5,167c6.1,3.5,16.6,3.1,23.6-1l95.3-55c5.4-3.1,7.1-7.5,4.7-11C693.2,101.6,691.6,103,689.4,104.3"/>
			<path id="Fill-63" class="st18" d="M575.2,128.7L464.9,64.8c-2.8-1.6-2.5-4.5,0.8-6.4l44.6-25.8c3.3-1.9,8.2-2.1,11.1-0.5
				l110.3,63.9c2.8,1.6,2.5,4.5-0.8,6.4l-44.6,25.8C583,130.2,578,130.4,575.2,128.7"/>
			<path id="Fill-65" class="st0" d="M515.6,67.7l-6.4-3.7c-0.4-0.2-0.3-0.6,0.1-0.9l6.2-3.6c0.5-0.3,1.1-0.3,1.5-0.1l6.4,3.7
				c0.4,0.2,0.3,0.6-0.1,0.9l-6.2,3.6C516.7,67.9,516,67.9,515.6,67.7"/>
			<path id="Fill-67" class="st0" d="M537,79.9l-6.4-3.7c-0.4-0.2-0.3-0.6,0.1-0.9l6.2-3.6c0.5-0.3,1.1-0.3,1.5-0.1l6.4,3.7
				c0.4,0.2,0.3,0.6-0.1,0.9l-6.2,3.6C538.1,80.1,537.4,80.2,537,79.9"/>
			<path id="Fill-69" class="st0" d="M558.3,92.2l-6.4-3.7c-0.4-0.2-0.3-0.6,0.1-0.9l6.2-3.6c0.5-0.3,1.1-0.3,1.5-0.1l6.4,3.7
				c0.4,0.2,0.3,0.6-0.1,0.9l-6.2,3.6C559.4,92.4,558.7,92.4,558.3,92.2"/>
			<path id="Fill-71" class="st0" d="M579.7,104.5l-6.4-3.7c-0.4-0.2-0.3-0.6,0.1-0.9l6.2-3.6c0.5-0.3,1.1-0.3,1.5-0.1l6.4,3.7
				c0.4,0.2,0.3,0.6-0.1,0.9l-6.2,3.6C580.8,104.7,580.1,104.7,579.7,104.5"/>
			<path id="Fill-73" class="st13" d="M464.9,64.8l0.1,0.1c0.2-0.2,0.4-0.3,0.7-0.5l44.6-25.8c3.3-1.9,8.2-2.1,11.1-0.5l110.2,63.9
				c2.6-1.9,2.8-4.4,0.1-5.9L521.3,32.2c-2.8-1.6-7.8-1.4-11.1,0.5l-44.6,25.8C462.4,60.3,462,63.2,464.9,64.8"/>
			<path id="Fill-75" class="st13" d="M552.2,238.4l-122.4-70.7c-3.5-2-6.4-7.5-6.4-12.2v-22.4c0-4.7,2.9-6.9,6.4-4.8L552.2,199
				c3.5,2,6.4,7.5,6.4,12.2v22.4C558.6,238.3,555.7,240.5,552.2,238.4"/>
			<path id="Fill-77" class="st18" d="M542.9,218.6l-5.8-3.3c-0.8-0.4-1.4-1.6-1.4-2.7v-6.1c0-1,0.6-1.5,1.4-1.1l5.8,3.3
				c0.8,0.4,1.4,1.6,1.4,2.7v6.1C544.3,218.6,543.7,219.1,542.9,218.6"/>
			<path id="Fill-79" class="st18" d="M523.7,207.5l-5.8-3.3c-0.8-0.4-1.4-1.6-1.4-2.7v-6.1c0-1,0.6-1.5,1.4-1.1l5.8,3.3
				c0.8,0.4,1.4,1.6,1.4,2.7v6.1C525.1,207.5,524.5,208,523.7,207.5"/>
			<path id="Fill-81" class="st13" d="M552.2,319.5l-122.4-70.7c-3.5-2-6.4-7.5-6.4-12.2v-22.4c0-4.7,2.9-6.9,6.4-4.8L552.2,280
				c3.5,2,6.4,7.5,6.4,12.2v22.4C558.6,319.3,555.7,321.5,552.2,319.5"/>
			<path id="Fill-83" class="st18" d="M542.9,299.6l-5.8-3.3c-0.8-0.4-1.4-1.6-1.4-2.7v-6.1c0-1,0.6-1.5,1.4-1.1l5.8,3.3
				c0.8,0.4,1.4,1.6,1.4,2.7v6.1C544.3,299.6,543.7,300.1,542.9,299.6"/>
			<path id="Fill-85" class="st0" d="M523.7,288.5l-5.8-3.3c-0.8-0.4-1.4-1.6-1.4-2.7v-6.1c0-1,0.6-1.5,1.4-1.1l5.8,3.3
				c0.8,0.4,1.4,1.6,1.4,2.7v6.1C525.1,288.5,524.5,289,523.7,288.5"/>
			<path id="Fill-87" class="st13" d="M552.2,400.5l-122.4-70.7c-3.5-2-6.4-7.5-6.4-12.2v-22.4c0-4.7,2.9-6.9,6.4-4.8L552.2,361
				c3.5,2,6.4,7.5,6.4,12.2v22.4C558.6,400.4,555.7,402.5,552.2,400.5"/>
			<path id="Fill-89" class="st0" d="M542.9,380.7l-5.8-3.3c-0.8-0.4-1.4-1.6-1.4-2.7v-6.1c0-1,0.6-1.5,1.4-1.1l5.8,3.3
				c0.8,0.4,1.4,1.6,1.4,2.7v6.1C544.3,380.6,543.7,381.1,542.9,380.7"/>
			<path id="Fill-91" class="st18" d="M523.7,369.6l-5.8-3.3c-0.8-0.4-1.4-1.6-1.4-2.7v-6.1c0-1,0.6-1.5,1.4-1.1l5.8,3.3
				c0.8,0.4,1.4,1.6,1.4,2.7v6.1C525.1,369.5,524.5,370,523.7,369.6"/>
			<path id="Fill-93" class="st13" d="M552.2,481.5l-122.4-70.7c-3.5-2-6.4-7.5-6.4-12.2v-22.4c0-4.7,2.9-6.9,6.4-4.8L552.2,442
				c3.5,2,6.4,7.5,6.4,12.2v22.4C558.6,481.4,555.7,483.5,552.2,481.5"/>
			<path id="Fill-95" class="st0" d="M542.9,461.7l-5.8-3.3c-0.8-0.4-1.4-1.6-1.4-2.7v-6.1c0-1,0.6-1.5,1.4-1.1l5.8,3.3
				c0.8,0.4,1.4,1.6,1.4,2.7v6.1C544.3,461.7,543.7,462.1,542.9,461.7"/>
			<path id="Fill-97" class="st0" d="M523.7,450.6l-5.8-3.3c-0.8-0.4-1.4-1.6-1.4-2.7v-6.1c0-1,0.6-1.5,1.4-1.1l5.8,3.3
				c0.8,0.4,1.4,1.6,1.4,2.7v6.1C525.1,450.5,524.5,451,523.7,450.6"/>
			<path id="Fill-99" class="st18" d="M612.7,238.4l62.7-35.9c3.5-2,6.4-7.5,6.4-12.2v-22.4c0-4.7-2.9-6.9-6.4-4.8L612.7,199
				c-3.5,2-6.4,7.5-6.4,12.2v22.4C606.3,238.3,609.2,240.5,612.7,238.4"/>
			<path id="Fill-101" class="st18" d="M612.7,319.5l62.7-35.9c3.5-2,6.4-7.5,6.4-12.2v-22.4c0-4.7-2.9-6.9-6.4-4.8L612.7,280
				c-3.5,2-6.4,7.5-6.4,12.2v22.4C606.3,319.3,609.2,321.5,612.7,319.5"/>
			<path id="Fill-103" class="st18" d="M612.7,400.5l62.7-35.9c3.5-2,6.4-7.5,6.4-12.2v-22.4c0-4.7-2.9-6.9-6.4-4.8L612.7,361
				c-3.5,2-6.4,7.5-6.4,12.2v22.4C606.3,400.4,609.2,402.5,612.7,400.5"/>
			<path id="Fill-105" class="st18" d="M612.7,481.5l62.7-35.9c3.5-2,6.4-7.5,6.4-12.2V411c0-4.7-2.9-6.9-6.4-4.8L612.7,442
				c-3.5,2-6.4,7.5-6.4,12.2v22.4C606.3,481.4,609.2,483.5,612.7,481.5"/>
			<path id="Fill-107" class="st0" d="M214.8,541.9l-49.4-28.5c-3-1.8-2.7-4.8,0.8-6.8l47.7-27.5c3.5-2,8.8-2.2,11.8-0.5l49.4,28.5
				c3,1.8,2.7,4.8-0.8,6.8l-47.7,27.5C223.1,543.4,217.8,543.6,214.8,541.9"/>
			<path id="Fill-109" class="st19" d="M291.5,485.3L291.5,485.3V464l-47.8,0l-16.5-9.5c-3.8-2.2-10.4-1.9-14.8,0.6l-15.4,8.9
				l-47.9,0v21.9c-0.1,1.5,0.7,2.9,2.5,4l61.8,35.7c3.8,2.2,10.4,1.9,14.8-0.6l59.7-34.5C290.4,489,291.7,487.1,291.5,485.3"/>
			<path id="Fill-111" class="st19" d="M220.3,452.9c-2.8,0.1-5.7,0.8-7.9,2.1l-15.4,8.9l-47.9,0v21.9c-0.1,1.5,0.7,2.9,2.5,4
				l61.8,35.7c1.8,1.1,4.3,1.5,6.9,1.5V452.9z"/>
			<path id="Fill-113" class="st20" d="M154.4,463.9l-5.4,0v21.9c-0.1,1.5,0.7,2.9,2.5,4l2.9,1.7V463.9z"/>
			<path id="Fill-115" class="st21" d="M214.3,526c3.3,1.4,8,1.3,11.8-0.1v-24.9h-11.8V526z"/>
			<path id="Fill-117" class="st20" d="M213.4,503.6l-61.8-35.7c-3.8-2.2-3.3-6,1.1-8.5l59.7-34.5c4.4-2.5,11-2.8,14.8-0.6L289,460
				c3.8,2.2,3.3,6-1.1,8.5L228.2,503C223.8,505.6,217.2,505.8,213.4,503.6"/>
			<path id="Fill-119" class="st19" d="M214.5,497.2l-51.8-29.9c-3.2-1.8-2.8-5,0.9-7.2l50-28.9c3.7-2.1,9.2-2.4,12.4-0.5l51.8,29.9
				c3.2,1.8,2.8,5-0.9,7.2l-50,28.9C223.2,498.8,217.7,499,214.5,497.2"/>
			<path id="Fill-121" class="st20" d="M268.8,490.9c0,1.6-1.1,3.5-2.5,4.3c-1.4,0.8-2.5,0.2-2.5-1.4c0-1.6,1.1-3.5,2.5-4.3
				C267.7,488.7,268.8,489.3,268.8,490.9"/>
			<path id="Fill-123" class="st20" d="M276.8,486.3c0,1.6-1.1,3.5-2.5,4.3c-1.4,0.8-2.5,0.2-2.5-1.4s1.1-3.5,2.5-4.3
				C275.7,484.1,276.8,484.7,276.8,486.3"/>
			<path id="Fill-125" class="st20" d="M284.8,481.7c0,1.6-1.1,3.5-2.5,4.3c-1.4,0.8-2.5,0.2-2.5-1.4c0-1.6,1.1-3.5,2.5-4.3
				C283.7,479.4,284.8,480.1,284.8,481.7"/>
			<path id="Fill-127" class="st19" d="M291.5,450.7L291.5,450.7v-21.3l-47.8,0l-16.5-9.5c-3.8-2.2-10.4-1.9-14.8,0.6l-15.4,8.9
				l-47.9,0v21.9c-0.1,1.5,0.7,2.9,2.5,4l61.8,35.7c3.8,2.2,10.4,1.9,14.8-0.6l59.7-34.5C290.4,454.4,291.7,452.5,291.5,450.7"/>
			<path id="Fill-129" class="st19" d="M220.3,418.3c-2.8,0.1-5.7,0.8-7.9,2.1l-15.4,8.9l-47.9,0v21.9c-0.1,1.5,0.7,2.9,2.5,4
				l61.8,35.7c1.8,1.1,4.3,1.5,6.9,1.5V418.3z"/>
			<path id="Fill-131" class="st20" d="M154.4,429.3l-5.4,0v21.9c-0.1,1.5,0.7,2.9,2.5,4l2.9,1.7V429.3z"/>
			<path id="Fill-133" class="st21" d="M214.3,491.4c3.3,1.4,8,1.3,11.8-0.1v-24.9h-11.8V491.4z"/>
			<path id="Fill-135" class="st20" d="M213.4,469l-61.8-35.7c-3.8-2.2-3.3-6,1.1-8.5l59.7-34.5c4.4-2.5,11-2.8,14.8-0.6l61.8,35.7
				c3.8,2.2,3.3,6-1.1,8.5l-59.7,34.5C223.8,471,217.2,471.2,213.4,469"/>
			<path id="Fill-137" class="st21" d="M214.5,462.6l-51.8-29.9c-3.2-1.8-2.8-5,0.9-7.2l50-28.9c3.7-2.1,9.2-2.4,12.4-0.5l51.8,29.9
				c3.2,1.8,2.8,5-0.9,7.2l-50,28.9C223.2,464.2,217.7,464.4,214.5,462.6"/>
			<path id="Fill-139" class="st20" d="M268.8,456.3c0,1.6-1.1,3.5-2.5,4.3c-1.4,0.8-2.5,0.2-2.5-1.4c0-1.6,1.1-3.5,2.5-4.3
				C267.7,454.1,268.8,454.7,268.8,456.3"/>
			<path id="Fill-141" class="st20" d="M276.8,451.7c0,1.6-1.1,3.5-2.5,4.3c-1.4,0.8-2.5,0.2-2.5-1.4s1.1-3.5,2.5-4.3
				C275.7,449.5,276.8,450.1,276.8,451.7"/>
			<path id="Fill-143" class="st20" d="M284.8,447.1c0,1.6-1.1,3.5-2.5,4.3c-1.4,0.8-2.5,0.2-2.5-1.4c0-1.6,1.1-3.5,2.5-4.3
				C283.7,444.8,284.8,445.5,284.8,447.1"/>
			<path id="Fill-145" class="st19" d="M291.5,416.1L291.5,416.1v-21.3l-47.8,0l-16.5-9.5c-3.8-2.2-10.4-1.9-14.8,0.6l-15.4,8.9
				l-47.9,0v21.9c-0.1,1.5,0.7,2.9,2.5,4l61.8,35.7c3.8,2.2,10.4,1.9,14.8-0.6l59.7-34.5C290.4,419.8,291.7,417.9,291.5,416.1"/>
			<path id="Fill-147" class="st19" d="M220.3,383.7c-2.8,0.1-5.7,0.8-7.9,2.1l-15.4,8.9l-47.9,0v21.9c-0.1,1.5,0.7,2.9,2.5,4
				l61.8,35.7c1.8,1.1,4.3,1.5,6.9,1.5V383.7z"/>
			<path id="Fill-149" class="st20" d="M154.4,394.7l-5.4,0v21.9c-0.1,1.5,0.7,2.9,2.5,4l2.9,1.7V394.7z"/>
			<path id="Fill-151" class="st21" d="M214.3,456.8c3.3,1.4,8,1.3,11.8-0.1v-24.9h-11.8V456.8z"/>
			<path id="Fill-153" class="st22" d="M213.4,434.4l-61.8-35.7c-3.8-2.2-3.3-6,1.1-8.5l59.7-34.5c4.4-2.5,11-2.8,14.8-0.6
				l61.8,35.7c3.8,2.2,3.3,6-1.1,8.5l-59.7,34.5C223.8,436.4,217.2,436.6,213.4,434.4"/>
			<path id="Fill-155" class="st20" d="M287.9,395.1l-59.7,34.5c-4.4,2.5-11,2.8-14.8,0.6l-61.8-35.7c-0.8-0.5-1.5-1.1-1.9-1.7
				c-1.3,2.1-0.7,4.4,1.9,5.9l61.8,35.7c3.8,2.2,10.4,1.9,14.8-0.6l59.7-34.5c3.4-2,4.4-4.7,3-6.9
				C290.3,393.4,289.3,394.4,287.9,395.1"/>
			<path id="Fill-157" class="st20" d="M268.8,421.7c0,1.6-1.1,3.5-2.5,4.3c-1.4,0.8-2.5,0.2-2.5-1.4c0-1.6,1.1-3.5,2.5-4.3
				C267.7,419.5,268.8,420.1,268.8,421.7"/>
			<path id="Fill-159" class="st20" d="M276.8,417.1c0,1.6-1.1,3.5-2.5,4.3c-1.4,0.8-2.5,0.2-2.5-1.4s1.1-3.5,2.5-4.3
				C275.7,414.9,276.8,415.5,276.8,417.1"/>
			<path id="Fill-161" class="st20" d="M284.8,412.5c0,1.6-1.1,3.5-2.5,4.3c-1.4,0.8-2.5,0.2-2.5-1.4c0-1.6,1.1-3.5,2.5-4.3
				C283.7,410.2,284.8,410.9,284.8,412.5"/>
			<path id="Fill-163" class="st19" d="M217.1,413.2l-28.9-16.7c-1.8-1-1.6-2.8,0.5-4l27.9-16.1c2-1.2,5.2-1.3,6.9-0.3l28.9,16.7
				c1.8,1,1.6,2.8-0.5,4L224,413C221.9,414.1,218.8,414.3,217.1,413.2"/>
			<path id="Fill-165" class="st22" d="M219.8,399.3l-4-2.3c-0.2-0.1-0.2-0.4,0.1-0.6l3.9-2.2c0.3-0.2,0.7-0.2,1,0l4,2.3
				c0.2,0.1,0.2,0.4-0.1,0.6l-3.9,2.2C220.5,399.4,220.1,399.4,219.8,399.3"/>
			<path id="Fill-167" class="st20" d="M237.6,417.6l-4-2.3c-0.2-0.1-0.2-0.4,0.1-0.6l3.9-2.2c0.3-0.2,0.7-0.2,1,0l4,2.3
				c0.2,0.1,0.2,0.4-0.1,0.6l-3.9,2.2C238.2,417.7,237.8,417.7,237.6,417.6"/>
			<path id="Fill-169" class="st20" d="M246.3,412.5l-4-2.3c-0.2-0.1-0.2-0.4,0.1-0.6l3.9-2.2c0.3-0.2,0.7-0.2,1,0l4,2.3
				c0.2,0.1,0.2,0.4-0.1,0.6l-3.9,2.2C247,412.6,246.6,412.6,246.3,412.5"/>
			<path id="Fill-171" class="st21" d="M255.1,407.4l-4-2.3c-0.2-0.1-0.2-0.4,0.1-0.6l3.9-2.2c0.3-0.2,0.7-0.2,1,0l4,2.3
				c0.2,0.1,0.2,0.4-0.1,0.6l-3.9,2.2C255.7,407.5,255.3,407.5,255.1,407.4"/>
			<path id="Fill-173" class="st21" d="M188.1,396.5L188.1,396.5c0.2,0,0.3-0.1,0.5-0.2l27.9-16.1c2.1-1.2,5.2-1.3,6.9-0.3
				l28.9,16.7c1.6-1.2,1.7-2.8,0.1-3.7l-28.9-16.7c-1.8-1-4.9-0.9-6.9,0.3l-27.9,16.1C186.6,393.7,186.3,395.5,188.1,396.5"/>
			<path id="Fill-175" class="st23" d="M194.9,473.5l-25-14.5c-1.5-0.9-2.8-3.3-2.8-5.3c0-2.1,1.3-3,2.8-2.1l25,14.5
				c1.5,0.9,2.8,3.3,2.8,5.3S196.5,474.4,194.9,473.5"/>
			<path id="Fill-177" class="st21" d="M197.2,472.2l-25-14.5c-1.5-0.9-2.8-3.3-2.8-5.3c0-0.3,0-0.6,0.1-0.9
				c-1.3-0.5-2.4,0.5-2.4,2.3c0,2.1,1.3,4.4,2.8,5.3l25,14.5c1.3,0.7,2.4,0.2,2.7-1.2C197.5,472.3,197.3,472.3,197.2,472.2"/>
			<path id="Fill-179" class="st6" d="M758.9,520.2c4.4,1.9,7.1,6.8,6.8,12c-0.2,2.5-0.5,4.8-1,5.9c-1.4,2.9-6,7-13.3,4.1
				c-7.3-2.9-23.5-18.1-24.1-28.1C726.2,495.6,747.4,515.3,758.9,520.2"/>
			<path id="Fill-181" class="st6" d="M716,550.9c0,0,1.8,10.7,0.9,12.6c-0.9,2-5.9,6.1-13.4,5.2c-7.5-0.9-29.1-8.3-33.9-22.6
				c-7.5-22.1,41.7,1.7,41.7,1.7L716,550.9z"/>
			<path id="Fill-183" class="st7" d="M694.9,380.1l-1.7,166.7c0.2,5.8,4,10.7,9.1,11.6c0.6,0.1,1.3,0.2,2,0.3
				c5.2,0.5,8.2-1.8,9.9-4.1c1.4-1.9,2.1-4.3,2.2-6.7l2.1-71.2l10.6-63.6L744,525.7c0.2,3,1.7,5.9,4,7.4c1.6,1.1,3.8,1.9,6.7,1.8
				c4.2-0.1,7.1-2.4,8.9-4.4c1.4-1.6,2.2-3.8,2.1-6l-5.8-67.8l-2.2-86.4L694.9,380.1z"/>
			<path id="Fill-185" class="st8" d="M764.6,325.3c-0.3,0-0.6,0-0.9-0.1l-26.6-4.1c-3.3-0.5-5.5-3.6-5-6.8c0.5-3.3,3.6-5.5,6.8-5
				l18.4,2.8l-6.3-35.9c-0.6-3.3,1.6-6.4,4.9-6.9c3.3-0.6,6.4,1.6,6.9,4.9l7.7,44.2c0.3,1.9-0.3,3.8-1.6,5.2
				C767.7,324.7,766.2,325.3,764.6,325.3"/>
			<path id="Fill-187" class="st10" d="M740.3,240.1c0,0,8.9-0.5,20.4,23.1c11.5,23.6-4.2,31.1-4.2,31.1L740.3,240.1z"/>
			<path id="Fill-189" class="st10" d="M715.8,246.3c0.4-0.2,24.6-15.7,33.5,0.6c14.6,26.5,13.7,112,9.1,123
				c-4.3,10.2-14.9,17.8-22.3,22c-6.6,3.8-14,6.1-21.7,6.2c-7.5,0.1-22-6.7-21.5-16.5c2.4-45.4-1.6-83.6-5.3-120.8
				C687.6,260.9,692.3,255.9,715.8,246.3"/>
			<path id="Fill-191" class="st8" d="M677.7,339c0.7,0,1.4-0.2,2-0.5c1.8-0.9,3-2.7,3.3-4.8l11.5-33.5c0.5-3.5-5.5-16.9-8.6-17.5
				c-3.1-0.6-10.9,5.5-11.4,9l-2.8,29.9l-28.3-13.9c-2.9-1.5-5.4-4.7-7.1-1.8c-1.7,2.9-1,6.9,1.5,8.8l36.5,23.2
				C675.3,338.7,676.5,339.1,677.7,339"/>
			<path id="Fill-193" class="st8" d="M641.2,306.6l-1.8-4.4c-0.6-1.6-1.6-3-2.9-4.1l-7.5-6.9c-0.6-0.6-1.6-0.5-2.1,0.2
				c-0.4,0.6-0.4,1.3,0.1,1.9l3.1,3.4c0.5,0.6,0.7,1.3,0.4,2.1l-1.2,3.3c-0.4,1.1-0.2,2.4,0.6,3.3l7.5,9.1L641.2,306.6z"/>
			<path id="Fill-195" class="st10" d="M687.6,260.9c0,0-16.1,12.4-18.6,50.3c0,0-0.3,4.2,9,6.7c9.3,2.5,15.7-4.7,15.7-4.7
				S704.5,288,687.6,260.9"/>
			<path id="Fill-197" class="st8" d="M718,231.7l2.6,15.2c0,0,0.1,5.2-5.7,6.6c-5.8,1.4-7.6-2.3-7.6-2.3l-2.6-17.1L718,231.7z"/>
			<path id="Fill-199" class="st8" d="M686.8,232.3c6.3,12.1,20.1,17.4,30.9,11.8c10.8-5.6,14.4-20,8.2-32.1
				c-6.3-12.1-20.1-17.4-30.9-11.8C684.2,205.8,680.5,220.2,686.8,232.3"/>
			<path id="Fill-201" class="st4" d="M702.4,230c-0.9,0.1-1.8-0.1-2.5-0.8c-1.1-1.2-1.6-7.3-4.5-7.8c-4.6-0.8-14,6.4-17.8-9.1
				c-2-8.1,1.6-10.9,0.8-15.4c0,0,0,2.3,20.8-2.7c20.8-5,30.8,12.5,32.8,21.3c2,8.8,0.2,24.1-13.8,28.6c-2.3,0.7-13.7-5.6-13.6-6.7
				c0.1-1.1,3.9-1.7,2.8-4.7C706.5,230.3,704.8,229.6,702.4,230"/>
			<path id="Fill-203" class="st12" d="M729.3,413L744,525.7c0.2,3,1.7,5.9,4,7.4c0.4,0.3,0.8,0.5,1.3,0.7
				c-3.1-2.3-12-96.8-13.6-107.4C734,415.9,729.3,413,729.3,413"/>
			<path id="Fill-205" class="st0" d="M463.1,585.7c-23.7,13.7-62.1,13.7-85.8,0c-23.7-13.7-23.7-35.8,0-49.5
				c23.7-13.7,62.1-13.7,85.8,0C486.8,549.9,486.8,572,463.1,585.7"/>
			<path id="Fill-207" class="st10" d="M444.9,542.2c-1.5-0.9-3.2-1.6-4.9-2.3l0,0l-9.3-4.1l0.7,1.6c-7.1-1.4-14.8-1.5-21.9-0.2
				l0.4-1.8l-11,4.9l0.1,0c-1.4,0.6-2.8,1.3-4.1,2c-13.8,8-13.8,20.9,0,28.9c13.8,8,36.2,8,50,0
				C458.7,563.1,458.7,550.2,444.9,542.2"/>
			<path id="Fill-209" class="st9" d="M431.6,549.7c-6.5,3.7-17,3.7-23.4,0c-6.5-3.7-6.5-9.8,0-13.5c6.5-3.7,17-3.7,23.4,0
				C438,540,438.1,546,431.6,549.7"/>
			<path id="Fill-211" class="st9" d="M419.9,545.6L419.9,545.6c-3.1,0-5.6-2.5-5.6-5.6v-71.2h11.3v71.2
				C425.5,543,423,545.6,419.9,545.6"/>
			<path id="Fill-213" class="st10" d="M423.8,471.3c-2.2,1.3-5.9,1.3-8.1,0c-2.2-1.3-2.2-3.4,0-4.7c2.2-1.3,5.9-1.3,8.1,0
				C426.1,467.9,426.1,470,423.8,471.3"/>
			<path id="Fill-215" class="st9" d="M419.9,471.2L419.9,471.2c-2.5,0-4.6-2-4.6-4.6v-66.9h9.1v66.9
				C424.4,469.1,422.4,471.2,419.9,471.2"/>
			<path id="Fill-217" class="st24" d="M485.5,434.8v-2.6l3.7-0.5l4.1-3.1c0.7-0.5,2-0.6,2.7-0.1l3.1,1.8l3-0.4v2.7l0,0
				c0,0.3-0.2,0.6-0.7,0.8l-9.7,4.3c-0.8,0.3-1.8,0.3-2.5-0.1l-3.2-1.9C485.7,435.3,485.5,435.1,485.5,434.8L485.5,434.8z"/>
			<path id="Fill-219" class="st25" d="M485.9,431.5l7.4-5.6c0.7-0.5,2-0.6,2.7-0.1l5.6,3.2c0.8,0.4,0.7,1.2-0.2,1.6l-9.7,4.3
				c-0.8,0.3-1.8,0.3-2.5-0.1l-3.2-1.9C485.4,432.5,485.3,431.9,485.9,431.5"/>
			<path id="Fill-221" class="st10" d="M473.3,444.1c1.1,0,2.1-0.2,3-0.7l11.6-6.7c0.6-0.4,0.9-1.2,0.5-1.8
				c-0.4-0.6-1.2-0.9-1.8-0.5L475,441c-0.9,0.5-2.4,0.5-3.3,0l-19.2-11.1c-0.6-0.4-1.5-0.2-1.8,0.5c-0.4,0.6-0.2,1.5,0.5,1.8
				l19.2,11.1C471.2,443.8,472.3,444.1,473.3,444.1"/>
		</g>
		<g id="Group-226" transform="translate(211.860008, 404.263436)">
			<g id="Clip-225">
			</g>
			<defs>
				<filter id="Adobe_OpacityMaskFilter_2_" filterUnits="userSpaceOnUse">
					<feColorMatrix  type="matrix" values="1 0 0 0 0  0 1 0 0 0  0 0 1 0 0  0 0 0 1 0"/>
				</filter>
			</defs>
			<mask maskUnits="userSpaceOnUse" id="mask-6_1_">
				<g class="st26">
					<polygon id="path-5_1_" class="st2" points="149.5,6.5 150.2,15.7 168.8,4.9 158.4,0.2 					"/>
				</g>
			</mask>
			<polygon id="Fill-224" class="st27" points="149.5,6.5 150.2,15.7 168.8,4.9 158.4,0.2 			"/>
		</g>
		<g id="Group-305" transform="translate(196.020008, 198.343428)">
			<path id="Fill-227" class="st24" d="M285.4,205.6c-1-0.5-2.1-1.2-3.1-1.9l-39.6-29c-7.1-5.2-14.5-6.6-20.2-3.7
				c-0.2,0.1-0.3,0.2-0.4,0.3l0,0l-54.7,31.7l4.9,1.6l19.1,8.7l26.1,18.5l20.6,10.9l0.9,0.2c4.8-4,10.2-7.5,13.1-13.4
				c5.1-8.9,19.3-11.5,27.6-18.7c0.8,0.5,1.7,1,2.5,1.5C283.9,210.5,284.3,208.1,285.4,205.6"/>
			<path id="Fill-229" class="st10" d="M302.7,192.5c-0.8,0-1.6,0.3-2.2,0.8l0,0l-53.5,31l2,8l2-1c-3.1,4.8-7.8,7.9-12,11.5l6,1.3
				l52.4-30.5c0.2-0.1,0.5-0.2,0.7-0.3c0.7-0.4,1.4-0.8,2-1.3l0.1-0.1l0,0c4-3.1,6.2-8.4,6.2-15.1v-0.6
				C306.4,194.1,304.8,192.5,302.7,192.5"/>
			<path id="Fill-231" class="st28" d="M229.5,169.4c3.3,0.1,6.9,1.3,10.5,3.4C236.4,170.7,232.8,169.6,229.5,169.4"/>
			<path id="Fill-233" class="st10" d="M253.8,226.7v-0.6c0-2-1.6-3.7-3.7-3.7c-2,0-3.7,1.6-3.7,3.7v0.6c0,4.9-1.6,8.5-4.3,9.9
				c-3.1,1.6-7.8,0.4-12.5-3.1l-39.6-29c-6.1-4.5-12.3-6.1-17.6-4.7l32.7-19l-37.9,22l4.9,1.6l19.1,8.7l26.1,18.5l20.6,10.9l0.9,0.2
				c4.8-4,10.2-7.5,13.1-13.4c0.5-0.9,1.1-1.7,1.8-2.5C253.8,226.9,253.8,226.8,253.8,226.7"/>
			<path id="Fill-235" class="st10" d="M238,245.9c-4.3,0-9.1-1.8-13.8-5.2l-39.6-29c-4.8-3.5-9.4-4.6-12.5-3.1
				c-2.7,1.4-4.3,5-4.3,9.9c0,2-1.6,3.7-3.7,3.7c-2,0-3.7-1.6-3.7-3.7c0-7.8,3-13.8,8.3-16.5c5.7-2.9,13.1-1.5,20.2,3.7l39.6,29
				c4.8,3.5,9.4,4.6,12.5,3.1c2.7-1.4,4.3-5,4.3-9.9v-0.6c0-2,1.6-3.7,3.7-3.7s3.7,1.6,3.7,3.7v0.6c0,7.8-3,13.8-8.3,16.5
				C242.4,245.4,240.3,245.9,238,245.9"/>
			<path id="Fill-237" class="st6" d="M206.9,310.7c0,0-7.5-3.8-12,1.8c-4.6,5.6-11.1,18.8-11.3,27.7c-0.2,8.9,7.1,8.3,11.4,6.2
				c4.3-2.1,16.9-20.4,17.7-24c0.8-3.6-0.9-8.4-2.1-9.4C209.3,312.2,206.9,310.7,206.9,310.7"/>
			<path id="Fill-239" class="st29" d="M208.5,308.9l0.3,7.7c0.1,1.6-0.8,3.2-2.2,4c-1.3,0.7-3.2,1.3-5.8,0.9
				c-5.6-0.9-6.1-2.5-6.5-10.2C194,303.6,208.5,308.9,208.5,308.9"/>
			<path id="Fill-241" class="st6" d="M179.6,295.9c0,0-7.5-3.8-12,1.8c-4.6,5.6-11.1,18.8-11.3,27.7c-0.2,8.9,7.1,8.3,11.4,6.2
				c4.3-2.1,16.9-20.4,17.7-24c0.8-3.6-0.9-8.4-2.1-9.4C182,297.3,179.6,295.9,179.6,295.9"/>
			<path id="Fill-243" class="st29" d="M181.2,294.1l0.3,7.7c0.1,1.6-0.8,3.2-2.2,4c-1.3,0.7-3.2,1.3-5.7,0.9
				c-5.6-0.9-6.1-2.5-6.5-10.2C166.7,288.8,181.2,294.1,181.2,294.1"/>
			<path id="Fill-245" class="st7" d="M247.7,152.3c-2.2-35.9-38.9,5.3-38.9,5.3l-25.1,24.6L161.1,207c-4.4,4.9-6.5,11.4-5.6,17.9
				l9.1,69.6c0.4,3.4,3.4,6,6.9,5.9c1,0,2.1-0.1,3.4-0.3c8.2-1.3,7.6-9,7.6-9l-1.7-65.1l47.5-28.6
				C228.3,197.4,249.9,188.2,247.7,152.3"/>
			<path id="Fill-247" class="st7" d="M275,165.9c-2.2-35.9-38.9,5.3-38.9,5.3L211,195.8l-22.6,24.8c-4.4,4.9-6.5,11.4-5.6,17.9
				l9.1,69.6c0.5,3.4,3.4,6,6.9,5.9c1,0,2.1-0.1,3.4-0.3c8.2-1.3,7.6-9,7.6-9l-1.7-65.1l47.5-28.6
				C255.6,211.1,277.2,201.9,275,165.9"/>
			<path id="Fill-249" class="st22" d="M253.3,50.7c27.8,11.5,27.3,28,27.3,28s-5.4,60.3-3.6,100.5c0.8,16.8-89.4,18.1-76-26.8
				c15.9-52.9,9.9-95.8,17.3-102.2C225.8,43.7,246.1,47.7,253.3,50.7"/>
			<path id="Fill-251" class="st8" d="M262.3,65.2c-1.5,5.6-8.9,8.6-16.5,6.6c-7.7-2-12.7-8.2-11.3-13.8c1.5-5.6,8.9-8.6,16.5-6.6
				C258.7,53.4,263.7,59.6,262.3,65.2"/>
			<path id="Fill-253" class="st2" d="M246.2,52.2c-5.2,0-9.5,2.4-10.5,6.3c-1.3,4.9,3.4,10.4,10.3,12.2c3.4,0.9,6.9,0.7,9.8-0.4
				c2.7-1.1,4.5-3,5.1-5.3c1.3-4.9-3.4-10.4-10.3-12.2C249.2,52.3,247.7,52.2,246.2,52.2 M250.5,73.8c-1.7,0-3.4-0.2-5.1-0.7
				c-8.4-2.2-13.8-9.1-12.2-15.4c1.6-6.3,9.8-9.8,18.1-7.6c8.4,2.2,13.8,9.1,12.2,15.4c-0.8,3.2-3.2,5.7-6.7,7.1
				C254.9,73.4,252.7,73.8,250.5,73.8"/>
			<path id="Fill-255" class="st8" d="M242.2,49.4c0,0,0.2,1.1-0.2,9.9c-0.2,2.8,9.5,5.4,12.1,2.8c2.5-2.5,1.5-5.1,2.1-14.5
				C256.7,38.2,242.2,49.4,242.2,49.4"/>
			<path id="Fill-257" class="st11" d="M256.1,47.7c0,0-2.4,8.7-14.2,12.1l0.2-7.9L256.1,47.7z"/>
			<path id="Fill-259" class="st8" d="M263.5,25.4c3,11.4-3.9,23.1-15.4,26.1c-11.4,3-23.1-3.9-26.1-15.4
				c-3-11.4,3.9-23.1,15.4-26.1C248.9,7.1,260.6,14,263.5,25.4"/>
			<path id="Fill-261" class="st11" d="M247.7,31.6c0,0-11.8,5-19.9,5.1c-8.2,0.1-6.4-6.8-6.4-6.8l24.2-3.5L247.7,31.6z"/>
			<path id="Fill-263" class="st4" d="M225.4,32.9c0,0,10.3-4.4,19.3-2.5c2.1,0.4,4.1,1.6,5.4,3.2c0.4,0.5,1,1,1.6,1.2
				c1.6,0.4,4.2-6.3,7.3-6.4c3.1-0.2,5.2,2,2.6,6.1c-2.5,4.1-1.7,8.6-0.5,9.3c1.2,0.7,13.6-8.9,2.6-30.6c-11-21.7-38.8-10-43.1-5.6
				c0,0-4.6,4-8.3,0.4C212.4,8,208.2,39.2,225.4,32.9"/>
			<path id="Fill-265" class="st8" d="M265,122.7V139c0,1.9-0.8,3.6-2.2,4.9l-33.5,30.5l3.8,5.8l44.2-29.6c2.1-1.5,3.4-3.8,3.7-6.3
				l3-30.8L265,122.7z"/>
			<path id="Fill-267" class="st22" d="M278.2,70.5c0,0,10.1,15.3,13.9,55.4c0,0-17.3,5.6-27.2,2.4
				C255.1,125.2,278.2,70.5,278.2,70.5"/>
			<path id="Fill-269" class="st19" d="M263.1,89.8c0,0-4,21.3-4.2,31.3c-0.1,2.7,1.6,5.2,4.2,6.2V89.8z"/>
			<path id="Fill-271" class="st18" d="M254.4,195.5l-7.4-1L199.3,167c-1.5-0.9-4.2-0.8-6,0.2l-33.8,19.5l-4.5-0.6v4.5h0
				c0,0.6,0.3,1.2,1,1.6l54.1,31.2c1.5,0.9,4.2,0.8,6-0.2l36.8-21.3c1-0.6,1.5-1.3,1.5-2V195.5z"/>
			<path id="Fill-273" class="st13" d="M218.6,178.1l-3.4-2h-37.3l-18.4,10.6l-4.5-0.6v4.5h0c0,0.6,0.3,1.2,1,1.6l54.1,31.2
				c0.8,0.5,1.9,0.7,3.1,0.6L218.6,178.1z"/>
			<path id="Fill-275" class="st30" d="M157,186.4l-2-0.3v4.5h0c0,0.6,0.3,1.2,1,1.6l1,0.6V186.4z"/>
			<path id="Fill-277" class="st13" d="M210.7,223.7c1.4,0.6,3.5,0.4,5.1-0.3v-7.6h-5.1V223.7z"/>
			<path id="Fill-279" class="st31" d="M210.2,219l-54.1-31.2c-1.5-0.9-1.3-2.4,0.4-3.4l36.8-21.3c1.8-1,4.4-1.1,6-0.2l54.1,31.2
				c1.5,0.9,1.3,2.4-0.4,3.4l-36.8,21.3C214.4,219.8,211.7,219.9,210.2,219"/>
			<path id="Fill-281" class="st32" d="M209.3,214.2l-45-26c-1.3-0.7-1.1-2,0.4-2.9l19.7-11.1c1.5-0.8,3.7-0.9,5-0.2l45,26
				c1.3,0.7,1.1,2-0.4,2.9L214.2,214C212.8,214.9,210.5,215,209.3,214.2"/>
			<path id="Fill-283" class="st8" d="M195.4,162l-0.6,3.7c-0.5,3.2-0.4,6.4,0.2,9.6l0.7,3.3c0.4,1.9,1.8,3.3,3.7,3.6
				c1.5,0.3,2.8-0.8,3-2.2l0.9-8c0,0,2,2.7,3,2.7c1,0-1.1-8-3.3-12.5C200.8,157.7,195.4,162,195.4,162"/>
			<path id="Fill-285" class="st8" d="M213.8,102.7l-5.8,11.5c-1.4,2.7-2.2,5.7-2.4,8.7l-2.5,39.3l-7.6-0.2l-3.5-44.1
				c-0.1-1.4,0-2.7,0.2-4.1l4-22.4L213.8,102.7z"/>
			<path id="Fill-287" class="st18" d="M208.3,222l-4.5-5.9l-47.7-27.6c-1.5-0.9-2.8-3.3-2.8-5.3l0-39.1l-2.7-3.6l2.6-1.5h0
				c0.5-0.3,1.1-0.3,1.9,0.1l54.1,31.3c1.5,0.9,2.8,3.3,2.8,5.3l0,42.5c0,1.1-0.4,1.9-1,2.3L208.3,222z"/>
			<path id="Fill-289" class="st18" d="M175.4,199.6l-3.4-2l-18.6-32.3l0-21.2l-2.7-3.6l2.6-1.5l0,0c0.5-0.3,1.1-0.3,1.9,0.1
				l54.1,31.3c0.8,0.5,1.5,1.4,2,2.4L175.4,199.6z"/>
			<path id="Fill-291" class="st13" d="M151.9,142.1l-1.2-1.6l2.6-1.5l0,0c0.5-0.3,1.2-0.3,1.9,0.1l1,0.6L151.9,142.1z"/>
			<path id="Fill-293" class="st13" d="M209.6,170.8c1.2,1,2.1,2.8,2.3,4.6l-5.3,3.1l-2.5-4.4L209.6,170.8z"/>
			<path id="Fill-295" class="st31" d="M206.6,171.9l-54.1-31.3c-1.5-0.9-2.8,0.1-2.8,2.1l0,42.5c0,2,1.2,4.4,2.8,5.3l54.1,31.3
				c1.5,0.9,2.8,0,2.8-2.1l0-42.5C209.3,175.2,208.1,172.8,206.6,171.9"/>
			<path id="Fill-297" class="st8" d="M233.2,180.2l-0.9,1.8c-1,2.1-2.6,3.8-4.5,5l-5.4,3.3c-1.7,1-3.8,1.1-5.5,0.1
				c-0.1,0-0.1-0.1-0.2-0.1c-1.7-1.1-1.9-3.5-0.5-5l5.6-5.8c0,0-3.2,2.4-4,1.4c-0.6-0.7,3.1-4.2,5.9-4.3c2.8-0.1,5.6-2.3,5.6-2.3
				L233.2,180.2z"/>
			<path id="Fill-299" class="st22" d="M218.9,50.1c0,0-20.6,22.4-28.9,42.9c0,0,7,12.7,24.3,17.6
				C231.5,115.6,218.9,50.1,218.9,50.1"/>
			<path id="Fill-301" class="st19" d="M210.4,109.3l3.3-32.2l-7.9,30.2C207.3,108,208.8,108.7,210.4,109.3"/>
			<path id="Fill-303" class="st2" d="M234.3,45.5l-5.5-1.5c0,0,2.6,4.2,6.5,5.2c3.9,1.1,4.5-2.2,4.5-2.2L234.3,45.5z"/>
		</g>
	</g>
</g>
</svg>
