<?xml version="1.0" encoding="UTF-8"?>
<svg width="40px" height="40px" viewBox="0 0 40 40" version="1.1" xmlns="http://www.w3.org/2000/svg" xmlns:xlink="http://www.w3.org/1999/xlink">
    <!-- Generator: sketchtool 63.1 (101010) - https://sketch.com -->
    <title>82158009-9E3D-49B9-BBBC-1ADD38D0CA2F</title>
    <desc>Created with sketchtool.</desc>
    <g id="Services" stroke="none" stroke-width="1" fill="none" fill-rule="evenodd">
        <g transform="translate(-231.000000, -5474.000000)" fill="#FFFFFF" fill-rule="nonzero" id="list">
            <g transform="translate(211.000000, 5456.000000)">
                <g id="Group-14" transform="translate(20.000000, 18.000000)">
                    <g id="iOS">
                        <g id="grey_grad">
                            <g id="smm">
                                <path d="M30.1325566,26.1378494 C29.6111804,26.1378322 29.0948297,26.2397435 28.6125566,26.4378494 L26.1325566,23.0778494 C28.4859277,20.7151214 28.8457877,17.0202804 26.9925566,14.2478494 L29.7525566,11.7678494 C30.176047,12.0005182 30.649472,12.127451 31.1325566,12.1378494 C32.4542499,12.1382151 33.6204729,11.273564 34.0041803,10.0087945 C34.3878877,8.74402497 33.8986698,7.37714401 32.7995653,6.64308505 C31.7004608,5.90902609 30.2504423,5.98074919 29.2291441,6.81969086 C28.2078458,7.65863252 27.8559076,9.06712008 28.3625566,10.2878494 L25.6025566,12.7578494 C22.794964,10.4290121 18.6695959,10.6465948 16.1225566,13.2578494 L13.8425566,11.5978494 C14.6131915,9.69460843 13.845433,7.51539755 12.0519947,6.51550598 C10.2585564,5.51561442 8.00118105,6.00822934 6.78735654,7.66437973 C5.57353203,9.32053011 5.78345388,11.6214747 7.2769351,13.0306297 C8.77041631,14.4397847 11.079667,14.5157731 12.6625566,13.2078494 L14.9525566,14.8678494 C13.634828,17.3650041 13.9463606,20.4093475 15.7425566,22.5878494 L13.6725566,24.8578494 C12.9068876,24.3918628 12.0288636,24.1429741 11.1325566,24.1378494 C8.37113288,24.1378494 6.13255663,26.3764256 6.13255663,29.1378494 C6.13255663,31.8992731 8.37113288,34.1378494 11.1325566,34.1378494 C13.8939804,34.1378494 16.1325566,31.8992731 16.1325566,29.1378494 C16.1197166,28.0765515 15.7694855,27.0468721 15.1325566,26.1978494 L17.1925566,23.9378494 C19.364224,25.4050984 22.1735898,25.536305 24.4725566,24.2778494 L27.0025566,27.6578494 C26.4415045,28.362929 26.134949,29.2367883 26.1325566,30.1378494 C26.1325566,32.3469884 27.9234176,34.1378494 30.1325566,34.1378494 C32.3416956,34.1378494 34.1325566,32.3469884 34.1325566,30.1378494 C34.1325566,27.9287104 32.3416956,26.1378494 30.1325566,26.1378494 Z" id="Path"></path>
                            </g>
                        </g>
                    </g>
                </g>
            </g>
        </g>
    </g>
</svg>