<?xml version="1.0" encoding="utf-8"?>
<!-- Generator: Adobe Illustrator 23.0.0, SVG Export Plug-In . SVG Version: 6.00 Build 0)  -->
<svg version="1.1" id="Layer_1" xmlns="http://www.w3.org/2000/svg" xmlns:xlink="http://www.w3.org/1999/xlink" x="0px" y="0px"
	 viewBox="0 0 940 740" style="enable-background:new 0 0 940 740;" xml:space="preserve">
<style type="text/css">
	.st0{filter:url(#Adobe_OpacityMaskFilter);}
	.st1{fill-rule:evenodd;clip-rule:evenodd;fill:#FFFFFF;}
	.st2{mask:url(#mask-2_1_);fill-rule:evenodd;clip-rule:evenodd;fill:url(#Fill-1_1_);}
	.st3{filter:url(#Adobe_OpacityMaskFilter_1_);}
	.st4{mask:url(#mask-5_1_);fill-rule:evenodd;clip-rule:evenodd;fill:url(#Fill-4_1_);}
	.st5{filter:url(#Adobe_OpacityMaskFilter_2_);}
	.st6{mask:url(#mask-8_1_);fill-rule:evenodd;clip-rule:evenodd;fill:url(#Fill-7_1_);}
	.st7{fill-rule:evenodd;clip-rule:evenodd;fill:#161616;}
	.st8{filter:url(#Adobe_OpacityMaskFilter_3_);}
	.st9{mask:url(#mask-11_1_);fill-rule:evenodd;clip-rule:evenodd;fill:url(#Fill-12_1_);}
	.st10{filter:url(#Adobe_OpacityMaskFilter_4_);}
	.st11{mask:url(#mask-14_1_);fill-rule:evenodd;clip-rule:evenodd;fill:#D8D8D8;}
	.st12{filter:url(#Adobe_OpacityMaskFilter_5_);}
	.st13{mask:url(#mask-16_1_);fill:none;}
	.st14{filter:url(#Adobe_OpacityMaskFilter_6_);}
	.st15{mask:url(#mask-18_1_);fill-rule:evenodd;clip-rule:evenodd;fill:#D8D8D8;}
	.st16{fill-rule:evenodd;clip-rule:evenodd;fill:#06033E;}
	.st17{fill-rule:evenodd;clip-rule:evenodd;fill:#222223;}
	.st18{filter:url(#Adobe_OpacityMaskFilter_7_);}
	.st19{mask:url(#mask-20_1_);fill-rule:evenodd;clip-rule:evenodd;fill:#E4E4E4;}
	.st20{filter:url(#Adobe_OpacityMaskFilter_8_);}
	.st21{mask:url(#mask-22_1_);fill-rule:evenodd;clip-rule:evenodd;fill:url(#Fill-328_1_);}
	.st22{filter:url(#Adobe_OpacityMaskFilter_9_);}
	.st23{mask:url(#mask-25_1_);fill:none;}
	.st24{fill-rule:evenodd;clip-rule:evenodd;fill:#262627;}
	.st25{fill-rule:evenodd;clip-rule:evenodd;fill:#E8975B;}
	.st26{fill-rule:evenodd;clip-rule:evenodd;fill:#F8359E;}
	.st27{filter:url(#Adobe_OpacityMaskFilter_10_);}
	.st28{mask:url(#mask-27_1_);fill-rule:evenodd;clip-rule:evenodd;fill:url(#Fill-398_1_);}
	.st29{fill-rule:evenodd;clip-rule:evenodd;fill:#DDDDDD;}
	.st30{fill-rule:evenodd;clip-rule:evenodd;fill:#D8D8D8;}
	.st31{fill-rule:evenodd;clip-rule:evenodd;fill:#030303;}
	.st32{fill-rule:evenodd;clip-rule:evenodd;fill:url(#Fill-419_1_);}
	.st33{fill-rule:evenodd;clip-rule:evenodd;}
	.st34{filter:url(#Adobe_OpacityMaskFilter_11_);}
	.st35{mask:url(#mask-31_1_);fill:none;}
	.st36{fill:none;}
	.st37{fill-rule:evenodd;clip-rule:evenodd;fill:#0C0A78;}
	.st38{fill-rule:evenodd;clip-rule:evenodd;fill:#404040;}
	.st39{opacity:0.5;fill-rule:evenodd;clip-rule:evenodd;fill:#FFFFFF;enable-background:new    ;}
</style>
<title>wd</title>
<desc>Created with Sketch.</desc>
<g id="wd">
	<g transform="translate(79.000000, 80.000000)">
		<g id="Group-3" transform="translate(722.456128, 462.604939)">
			<g id="Clip-2">
			</g>
			<defs>
				<filter id="Adobe_OpacityMaskFilter" filterUnits="userSpaceOnUse" x="77.3" y="0.5" width="58.1" height="34.2">
					<feColorMatrix  type="matrix" values="1 0 0 0 0  0 1 0 0 0  0 0 1 0 0  0 0 0 1 0"/>
				</filter>
			</defs>
			<mask maskUnits="userSpaceOnUse" x="77.3" y="0.5" width="58.1" height="34.2" id="mask-2_1_">
				<g class="st0">
					<path id="path-1_1_" class="st1" d="M100.1,2.2L79.2,14.2c-1.2,0.7-1.9,2-1.9,3.4l0,0c0,1.4,0.7,2.7,1.9,3.4l0,0L100.1,33
						c1.9,1.1,4.1,1.7,6.2,1.7l0,0c2.1,0,4.3-0.6,6.2-1.7l0,0l20.9-12.1c1.2-0.7,1.9-2,1.9-3.4l0,0c0-1.4-0.7-2.7-1.9-3.4l0,0
						L112.5,2.2c-1.9-1.1-4.1-1.7-6.2-1.7l0,0C104.2,0.5,102,1,100.1,2.2L100.1,2.2z M80.9,18.1c-0.2-0.1-0.3-0.4-0.3-0.5l0,0
						c0-0.1,0-0.3,0.3-0.5l0,0L101.8,5c1.4-0.8,3-1.2,4.5-1.2l0,0c1.6,0,3.1,0.4,4.5,1.2l0,0l20.9,12.1c0.2,0.1,0.3,0.4,0.3,0.5l0,0
						c0,0.1,0,0.3-0.3,0.5l0,0l-20.9,12.1c-2.8,1.6-6.3,1.6-9.1,0l0,0l0,0L80.9,18.1z"/>
				</g>
			</mask>
			
				<linearGradient id="Fill-1_1_" gradientUnits="userSpaceOnUse" x1="-731.3356" y1="128.9448" x2="-730.3356" y2="128.9448" gradientTransform="matrix(58.0687 0 0 -34.1503 42544.9766 4421.0737)">
				<stop  offset="0" style="stop-color:#E29A64"/>
				<stop  offset="1" style="stop-color:#E85E8C"/>
			</linearGradient>
			<path id="Fill-1" class="st2" d="M100.1,2.2L79.2,14.2c-1.2,0.7-1.9,2-1.9,3.4l0,0c0,1.4,0.7,2.7,1.9,3.4l0,0L100.1,33
				c1.9,1.1,4.1,1.7,6.2,1.7l0,0c2.1,0,4.3-0.6,6.2-1.7l0,0l20.9-12.1c1.2-0.7,1.9-2,1.9-3.4l0,0c0-1.4-0.7-2.7-1.9-3.4l0,0
				L112.5,2.2c-1.9-1.1-4.1-1.7-6.2-1.7l0,0C104.2,0.5,102,1,100.1,2.2L100.1,2.2z M80.9,18.1c-0.2-0.1-0.3-0.4-0.3-0.5l0,0
				c0-0.1,0-0.3,0.3-0.5l0,0L101.8,5c1.4-0.8,3-1.2,4.5-1.2l0,0c1.6,0,3.1,0.4,4.5,1.2l0,0l20.9,12.1c0.2,0.1,0.3,0.4,0.3,0.5l0,0
				c0,0.1,0,0.3-0.3,0.5l0,0l-20.9,12.1c-2.8,1.6-6.3,1.6-9.1,0l0,0l0,0L80.9,18.1z"/>
		</g>
		<g id="Group-6" transform="translate(642.833322, 372.297923)">
			<g id="Clip-5">
			</g>
			<defs>
				<filter id="Adobe_OpacityMaskFilter_1_" filterUnits="userSpaceOnUse" x="77.4" y="0.1" width="97.5" height="56.4">
					<feColorMatrix  type="matrix" values="1 0 0 0 0  0 1 0 0 0  0 0 1 0 0  0 0 0 1 0"/>
				</filter>
			</defs>
			<mask maskUnits="userSpaceOnUse" x="77.4" y="0.1" width="97.5" height="56.4" id="mask-5_1_">
				<g class="st3">
					<path id="path-4_1_" class="st1" d="M116.1,2.8l-36,20.8c-1.7,1-2.7,2.8-2.7,4.7l0,0c0,2,1,3.7,2.7,4.7l0,0l36,20.8
						c3.1,1.8,6.6,2.7,10.1,2.7l0,0c3.5,0,7-0.9,10.1-2.7l0,0l36-20.8c1.7-1,2.7-2.8,2.7-4.7l0,0c0-2-1-3.7-2.7-4.7l0,0l-36-20.8
						c-3.1-1.8-6.6-2.7-10.1-2.7l0,0C122.7,0.1,119.2,1,116.1,2.8 M117.8,50.9l-36-20.8c-1-0.6-1.1-1.5-1.1-1.9l0,0
						c0-0.4,0.1-1.3,1.1-1.9l0,0l36-20.8c5.2-3,11.6-3,16.8,0l0,0l36,20.8c1,0.6,1.1,1.5,1.1,1.9l0,0c0,0.4-0.1,1.3-1.1,1.9l0,0
						l-36,20.8c-2.6,1.5-5.5,2.2-8.4,2.2l0,0C123.3,53.2,120.3,52.4,117.8,50.9"/>
				</g>
			</mask>
			
				<linearGradient id="Fill-4_1_" gradientUnits="userSpaceOnUse" x1="-651.7615" y1="218.4436" x2="-650.7615" y2="218.4436" gradientTransform="matrix(97.5451 0 0 -56.3806 63653.5156 12344.2705)">
				<stop  offset="0" style="stop-color:#E29A64"/>
				<stop  offset="1" style="stop-color:#E85E8C"/>
			</linearGradient>
			<path id="Fill-4" class="st4" d="M116.1,2.8l-36,20.8c-1.7,1-2.7,2.8-2.7,4.7l0,0c0,2,1,3.7,2.7,4.7l0,0l36,20.8
				c3.1,1.8,6.6,2.7,10.1,2.7l0,0c3.5,0,7-0.9,10.1-2.7l0,0l36-20.8c1.7-1,2.7-2.8,2.7-4.7l0,0c0-2-1-3.7-2.7-4.7l0,0l-36-20.8
				c-3.1-1.8-6.6-2.7-10.1-2.7l0,0C122.7,0.1,119.2,1,116.1,2.8 M117.8,50.9l-36-20.8c-1-0.6-1.1-1.5-1.1-1.9l0,0
				c0-0.4,0.1-1.3,1.1-1.9l0,0l36-20.8c5.2-3,11.6-3,16.8,0l0,0l36,20.8c1,0.6,1.1,1.5,1.1,1.9l0,0c0,0.4-0.1,1.3-1.1,1.9l0,0
				l-36,20.8c-2.6,1.5-5.5,2.2-8.4,2.2l0,0C123.3,53.2,120.3,52.4,117.8,50.9"/>
		</g>
		<g id="Group-9" transform="translate(0.000000, 404.350554)">
			<g id="Clip-8">
			</g>
			<defs>
				<filter id="Adobe_OpacityMaskFilter_2_" filterUnits="userSpaceOnUse" x="77" y="0.7" width="97.5" height="56.4">
					<feColorMatrix  type="matrix" values="1 0 0 0 0  0 1 0 0 0  0 0 1 0 0  0 0 0 1 0"/>
				</filter>
			</defs>
			<mask maskUnits="userSpaceOnUse" x="77" y="0.7" width="97.5" height="56.4" id="mask-8_1_">
				<g class="st5">
					<path id="path-7_1_" class="st1" d="M115.7,3.4l-36,20.8c-1.7,1-2.7,2.8-2.7,4.7l0,0c0,2,1,3.7,2.7,4.7l0,0l36,20.8
						c3.1,1.8,6.6,2.7,10.1,2.7l0,0c3.5,0,7-0.9,10.1-2.7l0,0l36-20.8c1.7-1,2.7-2.8,2.7-4.7l0,0c0-2-1-3.7-2.7-4.7l0,0l-36-20.8
						c-3.1-1.8-6.6-2.7-10.1-2.7l0,0C122.3,0.7,118.8,1.6,115.7,3.4 M117.4,51.5l-36-20.8c-1-0.6-1.1-1.5-1.1-1.9l0,0
						c0-0.4,0.1-1.3,1.1-1.9l0,0l36-20.8c2.6-1.5,5.5-2.2,8.4-2.2l0,0c2.9,0,5.8,0.7,8.4,2.2l0,0l36,20.8c1,0.6,1.1,1.5,1.1,1.9l0,0
						c0,0.4-0.1,1.3-1.1,1.9l0,0l-36,20.8c-2.6,1.5-5.5,2.2-8.4,2.2l0,0C122.9,53.8,120,53,117.4,51.5"/>
				</g>
			</mask>
			
				<linearGradient id="Fill-7_1_" gradientUnits="userSpaceOnUse" x1="-8.9282" y1="186.391" x2="-7.9282" y2="186.391" gradientTransform="matrix(97.5451 0 0 -56.3806 947.9055 10537.752)">
				<stop  offset="0" style="stop-color:#E29A64"/>
				<stop  offset="1" style="stop-color:#E85E8C"/>
			</linearGradient>
			<path id="Fill-7" class="st6" d="M115.7,3.4l-36,20.8c-1.7,1-2.7,2.8-2.7,4.7l0,0c0,2,1,3.7,2.7,4.7l0,0l36,20.8
				c3.1,1.8,6.6,2.7,10.1,2.7l0,0c3.5,0,7-0.9,10.1-2.7l0,0l36-20.8c1.7-1,2.7-2.8,2.7-4.7l0,0c0-2-1-3.7-2.7-4.7l0,0l-36-20.8
				c-3.1-1.8-6.6-2.7-10.1-2.7l0,0C122.3,0.7,118.8,1.6,115.7,3.4 M117.4,51.5l-36-20.8c-1-0.6-1.1-1.5-1.1-1.9l0,0
				c0-0.4,0.1-1.3,1.1-1.9l0,0l36-20.8c2.6-1.5,5.5-2.2,8.4-2.2l0,0c2.9,0,5.8,0.7,8.4,2.2l0,0l36,20.8c1,0.6,1.1,1.5,1.1,1.9l0,0
				c0,0.4-0.1,1.3-1.1,1.9l0,0l-36,20.8c-2.6,1.5-5.5,2.2-8.4,2.2l0,0C122.9,53.8,120,53,117.4,51.5"/>
		</g>
		<path id="Fill-10" class="st7" d="M490,552.1L232.8,403.6c-3.8-2.2-3.3-5.9,1-8.4l165.1-95.3c4.3-2.5,10.9-2.8,14.6-0.6
			l257.2,148.5c3.7,2.2,3.3,5.9-1.1,8.4l-165.1,95.3C500.3,553.9,493.8,554.2,490,552.1"/>
		<g id="Group-14" transform="translate(113.456138, 274.359329)">
			<g id="Clip-13">
			</g>
			<defs>
				<filter id="Adobe_OpacityMaskFilter_3_" filterUnits="userSpaceOnUse" x="77.1" y="0.8" width="520.6" height="303.7">
					<feColorMatrix  type="matrix" values="1 0 0 0 0  0 1 0 0 0  0 0 1 0 0  0 0 0 1 0"/>
				</filter>
			</defs>
			<mask maskUnits="userSpaceOnUse" x="77.1" y="0.8" width="520.6" height="303.7" id="mask-11_1_">
				<g class="st8">
					<path id="path-10_1_" class="st1" d="M282.1,3.4L82,120.6c-3.1,1.8-4.9,4.3-4.9,6.9l0,0c0,2.2,1.3,4.2,3.7,5.6l0,0l293.5,169.5
						h0c2.2,1.3,5.1,1.9,8.1,1.9l0,0c3.6,0,7.3-0.9,10.3-2.6l0,0l200.1-117.2c3.1-1.8,4.9-4.3,4.9-6.9l0,0c0-2.2-1.3-4.2-3.7-5.6
						l0,0L300.5,2.7c-2.2-1.3-5.1-1.9-8.1-1.9l0,0C288.8,0.8,285.1,1.7,282.1,3.4L282.1,3.4z M82.5,130.3c-0.9-0.5-2.1-1.5-2.1-2.8
						l0,0c0-1.3,1.2-2.8,3.3-4l0,0L283.8,6.3c2.4-1.4,5.6-2.1,8.6-2.1l0,0c2.4,0,4.7,0.5,6.4,1.4l0,0L592.3,175
						c0.9,0.5,2.1,1.5,2.1,2.7l0,0c0,1.3-1.2,2.8-3.3,4l0,0L391,299c-4.4,2.5-11.3,2.9-15,0.7l0,0h0L82.5,130.3z"/>
				</g>
			</mask>
			
				<linearGradient id="Fill-12_1_" gradientUnits="userSpaceOnUse" x1="-122.4427" y1="315.3712" x2="-121.4427" y2="315.3712" gradientTransform="matrix(520.6024 0 0 -303.6933 63821.0703 95928.7734)">
				<stop  offset="0" style="stop-color:#E29A64"/>
				<stop  offset="1" style="stop-color:#E85E8C"/>
			</linearGradient>
			<path id="Fill-12" class="st9" d="M282.1,3.4L82,120.6c-3.1,1.8-4.9,4.3-4.9,6.9l0,0c0,2.2,1.3,4.2,3.7,5.6l0,0l293.5,169.5h0
				c2.2,1.3,5.1,1.9,8.1,1.9l0,0c3.6,0,7.3-0.9,10.3-2.6l0,0l200.1-117.2c3.1-1.8,4.9-4.3,4.9-6.9l0,0c0-2.2-1.3-4.2-3.7-5.6l0,0
				L300.5,2.7c-2.2-1.3-5.1-1.9-8.1-1.9l0,0C288.8,0.8,285.1,1.7,282.1,3.4L282.1,3.4z M82.5,130.3c-0.9-0.5-2.1-1.5-2.1-2.8l0,0
				c0-1.3,1.2-2.8,3.3-4l0,0L283.8,6.3c2.4-1.4,5.6-2.1,8.6-2.1l0,0c2.4,0,4.7,0.5,6.4,1.4l0,0L592.3,175c0.9,0.5,2.1,1.5,2.1,2.7
				l0,0c0,1.3-1.2,2.8-3.3,4l0,0L391,299c-4.4,2.5-11.3,2.9-15,0.7l0,0h0L82.5,130.3z"/>
		</g>
		<g id="Group-17" transform="translate(337.537346, 49.482140)">
			<g id="Clip-16">
			</g>
			<defs>
				<filter id="Adobe_OpacityMaskFilter_4_" filterUnits="userSpaceOnUse" x="77.1" y="0.4" width="329.6" height="356">
					<feColorMatrix  type="matrix" values="1 0 0 0 0  0 1 0 0 0  0 0 1 0 0  0 0 0 1 0"/>
				</filter>
			</defs>
			<mask maskUnits="userSpaceOnUse" x="77.1" y="0.4" width="329.6" height="356" id="mask-14_1_">
				<g class="st10">
					<path id="path-13_1_" class="st1" d="M140.1,0.6L140.1,0.6C140.1,0.6,140.1,0.6,140.1,0.6L140.1,0.6l-4.8,1.7l1.7,0.4
						c-0.7,0.8-1.2,1.8-1.6,2.9l0,0L77.5,193.7c-1.4,4.7,0.7,10.3,4.7,12.7l0,0l256.2,147.9c0.6,0.4,1.3,0.6,1.9,0.8l0,0l-0.6,1.4
						l4.5-1.6l0,0c1.9-0.7,3.4-2.4,4.1-4.8l0,0l57.9-188.1c1.4-4.7-0.7-10.3-4.7-12.7l0,0L145.4,1.4c-1.2-0.7-2.4-1-3.5-1l0,0
						C141.3,0.4,140.7,0.5,140.1,0.6"/>
				</g>
			</mask>
			<path id="Fill-15" class="st11" d="M140.1,0.6L140.1,0.6C140.1,0.6,140.1,0.6,140.1,0.6L140.1,0.6l-4.8,1.7l1.7,0.4
				c-0.7,0.8-1.2,1.8-1.6,2.9l0,0L77.5,193.7c-1.4,4.7,0.7,10.3,4.7,12.7l0,0l256.2,147.9c0.6,0.4,1.3,0.6,1.9,0.8l0,0l-0.6,1.4
				l4.5-1.6l0,0c1.9-0.7,3.4-2.4,4.1-4.8l0,0l57.9-188.1c1.4-4.7-0.7-10.3-4.7-12.7l0,0L145.4,1.4c-1.2-0.7-2.4-1-3.5-1l0,0
				C141.3,0.4,140.7,0.5,140.1,0.6"/>
		</g>
		<g id="Group-20" transform="translate(153.140348, 263.166346)">
			<g id="Clip-19">
			</g>
			<defs>
				<filter id="Adobe_OpacityMaskFilter_5_" filterUnits="userSpaceOnUse" x="77.2" y="0.2" width="442.8" height="254">
					<feColorMatrix  type="matrix" values="1 0 0 0 0  0 1 0 0 0  0 0 1 0 0  0 0 0 1 0"/>
				</filter>
			</defs>
			<mask maskUnits="userSpaceOnUse" x="77.2" y="0.2" width="442.8" height="254" id="mask-16_1_">
				<g class="st12">
					<path id="path-15_1_" class="st1" d="M246.2,2.2L82.7,96.6l-5.5-2.1l1.5,7.6l0,0c0.2,1.1,1,2.2,2.5,3.1l0,0l255.4,147.4
						c3.7,2.2,10.2,1.9,14.5-0.6l0,0L515,157.5c2-1.2,3.2-2.6,3.5-4l0,0l0,0l1.6-7.4l-6.4,1.6l0.1,0.1L260.7,1.6
						c-1.7-1-3.9-1.5-6.3-1.5l0,0C251.5,0.2,248.5,0.9,246.2,2.2"/>
				</g>
			</mask>
			<path id="Fill-18" class="st13" d="M246.2,2.2L82.7,96.6l-5.5-2.1l1.5,7.6l0,0c0.2,1.1,1,2.2,2.5,3.1l0,0l255.4,147.4
				c3.7,2.2,10.2,1.9,14.5-0.6l0,0L515,157.5c2-1.2,3.2-2.6,3.5-4l0,0l0,0l1.6-7.4l-6.4,1.6l0.1,0.1L260.7,1.6
				c-1.7-1-3.9-1.5-6.3-1.5l0,0C251.5,0.2,248.5,0.9,246.2,2.2"/>
		</g>
		<g id="Group-23" transform="translate(153.140348, 254.771610)">
			<g id="Clip-22">
			</g>
			<defs>
				<filter id="Adobe_OpacityMaskFilter_6_" filterUnits="userSpaceOnUse" x="77.1" y="0" width="443" height="255.8">
					<feColorMatrix  type="matrix" values="1 0 0 0 0  0 1 0 0 0  0 0 1 0 0  0 0 0 1 0"/>
				</filter>
			</defs>
			<mask maskUnits="userSpaceOnUse" x="77.1" y="0" width="443" height="255.8" id="mask-18_1_">
				<g class="st14">
					<path id="path-17_1_" class="st1" d="M245.8,2.1L80.7,97.4c-4.3,2.5-4.8,6.3-1.1,8.4l0,0l257.2,148.5
						c3.7,2.2,10.3,1.9,14.6-0.6l0,0l165.1-95.3c4.3-2.5,4.8-6.3,1.1-8.4l0,0L260.4,1.5c-1.7-1-4-1.5-6.4-1.5l0,0
						C251.2,0,248.2,0.7,245.8,2.1"/>
				</g>
			</mask>
			<path id="Fill-21" class="st15" d="M245.8,2.1L80.7,97.4c-4.3,2.5-4.8,6.3-1.1,8.4l0,0l257.2,148.5c3.7,2.2,10.3,1.9,14.6-0.6
				l0,0l165.1-95.3c4.3-2.5,4.8-6.3,1.1-8.4l0,0L260.4,1.5c-1.7-1-4-1.5-6.4-1.5l0,0C251.2,0,248.2,0.7,245.8,2.1"/>
		</g>
		<g id="Group-324" transform="translate(153.140348, 288.604942)">
			<path id="Fill-24" class="st1" d="M516.6,122.6l-165.1,95.3c-4.3,2.5-10.9,2.8-14.6,0.6L79.7,70c-1.3-0.7-2-1.7-2.3-2.7
				c-0.5,1.7,0.2,3.5,2.3,4.7l257.2,148.5c3.7,2.2,10.3,1.9,14.6-0.6l165.1-95.3c2.9-1.6,4-3.8,3.4-5.8
				C519.6,120.2,518.5,121.5,516.6,122.6"/>
			<g id="Group-174" transform="translate(115.745612, 0.000000)">
				<path id="Fill-26" class="st16" d="M86.6,47.9l-8.7-5c-0.7-0.4-0.6-1.1,0.2-1.6l10.2-5.9c0.8-0.5,2-0.5,2.7-0.1l8.7,5
					c0.7,0.4,0.6,1.1-0.2,1.6l-10.2,5.9C88.5,48.3,87.3,48.3,86.6,47.9"/>
				<path id="Fill-28" class="st16" d="M100,55.7l-8.7-5c-0.7-0.4-0.6-1.1,0.2-1.6l10.2-5.9c0.8-0.5,2-0.5,2.7-0.1l8.7,5
					c0.7,0.4,0.6,1.1-0.2,1.6l-10.2,5.9C101.9,56,100.7,56.1,100,55.7"/>
				<path id="Fill-30" class="st16" d="M113.4,63.4l-8.7-5c-0.7-0.4-0.6-1.1,0.2-1.6l10.2-5.9c0.8-0.5,2-0.5,2.7-0.1l8.7,5
					c0.7,0.4,0.6,1.1-0.2,1.6l-10.2,5.9C115.3,63.8,114.1,63.8,113.4,63.4"/>
				<path id="Fill-32" class="st16" d="M132,57l-8.7-5c-0.7-0.4-0.6-1.1,0.2-1.6l8.6-5c0.8-0.5,2-0.5,2.7-0.1l8.7,5
					c0.7,0.4,0.6,1.1-0.2,1.6l-8.6,5C133.9,57.4,132.7,57.4,132,57"/>
				<path id="Fill-34" class="st16" d="M145.4,64.8l-8.7-5c-0.7-0.4-0.6-1.1,0.2-1.6l8.6-5c0.8-0.5,2-0.5,2.7-0.1l8.7,5
					c0.7,0.4,0.6,1.1-0.2,1.6l-8.6,5C147.3,65.1,146.1,65.2,145.4,64.8"/>
				<path id="Fill-36" class="st16" d="M158.8,72.5l-8.7-5c-0.7-0.4-0.6-1.1,0.2-1.6l8.6-5c0.8-0.5,2-0.5,2.7-0.1l8.7,5
					c0.7,0.4,0.6,1.1-0.2,1.6l-8.6,5C160.7,72.9,159.5,72.9,158.8,72.5"/>
				<path id="Fill-38" class="st16" d="M172.2,80.2l-8.7-5c-0.7-0.4-0.6-1.1,0.2-1.6l8.6-5c0.8-0.5,2-0.5,2.7-0.1l8.7,5
					c0.7,0.4,0.6,1.1-0.2,1.6l-8.6,5C174.1,80.6,172.9,80.6,172.2,80.2"/>
				<path id="Fill-40" class="st16" d="M185.6,88l-8.7-5c-0.7-0.4-0.6-1.1,0.2-1.6l8.6-5c0.8-0.5,2-0.5,2.7-0.1l8.7,5
					c0.7,0.4,0.6,1.1-0.2,1.6l-8.6,5C187.5,88.3,186.3,88.4,185.6,88"/>
				<path id="Fill-42" class="st16" d="M199,95.7l-8.7-5c-0.7-0.4-0.6-1.1,0.2-1.6l8.6-5c0.8-0.5,2-0.5,2.7-0.1l8.7,5
					c0.7,0.4,0.6,1.1-0.2,1.6l-8.6,5C200.9,96.1,199.7,96.1,199,95.7"/>
				<path id="Fill-44" class="st16" d="M212.4,103.5l-8.7-5c-0.7-0.4-0.6-1.1,0.2-1.6l8.6-5c0.8-0.5,2-0.5,2.7-0.1l8.7,5
					c0.7,0.4,0.6,1.1-0.2,1.6l-8.6,5C214.3,103.8,213.1,103.9,212.4,103.5"/>
				<path id="Fill-46" class="st16" d="M225.8,111.2l-8.7-5c-0.7-0.4-0.6-1.1,0.2-1.6l8.6-5c0.8-0.5,2-0.5,2.7-0.1l8.7,5
					c0.7,0.4,0.6,1.1-0.2,1.6l-8.6,5C227.8,111.6,226.5,111.6,225.8,111.2"/>
				<path id="Fill-48" class="st16" d="M239.2,119l-8.7-5c-0.7-0.4-0.6-1.1,0.2-1.6l8.6-5c0.8-0.5,2-0.5,2.7-0.1l8.7,5
					c0.7,0.4,0.6,1.1-0.2,1.6l-8.6,5C241.2,119.3,239.9,119.4,239.2,119"/>
				<path id="Fill-50" class="st16" d="M252.7,126.7l-8.7-5c-0.7-0.4-0.6-1.1,0.2-1.6l8.6-5c0.8-0.5,2-0.5,2.7-0.1l8.7,5
					c0.7,0.4,0.6,1.1-0.2,1.6l-8.6,5C254.6,127,253.4,127.1,252.7,126.7"/>
				<path id="Fill-52" class="st16" d="M151.7,53.4l-8.7-5c-0.7-0.4-0.6-1.1,0.2-1.6l8.6-5c0.8-0.5,2-0.5,2.7-0.1l8.7,5
					c0.7,0.4,0.6,1.1-0.2,1.6l-8.6,5C153.6,53.7,152.4,53.8,151.7,53.4"/>
				<path id="Fill-54" class="st16" d="M138.1,45.5l-8.7-5c-0.7-0.4-0.6-1.1,0.2-1.6l8.6-5c0.8-0.5,2-0.5,2.7-0.1l8.7,5
					c0.7,0.4,0.6,1.1-0.2,1.6l-8.6,5C140,45.8,138.8,45.9,138.1,45.5"/>
				<path id="Fill-56" class="st16" d="M124.5,37.6l-18.7-10.8c-0.7-0.4-0.6-1.1,0.2-1.6l8.6-5c0.8-0.5,2-0.5,2.7-0.1L136,31
					c0.7,0.4,0.6,1.1-0.2,1.6l-8.6,5C126.4,38,125.2,38,124.5,37.6"/>
				<path id="Fill-58" class="st16" d="M134,28.1l-15.2-8.8c-0.7-0.4-0.6-1.1,0.2-1.6l8.6-5c0.8-0.5,2-0.5,2.7-0.1l15.2,8.8
					c0.7,0.4,0.6,1.1-0.2,1.6l-8.6,5C135.9,28.4,134.7,28.5,134,28.1"/>
				<path id="Fill-60" class="st16" d="M165.1,61.1l-8.7-5c-0.7-0.4-0.6-1.1,0.2-1.6l8.6-5c0.8-0.5,2-0.5,2.7-0.1l8.7,5
					c0.7,0.4,0.6,1.1-0.2,1.6l-8.6,5C167.1,61.4,165.8,61.5,165.1,61.1"/>
				<path id="Fill-62" class="st16" d="M178.5,68.8l-8.7-5c-0.7-0.4-0.6-1.1,0.2-1.6l8.6-5c0.8-0.5,2-0.5,2.7-0.1l8.7,5
					c0.7,0.4,0.6,1.1-0.2,1.6l-8.6,5C180.5,69.2,179.2,69.2,178.5,68.8"/>
				<path id="Fill-64" class="st16" d="M192,76.6l-8.7-5c-0.7-0.4-0.6-1.1,0.2-1.6l8.6-5c0.8-0.5,2-0.5,2.7-0.1l8.7,5
					c0.7,0.4,0.6,1.1-0.2,1.6l-8.6,5C193.9,76.9,192.7,77,192,76.6"/>
				<path id="Fill-66" class="st16" d="M205.4,84.3l-8.7-5c-0.7-0.4-0.6-1.1,0.2-1.6l8.6-5c0.8-0.5,2-0.5,2.7-0.1l8.7,5
					c0.7,0.4,0.6,1.1-0.2,1.6l-8.6,5C207.3,84.7,206.1,84.7,205.4,84.3"/>
				<path id="Fill-68" class="st16" d="M218.8,92.1l-8.7-5c-0.7-0.4-0.6-1.1,0.2-1.6l8.6-5c0.8-0.5,2-0.5,2.7-0.1l8.7,5
					c0.7,0.4,0.6,1.1-0.2,1.6l-8.6,5C220.7,92.4,219.5,92.5,218.8,92.1"/>
				<path id="Fill-70" class="st16" d="M232.2,99.8l-8.7-5c-0.7-0.4-0.6-1.1,0.2-1.6l8.6-5c0.8-0.5,2-0.5,2.7-0.1l8.7,5
					c0.7,0.4,0.6,1.1-0.2,1.6l-8.6,5C234.1,100.2,232.9,100.2,232.2,99.8"/>
				<path id="Fill-72" class="st16" d="M245.6,107.5l-8.7-5c-0.7-0.4-0.6-1.1,0.2-1.6l8.6-5c0.8-0.5,2-0.5,2.7-0.1l8.7,5
					c0.7,0.4,0.6,1.1-0.2,1.6l-8.6,5C247.5,107.9,246.3,108,245.6,107.5"/>
				<path id="Fill-74" class="st16" d="M259,115.3l-8.7-5c-0.7-0.4-0.6-1.1,0.2-1.6l8.6-5c0.8-0.5,2-0.5,2.7-0.1l8.7,5
					c0.7,0.4,0.6,1.1-0.2,1.6l-8.6,5C260.9,115.6,259.7,115.7,259,115.3"/>
				<path id="Fill-76" class="st16" d="M272.4,123l-8.7-5c-0.7-0.4-0.6-1.1,0.2-1.6l8.6-5c0.8-0.5,2-0.5,2.7-0.1l8.7,5
					c0.7,0.4,0.6,1.1-0.2,1.6l-8.6,5C274.3,123.4,273.1,123.4,272.4,123"/>
				<path id="Fill-78" class="st16" d="M296.3,136.8l-18.9-10.9c-0.7-0.4-0.6-1.1,0.2-1.6l8.6-5c0.8-0.5,2-0.5,2.7-0.1l18.9,10.9
					c0.7,0.4,0.6,1.1-0.2,1.6l-8.6,5C298.2,137.1,296.9,137.2,296.3,136.8"/>
				<path id="Fill-80" class="st16" d="M322.4,121.7l-16-9.2c-0.7-0.4-0.6-1.1,0.2-1.6l8.6-5c0.8-0.5,2-0.5,2.7-0.1l16,9.2
					c0.7,0.4,0.6,1.1-0.2,1.6l-8.6,5C324.3,122.1,323.1,122.1,322.4,121.7"/>
				<path id="Fill-82" class="st16" d="M188.6,59.6l-8.7-5c-0.7-0.4-0.6-1.1,0.2-1.6l8.6-5c0.8-0.5,2-0.5,2.7-0.1l8.7,5
					c0.7,0.4,0.6,1.1-0.2,1.6l-8.6,5C190.5,59.9,189.3,60,188.6,59.6"/>
				<path id="Fill-84" class="st16" d="M174.9,51.6l-8.7-5c-0.7-0.4-0.6-1.1,0.2-1.6l8.6-5c0.8-0.5,2-0.5,2.7-0.1l8.7,5
					c0.7,0.4,0.6,1.1-0.2,1.6l-8.6,5C176.8,52,175.6,52,174.9,51.6"/>
				<path id="Fill-86" class="st16" d="M161.1,43.7l-8.7-5c-0.7-0.4-0.6-1.1,0.2-1.6l8.6-5c0.8-0.5,2-0.5,2.7-0.1l8.7,5
					c0.7,0.4,0.6,1.1-0.2,1.6l-8.6,5C163.1,44.1,161.8,44.1,161.1,43.7"/>
				<path id="Fill-88" class="st16" d="M147.4,35.8l-8.7-5c-0.7-0.4-0.6-1.1,0.2-1.6l8.6-5c0.8-0.5,2-0.5,2.7-0.1l8.7,5
					c0.7,0.4,0.6,1.1-0.2,1.6l-8.6,5C149.3,36.1,148.1,36.2,147.4,35.8"/>
				<path id="Fill-90" class="st16" d="M202,67.3l-8.7-5c-0.7-0.4-0.6-1.1,0.2-1.6l8.6-5c0.8-0.5,2-0.5,2.7-0.1l8.7,5
					c0.7,0.4,0.6,1.1-0.2,1.6l-8.6,5C203.9,67.7,202.7,67.7,202,67.3"/>
				<path id="Fill-92" class="st16" d="M215.4,75.1l-8.7-5c-0.7-0.4-0.6-1.1,0.2-1.6l8.6-5c0.8-0.5,2-0.5,2.7-0.1l8.7,5
					c0.7,0.4,0.6,1.1-0.2,1.6l-8.6,5C217.4,75.4,216.1,75.5,215.4,75.1"/>
				<path id="Fill-94" class="st16" d="M228.8,82.8l-8.7-5c-0.7-0.4-0.6-1.1,0.2-1.6l8.6-5c0.8-0.5,2-0.5,2.7-0.1l8.7,5
					c0.7,0.4,0.6,1.1-0.2,1.6l-8.6,5C230.8,83.2,229.5,83.2,228.8,82.8"/>
				<path id="Fill-96" class="st16" d="M242.3,90.5l-8.7-5c-0.7-0.4-0.6-1.1,0.2-1.6l8.6-5c0.8-0.5,2-0.5,2.7-0.1l8.7,5
					c0.7,0.4,0.6,1.1-0.2,1.6l-8.6,5C244.2,90.9,243,91,242.3,90.5"/>
				<path id="Fill-98" class="st16" d="M255.7,98.3l-8.7-5c-0.7-0.4-0.6-1.1,0.2-1.6l8.6-5c0.8-0.5,2-0.5,2.7-0.1l8.7,5
					c0.7,0.4,0.6,1.1-0.2,1.6l-8.6,5C257.6,98.6,256.4,98.7,255.7,98.3"/>
				<path id="Fill-100" class="st16" d="M269.1,106l-8.7-5c-0.7-0.4-0.6-1.1,0.2-1.6l8.6-5c0.8-0.5,2-0.5,2.7-0.1l8.7,5
					c0.7,0.4,0.6,1.1-0.2,1.6l-8.6,5C271,106.4,269.8,106.4,269.1,106"/>
				<path id="Fill-102" class="st16" d="M282.5,113.8l-8.7-5c-0.7-0.4-0.6-1.1,0.2-1.6l8.6-5c0.8-0.5,2-0.5,2.7-0.1l8.7,5
					c0.7,0.4,0.6,1.1-0.2,1.6l-8.6,5C284.4,114.1,283.2,114.2,282.5,113.8"/>
				<path id="Fill-104" class="st16" d="M295.9,121.5l-8.7-5c-0.7-0.4-0.6-1.1,0.2-1.6l8.6-5c0.8-0.5,2-0.5,2.7-0.1l8.7,5
					c0.7,0.4,0.6,1.1-0.2,1.6l-8.6,5C297.8,121.9,296.6,121.9,295.9,121.5"/>
				<path id="Fill-106" class="st16" d="M309.3,129.3l-8.7-5c-0.7-0.4-0.6-1.1,0.2-1.6l8.6-5c0.8-0.5,2-0.5,2.7-0.1l8.7,5
					c0.7,0.4,0.6,1.1-0.2,1.6l-8.6,5C311.2,129.6,310,129.7,309.3,129.3"/>
				<path id="Fill-108" class="st16" d="M181.6,40.4l-8.7-5c-0.7-0.4-0.6-1.1,0.2-1.6l8.6-5c0.8-0.5,2-0.5,2.7-0.1l8.7,5
					c0.7,0.4,0.6,1.1-0.2,1.6l-8.6,5C183.5,40.8,182.3,40.8,181.6,40.4"/>
				<path id="Fill-110" class="st16" d="M168.2,32.7l-8.7-5c-0.7-0.4-0.6-1.1,0.2-1.6l8.6-5c0.8-0.5,2-0.5,2.7-0.1l8.7,5
					c0.7,0.4,0.6,1.1-0.2,1.6l-8.6,5C170.1,33.1,168.9,33.1,168.2,32.7"/>
				<path id="Fill-112" class="st16" d="M154.9,25l-8.7-5c-0.7-0.4-0.6-1.1,0.2-1.6l8.6-5c0.8-0.5,2-0.5,2.7-0.1l8.7,5
					c0.7,0.4,0.6,1.1-0.2,1.6l-8.6,5C156.8,25.4,155.6,25.4,154.9,25"/>
				<path id="Fill-114" class="st16" d="M141.5,17.3l-8.7-5c-0.7-0.4-0.6-1.1,0.2-1.6l8.6-5c0.8-0.5,2-0.5,2.7-0.1l8.7,5
					c0.7,0.4,0.6,1.1-0.2,1.6l-8.6,5C143.4,17.7,142.2,17.7,141.5,17.3"/>
				<path id="Fill-116" class="st16" d="M155.3,9.4l-8.7-5c-0.7-0.4-0.6-1.1,0.2-1.6l2.8-1.6c0.8-0.5,2-0.5,2.7-0.1l8.7,5
					c0.7,0.4,0.6,1.1-0.2,1.6L158,9.3C157.2,9.8,156,9.8,155.3,9.4"/>
				<path id="Fill-118" class="st16" d="M172.7,19.5l-8.7-5c-0.7-0.4-0.6-1.1,0.2-1.6l2.8-1.6c0.8-0.5,2-0.5,2.7-0.1l8.7,5
					c0.7,0.4,0.6,1.1-0.2,1.6l-2.8,1.6C174.6,19.8,173.4,19.9,172.7,19.5"/>
				<path id="Fill-120" class="st16" d="M186,27.1l-8.7-5c-0.7-0.4-0.6-1.1,0.2-1.6l2.8-1.6c0.8-0.5,2-0.5,2.7-0.1l8.7,5
					c0.7,0.4,0.6,1.1-0.2,1.6l-2.8,1.6C187.9,27.5,186.7,27.5,186,27.1"/>
				<path id="Fill-122" class="st16" d="M199.2,34.8l-8.7-5c-0.7-0.4-0.6-1.1,0.2-1.6l2.8-1.6c0.8-0.5,2-0.5,2.7-0.1l8.7,5
					c0.7,0.4,0.6,1.1-0.2,1.6l-2.8,1.6C201.2,35.1,199.9,35.2,199.2,34.8"/>
				<path id="Fill-124" class="st16" d="M212.5,42.5l-8.7-5c-0.7-0.4-0.6-1.1,0.2-1.6l2.8-1.6c0.8-0.5,2-0.5,2.7-0.1l8.7,5
					c0.7,0.4,0.6,1.1-0.2,1.6l-2.8,1.6C214.4,42.8,213.2,42.9,212.5,42.5"/>
				<path id="Fill-126" class="st16" d="M286.7,85.3l-8.7-5c-0.7-0.4-0.6-1.1,0.2-1.6l2.8-1.6c0.8-0.5,2-0.5,2.7-0.1l8.7,5
					c0.7,0.4,0.6,1.1-0.2,1.6l-2.8,1.6C288.6,85.6,287.4,85.7,286.7,85.3"/>
				<path id="Fill-128" class="st16" d="M300,93l-8.7-5c-0.7-0.4-0.6-1.1,0.2-1.6l2.8-1.6c0.8-0.5,2-0.5,2.7-0.1l8.7,5
					c0.7,0.4,0.6,1.1-0.2,1.6l-2.8,1.6C301.9,93.3,300.7,93.4,300,93"/>
				<path id="Fill-130" class="st16" d="M313.3,100.6l-8.7-5c-0.7-0.4-0.6-1.1,0.2-1.6l2.8-1.6c0.8-0.5,2-0.5,2.7-0.1l8.7,5
					c0.7,0.4,0.6,1.1-0.2,1.6l-2.8,1.6C315.2,101,314,101,313.3,100.6"/>
				<path id="Fill-132" class="st16" d="M326.6,108.3l-8.7-5c-0.7-0.4-0.6-1.1,0.2-1.6l2.8-1.6c0.8-0.5,2-0.5,2.7-0.1l8.7,5
					c0.7,0.4,0.6,1.1-0.2,1.6l-2.8,1.6C328.5,108.7,327.3,108.7,326.6,108.3"/>
				<path id="Fill-134" class="st16" d="M195,48.2l-8.7-5c-0.7-0.4-0.6-1.1,0.2-1.6l8.6-5c0.8-0.5,2-0.5,2.7-0.1l8.7,5
					c0.7,0.4,0.6,1.1-0.2,1.6l-8.6,5C196.9,48.5,195.7,48.6,195,48.2"/>
				<path id="Fill-136" class="st16" d="M208.4,55.9l-8.7-5c-0.7-0.4-0.6-1.1,0.2-1.6l8.6-5c0.8-0.5,2-0.5,2.7-0.1l8.7,5
					c0.7,0.4,0.6,1.1-0.2,1.6l-8.6,5C210.3,56.3,209.1,56.3,208.4,55.9"/>
				<path id="Fill-138" class="st16" d="M221.8,63.7l-8.7-5c-0.7-0.4-0.6-1.1,0.2-1.6l8.6-5c0.8-0.5,2-0.5,2.7-0.1l8.7,5
					c0.7,0.4,0.6,1.1-0.2,1.6l-8.6,5C223.7,64,222.5,64.1,221.8,63.7"/>
				<path id="Fill-140" class="st16" d="M235.2,71.4l-8.7-5c-0.7-0.4-0.6-1.1,0.2-1.6l8.6-5c0.8-0.5,2-0.5,2.7-0.1l8.7,5
					c0.7,0.4,0.6,1.1-0.2,1.6l-8.6,5C237.1,71.8,235.9,71.8,235.2,71.4"/>
				<path id="Fill-142" class="st16" d="M248.6,79.1l-8.7-5c-0.7-0.4-0.6-1.1,0.2-1.6l8.6-5c0.8-0.5,2-0.5,2.7-0.1l8.7,5
					c0.7,0.4,0.6,1.1-0.2,1.6l-8.6,5C250.5,79.5,249.3,79.5,248.6,79.1"/>
				<path id="Fill-144" class="st16" d="M262,86.9l-8.7-5c-0.7-0.4-0.6-1.1,0.2-1.6l8.6-5c0.8-0.5,2-0.5,2.7-0.1l8.7,5
					c0.7,0.4,0.6,1.1-0.2,1.6l-8.6,5C263.9,87.2,262.7,87.3,262,86.9"/>
				<path id="Fill-146" class="st16" d="M275.4,94.6l-8.7-5c-0.7-0.4-0.6-1.1,0.2-1.6l8.6-5c0.8-0.5,2-0.5,2.7-0.1l8.7,5
					c0.7,0.4,0.6,1.1-0.2,1.6l-8.6,5C277.3,95,276.1,95,275.4,94.6"/>
				<path id="Fill-148" class="st16" d="M288.8,102.4l-8.7-5c-0.7-0.4-0.6-1.1,0.2-1.6l8.6-5c0.8-0.5,2-0.5,2.7-0.1l8.7,5
					c0.7,0.4,0.6,1.1-0.2,1.6l-8.6,5C290.7,102.7,289.5,102.8,288.8,102.4"/>
				<path id="Fill-150" class="st16" d="M302.2,110.1l-8.7-5c-0.7-0.4-0.6-1.1,0.2-1.6l8.6-5c0.8-0.5,2-0.5,2.7-0.1l8.7,5
					c0.7,0.4,0.6,1.1-0.2,1.6l-8.6,5C304.2,110.5,302.9,110.5,302.2,110.1"/>
				<path id="Fill-152" class="st16" d="M118.3,49.1L92.7,34.4c-0.7-0.4-0.6-1.1,0.2-1.6l8.6-5c0.8-0.5,2-0.5,2.7-0.1l25.6,14.8
					c0.7,0.4,0.6,1.1-0.2,1.6l-8.6,5C120.2,49.5,119,49.5,118.3,49.1"/>
				<path id="Fill-154" class="st16" d="M283,144.2l-25.6-14.8c-0.7-0.4-0.6-1.1,0.2-1.6l8.6-5c0.8-0.5,2-0.5,2.7-0.1l25.6,14.8
					c0.7,0.4,0.6,1.1-0.2,1.6l-8.6,5C285,144.6,283.7,144.6,283,144.2"/>
				<path id="Fill-156" class="st16" d="M229.4,130.4l-8.7-5c-0.7-0.4-0.6-1.1,0.2-1.6l10.2-5.9c0.8-0.5,2-0.5,2.7-0.1l8.7,5
					c0.7,0.4,0.6,1.1-0.2,1.6l-10.2,5.9C231.3,130.7,230.1,130.8,229.4,130.4"/>
				<path id="Fill-158" class="st16" d="M132,74.2l-13.9-8c-0.7-0.4-0.6-1.1,0.2-1.6l10.2-5.9c0.8-0.5,2-0.5,2.7-0.1l13.9,8
					c0.7,0.4,0.6,1.1-0.2,1.6L134.8,74C134,74.5,132.7,74.6,132,74.2"/>
				<path id="Fill-160" class="st16" d="M216.5,122.9l-13.9-8c-0.7-0.4-0.6-1.1,0.2-1.6l10.2-5.9c0.8-0.5,2-0.5,2.7-0.1l13.9,8
					c0.7,0.4,0.6,1.1-0.2,1.6l-10.2,5.9C218.4,123.3,217.2,123.3,216.5,122.9"/>
				<path id="Fill-162" class="st16" d="M151.4,85.3l-13.9-8c-0.7-0.4-0.6-1.1,0.2-1.6l10.2-5.9c0.8-0.5,2-0.5,2.7-0.1l13.9,8
					c0.7,0.4,0.6,1.1-0.2,1.6l-10.2,5.9C153.3,85.7,152.1,85.7,151.4,85.3"/>
				<path id="Fill-164" class="st16" d="M150.8,69.8l60.4,34.9c0.7,0.4,0.7,1.1,0,1.6l-10.5,6c-0.7,0.4-2,0.4-2.7,0l-60.4-34.9
					L150.8,69.8z"/>
				<path id="Fill-166" class="st16" d="M266.9,144.4l9.7,5.6c0.6,0.3,0.5,0.9-0.2,1.3l-4.2,2.4c-0.7,0.4-1.7,0.4-2.2,0.1l-9.7-5.6
					c-0.6-0.3-0.5-0.9,0.2-1.3l4.2-2.4C265.3,144.1,266.3,144.1,266.9,144.4"/>
				<path id="Fill-168" class="st16" d="M253.4,136.6l9.7,5.6c0.6,0.3,0.5,0.9-0.2,1.3l-4.2,2.4c-0.7,0.4-1.7,0.4-2.2,0.1l-9.7-5.6
					c-0.6-0.3-0.5-0.9,0.2-1.3l4.2-2.4C251.8,136.3,252.8,136.3,253.4,136.6"/>
				<path id="Fill-170" class="st16" d="M240,128.9l9.7,5.6c0.6,0.3,0.5,0.9-0.2,1.3l-4.2,2.4c-0.7,0.4-1.7,0.4-2.2,0.1l-9.7-5.6
					c-0.6-0.3-0.5-0.9,0.2-1.3l4.2-2.4C238.4,128.6,239.4,128.5,240,128.9"/>
				<path id="Fill-172" class="st16" d="M260.8,132.3l9.7,5.6c0.6,0.3,0.5,0.9-0.2,1.3l-4.2,2.4c-0.7,0.4-1.7,0.4-2.2,0.1l-9.7-5.6
					c-0.6-0.3-0.5-0.9,0.2-1.3l4.2-2.4C259.2,132,260.2,132,260.8,132.3"/>
			</g>
			<g id="Group-323" transform="translate(115.745612, 0.000000)">
				<path id="Fill-175" class="st17" d="M86.6,47.9l-8.7-5c-0.7-0.4-0.6-1.1,0.2-1.6l10.2-5.9c0.8-0.5,2-0.5,2.7-0.1l8.7,5
					c0.7,0.4,0.6,1.1-0.2,1.6l-10.2,5.9C88.5,48.3,87.3,48.3,86.6,47.9"/>
				<path id="Fill-177" class="st17" d="M100,55.7l-8.7-5c-0.7-0.4-0.6-1.1,0.2-1.6l10.2-5.9c0.8-0.5,2-0.5,2.7-0.1l8.7,5
					c0.7,0.4,0.6,1.1-0.2,1.6l-10.2,5.9C101.9,56,100.7,56.1,100,55.7"/>
				<path id="Fill-179" class="st17" d="M113.4,63.4l-8.7-5c-0.7-0.4-0.6-1.1,0.2-1.6l10.2-5.9c0.8-0.5,2-0.5,2.7-0.1l8.7,5
					c0.7,0.4,0.6,1.1-0.2,1.6l-10.2,5.9C115.3,63.8,114.1,63.8,113.4,63.4"/>
				<path id="Fill-181" class="st17" d="M132,57l-8.7-5c-0.7-0.4-0.6-1.1,0.2-1.6l8.6-5c0.8-0.5,2-0.5,2.7-0.1l8.7,5
					c0.7,0.4,0.6,1.1-0.2,1.6l-8.6,5C133.9,57.4,132.7,57.4,132,57"/>
				<path id="Fill-183" class="st17" d="M145.4,64.8l-8.7-5c-0.7-0.4-0.6-1.1,0.2-1.6l8.6-5c0.8-0.5,2-0.5,2.7-0.1l8.7,5
					c0.7,0.4,0.6,1.1-0.2,1.6l-8.6,5C147.3,65.1,146.1,65.2,145.4,64.8"/>
				<path id="Fill-185" class="st17" d="M158.8,72.5l-8.7-5c-0.7-0.4-0.6-1.1,0.2-1.6l8.6-5c0.8-0.5,2-0.5,2.7-0.1l8.7,5
					c0.7,0.4,0.6,1.1-0.2,1.6l-8.6,5C160.7,72.9,159.5,72.9,158.8,72.5"/>
				<path id="Fill-187" class="st17" d="M172.2,80.2l-8.7-5c-0.7-0.4-0.6-1.1,0.2-1.6l8.6-5c0.8-0.5,2-0.5,2.7-0.1l8.7,5
					c0.7,0.4,0.6,1.1-0.2,1.6l-8.6,5C174.1,80.6,172.9,80.6,172.2,80.2"/>
				<path id="Fill-189" class="st17" d="M185.6,88l-8.7-5c-0.7-0.4-0.6-1.1,0.2-1.6l8.6-5c0.8-0.5,2-0.5,2.7-0.1l8.7,5
					c0.7,0.4,0.6,1.1-0.2,1.6l-8.6,5C187.5,88.3,186.3,88.4,185.6,88"/>
				<path id="Fill-191" class="st17" d="M199,95.7l-8.7-5c-0.7-0.4-0.6-1.1,0.2-1.6l8.6-5c0.8-0.5,2-0.5,2.7-0.1l8.7,5
					c0.7,0.4,0.6,1.1-0.2,1.6l-8.6,5C200.9,96.1,199.7,96.1,199,95.7"/>
				<path id="Fill-193" class="st17" d="M212.4,103.5l-8.7-5c-0.7-0.4-0.6-1.1,0.2-1.6l8.6-5c0.8-0.5,2-0.5,2.7-0.1l8.7,5
					c0.7,0.4,0.6,1.1-0.2,1.6l-8.6,5C214.3,103.8,213.1,103.9,212.4,103.5"/>
				<path id="Fill-195" class="st17" d="M225.8,111.2l-8.7-5c-0.7-0.4-0.6-1.1,0.2-1.6l8.6-5c0.8-0.5,2-0.5,2.7-0.1l8.7,5
					c0.7,0.4,0.6,1.1-0.2,1.6l-8.6,5C227.8,111.6,226.5,111.6,225.8,111.2"/>
				<path id="Fill-197" class="st17" d="M239.2,119l-8.7-5c-0.7-0.4-0.6-1.1,0.2-1.6l8.6-5c0.8-0.5,2-0.5,2.7-0.1l8.7,5
					c0.7,0.4,0.6,1.1-0.2,1.6l-8.6,5C241.2,119.3,239.9,119.4,239.2,119"/>
				<path id="Fill-199" class="st17" d="M252.7,126.7l-8.7-5c-0.7-0.4-0.6-1.1,0.2-1.6l8.6-5c0.8-0.5,2-0.5,2.7-0.1l8.7,5
					c0.7,0.4,0.6,1.1-0.2,1.6l-8.6,5C254.6,127,253.4,127.1,252.7,126.7"/>
				<path id="Fill-201" class="st17" d="M151.7,53.4l-8.7-5c-0.7-0.4-0.6-1.1,0.2-1.6l8.6-5c0.8-0.5,2-0.5,2.7-0.1l8.7,5
					c0.7,0.4,0.6,1.1-0.2,1.6l-8.6,5C153.6,53.7,152.4,53.8,151.7,53.4"/>
				<path id="Fill-203" class="st17" d="M138.1,45.5l-8.7-5c-0.7-0.4-0.6-1.1,0.2-1.6l8.6-5c0.8-0.5,2-0.5,2.7-0.1l8.7,5
					c0.7,0.4,0.6,1.1-0.2,1.6l-8.6,5C140,45.8,138.8,45.9,138.1,45.5"/>
				<path id="Fill-205" class="st17" d="M124.5,37.6l-18.7-10.8c-0.7-0.4-0.6-1.1,0.2-1.6l8.6-5c0.8-0.5,2-0.5,2.7-0.1L136,31
					c0.7,0.4,0.6,1.1-0.2,1.6l-8.6,5C126.4,38,125.2,38,124.5,37.6"/>
				<path id="Fill-207" class="st17" d="M134,28.1l-15.2-8.8c-0.7-0.4-0.6-1.1,0.2-1.6l8.6-5c0.8-0.5,2-0.5,2.7-0.1l15.2,8.8
					c0.7,0.4,0.6,1.1-0.2,1.6l-8.6,5C135.9,28.4,134.7,28.5,134,28.1"/>
				<path id="Fill-209" class="st17" d="M165.1,61.1l-8.7-5c-0.7-0.4-0.6-1.1,0.2-1.6l8.6-5c0.8-0.5,2-0.5,2.7-0.1l8.7,5
					c0.7,0.4,0.6,1.1-0.2,1.6l-8.6,5C167.1,61.4,165.8,61.5,165.1,61.1"/>
				<path id="Fill-211" class="st17" d="M178.5,68.8l-8.7-5c-0.7-0.4-0.6-1.1,0.2-1.6l8.6-5c0.8-0.5,2-0.5,2.7-0.1l8.7,5
					c0.7,0.4,0.6,1.1-0.2,1.6l-8.6,5C180.5,69.2,179.2,69.2,178.5,68.8"/>
				<path id="Fill-213" class="st17" d="M192,76.6l-8.7-5c-0.7-0.4-0.6-1.1,0.2-1.6l8.6-5c0.8-0.5,2-0.5,2.7-0.1l8.7,5
					c0.7,0.4,0.6,1.1-0.2,1.6l-8.6,5C193.9,76.9,192.7,77,192,76.6"/>
				<path id="Fill-215" class="st17" d="M205.4,84.3l-8.7-5c-0.7-0.4-0.6-1.1,0.2-1.6l8.6-5c0.8-0.5,2-0.5,2.7-0.1l8.7,5
					c0.7,0.4,0.6,1.1-0.2,1.6l-8.6,5C207.3,84.7,206.1,84.7,205.4,84.3"/>
				<path id="Fill-217" class="st17" d="M218.8,92.1l-8.7-5c-0.7-0.4-0.6-1.1,0.2-1.6l8.6-5c0.8-0.5,2-0.5,2.7-0.1l8.7,5
					c0.7,0.4,0.6,1.1-0.2,1.6l-8.6,5C220.7,92.4,219.5,92.5,218.8,92.1"/>
				<path id="Fill-219" class="st17" d="M232.2,99.8l-8.7-5c-0.7-0.4-0.6-1.1,0.2-1.6l8.6-5c0.8-0.5,2-0.5,2.7-0.1l8.7,5
					c0.7,0.4,0.6,1.1-0.2,1.6l-8.6,5C234.1,100.2,232.9,100.2,232.2,99.8"/>
				<path id="Fill-221" class="st17" d="M245.6,107.5l-8.7-5c-0.7-0.4-0.6-1.1,0.2-1.6l8.6-5c0.8-0.5,2-0.5,2.7-0.1l8.7,5
					c0.7,0.4,0.6,1.1-0.2,1.6l-8.6,5C247.5,107.9,246.3,108,245.6,107.5"/>
				<path id="Fill-223" class="st17" d="M259,115.3l-8.7-5c-0.7-0.4-0.6-1.1,0.2-1.6l8.6-5c0.8-0.5,2-0.5,2.7-0.1l8.7,5
					c0.7,0.4,0.6,1.1-0.2,1.6l-8.6,5C260.9,115.6,259.7,115.7,259,115.3"/>
				<path id="Fill-225" class="st17" d="M272.4,123l-8.7-5c-0.7-0.4-0.6-1.1,0.2-1.6l8.6-5c0.8-0.5,2-0.5,2.7-0.1l8.7,5
					c0.7,0.4,0.6,1.1-0.2,1.6l-8.6,5C274.3,123.4,273.1,123.4,272.4,123"/>
				<path id="Fill-227" class="st17" d="M296.3,136.8l-18.9-10.9c-0.7-0.4-0.6-1.1,0.2-1.6l8.6-5c0.8-0.5,2-0.5,2.7-0.1l18.9,10.9
					c0.7,0.4,0.6,1.1-0.2,1.6l-8.6,5C298.2,137.1,296.9,137.2,296.3,136.8"/>
				<path id="Fill-229" class="st17" d="M322.4,121.7l-16-9.2c-0.7-0.4-0.6-1.1,0.2-1.6l8.6-5c0.8-0.5,2-0.5,2.7-0.1l16,9.2
					c0.7,0.4,0.6,1.1-0.2,1.6l-8.6,5C324.3,122.1,323.1,122.1,322.4,121.7"/>
				<path id="Fill-231" class="st17" d="M188.6,59.6l-8.7-5c-0.7-0.4-0.6-1.1,0.2-1.6l8.6-5c0.8-0.5,2-0.5,2.7-0.1l8.7,5
					c0.7,0.4,0.6,1.1-0.2,1.6l-8.6,5C190.5,59.9,189.3,60,188.6,59.6"/>
				<path id="Fill-233" class="st17" d="M174.9,51.6l-8.7-5c-0.7-0.4-0.6-1.1,0.2-1.6l8.6-5c0.8-0.5,2-0.5,2.7-0.1l8.7,5
					c0.7,0.4,0.6,1.1-0.2,1.6l-8.6,5C176.8,52,175.6,52,174.9,51.6"/>
				<path id="Fill-235" class="st17" d="M161.1,43.7l-8.7-5c-0.7-0.4-0.6-1.1,0.2-1.6l8.6-5c0.8-0.5,2-0.5,2.7-0.1l8.7,5
					c0.7,0.4,0.6,1.1-0.2,1.6l-8.6,5C163.1,44.1,161.8,44.1,161.1,43.7"/>
				<path id="Fill-237" class="st17" d="M147.4,35.8l-8.7-5c-0.7-0.4-0.6-1.1,0.2-1.6l8.6-5c0.8-0.5,2-0.5,2.7-0.1l8.7,5
					c0.7,0.4,0.6,1.1-0.2,1.6l-8.6,5C149.3,36.1,148.1,36.2,147.4,35.8"/>
				<path id="Fill-239" class="st17" d="M202,67.3l-8.7-5c-0.7-0.4-0.6-1.1,0.2-1.6l8.6-5c0.8-0.5,2-0.5,2.7-0.1l8.7,5
					c0.7,0.4,0.6,1.1-0.2,1.6l-8.6,5C203.9,67.7,202.7,67.7,202,67.3"/>
				<path id="Fill-241" class="st17" d="M215.4,75.1l-8.7-5c-0.7-0.4-0.6-1.1,0.2-1.6l8.6-5c0.8-0.5,2-0.5,2.7-0.1l8.7,5
					c0.7,0.4,0.6,1.1-0.2,1.6l-8.6,5C217.4,75.4,216.1,75.5,215.4,75.1"/>
				<path id="Fill-243" class="st17" d="M228.8,82.8l-8.7-5c-0.7-0.4-0.6-1.1,0.2-1.6l8.6-5c0.8-0.5,2-0.5,2.7-0.1l8.7,5
					c0.7,0.4,0.6,1.1-0.2,1.6l-8.6,5C230.8,83.2,229.5,83.2,228.8,82.8"/>
				<path id="Fill-245" class="st17" d="M242.3,90.5l-8.7-5c-0.7-0.4-0.6-1.1,0.2-1.6l8.6-5c0.8-0.5,2-0.5,2.7-0.1l8.7,5
					c0.7,0.4,0.6,1.1-0.2,1.6l-8.6,5C244.2,90.9,243,91,242.3,90.5"/>
				<path id="Fill-247" class="st17" d="M255.7,98.3l-8.7-5c-0.7-0.4-0.6-1.1,0.2-1.6l8.6-5c0.8-0.5,2-0.5,2.7-0.1l8.7,5
					c0.7,0.4,0.6,1.1-0.2,1.6l-8.6,5C257.6,98.6,256.4,98.7,255.7,98.3"/>
				<path id="Fill-249" class="st17" d="M269.1,106l-8.7-5c-0.7-0.4-0.6-1.1,0.2-1.6l8.6-5c0.8-0.5,2-0.5,2.7-0.1l8.7,5
					c0.7,0.4,0.6,1.1-0.2,1.6l-8.6,5C271,106.4,269.8,106.4,269.1,106"/>
				<path id="Fill-251" class="st17" d="M282.5,113.8l-8.7-5c-0.7-0.4-0.6-1.1,0.2-1.6l8.6-5c0.8-0.5,2-0.5,2.7-0.1l8.7,5
					c0.7,0.4,0.6,1.1-0.2,1.6l-8.6,5C284.4,114.1,283.2,114.2,282.5,113.8"/>
				<path id="Fill-253" class="st17" d="M295.9,121.5l-8.7-5c-0.7-0.4-0.6-1.1,0.2-1.6l8.6-5c0.8-0.5,2-0.5,2.7-0.1l8.7,5
					c0.7,0.4,0.6,1.1-0.2,1.6l-8.6,5C297.8,121.9,296.6,121.9,295.9,121.5"/>
				<path id="Fill-255" class="st17" d="M309.3,129.3l-8.7-5c-0.7-0.4-0.6-1.1,0.2-1.6l8.6-5c0.8-0.5,2-0.5,2.7-0.1l8.7,5
					c0.7,0.4,0.6,1.1-0.2,1.6l-8.6,5C311.2,129.6,310,129.7,309.3,129.3"/>
				<path id="Fill-257" class="st17" d="M181.6,40.4l-8.7-5c-0.7-0.4-0.6-1.1,0.2-1.6l8.6-5c0.8-0.5,2-0.5,2.7-0.1l8.7,5
					c0.7,0.4,0.6,1.1-0.2,1.6l-8.6,5C183.5,40.8,182.3,40.8,181.6,40.4"/>
				<path id="Fill-259" class="st17" d="M168.2,32.7l-8.7-5c-0.7-0.4-0.6-1.1,0.2-1.6l8.6-5c0.8-0.5,2-0.5,2.7-0.1l8.7,5
					c0.7,0.4,0.6,1.1-0.2,1.6l-8.6,5C170.1,33.1,168.9,33.1,168.2,32.7"/>
				<path id="Fill-261" class="st17" d="M154.9,25l-8.7-5c-0.7-0.4-0.6-1.1,0.2-1.6l8.6-5c0.8-0.5,2-0.5,2.7-0.1l8.7,5
					c0.7,0.4,0.6,1.1-0.2,1.6l-8.6,5C156.8,25.4,155.6,25.4,154.9,25"/>
				<path id="Fill-263" class="st17" d="M141.5,17.3l-8.7-5c-0.7-0.4-0.6-1.1,0.2-1.6l8.6-5c0.8-0.5,2-0.5,2.7-0.1l8.7,5
					c0.7,0.4,0.6,1.1-0.2,1.6l-8.6,5C143.4,17.7,142.2,17.7,141.5,17.3"/>
				<path id="Fill-265" class="st17" d="M155.3,9.4l-8.7-5c-0.7-0.4-0.6-1.1,0.2-1.6l2.8-1.6c0.8-0.5,2-0.5,2.7-0.1l8.7,5
					c0.7,0.4,0.6,1.1-0.2,1.6L158,9.3C157.2,9.8,156,9.8,155.3,9.4"/>
				<path id="Fill-267" class="st17" d="M172.7,19.5l-8.7-5c-0.7-0.4-0.6-1.1,0.2-1.6l2.8-1.6c0.8-0.5,2-0.5,2.7-0.1l8.7,5
					c0.7,0.4,0.6,1.1-0.2,1.6l-2.8,1.6C174.6,19.8,173.4,19.9,172.7,19.5"/>
				<path id="Fill-269" class="st17" d="M186,27.1l-8.7-5c-0.7-0.4-0.6-1.1,0.2-1.6l2.8-1.6c0.8-0.5,2-0.5,2.7-0.1l8.7,5
					c0.7,0.4,0.6,1.1-0.2,1.6l-2.8,1.6C187.9,27.5,186.7,27.5,186,27.1"/>
				<path id="Fill-271" class="st17" d="M199.2,34.8l-8.7-5c-0.7-0.4-0.6-1.1,0.2-1.6l2.8-1.6c0.8-0.5,2-0.5,2.7-0.1l8.7,5
					c0.7,0.4,0.6,1.1-0.2,1.6l-2.8,1.6C201.2,35.1,199.9,35.2,199.2,34.8"/>
				<path id="Fill-273" class="st17" d="M212.5,42.5l-8.7-5c-0.7-0.4-0.6-1.1,0.2-1.6l2.8-1.6c0.8-0.5,2-0.5,2.7-0.1l8.7,5
					c0.7,0.4,0.6,1.1-0.2,1.6l-2.8,1.6C214.4,42.8,213.2,42.9,212.5,42.5"/>
				<path id="Fill-275" class="st17" d="M286.7,85.3l-8.7-5c-0.7-0.4-0.6-1.1,0.2-1.6l2.8-1.6c0.8-0.5,2-0.5,2.7-0.1l8.7,5
					c0.7,0.4,0.6,1.1-0.2,1.6l-2.8,1.6C288.6,85.6,287.4,85.7,286.7,85.3"/>
				<path id="Fill-277" class="st17" d="M300,93l-8.7-5c-0.7-0.4-0.6-1.1,0.2-1.6l2.8-1.6c0.8-0.5,2-0.5,2.7-0.1l8.7,5
					c0.7,0.4,0.6,1.1-0.2,1.6l-2.8,1.6C301.9,93.3,300.7,93.4,300,93"/>
				<path id="Fill-279" class="st17" d="M313.3,100.6l-8.7-5c-0.7-0.4-0.6-1.1,0.2-1.6l2.8-1.6c0.8-0.5,2-0.5,2.7-0.1l8.7,5
					c0.7,0.4,0.6,1.1-0.2,1.6l-2.8,1.6C315.2,101,314,101,313.3,100.6"/>
				<path id="Fill-281" class="st17" d="M326.6,108.3l-8.7-5c-0.7-0.4-0.6-1.1,0.2-1.6l2.8-1.6c0.8-0.5,2-0.5,2.7-0.1l8.7,5
					c0.7,0.4,0.6,1.1-0.2,1.6l-2.8,1.6C328.5,108.7,327.3,108.7,326.6,108.3"/>
				<path id="Fill-283" class="st17" d="M195,48.2l-8.7-5c-0.7-0.4-0.6-1.1,0.2-1.6l8.6-5c0.8-0.5,2-0.5,2.7-0.1l8.7,5
					c0.7,0.4,0.6,1.1-0.2,1.6l-8.6,5C196.9,48.5,195.7,48.6,195,48.2"/>
				<path id="Fill-285" class="st17" d="M208.4,55.9l-8.7-5c-0.7-0.4-0.6-1.1,0.2-1.6l8.6-5c0.8-0.5,2-0.5,2.7-0.1l8.7,5
					c0.7,0.4,0.6,1.1-0.2,1.6l-8.6,5C210.3,56.3,209.1,56.3,208.4,55.9"/>
				<path id="Fill-287" class="st17" d="M221.8,63.7l-8.7-5c-0.7-0.4-0.6-1.1,0.2-1.6l8.6-5c0.8-0.5,2-0.5,2.7-0.1l8.7,5
					c0.7,0.4,0.6,1.1-0.2,1.6l-8.6,5C223.7,64,222.5,64.1,221.8,63.7"/>
				<path id="Fill-289" class="st17" d="M235.2,71.4l-8.7-5c-0.7-0.4-0.6-1.1,0.2-1.6l8.6-5c0.8-0.5,2-0.5,2.7-0.1l8.7,5
					c0.7,0.4,0.6,1.1-0.2,1.6l-8.6,5C237.1,71.8,235.9,71.8,235.2,71.4"/>
				<path id="Fill-291" class="st17" d="M248.6,79.1l-8.7-5c-0.7-0.4-0.6-1.1,0.2-1.6l8.6-5c0.8-0.5,2-0.5,2.7-0.1l8.7,5
					c0.7,0.4,0.6,1.1-0.2,1.6l-8.6,5C250.5,79.5,249.3,79.5,248.6,79.1"/>
				<path id="Fill-293" class="st17" d="M262,86.9l-8.7-5c-0.7-0.4-0.6-1.1,0.2-1.6l8.6-5c0.8-0.5,2-0.5,2.7-0.1l8.7,5
					c0.7,0.4,0.6,1.1-0.2,1.6l-8.6,5C263.9,87.2,262.7,87.3,262,86.9"/>
				<path id="Fill-295" class="st17" d="M275.4,94.6l-8.7-5c-0.7-0.4-0.6-1.1,0.2-1.6l8.6-5c0.8-0.5,2-0.5,2.7-0.1l8.7,5
					c0.7,0.4,0.6,1.1-0.2,1.6l-8.6,5C277.3,95,276.1,95,275.4,94.6"/>
				<path id="Fill-297" class="st17" d="M288.8,102.4l-8.7-5c-0.7-0.4-0.6-1.1,0.2-1.6l8.6-5c0.8-0.5,2-0.5,2.7-0.1l8.7,5
					c0.7,0.4,0.6,1.1-0.2,1.6l-8.6,5C290.7,102.7,289.5,102.8,288.8,102.4"/>
				<path id="Fill-299" class="st17" d="M302.2,110.1l-8.7-5c-0.7-0.4-0.6-1.1,0.2-1.6l8.6-5c0.8-0.5,2-0.5,2.7-0.1l8.7,5
					c0.7,0.4,0.6,1.1-0.2,1.6l-8.6,5C304.2,110.5,302.9,110.5,302.2,110.1"/>
				<path id="Fill-301" class="st17" d="M118.3,49.1L92.7,34.4c-0.7-0.4-0.6-1.1,0.2-1.6l8.6-5c0.8-0.5,2-0.5,2.7-0.1l25.6,14.8
					c0.7,0.4,0.6,1.1-0.2,1.6l-8.6,5C120.2,49.5,119,49.5,118.3,49.1"/>
				<path id="Fill-303" class="st17" d="M283,144.2l-25.6-14.8c-0.7-0.4-0.6-1.1,0.2-1.6l8.6-5c0.8-0.5,2-0.5,2.7-0.1l25.6,14.8
					c0.7,0.4,0.6,1.1-0.2,1.6l-8.6,5C285,144.6,283.7,144.6,283,144.2"/>
				<path id="Fill-305" class="st17" d="M229.4,130.4l-8.7-5c-0.7-0.4-0.6-1.1,0.2-1.6l10.2-5.9c0.8-0.5,2-0.5,2.7-0.1l8.7,5
					c0.7,0.4,0.6,1.1-0.2,1.6l-10.2,5.9C231.3,130.7,230.1,130.8,229.4,130.4"/>
				<path id="Fill-307" class="st17" d="M132,74.2l-13.9-8c-0.7-0.4-0.6-1.1,0.2-1.6l10.2-5.9c0.8-0.5,2-0.5,2.7-0.1l13.9,8
					c0.7,0.4,0.6,1.1-0.2,1.6L134.8,74C134,74.5,132.7,74.6,132,74.2"/>
				<path id="Fill-309" class="st17" d="M216.5,122.9l-13.9-8c-0.7-0.4-0.6-1.1,0.2-1.6l10.2-5.9c0.8-0.5,2-0.5,2.7-0.1l13.9,8
					c0.7,0.4,0.6,1.1-0.2,1.6l-10.2,5.9C218.4,123.3,217.2,123.3,216.5,122.9"/>
				<path id="Fill-311" class="st17" d="M151.4,85.3l-13.9-8c-0.7-0.4-0.6-1.1,0.2-1.6l10.2-5.9c0.8-0.5,2-0.5,2.7-0.1l13.9,8
					c0.7,0.4,0.6,1.1-0.2,1.6l-10.2,5.9C153.3,85.7,152.1,85.7,151.4,85.3"/>
				<path id="Fill-313" class="st17" d="M150.8,69.8l60.4,34.9c0.7,0.4,0.7,1.1,0,1.6l-10.5,6c-0.7,0.4-2,0.4-2.7,0l-60.4-34.9
					L150.8,69.8z"/>
				<path id="Fill-315" class="st17" d="M266.9,144.4l9.7,5.6c0.6,0.3,0.5,0.9-0.2,1.3l-4.2,2.4c-0.7,0.4-1.7,0.4-2.2,0.1l-9.7-5.6
					c-0.6-0.3-0.5-0.9,0.2-1.3l4.2-2.4C265.3,144.1,266.3,144.1,266.9,144.4"/>
				<path id="Fill-317" class="st17" d="M253.4,136.6l9.7,5.6c0.6,0.3,0.5,0.9-0.2,1.3l-4.2,2.4c-0.7,0.4-1.7,0.4-2.2,0.1l-9.7-5.6
					c-0.6-0.3-0.5-0.9,0.2-1.3l4.2-2.4C251.8,136.3,252.8,136.3,253.4,136.6"/>
				<path id="Fill-319" class="st17" d="M240,128.9l9.7,5.6c0.6,0.3,0.5,0.9-0.2,1.3l-4.2,2.4c-0.7,0.4-1.7,0.4-2.2,0.1l-9.7-5.6
					c-0.6-0.3-0.5-0.9,0.2-1.3l4.2-2.4C238.4,128.6,239.4,128.5,240,128.9"/>
				<path id="Fill-321" class="st17" d="M260.8,132.3l9.7,5.6c0.6,0.3,0.5,0.9-0.2,1.3l-4.2,2.4c-0.7,0.4-1.7,0.4-2.2,0.1l-9.7-5.6
					c-0.6-0.3-0.5-0.9,0.2-1.3l4.2-2.4C259.2,132,260.2,132,260.8,132.3"/>
			</g>
		</g>
		<g id="Group-327" transform="translate(332.991222, 51.262841)">
			<g id="Clip-326">
			</g>
			<defs>
				<filter id="Adobe_OpacityMaskFilter_7_" filterUnits="userSpaceOnUse" x="77.3" y="0.1" width="329.6" height="354.9">
					<feColorMatrix  type="matrix" values="1 0 0 0 0  0 1 0 0 0  0 0 1 0 0  0 0 0 1 0"/>
				</filter>
			</defs>
			<mask maskUnits="userSpaceOnUse" x="77.3" y="0.1" width="329.6" height="354.9" id="mask-20_1_">
				<g class="st18">
					<path id="path-19_1_" class="st1" d="M135.6,5.4L77.7,193.5c-1.4,4.7,0.7,10.3,4.7,12.7l0,0L338.6,354c4,2.3,8.5,0.4,9.9-4.2
						l0,0l57.9-188.1c1.4-4.7-0.7-10.3-4.7-12.7l0,0L145.5,1.1c-1.2-0.7-2.4-1-3.5-1l0,0C139.2,0.1,136.7,2,135.6,5.4"/>
				</g>
			</mask>
			<path id="Fill-325" class="st19" d="M135.6,5.4L77.7,193.5c-1.4,4.7,0.7,10.3,4.7,12.7l0,0L338.6,354c4,2.3,8.5,0.4,9.9-4.2l0,0
				l57.9-188.1c1.4-4.7-0.7-10.3-4.7-12.7l0,0L145.5,1.1c-1.2-0.7-2.4-1-3.5-1l0,0C139.2,0.1,136.7,2,135.6,5.4"/>
		</g>
		<g id="Group-330" transform="translate(338.333328, 58.098438)">
			<g id="Clip-329">
			</g>
			<defs>
				<filter id="Adobe_OpacityMaskFilter_8_" filterUnits="userSpaceOnUse" x="77.4" y="0.1" width="318.7" height="341.5">
					<feColorMatrix  type="matrix" values="1 0 0 0 0  0 1 0 0 0  0 0 1 0 0  0 0 0 1 0"/>
				</filter>
			</defs>
			<mask maskUnits="userSpaceOnUse" x="77.4" y="0.1" width="318.7" height="341.5" id="mask-22_1_">
				<g class="st20">
					<path id="path-21_1_" class="st1" d="M133.2,5.1L77.9,184.9c-1.4,4.5,0.6,9.9,4.5,12.1l0,0l248.5,143.6
						c3.9,2.2,8.1,0.4,9.5-4.1l0,0l55.4-179.8c1.4-4.5-0.6-9.9-4.5-12.1l0,0L142.7,1c-1.1-0.6-2.3-1-3.4-1l0,0
						C136.6,0.1,134.2,1.9,133.2,5.1"/>
				</g>
			</mask>
			
				<linearGradient id="Fill-328_1_" gradientUnits="userSpaceOnUse" x1="-347.3113" y1="531.6066" x2="-346.3113" y2="531.6066" gradientTransform="matrix(318.6852 0 0 -341.4636 110760.4297 181695.0938)">
				<stop  offset="0" style="stop-color:#3818BA"/>
				<stop  offset="1" style="stop-color:#6407F9"/>
			</linearGradient>
			<path id="Fill-328" class="st21" d="M133.2,5.1L77.9,184.9c-1.4,4.5,0.6,9.9,4.5,12.1l0,0l248.5,143.6c3.9,2.2,8.1,0.4,9.5-4.1
				l0,0l55.4-179.8c1.4-4.5-0.6-9.9-4.5-12.1l0,0L142.7,1c-1.1-0.6-2.3-1-3.4-1l0,0C136.6,0.1,134.2,1.9,133.2,5.1"/>
		</g>
		<g id="Group-337" transform="translate(338.333328, 58.098438)">
			<path id="Fill-331" class="st16" d="M330.8,340.6L82.4,197c-3.9-2.2-5.9-7.6-4.5-12.1L133.2,5.1c1.4-4.5,5.6-6.3,9.5-4.1
				l248.5,143.6c3.9,2.2,5.9,7.6,4.5,12.1l-55.4,179.8C338.9,341,334.7,342.8,330.8,340.6"/>
			<path id="Fill-333" class="st17" d="M330.8,340.6L82.4,197c-3.9-2.2-5.9-7.6-4.5-12.1L133.2,5.1c1.4-4.5,5.6-6.3,9.5-4.1
				l248.5,143.6c3.9,2.2,5.9,7.6,4.5,12.1l-55.4,179.8C338.9,341,334.7,342.8,330.8,340.6"/>
			<path id="Fill-335" class="st7" d="M317.5,285.6l-168.2-97.1c-2.6-1.5-4-5.2-3.1-8.3l38-123.5c0.9-3.1,3.8-4.3,6.5-2.8L358.9,151
				c2.6,1.5,4,5.2,3.1,8.3l-38,123.5C323,285.9,320.1,287.2,317.5,285.6"/>
		</g>
		<g id="Group-340" transform="translate(384.122800, 114.096173)">
			<g id="Clip-339">
			</g>
			<defs>
				<filter id="Adobe_OpacityMaskFilter_9_" filterUnits="userSpaceOnUse" x="77.4" y="0.3" width="216.4" height="233">
					<feColorMatrix  type="matrix" values="1 0 0 0 0  0 1 0 0 0  0 0 1 0 0  0 0 0 1 0"/>
				</filter>
			</defs>
			<mask maskUnits="userSpaceOnUse" x="77.4" y="0.3" width="216.4" height="233" id="mask-25_1_">
				<g class="st22">
					<path id="path-24_1_" class="st1" d="M115.7,3.7l-38,123.5c-0.9,3.1,0.4,6.8,3.1,8.3l0,0L249,232.6c2.6,1.5,5.6,0.3,6.5-2.8
						l0,0l38-123.5c0.9-3.1-0.4-6.8-3.1-8.3l0,0L122.2,0.9c-0.8-0.4-1.6-0.7-2.3-0.7l0,0C118,0.3,116.4,1.5,115.7,3.7"/>
				</g>
			</mask>
			<path id="Fill-338" class="st23" d="M115.7,3.7l-38,123.5c-0.9,3.1,0.4,6.8,3.1,8.3l0,0L249,232.6c2.6,1.5,5.6,0.3,6.5-2.8l0,0
				l38-123.5c0.9-3.1-0.4-6.8-3.1-8.3l0,0L122.2,0.9c-0.8-0.4-1.6-0.7-2.3-0.7l0,0C118,0.3,116.4,1.5,115.7,3.7"/>
		</g>
		<g id="Group-397" transform="translate(267.105259, 114.096173)">
			<path id="Fill-341" class="st24" d="M366,232.6l-168.2-97.1c-2.6-1.5-4-5.2-3.1-8.3l38-123.5c0.9-3.1,3.8-4.3,6.5-2.8L407.4,98
				c2.6,1.5,4,5.2,3.1,8.3l-38,123.5C371.5,232.9,368.6,234.1,366,232.6"/>
			<path id="Fill-343" class="st1" d="M407.4,98L239.2,0.9c-1.7-1-3.4-0.8-4.7,0.2c0.8,0,1.6,0.2,2.4,0.6l168.2,97.1
				c2.6,1.5,4,5.2,3.1,8.3l-38,123.5c-0.4,1.1-1,2-1.8,2.6c1.8-0.1,3.4-1.3,4.1-3.4l38-123.5C411.5,103.3,410.1,99.6,407.4,98"/>
			<path id="Fill-345" class="st16" d="M123.8,263.7c-2.4,0-5,0.6-7,1.7l-34.7,20c-1.7,1-2.7,2.3-2.7,3.5c0,1.2,1,2,1.8,2.5
				l67.4,38.9c3.1,1.8,8.7,1.5,12.2-0.5l34.7-20c1.7-1,2.7-2.3,2.7-3.5c0-1.2-1-2-1.8-2.5L129,264.9
				C127.7,264.1,125.8,263.7,123.8,263.7 M153.8,333.5c-2.3,0-4.5-0.5-6.2-1.5v0l-67.4-38.9c-1.8-1-2.8-2.5-2.8-4.2
				c0-1.9,1.4-3.8,3.7-5.1l34.7-20c4.2-2.4,10.5-2.7,14.2-0.5l67.4,38.9c1.8,1,2.8,2.5,2.8,4.2c0,1.9-1.4,3.8-3.7,5.1l-34.7,20
				C159.5,332.8,156.6,333.5,153.8,333.5"/>
			<path id="Fill-347" class="st1" d="M280.2,65.7l-10.4-6c-1-0.6-1.5-1.9-1.2-3c0.3-1.1,1.4-1.5,2.3-1l10.4,6c1,0.6,1.5,1.9,1.2,3
				C282.2,65.8,281.2,66.3,280.2,65.7"/>
			<path id="Fill-349" class="st1" d="M305,80l-15.3-8.9c-1-0.6-1.5-1.9-1.2-3c0.3-1.1,1.4-1.5,2.3-1l15.3,8.9c1,0.6,1.5,1.9,1.2,3
				C307,80.1,305.9,80.6,305,80"/>
			<path id="Fill-351" class="st1" d="M259.2,112l-10.4-6c-1-0.6-1.5-1.9-1.2-3c0.3-1.1,1.4-1.5,2.3-1l10.4,6c1,0.6,1.5,1.9,1.2,3
				C261.2,112.1,260.2,112.6,259.2,112"/>
			<path id="Fill-353" class="st1" d="M281.3,124.8l-15.3-8.9c-1-0.6-1.5-1.9-1.2-3c0.3-1.1,1.4-1.5,2.3-1l15.3,8.9
				c1,0.6,1.5,1.9,1.2,3C283.3,124.9,282.3,125.3,281.3,124.8"/>
			<path id="Fill-355" class="st1" d="M249,57.5l-6.5-3.8c-1-0.6-1.5-1.9-1.2-3c0.3-1.1,1.4-1.5,2.3-1l6.5,3.8c1,0.6,1.5,1.9,1.2,3
				C251.1,57.6,250,58,249,57.5"/>
			<path id="Fill-357" class="st1" d="M268.6,78.5L248.7,67c-1-0.6-1.5-1.9-1.2-3c0.3-1.1,1.4-1.5,2.3-1l19.8,11.5
				c1,0.6,1.5,1.9,1.2,3C270.6,78.6,269.6,79,268.6,78.5"/>
			<path id="Fill-359" class="st1" d="M250.3,87.4l-6.5-3.8c-1-0.6-1.5-1.9-1.2-3c0.3-1.1,1.4-1.5,2.3-1l6.5,3.8
				c1,0.6,1.5,1.9,1.2,3C252.3,87.5,251.3,87.9,250.3,87.4"/>
			<path id="Fill-361" class="st1" d="M283.7,145.6l-17.4-10c-1-0.6-1.5-1.9-1.2-3c0.3-1.1,1.4-1.5,2.3-1l17.4,10
				c1,0.6,1.5,1.9,1.2,3C285.7,145.7,284.7,146.2,283.7,145.6"/>
			<path id="Fill-363" class="st1" d="M243,102.6l-4.2-2.4c-1-0.6-1.5-1.9-1.2-3c0.3-1.1,1.4-1.5,2.3-1l4.2,2.4c1,0.6,1.5,1.9,1.2,3
				C245,102.8,244,103.2,243,102.6"/>
			<path id="Fill-365" class="st1" d="M239.1,119.8l-5.2-3c-1-0.6-1.5-1.9-1.2-3c0.3-1.1,1.4-1.5,2.3-1l5.2,3c1,0.6,1.5,1.9,1.2,3
				C241.1,120,240,120.4,239.1,119.8"/>
			<path id="Fill-367" class="st1" d="M259.2,131.5l-13.7-7.9c-1-0.6-1.5-1.9-1.2-3c0.3-1.1,1.4-1.5,2.3-1l13.7,7.9
				c1,0.6,1.5,1.9,1.2,3C261.2,131.6,260.2,132,259.2,131.5"/>
			<path id="Fill-369" class="st1" d="M241.2,130.8l-9.8-5.7c-1-0.6-1.5-1.9-1.2-3c0.3-1.1,1.4-1.5,2.3-1l9.8,5.7
				c1,0.6,1.5,1.9,1.2,3C243.2,130.9,242.2,131.4,241.2,130.8"/>
			<path id="Fill-371" class="st1" d="M298.6,154.2l-6.3-3.6c-1-0.6-1.5-1.9-1.2-3c0.3-1.1,1.4-1.5,2.3-1l6.3,3.6
				c1,0.6,1.5,1.9,1.2,3C300.6,154.4,299.6,154.8,298.6,154.2"/>
			<path id="Fill-373" class="st1" d="M274.5,101.3l-17.4-10c-1-0.6-1.5-1.9-1.2-3c0.3-1.1,1.4-1.5,2.3-1l17.3,10
				c1,0.6,1.5,1.9,1.2,3C276.5,101.4,275.4,101.9,274.5,101.3"/>
			<path id="Fill-375" class="st25" d="M276.5,92.8l-30.2-17.5c-1-0.6-1.5-1.9-1.2-3c0.3-1.1,1.4-1.5,2.3-1l30.2,17.5
				c1,0.6,1.5,1.9,1.2,3C278.5,92.9,277.5,93.3,276.5,92.8"/>
			<path id="Fill-377" class="st25" d="M258.7,101.9l-17.4-10c-1-0.6-1.5-1.9-1.2-3c0.3-1.1,1.4-1.5,2.3-1l17.4,10
				c1,0.6,1.5,1.9,1.2,3C260.7,102.1,259.6,102.5,258.7,101.9"/>
			<path id="Fill-379" class="st25" d="M287.6,108.9l-6.3-3.6c-1-0.6-1.5-1.9-1.2-3c0.3-1.1,1.4-1.5,2.3-1l6.3,3.6
				c1,0.6,1.5,1.9,1.2,3C289.6,109,288.6,109.5,287.6,108.9"/>
			<path id="Fill-381" class="st25" d="M351.7,107l-37.3-21.6c-1-0.6-1.5-1.9-1.2-3c0.3-1.1,1.4-1.5,2.3-1l37.3,21.6
				c1,0.6,1.5,1.9,1.2,3C353.7,107.1,352.7,107.6,351.7,107"/>
			<path id="Fill-383" class="st26" d="M257.2,120.6l-20.9-12c-1-0.6-1.5-1.9-1.2-3c0.3-1.1,1.4-1.5,2.3-1l20.9,12
				c1,0.6,1.5,1.9,1.2,3C259.2,120.7,258.2,121.1,257.2,120.6"/>
			<path id="Fill-385" class="st26" d="M260.4,54.3L245,45.4c-1-0.6-1.5-1.9-1.2-3c0.3-1.1,1.4-1.5,2.3-1l15.3,8.9
				c1,0.6,1.5,1.9,1.2,3C262.4,54.4,261.3,54.8,260.4,54.3"/>
			<path id="Fill-387" class="st25" d="M238,138.7l-17.8-10.3c-1-0.6-1.5-1.9-1.2-3c0.3-1.1,1.4-1.5,2.3-1l17.8,10.3
				c1,0.6,1.5,1.9,1.2,3C240,138.8,239,139.3,238,138.7"/>
			<path id="Fill-389" class="st1" d="M355.9,87.8l-7.6-4.4c-0.7-0.4-1.1-1.4-0.8-2.2c0.2-0.8,1-1.1,1.7-0.7l7.6,4.4
				c0.7,0.4,1.1,1.4,0.8,2.2C357.4,87.9,356.6,88.2,355.9,87.8"/>
			<path id="Fill-391" class="st1" d="M370.4,96.2l-7.6-4.4c-0.7-0.4-1.1-1.4-0.8-2.2c0.2-0.8,1-1.1,1.7-0.7l7.6,4.4
				c0.7,0.4,1.1,1.4,0.8,2.2C371.9,96.3,371.1,96.6,370.4,96.2"/>
			<path id="Fill-393" class="st1" d="M384.9,104.6l-7.6-4.4c-0.7-0.4-1.1-1.4-0.8-2.2c0.2-0.8,1-1.1,1.7-0.7l7.6,4.4
				c0.7,0.4,1.1,1.4,0.8,2.2C386.4,104.6,385.6,105,384.9,104.6"/>
			<path id="Fill-395" class="st26" d="M392.1,108.7l-0.2-0.1c-0.7-0.4-1.1-1.4-0.8-2.2c0.2-0.8,1-1.1,1.7-0.7l0.2,0.1
				c0.7,0.4,1.1,1.4,0.8,2.2C393.5,108.8,392.8,109.1,392.1,108.7"/>
		</g>
		<g id="Group-400" transform="translate(121.087717, 232.894417)">
			<g id="Clip-399">
			</g>
			<defs>
				<filter id="Adobe_OpacityMaskFilter_10_" filterUnits="userSpaceOnUse" x="77.4" y="0.4" width="136.7" height="78.4">
					<feColorMatrix  type="matrix" values="1 0 0 0 0  0 1 0 0 0  0 0 1 0 0  0 0 0 1 0"/>
				</filter>
			</defs>
			<mask maskUnits="userSpaceOnUse" x="77.4" y="0.4" width="136.7" height="78.4" id="mask-27_1_">
				<g class="st27">
					<path id="path-26_1_" class="st1" d="M131.8,4.1L80.9,33.5c-2.2,1.3-3.5,3.6-3.5,6.1l0,0c0,2.5,1.3,4.8,3.5,6.1l0,0l50.9,29.4
						c4.3,2.5,9.1,3.7,13.9,3.7l0,0c4.8,0,9.6-1.2,13.9-3.7l0,0l50.9-29.4c2.2-1.3,3.5-3.6,3.5-6.1l0,0c0-2.5-1.3-4.8-3.5-6.1l0,0
						L159.7,4.1c-4.3-2.5-9.1-3.7-13.9-3.7l0,0C140.9,0.4,136.1,1.6,131.8,4.1 M133.5,72.2L82.6,42.8c-1.2-0.7-1.9-1.9-1.9-3.2l0,0
						c0-1.4,0.7-2.6,1.9-3.2l0,0L133.5,7c7.6-4.4,16.9-4.4,24.5,0l0,0l50.9,29.4c1.2,0.7,1.9,1.9,1.9,3.2l0,0c0,1.3-0.7,2.6-1.9,3.2
						l0,0L158,72.2c-3.8,2.2-8,3.3-12.3,3.3l0,0C141.5,75.5,137.3,74.4,133.5,72.2"/>
				</g>
			</mask>
			
				<linearGradient id="Fill-398_1_" gradientUnits="userSpaceOnUse" x1="-130.0365" y1="357.498" x2="-129.0365" y2="357.498" gradientTransform="matrix(136.7134 0 0 -78.4417 17855.1289 28082.3535)">
				<stop  offset="0" style="stop-color:#E29A64"/>
				<stop  offset="1" style="stop-color:#E85E8C"/>
			</linearGradient>
			<path id="Fill-398" class="st28" d="M131.8,4.1L80.9,33.5c-2.2,1.3-3.5,3.6-3.5,6.1l0,0c0,2.5,1.3,4.8,3.5,6.1l0,0l50.9,29.4
				c4.3,2.5,9.1,3.7,13.9,3.7l0,0c4.8,0,9.6-1.2,13.9-3.7l0,0l50.9-29.4c2.2-1.3,3.5-3.6,3.5-6.1l0,0c0-2.5-1.3-4.8-3.5-6.1l0,0
				L159.7,4.1c-4.3-2.5-9.1-3.7-13.9-3.7l0,0C140.9,0.4,136.1,1.6,131.8,4.1 M133.5,72.2L82.6,42.8c-1.2-0.7-1.9-1.9-1.9-3.2l0,0
				c0-1.4,0.7-2.6,1.9-3.2l0,0L133.5,7c7.6-4.4,16.9-4.4,24.5,0l0,0l50.9,29.4c1.2,0.7,1.9,1.9,1.9,3.2l0,0c0,1.3-0.7,2.6-1.9,3.2
				l0,0L158,72.2c-3.8,2.2-8,3.3-12.3,3.3l0,0C141.5,75.5,137.3,74.4,133.5,72.2"/>
		</g>
		<path id="Fill-401" class="st7" d="M291.3,287.5c-13.7,7.9-35.8,7.9-49.5,0c-13.7-7.9-13.7-20.7,0-28.6c13.7-7.9,35.8-7.9,49.5,0
			C305,266.8,305,279.6,291.3,287.5"/>
		<g id="Group-405" transform="translate(141.660156, 128.341787)">
			<path id="Fill-403" class="st29" d="M77.2,0.9l9.3,107.9c0,6,4,12,11.9,16.5l0,0c15.8,9.1,41.5,9.1,57.3,0l0,0
				c7.9-4.6,11.9-10.6,11.9-16.6l0,0l9.3-107.9H77.2z"/>
		</g>
		<g id="Group-412" transform="translate(141.660156, 93.999683)">
			<path id="Fill-406" class="st1" d="M176.8,35.3H77.2L78.7,53c2.3,2.9,5.4,5.7,9.2,8.3c19,12.6,50.4,15.1,71.9,6l-3.3,78.9
				c-0.1,3.4-1.3,6.8-3.6,9.4c-3.2,3.8-9.4,8.3-21.4,10.8c8.8-0.6,17.4-2.8,24.1-6.7c7.9-4.6,11.9-10.6,11.9-16.6l7.4-86.5
				L176.8,35.3z"/>
			<path id="Fill-408" class="st16" d="M162.2,55.6c-19.5,11.2-51,11.2-70.4,0c-19.5-11.2-19.5-29.4,0-40.7
				c19.5-11.2,51-11.2,70.4,0C181.6,26.2,181.6,44.4,162.2,55.6"/>
			<path id="Fill-410" class="st16" d="M157.3,42.7c-16.8,9.7-43.9,9.7-60.7,0c-16.8-9.7-16.8-25.4,0-35c16.8-9.7,43.9-9.7,60.7,0
				C174.1,17.3,174.1,33,157.3,42.7"/>
		</g>
		<g id="Group-415" transform="translate(138.385963, 89.166349)">
			<path id="Fill-413" class="st30" d="M93.6,8.9C83.7,14.6,78.7,22,78.5,29.5l0,0l0,0l-0.9,8.6c0,0.2-0.1,0.4-0.1,0.7l0,0l0,0.1
				l0,0c-0.5,8.2,4.6,16.5,15.4,22.7l0,0c20.6,11.9,54.1,11.9,74.7,0l0,0c10.9-6.3,16-14.7,15.4-22.9l0,0l0,0l0-0.1c0,0,0-0.1,0-0.1
				l0,0l-1-9.7l0,0.1c-0.4-7.3-5.5-14.5-15.1-20.1l0,0c-10.1-5.8-23.4-8.8-36.6-8.8l0,0C117,0.1,103.7,3,93.6,8.9"/>
		</g>
		<g id="Group-418" transform="translate(147.798243, 93.999683)">
			<path id="Fill-416" class="st31" d="M90.5,7.6c-16.8,9.7-16.8,25.4,0,35l0,0c16.8,9.7,43.9,9.7,60.7,0l0,0
				c16.8-9.7,16.8-25.4,0-35l0,0c-8.4-4.8-19.4-7.3-30.3-7.3l0,0C109.8,0.4,98.9,2.8,90.5,7.6"/>
		</g>
		<g id="Group-421" transform="translate(146.017541, 93.999683)">
			
				<linearGradient id="Fill-419_1_" gradientUnits="userSpaceOnUse" x1="-154.936" y1="496.9134" x2="-153.936" y2="496.9134" gradientTransform="matrix(85.8022 0 0 -49.5389 13371.5176 24641.6738)">
				<stop  offset="0" style="stop-color:#E29A64"/>
				<stop  offset="1" style="stop-color:#E85E8C"/>
			</linearGradient>
			<path id="Fill-419" class="st32" d="M90.2,7.6c-16.8,9.7-16.8,25.4,0,35l0,0c16.8,9.7,43.9,9.7,60.7,0l0,0
				c16.8-9.7,16.8-25.4,0-35l0,0c-8.4-4.8-19.4-7.3-30.3-7.3l0,0C109.6,0.4,98.6,2.8,90.2,7.6"/>
		</g>
		<path id="Fill-422" class="st33" d="M243.4,105.3c16.8-9.7,43.9-9.7,60.7,0c0.2,0.1,0.4,0.3,0.6,0.4c-1.6-1.4-3.5-2.8-5.7-4.1
			c-16.8-9.7-43.9-9.7-60.7,0c-16.5,9.5-16.7,24.9-0.6,34.6C226.9,126.7,228.8,113.7,243.4,105.3"/>
		<g id="Group-426" transform="translate(147.798243, 93.999683)">
			<g id="Clip-425">
			</g>
			<defs>
				<filter id="Adobe_OpacityMaskFilter_11_" filterUnits="userSpaceOnUse" x="77.9" y="0.4" width="85.8" height="26.9">
					<feColorMatrix  type="matrix" values="1 0 0 0 0  0 1 0 0 0  0 0 1 0 0  0 0 0 1 0"/>
				</filter>
			</defs>
			<mask maskUnits="userSpaceOnUse" x="77.9" y="0.4" width="85.8" height="26.9" id="mask-31_1_">
				<g class="st34">
					<path id="path-30_1_" class="st1" d="M90.5,7.6C81.2,13,77,20.3,78.1,27.3l0,0c0.8-5.6,5-11.1,12.4-15.4l0,0
						c16.8-9.7,43.9-9.7,60.7,0l0,0c7.4,4.3,11.6,9.8,12.4,15.4l0,0c1.1-7-3.1-14.3-12.4-19.7l0,0c-8.4-4.8-19.4-7.3-30.3-7.3l0,0
						C109.8,0.4,98.9,2.8,90.5,7.6"/>
				</g>
			</mask>
			<path id="Fill-424" class="st35" d="M90.5,7.6C81.2,13,77,20.3,78.1,27.3l0,0c0.8-5.6,5-11.1,12.4-15.4l0,0
				c16.8-9.7,43.9-9.7,60.7,0l0,0c7.4,4.3,11.6,9.8,12.4,15.4l0,0c1.1-7-3.1-14.3-12.4-19.7l0,0c-8.4-4.8-19.4-7.3-30.3-7.3l0,0
				C109.8,0.4,98.9,2.8,90.5,7.6"/>
		</g>
		<g id="Group-429" transform="translate(138.894734, 88.657577)">
			<path id="Fill-427" class="st36" d="M93.2,8.9c-20.4,11.5-20.6,30.5-0.4,42.4l0,0c20.2,11.9,53.1,12.2,73.5,0.6l0,0
				c20.4-11.5,20.6-30.5,0.4-42.4l0,0c-10.3-6.1-23.9-9.1-37.5-9.1l0,0C116.2,0.5,103.2,3.3,93.2,8.9 M99.4,48
				c-16.8-9.7-16.8-25.4,0-35l0,0c16.8-9.7,43.9-9.7,60.7,0l0,0c16.8,9.7,16.8,25.4,0,35l0,0c-5.6,3.2-12.4,5.4-19.5,6.4l0,0
				l-0.8-2.6c-0.3-1-1.3-1.7-2.3-1.7l0,0H122c-1.1,0-2,0.7-2.3,1.7l0,0l-0.8,2.6C111.8,53.4,105,51.2,99.4,48"/>
		</g>
		<g id="Group-436" transform="translate(138.894734, 92.218981)">
			<path id="Fill-430" class="st1" d="M160.1,7.6c-16.8-9.7-43.9-9.7-60.7,0C90.6,12.6,86.4,19.4,86.9,26c0.4-6,4.6-12,12.5-16.6
				c16.8-9.7,43.9-9.7,60.7,0C168,14,172.2,20,172.6,26C173,19.4,168.8,12.6,160.1,7.6"/>
			<path id="Fill-432" class="st1" d="M166.3,46.6C145.9,58.2,113,57.9,92.8,46c-9.6-5.7-14.6-12.9-15-20.2
				c-0.4,7.9,4.6,15.9,15,22.1c20.2,11.9,53.1,12.2,73.5,0.6c10.7-6,15.8-14.1,15.4-22.2C181.3,33.7,176.2,41,166.3,46.6"/>
			<path id="Fill-434" class="st37" d="M134.3,52.2h-9.2c-0.6,0-1.2-0.5-1.2-1.2v-0.2c0-0.6,0.5-1.2,1.2-1.2h9.2
				c0.6,0,1.2,0.5,1.2,1.2V51C135.5,51.7,135,52.2,134.3,52.2"/>
		</g>
		<g id="Group-439" transform="translate(185.192979, 141.791419)">
			<path id="Fill-437" class="st38" d="M78.8,0.1c-0.6,0-1.2,0.5-1.2,1.2l0,0v0.2c0,0.1,0,0.2,0.1,0.3l0,0c0.1-0.5,0.6-0.9,1.1-0.9
				l0,0H88c0.5,0,1,0.4,1.1,0.9l0,0c0-0.1,0.1-0.2,0.1-0.3l0,0V1.3c0-0.6-0.5-1.2-1.2-1.2l0,0H78.8z"/>
		</g>
		<g id="Group-452" transform="translate(173.712787, 0.131263)">
			<path id="Fill-440" class="st25" d="M96.3,225.9c-1.1,4.2-5.5,6.8-9.7,5.6c-4.2-1.1-6.8-5.5-5.6-9.7c1.1-4.2,5.1-5.4,9.4-4.3
				C94.6,218.6,97.4,221.7,96.3,225.9"/>
			<path id="Fill-442" class="st25" d="M102.6,217.5c-1.6,1.6-3.7,1.4-5,0c-1.4-1.4-1.5-3.4,0.1-5c1.6-1.6,4.6-2.3,6-0.9
				C105,212.9,104.2,216,102.6,217.5"/>
			<path id="Fill-444" class="st25" d="M94.3,210.9c-0.4,2.2-2.2,3.2-4.1,2.9c-1.9-0.3-3.2-1.9-2.8-4.1c0.4-2.2,2.4-4.6,4.3-4.3
				C93.6,205.7,94.7,208.7,94.3,210.9"/>
			<path id="Fill-446" class="st25" d="M84,209.9c0.9,2.1-0.1,3.9-1.9,4.6c-1.8,0.7-3.8,0.1-4.6-2c-0.9-2.1-0.4-5.2,1.4-5.9
				C80.7,205.9,83.2,207.8,84,209.9"/>
			<path id="Fill-448" class="st39" d="M98.2,143c0,0,27.9-9.3,16.6-41.3c-11.3-32-33.2-41.8-24.4-67.4c0,0-13.9,20.7-0.9,48.8
				c13,28,15.8,24.8,15.6,38.2C104.9,137.3,92,143,92,143H98.2z"/>
			<path id="Fill-450" class="st39" d="M100.7,38.8c0,0-2.9-19.1,15.1-38.4c0,0-15.9,35.5-10.7,53C105,53.4,100.8,42.2,100.7,38.8"
				/>
		</g>
	</g>
</g>
</svg>
